<svg width="20" height="370" viewBox="0 0 20 370" fill="none" xmlns="http://www.w3.org/2000/svg">
    <path d="M10.26 16.47C10.26 16.77 10.065 17.01 9.675 17.19C9.315 17.37 9.045 17.46 8.865 17.46C8.745 17.46 8.565 17.415 8.325 17.325C8.115 17.205 7.98 17.07 7.92 16.92C7.59 15.75 7.32 14.67 7.11 13.68C6.93 12.69 6.765 11.73 6.615 10.8C6.495 9.87 6.375 8.925 6.255 7.965C6.165 7.005 6.045 5.955 5.895 4.815C5.655 4.905 5.34 5.085 4.95 5.355C4.56 5.595 4.17 5.85 3.78 6.12C3.39 6.36 3.045 6.585 2.745 6.795C2.475 7.005 2.31 7.11 2.25 7.11C2.16 7.11 2.07 6.99 1.98 6.75C1.92 6.51 1.89 6.345 1.89 6.255C1.89 6.195 1.905 6.105 1.935 5.985C1.995 5.835 2.055 5.715 2.115 5.625C2.175 5.535 2.415 5.31 2.835 4.95C3.285 4.56 3.75 4.14 4.23 3.69C4.74 3.21 5.19 2.745 5.58 2.295C5.97 1.815 6.165 1.44 6.165 1.17C6.165 0.929999 6.255 0.779999 6.435 0.72C6.615 0.66 6.735 0.63 6.795 0.63C7.035 0.63 7.23 0.719999 7.38 0.899999C7.53 1.08 7.65 1.305 7.74 1.575C7.83 1.845 7.89 2.13 7.92 2.43C7.98 2.7 8.01 2.925 8.01 3.105C8.01 4.665 8.07 5.985 8.19 7.065C8.34 8.115 8.505 9.12 8.685 10.08C8.805 11.13 8.955 12.03 9.135 12.78C9.315 13.5 9.48 14.115 9.63 14.625C9.81 15.105 9.96 15.495 10.08 15.795C10.2 16.095 10.26 16.32 10.26 16.47ZM17.6878 15.12C17.6878 15.3 17.5978 15.48 17.4178 15.66C17.2378 15.81 17.0278 15.96 16.7878 16.11C16.5778 16.23 16.3678 16.335 16.1578 16.425C15.9478 16.485 15.8278 16.515 15.7978 16.515C15.5278 16.515 15.3178 16.455 15.1678 16.335C15.0478 16.185 14.9428 16.035 14.8528 15.885C14.7928 15.705 14.7478 15.54 14.7178 15.39C14.7178 15.24 14.7178 15.135 14.7178 15.075C14.7178 14.955 14.7478 14.805 14.8078 14.625C14.8678 14.415 14.9578 14.22 15.0778 14.04C15.1978 13.86 15.3328 13.71 15.4828 13.59C15.6628 13.44 15.8578 13.365 16.0678 13.365C16.4578 13.365 16.8178 13.53 17.1478 13.86C17.5078 14.19 17.6878 14.61 17.6878 15.12Z" fill="#FFD600"/>
    <path d="M12.373 56.076C12.373 56.3913 12.2297 56.635 11.943 56.807C11.685 56.979 11.47 57.065 11.298 57.065C11.04 57.065 10.8393 57.022 10.696 56.936C10.5813 56.85 10.438 56.7497 10.266 56.635C10.1227 56.5203 9.922 56.42 9.664 56.334C9.43467 56.248 9.09067 56.205 8.632 56.205C8.05867 56.205 7.54267 56.3483 7.084 56.635C6.654 56.9217 6.23833 57.237 5.837 57.581C5.46433 57.8963 5.09167 58.1973 4.719 58.484C4.34633 58.7707 3.95933 58.914 3.558 58.914C3.07067 58.914 2.75533 58.742 2.612 58.398C2.46867 58.054 2.397 57.6097 2.397 57.065C2.397 56.9503 2.58333 56.5347 2.956 55.818C3.32867 55.0727 3.75867 54.2557 4.246 53.367C4.762 52.4783 5.24933 51.6327 5.708 50.83C6.16667 49.9987 6.482 49.4253 6.654 49.11C6.826 48.7947 7.06967 48.3503 7.385 47.777C7.70033 47.2037 8.01567 46.6303 8.331 46.057C8.675 45.455 8.96167 44.939 9.191 44.509C9.42033 44.0503 9.535 43.778 9.535 43.692C9.535 43.4913 9.492 43.3623 9.406 43.305C9.32 43.2477 9.234 43.219 9.148 43.219C8.94733 43.219 8.503 43.3337 7.815 43.563C7.15567 43.7923 6.439 44.036 5.665 44.294C4.91967 44.552 4.203 44.7957 3.515 45.025C2.85567 45.2543 2.44 45.369 2.268 45.369C2.23933 45.369 2.15333 45.2973 2.01 45.154C1.95267 45.068 1.89533 44.982 1.838 44.896C1.80933 44.81 1.795 44.724 1.795 44.638C1.795 44.5233 2.12467 44.2797 2.784 43.907C3.472 43.5343 4.289 43.1617 5.235 42.789C6.181 42.3877 7.14133 42.0437 8.116 41.757C9.11933 41.4417 9.93633 41.284 10.567 41.284C10.9397 41.284 11.2693 41.3987 11.556 41.628C11.8427 41.8573 11.986 42.1727 11.986 42.574C11.986 43.004 11.8283 43.5917 11.513 44.337C11.1977 45.0823 10.7963 45.8993 10.309 46.788C9.82167 47.6767 9.29133 48.594 8.718 49.54C8.17333 50.486 7.65733 51.3603 7.17 52.163C6.68267 52.937 6.267 53.6107 5.923 54.184C5.579 54.7287 5.39267 55.0727 5.364 55.216C5.56467 55.1013 5.82267 55.001 6.138 54.915C6.45333 54.8003 6.76867 54.7 7.084 54.614C7.428 54.528 7.74333 54.4563 8.03 54.399C8.34533 54.3417 8.589 54.313 8.761 54.313C8.99033 54.313 9.30567 54.3417 9.707 54.399C10.1083 54.4563 10.5097 54.5567 10.911 54.7C11.3123 54.8147 11.6563 54.9867 11.943 55.216C12.2297 55.4453 12.373 55.732 12.373 56.076ZM19.2611 56.248C19.2611 56.42 19.1751 56.592 19.0031 56.764C18.8311 56.9073 18.6304 57.0507 18.4011 57.194C18.2004 57.3087 17.9997 57.409 17.7991 57.495C17.5984 57.5523 17.4837 57.581 17.4551 57.581C17.1971 57.581 16.9964 57.5237 16.8531 57.409C16.7384 57.2657 16.6381 57.1223 16.5521 56.979C16.4947 56.807 16.4517 56.6493 16.4231 56.506C16.4231 56.3627 16.4231 56.2623 16.4231 56.205C16.4231 56.0903 16.4517 55.947 16.5091 55.775C16.5664 55.5743 16.6524 55.388 16.7671 55.216C16.8817 55.044 17.0107 54.9007 17.1541 54.786C17.3261 54.6427 17.5124 54.571 17.7131 54.571C18.0857 54.571 18.4297 54.7287 18.7451 55.044C19.0891 55.3593 19.2611 55.7607 19.2611 56.248Z" fill="#565151"/>
    <path d="M12.611 125.434C12.611 125.564 12.533 125.72 12.377 125.902C12.247 126.084 12.104 126.201 11.948 126.253C11.61 126.409 11.246 126.487 10.856 126.487C10.466 126.487 10.102 126.513 9.764 126.565C9.426 126.591 9.14 126.682 8.906 126.838C8.698 126.968 8.594 127.241 8.594 127.657C8.594 127.787 8.62 128.099 8.672 128.593C8.724 129.061 8.776 129.62 8.828 130.27C8.906 130.894 8.971 131.57 9.023 132.298C9.075 133.026 9.101 133.689 9.101 134.287C9.101 134.443 9.088 134.612 9.062 134.794C9.036 135.002 8.984 135.197 8.906 135.379C8.828 135.561 8.724 135.717 8.594 135.847C8.464 135.977 8.282 136.042 8.048 136.042C7.84 136.042 7.671 135.925 7.541 135.691C7.437 135.483 7.346 135.249 7.268 134.989C7.216 134.729 7.177 134.482 7.151 134.248C7.151 134.014 7.151 133.884 7.151 133.858C7.151 133.832 7.138 133.585 7.112 133.117C7.112 132.649 7.099 132.09 7.073 131.44C7.073 130.764 7.06 130.062 7.034 129.334C7.034 128.58 7.021 127.917 6.995 127.345C6.995 127.085 6.93 126.955 6.8 126.955C6.722 126.955 6.527 126.981 6.215 127.033C5.929 127.059 5.643 127.072 5.357 127.072C5.227 127.072 4.928 127.059 4.46 127.033C4.018 127.007 3.537 126.929 3.017 126.799C2.497 126.643 2.029 126.435 1.613 126.175C1.223 125.889 1.028 125.486 1.028 124.966C1.028 124.602 1.171 124.212 1.457 123.796C1.743 123.38 2.107 122.951 2.549 122.509C2.991 122.067 3.459 121.638 3.953 121.222C4.447 120.78 4.915 120.364 5.357 119.974C5.799 119.584 6.163 119.233 6.449 118.921C6.735 118.609 6.878 118.349 6.878 118.141V116.776C6.878 116.646 6.93 116.555 7.034 116.503C7.164 116.451 7.268 116.425 7.346 116.425C7.58 116.425 7.762 116.529 7.892 116.737C8.048 116.919 8.165 117.153 8.243 117.439C8.321 117.699 8.373 117.959 8.399 118.219C8.425 118.479 8.438 118.674 8.438 118.804C8.438 119.506 8.438 120.091 8.438 120.559C8.464 121.001 8.49 121.417 8.516 121.807C8.542 122.171 8.555 122.561 8.555 122.977C8.581 123.367 8.594 123.874 8.594 124.498C8.594 124.758 8.698 124.888 8.906 124.888C8.984 124.888 9.14 124.862 9.374 124.81C9.634 124.732 9.907 124.667 10.193 124.615C10.505 124.537 10.791 124.472 11.051 124.42C11.311 124.342 11.493 124.303 11.597 124.303C11.883 124.303 12.117 124.407 12.299 124.615C12.507 124.823 12.611 125.096 12.611 125.434ZM6.956 122.938C6.956 122.522 6.943 122.106 6.917 121.69C6.917 121.274 6.865 120.962 6.761 120.754C6.085 121.43 5.487 122.041 4.967 122.587C4.525 123.055 4.109 123.523 3.719 123.991C3.355 124.433 3.173 124.719 3.173 124.849C3.511 124.979 3.901 125.057 4.343 125.083C4.785 125.109 5.175 125.122 5.513 125.122C5.721 125.122 5.955 125.122 6.215 125.122C6.501 125.096 6.748 125.057 6.956 125.005V122.938ZM18.5189 130.504C18.5189 130.66 18.4409 130.816 18.2849 130.972C18.1289 131.102 17.9469 131.232 17.7389 131.362C17.5569 131.466 17.3749 131.557 17.1929 131.635C17.0109 131.687 16.9069 131.713 16.8809 131.713C16.6469 131.713 16.4649 131.661 16.3349 131.557C16.2309 131.427 16.1399 131.297 16.0619 131.167C16.0099 131.011 15.9709 130.868 15.9449 130.738C15.9449 130.608 15.9449 130.517 15.9449 130.465C15.9449 130.361 15.9709 130.231 16.0229 130.075C16.0749 129.893 16.1529 129.724 16.2569 129.568C16.3609 129.412 16.4779 129.282 16.6079 129.178C16.7639 129.048 16.9329 128.983 17.1149 128.983C17.4529 128.983 17.7649 129.126 18.0509 129.412C18.3629 129.698 18.5189 130.062 18.5189 130.504Z" fill="#565151"/>
    <path d="M14.837 158.939C14.837 159.038 14.5533 159.186 13.986 159.383C12.802 159.753 11.729 160.074 10.767 160.345C9.805 160.616 8.85533 160.962 7.918 161.381C7.05467 161.776 6.41333 162.121 5.994 162.417C5.57467 162.713 5.328 162.861 5.254 162.861C5.20467 162.861 5.15533 162.849 5.106 162.824C5.05667 162.775 5.01967 162.75 4.995 162.75C4.87167 162.873 4.67433 163.071 4.403 163.342C4.13167 163.589 3.93433 163.811 3.811 164.008C3.86033 164.057 3.93433 164.094 4.033 164.119C4.13167 164.144 4.24267 164.168 4.366 164.193C4.48933 164.218 4.625 164.23 4.773 164.23C5.01967 164.23 5.439 164.279 6.031 164.378C6.623 164.477 7.22733 164.649 7.844 164.896C8.46067 165.143 9.00333 165.5 9.472 165.969C9.96533 166.413 10.212 166.98 10.212 167.671C10.212 168.09 10.0023 168.46 9.583 168.781C9.18833 169.102 8.732 169.373 8.214 169.595C7.72067 169.817 7.22733 169.99 6.734 170.113C6.26533 170.212 5.957 170.261 5.809 170.261C5.34033 170.261 4.921 170.076 4.551 169.706C4.181 169.311 3.996 168.88 3.996 168.411C3.996 168.312 4.07 168.263 4.218 168.263C4.39067 168.263 4.57567 168.3 4.773 168.374C4.995 168.423 5.20467 168.448 5.402 168.448C5.45133 168.448 5.624 168.423 5.92 168.374C6.216 168.3 6.52433 168.201 6.845 168.078C7.19033 167.93 7.48633 167.77 7.733 167.597C8.00433 167.424 8.14 167.227 8.14 167.005C8.14 166.857 8.01667 166.721 7.77 166.598C7.548 166.475 7.289 166.364 6.993 166.265C6.697 166.166 6.401 166.092 6.105 166.043C5.83367 165.994 5.63633 165.969 5.513 165.969C5.365 165.969 5.217 165.981 5.069 166.006C4.921 166.031 4.67433 166.043 4.329 166.043C4.107 166.043 3.848 166.031 3.552 166.006C3.256 165.957 2.96 165.883 2.664 165.784C2.39267 165.661 2.15833 165.488 1.961 165.266C1.76367 165.019 1.665 164.711 1.665 164.341C1.665 164.168 1.813 163.872 2.109 163.453C2.405 163.009 2.75033 162.577 3.145 162.158C3.56433 161.714 3.98367 161.332 4.403 161.011C4.82233 160.666 5.16767 160.493 5.439 160.493C5.513 160.493 5.56233 160.53 5.587 160.604C5.61167 160.653 5.661 160.678 5.735 160.678C6.105 160.505 6.59833 160.296 7.215 160.049C7.85633 159.802 8.52233 159.568 9.213 159.346C9.90367 159.124 10.582 158.939 11.248 158.791C11.914 158.618 12.4567 158.532 12.876 158.532C13.394 158.532 13.8503 158.569 14.245 158.643C14.6397 158.692 14.837 158.791 14.837 158.939ZM16.8919 169.632C16.8919 169.78 16.8179 169.928 16.6699 170.076C16.5219 170.199 16.3493 170.323 16.1519 170.446C15.9793 170.545 15.8066 170.631 15.6339 170.705C15.4613 170.754 15.3626 170.779 15.3379 170.779C15.1159 170.779 14.9433 170.73 14.8199 170.631C14.7213 170.508 14.6349 170.384 14.5609 170.261C14.5116 170.113 14.4746 169.977 14.4499 169.854C14.4499 169.731 14.4499 169.644 14.4499 169.595C14.4499 169.496 14.4746 169.373 14.5239 169.225C14.5733 169.052 14.6473 168.892 14.7459 168.744C14.8446 168.596 14.9556 168.473 15.0789 168.374C15.2269 168.251 15.3873 168.189 15.5599 168.189C15.8806 168.189 16.1766 168.325 16.4479 168.596C16.7439 168.867 16.8919 169.213 16.8919 169.632Z" fill="#565151"/>
    <path d="M11.997 81.06C11.997 81.5247 11.751 81.9757 11.259 82.413C10.7943 82.8503 10.275 83.2603 9.701 83.643C9.127 83.9983 8.58033 84.299 8.061 84.545C7.569 84.7637 7.282 84.8867 7.2 84.914C6.872 85.0507 6.708 85.201 6.708 85.365C6.708 85.4743 6.81733 85.5427 7.036 85.57C7.282 85.57 7.692 85.6793 8.266 85.898C8.594 86.0073 8.94933 86.1577 9.332 86.349C9.71467 86.513 10.07 86.7453 10.398 87.046C10.726 87.3193 10.9993 87.6747 11.218 88.112C11.4367 88.522 11.546 89.0277 11.546 89.629C11.546 90.2577 11.3137 90.859 10.849 91.433C10.3843 92.007 9.81033 92.5127 9.127 92.95C8.471 93.3873 7.74667 93.7427 6.954 94.016C6.18867 94.262 5.49167 94.385 4.863 94.385C4.48033 94.385 4.084 94.3577 3.674 94.303C3.29133 94.221 2.92233 94.1117 2.567 93.975C2.239 93.8383 1.96567 93.6607 1.747 93.442C1.52833 93.2233 1.419 92.95 1.419 92.622C1.419 92.458 1.47367 92.253 1.583 92.007C1.71967 91.7337 1.85633 91.5287 1.993 91.392C2.321 91.6927 2.69 91.925 3.1 92.089C3.53733 92.253 4.084 92.335 4.74 92.335C5.17733 92.335 5.66933 92.253 6.216 92.089C6.79 91.8977 7.323 91.6653 7.815 91.392C8.307 91.0913 8.717 90.7633 9.045 90.408C9.373 90.0253 9.537 89.629 9.537 89.219C9.537 88.645 9.25 88.235 8.676 87.989C8.102 87.743 7.47333 87.538 6.79 87.374C6.10667 87.1827 5.478 86.9777 4.904 86.759C4.33 86.513 4.043 86.103 4.043 85.529C4.043 85.1463 4.31633 84.7637 4.863 84.381C5.437 83.9983 6.06567 83.6293 6.749 83.274C7.43233 82.9187 8.04733 82.5907 8.594 82.29C9.168 81.962 9.455 81.6613 9.455 81.388C9.455 81.1967 9.27733 81.101 8.922 81.101C8.48467 81.101 8.00633 81.1693 7.487 81.306C6.96767 81.4427 6.462 81.593 5.97 81.757C5.50533 81.921 5.068 82.0713 4.658 82.208C4.27533 82.3447 3.98833 82.413 3.797 82.413C3.41433 82.413 3.15467 82.3447 3.018 82.208C2.90867 82.0713 2.854 81.839 2.854 81.511C2.854 81.3197 2.99067 81.142 3.264 80.978C3.53733 80.7867 3.879 80.609 4.289 80.445C4.72633 80.281 5.191 80.1443 5.683 80.035C6.20233 79.8983 6.69433 79.789 7.159 79.707C7.62367 79.5977 8.03367 79.5157 8.389 79.461C8.77167 79.4063 9.03133 79.379 9.168 79.379C9.35933 79.379 9.60533 79.4063 9.906 79.461C10.234 79.4883 10.5483 79.5703 10.849 79.707C11.1497 79.8163 11.4093 79.9803 11.628 80.199C11.874 80.4177 11.997 80.7047 11.997 81.06ZM18.3187 92.376C18.3187 92.54 18.2367 92.704 18.0727 92.868C17.9087 93.0047 17.7174 93.1413 17.4987 93.278C17.3074 93.3873 17.116 93.483 16.9247 93.565C16.7334 93.6197 16.624 93.647 16.5967 93.647C16.3507 93.647 16.1594 93.5923 16.0227 93.483C15.9134 93.3463 15.8177 93.2097 15.7357 93.073C15.681 92.909 15.64 92.7587 15.6127 92.622C15.6127 92.4853 15.6127 92.3897 15.6127 92.335C15.6127 92.2257 15.64 92.089 15.6947 91.925C15.7494 91.7337 15.8314 91.556 15.9407 91.392C16.05 91.228 16.173 91.0913 16.3097 90.982C16.4737 90.8453 16.6514 90.777 16.8427 90.777C17.198 90.777 17.526 90.9273 17.8267 91.228C18.1547 91.5287 18.3187 91.9113 18.3187 92.376Z" fill="#565151"/>
    <path d="M10.54 205.065C10.54 205.532 10.4233 206.033 10.19 206.57C9.98 207.083 9.71167 207.573 9.385 208.04C9.05833 208.507 8.70833 208.892 8.335 209.195C7.96167 209.498 7.62333 209.65 7.32 209.65C6.99333 209.65 6.63167 209.533 6.235 209.3C5.83833 209.067 5.54667 208.775 5.36 208.425C5.31333 208.308 5.26667 208.25 5.22 208.25C5.12667 208.25 5.03333 208.308 4.94 208.425C4.87 208.518 4.78833 208.565 4.695 208.565C4.64833 208.565 4.57833 208.495 4.485 208.355C4.415 208.192 4.345 208.017 4.275 207.83C4.205 207.62 4.135 207.422 4.065 207.235C4.01833 207.048 3.995 206.908 3.995 206.815C3.995 206.745 4.01833 206.605 4.065 206.395C4.135 206.162 4.17 206.01 4.17 205.94V204.19C4.17 203.303 4.26333 202.312 4.45 201.215C4.66 200.095 4.94 199.045 5.29 198.065C5.66333 197.085 6.095 196.268 6.585 195.615C7.075 194.938 7.62333 194.6 8.23 194.6C8.62667 194.6 8.91833 194.693 9.105 194.88C9.29167 195.043 9.385 195.195 9.385 195.335C9.385 195.475 9.32667 195.58 9.21 195.65C9.09333 195.72 8.97667 195.802 8.86 195.895C8.37 196.292 7.92667 196.793 7.53 197.4C7.15667 198.007 6.83 198.66 6.55 199.36C6.29333 200.06 6.08333 200.783 5.92 201.53C5.78 202.253 5.71 202.942 5.71 203.595C5.82667 203.478 5.97833 203.35 6.165 203.21C6.375 203.047 6.59667 202.895 6.83 202.755C7.06333 202.615 7.30833 202.498 7.565 202.405C7.82167 202.288 8.055 202.23 8.265 202.23C8.73167 202.23 9.105 202.323 9.385 202.51C9.68833 202.673 9.92167 202.895 10.085 203.175C10.2717 203.432 10.3883 203.735 10.435 204.085C10.505 204.412 10.54 204.738 10.54 205.065ZM9.07 204.855C9.07 204.202 8.83667 203.875 8.37 203.875C8.11333 203.875 7.83333 203.98 7.53 204.19C7.25 204.377 6.98167 204.61 6.725 204.89C6.46833 205.147 6.25833 205.415 6.095 205.695C5.93167 205.975 5.85 206.185 5.85 206.325C5.85 206.442 5.89667 206.593 5.99 206.78C6.08333 206.943 6.18833 207.107 6.305 207.27C6.42167 207.433 6.55 207.585 6.69 207.725C6.83 207.842 6.95833 207.9 7.075 207.9C7.30833 207.9 7.54167 207.783 7.775 207.55C8.00833 207.317 8.21833 207.048 8.405 206.745C8.615 206.418 8.77833 206.08 8.895 205.73C9.01167 205.38 9.07 205.088 9.07 204.855ZM16.2699 207.76C16.2699 207.9 16.1999 208.04 16.0599 208.18C15.9199 208.297 15.7565 208.413 15.5699 208.53C15.4065 208.623 15.2432 208.705 15.0799 208.775C14.9165 208.822 14.8232 208.845 14.7999 208.845C14.5899 208.845 14.4265 208.798 14.3099 208.705C14.2165 208.588 14.1349 208.472 14.0649 208.355C14.0182 208.215 13.9832 208.087 13.9599 207.97C13.9599 207.853 13.9599 207.772 13.9599 207.725C13.9599 207.632 13.9832 207.515 14.0299 207.375C14.0765 207.212 14.1465 207.06 14.2399 206.92C14.3332 206.78 14.4382 206.663 14.5549 206.57C14.6949 206.453 14.8465 206.395 15.0099 206.395C15.3132 206.395 15.5932 206.523 15.8499 206.78C16.1299 207.037 16.2699 207.363 16.2699 207.76Z" fill="#565151"/>
    <path d="M11.857 238.374C11.857 238.572 11.769 238.803 11.593 239.067C11.417 239.331 11.208 239.661 10.966 240.057C10.746 240.453 10.504 240.948 10.24 241.542C9.976 242.114 9.756 242.829 9.58 243.687C9.47 244.215 9.393 244.809 9.349 245.469C9.327 246.129 9.206 246.712 8.986 247.218C8.876 247.46 8.722 247.691 8.524 247.911C8.348 248.131 8.128 248.241 7.864 248.241C7.688 248.241 7.567 248.109 7.501 247.845C7.457 247.581 7.435 247.361 7.435 247.185C7.435 246.899 7.501 246.404 7.633 245.7C7.765 244.974 7.93 244.204 8.128 243.39C8.326 242.554 8.546 241.751 8.788 240.981C9.03 240.189 9.261 239.595 9.481 239.199C9.437 239.155 9.382 239.122 9.316 239.1C9.25 239.056 9.107 239.034 8.887 239.034C8.887 239.034 8.7 239.056 8.326 239.1C7.974 239.122 7.556 239.155 7.072 239.199C6.61 239.221 6.137 239.254 5.653 239.298C5.169 239.32 4.795 239.331 4.531 239.331C4.113 239.331 3.728 239.32 3.376 239.298C3.024 239.276 2.716 239.221 2.452 239.133C2.188 239.045 1.979 238.913 1.825 238.737C1.671 238.561 1.594 238.319 1.594 238.011C1.594 237.835 1.649 237.714 1.759 237.648C1.891 237.582 2.012 237.549 2.122 237.549C2.1 237.549 2.353 237.604 2.881 237.714C3.431 237.802 4.058 237.846 4.762 237.846C5.994 237.846 7.127 237.78 8.161 237.648C9.217 237.494 9.965 237.329 10.405 237.153C10.537 237.109 10.614 237.087 10.636 237.087C10.702 237.087 10.79 237.131 10.9 237.219C11.142 237.351 11.362 237.505 11.56 237.681C11.758 237.835 11.857 238.066 11.857 238.374ZM17.2904 246.888C17.2904 247.02 17.2244 247.152 17.0924 247.284C16.9604 247.394 16.8064 247.504 16.6304 247.614C16.4764 247.702 16.3224 247.779 16.1684 247.845C16.0144 247.889 15.9264 247.911 15.9044 247.911C15.7064 247.911 15.5524 247.867 15.4424 247.779C15.3544 247.669 15.2774 247.559 15.2114 247.449C15.1674 247.317 15.1344 247.196 15.1124 247.086C15.1124 246.976 15.1124 246.899 15.1124 246.855C15.1124 246.767 15.1344 246.657 15.1784 246.525C15.2224 246.371 15.2884 246.228 15.3764 246.096C15.4644 245.964 15.5634 245.854 15.6734 245.766C15.8054 245.656 15.9484 245.601 16.1024 245.601C16.3884 245.601 16.6524 245.722 16.8944 245.964C17.1584 246.206 17.2904 246.514 17.2904 246.888Z" fill="#565151"/>
    <path d="M13.803 275.716C13.803 275.985 13.648 276.295 13.338 276.646C13.0487 276.997 12.6663 277.359 12.191 277.731C11.7363 278.082 11.23 278.434 10.672 278.785C10.1347 279.136 9.618 279.467 9.122 279.777C8.64667 280.066 8.23333 280.314 7.882 280.521C7.53067 280.707 7.31367 280.831 7.231 280.893C7.37567 281.079 7.52033 281.348 7.665 281.699C7.83033 282.03 7.975 282.391 8.099 282.784C8.24367 283.177 8.35733 283.559 8.44 283.931C8.54333 284.303 8.595 284.623 8.595 284.892C8.595 285.223 8.52267 285.533 8.378 285.822C8.254 286.091 8.07833 286.328 7.851 286.535C7.62367 286.721 7.36533 286.876 7.076 287C6.80733 287.103 6.53867 287.155 6.27 287.155C5.836 287.155 5.41233 287.103 4.999 287C4.58567 286.897 4.224 286.742 3.914 286.535C3.604 286.328 3.34567 286.07 3.139 285.76C2.953 285.429 2.86 285.047 2.86 284.613C2.86 284.034 2.99433 283.518 3.263 283.063C3.55233 282.588 3.86233 282.185 4.193 281.854C4.52367 281.503 4.82333 281.234 5.092 281.048C5.38133 280.841 5.526 280.707 5.526 280.645C5.526 280.583 5.41233 280.397 5.185 280.087C4.97833 279.777 4.74067 279.405 4.472 278.971C4.20333 278.537 3.95533 278.082 3.728 277.607C3.52133 277.111 3.418 276.667 3.418 276.274C3.418 275.881 3.511 275.53 3.697 275.22C3.90367 274.91 4.162 274.652 4.472 274.445C4.80267 274.238 5.17467 274.083 5.588 273.98C6.00133 273.877 6.425 273.825 6.859 273.825C7.293 273.825 7.727 273.856 8.161 273.918C8.595 273.959 8.97733 274.052 9.308 274.197C9.63867 274.321 9.90733 274.507 10.114 274.755C10.3207 274.982 10.424 275.292 10.424 275.685C10.424 275.726 10.3827 275.819 10.3 275.964C10.238 276.088 10.145 276.233 10.021 276.398C9.91767 276.543 9.804 276.677 9.68 276.801C9.57667 276.925 9.48367 276.987 9.401 276.987C9.277 276.987 9.215 276.884 9.215 276.677C9.215 276.615 9.22533 276.543 9.246 276.46C9.28733 276.357 9.308 276.274 9.308 276.212C9.308 275.84 9.10133 275.582 8.688 275.437C8.29533 275.272 7.82 275.189 7.262 275.189C7.076 275.189 6.84867 275.21 6.58 275.251C6.31133 275.292 6.04267 275.375 5.774 275.499C5.50533 275.602 5.278 275.757 5.092 275.964C4.906 276.15 4.813 276.388 4.813 276.677C4.813 276.78 4.89567 276.987 5.061 277.297C5.22633 277.607 5.41233 277.938 5.619 278.289C5.82567 278.64 6.022 278.971 6.208 279.281C6.41467 279.57 6.549 279.756 6.611 279.839C7.045 279.612 7.53067 279.333 8.068 279.002C8.60533 278.651 9.20467 278.31 9.866 277.979C10.3207 277.752 10.765 277.493 11.199 277.204C11.633 276.894 12.0153 276.615 12.346 276.367C12.6973 276.098 12.9867 275.871 13.214 275.685C13.4413 275.499 13.5757 275.406 13.617 275.406C13.679 275.406 13.7203 275.447 13.741 275.53C13.7823 275.613 13.803 275.675 13.803 275.716ZM7.2 284.551C7.2 284.489 7.169 284.313 7.107 284.024C7.06567 283.735 6.99333 283.435 6.89 283.125C6.80733 282.794 6.69367 282.505 6.549 282.257C6.425 281.988 6.28033 281.854 6.115 281.854C6.03233 281.854 5.87733 281.947 5.65 282.133C5.44333 282.298 5.22633 282.505 4.999 282.753C4.79233 283.001 4.596 283.27 4.41 283.559C4.24467 283.828 4.162 284.055 4.162 284.241C4.162 284.592 4.30667 284.933 4.596 285.264C4.88533 285.595 5.29867 285.76 5.836 285.76C6.18733 285.76 6.49733 285.646 6.766 285.419C7.05533 285.192 7.2 284.902 7.2 284.551ZM17.1205 285.016C17.1205 285.14 17.0585 285.264 16.9345 285.388C16.8105 285.491 16.6658 285.595 16.5005 285.698C16.3558 285.781 16.2112 285.853 16.0665 285.915C15.9218 285.956 15.8392 285.977 15.8185 285.977C15.6325 285.977 15.4878 285.936 15.3845 285.853C15.3018 285.75 15.2295 285.646 15.1675 285.543C15.1262 285.419 15.0952 285.305 15.0745 285.202C15.0745 285.099 15.0745 285.026 15.0745 284.985C15.0745 284.902 15.0952 284.799 15.1365 284.675C15.1778 284.53 15.2398 284.396 15.3225 284.272C15.4052 284.148 15.4982 284.045 15.6015 283.962C15.7255 283.859 15.8598 283.807 16.0045 283.807C16.2732 283.807 16.5212 283.921 16.7485 284.148C16.9965 284.375 17.1205 284.665 17.1205 285.016Z" fill="#565151"/>
    <path d="M12.034 319.169C12.034 319.382 11.947 319.701 11.773 320.126C11.6183 320.532 11.425 321.083 11.193 321.779C10.9803 322.456 10.758 323.297 10.526 324.302C10.294 325.288 10.12 326.458 10.004 327.811C9.98467 328.062 9.96533 328.265 9.946 328.42C9.946 328.575 9.93633 328.71 9.917 328.826C9.917 328.942 9.917 329.048 9.917 329.145C9.917 329.261 9.917 329.387 9.917 329.522C9.917 329.657 9.92667 329.754 9.946 329.812C9.98467 329.889 10.004 329.976 10.004 330.073C10.004 330.518 9.772 330.74 9.308 330.74C9.09533 330.74 8.89233 330.634 8.699 330.421C8.525 330.208 8.44767 329.976 8.467 329.725C8.48633 329.474 8.525 329.01 8.583 328.333C8.66033 327.656 8.74733 326.912 8.844 326.1C8.96 325.288 9.08567 324.486 9.221 323.693C9.35633 322.9 9.50133 322.262 9.656 321.779C9.44333 321.895 9.20167 322.011 8.931 322.127C8.66033 322.243 8.37033 322.349 8.061 322.446C7.75167 322.523 7.452 322.591 7.162 322.649C6.872 322.707 6.611 322.736 6.379 322.736C5.567 322.736 4.89033 322.456 4.349 321.895C3.80767 321.334 3.537 320.629 3.537 319.778C3.537 319.275 3.64333 318.831 3.856 318.444C4.088 318.057 4.36833 317.738 4.697 317.487C5.045 317.216 5.41233 317.013 5.799 316.878C6.18567 316.743 6.54333 316.675 6.872 316.675C7.66467 316.675 8.30267 316.81 8.786 317.081C9.28867 317.352 9.70433 317.951 10.033 318.879C10.0523 318.918 10.062 318.976 10.062 319.053C10.0813 319.111 10.091 319.15 10.091 319.169C10.091 319.246 10.0717 319.324 10.033 319.401C10.0137 319.459 10.004 319.527 10.004 319.604C10.004 319.623 10.0233 319.691 10.062 319.807C10.2747 319.691 10.4487 319.478 10.584 319.169C10.7387 318.86 10.9223 318.579 11.135 318.328C11.1737 318.328 11.2413 318.357 11.338 318.415C11.4347 318.473 11.5313 318.55 11.628 318.647C11.744 318.724 11.8407 318.811 11.918 318.908C11.9953 319.005 12.034 319.092 12.034 319.169ZM9.337 320.358C9.337 320.184 9.29833 319.971 9.221 319.72C9.163 319.449 9.047 319.198 8.873 318.966C8.71833 318.715 8.50567 318.512 8.235 318.357C7.96433 318.183 7.626 318.096 7.22 318.096C6.93 318.096 6.64 318.144 6.35 318.241C6.06 318.338 5.799 318.463 5.567 318.618C5.335 318.773 5.14167 318.966 4.987 319.198C4.85167 319.411 4.784 319.643 4.784 319.894C4.784 320.455 4.958 320.832 5.306 321.025C5.654 321.199 6.07933 321.286 6.582 321.286C6.83333 321.286 7.11367 321.257 7.423 321.199C7.75167 321.141 8.05133 321.073 8.322 320.996C8.612 320.899 8.85367 320.803 9.047 320.706C9.24033 320.59 9.337 320.474 9.337 320.358ZM16.6273 327.144C16.6273 327.26 16.5693 327.376 16.4533 327.492C16.3373 327.589 16.202 327.685 16.0473 327.782C15.912 327.859 15.7767 327.927 15.6413 327.985C15.506 328.024 15.4287 328.043 15.4093 328.043C15.2353 328.043 15.1 328.004 15.0033 327.927C14.926 327.83 14.8583 327.734 14.8003 327.637C14.7617 327.521 14.7327 327.415 14.7133 327.318C14.7133 327.221 14.7133 327.154 14.7133 327.115C14.7133 327.038 14.7327 326.941 14.7713 326.825C14.81 326.69 14.868 326.564 14.9453 326.448C15.0227 326.332 15.1097 326.235 15.2063 326.158C15.3223 326.061 15.448 326.013 15.5833 326.013C15.8347 326.013 16.0667 326.119 16.2793 326.332C16.5113 326.545 16.6273 326.815 16.6273 327.144Z" fill="#565151"/>
    <path d="M5.156 369.082C5.156 369.262 5.039 369.406 4.805 369.514C4.589 369.622 4.427 369.676 4.319 369.676C4.247 369.676 4.139 369.649 3.995 369.595C3.869 369.523 3.788 369.442 3.752 369.352C3.554 368.65 3.392 368.002 3.266 367.408C3.158 366.814 3.059 366.238 2.969 365.68C2.897 365.122 2.825 364.555 2.753 363.979C2.699 363.403 2.627 362.773 2.537 362.089C2.393 362.143 2.204 362.251 1.97 362.413C1.736 362.557 1.502 362.71 1.268 362.872C1.034 363.016 0.827 363.151 0.647 363.277C0.485 363.403 0.386 363.466 0.35 363.466C0.296 363.466 0.242 363.394 0.188 363.25C0.152 363.106 0.134 363.007 0.134 362.953C0.134 362.917 0.143 362.863 0.161 362.791C0.197 362.701 0.233 362.629 0.269 362.575C0.305 362.521 0.449 362.386 0.701 362.17C0.971 361.936 1.25 361.684 1.538 361.414C1.844 361.126 2.114 360.847 2.348 360.577C2.582 360.289 2.699 360.064 2.699 359.902C2.699 359.758 2.753 359.668 2.861 359.632C2.969 359.596 3.041 359.578 3.077 359.578C3.221 359.578 3.338 359.632 3.428 359.74C3.518 359.848 3.59 359.983 3.644 360.145C3.698 360.307 3.734 360.478 3.752 360.658C3.788 360.82 3.806 360.955 3.806 361.063C3.806 361.999 3.842 362.791 3.914 363.439C4.004 364.069 4.103 364.672 4.211 365.248C4.283 365.878 4.373 366.418 4.481 366.868C4.589 367.3 4.688 367.669 4.778 367.975C4.886 368.263 4.976 368.497 5.048 368.677C5.12 368.857 5.156 368.992 5.156 369.082ZM15.6067 363.574C15.6067 364.33 15.5077 364.987 15.3097 365.545C15.1297 366.085 14.8957 366.553 14.6077 366.949C14.3377 367.327 14.0227 367.642 13.6627 367.894C13.3207 368.128 12.9877 368.317 12.6637 368.461C12.3397 368.587 12.0427 368.677 11.7727 368.731C11.5207 368.785 11.3407 368.812 11.2327 368.812C10.8187 368.812 10.4227 368.722 10.0447 368.542C9.66669 368.344 9.33369 368.083 9.04569 367.759C8.75769 367.435 8.52369 367.057 8.34369 366.625C8.18169 366.175 8.10069 365.698 8.10069 365.194C8.10069 364.762 8.15469 364.339 8.26269 363.925C8.37069 363.493 8.47869 363.097 8.58669 362.737C8.71269 362.359 8.82969 362.026 8.93769 361.738C9.04569 361.45 9.09969 361.216 9.09969 361.036C9.09969 361 9.09069 360.955 9.07269 360.901C9.07269 360.847 9.07269 360.793 9.07269 360.739C9.07269 360.631 9.10869 360.55 9.18069 360.496C9.32469 360.388 9.43269 360.307 9.50469 360.253C9.59469 360.199 9.69369 360.172 9.80169 360.172C9.92769 360.172 10.1077 360.208 10.3417 360.28C10.5757 360.334 10.7377 360.361 10.8277 360.361C10.9177 360.361 11.0167 360.361 11.1247 360.361C11.2507 360.361 11.3767 360.352 11.5027 360.334C11.6467 360.316 11.7907 360.298 11.9347 360.28C12.1687 360.28 12.4927 360.325 12.9067 360.415C13.3207 360.487 13.7257 360.64 14.1217 360.874C14.5357 361.108 14.8867 361.441 15.1747 361.873C15.4627 362.305 15.6067 362.872 15.6067 363.574ZM11.3677 367.543C11.8537 367.543 12.2857 367.444 12.6637 367.246C13.0417 367.03 13.3567 366.742 13.6087 366.382C13.8787 366.022 14.0767 365.608 14.2027 365.14C14.3287 364.654 14.3917 364.15 14.3917 363.628C14.3917 363.232 14.3197 362.89 14.1757 362.602C14.0317 362.314 13.8427 362.08 13.6087 361.9C13.3927 361.72 13.1407 361.594 12.8527 361.522C12.5647 361.432 12.2857 361.387 12.0157 361.387C11.6557 361.387 11.3407 361.414 11.0707 361.468C10.8007 361.522 10.5127 361.549 10.2067 361.549C10.1527 361.711 10.0807 361.927 9.99069 362.197C9.90069 362.467 9.81069 362.755 9.72069 363.061C9.63069 363.349 9.54969 363.637 9.47769 363.925C9.42369 364.195 9.39669 364.438 9.39669 364.654C9.39669 364.924 9.41469 365.23 9.45069 365.572C9.50469 365.914 9.60369 366.229 9.74769 366.517C9.89169 366.805 10.0897 367.048 10.3417 367.246C10.6117 367.444 10.9537 367.543 11.3677 367.543ZM19.2631 368.272C19.2631 368.38 19.2091 368.488 19.1011 368.596C18.9931 368.686 18.8671 368.776 18.7231 368.866C18.5971 368.938 18.4711 369.001 18.3451 369.055C18.2191 369.091 18.1471 369.109 18.1291 369.109C17.9671 369.109 17.8411 369.073 17.7511 369.001C17.6791 368.911 17.6161 368.821 17.5621 368.731C17.5261 368.623 17.4991 368.524 17.4811 368.434C17.4811 368.344 17.4811 368.281 17.4811 368.245C17.4811 368.173 17.4991 368.083 17.5351 367.975C17.5711 367.849 17.6251 367.732 17.6971 367.624C17.7691 367.516 17.8501 367.426 17.9401 367.354C18.0481 367.264 18.1651 367.219 18.2911 367.219C18.5251 367.219 18.7411 367.318 18.9391 367.516C19.1551 367.714 19.2631 367.966 19.2631 368.272Z" fill="#565151"/>
</svg>
