<svg width="170" height="313" viewBox="0 0 170 313" fill="none" xmlns="http://www.w3.org/2000/svg">
    <path d="M39.2214 102.249H34.8816V98.1108V94.2482L42.1146 87.3506L49.3476 83.7639L52.5301 80.7289V74.3831M39.2214 102.249H44.1398L49.3476 98.1108L55.134 94.2482L59.4738 89.5578M39.2214 102.249L49.3476 105.284L55.134 108.319L63.2349 114.665L67.5748 121.287L70.6126 124.873M59.4738 89.5578L63.2349 85.6952L67.5748 83.7639H73.6505L78.5689 85.6952L85.8019 89.5578L89.5631 85.6952M59.4738 89.5578L55.134 80.7289L52.5301 74.3831M89.5631 85.6952V80.7289L85.8019 77.1422L82.6194 75.2108L78.5689 71.3482L76.5437 65.5542L78.5689 61.6916L82.6194 58.1048L87.8272 56.7253H93.9029M89.5631 85.6952V94.2482L87.8272 105.284V114.665V121.287M93.9029 56.7253H98.8214L104.029 61.6916L108.08 65.5542L112.709 69.4169L118.206 71.3482H125.15M93.9029 56.7253L89.5631 52.3108L82.6194 49H78.5689L73.6505 52.3108L67.5748 58.1048L63.2349 61.6916H55.134H49.3476H44.1398L39.2214 65.5542L34.8816 69.4169L39.2214 73.0036H44.1398H49.3476L52.5301 74.3831M125.15 71.3482L127.175 73.0036L131.515 74.3831L137.012 75.2108L141.062 74.3831M125.15 71.3482L127.175 67.2096L131.515 65.5542H137.012L142.798 67.2096V71.3482L141.062 74.3831M141.062 74.3831L137.012 85.6952L129.489 92.3169L125.15 98.1108L118.206 102.249L112.709 105.284L108.08 110.527L104.029 114.665L101.425 119.907M87.8272 121.287L89.5631 128.46M87.8272 121.287L93.9029 110.527L98.8214 102.249L104.029 94.2482L106.054 90.6614M89.5631 128.46H93.9029M89.5631 128.46L86.0913 129.564M93.9029 128.46L98.8214 125.149M93.9029 128.46L89.5631 133.427V138.945M98.8214 125.149L100.123 122.528M98.8214 125.149V130.667V136.737M101.425 119.907L106.054 121.287V128.46L104.029 133.427M101.425 119.907L100.123 122.528M104.029 133.427L98.8214 136.737M104.029 133.427V125.149L100.123 122.528M104.029 133.427L106.054 138.945L108.08 145.29L112.709 150.533L118.206 156.878L125.15 163.776L134.118 172.053L141.062 178.123L147.717 185.296L154.95 196.608L159 206.541V218.957V231.096L154.95 243.788L150.899 253.445L147.717 261.446L137.012 270.551L129.489 274.965L118.206 278H104.029L93.9029 274.965H87.8272M98.8214 136.737L89.5631 138.945M89.5631 138.945H82.6194L76.5437 136.737M76.5437 136.737L78.5689 133.427L86.0913 129.564M76.5437 136.737L70.6126 134.548M67.5748 133.427L70.6126 134.548M67.5748 133.427L65.4049 130.943M67.5748 133.427L65.4049 138.945L63.2349 145.29L55.134 153.016L49.3476 159.913L42.1146 166.811L34.8816 175.364L25.9126 185.296L18.9689 196.608L13.4718 209.024L10 224.199V237.442L16.365 250.686L25.9126 261.446L39.2214 270.551L44.1398 272.758L49.3476 274.965L59.4738 278H70.6126L87.8272 274.965M70.6126 124.873L73.6505 128.46L78.1349 129.564M70.6126 124.873L63.2349 128.46L65.4049 130.943M86.0913 129.564L82.6194 130.667L78.1349 129.564M78.1349 129.564L70.6126 134.548M70.6126 128.46L65.4049 130.943M87.8272 274.965L82.6194 272.758H76.5437" stroke="black"/>
    <path d="M75.9652 122.114L80.0157 128.46V122.114V116.596L75.9652 110.802L71.9148 103.629V99.2144L66.4177 97.559L62.3672 99.2144L64.6818 105.836L68.1536 110.802L71.9148 116.596L75.9652 122.114Z" fill="#C4C4C4"/>
    <path d="M71.9148 149.705L75.9652 144.463V157.706L71.9148 167.363L66.4177 172.053H62.3672V167.363L64.6818 161.569L68.1536 153.016L71.9148 149.705Z" fill="#C4C4C4"/>
    <path d="M75.9652 141.152V144.463M75.9652 144.463L71.9148 149.705L68.1536 153.016L64.6818 161.569L62.3672 167.363V172.053H66.4177L71.9148 167.363L75.9652 157.706V144.463ZM90.7206 141.152L93.6138 146.67V153.016L95.639 159.085L98.8216 164.604H102.583V159.085L98.8216 153.016L95.639 146.67V138.945M80.0157 128.46L75.9652 122.114L71.9148 116.596L68.1536 110.802L64.6818 105.836L62.3672 99.2144L66.4177 97.559L71.9148 99.2144V103.629L75.9652 110.802L80.0157 116.596V122.114V128.46Z" stroke="black"/>
    <path d="M106.925 199.643L112.422 196.057L109.239 189.987L101.138 183.641L97.9558 181.434L92.4587 183.641V174.536L84.3577 177.295V183.641L81.1752 186.676L77.7033 189.987L73.0742 196.057V199.643V204.334L79.1499 210.68L86.6723 214.542H92.4587V218.129V224.475L94.7732 230.545L88.9868 231.372H84.3577H81.1752L77.7033 228.889L73.0742 235.235L79.1499 238.822L84.3577 241.305L88.9868 243.512L94.7732 241.305V249.858H101.138V246.823V241.305L106.925 238.822L112.422 235.235L115.604 230.545V224.475V218.129L112.422 210.68L106.925 206.817L97.9558 204.334L94.7732 196.057V189.987L101.138 192.746L106.925 199.643Z" fill="#1EC643" stroke="black"/>
    <path d="M101.139 229.993L98.8242 215.094L104.611 218.957L107.504 222.819L104.611 227.234L101.139 229.993Z" fill="#C4C4C4" stroke="black"/>
    <path d="M86.5 190L81.5 193V199.5L84.5 204.5H89V199.5L86.5 190Z" fill="white"/>
    <path d="M98.5 215L101 230L104.5 227L107.5 223L104.5 218.5L98.5 215Z" fill="white"/>
    <path d="M86.5 190L81.5 193V199.5L84.5 204.5H89V199.5L86.5 190Z" stroke="black"/>
    <path d="M98.5 215L101 230L104.5 227L107.5 223L104.5 218.5L98.5 215Z" stroke="black"/>
    <path d="M12.9199 278.578C21.8372 278.578 31.3596 279.473 40.1426 277.717C45.2636 276.693 49.9263 275.706 55.1423 275.706C56.4725 275.706 59.3954 275.332 60.4719 276.408C61.7045 277.641 61.2353 278.004 63.4718 278.004C67.6615 278.004 73.6543 279.213 77.5459 277.717C80.2747 276.667 83.7004 277.55 86.45 276.568C87.8525 276.067 90.4756 275.706 91.9073 275.706C93.7334 275.706 95.0394 275.908 96.7901 276.408C98.4259 276.876 99.8528 277.21 101.513 277.557C102.962 277.86 104.047 279.098 105.535 279.153C113.393 279.444 121.318 282.025 129.215 282.025C133.413 282.025 138.001 282.527 142.172 281.897C146.129 281.3 150.244 280.302 154.235 280.302C156.514 280.302 158.715 279.238 161.001 279.153C163.317 279.067 166.623 279.894 168.597 278.578" stroke="black" stroke-linecap="round" stroke-linejoin="round"/>
    <path d="M19.2402 294.663C22.6391 294.663 26.1791 294.307 29.3251 295.206C30.4949 295.54 33.1068 295.453 34.176 294.918C38.0283 292.992 41.9825 293.514 46.2395 293.514" stroke="black" stroke-linecap="round" stroke-linejoin="round"/>
    <path d="M97.9395 295.238C101.454 294.584 104.456 294.089 107.992 294.089C110.829 294.089 114.15 294.571 116.896 293.961C120.113 293.246 122.488 292.365 125.8 292.365C128.416 292.365 131.338 292.94 134.13 292.94" stroke="black" stroke-linecap="round" stroke-linejoin="round"/>
    <path d="M59.4512 309.024C62.8979 309.024 66.3446 309.024 69.7913 309.024C71.1255 309.024 72.4801 308.954 73.8125 309.024C74.862 309.08 75.2776 310.173 76.3975 310.173C80.2833 310.173 84.0382 309.965 87.8866 309.631C90.0308 309.444 93.8199 309.665 95.6417 308.45" stroke="black" stroke-linecap="round" stroke-linejoin="round"/>
    <path d="M66.3438 294.089C67.3615 294.089 72.3657 293.287 73.2372 294.376C74.0152 295.348 75.1986 295.812 76.3967 295.812C78.5988 295.812 80.8008 295.812 83.0029 295.812" stroke="black" stroke-linecap="round" stroke-linejoin="round"/>
    <path d="M118.619 306.727C122.444 306.727 129.994 308.024 133.555 306.599C135.451 305.841 137.53 306.463 139.299 305.578" stroke="black" stroke-linecap="round" stroke-linejoin="round"/>
    <path d="M29.0059 311.897C33.6205 311.897 37.911 312.471 42.4736 312.471C44.386 312.471 46.4715 311.897 48.5373 311.897" stroke="black" stroke-linecap="round" stroke-linejoin="round"/>
    <path d="M95.6426 302.131C99.7833 302.131 103.119 302.705 107.132 302.705C109.817 302.705 112.034 301.557 114.6 301.557" stroke="black" stroke-linecap="round" stroke-linejoin="round"/>
    <path d="M46.8125 302.131C52.7485 302.131 58.6845 302.131 64.6206 302.131" stroke="black" stroke-linecap="round" stroke-linejoin="round"/>
    <path d="M85.875 284.323C88.2434 284.323 91.5668 283.612 93.6301 285.217C95.2188 286.452 97.1089 286.046 99.0874 286.046C102.834 286.046 105.946 284.909 109.428 283.748" stroke="black" stroke-linecap="round" stroke-linejoin="round"/>
    <path d="M142.746 299.259C148.658 299.259 154.792 298.684 160.554 298.684" stroke="black" stroke-linecap="round" stroke-linejoin="round"/>
    <path d="M57.7276 50.5204C49.1432 42.7535 42.0343 34.0759 32.4516 27.3189C27.6037 23.9004 21.5824 21.8318 16.9414 18.351" stroke="black" stroke-linecap="round" stroke-linejoin="round"/>
    <path d="M64.6205 32.1379C59.3751 26.6982 55.7961 19.2126 49.4294 14.9681C47.4596 13.655 44.6903 11.4576 42.2168 11.4576" stroke="black" stroke-linecap="round" stroke-linejoin="round"/>
    <path d="M78.9816 24.67C78.9816 16.7447 76.887 9.46829 76.1094 1.69183" stroke="black" stroke-linecap="round" stroke-linejoin="round"/>
    <path d="M97.9395 26.3933C103.005 18.7013 108.704 11.1574 115.173 4.56409C116.356 3.35879 117.718 1.85552 119.194 1.11737" stroke="black" stroke-linecap="round" stroke-linejoin="round"/>
    <path d="M118.619 43.627C121.892 35.0541 127.698 28.7329 134.576 22.9466C136.706 21.1547 139.508 18.6646 142.172 17.7766" stroke="black" stroke-linecap="round" stroke-linejoin="round"/>
    <path d="M5.45312 228.026C5.45312 223.2 5.51841 218.384 7.04883 213.793C7.8353 211.433 8.4737 208.663 9.76153 206.516C10.5976 205.123 12.3466 202.609 12.3466 201.027" stroke="black" stroke-linecap="round" stroke-linejoin="round"/>
    <path d="M1.43164 218.835C1.43164 215.25 1.7166 212.019 3.155 208.782C3.88615 207.137 5.00503 203.549 6.60172 202.751" stroke="black" stroke-linecap="round" stroke-linejoin="round"/>
    <path d="M148.492 179.198C151.592 183.165 155.966 185.895 159.407 189.538C160.73 190.939 161.86 192.976 162.726 194.708C163.326 195.908 163.699 199.439 164.577 199.878" stroke="black" stroke-linecap="round" stroke-linejoin="round"/>
    <path d="M154.236 180.921C161.235 182.287 168.023 189.129 168.023 196.432" stroke="black" stroke-linecap="round" stroke-linejoin="round"/>
    <path d="M142.746 271.685C144.785 268.993 146.691 265.772 149.352 263.643C151.635 261.816 152.154 257.861 153.661 255.6" stroke="black" stroke-linecap="round" stroke-linejoin="round"/>
    <path d="M146.768 271.11C149.278 269.209 150.747 267.738 152.225 265.079C152.885 263.891 153.06 261.358 154.235 260.77" stroke="black" stroke-linecap="round" stroke-linejoin="round"/>
    <path d="M93.5 147L91 141.5L90 139.5L95.5 138V139.5V147L103 159L102 164.5H99L95.5 159L93.5 152.5V147Z" fill="#C4C4C4" stroke="black"/>
</svg>
