<svg width="186" height="221" viewBox="0 0 186 221" fill="none" xmlns="http://www.w3.org/2000/svg">
    <path d="M143.938 73.5L145.938 80H149.438L147.938 72M135.938 75L138.688 74.25M141.438 73.5L138.688 74.25M138.688 74.25L140.438 82.5M130.938 82.5L132.938 84L135.938 82.5L134.938 80.5H132.938L130.938 80V78L131.438 76L133.938 76.5M117.938 98H114.438V95.5H127.938V98H125.438V104.5L130.938 107L132.938 111.5V116.5L130.938 121L126.938 122L121.438 123.5L114.438 122L111.938 119L110.438 115V110L114.438 105.5L117.938 104.5V98Z" stroke="black"/>
    <path d="M185.438 46C185.438 71.0342 160.247 91.5 128.938 91.5C97.628 91.5 72.4375 71.0342 72.4375 46C72.4375 20.9658 97.628 0.5 128.938 0.5C160.247 0.5 185.438 20.9658 185.438 46Z" stroke="black"/>
    <path d="M96.9375 13L90.4375 16.5L96.9375 32L102.438 30L103.938 24L106.938 28.5L112.438 26L114.438 8.5L106.938 10.5V20.5L102.438 13L99.9375 20.5L96.9375 13Z" stroke="black"/>
    <path d="M118.438 8.5L116.438 26L120.938 24V20.5H124.438V24H131.938L127.438 7L118.438 8.5Z" stroke="black"/>
    <path d="M134.938 16.5V24H141.938V18L150.938 10.5L144.938 8.5L140.438 13L137.938 8.5H131.938L134.938 16.5Z" stroke="black"/>
    <path d="M96.9375 35L98.4375 42.5H95.4375L91.4375 45.5V49.5L95.4375 51.5H99.9375L102.438 57L99.9375 59L95.4375 60.5H88.9375L84.4375 57L82.9375 51.5V45.5L86.4375 39.5L91.4375 36L96.9375 35Z" stroke="black"/>
    <path d="M103.938 47L106.938 51.5L110.438 55H114.438L118.438 53.5L121.938 47V38.5L118.438 36L112.438 33.5L106.938 36L103.938 41V47Z" stroke="black"/>
    <path d="M145.938 27.5L148.938 47L163.438 44L161.938 38.5H155.938L153.938 27.5H145.938Z" stroke="black"/>
    <path d="M124.938 41.5L127.438 46.5L132.938 50H138.438L142.438 46.5L143.938 40V35.5L140.438 31.5L135.438 29.5H130.938L127.438 33L124.938 37V41.5Z" stroke="black"/>
    <path d="M111.438 41.5V44.5L113.938 46.5L115.438 44.5L113.938 41.5H111.438Z" stroke="black"/>
    <path d="M158.938 78.5L158.438 74.25M161.438 69L157.938 70L158.438 74.25M158.438 74.25L161.438 74M152.438 78.5V74.75M154.938 70L152.438 71V74.75M154.938 75L152.438 74.75M101.938 67V63H96.4375L93.4375 65.5V69L99.4375 72L101.938 75L100.438 76.5H97.4375L94.9375 75V79.5L98.9375 80.5H103.438L104.938 77.5V74L103.438 72L99.4375 69L97.4375 67H101.938ZM115.438 76.5L114.438 71H111.938L109.938 69L111.938 67H114.438L112.938 60L108.438 61.5L104.938 65.5L105.438 70L108.438 74L111.938 76.5H115.438ZM119.938 75H123.438L119.938 58.5H115.438L119.938 75ZM127.938 74L123.438 57L129.438 55.5L130.438 59.5L126.438 60L127.938 63H130.438V65.5L127.938 67L129.438 69H132.938V72L127.938 74ZM136.438 71L132.438 54.5H136.438L141.938 61.5L139.938 54.5L143.938 52.5L147.938 67L143.938 69L139.438 64L139.938 70L136.438 71ZM157.938 65.5V59.5L154.938 60L152.438 58.5V55.5L156.438 54.5L154.938 49L150.438 50.5L147.938 54.5V60L150.438 64L154.938 65.5H157.938ZM161.438 64L157.938 49L165.438 47V50.5L162.438 51.5V54.5H165.438V55.5L162.438 57V60L167.438 59.5V63L161.438 64Z" stroke="black"/>
    <path d="M110.662 115.97C111.808 115.746 112.735 115.088 113.858 115.088C114.523 115.088 114.731 115.151 115.291 115.48C115.653 115.693 115.62 116.38 116.172 116.41C117.036 116.458 117.816 116.119 118.376 115.419C118.765 114.932 120.258 114.079 120.801 114.757C122.259 116.58 124.801 115.02 126.421 114.659C128.462 114.206 130.343 115.308 132.262 115.308" stroke="black" stroke-linecap="round" stroke-linejoin="round"/>
    <path d="M126.092 109.578C126.166 110.904 125.649 111.051 124.329 111.341C123.523 111.341 123.227 110.664 123.227 109.909C123.227 109.34 124.231 109.204 124.549 108.807C125.031 108.204 126.059 108.984 126.092 109.578Z" stroke="black" stroke-linecap="round" stroke-linejoin="round"/>
    <path d="M120.14 107.374C121.243 107.374 121.854 107.538 122.111 106.382C122.24 105.8 122.136 105.17 121.462 105.17C120.746 105.17 120.242 104.994 119.919 105.721C119.679 106.261 119.919 106.953 119.919 106.933" stroke="black" stroke-linecap="round" stroke-linejoin="round"/>
    <path d="M120.361 100.541C120.74 101.042 121.929 102.413 122.565 101.3C122.9 100.713 123.133 99.9491 122.785 99.3413C121.857 97.7171 120.761 99.7903 120.141 100.1" stroke="black" stroke-linecap="round" stroke-linejoin="round"/>
    <path d="M119.259 91.0638C119.259 91.7855 118.946 92.9395 119.7 93.3168C120.025 93.4793 120.743 93.5731 120.974 93.7577C121.695 94.335 121.904 92.754 121.904 92.276C121.904 91.4591 121.969 90.4026 120.913 90.4026C120.04 90.4026 119.454 90.4537 119.039 91.2842" stroke="black" stroke-linecap="round" stroke-linejoin="round"/>
    <path d="M75.3984 137.569C78.577 139.881 81.0613 142.198 85.2065 142.198C87.117 142.198 88.9843 142.609 90.7166 141.647C92.3608 140.734 94.3011 140.08 95.9941 139.112C97.3117 138.359 98.463 137.212 99.7655 136.467C101.085 135.714 103.035 134.456 103.831 133.063C104.047 132.684 104.647 132.747 104.933 132.39C105.196 132.061 105.603 131.876 105.925 131.618C106.515 131.146 106.912 130.302 107.357 129.745C107.728 129.281 107.742 129.249 108.019 129.733C108.248 130.134 108.711 130.478 108.998 130.847C109.496 131.488 109.941 132.125 110.333 132.831C110.767 133.612 111.284 134.206 110.614 134.876C110.051 135.439 109.218 136.569 109.121 137.349C109.021 138.149 107.901 139.198 107.357 139.773C106.958 140.197 106.809 140.842 106.427 141.267C106.054 141.681 105.499 141.914 105.202 142.418C104.726 143.228 103.821 143.566 103.17 144.182C102.368 144.939 101.512 145.666 100.525 146.214C99.6217 146.716 99.0301 147.706 98.1002 148.198C97.7796 148.368 95.6898 149.326 95.5043 149.202C95.155 148.969 91.8448 151.558 91.2677 151.847C90.3814 152.29 89.4031 152.88 88.4024 152.998C87.5113 153.103 86.7385 153.879 85.7575 153.879C84.8596 153.879 83.7124 154.136 83.0637 153.488C82.7428 153.167 82.0678 151.692 82.0106 151.235C81.916 150.478 81.3494 149.641 81.3494 148.81C81.3494 147.858 80.6882 147.063 80.6882 146.165" stroke="black" stroke-linecap="round" stroke-linejoin="round"/>
    <path d="M82.8906 153.659C84.0858 156.722 85.3151 159.593 85.3151 162.916" stroke="black" stroke-linecap="round" stroke-linejoin="round"/>
    <path d="M87.0781 171.071C87.6284 173.578 88.8414 175.287 88.8414 177.904" stroke="black" stroke-linecap="round" stroke-linejoin="round"/>
    <path d="M108.898 131.178C109.708 130.677 110.486 130.128 111.151 129.463C111.478 129.137 111.348 128.336 111.654 128.092C112.226 127.634 111.984 125.924 111.984 125.227C111.984 124.184 112.212 123.042 112.437 122.031C112.539 121.572 112.737 121.105 112.853 120.696C113.064 119.961 112.955 120.071 113.307 120.598" stroke="black" stroke-linecap="round" stroke-linejoin="round"/>
    <path d="M115.511 125.888C116.945 124.497 118.993 124.786 120.911 124.786C122.329 124.786 123.17 123.807 124.327 123.194C124.759 122.966 128.074 121.096 128.074 122.251C128.074 123.15 128.268 123.6 127.523 124.014C126.932 124.343 126.251 124.516 125.649 124.835C123.055 126.209 120.663 127.69 118.547 129.806C117.994 130.36 116.938 130.538 116.221 130.786C115.475 131.044 114.548 131.566 113.858 131.949C113.3 132.259 112.598 132.318 112.094 132.721C111.685 133.048 110.97 133.382 110.441 133.382" stroke="black" stroke-linecap="round" stroke-linejoin="round"/>
    <path d="M75.3984 136.908C76.5287 136.66 78.6133 135.791 79.1453 134.594C79.7378 133.261 81.3367 132.626 82.231 131.508C83.8148 129.529 85.8999 127.489 87.031 125.227C88.2177 122.853 89.2388 120.371 89.9575 117.855C90.3388 116.521 91.2677 115.65 91.2677 114.096C91.2677 112.918 91.4881 111.435 91.4881 110.129C91.4881 108.778 91.5674 107.4 91.4881 106.051C91.4473 105.359 90.8542 103.22 90.435 102.696C90.1753 102.372 90.1656 101.193 90.1656 100.762C90.1656 100.163 90.2271 99.6104 90.7166 99.2188C91.8502 98.312 93.0172 98.6324 94.2554 98.9862C97.0178 99.7755 96.9982 102.718 96.9982 105.17C96.9982 106.29 96.0581 107.871 95.5043 108.917C95.1355 109.613 92.0838 110.329 91.7085 109.578" stroke="black" stroke-linecap="round" stroke-linejoin="round"/>
    <path d="M92.5898 102.525C92.7751 102.841 93.4398 104.823 93.6919 104.949" stroke="black" stroke-linecap="round" stroke-linejoin="round"/>
    <path d="M91.7085 98.5576C91.1317 97.2005 90.046 95.2299 89.0146 94.1985C88.5826 93.7664 88.259 93.309 87.9126 92.8761C87.391 92.224 86.6979 92.1013 86.0881 91.6271C85.4133 91.1022 84.4642 89.194 83.5534 89.0802C82.368 88.932 80.7725 87.8046 79.6963 87.2067C78.4987 86.5414 77.1279 86.276 76.0107 85.3823C74.8951 84.4898 72.688 84.3269 71.3209 84.0231C69.8905 83.7052 68.623 83.1292 67.023 83.1292C66.2913 83.1292 65.6223 82.9088 64.8189 82.9088C64.0081 82.9088 63.3604 83.1292 62.5047 83.1292C62.0489 83.1292 60.9253 83.4556 60.521 83.6802C59.8264 84.0661 59.2197 84.1262 58.5986 84.6231C58.1165 85.0087 57.5359 85.2449 57.0558 85.7251C56.7687 86.0121 56.1798 86.9987 55.8803 87.0843C55.1006 87.3071 54.5814 86.6557 53.9089 86.6557C53.064 86.6557 52.2191 86.6557 51.3742 86.6557C50.0274 86.6557 48.5757 87.572 47.5171 88.419C47.0756 88.7722 46.5799 89.521 45.9742 89.521C45.6185 89.521 44.6313 90.1904 44.3702 90.4516C43.4885 91.3333 42.0246 92.3246 41.6641 93.5863C41.3427 94.7113 39.867 96.4103 39.0804 97.2842C38.2004 98.262 37.7909 100.137 37.2682 101.313C36.0616 104.028 34.8438 106.917 34.8438 110.019C34.8438 111.21 38.183 111.355 38.8111 110.57C39.2345 110.04 40.1246 109.774 40.3417 109.015C40.5149 108.408 41.1831 107.769 41.6274 107.325C42.383 106.569 43.9853 104.949 45.0926 104.949C46.7655 104.949 47.6258 106.847 49.1701 106.933C52.4795 107.117 55.3499 107.761 58.4272 106.223C60.0836 105.395 61.4047 104.396 62.7251 103.076C63.5777 102.223 66.3677 102.209 67.4638 102.696C68.6791 103.236 70.5473 103.801 71.9699 103.394C72.5134 103.239 73.4372 102.929 73.9658 102.635C74.702 102.226 75.1173 101.456 75.8392 101.031C77.042 100.324 78.1129 99.4904 78.8147 98.227C79.7541 96.5361 80.8384 96.574 82.6718 96.574C83.8849 96.574 85.3667 97.5838 86.3085 98.3372C86.7297 98.6741 87.7788 98.836 88.3044 98.9862C88.9178 99.1614 89.5461 99.8801 90.1656 99.8801" stroke="black" stroke-linecap="round" stroke-linejoin="round"/>
    <path d="M42.3359 91.9454C42.3359 93.6141 42.5884 94.5371 43.0094 96.0107C43.2435 96.8301 44.4285 97.6657 44.54 98.5576C44.7838 100.508 46.9093 102.77 48.8379 103.198C50.9064 103.658 53.9022 104.463 56.0991 103.835C56.8476 103.621 58.0994 103.33 58.6949 102.794C59.0175 102.504 59.6802 102.195 60.0786 101.974C60.5907 101.689 60.9977 101.205 61.5112 100.933C62.4608 100.43 63.3818 99.8801 64.4867 99.8801C65.7063 99.8801 66.9689 100.1 68.1234 100.1C69.1527 100.1 70.3945 100.321 71.5397 100.321C72.8162 100.321 73.1645 99.6753 74.1846 99.1086C78.6426 96.6319 78.2621 91.1505 78.2621 86.6557" stroke="black" stroke-linecap="round" stroke-linejoin="round"/>
    <path d="M52.9166 94.1495C52.6394 95.7733 53.7982 96.2945 53.7982 94.7005C53.7982 93.4146 52.1437 94.6447 52.9166 95.0311" stroke="black" stroke-linecap="round" stroke-linejoin="round"/>
    <path d="M66.3594 91.0638C66.8541 92.2279 68.2207 92.7304 68.1226 91.0638C68.0888 90.489 66.5603 90.8823 66.3594 91.2842" stroke="black" stroke-linecap="round" stroke-linejoin="round"/>
    <path d="M35.2333 105.892C35.2333 104.174 35.0234 102.689 35.0234 100.961C35.0234 99.3041 35.2929 97.9123 35.6413 96.3444C35.7653 95.7864 35.8628 94.7866 35.8628 94.2459C35.8628 93.64 36.2844 92.8253 36.539 92.2524C37.1811 90.8077 37.8612 89.4528 38.6374 88.0555C39.2889 86.8828 41.177 86.0861 41.5403 84.8146C41.9148 83.5036 43.7037 83.0283 44.4665 82.0749C44.8016 81.656 45.7013 81.035 46.1452 80.7576C46.726 80.3946 47.1724 79.7838 47.7191 79.3586C48.8224 78.5004 50.7583 77.4591 52.1258 77.1552C53.5114 76.8473 54.8405 76.2474 56.2178 76.0944C57.7114 75.9284 59.2795 75.793 60.8344 75.8845C61.9663 75.9511 63.5894 76.207 64.7048 76.5257C65.9378 76.878 67.7574 77.026 68.9134 77.6682C69.3891 77.9325 70.045 78.4026 70.5921 78.4026C71.2876 78.4026 71.8909 78.5071 72.4225 78.9855C73.4936 79.9496 74.871 80.5973 75.9432 81.5503C76.6708 82.1971 78.3169 82.9128 78.4613 84.0685C78.6186 85.3264 80.3499 86.2951 80.3499 87.6358" stroke="black" stroke-linecap="round" stroke-linejoin="round"/>
    <path d="M79.0898 84.4881C80.3889 83.4732 80.7085 82.7127 82.4474 82.8093C83.3567 82.8599 85.3852 84.0215 85.3852 82.1798" stroke="black" stroke-linecap="round" stroke-linejoin="round"/>
    <path d="M76.7812 82.1799C76.7812 80.601 76.9802 79.3058 78.46 78.5659C79.1808 78.2055 79.8455 78.1928 80.6517 78.1928C81.2601 78.1928 81.685 78.58 82.2372 78.6125C82.6958 78.6395 83.3283 79.1805 83.7061 78.5193C83.9302 78.1271 84.2339 77.638 84.4989 77.3068C85.3164 76.2849 85.6496 76.3042 87.0636 76.3042" stroke="black" stroke-linecap="round" stroke-linejoin="round"/>
    <path d="M73.4233 79.6616C73.4233 77.334 73.2775 75.8844 75.9414 75.8844C77.6943 75.8844 77.0485 73.6116 78.0865 72.5735C78.6826 71.9775 79.3462 71.8974 80.1383 71.8974C80.6355 71.8974 81.813 72.5009 82.1901 71.8974C82.9138 70.7395 83.8781 70.4285 85.1746 70.4285" stroke="black" stroke-linecap="round" stroke-linejoin="round"/>
    <path d="M67.5488 77.5633C67.5786 75.9262 67.5564 71.6876 70.067 71.6876C70.4937 71.6876 72.0969 71.9307 72.3753 71.5827C72.8919 70.9369 73.6343 70.2138 73.6343 69.2744C73.6343 68.0511 73.7226 67.7006 74.94 67.7006C75.7605 67.7006 76.532 67.9104 77.3066 67.9104C77.9357 67.9104 78.0731 66.2765 78.8805 66.2317C79.7145 66.1853 80.563 66.2317 81.3986 66.2317" stroke="black" stroke-linecap="round" stroke-linejoin="round"/>
    <path d="M62.5122 75.8845C62.5122 74.7186 62.4047 73.3985 62.8853 72.3171C63.0583 71.9278 63.3038 71.2309 63.3516 70.8482C63.4943 69.7069 64.949 68.8804 65.4501 68.0036C66.1953 66.6994 66.2894 65.9689 66.2894 64.4479C66.2894 62.8302 67.4949 62.0883 68.5977 60.9855" stroke="black" stroke-linecap="round" stroke-linejoin="round"/>
    <path d="M56.6356 76.0944C56.5995 74.6139 56.2586 72.8409 57.3118 71.5244C58.0615 70.5873 56.656 70.0275 56.4374 69.2627C56.096 68.0675 57.027 67.1348 57.475 66.1267C57.7533 65.5005 57.8947 65.1415 57.8947 64.448C57.8947 63.9106 57.0797 63.7713 56.7988 63.2938C56.5514 62.8731 56.1704 62.7192 55.9595 62.2446C55.6771 61.6092 55.9411 61.3285 56.0061 60.7757C56.0517 60.3879 56.4505 59.6432 56.6823 59.3534C57.0777 58.8591 57.2358 58.0347 57.5916 57.628C58.6152 56.4582 55.9741 54.8438 55.2833 53.9557C54.5801 53.0515 56.6356 51.7192 56.6356 50.7031" stroke="black" stroke-linecap="round" stroke-linejoin="round"/>
    <path d="M51.3896 77.1435C50.7568 76.4915 49.0813 75.1195 49.0813 74.1008C49.0813 73.063 49.7084 72.1705 49.9323 71.1629C50.0749 70.5214 50.4648 69.046 49.9673 68.4933C49.5402 68.0187 49.1481 67.5062 48.6616 67.071C48.116 66.5828 47.334 66.3729 46.773 65.8119C45.844 64.8829 47.0477 63.5824 47.5075 62.571C48.0624 61.3501 47.7229 60.4302 46.6681 59.6098C45.3657 58.5969 45.0472 57.7598 45.0942 56.159C45.1331 54.8375 46.5852 53.7847 46.9828 52.5917" stroke="black" stroke-linecap="round" stroke-linejoin="round"/>
    <path d="M46.5634 80.0814C46.2664 79.3653 45.8005 78.3286 45.0944 77.9363C44.673 77.7022 44.3659 77.0651 44.2667 76.6189C44.0233 75.5237 43.6255 74.7642 43.6255 73.5762C43.6255 72.1098 41.9468 72.4767 41.9468 70.9531C41.9468 70.301 41.6235 69.764 41.7486 69.0762C41.8339 68.607 42.1519 67.9942 41.9001 67.4907C41.397 66.4843 40.1215 66.4501 39.3237 65.8119C38.4339 65.1 39.1768 63.1169 39.382 62.2446C39.4906 61.783 39.6227 60.5793 39.382 60.1461C39.011 59.4784 37.7451 59.6524 37.5517 58.7821C37.2457 57.405 38.6122 56.7657 39.4286 55.9492" stroke="black" stroke-linecap="round" stroke-linejoin="round"/>
    <path d="M42.7863 82.5995C39.715 82.5995 40.0381 80.8212 39.8485 78.356C39.7813 77.4829 38.283 76.9169 37.6451 76.4208C36.4301 75.4758 36.1183 75.0603 36.0713 73.3664C36.028 71.8065 35.5262 70.9712 34.2876 70.1138C33.3534 69.467 32.1945 68.3301 31.035 68.3301C30.0708 68.3301 28.7811 68.6389 28.307 67.5723C27.7087 66.226 27.2578 65.4157 27.2578 63.9233" stroke="black" stroke-linecap="round" stroke-linejoin="round"/>
    <path d="M38.1715 87.8457C37.319 87.8457 36.7026 88.1441 36.7026 87.2161C36.7026 86.7664 36.6458 86.2735 36.7142 85.8288C36.7456 85.6249 37.189 83.9227 37.0057 83.8703C36.6153 83.7587 36.0597 83.8586 35.6534 83.8586C34.599 83.8586 33.0405 84.1178 32.5057 82.9143C31.7949 81.3149 31.9637 79.3799 31.6546 77.6799C31.5003 76.831 29.5572 76.9337 28.8917 76.9337C26.9563 76.9337 26.7245 75.8796 26.4202 74.2058C26.0772 72.3193 25.3581 71.8975 23.529 71.8975C22.8483 71.8975 22.4432 72.0473 22.1184 72.6319C22.0461 72.762 21.5938 73.6477 21.5938 73.3664" stroke="black" stroke-linecap="round" stroke-linejoin="round"/>
    <path d="M35.8625 92.6721C34.9689 92.6721 33.5542 93.0968 33.5542 91.9959C33.5542 91.2732 33.737 89.9233 33.2394 89.3262C32.0935 87.9511 31.2614 88.4752 29.7304 88.4752C28.6977 88.4752 28.1392 87.8687 27.6319 87.0063C27.234 86.3299 26.1326 86.3767 25.4752 86.3767C23.9985 86.3767 21.669 88.3413 20.334 87.0063" stroke="black" stroke-linecap="round" stroke-linejoin="round"/>
    <path d="M35.4431 95.6099C34.2184 95.5807 33.8551 95.4307 33.0299 94.7705C32.6148 94.4385 32.1462 94.0653 31.6659 94.6656C31.2689 95.1618 30.3948 95.2202 29.8822 95.505C29.0506 95.967 28.6433 95.808 28.3084 94.8871C27.8436 93.6089 26.5164 92.4426 25.1607 93.0451C24.644 93.2748 23.7047 93.6023 23.4353 94.141C23.1061 94.7995 22.8791 95.7397 22.6426 96.4493" stroke="black" stroke-linecap="round" stroke-linejoin="round"/>
    <path d="M34.1829 99.5969C33.8573 99.5969 32.1685 99.3345 31.8746 99.7019C31.6851 99.9387 31.76 100.525 31.5481 100.646C30.6047 101.185 30.3043 101.021 29.4613 100.646C28.7472 100.329 27.8347 100.39 27.0481 100.436C26.591 100.463 25.9678 101.758 25.7891 102.115" stroke="black" stroke-linecap="round" stroke-linejoin="round"/>
    <path d="M38.801 111.768C37.4629 111.507 33.1352 109.815 33.1352 112.398C33.1352 112.822 32.7377 113.07 32.7155 113.447C32.7034 113.653 32.5777 114.511 32.4591 114.659C32.0165 115.212 32.086 116.795 32.086 117.539C32.086 118.592 32.2487 119.315 32.5173 120.255C32.7523 121.077 33.9061 121.545 34.3943 122.155C34.7852 122.644 36.6151 122.47 37.2272 122.47C38.1162 122.47 39.2716 121.109 39.6404 120.372" stroke="black" stroke-linecap="round" stroke-linejoin="round"/>
    <path d="M37.9609 122.26C37.9609 124.014 39.4857 126.42 40.7356 127.67C41.9103 128.844 42.4481 130.951 44.0464 131.75C47.5538 133.504 50.1714 137.265 54.0724 138.465C55.0808 138.775 56.1363 139.018 57.1617 139.246C58.0877 139.452 59.0281 139.887 59.9946 139.887C62.1514 139.887 64.7083 140.261 66.7563 139.631C68.6733 139.041 70.6554 138.645 72.5853 138.418C73.4977 138.311 73.9792 137.159 74.9986 137.159C75.9363 137.159 76.5496 136.11 77.4118 136.11" stroke="black" stroke-linecap="round" stroke-linejoin="round"/>
    <path d="M67.5488 123.1C69.1474 123.442 70.4716 123.795 71.9556 123.053C72.251 122.905 73.0048 121.981 73.0048 122.365C73.0048 123.003 72.5851 123.598 72.5851 124.254C72.5851 125.325 72.4558 126.438 72.1771 127.413C71.8905 128.416 72.2249 130.107 71.5825 130.91C70.8428 131.835 71.4245 132.962 69.8571 132.962C68.2096 132.962 67.9685 132.628 67.9685 130.969C67.9685 128.416 67.9685 120.756 67.9685 123.309" stroke="black" stroke-linecap="round" stroke-linejoin="round"/>
    <path d="M66.9199 135.271C67.8208 135.446 68.6359 135.48 69.543 135.48C70.4403 135.48 70.2676 135.171 70.907 134.851" stroke="black" stroke-linecap="round" stroke-linejoin="round"/>
    <path d="M67.3398 130.864C68.6596 129.544 69.5342 128.353 71.0121 127.203C71.3146 126.968 72.072 126.24 72.0031 126.294C71.2428 126.885 70.2704 127.211 69.6015 127.879C69.2999 128.181 68.0799 129.372 67.6546 129.372C67.5182 129.372 68.1192 127.199 68.1676 126.982C68.3126 126.329 68.3891 124.32 68.3891 124.988C68.3891 126.107 68.3891 127.227 68.3891 128.346C68.3891 129.106 68.5989 128.379 68.5989 127.996C68.5989 126.658 68.8044 125.384 69.0069 124.067C69.2616 122.412 69.2284 125.011 69.2284 125.501C69.2284 125.939 69.1186 126.545 69.2401 126.97C69.3622 127.397 69.8507 125.978 69.858 125.781C69.8788 125.219 70.77 123.012 70.4409 124.452C70.3169 124.994 70.2777 125.486 70.2777 126.037C70.2777 126.808 70.8512 125.03 70.9072 124.778C70.9375 124.642 71.5124 123.339 71.5367 123.729C71.5673 124.218 71.3269 124.621 71.3269 125.093C71.3269 125.752 70.8096 127.362 71.7466 125.874C72.1814 125.184 72.586 123.908 72.586 123.1" stroke="black" stroke-linecap="round" stroke-linejoin="round"/>
    <path d="M64.8198 116.804C66.1139 116.804 67.4079 116.804 68.702 116.804C70.178 116.804 70.0564 116.377 70.952 115.382C71.5491 114.719 71.7447 113.373 71.7447 112.502C71.7447 111.935 71.9546 111.489 71.9546 110.929C71.9546 110.122 71.2984 110.266 70.9053 109.774C69.8015 108.395 68.6752 106.987 67.5478 105.578C67.0579 104.965 66.3861 104.404 65.8224 103.84C65.2491 103.267 64.3057 102.975 63.9805 102.325" stroke="black" stroke-linecap="round" stroke-linejoin="round"/>
    <path d="M64.1914 140.517C64.3618 141.312 64.5518 142.751 65.0774 143.408C65.4432 143.865 65.8855 143.845 66.2432 144.131C67.114 144.827 68.8752 144.504 69.9621 144.504C72.3705 144.504 74.0458 140.71 73.0049 138.628" stroke="black" stroke-linecap="round" stroke-linejoin="round"/>
    <path d="M75.3146 137.369C75.6482 139.079 76.5813 143.33 75.1514 144.76C73.754 146.158 71.8255 148.281 69.6488 148.281C68.5928 148.281 67.073 148.571 66.2446 147.908C65.3872 147.222 63.615 146.988 62.9804 145.973C62.7625 145.624 62.3278 145.115 62.3042 144.714C62.2749 144.215 62.3811 143.498 62.0477 143.081C61.5695 142.484 61.4648 140.893 61.4648 140.097" stroke="black" stroke-linecap="round" stroke-linejoin="round"/>
    <path d="M60.835 140.936C58.704 141.85 57.4292 143.784 56.3817 145.763C55.6067 147.227 54.7133 148.447 53.9568 149.96C53.184 151.505 53.3804 153.33 52.6511 154.879C51.8925 156.491 52.2359 158.537 51.7068 160.23C50.7659 163.241 50.9723 166.615 50.9723 169.79C50.9723 171.458 51.392 172.986 51.392 174.617C51.392 175.356 51.7715 176.097 51.8117 176.82C51.8676 177.827 52.7571 177.366 53.4438 177.916C54.0172 178.374 54.1832 179.179 54.6446 179.548C55.116 179.925 54.8437 181.017 55.5889 181.017C57.0843 181.017 59.2506 180.835 60.6252 180.224C61.1413 179.995 62.4689 179.968 63.0384 179.968C63.6799 179.968 64.312 179.758 65.0319 179.758C66.6796 179.758 68.3273 179.758 69.9749 179.758C73.2482 179.758 76.2003 178.499 79.4063 178.499C80.9785 178.499 82.6542 178.079 84.2327 178.079C85.5003 178.079 87.4373 178.418 88.5346 177.869" stroke="black" stroke-linecap="round" stroke-linejoin="round"/>
    <path d="M67.3397 153.527C68.5008 155.013 70.2116 155.841 71.3734 157.304C72.8507 159.165 75.2686 159.549 76.9925 161.082C78.338 162.277 80.5411 161.97 82.0288 162.714C83.5014 163.45 85.0449 163.39 86.692 163.39C87.4809 163.39 88.2698 163.39 89.0586 163.39C89.9825 163.39 90.6325 163.124 90.6325 164.229C90.6325 165.698 90.4226 167.232 90.4226 168.636C90.4226 170.056 89.85 169.518 88.7438 170.21C88.2499 170.518 87.0126 171.09 86.4356 171.154C85.9384 171.209 84.6543 171.444 84.2322 171.679C83.6625 171.995 82.3876 171.861 81.7257 171.982C78.7701 172.519 75.4126 171.784 72.4692 171.784C71.3579 171.784 68.6695 170.666 67.9692 169.79C67.7739 169.546 67.3066 169.751 67.0366 169.674C66.825 169.613 66.5174 169.32 66.2904 169.219C65.4778 168.858 64.8623 168.141 64.0871 167.797C63.2078 167.406 60.4151 165.962 60.1933 164.964C59.8794 163.551 58.5866 162.405 57.8967 161.198C57.1772 159.939 55.7982 158.501 55.7982 156.99C55.7982 156.165 55.4702 153.062 56.2179 152.688" stroke="black" stroke-linecap="round" stroke-linejoin="round"/>
    <path d="M56.0078 154.157C56.5 153.355 57.5883 151.219 58.7358 151.219" stroke="black" stroke-linecap="round" stroke-linejoin="round"/>
    <path d="M55.5879 157.934C56.8508 157.17 57.7252 156.616 58.5257 155.416" stroke="black" stroke-linecap="round" stroke-linejoin="round"/>
    <path d="M57.6875 161.711C57.9615 160.189 58.5762 159.724 59.1564 158.563" stroke="black" stroke-linecap="round" stroke-linejoin="round"/>
    <path d="M60.625 164.649C61.1275 163.3 62.0939 162.141 62.0939 160.662" stroke="black" stroke-linecap="round" stroke-linejoin="round"/>
    <path d="M62.9336 167.167C62.9742 165.422 63.9396 164.525 64.6124 163.18" stroke="black" stroke-linecap="round" stroke-linejoin="round"/>
    <path d="M65.8711 169.265C65.886 168.637 66.0453 167.296 66.5473 166.794C66.8318 166.509 67.1302 166.458 67.1302 165.908" stroke="black" stroke-linecap="round" stroke-linejoin="round"/>
    <path d="M68.5977 170.734C68.5977 169.386 69.437 168.393 69.437 167.167" stroke="black" stroke-linecap="round" stroke-linejoin="round"/>
    <path d="M71.3262 171.784C71.3262 171.534 71.4495 167.92 71.7459 168.216" stroke="black" stroke-linecap="round" stroke-linejoin="round"/>
    <path d="M73.6348 171.993C73.6348 171.224 73.6348 170.455 73.6348 169.685" stroke="black" stroke-linecap="round" stroke-linejoin="round"/>
    <path d="M76.1523 171.993C76.1523 171.084 76.1523 170.175 76.1523 169.265" stroke="black" stroke-linecap="round" stroke-linejoin="round"/>
    <path d="M77.832 172.203C77.832 171.434 77.832 170.664 77.832 169.895" stroke="black" stroke-linecap="round" stroke-linejoin="round"/>
    <path d="M80.1406 172.413C80.1406 171.714 80.1406 171.014 80.1406 170.315" stroke="black" stroke-linecap="round" stroke-linejoin="round"/>
    <path d="M82.8672 171.993C82.8672 171.154 82.8672 170.315 82.8672 169.475" stroke="black" stroke-linecap="round" stroke-linejoin="round"/>
    <path d="M84.9648 171.574C84.9648 170.874 84.9648 170.175 84.9648 169.475" stroke="black" stroke-linecap="round" stroke-linejoin="round"/>
    <path d="M88.1133 170.524C88.1133 169.895 88.1133 169.265 88.1133 168.636" stroke="black" stroke-linecap="round" stroke-linejoin="round"/>
    <path d="M90.8418 164.019C92.7074 162.154 94.4996 160.245 96.3444 158.4C96.4995 158.245 97.8946 156.755 97.9649 157.001C98.1344 157.595 97.9579 158.868 97.7201 159.403C97.613 159.644 96.6869 161.238 96.834 161.28C97.3981 161.441 98.4587 160.903 99.0258 160.872C99.7584 160.831 100.503 160.182 101.229 160.021C101.908 159.87 103.022 160.051 103.642 159.776C103.869 159.675 105.717 159.67 105.717 159.927C105.717 160.309 104.312 161.213 104.062 161.338C102.598 162.07 100.749 162.306 99.4921 163.436C98.6287 164.214 99.7006 164.019 100.39 164.019C101.186 164.019 102.286 164.054 103.013 163.763C103.839 163.432 104.946 163.39 105.846 163.39C106.957 163.39 106.111 164.437 105.694 164.812C104.394 165.982 102.633 166.03 101.124 166.701C100.758 166.864 98.5181 166.957 99.5504 166.957C100.467 166.957 101.568 167.342 102.383 167.75C102.721 167.919 104.458 168.587 104.458 168.951C104.458 169.869 103.192 169.895 102.593 169.895C101.765 169.895 100.705 169.989 99.9701 169.58C98.7004 168.875 99.9895 168.906 100.448 169.685C101.211 170.982 102.687 171.873 102.593 173.462C102.526 174.605 100.713 172.632 100.6 172.518C99.9699 171.888 99.5837 171.514 98.8159 171.107C98.0038 170.678 97.1252 170.105 96.1928 170.105C95.4384 170.105 94.8607 169.514 94.1993 169.475C93.4582 169.432 92.8057 169.265 91.996 169.265C91.6001 169.265 91.4276 169.056 91.0516 169.056C90.6425 169.056 90.0634 169.225 90.632 168.846" stroke="black" stroke-linecap="round" stroke-linejoin="round"/>
    <path d="M84.7559 154.366C84.7559 153.107 84.7559 151.848 84.7559 150.589" stroke="black" stroke-linecap="round" stroke-linejoin="round"/>
    <path d="M87.9043 152.898C87.9043 151.778 87.9043 150.659 87.9043 149.54" stroke="black" stroke-linecap="round" stroke-linejoin="round"/>
    <path d="M91.0508 152.058C91.0508 150.939 91.0508 149.82 91.0508 148.701" stroke="black" stroke-linecap="round" stroke-linejoin="round"/>
    <path d="M93.9891 149.75C93.8526 148.896 93.7793 148.09 93.7793 147.232" stroke="black" stroke-linecap="round" stroke-linejoin="round"/>
    <path d="M96.5078 148.701C96.5078 147.791 96.5078 146.882 96.5078 145.973" stroke="black" stroke-linecap="round" stroke-linejoin="round"/>
    <path d="M52.2305 158.563C52.7201 158.563 53.2097 158.563 53.6994 158.563" stroke="black" stroke-linecap="round" stroke-linejoin="round"/>
    <path d="M51.6016 161.501C52.2311 161.501 52.8606 161.501 53.4902 161.501" stroke="black" stroke-linecap="round" stroke-linejoin="round"/>
    <path d="M51.1797 165.488C51.8415 164.987 53.5397 164.336 53.9077 163.6" stroke="black" stroke-linecap="round" stroke-linejoin="round"/>
    <path d="M51.1797 168.426C51.8517 167.917 52.5427 167.115 53.2781 166.747" stroke="black" stroke-linecap="round" stroke-linejoin="round"/>
    <path d="M51.1797 171.574C51.7987 171.317 52.4306 171.046 52.9051 170.571C53.136 170.34 53.2063 170.036 53.488 169.895" stroke="black" stroke-linecap="round" stroke-linejoin="round"/>
    <path d="M51.3906 174.721C52.1051 174.007 52.9945 172.66 53.9088 172.203" stroke="black" stroke-linecap="round" stroke-linejoin="round"/>
    <path d="M52.2305 177.449C53.229 176.663 54.0567 175.067 55.1683 174.512" stroke="black" stroke-linecap="round" stroke-linejoin="round"/>
    <path d="M54.5391 178.708C55.1216 177.73 55.6353 176.983 56.4277 176.19" stroke="black" stroke-linecap="round" stroke-linejoin="round"/>
    <path d="M55.168 179.968C55.8442 179.048 56.4787 178.237 57.2664 177.449" stroke="black" stroke-linecap="round" stroke-linejoin="round"/>
    <path d="M57.2656 181.017C57.5722 180.301 58.5998 178.251 59.3641 177.869" stroke="black" stroke-linecap="round" stroke-linejoin="round"/>
    <path d="M60.625 179.968C60.7501 179.326 60.759 178.65 61.0447 178.079" stroke="black" stroke-linecap="round" stroke-linejoin="round"/>
    <path d="M26.2088 114.613C25.5048 113.381 25.4131 113.305 26.4186 111.978C27.2107 111.978 28.3072 111.632 28.3072 112.607C28.3072 113.489 28.1087 113.984 27.8759 114.799C27.6014 115.76 26.5282 115.171 26.2088 114.613Z" stroke="black" stroke-linecap="round" stroke-linejoin="round"/>
    <path d="M35.4438 114.916C35.298 115.663 34.977 118.029 36.0734 116.385" stroke="black" stroke-linecap="round" stroke-linejoin="round"/>
    <path d="M25.5808 114.916C24.0016 114.916 23.2851 114.935 22.538 116.28C22.1541 116.971 23.3702 118.439 24.1118 118.483C25.0563 118.539 26.63 118.811 26.63 117.527C26.63 116.708 27.3672 114.969 26.4201 114.496" stroke="black" stroke-linecap="round" stroke-linejoin="round"/>
    <path d="M22.8517 118.273C21.1871 118.639 19.4193 119.679 20.2869 121.631C20.6248 122.391 20.6345 122.736 21.2196 123.263C21.6768 123.674 22.585 123.729 23.1665 123.729C24.5275 123.729 24.9048 121.782 25.1483 120.686C25.4671 119.252 24.7905 118.29 23.4812 117.853" stroke="black" stroke-linecap="round" stroke-linejoin="round"/>
    <path d="M20.7528 123.729C16.2437 123.839 18.7562 132.445 22.8513 130.398C24.0531 129.797 24.6902 126.955 24.0054 125.723C23.2562 124.374 22.2041 123.1 20.543 123.1" stroke="black" stroke-linecap="round" stroke-linejoin="round"/>
    <path d="M18.235 128.975C15.6763 129.463 13.6396 129.443 11.3101 130.607C10.2014 131.162 9.02404 131.63 8.16247 132.543C7.47149 133.274 6.83285 134.135 5.94744 134.641C4.49229 135.473 2.59248 137.953 2.49666 139.677C2.43912 140.713 1.70229 141.884 1.28422 142.825C0.835437 143.835 0.998487 145.054 1.22593 146.078C1.81728 148.739 2.47554 150.801 4.47853 152.804C5.00429 153.33 5.42017 154.145 5.9591 154.576C6.59593 155.086 7.32938 156.052 7.95263 156.675C8.77921 157.501 10.0775 158.042 11.1003 158.61C12.0964 159.163 13.0171 160.004 14.1431 160.254C15.2915 160.509 16.2543 161.291 17.5006 161.291C18.8827 161.291 20.2825 161.881 21.6858 161.921C22.9408 161.957 24.0634 161.921 25.3698 161.921C26.4066 161.921 27.9077 161.79 28.9371 161.548C31.5498 160.933 34.235 160.82 36.1768 158.878C37.368 157.687 38.3588 156.3 39.5343 155.124C40.3928 154.266 41.2163 153.007 41.318 151.685C41.5142 149.134 42.1573 146.607 42.1573 143.979C42.1573 143.002 42.7799 140.98 42.1573 140.202C41.5927 139.496 41.3313 138.39 40.7817 137.684C40.0493 136.742 39.3928 135.918 38.4734 135.166C37.5765 134.432 36.4875 133.914 35.6988 133.126C34.9427 132.369 34.525 131.513 33.5537 131.027C32.5454 130.523 31.4697 130.159 30.4993 129.605C29.6601 129.125 28.5146 128.81 27.5848 128.544C26.4572 128.222 26.0881 127.506 24.7402 127.506" stroke="black" stroke-linecap="round" stroke-linejoin="round"/>
    <path d="M5.64453 141.356C6.12931 143.828 7.49437 146.309 8.15101 148.607C8.27009 149.024 8.07067 149.774 8.41915 150.123C8.77965 150.483 9.32992 148.797 9.46837 148.607C10.5645 147.105 11.4855 145.45 12.2546 143.758C12.5845 143.032 12.3596 144.063 12.3596 144.457C12.3596 145.181 12.3559 145.803 12.5694 146.497C12.6992 146.919 13.2359 150.175 13.7818 148.537C14.3297 146.894 14.2317 144.764 14.4464 143.046C14.6515 141.405 14.9804 139.789 15.5072 138.208" stroke="black" stroke-linecap="round" stroke-linejoin="round"/>
    <path d="M17.6059 139.887C17.6059 141.485 17.5171 143.116 17.6059 144.714C17.6358 145.253 17.9968 145.904 18.0255 146.392C18.0645 147.056 18.1973 147.634 18.2354 148.281C18.2546 148.607 19.193 147.067 19.273 146.707C19.445 145.933 20.3732 143.963 21.488 144.83C22.4295 145.562 22.0126 147.601 22.0126 148.701" stroke="black" stroke-linecap="round" stroke-linejoin="round"/>
    <path d="M25.7896 145.343C25.334 145.969 24.122 148.076 24.9968 148.864C25.4616 149.282 27.3954 148.892 27.6782 148.398C28.0876 147.681 27.9064 146.614 27.6898 145.856C27.3908 144.81 26.0969 145.051 25.7896 145.973" stroke="black" stroke-linecap="round" stroke-linejoin="round"/>
    <path d="M29.9868 145.553C29.9868 146.7 29.7972 147.469 30.7212 148.188C31.7468 148.985 32.0852 148.355 32.0852 147.348C32.0852 145.745 31.7501 144.714 29.9868 144.714" stroke="black" stroke-linecap="round" stroke-linejoin="round"/>
    <path d="M31.4571 145.973C31.4571 147.472 31.4252 149.54 33.3457 149.54" stroke="black" stroke-linecap="round" stroke-linejoin="round"/>
    <path d="M36.0723 139.887C36.0723 140.49 36.1562 146.665 36.2821 146.602" stroke="black" stroke-linecap="round" stroke-linejoin="round"/>
    <path d="M35.8633 149.12C35.8859 150.025 36.283 150.408 36.283 149.435C36.283 149.285 36.283 148.452 36.283 148.701" stroke="black" stroke-linecap="round" stroke-linejoin="round"/>
    <path d="M127.983 175.141C125.689 175.141 123.353 175.02 121.058 175.141C119.643 175.216 118.24 175.684 116.814 175.759C111.575 176.035 106.316 176.537 101.123 177.403C99.1539 177.731 97.0215 177.814 95.0372 177.869C93.8781 177.901 92.9407 178.079 91.7846 178.079C90.9289 178.079 89.9737 178.289 89.0567 178.289C88.1836 178.289 87.3267 177.869 86.4336 177.869" stroke="black" stroke-linecap="round" stroke-linejoin="round"/>
    <path d="M52.0214 178.079C50.072 178.079 48.3606 178.589 46.6821 179.548C44.9656 180.529 44.8867 182.393 44.8867 184.164C44.8867 185.046 45.2631 185.893 45.8893 186.519C46.1387 186.769 46.3611 187.142 46.6587 187.312C46.8107 187.399 47.8046 187.819 47.8129 187.848C48.3085 189.583 46.9276 191.697 47.7779 193.398C48.7708 195.383 50.8473 195.076 52.7559 195.076C54.8583 195.076 54.5396 192.404 54.5396 190.879C54.5396 189.654 53.9866 186.242 55.0525 185.633C56.4249 184.849 56.5822 182.374 56.0085 181.227" stroke="black" stroke-linecap="round" stroke-linejoin="round"/>
    <path d="M51.8106 180.387C51.1154 180.387 50.4536 180.597 49.8171 180.597C49.32 180.597 49.3459 180.897 48.966 181.005C47.9931 181.283 48.0385 181.996 47.8119 182.789C47.6448 183.374 47.4152 184.179 47.8702 184.747C48.4581 185.482 49.1405 185.512 49.7588 186.006C50.765 186.811 53.0697 184.554 53.0697 183.64C53.0697 182.111 53.8513 180.387 51.6007 180.387" stroke="black" stroke-linecap="round" stroke-linejoin="round"/>
    <path d="M96.7178 182.066C96.7178 184.013 96.6101 185.794 96.7178 187.732C96.7438 188.201 97.0839 189.396 97.3939 189.784C97.8087 190.302 97.754 191.113 98.0235 191.719C98.5383 192.877 99.3709 194.644 99.4458 195.916C99.5474 197.644 101.913 197.804 103.223 197.804C104.062 197.804 104.902 197.804 105.741 197.804C106.457 197.804 107.123 197.175 107.84 197.175C109.058 197.175 111.865 196.115 112.036 194.657C112.125 193.902 112.456 193.226 112.456 192.348C112.456 191.385 112.456 190.421 112.456 189.457C112.456 187.679 112.036 186.157 112.036 184.374" stroke="black" stroke-linecap="round" stroke-linejoin="round"/>
    <path d="M112.037 183.955C112.912 183.621 115.339 182.755 114.439 182.497C113.584 182.253 112.457 181.811 111.921 181.122C111.437 180.499 110.504 179.968 109.729 179.968C108.954 179.968 108.022 179.41 107.258 179.175C103.615 178.054 99.7776 180.327 96.7188 181.856" stroke="black" stroke-linecap="round" stroke-linejoin="round"/>
    <path d="M100.075 182.276C99.3265 183.336 98.7647 184.554 99.912 185.587C100.739 186.331 102.073 186.053 103.118 186.053C103.608 186.053 104.097 186.053 104.587 186.053C105.211 186.053 105.588 185.697 106.161 185.633C106.693 185.574 108.2 184.938 108.469 184.468C108.853 183.795 109.605 182.513 108.784 181.856C108.054 181.272 107.1 181.436 106.161 181.436C105.146 181.436 104.132 181.436 103.118 181.436C102.051 181.436 101.258 182.066 100.285 182.066" stroke="black" stroke-linecap="round" stroke-linejoin="round"/>
    <path d="M111.827 187.732C110.932 187.906 110.209 188.152 109.309 188.152" stroke="black" stroke-linecap="round" stroke-linejoin="round"/>
    <path d="M112.246 191.509C111.189 191.715 110.379 191.929 109.309 191.929" stroke="black" stroke-linecap="round" stroke-linejoin="round"/>
    <path d="M99.2342 197.385C98.0921 197.434 97.2768 197.797 96.2498 198.177C95.976 198.279 95.5859 198.563 95.457 198.434" stroke="black" stroke-linecap="round" stroke-linejoin="round"/>
    <path d="M100.494 197.594C99.7802 198.462 98.5681 199.397 97.5566 199.903" stroke="black" stroke-linecap="round" stroke-linejoin="round"/>
    <path d="M102.593 198.224C101.874 198.774 101.237 199.371 100.6 200.008C100.47 200.137 99.8652 200.775 99.8652 200.532" stroke="black" stroke-linecap="round" stroke-linejoin="round"/>
    <path d="M44.2575 182.696C43.4881 182.696 42.7186 182.696 41.9492 182.696" stroke="black" stroke-linecap="round" stroke-linejoin="round"/>
    <path d="M34.1836 183.745C31.0562 183.745 28.2005 184.164 25.1136 184.164C22.167 184.164 19.4379 185.004 16.5566 185.004" stroke="black" stroke-linecap="round" stroke-linejoin="round"/>
    <path d="M36.7013 171.574C36.5999 171.054 36.0194 168.972 36.6081 168.636C37.352 168.211 37.951 167.158 37.3192 166.421C36.7181 165.72 35.2324 164.79 35.2324 163.81C35.2324 162.904 36.772 161.757 37.5407 161.501" stroke="black" stroke-linecap="round" stroke-linejoin="round"/>
    <path d="M46.9841 163.18C45.7998 164.144 44.6926 165.262 43.6266 166.328C43.1318 166.822 43.066 167.554 43.3235 168.216C43.6494 169.054 44.0475 169.532 44.8974 169.673C45.4195 169.76 46.3546 169.384 46.3546 170.105C46.3546 170.677 45.9596 170.945 45.9349 171.364C45.8845 172.221 46.4863 171.973 47.0891 172.308C47.7188 172.658 47.6137 172.789 47.6137 173.567C47.6137 174.115 47.4792 174.864 48.0334 175.141" stroke="black" stroke-linecap="round" stroke-linejoin="round"/>
    <path d="M34.8135 183.745C33.4438 182.91 33.2613 182.076 32.2487 181.063C31.9365 180.751 31.2461 180.591 31.2461 180.072C31.2461 179.446 31.3139 178.98 31.4443 178.394C31.8622 176.513 33.1344 174.418 35.2331 174.302C36.2701 174.244 37.1071 173.672 38.171 173.672C39.0615 173.672 40.8488 173.341 41.6334 173.777C42.5938 174.311 43.1177 175.09 43.4054 176.097C43.5768 176.697 43.6152 178.723 43.2539 179.175C42.5461 180.06 42.4408 181.359 41.3186 182.019C40.4518 182.529 41.1088 184.061 41.1088 184.899C41.1088 185.948 41.1088 186.997 41.1088 188.047C41.1088 188.967 41.9618 189.861 41.1554 190.506C40.105 191.347 36.4341 191.195 36.0609 189.516C35.8458 188.548 35.6943 187.51 35.4313 186.589C35.1743 185.69 34.6036 184.55 34.6036 183.535" stroke="black" stroke-linecap="round" stroke-linejoin="round"/>
    <path d="M34.3944 176.82C33.7041 178.589 34.0027 180.776 35.7584 181.751C36.4536 182.137 38.005 181.9 38.8011 181.856C39.5475 181.815 39.8182 179.917 39.8504 179.338C39.8937 178.558 40.0602 177.759 40.0602 176.925C40.0602 175.987 39.3421 175.98 38.4864 175.98C37.9584 175.98 36.5207 175.497 36.1198 175.817C35.6869 176.164 35.1048 176.57 34.6042 176.82" stroke="black" stroke-linecap="round" stroke-linejoin="round"/>
    <path d="M52.6504 198.854C52.6504 199.881 52.8064 200.822 52.8602 201.791C52.8992 202.492 53.2799 203.292 53.2799 203.995C53.2799 204.614 53.4898 205.031 53.4898 205.674C53.4898 206.451 54.6298 206.198 55.1685 206.198C55.7097 206.198 56.3727 206.284 56.8007 205.942C57.2603 205.574 57.6158 205.094 58.1996 204.927C58.8113 204.753 61.254 204.286 61.254 203.68C61.254 203.033 60.8712 195.313 60.4147 195.286C59.1645 195.213 57.9967 196.711 56.9522 197.175C56.157 197.528 55.3269 197.996 54.6439 198.527C54.2572 198.828 53.2109 199.201 53.2799 199.063" stroke="black" stroke-linecap="round" stroke-linejoin="round"/>
    <path d="M59.7841 195.496C58.8552 195.101 57.4977 194.422 56.7413 193.817C56.0113 193.233 55.273 192.558 54.3281 192.558" stroke="black" stroke-linecap="round" stroke-linejoin="round"/>
    <path d="M47.1945 190.04C45.48 189.371 43.7463 188.736 42.1582 187.942" stroke="black" stroke-linecap="round" stroke-linejoin="round"/>
    <path d="M34.1841 185.423C32.7119 186.3 31.3061 187.046 29.8823 187.837C29.0903 188.277 28.8399 188.192 29.8707 188.781C30.3037 189.028 30.5224 189.59 30.9432 189.83C31.6612 190.24 32.377 190.698 33.03 191.206C33.4991 191.571 34.3643 192.385 34.9302 192.547C36.079 192.875 37.3566 193.105 38.486 193.607C39.8141 194.198 41.2409 194.761 42.6246 195.24C43.7933 195.644 45.1998 196.271 46.3551 196.335C46.9338 196.368 47.5403 196.936 48.0339 196.965C48.6125 196.999 49.0078 197.169 49.5028 197.431C50.4293 197.922 51.3332 198.405 52.2308 198.854" stroke="black" stroke-linecap="round" stroke-linejoin="round"/>
    <path d="M27.8885 188.571C27.8885 189.591 27.6798 190.789 28.1449 191.719C28.3765 192.182 28.4447 193.297 28.8328 193.607C29.4747 194.121 29.9869 196.478 29.9869 197.28C29.9869 198.584 31.8292 198.644 32.9247 198.644C33.6437 198.644 34.0975 198.249 34.7084 197.909C35.2233 197.623 35.7788 197.636 36.2822 197.385" stroke="black" stroke-linecap="round" stroke-linejoin="round"/>
    <path d="M36.2835 192.768C36.2835 194.409 36.011 196.327 36.7498 197.804C37.1412 198.587 38.59 199.693 39.4312 199.693C42.8856 199.693 41.9493 196.816 41.9493 194.447" stroke="black" stroke-linecap="round" stroke-linejoin="round"/>
    <path d="M47.6136 198.014C47.6136 198.618 47.2144 201.397 47.6602 201.955C48.1831 202.608 49.3961 203.05 50.2366 203.05C51.447 203.05 51.5723 202.682 52.1252 201.687C52.4797 201.049 52.8597 200.217 52.8597 199.483" stroke="black" stroke-linecap="round" stroke-linejoin="round"/>
    <path d="M47.8235 203.05C46.9929 204.081 45.8772 205.388 44.6758 205.988" stroke="black" stroke-linecap="round" stroke-linejoin="round"/>
    <path d="M49.2922 204.1C49.0101 204.329 46.2738 207.086 46.1445 206.828" stroke="black" stroke-linecap="round" stroke-linejoin="round"/>
    <path d="M51.1815 204.1C50.1701 205.758 48.774 207.347 47.4043 208.716" stroke="black" stroke-linecap="round" stroke-linejoin="round"/>
    <path d="M36.7023 199.273C35.5411 200.112 34.3311 200.793 33.03 201.372C32.7661 201.489 31.666 202.354 31.666 202.211" stroke="black" stroke-linecap="round" stroke-linejoin="round"/>
    <path d="M37.7511 200.323C36.4411 200.853 34.9324 201.657 33.9739 202.736C33.544 203.219 33.2584 203.737 32.7148 204.1" stroke="black" stroke-linecap="round" stroke-linejoin="round"/>
    <path d="M39.2208 200.113C38.16 201.5 36.6185 202.799 35.8633 204.31" stroke="black" stroke-linecap="round" stroke-linejoin="round"/>
    <path d="M64.6114 213.333C64.6114 211.684 64.5233 210.522 65.4975 209.136C66.4394 207.796 67.3458 206.588 68.4819 205.452C69.8861 204.048 70.8788 202.387 71.8511 200.637C72.7691 198.985 73.0052 196.852 73.0052 194.971C73.0052 193.694 73.2081 193.121 71.9094 192.721C70.8577 192.398 69.9115 191.699 69.6594 190.565C69.2094 188.54 71.8262 186.344 73.4249 185.587C76.3468 184.203 79.3324 184.812 82.0286 186.309C84.0859 187.452 84.3808 190.412 82.2384 191.672C81.2626 192.246 80.495 193.156 79.5221 193.724C78.9017 194.086 78.1747 195.82 78.7177 196.499C79.1646 197.057 79.2759 198.169 79.5571 198.9C80.0141 200.089 81.0441 200.686 81.6089 201.675C81.9987 202.357 83.275 202.921 83.8705 203.517C84.5234 204.17 85.48 204.403 86.1205 205.044C87.4058 206.329 89.583 208.189 89.583 210.29C89.583 211.234 89.583 212.179 89.583 213.123C89.583 214.089 89.1113 214.605 88.5338 215.326C88.1304 215.831 86.9209 216.467 86.3304 216.795C85.4372 217.292 84.5852 217.949 83.4975 217.949C81.0167 217.949 78.4306 218.159 75.8964 218.159C74.2717 218.159 72.5899 217.949 71.0117 217.949C70.2777 217.949 69.0897 217.742 68.342 217.483C67.7388 217.274 66.0969 217.115 65.8822 216.364C65.6722 215.629 64.8213 214.679 64.8213 213.962" stroke="black" stroke-linecap="round" stroke-linejoin="round"/>
    <path d="M88.7443 212.913C87.5779 212.532 86.6982 212.313 85.7016 211.759C85.1225 211.437 84.4842 210.815 83.813 210.815C83.0205 210.815 82.225 210.231 81.3998 210.185C79.7545 210.094 78.081 210.185 76.4334 210.185C74.7663 210.185 73.0992 210.185 71.4321 210.185C70.6071 210.185 69.8589 210.83 69.1355 211.036C68.492 211.22 64.567 213.288 64.4023 213.123" stroke="black" stroke-linecap="round" stroke-linejoin="round"/>
    <path d="M76.5721 191.929C75.9761 191.915 74.1109 191.906 74.0539 190.879C74.0298 190.446 73.5889 189.538 74.0539 189.247C75.3203 188.456 76.7418 188.571 78.2974 188.571C79.8537 188.571 80.3548 189.825 79.3 190.879C78.505 191.674 77.053 191.478 76.1524 191.929" stroke="black" stroke-linecap="round" stroke-linejoin="round"/>
    <path d="M78.6716 197.594C77.9021 197.594 77.1327 197.594 76.3633 197.594" stroke="black" stroke-linecap="round" stroke-linejoin="round"/>
    <path d="M79.7204 200.113C78.9379 200.262 78.2028 200.323 77.4121 200.323" stroke="black" stroke-linecap="round" stroke-linejoin="round"/>
    <path d="M81.1883 202.631C80.4888 202.631 79.7893 202.631 79.0898 202.631" stroke="black" stroke-linecap="round" stroke-linejoin="round"/>
    <path d="M83.2866 204.729C82.3773 204.893 81.4783 205.359 80.5586 205.359" stroke="black" stroke-linecap="round" stroke-linejoin="round"/>
    <path d="M85.596 206.198C85.042 206.198 84.1228 206.014 83.6025 206.303C83.2905 206.476 83.018 206.618 82.6582 206.618" stroke="black" stroke-linecap="round" stroke-linejoin="round"/>
    <path d="M65.0306 215.851C63.3369 216.214 61.9599 217.014 60.4141 217.53" stroke="black" stroke-linecap="round" stroke-linejoin="round"/>
    <path d="M66.7108 216.9C65.4335 217.691 64.2077 218.571 62.9336 219.209" stroke="black" stroke-linecap="round" stroke-linejoin="round"/>
    <path d="M68.8076 217.949C68.0483 218.492 67.0563 218.861 66.3944 219.523C66.1016 219.816 65.5701 220.303 65.2402 220.468" stroke="black" stroke-linecap="round" stroke-linejoin="round"/>
</svg>
