<svg width="154" height="78" viewBox="0 0 154 78" fill="none" xmlns="http://www.w3.org/2000/svg">
    <g filter="url(#filter0_d)">
        <path d="M5.48242 33.8154C7.21099 32.9165 8.55548 31.5146 10.1116 30.4373C10.8091 29.9544 11.2481 29.2237 11.9168 28.7036C12.8611 27.9691 14.1369 27.4944 14.9017 26.5767C15.9901 25.2705 17.6121 24.7833 18.9142 23.7706C19.8538 23.0398 20.8782 22.4408 21.8901 21.8224C23.452 20.8679 25.205 20.1022 26.8768 19.338C28.5444 18.5756 30.3226 18.1533 32.06 17.5328C33.8491 16.8938 35.4523 16.2816 37.4131 16.2816C40.5869 16.2816 43.8424 16.1023 46.9842 16.4514C49.2023 16.6979 51.3584 17.5215 53.5706 17.8902C54.8269 18.0996 56.0409 18.5802 57.2793 18.8554C58.0909 19.0358 59.2547 19.0747 59.9781 19.4988C60.9278 20.0555 61.9599 20.3777 62.7843 21.1432C63.4893 21.7978 64.2477 22.4756 65.0005 23.0735C65.7956 23.7049 66.6134 24.168 67.342 24.8966C67.9328 25.4874 68.4685 26.1311 69.1114 26.6571C70.0328 27.4109 71.0232 28.2276 71.6673 29.2398C72.0468 29.8361 72.1075 30.3056 72.6414 30.8394C73.1153 31.3134 73.5936 31.7429 74.1696 32.0816C74.5738 32.3194 74.6754 32.8361 74.9739 33.1719C75.2528 33.4857 75.7284 33.7934 75.939 34.0566C76.0749 34.2266 76.6184 34.4972 76.8327 34.6197C77.2554 34.8612 77.3378 35.1768 77.7085 35.424" stroke="black" stroke-linecap="round" stroke-linejoin="round"/>
        <path d="M63.8747 53.1185C62.3515 53.4172 60.9404 54.1344 59.4064 54.4412C58.5801 54.6064 57.7507 54.5407 56.922 54.6914C56.1452 54.8326 55.3133 54.5872 54.5448 54.7629C53.7284 54.9495 52.8088 55.1644 51.9711 55.2097C48.2845 55.409 44.5948 55.5314 40.8717 55.5314C36.843 55.5314 33.1699 55.6267 29.6473 53.4403C28.4656 52.7068 27.1185 52.788 25.9118 52.1176C25.001 51.6116 24.3137 50.7156 23.4274 50.1516C22.6273 49.6425 21.9092 48.7789 21.0145 48.4536C20.5047 48.2682 20.1334 47.6645 19.6382 47.417C19.1529 47.1743 18.6622 46.8341 18.2709 46.4429C17.0121 45.184 15.2587 44.6814 13.7669 43.878C12.7863 43.3501 12.0279 42.8624 11.4701 41.8584C10.9949 41.003 10.035 40.5814 9.34321 39.928C8.63877 39.2627 8.16291 38.426 7.49333 37.7564C6.308 36.5711 5.52606 35.3936 5 33.8154" stroke="black" stroke-linecap="round" stroke-linejoin="round"/>
        <path d="M21.0862 22.2335C22.7696 24.3883 24.1425 26.276 24.1425 29.1147C24.1425 31.7837 24.6384 34.5218 23.9012 37.1755C23.8189 37.472 23.9763 38.4524 23.7404 38.6412C23.6271 38.7317 23.3814 39.4955 23.3293 39.6778C23.1128 40.4356 22.5478 41.1121 22.3641 41.9388C22.1787 42.773 21.0611 43.864 20.5232 44.5215C19.8932 45.2914 19.3433 46.3536 18.3516 46.6841" stroke="black" stroke-linecap="round" stroke-linejoin="round"/>
        <path d="M24.4641 20.3032C25.588 21.4622 26.1184 23.02 27.1987 24.1638C27.8139 24.8152 28.4401 25.4491 28.843 26.255C29.1105 26.7899 29.0833 27.3442 29.2541 27.8993C30.3211 31.367 29.1453 34.909 28.3604 38.2837C28.2017 38.9661 28.0419 39.388 28.003 40.0889C27.9853 40.407 27.6753 41.1018 27.4847 41.34C26.8578 42.1236 26.9941 43.602 26.3586 44.3964C25.6511 45.2808 25.4387 46.6466 24.9109 47.6493C24.6095 48.222 23.5479 50.2231 22.8555 50.2231" stroke="black" stroke-linecap="round" stroke-linejoin="round"/>
        <path d="M37.4941 27.0593C38.5842 26.8311 39.4692 26.3686 40.4611 26.0852C41.5265 25.7808 42.6491 25.5674 43.7677 25.3256C45.0771 25.0424 46.6105 24.7884 47.9411 24.6553C49.515 24.4979 51.0075 24.3246 52.606 24.3246C54.2625 24.3246 55.8198 24.3876 57.4408 24.7715C58.7436 25.0801 60.4002 25.2834 61.5337 26.0047C62.1245 26.3807 62.7657 26.7816 63.3926 27.095C63.7856 27.2915 64.4922 27.65 64.6794 28.0244" stroke="black" stroke-linecap="round" stroke-linejoin="round"/>
        <path d="M60.6562 24.1638C60.6562 25.9868 60.6562 31.4561 60.6562 29.633" stroke="black" stroke-linecap="round" stroke-linejoin="round"/>
        <path d="M54.707 21.7509C54.707 23.2898 55.1759 25.0301 55.8688 26.4158C56.3003 27.2788 56.0124 28.4015 56.3156 29.3113" stroke="black" stroke-linecap="round" stroke-linejoin="round"/>
        <path d="M48.593 21.1074C48.2734 22.785 48.8772 24.3202 48.9147 25.969C48.9231 26.3415 48.7001 27.9976 49.0755 28.1853" stroke="black" stroke-linecap="round" stroke-linejoin="round"/>
        <path d="M41.3555 21.59C41.5687 22.923 41.8909 24.0428 42.4011 25.2898C42.7108 26.0469 43.2734 26.9409 43.4466 27.7206C43.572 28.2847 43.7684 28.9019 43.7684 29.4722C43.7684 29.6489 43.7241 30.6867 43.9292 30.2765" stroke="black" stroke-linecap="round" stroke-linejoin="round"/>
        <path d="M67.8957 26.7375C67.3077 29.898 67.1948 33.069 67.8599 36.2283C68.125 37.4875 68.1501 38.8102 68.2174 40.0889C68.2564 40.8294 68.5391 41.5809 68.5391 42.3409" stroke="black" stroke-linecap="round" stroke-linejoin="round"/>
        <path d="M71.5957 29.3113C71.5957 31.199 72.7217 32.8747 72.7217 34.7001C72.7217 35.1834 72.7385 36.2156 73.0077 36.5857C73.2846 36.9664 72.7439 37.9283 73.2043 38.1586" stroke="black" stroke-linecap="round" stroke-linejoin="round"/>
        <path d="M63.3926 53.6011C63.3926 50.6478 65.6956 47.2576 67.566 45.0755C67.9891 44.5819 68.3463 43.9386 68.5758 43.3418C68.8192 42.7091 69.3812 42.2746 69.7019 41.6975C70.003 41.1554 70.763 41.004 71.1049 40.491C71.4199 40.0186 72.0232 39.5715 72.4722 39.2042C74.2051 37.7863 76.8202 37.0326 79.0764 37.0326C79.9683 37.0326 81.0703 36.8717 82.0523 36.8717C82.4995 36.8717 83.1856 36.7328 83.5805 36.9521C83.877 37.1168 84.5634 37.3543 84.8763 37.3543C86.8415 37.3543 88.9472 39.0067 90.6583 39.7672C91.1084 39.9672 91.5647 40.4544 91.9899 40.7323C92.4038 41.003 93.0186 41.2587 93.2768 41.6975C93.4448 41.9832 93.7939 42.1468 93.9559 42.4303C94.1097 42.6994 94.305 43.2958 94.5189 43.4669C95.1056 43.9363 95.6422 45.1312 95.7254 45.8798C95.8461 46.9664 96.4465 47.9586 96.6816 49.0166C96.8705 49.8664 96.6906 50.9592 96.6906 51.8317C96.6906 52.7717 96.8514 53.5907 96.8514 54.4858C96.8514 56.688 96.5906 58.6983 95.6003 60.6789C94.5593 62.761 92.8202 64.7769 91.2213 66.4699C89.3889 68.4101 86.743 68.8828 84.1435 68.8828C81.7659 68.8828 79.4512 69.2483 77.1014 68.5253C75.927 68.164 74.499 67.7617 73.4463 67.0329C72.9226 66.6704 72.0672 66.3795 71.7215 65.8265C71.6163 65.6581 70.9794 65.2064 70.7921 65.183C70.2676 65.1174 69.0669 63.7947 68.8618 63.3331C68.3625 62.2096 67.2372 61.4223 66.6455 60.3572C65.6851 58.6285 65.162 56.5841 65.162 54.602C65.162 53.4823 65.0012 52.3523 65.0012 51.2686C65.0012 50.4501 64.492 49.2174 65.0012 48.4536" stroke="black" stroke-linecap="round" stroke-linejoin="round"/>
        <path d="M69.1836 42.6627C70.2583 45.3179 72.7437 47.9268 75.3767 49.0971C75.8512 49.3079 76.2573 49.6493 76.744 49.8656C77.1941 50.0657 77.7379 50.0571 78.1917 50.2588C79.322 50.7612 80.2878 50.7057 81.5698 50.7057C83.9922 50.7057 86.0557 48.4931 86.2347 46.1658C86.3393 44.8063 87.1218 43.4722 87.3697 42.1086C87.6132 40.7695 88.0042 39.3784 88.0042 37.9977" stroke="black" stroke-linecap="round" stroke-linejoin="round"/>
        <path d="M76.7441 69.0437C76.7441 65.9119 76.7461 63.0182 78.9962 60.5181C79.7251 59.7082 80.0906 58.6193 80.8461 57.8639C81.5181 57.1919 82.9922 56.788 83.8577 57.3009C84.7175 57.8104 86.0526 57.998 86.7174 58.8291C87.4282 59.7176 88.4589 60.3167 89.1303 61.2867C89.7263 62.1475 90.8458 62.9697 91.0696 63.9766C91.1423 64.3038 91.3082 64.8088 91.5075 65.0579C91.6047 65.1794 91.7041 66.2989 91.7041 65.6656" stroke="black" stroke-linecap="round" stroke-linejoin="round"/>
        <path d="M83.8223 37.0326C83.2466 34.2821 82.7693 31.7209 83.9832 29.079C84.9689 26.9336 85.6547 24.592 86.7178 22.4658C87.182 21.5375 87.5724 20.5802 88.0851 19.6687C88.6507 18.6632 89.4843 17.8052 89.935 16.7285C90.3331 15.7774 90.8246 14.9018 91.3202 14.0207C92.0785 12.6726 93.4906 11.7676 94.5285 10.6605C95.4604 9.66645 96.8013 8.83848 97.9423 8.07783C98.311 7.83203 98.6302 7.58649 98.9432 7.27353C99.1443 7.07237 99.6175 6.92897 99.7475 6.70159C100.125 6.04073 100.843 5.69542 101.356 5.18235C101.964 4.57407 102.672 4.04185 103.447 3.65419C107.228 1.76385 110.856 1 115.065 1C116.794 1 118.651 1.11844 120.302 1.60769C121.538 1.97404 123.225 2.28688 124.52 2.28688C125.125 2.28688 125.668 2.6086 126.298 2.6086C127.14 2.6086 127.932 2.71821 128.738 2.96606C130.002 3.35508 131.345 3.9877 132.482 4.61935C133.936 5.42714 135.474 6.32364 136.665 7.51482C137.707 8.55729 138.222 10.0189 139.194 11.0984C139.93 11.9159 140.074 13.1843 140.802 13.9939C141.097 14.321 141.125 14.8629 141.491 15.1557C141.957 15.5284 142.245 16.1659 142.536 16.6749C143.771 18.8351 144.585 21.1925 145.834 23.4399C146.391 24.4435 146.774 25.6618 147.031 26.818C147.148 27.3418 147.269 27.8994 147.487 28.4177C147.768 29.0854 147.604 29.9422 147.88 30.5982C148.124 31.1776 148.062 31.7847 148.247 32.3766C148.512 33.2249 148.649 34.0567 148.649 34.9414C148.649 37.2489 148.737 39.5364 148.649 41.8226C148.593 43.2614 148.285 45.3208 147.523 46.5591C146.994 47.4189 146.819 48.5166 146.316 49.4099C145.863 50.2162 145.214 51.2298 144.949 52.0909C143.738 56.0281 140.423 58.9237 137.067 61.0811C134.471 62.7496 131.794 64.4173 128.702 65.0937C127.46 65.3655 126.114 65.965 124.842 65.9874C123.051 66.0188 121.268 66.3091 119.497 66.3091C117.785 66.3091 116.012 66.4699 114.261 66.4699C112.614 66.4699 111.097 66.1665 109.479 65.9963C108.764 65.921 108.117 66.1344 107.379 66.0231C106.535 65.8956 105.721 65.6333 104.886 65.5048C104.125 65.3877 103.323 65.0046 102.643 64.6647C101.41 64.0483 100.003 63.7156 98.9521 62.7702C97.9666 61.8832 96.5973 61.1348 96.0477 60.0355" stroke="black" stroke-linecap="round" stroke-linejoin="round"/>
        <path d="M104.25 66.1482C105.336 63.4651 107.284 61.3279 108.79 58.8738C109.425 57.8383 110.194 56.9024 110.845 55.8889C111.423 54.99 111.838 53.8017 112.776 53.199C113.627 52.6518 114.391 51.8866 115.188 51.2598C116.324 50.3675 117.51 49.9559 118.852 49.4188C120.988 48.5647 123.231 48.677 125.483 48.9273C127.552 49.1572 129.126 50.5731 130.872 51.3491C132.182 51.9312 133.232 52.8985 134.492 53.5654C135.119 53.8977 135.608 54.5565 136.1 55.0489C136.536 55.4843 137.291 55.8386 137.548 56.4162C138.008 57.4505 139.167 58.2813 139.8 59.2313" stroke="black" stroke-linecap="round" stroke-linejoin="round"/>
        <path d="M94.2773 10.4907C95.4651 11.1977 96.9963 11.9227 97.9771 12.9036C98.991 13.9174 99.9302 14.8897 100.882 15.9599C101.72 16.9027 102.41 17.9726 103.205 18.9448C104.102 20.0413 104.925 20.9774 105.931 21.9832C106.44 22.4921 107.733 23.6267 108.469 23.6812C108.907 23.7136 109.334 23.9372 109.738 24.1012C110.244 24.3069 110.69 25.0333 111.168 25.1289C111.551 25.2056 112.308 25.5263 112.615 25.7724C113.036 26.1088 114.017 26.3157 114.546 26.4515C115.062 26.5842 115.698 26.8833 116.226 26.8984C117.486 26.9344 119.035 27.4348 120.212 26.7375C121.496 25.9764 122.956 25.6229 124.197 24.7268C125.044 24.1153 125.919 23.573 126.771 22.9573C127.432 22.4802 127.694 21.8476 128.138 21.2057C129.568 19.1404 130.504 16.3422 130.953 13.8687C131.404 11.3898 131.295 8.38199 129.541 6.43344C128.97 5.79899 128.762 4.89007 128.183 4.25289C127.763 3.79103 127.567 3.78879 127.093 3.53796C126.751 3.35715 126.877 2.90305 126.61 2.76941" stroke="black" stroke-linecap="round" stroke-linejoin="round"/>
        <path d="M109.719 1.16083C111.84 2.72038 114.072 5.38042 115.259 7.75608C116.859 10.9543 116.983 14.6109 118.325 17.8902C118.679 18.7563 118.87 19.6427 119.281 20.464C119.535 20.9729 119.757 21.7503 119.844 22.3139C119.922 22.8235 120.158 23.2652 120.335 23.7527C120.427 24.0042 120.677 24.1402 120.818 24.3604C121.065 24.7438 121.104 25.2069 121.301 25.6115C122.29 27.6488 122.748 30.2374 122.748 32.4927C122.748 33.7975 123.183 35.1202 123.231 36.4249C123.287 37.9313 123.554 39.5414 123.722 41.0541C123.773 41.5058 124.035 41.9438 124.035 42.3588C124.035 43.2108 124.035 44.0627 124.035 44.9147C124.035 46.4965 124.035 48.0783 124.035 49.6601C124.035 53.3268 123.97 56.8328 123.356 60.4466C123.102 61.9443 122.921 63.4801 122.596 64.9417C122.517 65.2975 122.679 65.709 122.579 66.0588C122.495 66.3521 122.266 66.6223 122.266 66.9525" stroke="black" stroke-linecap="round" stroke-linejoin="round"/>
        <path d="M93.1523 41.5367C99.3533 41.5367 105.563 41.6975 111.776 41.6975C114.083 41.6975 116.368 41.3415 118.649 40.9737C122.461 40.3588 126.267 39.6064 130.15 39.6064C132.198 39.6064 134.23 38.8021 136.263 38.8021C137.967 38.8021 140.351 37.9018 141.893 37.1935C143.273 36.5595 144.688 36.0695 145.995 35.3436C146.784 34.9048 147.553 34.3633 148.327 33.9763" stroke="black" stroke-linecap="round" stroke-linejoin="round"/>
    </g>
    <defs>
        <filter id="filter0_d" x="0.5" y="0.5" width="152.688" height="77.0437" filterUnits="userSpaceOnUse" color-interpolation-filters="sRGB">
            <feFlood flood-opacity="0" result="BackgroundImageFix"/>
            <feColorMatrix in="SourceAlpha" type="matrix" values="0 0 0 0 0 0 0 0 0 0 0 0 0 0 0 0 0 0 127 0"/>
            <feOffset dy="4"/>
            <feGaussianBlur stdDeviation="2"/>
            <feColorMatrix type="matrix" values="0 0 0 0 0 0 0 0 0 0 0 0 0 0 0 0 0 0 0.25 0"/>
            <feBlend mode="normal" in2="BackgroundImageFix" result="effect1_dropShadow"/>
            <feBlend mode="normal" in="SourceGraphic" in2="effect1_dropShadow" result="shape"/>
        </filter>
    </defs>
</svg>
