<svg width="113" height="71" viewBox="0 0 113 71" fill="none" xmlns="http://www.w3.org/2000/svg">
    <g filter="url(#filter0_d)">
        <path d="M9 23.6C9.49194 24.185 10.0125 24.5803 10.3629 25.2509C10.6184 25.7402 10.8434 26.4246 11.1827 26.8305C11.6419 27.38 11.9469 28.1764 12.2581 28.828C12.6416 29.6309 12.9278 30.3552 13.4559 31.0853C13.6147 31.3049 13.5882 31.4877 13.7913 31.6713C13.9503 31.8151 14.0864 31.9517 14.1959 32.1299C14.326 32.3417 14.6169 32.5091 14.7495 32.7312C15.1249 33.3599 15.4404 34.0379 15.6865 34.7184C15.9183 35.3595 16.4098 35.9336 16.8098 36.4866C17.0897 36.8735 17.2656 37.3196 17.5285 37.7044C17.8699 38.2042 17.8643 38.9287 18.0555 39.5184C18.304 40.2849 18.4647 40.9939 18.9179 41.6687C19.2967 42.2326 19.9891 42.2214 20.3074 42.907C20.5289 43.3839 20.9131 43.8069 21.1911 44.2573C21.5858 44.8966 21.9229 45.5867 22.4156 46.163C23.4759 47.4035 24.1906 48.6364 24.6728 50.1528C25.0345 51.2904 25.6943 52.3568 26.4189 53.3171C26.6524 53.6265 26.8524 53.9295 27.0152 54.2802C27.1142 54.4935 27.2891 54.9748 27.4198 55.1311C27.5833 55.3268 27.3494 55.8293 27.5422 55.977C27.7258 56.1176 27.9317 55.5759 28.0213 55.3757C28.4682 54.3776 29.3473 53.5614 30.1348 52.8076C30.6304 52.3333 31.2094 51.9484 31.7852 51.5745C32.2994 51.2405 32.7342 50.8005 33.2651 50.4738C33.5277 50.3123 33.8273 50.1946 34.1063 50.0611C34.3697 49.935 34.6809 49.9045 34.9208 49.7808C35.18 49.6472 35.454 49.6132 35.7353 49.5362C36.0421 49.4524 36.2823 49.2047 36.5977 49.1184C37.3533 48.9118 37.83 48.5477 38.658 48.5477C39.4208 48.5477 40.3095 48.6762 41.0483 48.5273C41.796 48.3767 42.5639 47.9338 43.3268 47.9057C44.6563 47.8567 45.9998 47.9057 47.3302 47.9057C48.6885 47.9057 50.1159 47.9089 51.3548 48.5018C52.0105 48.8156 52.815 48.7531 53.4843 49.0063C54.0427 49.2176 54.6853 49.3732 55.2837 49.3732C56.1011 49.3732 56.9468 49.8289 57.7006 50.0866C58.911 50.5003 60.1609 50.6984 61.3207 51.2534C61.9822 51.57 62.5522 52.1472 63.2851 52.3031C63.4362 52.3353 64.0246 52.5347 64.0996 52.4305C64.4876 51.892 64.6923 51.2185 65.1111 50.7031C65.4732 50.2575 66.0191 49.9258 66.3036 49.4241C66.6481 48.8167 67.1232 48.4183 67.5919 47.9057C68.2486 47.1874 68.8732 46.4 69.5617 45.7044C70.6942 44.5602 72.0034 43.4841 73.2989 42.4738C74.1652 41.7982 75.1536 41.2872 76.0192 40.6191C76.8843 39.9513 77.621 39.2773 78.6651 38.8713C79.4878 38.5514 80.1011 37.9434 80.8691 37.5617C81.6659 37.1657 82.5083 36.8384 83.2753 36.3898C84.1629 35.8706 85.3039 35.3625 86.3311 35.177C86.8394 35.0852 87.0531 34.9232 87.481 34.7184C88.2058 34.3716 89.0624 33.7671 89.8767 33.6891C91.3572 33.5474 92.8052 33.1909 94.2846 33.0267C95.0491 32.9419 95.7588 32.8637 96.5312 32.8637C97.3087 32.8637 98.0014 32.6076 98.7671 32.5172C99.797 32.3955 100.831 32.4273 101.855 32.3184C101.906 32.313 103.271 32.3049 102.951 32.1299C102.636 31.9572 102.492 31.1712 102.313 30.8458C102.146 30.5435 101.9 30.1914 101.615 29.9796C100.688 29.2896 100.046 28.4035 99.225 27.5949C98.7931 27.1697 98.1634 26.5809 97.9313 26.0254C97.7099 25.4956 97.0719 25.1315 96.6057 24.7923C95.9386 24.3071 95.3686 23.6093 94.9554 22.9172C94.812 22.6769 94.5615 22.4348 94.3804 22.2038C94.1315 21.8861 93.7909 21.6509 93.5713 21.307C93.4549 21.1248 93.2141 20.9735 93.1347 20.8025C92.9259 20.3529 92.554 19.8716 92.2723 19.4522C91.9025 18.9017 91.4 18.5388 90.9786 18.0458C90.4065 17.3765 90.0013 16.6667 89.5146 15.9363C89.0412 15.2256 88.3491 14.5994 87.7685 13.9643C87.482 13.6509 87.1408 12.9366 87.0232 12.5427C86.894 12.11 86.4625 11.5433 86.1395 11.2178C85.4914 10.5649 85.475 9.57499 85.0854 8.80253C84.7017 8.04191 84.2371 7.44947 83.7225 6.77451C83.291 6.20851 82.9937 5.6764 82.6418 5.0777C82.263 4.43308 81.8026 3.86661 81.4014 3.23821C80.8896 2.4365 80.1631 1.92042 79.4796 1.26624C78.9474 0.756863 78.6265 1.09681 77.9517 1.3121C77.4116 1.48443 76.8305 1.6714 76.344 1.95414C75.8224 2.25726 75.1522 2.33417 74.6191 2.65732C73.4448 3.36919 72.2208 3.95799 71.0203 4.59362C70.0999 5.08096 69.2123 5.46154 68.3692 6.07642C67.3605 6.81203 66.3741 7.75555 65.2495 8.30317C64.3984 8.71765 63.8418 9.417 63.0455 9.88279C62.7207 10.0728 62.6113 10.3239 62.2363 10.4331C61.5259 10.6401 60.9116 11.1292 60.256 11.4522C59.3359 11.9055 58.6872 12.6378 57.9615 13.3325C57.0685 14.1872 56.5115 15.1916 55.7149 16.1146C55.1984 16.7131 54.406 17.1193 53.9421 17.7503C53.7588 17.9996 53.5449 18.2019 53.3193 18.4178C52.8332 18.883 52.5369 19.3704 52.1694 19.921C51.7194 20.5951 51.16 21.6448 50.3753 22.0204C50.1041 22.1501 49.4833 21.4079 49.1934 21.307C48.6261 21.1095 48.0544 20.9654 47.4899 20.7567C46.6631 20.4509 45.7416 20.3205 44.9878 19.8395C44.5378 19.5524 43.9093 19.3252 43.4013 19.1516C42.8132 18.9505 42.1996 18.7682 41.6019 18.5554C40.6332 18.2104 39.7184 17.6599 38.7006 17.4548C36.8568 17.0832 34.9838 16.9962 33.1001 16.9962C31.7991 16.9962 30.4855 16.9044 29.1713 16.9044C27.7816 16.9044 26.4164 17.0467 25.0348 17.1592C24.0362 17.2406 22.9401 17.1282 21.9577 17.2917C19.8249 17.6467 17.8739 18.7402 15.8568 19.4216C15.1536 19.6592 14.4825 20.1398 13.7966 20.4407C13.3409 20.6406 12.8355 21.0394 12.4976 21.3987C11.5834 22.371 10.197 23.3023 9 23.8751" stroke="black" stroke-linecap="round" stroke-linejoin="round"/>
        <path d="M50 22C50.9275 22.6975 51.2301 23.708 51.6728 24.6821C51.9374 25.2645 52.3975 25.8776 52.589 26.4769C52.6986 26.8197 52.9975 27.2859 53.2123 27.5846C53.445 27.9081 53.5312 28.2951 53.7397 28.6256C54.4595 29.7668 55.0796 30.9289 55.5616 32.2051C55.7772 32.7759 56.1106 33.3851 56.3767 33.9487C56.548 34.3114 56.7314 34.9091 57 35.2C57.6639 35.919 58.3494 36.7235 58.6248 37.6513C58.7772 38.1647 59.0122 38.6063 59.2055 39.1179C59.4843 39.8561 59.8567 40.7253 60.2603 41.4051C60.778 42.2774 60.7001 43.4361 61.2192 44.318C61.4659 44.7372 61.4992 45.2956 61.6986 45.7436C61.8659 46.1192 62.0529 46.4854 62.1781 46.8769C62.7187 48.5684 64 50.171 64 52" stroke="black" stroke-linecap="round" stroke-linejoin="round"/>
        <path d="M67 38C68.035 36.4424 69.5274 35.3473 70.9273 34.0735C71.4713 33.5785 72.0144 33.0678 72.6027 32.6176C73.0899 32.2449 73.4199 31.7266 73.8633 31.3137C74.9453 30.3063 76.3037 29.4078 77.5697 28.6078C78.5666 27.9779 79.4826 27.3332 80.5973 26.8824C81.3735 26.5685 82.2023 26.242 83 26" stroke="black" stroke-linecap="round" stroke-linejoin="round"/>
        <path d="M66 31C66.5596 30.4692 67.1523 29.9497 67.7571 29.4657C68.0728 29.213 68.5024 29.0388 68.7907 28.7941C69.1073 28.5255 69.5518 28 70 28" stroke="black" stroke-linecap="round" stroke-linejoin="round"/>
        <path d="M78 24C78.8626 22.8074 80.3671 21.727 81.6002 20.9267C81.9294 20.713 82.2772 20.3728 82.6608 20.2766C82.7907 20.244 83.0388 20.1931 83.1439 20.1111C83.7201 19.6616 84.4085 19.3955 85 19" stroke="black" stroke-linecap="round" stroke-linejoin="round"/>
        <path d="M62 31C62.6348 29.4835 64.0062 28.259 65.199 27.1418C65.9503 26.4381 66.6595 25.7297 67.466 25.0848C68.1967 24.5004 68.9094 23.9293 69.6021 23.299C70.4063 22.5672 71.3262 22.0154 72.178 21.3494C72.8081 20.8567 73.52 20.4693 74.199 20.0446C75.0469 19.5142 75.8044 18.8376 76.7016 18.3816C77.7649 17.8412 78.8796 17.365 80 17" stroke="black" stroke-linecap="round" stroke-linejoin="round"/>
        <path d="M64 23C64.7565 21.6419 66.1424 20.7807 67.3002 19.7387C68.3009 18.8381 69.4858 18.1124 70.5342 17.2593C72.0482 16.0273 73.8702 14.8792 75.6667 14.0185C76.6321 13.5559 77.8791 13 79 13" stroke="black" stroke-linecap="round" stroke-linejoin="round"/>
        <path d="M58 21C58.612 20.0476 59.3623 19.1501 60.277 18.413C61.0151 17.8181 61.69 17.1665 62.4412 16.5847C63.2436 15.9633 64.1973 15.4919 64.9436 14.8176C65.4972 14.3174 66.1177 13.8589 66.7246 13.412C68.3672 12.2027 69.9625 10.6137 72 10" stroke="black" stroke-linecap="round" stroke-linejoin="round"/>
        <path d="M19 24C21.4142 23.3822 23.6742 22.406 26.095 21.7743C28.4862 21.1504 31.1059 21.133 33.6024 21.133C35.7651 21.133 37.8661 20.7885 40.012 21.2084C40.6564 21.3345 41.2437 21.5096 41.8648 21.6779C42.1359 21.7513 42.8888 21.7888 43 21.9629" stroke="black" stroke-linecap="round" stroke-linejoin="round"/>
        <path d="M25 26C26.4842 26 27.8262 25.3203 29.265 24.9513C30.3598 24.6705 31.5189 24.1084 32.6398 24.0884C34.9995 24.0464 37.7273 23.7143 40 24.6858" stroke="black" stroke-linecap="round" stroke-linejoin="round"/>
        <path d="M21 33C22.0564 32.6889 23.0243 32.2687 24.0326 31.85C24.9459 31.4708 25.8867 31.245 26.7283 30.6944C27.7512 30.0252 29.1364 29.6971 30.2989 29.4C32.8933 28.737 35.6074 28.1749 38.288 28.1056C40.0213 28.0607 41.7685 28 43.5 28C44.2551 28 44.7442 28.2163 45.4348 28.4778C46.2523 28.7873 47.4898 29.1177 48 29.9" stroke="black" stroke-linecap="round" stroke-linejoin="round"/>
        <path d="M32 34C36.0609 34 48.2436 34 44.1827 34" stroke="black" stroke-linecap="round" stroke-linejoin="round"/>
        <path d="M44 37C45.8021 37 47.6073 37 49.4091 37C49.9524 37 50.4755 37 51 37" stroke="black" stroke-linecap="round" stroke-linejoin="round"/>
        <path d="M45 42C47.3351 42 49.669 42 52 42" stroke="black" stroke-linecap="round" stroke-linejoin="round"/>
        <path d="M9.63527 25.9353C8.50671 26.3988 6.48433 27.051 5.81033 28.1875C5.68075 28.406 5.37072 28.4918 5.23659 28.6533C5.16718 28.7369 4.89313 28.8954 5.04535 28.9963C5.25303 29.1339 5.4352 29.2682 5.61909 29.4365C7.0258 30.7241 8.37086 32.0319 9.42808 33.6236C10.003 34.4892 10.4776 35.4156 11.0909 36.2751C11.9437 37.4704 12.6719 38.7838 13.269 40.0783C13.3589 40.2734 13.5862 40.9817 13.8002 41.0406C14.1098 41.1258 14.474 41.5142 14.6289 41.7828C15.1146 42.6252 15.7218 43.4203 16.212 44.2705C17.072 45.762 17.6597 47.4239 18.5282 48.9183C18.8308 49.4389 19.1532 49.9359 19.4632 50.4437C19.6959 50.8249 20.0541 51.3011 20.1538 51.7336C20.2783 52.2731 20.5498 52.7058 20.8232 53.1669C21.1712 53.7537 21.3734 54.3603 21.6838 54.9584C22.046 55.6564 22.3782 56.3614 22.6613 57.098C22.8995 57.7178 23.2388 58.3668 23.405 59.0073C23.5401 59.528 23.7915 60.0243 24.1275 60.4406C24.3233 60.6831 24.6135 61.0906 24.6481 61.408C24.6661 61.5724 24.7596 61.8737 24.8872 61.9967C24.9214 62.0296 25.0065 61.8093 25.0359 61.7714C25.1702 61.5989 25.2969 61.4279 25.4556 61.2749C26.1084 60.6459 26.6834 59.9802 27.4425 59.4526C28.678 58.5939 29.9327 57.6884 31.3205 57.0776C32.1857 56.6968 32.9923 56.2347 33.8705 55.8747C34.5889 55.5801 35.3138 55.2768 36.022 54.9584C38.1575 53.9982 40.1998 52.9017 42.5669 52.568C44.1972 52.3381 45.8151 52.3786 47.4596 52.3786C48.2333 52.3786 48.9377 52.4429 49.7015 52.5424C50.226 52.6107 50.8459 52.8577 51.3483 52.7676C52.7598 52.5146 54.2898 52.1022 55.7257 52.1022C57.0621 52.1022 58.4249 52.1943 59.7419 52.1943C60.0008 52.1943 60.7103 52.3032 60.9372 52.4247C61.2857 52.6112 61.9271 52.6393 62.3237 52.7267C62.801 52.8318 63.2678 52.9314 63.7581 52.9314C64.3384 52.9314 65.2045 51.9828 65.6759 51.6876C67.6776 50.4339 69.4706 48.8983 71.4876 47.6386C72.7726 46.8362 74.0592 46.0392 75.3285 45.2124C76.2785 44.5935 77.1424 44.152 78.2716 43.9481C78.7225 43.8666 79.0561 43.4102 79.4403 43.1444C79.9458 42.7947 80.5088 42.4795 81.0447 42.1719C84.0054 40.4723 87.3857 39.7225 90.7557 39.203C91.6081 39.0716 92.4973 39.0742 93.3588 39.0238C94.0454 38.9838 94.7035 38.837 95.3882 38.7628C96.1456 38.6807 96.8659 38.5815 97.6087 38.425C98.3085 38.2775 99.0548 38.4155 99.7656 38.3277C102.193 38.0278 104.709 37.919 107.081 37.3142C107.36 37.2429 108.098 37.2132 107.989 36.8382C107.844 36.3346 107.61 35.776 107.315 35.3333C106.879 34.681 106.667 33.8445 106.385 33.122C105.792 31.6059 104.478 30.4797 103.559 29.1601C103.169 28.6011 102.594 28.2059 102.151 27.6859C101.718 27.1777 101.391 26.6343 101.046 26.0735C100.421 25.0579 99.966 23.9458 99.1865 23.0279C98.9323 22.7285 98.7329 22.3879 98.4694 22.086C98.0722 21.6309 97.7474 21.53 97.5875 20.9599C97.3665 20.172 96.8164 19.3666 96.4081 18.6514C95.8048 17.5943 95.1297 16.5787 94.4532 15.5648C93.4773 14.1021 92.4697 12.5664 91.7545 10.9682C90.9368 9.14101 89.6972 7.45912 88.3492 5.99788C87.8516 5.45849 87.3226 4.85228 86.8989 4.26264C86.6818 3.96046 86.4157 3.36184 86.0808 3.17747C85.4712 2.84184 84.3893 3.08533 83.6956 3.08533C83.2718 3.08533 82.695 3.12477 82.309 3.29008C82.0293 3.40987 81.7027 3.54602 81.4006 3.54602C81.2944 3.54602 80.3594 3.8403 80.779 3.63815" stroke="black" stroke-linecap="round" stroke-linejoin="round"/>
    </g>
    <defs>
        <filter id="filter0_d" x="0.5" y="0.500008" width="112" height="70" filterUnits="userSpaceOnUse" color-interpolation-filters="sRGB">
            <feFlood flood-opacity="0" result="BackgroundImageFix"/>
            <feColorMatrix in="SourceAlpha" type="matrix" values="0 0 0 0 0 0 0 0 0 0 0 0 0 0 0 0 0 0 127 0"/>
            <feOffset dy="4"/>
            <feGaussianBlur stdDeviation="2"/>
            <feColorMatrix type="matrix" values="0 0 0 0 0 0 0 0 0 0 0 0 0 0 0 0 0 0 0.25 0"/>
            <feBlend mode="normal" in2="BackgroundImageFix" result="effect1_dropShadow"/>
            <feBlend mode="normal" in="SourceGraphic" in2="effect1_dropShadow" result="shape"/>
        </filter>
    </defs>
</svg>
