<svg width="172" height="172" viewBox="0 0 172 172" fill="none" xmlns="http://www.w3.org/2000/svg">
    <g filter="url(#filter0_d)">
        <path d="M63.7921 45H51.5815M105.173 45H115.801M38.2402 153H5L30.3258 45H51.5815M38.2402 153L51.5815 45M38.2402 153H70.1236M70.1236 153V115.353M70.1236 153H99.9719M99.9719 153V115.353M99.9719 153H132.986M132.986 153H166L138.639 45H115.801M132.986 153L115.801 45" stroke="black"/>
        <path d="M12 123H159M17.871 97.2364H56.0323M113.387 97.2364H152.452M23.7419 76.2H62.129M107.29 76.2H147.032M26.6774 58L63.7097 59.1818M105.258 59.1818H142.065" stroke="black"/>
        <path d="M29 52C30.0445 51.2861 32.5253 50.0987 33.0215 48.6173C33.4406 47.3663 34.4414 46.9621 35 46" stroke="black" stroke-linecap="round" stroke-linejoin="round"/>
        <path d="M29 57C30.435 55.4056 32.0215 53.9505 33.6444 52.5185C34.0434 52.1665 34.2233 51.6483 34.6222 51.2963C35.1033 50.8718 35.7397 50.4927 36.0889 49.9835C36.6534 49.1602 37.8089 48.6314 38.2889 47.7315C38.6819 46.9946 39.6374 46.6043 40 46" stroke="black" stroke-linecap="round" stroke-linejoin="round"/>
        <path d="M36 57C37.0067 55.6162 38.4682 54.8841 39.6543 53.6364C40.2123 53.0494 40.6521 51.7399 41.4568 51.3636C42.1302 51.0488 43.3643 49.8999 43.7284 49.3636C44.3403 48.4625 45.1218 47.7186 46 47" stroke="black" stroke-linecap="round" stroke-linejoin="round"/>
        <path d="M41 58C41.8024 56.9518 42.7074 55.8596 43.6047 54.9362C44.2645 54.257 45.2175 53.7097 45.6925 52.8298C46.332 51.6451 47.6334 49.4688 49 49" stroke="black" stroke-linecap="round" stroke-linejoin="round"/>
        <path d="M46 60C47.0704 58.8107 49.5199 56.6003 50 55" stroke="black" stroke-linecap="round" stroke-linejoin="round"/>
        <path d="M51 71C51.5485 70.0917 52.0161 69.592 52.6842 68.8005C53.1966 68.1933 54.1508 67.5468 54.5322 66.9184C54.9623 66.2096 55.498 65.3018 56.0994 64.7188C56.6203 64.2138 57.3367 63.419 57.6901 62.8367C57.992 62.3392 58.497 61.2438 59 61" stroke="black" stroke-linecap="round" stroke-linejoin="round"/>
        <path d="M51 76C51.3025 74.3079 52.6711 72.0484 53.8571 70.7581C54.628 69.9195 55.5346 69.169 56.102 68.1487C56.7508 66.9824 58.0427 66.282 58.7438 65.2016C59.2339 64.4463 60.1808 63.4208 61 63" stroke="black" stroke-linecap="round" stroke-linejoin="round"/>
        <path d="M56 76C56.4392 74.0659 58.013 72.5981 59.2184 71.1C60.0446 70.0732 60.8741 68.7256 62 68" stroke="black" stroke-linecap="round" stroke-linejoin="round"/>
        <path d="M21 88C22.3317 86.7693 24.1293 86.2016 25.2609 84.625C25.6299 84.1109 25.9272 83.4734 26.3527 83.05C26.7109 82.6935 26.689 82.0528 27.087 81.75C27.8744 81.1508 28.2322 79.4967 29 79" stroke="black" stroke-linecap="round" stroke-linejoin="round"/>
        <path d="M22 94C23.2257 89.9454 26.2509 88.0363 28.7914 84.8696C29.7348 83.6937 31.0983 82.9526 32.0351 81.7778C32.7161 80.9236 33.8893 79.3529 35 79" stroke="black" stroke-linecap="round" stroke-linejoin="round"/>
        <path d="M27 96C27.8916 94.704 29.0738 93.7834 30.1449 92.6386C30.9372 91.7918 31.3436 90.5711 31.971 89.6024C32.9372 88.1108 34.1399 86.7078 35.3188 85.3735C35.9495 84.6597 36.2645 83.6442 36.8406 82.8916C37.3624 82.2098 37.9563 81.5786 38.4638 80.9157C39.2448 79.8954 40.3243 79.0834 41 78" stroke="black" stroke-linecap="round" stroke-linejoin="round"/>
        <path d="M34 95C35.3246 93.1594 36.3764 90.9047 38.2105 89.4743C39.4238 88.5281 40.5826 87.296 41.462 86.0265C42.7115 84.2226 44.4437 82.5447 46 81" stroke="black" stroke-linecap="round" stroke-linejoin="round"/>
        <path d="M38 96C39.3073 93.531 41.8364 91.9712 43.2372 89.5417C43.966 88.2777 44.9624 86.9997 46 86" stroke="black" stroke-linecap="round" stroke-linejoin="round"/>
        <path d="M46 108C46.7832 107.089 47.361 106.057 47.7969 104.769C48.0936 103.893 48.6512 103.41 48.9688 102.59C49.4696 101.295 50.2926 100.045 51 99" stroke="black" stroke-linecap="round" stroke-linejoin="round"/>
        <path d="M44 115C45.303 111.726 48.4271 110.232 50.0444 107.271C50.9265 105.657 52.5045 104.014 54 103" stroke="black" stroke-linecap="round" stroke-linejoin="round"/>
        <path d="M46 120C47.7675 117.605 50.1377 115.761 51.9375 113.37C52.5225 112.593 53.4425 111.795 54.125 111.075C54.7338 110.433 55.2046 109.396 56 109" stroke="black" stroke-linecap="round" stroke-linejoin="round"/>
        <path d="M49 122C50.0117 121.024 51.1236 120.064 51.7751 118.744C52.1599 117.964 52.8318 117.2 53.3902 116.535C54.1643 115.612 54.8382 114.774 55.5366 113.757C55.9712 113.124 56.389 112.364 57 112" stroke="black" stroke-linecap="round" stroke-linejoin="round"/>
        <path d="M55 120C55.8469 118.888 56.9215 117.925 57.7931 116.833C58.1156 116.429 58.5363 115.836 58.931 115.5C59.5277 114.993 60.2745 114.39 61 114" stroke="black" stroke-linecap="round" stroke-linejoin="round"/>
        <path d="M59 123C60.1111 120.938 61.5892 119.344 63.0714 117.667C63.7 116.956 64.6069 115.889 65 115" stroke="black" stroke-linecap="round" stroke-linejoin="round"/>
        <path d="M65 122C65.6199 120.831 66.4332 119.952 67.2609 119C67.8224 118.354 68.2744 117.417 69 117" stroke="black" stroke-linecap="round" stroke-linejoin="round"/>
        <path d="M131 132C131.818 130.635 133.237 129.408 133.955 128.032C134.271 127.426 135.348 126.278 136 126" stroke="black" stroke-linecap="round" stroke-linejoin="round"/>
        <path d="M132 142C132.046 139.842 133.197 138.073 133.75 136.082C134.061 134.962 134.966 133.478 135.792 132.747C136.543 132.082 136.899 129.961 137.207 129.041C137.67 127.656 138.261 126.227 139 125" stroke="black" stroke-linecap="round" stroke-linejoin="round"/>
        <path d="M134 148C134.874 146.472 135.753 144.826 136.464 143.22C136.926 142.177 137.34 140.963 138.119 140.11C139.792 138.278 140.634 135.623 141.667 133.406C142.413 131.805 143.118 130.593 144.286 129.267C145.09 128.353 145.486 127.045 146 126" stroke="black" stroke-linecap="round" stroke-linejoin="round"/>
        <path d="M139 152C139.653 149.027 141.676 146.392 143.403 143.958C144.929 141.807 145.93 139.057 146.853 136.625C148.322 132.755 151.696 129.818 153 126" stroke="black" stroke-linecap="round" stroke-linejoin="round"/>
        <path d="M147 152C147.491 149.341 148.834 147.557 149.957 145.321C150.464 144.313 150.638 143.111 151.117 142.111C151.502 141.308 152.022 140.087 152.16 139.21C152.669 135.959 154.486 132.636 156 130" stroke="black" stroke-linecap="round" stroke-linejoin="round"/>
        <path d="M153 149C153.917 145.321 156.299 142.124 158 139" stroke="black" stroke-linecap="round" stroke-linejoin="round"/>
        <path d="M158 152C158.328 150.641 158.676 149.668 159.353 148.694C159.606 148.331 160.121 147.578 160.261 147.125C160.473 146.44 160.97 145.934 161.208 145.25C161.42 144.641 162 143.588 162 143" stroke="black" stroke-linecap="round" stroke-linejoin="round"/>
        <path d="M121 120C121.207 118.664 121.772 117.716 122.231 116.518C122.344 116.221 122.676 116.056 122.692 115.714C122.708 115.395 122.755 115.142 123 115" stroke="black" stroke-linecap="round" stroke-linejoin="round"/>
        <path d="M116 122C116.702 117.58 119.261 113.864 121 110" stroke="black" stroke-linecap="round" stroke-linejoin="round"/>
        <path d="M112 122C112.468 119.59 113.598 117.596 114.587 115.523C115.448 113.716 116.408 111.959 117.239 110.125C117.806 108.873 118.416 107.476 119.239 106.455C119.697 105.886 120.059 105.197 120.37 104.511C120.528 104.161 120.804 103.108 121 103" stroke="black" stroke-linecap="round" stroke-linejoin="round"/>
        <path d="M106 122C106.376 119.721 107.788 117.886 108.77 115.867C109.356 114.663 109.861 113.411 110.57 112.265C111.542 110.695 112.571 109.042 113.459 107.446C114.234 106.052 115.23 103.753 116.395 102.675C117.437 101.711 118.376 100.283 119 99" stroke="black" stroke-linecap="round" stroke-linejoin="round"/>
        <path d="M93 152C93.5217 148.76 95.2736 145.631 97 143.255C97.7302 142.25 98.1074 139.58 99 139" stroke="black" stroke-linecap="round" stroke-linejoin="round"/>
        <path d="M87 152C87.4561 150.259 88.1955 149.146 88.9206 147.604C89.2272 146.953 89.928 146.385 90.1429 145.724C90.6022 144.311 91.5021 143.024 92.1071 141.67C92.4645 140.871 92.9047 139.848 93.3948 139.143C94.1817 138.011 95.5282 136.695 95.9921 135.346C96.4356 134.055 97.4907 133.14 98 132" stroke="black" stroke-linecap="round" stroke-linejoin="round"/>
        <path d="M82 152C82.6801 148.619 85.6897 146.312 86.781 143.058C87.4282 141.127 88.7069 139.018 90.0294 137.526C91.5296 135.834 91.8952 133.316 93.1176 131.435C93.5568 130.759 94.209 129.368 94.8562 128.974C95.3219 128.69 96 127.587 96 127" stroke="black" stroke-linecap="round" stroke-linejoin="round"/>
        <path d="M76 152C76.2327 150.793 76.7238 149.916 77.3801 148.917C78.0649 147.874 78.46 146.772 79.0409 145.676C79.6407 144.544 80.1614 143.421 80.8889 142.387C82.5238 140.061 84.1056 137.54 85.4737 135.055C86.5204 133.154 88.061 131.334 89.3567 129.605C90.2016 128.478 90.813 126.821 92 126" stroke="black" stroke-linecap="round" stroke-linejoin="round"/>
        <path d="M72 148C72.0886 145.96 73.6547 143.177 74.8444 141.571C75.5685 140.595 76.256 139.542 76.8889 138.476C77.3393 137.718 77.5606 136.825 78.1 136.119C78.7037 135.328 79.2736 134.322 79.8 133.476C80.2945 132.681 81.0305 132.068 81.5 131.286C82.2218 130.083 82.7458 127.672 84 127" stroke="black" stroke-linecap="round" stroke-linejoin="round"/>
        <path d="M71 145C71 140.581 74.518 137.918 75.7447 134.032C76.6673 131.109 78.4943 128.576 80 126" stroke="black" stroke-linecap="round" stroke-linejoin="round"/>
        <path d="M71 133C71.7077 131.423 73.2563 130.326 74.3575 128.985C75.0207 128.178 75.5233 126.903 76 126" stroke="black" stroke-linecap="round" stroke-linejoin="round"/>
        <path d="M33 149C34.9032 147.888 36.3457 146.276 38 145" stroke="black" stroke-linecap="round" stroke-linejoin="round"/>
        <path d="M24 152C25.2024 149.583 26.7696 147.497 28.4754 145.428C29.2449 144.495 30.0823 143.618 30.8852 142.714C31.632 141.873 31.9146 140.745 32.6066 139.911C34.4417 137.701 36.721 135.521 38 133" stroke="black" stroke-linecap="round" stroke-linejoin="round"/>
        <path d="M19 152C19.9862 149.494 22.2013 147.309 23.898 145.346C25.246 143.786 26.4388 142.024 27.5714 140.272C28.112 139.435 28.9869 138.791 29.6122 138.012C30.2522 137.216 30.7145 136.399 31.2902 135.556C32.5841 133.659 34.0333 131.726 35.5306 130C36.5777 128.793 37.6398 126.741 39 126" stroke="black" stroke-linecap="round" stroke-linejoin="round"/>
        <path d="M12 152C14.3115 148.561 17.6396 145.939 20.0765 142.561C20.9886 141.296 21.7652 139.956 22.8491 138.829C23.8589 137.779 24.7781 136.784 25.6216 135.585C27.2772 133.232 29.156 130.865 31.1426 128.78C32.2596 127.609 33.5831 125.717 35 125" stroke="black" stroke-linecap="round" stroke-linejoin="round"/>
        <path d="M7 148C8.6641 146.303 10.0153 144.284 11.5818 142.49C12.4384 141.509 13.4475 140.734 14.2613 139.683C15.5768 137.985 17.1632 136.591 18.4835 134.901C19.9523 133.02 21.5936 131.235 23.4017 129.691C24.3272 128.901 24.9203 127.538 26 127" stroke="black" stroke-linecap="round" stroke-linejoin="round"/>
        <path d="M9 139C10.8615 136.237 13.0323 133.634 15.3148 131.288C16.3264 130.249 17.528 129.179 18.2685 127.885C18.664 127.194 19.3797 126.447 20 126" stroke="black" stroke-linecap="round" stroke-linejoin="round"/>
        <path d="M10 132C11.8505 129.883 14.3332 128.167 16 126" stroke="black" stroke-linecap="round" stroke-linejoin="round"/>
        <path d="M108 70C109.283 67.3207 110.913 64.703 112 62" stroke="black" stroke-linecap="round" stroke-linejoin="round"/>
        <path d="M109 73C109.863 68.8896 113.298 66.4735 115 63" stroke="black" stroke-linecap="round" stroke-linejoin="round"/>
        <path d="M111 76C111.388 74.216 112.655 72.3285 114.125 71.1909C115.059 70.4684 115.49 69.0048 116 68" stroke="black" stroke-linecap="round" stroke-linejoin="round"/>
        <path d="M116 76C116.256 75.223 116.636 74.0327 117.3 73.4737C117.585 73.2339 118 72.3669 118 72" stroke="black" stroke-linecap="round" stroke-linejoin="round"/>
        <path d="M118 54C118.723 51.3604 120.044 49.3701 121 47" stroke="black" stroke-linecap="round" stroke-linejoin="round"/>
        <path d="M119 58C119.047 55.5198 120.567 53.0685 122.077 51.2653C122.897 50.2864 123.459 49.1473 124 48" stroke="black" stroke-linecap="round" stroke-linejoin="round"/>
        <path d="M122 60C122.641 57.5004 123.779 55.0981 125.076 52.9298C125.453 52.2991 125.741 51.6055 126.136 50.9912C126.506 50.4174 127.06 50.0934 127.409 49.5088C127.911 48.669 128.598 47.8638 129 47" stroke="black" stroke-linecap="round" stroke-linejoin="round"/>
        <path d="M127 60C127.299 58.4783 128.144 57.3765 128.919 56.0727C129.381 55.2944 130.419 54.5792 130.733 53.7697C131.125 52.7619 131.74 51.7661 132.25 50.8121C132.635 50.0923 133.229 48.3602 134 48" stroke="black" stroke-linecap="round" stroke-linejoin="round"/>
        <path d="M131 60C131.663 57.9173 133.106 56.2464 133.788 54.2391C134.083 53.3745 134.264 52.4341 134.846 51.7391C135.28 51.2216 135.726 50.6194 136 50" stroke="black" stroke-linecap="round" stroke-linejoin="round"/>
        <path d="M135 57C135.234 56.056 135.457 55.5287 136.256 54.899C136.934 54.3651 137.112 53.3497 138 53" stroke="black" stroke-linecap="round" stroke-linejoin="round"/>
        <path d="M122 85C122.77 84.025 124.399 82.5665 124.611 81.3333C124.696 80.8397 125.649 79.1698 126 79" stroke="black" stroke-linecap="round" stroke-linejoin="round"/>
        <path d="M124 92C124.472 89.8607 126.356 88.6646 126.917 86.5484C127.046 86.0596 127.456 85.7357 127.651 85.2903C127.92 84.6781 128.095 83.8972 128.321 83.2401C128.742 82.0133 129.879 79.6042 131 79" stroke="black" stroke-linecap="round" stroke-linejoin="round"/>
        <path d="M126 96C126.816 92.2069 129.65 89.5918 130.929 86.0919C131.354 84.9264 131.967 83.6317 132.75 82.6785C133.502 81.764 134.473 81.0502 135 80" stroke="black" stroke-linecap="round" stroke-linejoin="round"/>
        <path d="M131 96C131.745 94.6776 132.851 93.4726 133.356 92.0329C133.695 91.0637 134.074 90.1422 134.7 89.3333C136.586 86.8979 137.226 83.4983 139 81" stroke="black" stroke-linecap="round" stroke-linejoin="round"/>
        <path d="M136 95C136.728 92.6704 137.854 90.1174 139.556 88.28C140.674 87.0722 141.751 85.9379 142.444 84.44C143.364 82.4528 144.767 80.7756 146 79" stroke="black" stroke-linecap="round" stroke-linejoin="round"/>
        <path d="M139 96C139.344 94.3844 140.341 93.3299 141.09 91.93C141.64 90.903 142.66 90.3472 143.266 89.4C144.2 87.9389 145.066 86.4095 146 85" stroke="black" stroke-linecap="round" stroke-linejoin="round"/>
        <path d="M145 96C145.465 94.8794 146.209 93.8924 146.756 92.8C146.998 92.3145 147.528 91.236 148 91" stroke="black" stroke-linecap="round" stroke-linejoin="round"/>
        <path d="M145 154C144.776 155.37 144.656 157.514 143.714 158.773C143.33 159.287 143 160.413 143 161" stroke="black" stroke-linecap="round" stroke-linejoin="round"/>
        <path d="M133 155C132.961 156.752 132.275 158.156 131.873 159.796C131.732 160.373 131.56 161.746 131 162" stroke="black" stroke-linecap="round" stroke-linejoin="round"/>
        <path d="M127 155C127 157.16 126.638 159.002 126 161" stroke="black" stroke-linecap="round" stroke-linejoin="round"/>
        <path d="M120 155C120 156.444 120 157.88 120 159.25C120 159.901 120 160.396 120 161" stroke="black" stroke-linecap="round" stroke-linejoin="round"/>
        <path d="M113 155C113 156.412 112.702 157.491 112.491 158.808C112.373 159.54 112 160.234 112 161" stroke="black" stroke-linecap="round" stroke-linejoin="round"/>
        <path d="M109 155C109 157.064 108.886 159.229 108 161" stroke="black" stroke-linecap="round" stroke-linejoin="round"/>
        <path d="M61 155C61 157 61 159 61 161" stroke="black" stroke-linecap="round" stroke-linejoin="round"/>
        <path d="M54 155C54 156.997 55 159.133 55 161" stroke="black" stroke-linecap="round" stroke-linejoin="round"/>
        <path d="M51 155C51 157.385 51 159.643 51 162" stroke="black" stroke-linecap="round" stroke-linejoin="round"/>
        <path d="M45 155C45 157.001 46 159.069 46 161" stroke="black" stroke-linecap="round" stroke-linejoin="round"/>
        <path d="M20 155C20 156.874 20 159.32 20 161" stroke="black" stroke-linecap="round" stroke-linejoin="round"/>
        <path d="M16 155C16 156.065 16.2185 160.459 17 161" stroke="black" stroke-linecap="round" stroke-linejoin="round"/>
        <path d="M11 155C11.2159 156.457 11.5907 157.455 12.1111 158.72C12.3468 159.293 12.526 160.744 13 161" stroke="black" stroke-linecap="round" stroke-linejoin="round"/>
        <path d="M5 153.182L10.415 161.831L160.231 163L167 154.351M65.1295 32.6169L63.663 32.4416L60.7298 32.0909L58.0223 29.7532L56.6685 26.013L55.5404 2.63636H68.8524H71.1086V9.41558H78.5543V1H89.8357L92.0919 2.63636V9.41558H98.4095V2.63636H109.691L113.526 3.80519L112.398 26.013L111.27 30.9221L105.855 33.4935L99.9889 34.6623L72.4624 33.4935L66.5961 32.7922L65.1295 32.6169ZM65.1295 32.6169V44.7143V58.039" stroke="black"/>
        <path d="M65.2738 57.7143L64.1429 66.2514L62.7857 75.2629L61.4286 84.5114L62.7857 91.3886M62.7857 91.3886L64.1429 95.8943L68.2143 99.4514L75 102.534H86.7619L96.2619 100.874L103.048 97.5543L105.762 93.5229L106.327 89.8471M62.7857 91.3886H60.2976H58.0357L57.131 94.4714L56 97.5543V102.534L58.0357 107.989L62.7857 112.731L71.6071 115.34L80.4286 117H84.0476H95.131L101.917 115.34L106.327 112.731L110.964 107.989L113 102.534V97.5543L110.964 93.5229L108.929 91.3886L106.327 89.8471M101.917 34L103.048 44.4343L104.631 55.1057L105.762 66.2514L106.893 73.84V81.6657V86.1714L106.327 89.8471" stroke="black"/>
        <path d="M84 7C84.8646 5.85867 85.9059 5.08056 86.8363 4.04678C87.5882 3.21131 87.9812 2.50938 89 2" stroke="black" stroke-linecap="round" stroke-linejoin="round"/>
        <path d="M85 9C85.9389 8.01841 87.812 6.9361 88.4783 5.71717C88.778 5.16884 89.4554 4.2847 90 4" stroke="black" stroke-linecap="round" stroke-linejoin="round"/>
        <path d="M88 12C88.3742 11.0095 89.1334 9.48749 90 9" stroke="black" stroke-linecap="round" stroke-linejoin="round"/>
        <path d="M109 4C108.209 4.88015 107.503 5.73828 106.737 6.61574C106.262 7.16033 105.206 8.29109 105 9" stroke="black" stroke-linecap="round" stroke-linejoin="round"/>
        <path d="M111 7C110.278 7.84016 109.502 8.83596 108.569 9.33333C108.167 9.54821 107.19 10.0585 106.96 10.5C106.415 11.5467 104.916 13.4504 104 14" stroke="black" stroke-linecap="round" stroke-linejoin="round"/>
        <path d="M111 11C109.222 11.8692 107.657 12.8939 106.462 14.3971C105.91 15.0917 105.315 15.5302 104.684 16.1471C104.175 16.6454 103.583 17.7149 103 18" stroke="black" stroke-linecap="round" stroke-linejoin="round"/>
        <path d="M111 16C109.448 16.9075 107.925 17.835 106.42 18.8192C105.64 19.3292 105.292 20.2305 104.571 20.823C103.925 21.3546 103.234 22.0919 102.633 22.7103C102.45 22.8984 101 24.2192 101 23.9685" stroke="black" stroke-linecap="round" stroke-linejoin="round"/>
        <path d="M108 21C106.018 22.1305 104.089 23.3624 102.174 24.5625C101.058 25.2614 100.115 26.2877 99 27" stroke="black" stroke-linecap="round" stroke-linejoin="round"/>
        <path d="M108 26C106.767 26.579 105.349 27.5789 104.471 28.6988C104.01 29.2852 103.314 29.5174 102.882 30.1537C102.723 30.3886 102 31.0434 102 30.9977" stroke="black" stroke-linecap="round" stroke-linejoin="round"/>
        <path d="M109 29C107.678 29.7775 106.962 30.8683 106 32" stroke="black" stroke-linecap="round" stroke-linejoin="round"/>
        <path d="M93 38C92.5341 38.9567 91.9802 39.7407 91.4596 40.5667C91.1053 41.1288 90.3608 41.5297 90.0455 42.0963C89.6196 42.8614 88.8134 44.7217 88 45" stroke="black" stroke-linecap="round" stroke-linejoin="round"/>
        <path d="M98 38C96.1302 40.4186 94.0262 42.6383 92.2583 45.0975C91.6304 45.9708 90.7869 47.2573 90 48" stroke="black" stroke-linecap="round" stroke-linejoin="round"/>
        <path d="M101 42C100.33 43.6926 99.3563 44.967 98.1256 46.2716C97.033 47.4298 96.2195 48.8231 95.1304 50C93.6063 51.6471 91.9936 53.9687 91 56" stroke="black" stroke-linecap="round" stroke-linejoin="round"/>
        <path d="M101 50C100.261 51.0164 98.9069 52.2039 98.5 53.3563C98.0923 54.5111 96.8839 55.7266 96.0455 56.5747C94.9695 57.6631 93.9508 58.5444 93.2273 59.931C92.833 60.6866 92.4567 61.3071 92 62" stroke="black" stroke-linecap="round" stroke-linejoin="round"/>
        <path d="M93 66C93.392 64.189 94.4876 62.8366 95.4 61.3311C95.9862 60.3639 97.0941 59.8361 97.6 58.8622C98.2227 57.6635 99.7601 55.4546 101 55" stroke="black" stroke-linecap="round" stroke-linejoin="round"/>
        <path d="M93 73C93.6371 71.2995 95.0089 69.9922 96.1919 68.6786C96.9208 67.8693 97.1977 67.0773 97.7273 66.1687C98.642 64.599 99.7916 63.3055 101 62" stroke="black" stroke-linecap="round" stroke-linejoin="round"/>
        <path d="M93 79C94.4631 76.7857 96.2683 74.9816 97.5848 72.7414C98.0539 71.9431 98.9111 71.3807 99.3158 70.5603C99.7572 69.6657 100.676 68.8746 101 68" stroke="black" stroke-linecap="round" stroke-linejoin="round"/>
        <path d="M93 85C93.8386 83.7062 95.0953 82.7152 95.8889 81.4399C96.3288 80.7328 96.9222 79.9694 97.5556 79.3878C98.2325 78.766 98.9289 78.0154 99.3951 77.2449C99.8273 76.5305 100.734 75.7325 101 75" stroke="black" stroke-linecap="round" stroke-linejoin="round"/>
        <path d="M95 88C95.3397 87.1625 96.0189 85.3382 96.803 84.7347C97.3474 84.3157 97.4721 83.1191 97.9697 82.5805C99.2889 81.1526 100.328 79.0727 102 78" stroke="black" stroke-linecap="round" stroke-linejoin="round"/>
        <path d="M98 92C99.0898 90.6923 100.463 89.9034 101.333 88.3951C101.788 87.6062 102.27 86.438 103 86" stroke="black" stroke-linecap="round" stroke-linejoin="round"/>
        <path d="M98 98C98.6417 95.4331 99.8165 93.9161 101 92" stroke="black" stroke-linecap="round" stroke-linejoin="round"/>
        <path d="M107 99C106.654 100.52 106 102.382 106 104" stroke="black" stroke-linecap="round" stroke-linejoin="round"/>
        <path d="M103 101C102.734 101.928 102.436 102.841 102.327 103.841C102.273 104.341 102.199 105.797 102 106" stroke="black" stroke-linecap="round" stroke-linejoin="round"/>
        <path d="M100 103C99.3562 104.76 98.5655 106.233 98 108" stroke="black" stroke-linecap="round" stroke-linejoin="round"/>
        <path d="M95 103C94.8008 103.971 94.419 104.821 93.9091 105.669C93.5027 106.345 93 108.618 93 107.84" stroke="black" stroke-linecap="round" stroke-linejoin="round"/>
        <path d="M91 104C90.7063 105.574 90 107.244 90 109" stroke="black" stroke-linecap="round" stroke-linejoin="round"/>
        <path d="M85 104C84.6485 106.097 83.781 107.225 83 109" stroke="black" stroke-linecap="round" stroke-linejoin="round"/>
        <path d="M82 104C81.4301 105.192 80 107.581 80 109" stroke="black" stroke-linecap="round" stroke-linejoin="round"/>
        <path d="M77 107C76.8388 107.406 76.2647 109.801 76 110" stroke="black" stroke-linecap="round" stroke-linejoin="round"/>
        <path d="M75 104C74.5104 105.389 74 106.536 74 108" stroke="black" stroke-linecap="round" stroke-linejoin="round"/>
        <path d="M72 103C71.5441 104.246 71 105.576 71 107" stroke="black" stroke-linecap="round" stroke-linejoin="round"/>
        <path d="M70 103C69.8108 103.529 69.3394 105.722 69 106" stroke="black" stroke-linecap="round" stroke-linejoin="round"/>
        <path d="M68 101C67.4415 101.872 66 103.034 66 104" stroke="black" stroke-linecap="round" stroke-linejoin="round"/>
    </g>
    <defs>
        <filter id="filter0_d" x="0.369141" y="0.5" width="171.025" height="171.002" filterUnits="userSpaceOnUse" color-interpolation-filters="sRGB">
            <feFlood flood-opacity="0" result="BackgroundImageFix"/>
            <feColorMatrix in="SourceAlpha" type="matrix" values="0 0 0 0 0 0 0 0 0 0 0 0 0 0 0 0 0 0 127 0"/>
            <feOffset dy="4"/>
            <feGaussianBlur stdDeviation="2"/>
            <feColorMatrix type="matrix" values="0 0 0 0 0 0 0 0 0 0 0 0 0 0 0 0 0 0 0.25 0"/>
            <feBlend mode="normal" in2="BackgroundImageFix" result="effect1_dropShadow"/>
            <feBlend mode="normal" in="SourceGraphic" in2="effect1_dropShadow" result="shape"/>
        </filter>
    </defs>
</svg>
