<svg width="201" height="149" viewBox="0 0 201 149" fill="none" xmlns="http://www.w3.org/2000/svg">
    <rect x="0.501953" y="18.8951" width="178.907" height="129.605" rx="2.5" fill="#F3F3F3" stroke="#D4D0D0"/>
    <line y1="54.2793" x2="179.907" y2="54.2793" stroke="#D4D0D0"/>
    <g filter="url(#filter0_d)">
        <ellipse cx="181.257" cy="16.0957" rx="15.7419" ry="16.0957" fill="#565151"/>
    </g>
    <rect x="179.908" y="6.43827" width="3.59814" height="18.3951" rx="1.79907" fill="#0CE8D4"/>
    <rect x="172.713" y="17.4753" width="3.67901" height="17.9907" rx="1.83951" transform="rotate(-90 172.713 17.4753)" fill="#0CE8D4"/>
    <path d="M23.9686 72.7652C23.9686 72.6252 24.02 72.4805 24.1226 72.3312C24.2346 72.1819 24.3606 72.1072 24.5006 72.1072C24.5473 72.1072 24.58 72.1165 24.5986 72.1352C24.9253 72.4805 25.4153 72.7979 26.0686 73.0872C26.7313 73.3672 27.352 73.5072 27.9306 73.5072C29.6013 73.5072 30.4366 72.9519 30.4366 71.8412C30.4366 71.4679 30.32 71.1645 30.0866 70.9312C29.8626 70.6885 29.564 70.5065 29.1906 70.3852C28.8266 70.2639 28.4206 70.1612 27.9726 70.0772C27.534 69.9932 27.0906 69.8952 26.6426 69.7832C26.1946 69.6619 25.784 69.5125 25.4106 69.3352C25.0466 69.1579 24.748 68.8872 24.5146 68.5232C24.2906 68.1592 24.1786 67.7159 24.1786 67.1932C24.1786 66.4092 24.524 65.8072 25.2146 65.3872C25.9053 64.9579 26.7313 64.7432 27.6926 64.7432C28.4393 64.7432 29.1393 64.8692 29.7926 65.1212C30.4553 65.3639 30.9406 65.7092 31.2486 66.1572C31.258 66.1759 31.2626 66.1992 31.2626 66.2272C31.2626 66.3392 31.1833 66.4559 31.0246 66.5772C30.8753 66.6892 30.74 66.7452 30.6186 66.7452C30.6 66.7452 30.544 66.7219 30.4506 66.6752C29.7133 66.0685 28.7986 65.7652 27.7066 65.7652C27.044 65.7652 26.4606 65.8912 25.9566 66.1432C25.4526 66.3859 25.2006 66.7592 25.2006 67.2632C25.2006 67.6085 25.3126 67.8932 25.5366 68.1172C25.77 68.3412 26.0686 68.5092 26.4326 68.6212C26.806 68.7239 27.2166 68.8172 27.6646 68.9012C28.1126 68.9759 28.5606 69.0739 29.0086 69.1952C29.4566 69.3165 29.8626 69.4752 30.2266 69.6712C30.6 69.8579 30.8986 70.1425 31.1226 70.5252C31.356 70.9079 31.4726 71.3745 31.4726 71.9252C31.4726 73.6612 30.3246 74.5292 28.0286 74.5292C27.282 74.5292 26.5493 74.3985 25.8306 74.1372C25.112 73.8665 24.524 73.4979 24.0666 73.0312C24.0013 72.9659 23.9686 72.8772 23.9686 72.7652ZM32.6486 71.0712C32.6486 70.2685 32.8633 69.5779 33.2926 68.9992C33.722 68.4112 34.24 67.9865 34.8466 67.7252C35.4533 67.4639 36.088 67.3332 36.7506 67.3332C37.5906 67.3332 38.37 67.6225 39.0886 68.2012C39.1633 68.2665 39.2006 68.3505 39.2006 68.4532C39.2006 68.6025 39.14 68.7425 39.0186 68.8732C38.8973 68.9945 38.7713 69.0552 38.6406 69.0552C38.5473 69.0552 38.468 69.0225 38.4026 68.9572C37.9546 68.5652 37.3946 68.3692 36.7226 68.3692C35.7706 68.3692 35.024 68.6585 34.4826 69.2372C33.9506 69.8159 33.6846 70.4319 33.6846 71.0852C33.6846 71.7479 33.9926 72.3545 34.6086 72.9052C35.2246 73.4465 35.934 73.7172 36.7366 73.7172C37.558 73.7172 38.2253 73.4232 38.7386 72.8352C38.8413 72.7325 38.93 72.6812 39.0046 72.6812C39.1446 72.6812 39.28 72.7512 39.4106 72.8912C39.5413 73.0312 39.6066 73.1665 39.6066 73.2972C39.6066 73.3812 39.574 73.4559 39.5086 73.5212C38.79 74.3425 37.8893 74.7532 36.8066 74.7532C35.6586 74.7532 34.6786 74.3939 33.8666 73.6752C33.0546 72.9472 32.6486 72.0792 32.6486 71.0712ZM40.6243 71.6872C40.6243 71.6032 40.6243 71.1879 40.6243 70.4412C40.6336 69.6852 40.6383 68.8499 40.6383 67.9352C40.6383 67.8139 40.6896 67.7205 40.7923 67.6552C40.8949 67.5805 41.0163 67.5432 41.1563 67.5432C41.5016 67.5432 41.6743 67.6739 41.6743 67.9352V71.5612C41.6743 72.2239 41.9076 72.7419 42.3743 73.1152C42.8503 73.4792 43.3403 73.6612 43.8443 73.6612C44.4789 73.6612 45.1556 73.4325 45.8743 72.9752C46.6023 72.5085 47.1063 71.9299 47.3863 71.2392V67.9212C47.3863 67.6692 47.5636 67.5432 47.9183 67.5432C48.0583 67.5432 48.1749 67.5759 48.2683 67.6412C48.3709 67.7065 48.4223 67.7999 48.4223 67.9212V74.1652C48.4223 74.2865 48.3709 74.3799 48.2683 74.4452C48.1749 74.5105 48.0583 74.5432 47.9183 74.5432C47.5636 74.5432 47.3863 74.4172 47.3863 74.1652V73.0172C46.9196 73.5305 46.3596 73.9365 45.7063 74.2352C45.0623 74.5339 44.3996 74.6832 43.7183 74.6832C42.8409 74.6832 42.1036 74.4032 41.5063 73.8432C40.9183 73.2832 40.6243 72.5645 40.6243 71.6872ZM50.1012 74.1512V64.4212C50.1012 64.1692 50.2785 64.0432 50.6332 64.0432C50.7732 64.0432 50.8898 64.0759 50.9832 64.1412C51.0858 64.2065 51.1372 64.2999 51.1372 64.4212V74.1512C51.1372 74.2725 51.0858 74.3705 50.9832 74.4452C50.8805 74.5105 50.7592 74.5432 50.6192 74.5432C50.2738 74.5432 50.1012 74.4125 50.1012 74.1512ZM52.8219 77.6652V67.9352C52.8219 67.8139 52.8732 67.7205 52.9759 67.6552C53.0785 67.5805 53.1999 67.5432 53.3399 67.5432C53.6852 67.5432 53.8579 67.6739 53.8579 67.9352V69.4612C54.7445 68.1079 56.0559 67.4312 57.7919 67.4312C58.5852 67.4312 59.2572 67.6972 59.8079 68.2292C60.3679 68.7519 60.6479 69.3679 60.6479 70.0772C60.6479 70.9079 60.4192 71.6732 59.9619 72.3732C59.5045 73.0639 58.9072 73.6005 58.1699 73.9832C57.4419 74.3659 56.6765 74.5572 55.8739 74.5572C55.0992 74.5572 54.4272 74.3005 53.8579 73.7872V77.6652C53.8579 77.9172 53.6805 78.0432 53.3259 78.0432C53.1859 78.0432 53.0645 78.0105 52.9619 77.9452C52.8685 77.8799 52.8219 77.7865 52.8219 77.6652ZM53.8439 71.7852C53.8439 72.3545 54.0679 72.7839 54.5159 73.0732C54.9732 73.3625 55.4259 73.5072 55.8739 73.5072C56.4152 73.5072 56.9659 73.3765 57.5259 73.1152C58.0859 72.8539 58.5619 72.4665 58.9539 71.9532C59.3552 71.4305 59.5559 70.8612 59.5559 70.2452C59.5559 69.6105 59.3552 69.1532 58.9539 68.8732C58.5619 68.5932 58.0859 68.4532 57.5259 68.4532C57.0032 68.4532 56.4479 68.6305 55.8599 68.9852C55.2812 69.3305 54.8005 69.7692 54.4179 70.3012C54.0352 70.8239 53.8439 71.3185 53.8439 71.7852ZM61.561 68.0612C61.561 67.9212 61.5937 67.7999 61.659 67.6972C61.7337 67.5945 61.8317 67.5432 61.953 67.5432H62.429V65.8212C62.429 65.6999 62.4757 65.6065 62.569 65.5412C62.6717 65.4759 62.793 65.4432 62.933 65.4432C63.2877 65.4432 63.465 65.5692 63.465 65.8212V67.5432H65.705C65.8264 67.5432 65.9197 67.5945 65.985 67.6972C66.0504 67.7905 66.083 67.9072 66.083 68.0472C66.083 68.4019 65.957 68.5792 65.705 68.5792H63.465V71.9252C63.465 72.9705 63.8617 73.4932 64.655 73.4932C64.991 73.4932 65.2804 73.3999 65.523 73.2132C65.775 73.0265 65.901 72.6999 65.901 72.2332C65.901 72.1025 65.9524 71.9952 66.055 71.9112C66.167 71.8272 66.2977 71.7852 66.447 71.7852C66.587 71.7852 66.7037 71.8272 66.797 71.9112C66.8904 71.9859 66.937 72.0979 66.937 72.2472C66.9277 72.9845 66.7037 73.5492 66.265 73.9412C65.8357 74.3332 65.299 74.5292 64.655 74.5292C63.171 74.5292 62.429 73.5352 62.429 71.5472V68.5792H61.953C61.6917 68.5792 61.561 68.4065 61.561 68.0612ZM68.0113 74.1512V67.9212C68.0113 67.6692 68.1887 67.5432 68.5433 67.5432C68.6833 67.5432 68.8 67.5759 68.8933 67.6412C68.996 67.7065 69.0473 67.7999 69.0473 67.9212V74.1512C69.0473 74.2725 68.996 74.3705 68.8933 74.4452C68.7907 74.5105 68.6693 74.5432 68.5293 74.5432C68.184 74.5432 68.0113 74.4125 68.0113 74.1512ZM68.0113 65.7512V65.4992C68.0113 65.2472 68.1887 65.1212 68.5433 65.1212C68.6833 65.1212 68.8 65.1539 68.8933 65.2192C68.996 65.2845 69.0473 65.3779 69.0473 65.4992V65.7512C69.0473 65.8725 68.996 65.9705 68.8933 66.0452C68.7907 66.1105 68.6693 66.1432 68.5293 66.1432C68.184 66.1432 68.0113 66.0125 68.0113 65.7512ZM70.732 74.1792V67.9212C70.732 67.7999 70.7787 67.7065 70.872 67.6412C70.9747 67.5759 71.096 67.5432 71.236 67.5432C71.5907 67.5432 71.768 67.6692 71.768 67.9212V69.0272C72.2347 68.5232 72.7994 68.1265 73.462 67.8372C74.1247 67.5385 74.7967 67.3892 75.478 67.3892C76.3554 67.3892 77.088 67.6645 77.676 68.2152C78.2734 68.7565 78.572 69.4659 78.572 70.3432C78.572 70.4272 78.5674 70.8565 78.558 71.6312C78.558 72.3965 78.558 73.2365 78.558 74.1512C78.558 74.2725 78.5067 74.3705 78.404 74.4452C78.3014 74.5105 78.18 74.5432 78.04 74.5432C77.6947 74.5432 77.522 74.4125 77.522 74.1512V70.4692C77.522 69.8065 77.284 69.2979 76.808 68.9432C76.3414 68.5885 75.856 68.4112 75.352 68.4112C74.6707 68.4112 73.9707 68.6399 73.252 69.0972C72.5427 69.5452 72.048 70.1145 71.768 70.8052V74.1792C71.768 74.4312 71.5907 74.5572 71.236 74.5572C71.096 74.5572 70.9747 74.5245 70.872 74.4592C70.7787 74.3939 70.732 74.3005 70.732 74.1792ZM79.8439 71.9952C79.8439 70.7445 80.3339 69.6665 81.3139 68.7612C82.2939 67.8559 83.4046 67.4032 84.6459 67.4032C85.4206 67.4032 86.0973 67.6785 86.6759 68.2292V67.9072C86.6759 67.6552 86.8533 67.5292 87.2079 67.5292C87.3479 67.5292 87.4646 67.5619 87.5579 67.6272C87.6606 67.6925 87.7119 67.7859 87.7119 67.9072V74.6132C87.7119 75.7052 87.3573 76.5592 86.6479 77.1752C85.9386 77.8005 85.1126 78.1132 84.1699 78.1132C83.4233 78.1132 82.7979 77.9825 82.2939 77.7212C81.7899 77.4599 81.5333 77.0259 81.5239 76.4192C81.5239 76.2699 81.5706 76.1532 81.6639 76.0692C81.7573 75.9945 81.8739 75.9572 82.0139 75.9572C82.1633 75.9572 82.2893 75.9992 82.3919 76.0832C82.5039 76.1672 82.5599 76.2745 82.5599 76.4052C82.5599 76.5639 82.6019 76.6899 82.6859 76.7832C82.7793 76.8859 82.9239 76.9559 83.1199 76.9932C83.3159 77.0305 83.4839 77.0539 83.6239 77.0632C83.7733 77.0725 83.9786 77.0772 84.2399 77.0772C84.9026 77.0772 85.4719 76.8765 85.9479 76.4752C86.4333 76.0739 86.6759 75.4859 86.6759 74.7112V71.8692C85.9199 72.8492 85.1966 73.5585 84.5059 73.9972C83.8246 74.4359 83.1199 74.6552 82.3919 74.6552C81.7199 74.6552 81.1273 74.3845 80.6139 73.8432C80.1006 73.2925 79.8439 72.6765 79.8439 71.9952ZM80.8519 72.0232C80.8519 72.5552 81.0386 72.9612 81.4119 73.2412C81.7853 73.5119 82.1819 73.6472 82.6019 73.6472C83.0873 73.6472 83.6426 73.4092 84.2679 72.9332C84.8933 72.4479 85.4113 71.9112 85.8219 71.3232C86.2419 70.7259 86.4519 70.2592 86.4519 69.9232C86.4519 69.6432 86.3679 69.3959 86.1999 69.1812C86.0413 68.9572 85.8406 68.7939 85.5979 68.6912C85.3646 68.5885 85.1499 68.5139 84.9539 68.4672C84.7579 68.4112 84.5946 68.3832 84.4639 68.3832C83.5493 68.3832 82.7186 68.7519 81.9719 69.4892C81.2253 70.2172 80.8519 71.0619 80.8519 72.0232ZM89.3661 73.5912C89.3661 73.3485 89.4548 73.1525 89.6321 73.0032C89.8188 72.8539 90.0568 72.7792 90.3461 72.7792C90.9528 72.7792 91.2561 73.1339 91.2561 73.8432C91.2561 74.2445 91.0788 74.6972 90.7241 75.2012C90.3695 75.7052 90.1035 75.9572 89.9261 75.9572C89.7581 75.9572 89.6741 75.9012 89.6741 75.7892C89.6741 75.7425 89.7115 75.5839 89.7861 75.3132C89.8701 75.0519 89.9121 74.8605 89.9121 74.7392C89.9121 74.6179 89.8795 74.5385 89.8141 74.5012C89.5155 74.2959 89.3661 73.9925 89.3661 73.5912ZM96.4941 74.1512V65.1212C96.4941 64.8692 96.6714 64.7432 97.0261 64.7432C97.1661 64.7432 97.2828 64.7759 97.3761 64.8412C97.4788 64.9065 97.5301 64.9999 97.5301 65.1212V65.2332C98.1928 64.8039 98.8414 64.5892 99.4761 64.5892C100.876 64.5892 102.089 65.0652 103.116 66.0172C104.152 66.9599 104.67 68.1452 104.67 69.5732C104.67 70.4692 104.469 71.2999 104.068 72.0652C103.667 72.8212 103.06 73.4465 102.248 73.9412C101.436 74.4265 100.493 74.6692 99.4201 74.6692C98.7014 74.6692 98.0714 74.4965 97.5301 74.1512C97.5301 74.2725 97.4788 74.3705 97.3761 74.4452C97.2734 74.5105 97.1521 74.5432 97.0121 74.5432C96.6668 74.5432 96.4941 74.4125 96.4941 74.1512ZM97.5301 72.8072C98.0434 73.3579 98.6968 73.6332 99.4901 73.6332C100.75 73.6332 101.753 73.2225 102.5 72.4012C103.247 71.5799 103.62 70.6325 103.62 69.5592C103.62 68.5139 103.237 67.5992 102.472 66.8152C101.716 66.0219 100.727 65.6252 99.5041 65.6252C98.8414 65.6252 98.1834 65.8539 97.5301 66.3112V72.8072ZM105.834 71.9952C105.834 70.7445 106.324 69.6665 107.304 68.7612C108.284 67.8559 109.395 67.4032 110.636 67.4032C111.486 67.4032 112.209 67.7252 112.806 68.3692C113.404 69.0132 113.702 69.7459 113.702 70.5672L113.688 74.2352C113.688 74.3565 113.628 74.4545 113.506 74.5292C113.394 74.5945 113.268 74.6272 113.128 74.6272C112.82 74.6272 112.666 74.4965 112.666 74.2352V71.8692C111.91 72.8492 111.187 73.5585 110.496 73.9972C109.815 74.4359 109.11 74.6552 108.382 74.6552C107.71 74.6552 107.118 74.3845 106.604 73.8432C106.091 73.2925 105.834 72.6765 105.834 71.9952ZM106.842 72.0232C106.842 72.5552 107.029 72.9612 107.402 73.2412C107.776 73.5119 108.172 73.6472 108.592 73.6472C109.078 73.6472 109.633 73.4092 110.258 72.9332C110.884 72.4479 111.402 71.9112 111.812 71.3232C112.232 70.7259 112.442 70.2592 112.442 69.9232C112.442 69.6432 112.358 69.3959 112.19 69.1812C112.032 68.9572 111.831 68.7939 111.588 68.6912C111.355 68.5885 111.14 68.5139 110.944 68.4672C110.748 68.4112 110.585 68.3832 110.454 68.3832C109.54 68.3832 108.709 68.7519 107.962 69.4892C107.216 70.2172 106.842 71.0619 106.842 72.0232ZM115.275 74.1792V67.9212C115.275 67.7999 115.322 67.7065 115.415 67.6412C115.518 67.5759 115.639 67.5432 115.779 67.5432C116.134 67.5432 116.311 67.6692 116.311 67.9212V69.0272C116.778 68.5232 117.342 68.1265 118.005 67.8372C118.668 67.5385 119.34 67.3892 120.021 67.3892C120.898 67.3892 121.631 67.6645 122.219 68.2152C122.816 68.7565 123.115 69.4659 123.115 70.3432C123.115 70.4272 123.11 70.8565 123.101 71.6312C123.101 72.3965 123.101 73.2365 123.101 74.1512C123.101 74.2725 123.05 74.3705 122.947 74.4452C122.844 74.5105 122.723 74.5432 122.583 74.5432C122.238 74.5432 122.065 74.4125 122.065 74.1512V70.4692C122.065 69.8065 121.827 69.2979 121.351 68.9432C120.884 68.5885 120.399 68.4112 119.895 68.4112C119.214 68.4112 118.514 68.6399 117.795 69.0972C117.086 69.5452 116.591 70.1145 116.311 70.8052V74.1792C116.311 74.4312 116.134 74.5572 115.779 74.5572C115.639 74.5572 115.518 74.5245 115.415 74.4592C115.322 74.3939 115.275 74.3005 115.275 74.1792ZM124.387 71.0712C124.387 70.2685 124.602 69.5779 125.031 68.9992C125.46 68.4112 125.978 67.9865 126.585 67.7252C127.192 67.4639 127.826 67.3332 128.489 67.3332C129.329 67.3332 130.108 67.6225 130.827 68.2012C130.902 68.2665 130.939 68.3505 130.939 68.4532C130.939 68.6025 130.878 68.7425 130.757 68.8732C130.636 68.9945 130.51 69.0552 130.379 69.0552C130.286 69.0552 130.206 69.0225 130.141 68.9572C129.693 68.5652 129.133 68.3692 128.461 68.3692C127.509 68.3692 126.762 68.6585 126.221 69.2372C125.689 69.8159 125.423 70.4319 125.423 71.0852C125.423 71.7479 125.731 72.3545 126.347 72.9052C126.963 73.4465 127.672 73.7172 128.475 73.7172C129.296 73.7172 129.964 73.4232 130.477 72.8352C130.58 72.7325 130.668 72.6812 130.743 72.6812C130.883 72.6812 131.018 72.7512 131.149 72.8912C131.28 73.0312 131.345 73.1665 131.345 73.2972C131.345 73.3812 131.312 73.4559 131.247 73.5212C130.528 74.3425 129.628 74.7532 128.545 74.7532C127.397 74.7532 126.417 74.3939 125.605 73.6752C124.793 72.9472 124.387 72.0792 124.387 71.0712ZM132.461 74.1512V67.9212C132.461 67.6692 132.638 67.5432 132.993 67.5432C133.133 67.5432 133.249 67.5759 133.343 67.6412C133.445 67.7065 133.497 67.7999 133.497 67.9212V74.1512C133.497 74.2725 133.445 74.3705 133.343 74.4452C133.24 74.5105 133.119 74.5432 132.979 74.5432C132.633 74.5432 132.461 74.4125 132.461 74.1512ZM132.461 65.7512V65.4992C132.461 65.2472 132.638 65.1212 132.993 65.1212C133.133 65.1212 133.249 65.1539 133.343 65.2192C133.445 65.2845 133.497 65.3779 133.497 65.4992V65.7512C133.497 65.8725 133.445 65.9705 133.343 66.0452C133.24 66.1105 133.119 66.1432 132.979 66.1432C132.633 66.1432 132.461 66.0125 132.461 65.7512ZM135.181 74.1792V67.9212C135.181 67.7999 135.228 67.7065 135.321 67.6412C135.424 67.5759 135.545 67.5432 135.685 67.5432C136.04 67.5432 136.217 67.6692 136.217 67.9212V69.0272C136.684 68.5232 137.249 68.1265 137.911 67.8372C138.574 67.5385 139.246 67.3892 139.927 67.3892C140.805 67.3892 141.537 67.6645 142.125 68.2152C142.723 68.7565 143.021 69.4659 143.021 70.3432C143.021 70.4272 143.017 70.8565 143.007 71.6312C143.007 72.3965 143.007 73.2365 143.007 74.1512C143.007 74.2725 142.956 74.3705 142.853 74.4452C142.751 74.5105 142.629 74.5432 142.489 74.5432C142.144 74.5432 141.971 74.4125 141.971 74.1512V70.4692C141.971 69.8065 141.733 69.2979 141.257 68.9432C140.791 68.5885 140.305 68.4112 139.801 68.4112C139.12 68.4112 138.42 68.6399 137.701 69.0972C136.992 69.5452 136.497 70.1145 136.217 70.8052V74.1792C136.217 74.4312 136.04 74.5572 135.685 74.5572C135.545 74.5572 135.424 74.5245 135.321 74.4592C135.228 74.3939 135.181 74.3005 135.181 74.1792ZM144.293 71.9952C144.293 70.7445 144.783 69.6665 145.763 68.7612C146.743 67.8559 147.854 67.4032 149.095 67.4032C149.87 67.4032 150.547 67.6785 151.125 68.2292V67.9072C151.125 67.6552 151.303 67.5292 151.657 67.5292C151.797 67.5292 151.914 67.5619 152.007 67.6272C152.11 67.6925 152.161 67.7859 152.161 67.9072V74.6132C152.161 75.7052 151.807 76.5592 151.097 77.1752C150.388 77.8005 149.562 78.1132 148.619 78.1132C147.873 78.1132 147.247 77.9825 146.743 77.7212C146.239 77.4599 145.983 77.0259 145.973 76.4192C145.973 76.2699 146.02 76.1532 146.113 76.0692C146.207 75.9945 146.323 75.9572 146.463 75.9572C146.613 75.9572 146.739 75.9992 146.841 76.0832C146.953 76.1672 147.009 76.2745 147.009 76.4052C147.009 76.5639 147.051 76.6899 147.135 76.7832C147.229 76.8859 147.373 76.9559 147.569 76.9932C147.765 77.0305 147.933 77.0539 148.073 77.0632C148.223 77.0725 148.428 77.0772 148.689 77.0772C149.352 77.0772 149.921 76.8765 150.397 76.4752C150.883 76.0739 151.125 75.4859 151.125 74.7112V71.8692C150.369 72.8492 149.646 73.5585 148.955 73.9972C148.274 74.4359 147.569 74.6552 146.841 74.6552C146.169 74.6552 145.577 74.3845 145.063 73.8432C144.55 73.2925 144.293 72.6765 144.293 71.9952ZM145.301 72.0232C145.301 72.5552 145.488 72.9612 145.861 73.2412C146.235 73.5119 146.631 73.6472 147.051 73.6472C147.537 73.6472 148.092 73.4092 148.717 72.9332C149.343 72.4479 149.861 71.9112 150.271 71.3232C150.691 70.7259 150.901 70.2592 150.901 69.9232C150.901 69.6432 150.817 69.3959 150.649 69.1812C150.491 68.9572 150.29 68.7939 150.047 68.6912C149.814 68.5885 149.599 68.5139 149.403 68.4672C149.207 68.4112 149.044 68.3832 148.913 68.3832C147.999 68.3832 147.168 68.7519 146.421 69.4892C145.675 70.2172 145.301 71.0619 145.301 72.0232ZM153.815 73.5912C153.815 73.3485 153.904 73.1525 154.081 73.0032C154.268 72.8539 154.506 72.7792 154.795 72.7792C155.402 72.7792 155.705 73.1339 155.705 73.8432C155.705 74.2445 155.528 74.6972 155.173 75.2012C154.819 75.7052 154.553 75.9572 154.375 75.9572C154.207 75.9572 154.123 75.9012 154.123 75.7892C154.123 75.7425 154.161 75.5839 154.235 75.3132C154.319 75.0519 154.361 74.8605 154.361 74.7392C154.361 74.6179 154.329 74.5385 154.263 74.5012C153.965 74.2959 153.815 73.9925 153.815 73.5912ZM33.5057 86.5732C33.5057 85.6305 33.7624 84.7719 34.2757 83.9972C34.7891 83.2225 35.4517 82.6299 36.2637 82.2192C37.0757 81.7992 37.9344 81.5892 38.8397 81.5892C39.6797 81.5892 40.4591 81.8785 41.1777 82.4572C41.2524 82.5225 41.2897 82.6065 41.2897 82.7092C41.2897 82.8585 41.2291 82.9985 41.1077 83.1292C40.9864 83.2505 40.8604 83.3112 40.7297 83.3112C40.6364 83.3112 40.5571 83.2785 40.4917 83.2132C40.0437 82.8212 39.4837 82.6252 38.8117 82.6252C37.5797 82.6252 36.5624 83.0219 35.7597 83.8152C34.9571 84.6085 34.5557 85.5232 34.5557 86.5592C34.5557 87.0912 34.6117 87.5905 34.7237 88.0572C34.8451 88.5145 35.0317 88.9439 35.2837 89.3452C35.5451 89.7372 35.9091 90.0499 36.3757 90.2832C36.8517 90.5165 37.4071 90.6332 38.0417 90.6332C38.8911 90.6332 39.5397 90.3299 39.9877 89.7232C40.4451 89.1165 40.6831 88.3372 40.7017 87.3852H37.8877C37.6357 87.3852 37.5097 87.2079 37.5097 86.8532C37.5097 86.7132 37.5424 86.5965 37.6077 86.5032C37.6731 86.4005 37.7664 86.3492 37.8877 86.3492H41.3177C41.4671 86.3492 41.5651 86.4052 41.6117 86.5172C41.6584 86.6199 41.6817 86.7925 41.6817 87.0352C41.6817 88.4259 41.3737 89.5459 40.7577 90.3952C40.1511 91.2445 39.3157 91.6692 38.2517 91.6692C37.4491 91.6692 36.7351 91.5292 36.1097 91.2492C35.4844 90.9692 34.9851 90.5865 34.6117 90.1012C34.2477 89.6159 33.9724 89.0792 33.7857 88.4912C33.5991 87.8939 33.5057 87.2545 33.5057 86.5732ZM43.094 91.1512V84.9492C43.094 84.6972 43.2713 84.5712 43.626 84.5712C43.766 84.5712 43.8827 84.6039 43.976 84.6692C44.0787 84.7345 44.13 84.8279 44.13 84.9492V86.6992C44.4847 85.9339 44.8767 85.3552 45.306 84.9632C45.7447 84.5712 46.3233 84.3752 47.042 84.3752C47.546 84.3752 48.0547 84.4405 48.568 84.5712C48.8387 84.7019 48.974 84.8792 48.974 85.1032C48.974 85.2619 48.9413 85.3739 48.876 85.4392C48.8107 85.5045 48.7033 85.5465 48.554 85.5652C48.078 85.4532 47.6907 85.3972 47.392 85.3972C46.7013 85.3972 46.0713 85.7379 45.502 86.4192C44.9327 87.1005 44.4753 87.9872 44.13 89.0792V91.1512C44.13 91.2725 44.0787 91.3705 43.976 91.4452C43.8733 91.5105 43.752 91.5432 43.612 91.5432C43.2667 91.5432 43.094 91.4125 43.094 91.1512ZM49.1301 88.9952C49.1301 87.7445 49.6201 86.6665 50.6001 85.7612C51.5801 84.8559 52.6907 84.4032 53.9321 84.4032C54.7814 84.4032 55.5047 84.7252 56.1021 85.3692C56.6994 86.0132 56.9981 86.7459 56.9981 87.5672L56.9841 91.2352C56.9841 91.3565 56.9234 91.4545 56.8021 91.5292C56.6901 91.5945 56.5641 91.6272 56.4241 91.6272C56.1161 91.6272 55.9621 91.4965 55.9621 91.2352V88.8692C55.2061 89.8492 54.4827 90.5585 53.7921 90.9972C53.1107 91.4359 52.4061 91.6552 51.6781 91.6552C51.0061 91.6552 50.4134 91.3845 49.9001 90.8432C49.3867 90.2925 49.1301 89.6765 49.1301 88.9952ZM50.1381 89.0232C50.1381 89.5552 50.3247 89.9612 50.6981 90.2412C51.0714 90.5119 51.4681 90.6472 51.8881 90.6472C52.3734 90.6472 52.9287 90.4092 53.5541 89.9332C54.1794 89.4479 54.6974 88.9112 55.1081 88.3232C55.5281 87.7259 55.7381 87.2592 55.7381 86.9232C55.7381 86.6432 55.6541 86.3959 55.4861 86.1812C55.3274 85.9572 55.1267 85.7939 54.8841 85.6912C54.6507 85.5885 54.4361 85.5139 54.2401 85.4672C54.0441 85.4112 53.8807 85.3832 53.7501 85.3832C52.8354 85.3832 52.0047 85.7519 51.2581 86.4892C50.5114 87.2172 50.1381 88.0619 50.1381 89.0232ZM58.1509 85.4112C58.1509 85.0659 58.2816 84.8932 58.5429 84.8932H59.0189V84.0252C59.0189 82.0372 59.7609 81.0432 61.2449 81.0432C61.8889 81.0432 62.4302 81.2392 62.8689 81.6312C63.3076 82.0232 63.5316 82.5879 63.5409 83.3252C63.5409 83.4745 63.4896 83.5912 63.3869 83.6752C63.2936 83.7499 63.1769 83.7872 63.0369 83.7872C62.8876 83.7872 62.7616 83.7452 62.6589 83.6612C62.5562 83.5772 62.5049 83.4699 62.5049 83.3392C62.5049 82.8725 62.3789 82.5459 62.1269 82.3592C61.8749 82.1725 61.5809 82.0792 61.2449 82.0792C60.4516 82.0792 60.0549 82.6019 60.0549 83.6472V84.8932H62.2949C62.5469 84.8932 62.6729 85.0705 62.6729 85.4252C62.6729 85.5652 62.6402 85.6865 62.5749 85.7892C62.5096 85.8825 62.4162 85.9292 62.2949 85.9292H60.0549V91.1512C60.0549 91.4032 59.8776 91.5292 59.5229 91.5292C59.3829 91.5292 59.2616 91.4965 59.1589 91.4312C59.0656 91.3659 59.0189 91.2725 59.0189 91.1512V85.9292H58.5429C58.4216 85.9292 58.3236 85.8779 58.2489 85.7752C58.1836 85.6725 58.1509 85.5512 58.1509 85.4112ZM63.3052 85.4112C63.3052 85.0659 63.4359 84.8932 63.6972 84.8932H64.1732V84.0252C64.1732 82.0372 64.9152 81.0432 66.3992 81.0432C67.0432 81.0432 67.5845 81.2392 68.0232 81.6312C68.4619 82.0232 68.6859 82.5879 68.6952 83.3252C68.6952 83.4745 68.6439 83.5912 68.5412 83.6752C68.4479 83.7499 68.3312 83.7872 68.1912 83.7872C68.0419 83.7872 67.9159 83.7452 67.8132 83.6612C67.7105 83.5772 67.6592 83.4699 67.6592 83.3392C67.6592 82.8725 67.5332 82.5459 67.2812 82.3592C67.0292 82.1725 66.7352 82.0792 66.3992 82.0792C65.6059 82.0792 65.2092 82.6019 65.2092 83.6472V84.8932H67.4492C67.7012 84.8932 67.8272 85.0705 67.8272 85.4252C67.8272 85.5652 67.7945 85.6865 67.7292 85.7892C67.6639 85.8825 67.5705 85.9292 67.4492 85.9292H65.2092V91.1512C65.2092 91.4032 65.0319 91.5292 64.6772 91.5292C64.5372 91.5292 64.4159 91.4965 64.3132 91.4312C64.2199 91.3659 64.1732 91.2725 64.1732 91.1512V85.9292H63.6972C63.5759 85.9292 63.4779 85.8779 63.4032 85.7752C63.3379 85.6725 63.3052 85.5512 63.3052 85.4112ZM68.8795 91.1512V84.9212C68.8795 84.6692 69.0568 84.5432 69.4115 84.5432C69.5515 84.5432 69.6681 84.5759 69.7615 84.6412C69.8641 84.7065 69.9155 84.7999 69.9155 84.9212V91.1512C69.9155 91.2725 69.8641 91.3705 69.7615 91.4452C69.6588 91.5105 69.5375 91.5432 69.3975 91.5432C69.0521 91.5432 68.8795 91.4125 68.8795 91.1512ZM68.8795 82.7512V82.4992C68.8795 82.2472 69.0568 82.1212 69.4115 82.1212C69.5515 82.1212 69.6681 82.1539 69.7615 82.2192C69.8641 82.2845 69.9155 82.3779 69.9155 82.4992V82.7512C69.9155 82.8725 69.8641 82.9705 69.7615 83.0452C69.6588 83.1105 69.5375 83.1432 69.3975 83.1432C69.0521 83.1432 68.8795 83.0125 68.8795 82.7512ZM71.1382 85.0612C71.1382 84.9212 71.1709 84.7999 71.2362 84.6972C71.3109 84.5945 71.4089 84.5432 71.5302 84.5432H72.0062V82.8212C72.0062 82.6999 72.0529 82.6065 72.1462 82.5412C72.2489 82.4759 72.3702 82.4432 72.5102 82.4432C72.8649 82.4432 73.0422 82.5692 73.0422 82.8212V84.5432H75.2822C75.4035 84.5432 75.4969 84.5945 75.5622 84.6972C75.6275 84.7905 75.6602 84.9072 75.6602 85.0472C75.6602 85.4019 75.5342 85.5792 75.2822 85.5792H73.0422V88.9252C73.0422 89.9705 73.4389 90.4932 74.2322 90.4932C74.5682 90.4932 74.8575 90.3999 75.1002 90.2132C75.3522 90.0265 75.4782 89.6999 75.4782 89.2332C75.4782 89.1025 75.5295 88.9952 75.6322 88.9112C75.7442 88.8272 75.8749 88.7852 76.0242 88.7852C76.1642 88.7852 76.2809 88.8272 76.3742 88.9112C76.4675 88.9859 76.5142 89.0979 76.5142 89.2472C76.5049 89.9845 76.2809 90.5492 75.8422 90.9412C75.4129 91.3332 74.8762 91.5292 74.2322 91.5292C72.7482 91.5292 72.0062 90.5352 72.0062 88.5472V85.5792H71.5302C71.2689 85.5792 71.1382 85.4065 71.1382 85.0612ZM77.5885 91.1512V84.9212C77.5885 84.6692 77.7658 84.5432 78.1205 84.5432C78.2605 84.5432 78.3771 84.5759 78.4705 84.6412C78.5731 84.7065 78.6245 84.7999 78.6245 84.9212V91.1512C78.6245 91.2725 78.5731 91.3705 78.4705 91.4452C78.3678 91.5105 78.2465 91.5432 78.1065 91.5432C77.7611 91.5432 77.5885 91.4125 77.5885 91.1512ZM77.5885 82.7512V82.4992C77.5885 82.2472 77.7658 82.1212 78.1205 82.1212C78.2605 82.1212 78.3771 82.1539 78.4705 82.2192C78.5731 82.2845 78.6245 82.3779 78.6245 82.4992V82.7512C78.6245 82.8725 78.5731 82.9705 78.4705 83.0452C78.3678 83.1105 78.2465 83.1432 78.1065 83.1432C77.7611 83.1432 77.5885 83.0125 77.5885 82.7512ZM80.2812 90.5912C80.2812 90.3485 80.3698 90.1525 80.5472 90.0032C80.7338 89.8539 80.9718 89.7792 81.2612 89.7792C81.8678 89.7792 82.1712 90.1339 82.1712 90.8432C82.1712 91.2445 81.9938 91.6972 81.6392 92.2012C81.2845 92.7052 81.0185 92.9572 80.8412 92.9572C80.6732 92.9572 80.5892 92.9012 80.5892 92.7892C80.5892 92.7425 80.6265 92.5839 80.7012 92.3132C80.7852 92.0519 80.8272 91.8605 80.8272 91.7392C80.8272 91.6179 80.7945 91.5385 80.7292 91.5012C80.4305 91.2959 80.2812 90.9925 80.2812 90.5912ZM87.4091 91.1652V82.1352C87.4091 81.8739 87.5818 81.7432 87.9271 81.7432C88.2538 81.7432 88.4171 81.9439 88.4171 82.3452C89.3785 81.9345 90.3071 81.7292 91.2031 81.7292C92.4725 81.7292 93.4058 82.0325 94.0031 82.6392C94.6005 83.2459 94.8991 84.0112 94.8991 84.9352C94.8991 85.9805 94.4931 86.7319 93.6811 87.1892C92.8691 87.6465 91.6885 87.8752 90.1391 87.8752C89.9525 87.8752 89.6678 87.8612 89.2851 87.8332C88.9118 87.8052 88.6318 87.7912 88.4451 87.7912V91.1652C88.4451 91.2865 88.3938 91.3799 88.2911 91.4452C88.1978 91.5105 88.0811 91.5432 87.9411 91.5432C87.5865 91.5432 87.4091 91.4172 87.4091 91.1652ZM88.4451 86.5872C88.8278 86.7085 89.5978 86.7692 90.7551 86.7692C91.6885 86.7692 92.4398 86.6059 93.0091 86.2792C93.5785 85.9432 93.8631 85.4439 93.8631 84.7812C93.8631 84.2119 93.6345 83.7359 93.1771 83.3532C92.7198 82.9612 92.0151 82.7652 91.0631 82.7652C90.2418 82.7652 89.3691 83.0125 88.4451 83.5072V86.5872ZM95.4504 88.9952C95.4504 87.7445 95.9404 86.6665 96.9204 85.7612C97.9004 84.8559 99.0111 84.4032 100.252 84.4032C101.102 84.4032 101.825 84.7252 102.422 85.3692C103.02 86.0132 103.318 86.7459 103.318 87.5672L103.304 91.2352C103.304 91.3565 103.244 91.4545 103.122 91.5292C103.01 91.5945 102.884 91.6272 102.744 91.6272C102.436 91.6272 102.282 91.4965 102.282 91.2352V88.8692C101.526 89.8492 100.803 90.5585 100.112 90.9972C99.4311 91.4359 98.7264 91.6552 97.9984 91.6552C97.3264 91.6552 96.7337 91.3845 96.2204 90.8432C95.7071 90.2925 95.4504 89.6765 95.4504 88.9952ZM96.4584 89.0232C96.4584 89.5552 96.6451 89.9612 97.0184 90.2412C97.3917 90.5119 97.7884 90.6472 98.2084 90.6472C98.6937 90.6472 99.2491 90.4092 99.8744 89.9332C100.5 89.4479 101.018 88.9112 101.428 88.3232C101.848 87.7259 102.058 87.2592 102.058 86.9232C102.058 86.6432 101.974 86.3959 101.806 86.1812C101.648 85.9572 101.447 85.7939 101.204 85.6912C100.971 85.5885 100.756 85.5139 100.56 85.4672C100.364 85.4112 100.201 85.3832 100.07 85.3832C99.1557 85.3832 98.3251 85.7519 97.5784 86.4892C96.8317 87.2172 96.4584 88.0619 96.4584 89.0232ZM104.891 91.1512V84.9212C104.891 84.6692 105.069 84.5432 105.423 84.5432C105.563 84.5432 105.68 84.5759 105.773 84.6412C105.876 84.7065 105.927 84.7999 105.927 84.9212V91.1512C105.927 91.2725 105.876 91.3705 105.773 91.4452C105.671 91.5105 105.549 91.5432 105.409 91.5432C105.064 91.5432 104.891 91.4125 104.891 91.1512ZM104.891 82.7512V82.4992C104.891 82.2472 105.069 82.1212 105.423 82.1212C105.563 82.1212 105.68 82.1539 105.773 82.2192C105.876 82.2845 105.927 82.3779 105.927 82.4992V82.7512C105.927 82.8725 105.876 82.9705 105.773 83.0452C105.671 83.1105 105.549 83.1432 105.409 83.1432C105.064 83.1432 104.891 83.0125 104.891 82.7512ZM107.612 91.1792V84.9212C107.612 84.7999 107.659 84.7065 107.752 84.6412C107.855 84.5759 107.976 84.5432 108.116 84.5432C108.471 84.5432 108.648 84.6692 108.648 84.9212V86.0272C109.115 85.5232 109.679 85.1265 110.342 84.8372C111.005 84.5385 111.677 84.3892 112.358 84.3892C113.235 84.3892 113.968 84.6645 114.556 85.2152C115.153 85.7565 115.452 86.4659 115.452 87.3432C115.452 87.4272 115.447 87.8565 115.438 88.6312C115.438 89.3965 115.438 90.2365 115.438 91.1512C115.438 91.2725 115.387 91.3705 115.284 91.4452C115.181 91.5105 115.06 91.5432 114.92 91.5432C114.575 91.5432 114.402 91.4125 114.402 91.1512V87.4692C114.402 86.8065 114.164 86.2979 113.688 85.9432C113.221 85.5885 112.736 85.4112 112.232 85.4112C111.551 85.4112 110.851 85.6399 110.132 86.0972C109.423 86.5452 108.928 87.1145 108.648 87.8052V91.1792C108.648 91.4312 108.471 91.5572 108.116 91.5572C107.976 91.5572 107.855 91.5245 107.752 91.4592C107.659 91.3939 107.612 91.3005 107.612 91.1792ZM116.515 85.0612C116.515 84.9212 116.548 84.7999 116.613 84.6972C116.688 84.5945 116.786 84.5432 116.907 84.5432H117.383V82.8212C117.383 82.6999 117.43 82.6065 117.523 82.5412C117.626 82.4759 117.747 82.4432 117.887 82.4432C118.242 82.4432 118.419 82.5692 118.419 82.8212V84.5432H120.659C120.78 84.5432 120.874 84.5945 120.939 84.6972C121.004 84.7905 121.037 84.9072 121.037 85.0472C121.037 85.4019 120.911 85.5792 120.659 85.5792H118.419V88.9252C118.419 89.9705 118.816 90.4932 119.609 90.4932C119.945 90.4932 120.234 90.3999 120.477 90.2132C120.729 90.0265 120.855 89.6999 120.855 89.2332C120.855 89.1025 120.906 88.9952 121.009 88.9112C121.121 88.8272 121.252 88.7852 121.401 88.7852C121.541 88.7852 121.658 88.8272 121.751 88.9112C121.844 88.9859 121.891 89.0979 121.891 89.2472C121.882 89.9845 121.658 90.5492 121.219 90.9412C120.79 91.3332 120.253 91.5292 119.609 91.5292C118.125 91.5292 117.383 90.5352 117.383 88.5472V85.5792H116.907C116.646 85.5792 116.515 85.4065 116.515 85.0612ZM122.965 91.1512V84.9212C122.965 84.6692 123.143 84.5432 123.497 84.5432C123.637 84.5432 123.754 84.5759 123.847 84.6412C123.95 84.7065 124.001 84.7999 124.001 84.9212V91.1512C124.001 91.2725 123.95 91.3705 123.847 91.4452C123.745 91.5105 123.623 91.5432 123.483 91.5432C123.138 91.5432 122.965 91.4125 122.965 91.1512ZM122.965 82.7512V82.4992C122.965 82.2472 123.143 82.1212 123.497 82.1212C123.637 82.1212 123.754 82.1539 123.847 82.2192C123.95 82.2845 124.001 82.3779 124.001 82.4992V82.7512C124.001 82.8725 123.95 82.9705 123.847 83.0452C123.745 83.1105 123.623 83.1432 123.483 83.1432C123.138 83.1432 122.965 83.0125 122.965 82.7512ZM125.686 91.1792V84.9212C125.686 84.7999 125.733 84.7065 125.826 84.6412C125.929 84.5759 126.05 84.5432 126.19 84.5432C126.545 84.5432 126.722 84.6692 126.722 84.9212V86.0272C127.189 85.5232 127.753 85.1265 128.416 84.8372C129.079 84.5385 129.751 84.3892 130.432 84.3892C131.309 84.3892 132.042 84.6645 132.63 85.2152C133.227 85.7565 133.526 86.4659 133.526 87.3432C133.526 87.4272 133.521 87.8565 133.512 88.6312C133.512 89.3965 133.512 90.2365 133.512 91.1512C133.512 91.2725 133.461 91.3705 133.358 91.4452C133.255 91.5105 133.134 91.5432 132.994 91.5432C132.649 91.5432 132.476 91.4125 132.476 91.1512V87.4692C132.476 86.8065 132.238 86.2979 131.762 85.9432C131.295 85.5885 130.81 85.4112 130.306 85.4112C129.625 85.4112 128.925 85.6399 128.206 86.0972C127.497 86.5452 127.002 87.1145 126.722 87.8052V91.1792C126.722 91.4312 126.545 91.5572 126.19 91.5572C126.05 91.5572 125.929 91.5245 125.826 91.4592C125.733 91.3939 125.686 91.3005 125.686 91.1792ZM134.798 88.9952C134.798 87.7445 135.288 86.6665 136.268 85.7612C137.248 84.8559 138.359 84.4032 139.6 84.4032C140.375 84.4032 141.051 84.6785 141.63 85.2292V84.9072C141.63 84.6552 141.807 84.5292 142.162 84.5292C142.302 84.5292 142.419 84.5619 142.512 84.6272C142.615 84.6925 142.666 84.7859 142.666 84.9072V91.6132C142.666 92.7052 142.311 93.5592 141.602 94.1752C140.893 94.8005 140.067 95.1132 139.124 95.1132C138.377 95.1132 137.752 94.9825 137.248 94.7212C136.744 94.4599 136.487 94.0259 136.478 93.4192C136.478 93.2699 136.525 93.1532 136.618 93.0692C136.711 92.9945 136.828 92.9572 136.968 92.9572C137.117 92.9572 137.243 92.9992 137.346 93.0832C137.458 93.1672 137.514 93.2745 137.514 93.4052C137.514 93.5639 137.556 93.6899 137.64 93.7832C137.733 93.8859 137.878 93.9559 138.074 93.9932C138.27 94.0305 138.438 94.0539 138.578 94.0632C138.727 94.0725 138.933 94.0772 139.194 94.0772C139.857 94.0772 140.426 93.8765 140.902 93.4752C141.387 93.0739 141.63 92.4859 141.63 91.7112V88.8692C140.874 89.8492 140.151 90.5585 139.46 90.9972C138.779 91.4359 138.074 91.6552 137.346 91.6552C136.674 91.6552 136.081 91.3845 135.568 90.8432C135.055 90.2925 134.798 89.6765 134.798 88.9952ZM135.806 89.0232C135.806 89.5552 135.993 89.9612 136.366 90.2412C136.739 90.5119 137.136 90.6472 137.556 90.6472C138.041 90.6472 138.597 90.4092 139.222 89.9332C139.847 89.4479 140.365 88.9112 140.776 88.3232C141.196 87.7259 141.406 87.2592 141.406 86.9232C141.406 86.6432 141.322 86.3959 141.154 86.1812C140.995 85.9572 140.795 85.7939 140.552 85.6912C140.319 85.5885 140.104 85.5139 139.908 85.4672C139.712 85.4112 139.549 85.3832 139.418 85.3832C138.503 85.3832 137.673 85.7519 136.926 86.4892C136.179 87.2172 135.806 88.0619 135.806 89.0232ZM144.32 90.5912C144.32 90.3485 144.409 90.1525 144.586 90.0032C144.773 89.8539 145.011 89.7792 145.3 89.7792C145.907 89.7792 146.21 90.1339 146.21 90.8432C146.21 91.2445 146.033 91.6972 145.678 92.2012C145.324 92.7052 145.058 92.9572 144.88 92.9572C144.712 92.9572 144.628 92.9012 144.628 92.7892C144.628 92.7425 144.666 92.5839 144.74 92.3132C144.824 92.0519 144.866 91.8605 144.866 91.7392C144.866 91.6179 144.834 91.5385 144.768 91.5012C144.47 91.2959 144.32 90.9925 144.32 90.5912ZM33.5562 99.2612C33.5562 99.1212 33.6262 98.9999 33.7662 98.8972C33.9062 98.7945 34.0462 98.7432 34.1862 98.7432C34.3728 98.7432 34.4848 98.8132 34.5222 98.9532L36.6922 106.863L38.3582 99.4992C38.4048 99.3032 38.4748 99.1399 38.5682 99.0092C38.6708 98.8785 38.7828 98.8132 38.9042 98.8132C39.1188 98.8132 39.2775 99.0372 39.3802 99.4852L41.1722 106.863L43.3562 98.9532C43.4028 98.8132 43.5148 98.7432 43.6922 98.7432C43.8322 98.7432 43.9722 98.7945 44.1122 98.8972C44.2522 98.9999 44.3222 99.1212 44.3222 99.2612C44.3222 99.2985 44.3128 99.3452 44.2942 99.4012L41.8162 108.053C41.7508 108.193 41.6528 108.31 41.5222 108.403C41.3915 108.497 41.2748 108.543 41.1722 108.543C41.0695 108.543 40.9528 108.501 40.8222 108.417C40.6915 108.324 40.5888 108.203 40.5142 108.053L38.8902 102.089L37.3362 108.053C37.2708 108.193 37.1728 108.31 37.0422 108.403C36.9115 108.497 36.7948 108.543 36.6922 108.543C36.5895 108.543 36.4728 108.501 36.3422 108.417C36.2115 108.324 36.1088 108.203 36.0342 108.053L33.5842 99.4012C33.5655 99.3452 33.5562 99.2985 33.5562 99.2612ZM45.3499 108.151V101.949C45.3499 101.697 45.5272 101.571 45.8819 101.571C46.0219 101.571 46.1385 101.604 46.2319 101.669C46.3345 101.735 46.3859 101.828 46.3859 101.949V103.699C46.7405 102.934 47.1325 102.355 47.5619 101.963C48.0005 101.571 48.5792 101.375 49.2979 101.375C49.8019 101.375 50.3105 101.441 50.8239 101.571C51.0945 101.702 51.2299 101.879 51.2299 102.103C51.2299 102.262 51.1972 102.374 51.1319 102.439C51.0665 102.505 50.9592 102.547 50.8099 102.565C50.3339 102.453 49.9465 102.397 49.6479 102.397C48.9572 102.397 48.3272 102.738 47.7579 103.419C47.1885 104.101 46.7312 104.987 46.3859 106.079V108.151C46.3859 108.273 46.3345 108.371 46.2319 108.445C46.1292 108.511 46.0079 108.543 45.8679 108.543C45.5225 108.543 45.3499 108.413 45.3499 108.151ZM52.2135 108.151V101.921C52.2135 101.669 52.3908 101.543 52.7455 101.543C52.8855 101.543 53.0021 101.576 53.0955 101.641C53.1981 101.707 53.2495 101.8 53.2495 101.921V108.151C53.2495 108.273 53.1981 108.371 53.0955 108.445C52.9928 108.511 52.8715 108.543 52.7315 108.543C52.3861 108.543 52.2135 108.413 52.2135 108.151ZM52.2135 99.7512V99.4992C52.2135 99.2472 52.3908 99.1212 52.7455 99.1212C52.8855 99.1212 53.0021 99.1539 53.0955 99.2192C53.1981 99.2845 53.2495 99.3779 53.2495 99.4992V99.7512C53.2495 99.8725 53.1981 99.9705 53.0955 100.045C52.9928 100.111 52.8715 100.143 52.7315 100.143C52.3861 100.143 52.2135 100.013 52.2135 99.7512ZM54.4722 102.061C54.4722 101.921 54.5048 101.8 54.5702 101.697C54.6448 101.595 54.7428 101.543 54.8642 101.543H55.3402V99.8212C55.3402 99.6999 55.3868 99.6065 55.4802 99.5412C55.5828 99.4759 55.7042 99.4432 55.8442 99.4432C56.1988 99.4432 56.3762 99.5692 56.3762 99.8212V101.543H58.6162C58.7375 101.543 58.8308 101.595 58.8962 101.697C58.9615 101.791 58.9942 101.907 58.9942 102.047C58.9942 102.402 58.8682 102.579 58.6162 102.579H56.3762V105.925C56.3762 106.971 56.7728 107.493 57.5662 107.493C57.9022 107.493 58.1915 107.4 58.4342 107.213C58.6862 107.027 58.8122 106.7 58.8122 106.233C58.8122 106.103 58.8635 105.995 58.9662 105.911C59.0782 105.827 59.2088 105.785 59.3582 105.785C59.4982 105.785 59.6148 105.827 59.7082 105.911C59.8015 105.986 59.8482 106.098 59.8482 106.247C59.8388 106.985 59.6148 107.549 59.1762 107.941C58.7468 108.333 58.2102 108.529 57.5662 108.529C56.0822 108.529 55.3402 107.535 55.3402 105.547V102.579H54.8642C54.6028 102.579 54.4722 102.407 54.4722 102.061ZM60.9225 108.151V101.921C60.9225 101.669 61.0998 101.543 61.4545 101.543C61.5945 101.543 61.7111 101.576 61.8045 101.641C61.9071 101.707 61.9585 101.8 61.9585 101.921V108.151C61.9585 108.273 61.9071 108.371 61.8045 108.445C61.7018 108.511 61.5805 108.543 61.4405 108.543C61.0951 108.543 60.9225 108.413 60.9225 108.151ZM60.9225 99.7512V99.4992C60.9225 99.2472 61.0998 99.1212 61.4545 99.1212C61.5945 99.1212 61.7111 99.1539 61.8045 99.2192C61.9071 99.2845 61.9585 99.3779 61.9585 99.4992V99.7512C61.9585 99.8725 61.9071 99.9705 61.8045 100.045C61.7018 100.111 61.5805 100.143 61.4405 100.143C61.0951 100.143 60.9225 100.013 60.9225 99.7512ZM63.6432 108.179V101.921C63.6432 101.8 63.6898 101.707 63.7832 101.641C63.8858 101.576 64.0072 101.543 64.1472 101.543C64.5018 101.543 64.6792 101.669 64.6792 101.921V103.027C65.1458 102.523 65.7105 102.127 66.3732 101.837C67.0358 101.539 67.7078 101.389 68.3892 101.389C69.2665 101.389 69.9992 101.665 70.5872 102.215C71.1845 102.757 71.4832 103.466 71.4832 104.343C71.4832 104.427 71.4785 104.857 71.4692 105.631C71.4692 106.397 71.4692 107.237 71.4692 108.151C71.4692 108.273 71.4178 108.371 71.3152 108.445C71.2125 108.511 71.0912 108.543 70.9512 108.543C70.6058 108.543 70.4332 108.413 70.4332 108.151V104.469C70.4332 103.807 70.1952 103.298 69.7192 102.943C69.2525 102.589 68.7672 102.411 68.2632 102.411C67.5818 102.411 66.8818 102.64 66.1632 103.097C65.4538 103.545 64.9592 104.115 64.6792 104.805V108.179C64.6792 108.431 64.5018 108.557 64.1472 108.557C64.0072 108.557 63.8858 108.525 63.7832 108.459C63.6898 108.394 63.6432 108.301 63.6432 108.179ZM72.7551 105.995C72.7551 104.745 73.2451 103.667 74.2251 102.761C75.2051 101.856 76.3157 101.403 77.5571 101.403C78.3317 101.403 79.0084 101.679 79.5871 102.229V101.907C79.5871 101.655 79.7644 101.529 80.1191 101.529C80.2591 101.529 80.3757 101.562 80.4691 101.627C80.5717 101.693 80.6231 101.786 80.6231 101.907V108.613C80.6231 109.705 80.2684 110.559 79.5591 111.175C78.8497 111.801 78.0237 112.113 77.0811 112.113C76.3344 112.113 75.7091 111.983 75.2051 111.721C74.7011 111.46 74.4444 111.026 74.4351 110.419C74.4351 110.27 74.4817 110.153 74.5751 110.069C74.6684 109.995 74.7851 109.957 74.9251 109.957C75.0744 109.957 75.2004 109.999 75.3031 110.083C75.4151 110.167 75.4711 110.275 75.4711 110.405C75.4711 110.564 75.5131 110.69 75.5971 110.783C75.6904 110.886 75.8351 110.956 76.0311 110.993C76.2271 111.031 76.3951 111.054 76.5351 111.063C76.6844 111.073 76.8897 111.077 77.1511 111.077C77.8137 111.077 78.3831 110.877 78.8591 110.475C79.3444 110.074 79.5871 109.486 79.5871 108.711V105.869C78.8311 106.849 78.1077 107.559 77.4171 107.997C76.7357 108.436 76.0311 108.655 75.3031 108.655C74.6311 108.655 74.0384 108.385 73.5251 107.843C73.0117 107.293 72.7551 106.677 72.7551 105.995ZM73.7631 106.023C73.7631 106.555 73.9497 106.961 74.3231 107.241C74.6964 107.512 75.0931 107.647 75.5131 107.647C75.9984 107.647 76.5537 107.409 77.1791 106.933C77.8044 106.448 78.3224 105.911 78.7331 105.323C79.1531 104.726 79.3631 104.259 79.3631 103.923C79.3631 103.643 79.2791 103.396 79.1111 103.181C78.9524 102.957 78.7517 102.794 78.5091 102.691C78.2757 102.589 78.0611 102.514 77.8651 102.467C77.6691 102.411 77.5057 102.383 77.3751 102.383C76.4604 102.383 75.6297 102.752 74.8831 103.489C74.1364 104.217 73.7631 105.062 73.7631 106.023ZM82.2773 107.591C82.2773 107.349 82.3659 107.153 82.5433 107.003C82.7299 106.854 82.9679 106.779 83.2573 106.779C83.8639 106.779 84.1673 107.134 84.1673 107.843C84.1673 108.245 83.9899 108.697 83.6353 109.201C83.2806 109.705 83.0146 109.957 82.8373 109.957C82.6693 109.957 82.5853 109.901 82.5853 109.789C82.5853 109.743 82.6226 109.584 82.6973 109.313C82.7813 109.052 82.8233 108.861 82.8233 108.739C82.8233 108.618 82.7906 108.539 82.7253 108.501C82.4266 108.296 82.2773 107.993 82.2773 107.591ZM88.9852 106.765C88.9852 106.625 89.0366 106.481 89.1392 106.331C89.2512 106.182 89.3772 106.107 89.5172 106.107C89.5639 106.107 89.5966 106.117 89.6152 106.135C89.9419 106.481 90.4319 106.798 91.0852 107.087C91.7479 107.367 92.3686 107.507 92.9472 107.507C94.6179 107.507 95.4532 106.952 95.4532 105.841C95.4532 105.468 95.3366 105.165 95.1032 104.931C94.8792 104.689 94.5806 104.507 94.2072 104.385C93.8432 104.264 93.4372 104.161 92.9892 104.077C92.5506 103.993 92.1072 103.895 91.6592 103.783C91.2112 103.662 90.8006 103.513 90.4272 103.335C90.0632 103.158 89.7646 102.887 89.5312 102.523C89.3072 102.159 89.1952 101.716 89.1952 101.193C89.1952 100.409 89.5406 99.8072 90.2312 99.3872C90.9219 98.9579 91.7479 98.7432 92.7092 98.7432C93.4559 98.7432 94.1559 98.8692 94.8092 99.1212C95.4719 99.3639 95.9572 99.7092 96.2652 100.157C96.2746 100.176 96.2792 100.199 96.2792 100.227C96.2792 100.339 96.1999 100.456 96.0412 100.577C95.8919 100.689 95.7566 100.745 95.6352 100.745C95.6166 100.745 95.5606 100.722 95.4672 100.675C94.7299 100.069 93.8152 99.7652 92.7232 99.7652C92.0606 99.7652 91.4772 99.8912 90.9732 100.143C90.4692 100.386 90.2172 100.759 90.2172 101.263C90.2172 101.609 90.3292 101.893 90.5532 102.117C90.7866 102.341 91.0852 102.509 91.4492 102.621C91.8226 102.724 92.2332 102.817 92.6812 102.901C93.1292 102.976 93.5772 103.074 94.0252 103.195C94.4732 103.317 94.8792 103.475 95.2432 103.671C95.6166 103.858 95.9152 104.143 96.1392 104.525C96.3726 104.908 96.4892 105.375 96.4892 105.925C96.4892 107.661 95.3412 108.529 93.0452 108.529C92.2986 108.529 91.5659 108.399 90.8472 108.137C90.1286 107.867 89.5406 107.498 89.0832 107.031C89.0179 106.966 88.9852 106.877 88.9852 106.765ZM97.9732 108.151V101.921C97.9732 101.669 98.1506 101.543 98.5052 101.543C98.6452 101.543 98.7619 101.576 98.8552 101.641C98.9579 101.707 99.0092 101.8 99.0092 101.921V108.151C99.0092 108.273 98.9579 108.371 98.8552 108.445C98.7526 108.511 98.6312 108.543 98.4912 108.543C98.1459 108.543 97.9732 108.413 97.9732 108.151ZM97.9732 99.7512V99.4992C97.9732 99.2472 98.1506 99.1212 98.5052 99.1212C98.6452 99.1212 98.7619 99.1539 98.8552 99.2192C98.9579 99.2845 99.0092 99.3779 99.0092 99.4992V99.7512C99.0092 99.8725 98.9579 99.9705 98.8552 100.045C98.7526 100.111 98.6312 100.143 98.4912 100.143C98.1459 100.143 97.9732 100.013 97.9732 99.7512ZM100.694 108.179V101.921C100.694 101.8 100.741 101.707 100.834 101.641C100.937 101.576 101.058 101.543 101.198 101.543C101.553 101.543 101.73 101.669 101.73 101.921V103.027C102.197 102.523 102.761 102.127 103.424 101.837C104.087 101.539 104.759 101.389 105.44 101.389C106.317 101.389 107.05 101.665 107.638 102.215C108.235 102.757 108.534 103.466 108.534 104.343C108.534 104.427 108.529 104.857 108.52 105.631C108.52 106.397 108.52 107.237 108.52 108.151C108.52 108.273 108.469 108.371 108.366 108.445C108.263 108.511 108.142 108.543 108.002 108.543C107.657 108.543 107.484 108.413 107.484 108.151V104.469C107.484 103.807 107.246 103.298 106.77 102.943C106.303 102.589 105.818 102.411 105.314 102.411C104.633 102.411 103.933 102.64 103.214 103.097C102.505 103.545 102.01 104.115 101.73 104.805V108.179C101.73 108.431 101.553 108.557 101.198 108.557C101.058 108.557 100.937 108.525 100.834 108.459C100.741 108.394 100.694 108.301 100.694 108.179ZM109.806 105.995C109.806 104.745 110.296 103.667 111.276 102.761C112.256 101.856 113.367 101.403 114.608 101.403C115.383 101.403 116.059 101.679 116.638 102.229V101.907C116.638 101.655 116.815 101.529 117.17 101.529C117.31 101.529 117.427 101.562 117.52 101.627C117.623 101.693 117.674 101.786 117.674 101.907V108.613C117.674 109.705 117.319 110.559 116.61 111.175C115.901 111.801 115.075 112.113 114.132 112.113C113.385 112.113 112.76 111.983 112.256 111.721C111.752 111.46 111.495 111.026 111.486 110.419C111.486 110.27 111.533 110.153 111.626 110.069C111.719 109.995 111.836 109.957 111.976 109.957C112.125 109.957 112.251 109.999 112.354 110.083C112.466 110.167 112.522 110.275 112.522 110.405C112.522 110.564 112.564 110.69 112.648 110.783C112.741 110.886 112.886 110.956 113.082 110.993C113.278 111.031 113.446 111.054 113.586 111.063C113.735 111.073 113.941 111.077 114.202 111.077C114.865 111.077 115.434 110.877 115.91 110.475C116.395 110.074 116.638 109.486 116.638 108.711V105.869C115.882 106.849 115.159 107.559 114.468 107.997C113.787 108.436 113.082 108.655 112.354 108.655C111.682 108.655 111.089 108.385 110.576 107.843C110.063 107.293 109.806 106.677 109.806 105.995ZM110.814 106.023C110.814 106.555 111.001 106.961 111.374 107.241C111.747 107.512 112.144 107.647 112.564 107.647C113.049 107.647 113.605 107.409 114.23 106.933C114.855 106.448 115.373 105.911 115.784 105.323C116.204 104.726 116.414 104.259 116.414 103.923C116.414 103.643 116.33 103.396 116.162 103.181C116.003 102.957 115.803 102.794 115.56 102.691C115.327 102.589 115.112 102.514 114.916 102.467C114.72 102.411 114.557 102.383 114.426 102.383C113.511 102.383 112.681 102.752 111.934 103.489C111.187 104.217 110.814 105.062 110.814 106.023ZM119.356 108.151V101.921C119.356 101.669 119.533 101.543 119.888 101.543C120.028 101.543 120.145 101.576 120.238 101.641C120.341 101.707 120.392 101.8 120.392 101.921V108.151C120.392 108.273 120.341 108.371 120.238 108.445C120.135 108.511 120.014 108.543 119.874 108.543C119.529 108.543 119.356 108.413 119.356 108.151ZM119.356 99.7512V99.4992C119.356 99.2472 119.533 99.1212 119.888 99.1212C120.028 99.1212 120.145 99.1539 120.238 99.2192C120.341 99.2845 120.392 99.3779 120.392 99.4992V99.7512C120.392 99.8725 120.341 99.9705 120.238 100.045C120.135 100.111 120.014 100.143 119.874 100.143C119.529 100.143 119.356 100.013 119.356 99.7512ZM122.077 108.179V101.921C122.077 101.8 122.123 101.707 122.217 101.641C122.319 101.576 122.441 101.543 122.581 101.543C122.935 101.543 123.113 101.669 123.113 101.921V103.027C123.579 102.523 124.144 102.127 124.807 101.837C125.469 101.539 126.141 101.389 126.823 101.389C127.7 101.389 128.433 101.665 129.021 102.215C129.618 102.757 129.917 103.466 129.917 104.343C129.917 104.427 129.912 104.857 129.903 105.631C129.903 106.397 129.903 107.237 129.903 108.151C129.903 108.273 129.851 108.371 129.749 108.445C129.646 108.511 129.525 108.543 129.385 108.543C129.039 108.543 128.867 108.413 128.867 108.151V104.469C128.867 103.807 128.629 103.298 128.153 102.943C127.686 102.589 127.201 102.411 126.697 102.411C126.015 102.411 125.315 102.64 124.597 103.097C123.887 103.545 123.393 104.115 123.113 104.805V108.179C123.113 108.431 122.935 108.557 122.581 108.557C122.441 108.557 122.319 108.525 122.217 108.459C122.123 108.394 122.077 108.301 122.077 108.179ZM131.189 105.995C131.189 104.745 131.679 103.667 132.659 102.761C133.639 101.856 134.749 101.403 135.991 101.403C136.765 101.403 137.442 101.679 138.021 102.229V101.907C138.021 101.655 138.198 101.529 138.553 101.529C138.693 101.529 138.809 101.562 138.903 101.627C139.005 101.693 139.057 101.786 139.057 101.907V108.613C139.057 109.705 138.702 110.559 137.993 111.175C137.283 111.801 136.457 112.113 135.515 112.113C134.768 112.113 134.143 111.983 133.639 111.721C133.135 111.46 132.878 111.026 132.869 110.419C132.869 110.27 132.915 110.153 133.009 110.069C133.102 109.995 133.219 109.957 133.359 109.957C133.508 109.957 133.634 109.999 133.737 110.083C133.849 110.167 133.905 110.275 133.905 110.405C133.905 110.564 133.947 110.69 134.031 110.783C134.124 110.886 134.269 110.956 134.465 110.993C134.661 111.031 134.829 111.054 134.969 111.063C135.118 111.073 135.323 111.077 135.585 111.077C136.247 111.077 136.817 110.877 137.293 110.475C137.778 110.074 138.021 109.486 138.021 108.711V105.869C137.265 106.849 136.541 107.559 135.851 107.997C135.169 108.436 134.465 108.655 133.737 108.655C133.065 108.655 132.472 108.385 131.959 107.843C131.445 107.293 131.189 106.677 131.189 105.995ZM132.197 106.023C132.197 106.555 132.383 106.961 132.757 107.241C133.13 107.512 133.527 107.647 133.947 107.647C134.432 107.647 134.987 107.409 135.613 106.933C136.238 106.448 136.756 105.911 137.167 105.323C137.587 104.726 137.797 104.259 137.797 103.923C137.797 103.643 137.713 103.396 137.545 103.181C137.386 102.957 137.185 102.794 136.943 102.691C136.709 102.589 136.495 102.514 136.299 102.467C136.103 102.411 135.939 102.383 135.809 102.383C134.894 102.383 134.063 102.752 133.317 103.489C132.57 104.217 132.197 105.062 132.197 106.023ZM140.711 107.591C140.711 107.349 140.8 107.153 140.977 107.003C141.164 106.854 141.402 106.779 141.691 106.779C142.298 106.779 142.601 107.134 142.601 107.843C142.601 108.245 142.424 108.697 142.069 109.201C141.714 109.705 141.448 109.957 141.271 109.957C141.103 109.957 141.019 109.901 141.019 109.789C141.019 109.743 141.056 109.584 141.131 109.313C141.215 109.052 141.257 108.861 141.257 108.739C141.257 108.618 141.224 108.539 141.159 108.501C140.86 108.296 140.711 107.993 140.711 107.591ZM29.1875 125.151V116.121C29.1875 116 29.2575 115.902 29.3975 115.827C29.5468 115.743 29.7101 115.701 29.8875 115.701C30.0835 115.701 30.2141 115.757 30.2795 115.869L33.5835 120.755L36.9015 115.869C36.9668 115.757 37.0835 115.701 37.2515 115.701C37.4195 115.701 37.5828 115.743 37.7415 115.827C37.9001 115.911 37.9795 116.009 37.9795 116.121V125.151C37.9795 125.273 37.9281 125.371 37.8255 125.445C37.7228 125.511 37.6015 125.543 37.4615 125.543C37.1161 125.543 36.9435 125.413 36.9435 125.151V117.633L34.3955 121.329C34.1715 121.656 33.8961 121.819 33.5695 121.819C33.2708 121.819 33.0048 121.656 32.7715 121.329L30.2235 117.633V125.151C30.2235 125.273 30.1721 125.371 30.0695 125.445C29.9668 125.511 29.8455 125.543 29.7055 125.543C29.3601 125.543 29.1875 125.413 29.1875 125.151ZM39.7493 122.687C39.7493 122.603 39.7493 122.188 39.7493 121.441C39.7586 120.685 39.7633 119.85 39.7633 118.935C39.7633 118.814 39.8146 118.721 39.9173 118.655C40.0199 118.581 40.1413 118.543 40.2813 118.543C40.6266 118.543 40.7993 118.674 40.7993 118.935V122.561C40.7993 123.224 41.0326 123.742 41.4993 124.115C41.9753 124.479 42.4653 124.661 42.9693 124.661C43.6039 124.661 44.2806 124.433 44.9993 123.975C45.7273 123.509 46.2313 122.93 46.5113 122.239V118.921C46.5113 118.669 46.6886 118.543 47.0433 118.543C47.1833 118.543 47.2999 118.576 47.3933 118.641C47.4959 118.707 47.5473 118.8 47.5473 118.921V125.165C47.5473 125.287 47.4959 125.38 47.3933 125.445C47.2999 125.511 47.1833 125.543 47.0433 125.543C46.6886 125.543 46.5113 125.417 46.5113 125.165V124.017C46.0446 124.531 45.4846 124.937 44.8313 125.235C44.1873 125.534 43.5246 125.683 42.8433 125.683C41.9659 125.683 41.2286 125.403 40.6313 124.843C40.0433 124.283 39.7493 123.565 39.7493 122.687ZM48.9322 124.213C48.9322 124.092 48.9835 123.961 49.0862 123.821C49.1982 123.681 49.3242 123.593 49.4642 123.555C49.5295 123.555 49.5622 123.565 49.5622 123.583C49.8608 123.91 50.2902 124.167 50.8502 124.353C51.4102 124.531 51.8488 124.633 52.1662 124.661C52.4928 124.689 52.7962 124.703 53.0762 124.703C54.2895 124.703 54.8962 124.335 54.8962 123.597C54.8962 123.345 54.8028 123.145 54.6162 122.995C54.4388 122.837 54.1915 122.729 53.8742 122.673C53.5662 122.617 53.2535 122.58 52.9362 122.561C52.6188 122.543 52.2735 122.529 51.9002 122.519C51.5268 122.501 51.2422 122.473 51.0462 122.435C50.5142 122.333 50.0428 122.118 49.6322 121.791C49.2215 121.455 49.0162 121.063 49.0162 120.615C49.0162 119.906 49.3708 119.365 50.0802 118.991C50.7988 118.609 51.5875 118.417 52.4462 118.417C53.0248 118.417 53.6455 118.52 54.3082 118.725C54.9708 118.921 55.4655 119.229 55.7922 119.649C55.8015 119.668 55.8062 119.691 55.8062 119.719C55.8062 119.841 55.7502 119.985 55.6382 120.153C55.5262 120.312 55.4188 120.391 55.3162 120.391C55.2228 120.391 55.1295 120.317 55.0362 120.167C54.5882 119.691 53.6968 119.453 52.3622 119.453C51.8115 119.453 51.2888 119.547 50.7942 119.733C50.2995 119.92 50.0522 120.195 50.0522 120.559C50.0522 120.867 50.2668 121.101 50.6962 121.259C51.1255 121.409 51.5828 121.483 52.0682 121.483C52.4135 121.483 52.7028 121.488 52.9362 121.497C53.1695 121.507 53.4542 121.535 53.7902 121.581C54.1262 121.619 54.4062 121.689 54.6302 121.791C54.8542 121.885 55.0735 122.011 55.2882 122.169C55.5028 122.319 55.6615 122.524 55.7642 122.785C55.8762 123.037 55.9322 123.336 55.9322 123.681C55.9322 124.157 55.7828 124.559 55.4842 124.885C55.1948 125.203 54.8588 125.422 54.4762 125.543C54.1028 125.674 53.7062 125.739 53.2862 125.739C51.3168 125.739 49.8982 125.319 49.0302 124.479C48.9648 124.414 48.9322 124.325 48.9322 124.213ZM57.3336 125.151V118.921C57.3336 118.669 57.5109 118.543 57.8656 118.543C58.0056 118.543 58.1223 118.576 58.2156 118.641C58.3183 118.707 58.3696 118.8 58.3696 118.921V125.151C58.3696 125.273 58.3183 125.371 58.2156 125.445C58.1129 125.511 57.9916 125.543 57.8516 125.543C57.5063 125.543 57.3336 125.413 57.3336 125.151ZM57.3336 116.751V116.499C57.3336 116.247 57.5109 116.121 57.8656 116.121C58.0056 116.121 58.1223 116.154 58.2156 116.219C58.3183 116.285 58.3696 116.378 58.3696 116.499V116.751C58.3696 116.873 58.3183 116.971 58.2156 117.045C58.1129 117.111 57.9916 117.143 57.8516 117.143C57.5063 117.143 57.3336 117.013 57.3336 116.751ZM59.7463 122.071C59.7463 121.269 59.961 120.578 60.3903 119.999C60.8196 119.411 61.3376 118.987 61.9443 118.725C62.551 118.464 63.1856 118.333 63.8483 118.333C64.6883 118.333 65.4676 118.623 66.1863 119.201C66.261 119.267 66.2983 119.351 66.2983 119.453C66.2983 119.603 66.2376 119.743 66.1163 119.873C65.995 119.995 65.869 120.055 65.7383 120.055C65.645 120.055 65.5656 120.023 65.5003 119.957C65.0523 119.565 64.4923 119.369 63.8203 119.369C62.8683 119.369 62.1216 119.659 61.5803 120.237C61.0483 120.816 60.7823 121.432 60.7823 122.085C60.7823 122.748 61.0903 123.355 61.7063 123.905C62.3223 124.447 63.0316 124.717 63.8343 124.717C64.6556 124.717 65.323 124.423 65.8363 123.835C65.939 123.733 66.0276 123.681 66.1023 123.681C66.2423 123.681 66.3776 123.751 66.5083 123.891C66.639 124.031 66.7043 124.167 66.7043 124.297C66.7043 124.381 66.6716 124.456 66.6063 124.521C65.8876 125.343 64.987 125.753 63.9043 125.753C62.7563 125.753 61.7763 125.394 60.9643 124.675C60.1523 123.947 59.7463 123.079 59.7463 122.071ZM71.3789 125.165V116.135C71.3789 115.874 71.5515 115.743 71.8969 115.743C72.2235 115.743 72.3869 115.944 72.3869 116.345C73.3482 115.935 74.2769 115.729 75.1729 115.729C76.4422 115.729 77.3755 116.033 77.9729 116.639C78.5702 117.246 78.8689 118.011 78.8689 118.935C78.8689 119.981 78.4629 120.732 77.6509 121.189C76.8389 121.647 75.6582 121.875 74.1089 121.875C73.9222 121.875 73.6375 121.861 73.2549 121.833C72.8815 121.805 72.6015 121.791 72.4149 121.791V125.165C72.4149 125.287 72.3635 125.38 72.2609 125.445C72.1675 125.511 72.0509 125.543 71.9109 125.543C71.5562 125.543 71.3789 125.417 71.3789 125.165ZM72.4149 120.587C72.7975 120.709 73.5675 120.769 74.7249 120.769C75.6582 120.769 76.4095 120.606 76.9789 120.279C77.5482 119.943 77.8329 119.444 77.8329 118.781C77.8329 118.212 77.6042 117.736 77.1469 117.353C76.6895 116.961 75.9849 116.765 75.0329 116.765C74.2115 116.765 73.3389 117.013 72.4149 117.507V120.587ZM80.0422 125.151V118.949C80.0422 118.697 80.2196 118.571 80.5742 118.571C80.7142 118.571 80.8309 118.604 80.9242 118.669C81.0269 118.735 81.0782 118.828 81.0782 118.949V120.699C81.4329 119.934 81.8249 119.355 82.2542 118.963C82.6929 118.571 83.2716 118.375 83.9902 118.375C84.4942 118.375 85.0029 118.441 85.5162 118.571C85.7869 118.702 85.9222 118.879 85.9222 119.103C85.9222 119.262 85.8896 119.374 85.8242 119.439C85.7589 119.505 85.6516 119.547 85.5022 119.565C85.0262 119.453 84.6389 119.397 84.3402 119.397C83.6496 119.397 83.0196 119.738 82.4502 120.419C81.8809 121.101 81.4236 121.987 81.0782 123.079V125.151C81.0782 125.273 81.0269 125.371 80.9242 125.445C80.8216 125.511 80.7002 125.543 80.5602 125.543C80.2149 125.543 80.0422 125.413 80.0422 125.151ZM86.4201 122.071C86.4201 121.269 86.6301 120.578 87.0501 119.999C87.4794 119.411 87.9928 118.987 88.5901 118.725C89.1968 118.464 89.8314 118.333 90.4941 118.333C91.4274 118.333 92.2861 118.688 93.0701 119.397C93.8634 120.097 94.2601 120.984 94.2601 122.057C94.2601 123.075 93.9101 123.947 93.2101 124.675C92.5101 125.394 91.5954 125.753 90.4661 125.753C89.3554 125.753 88.4034 125.394 87.6101 124.675C86.8168 123.947 86.4201 123.079 86.4201 122.071ZM87.4561 122.085C87.4561 122.748 87.7594 123.355 88.3661 123.905C88.9728 124.447 89.6774 124.717 90.4801 124.717C91.2361 124.717 91.8801 124.442 92.4121 123.891C92.9534 123.341 93.2241 122.729 93.2241 122.057C93.2241 121.404 92.9674 120.793 92.4541 120.223C91.9408 119.654 91.2781 119.369 90.4661 119.369C89.5141 119.369 88.7721 119.659 88.2401 120.237C87.7174 120.816 87.4561 121.432 87.4561 122.085ZM95.3205 122.995C95.3205 121.745 95.8105 120.667 96.7905 119.761C97.7705 118.856 98.8812 118.403 100.123 118.403C100.897 118.403 101.574 118.679 102.153 119.229V115.407C102.153 115.165 102.321 115.043 102.657 115.043C103.011 115.043 103.189 115.165 103.189 115.407V125.151C103.189 125.413 103.016 125.543 102.671 125.543C102.531 125.543 102.409 125.511 102.307 125.445C102.204 125.371 102.153 125.273 102.153 125.151V122.869C101.397 123.849 100.673 124.559 99.9825 124.997C99.3012 125.436 98.5965 125.655 97.8685 125.655C97.1965 125.655 96.6038 125.385 96.0905 124.843C95.5772 124.293 95.3205 123.677 95.3205 122.995ZM96.3285 123.023C96.3285 123.555 96.5152 123.961 96.8885 124.241C97.2618 124.512 97.6585 124.647 98.0785 124.647C98.5638 124.647 99.1192 124.409 99.7445 123.933C100.37 123.448 100.888 122.911 101.299 122.323C101.719 121.726 101.929 121.259 101.929 120.923C101.929 120.643 101.845 120.396 101.677 120.181C101.518 119.957 101.317 119.794 101.075 119.691C100.841 119.589 100.627 119.514 100.431 119.467C100.235 119.411 100.071 119.383 99.9405 119.383C99.0258 119.383 98.1952 119.752 97.4485 120.489C96.7018 121.217 96.3285 122.062 96.3285 123.023ZM104.773 122.687C104.773 122.603 104.773 122.188 104.773 121.441C104.782 120.685 104.787 119.85 104.787 118.935C104.787 118.814 104.838 118.721 104.941 118.655C105.043 118.581 105.165 118.543 105.305 118.543C105.65 118.543 105.823 118.674 105.823 118.935V122.561C105.823 123.224 106.056 123.742 106.523 124.115C106.999 124.479 107.489 124.661 107.993 124.661C108.627 124.661 109.304 124.433 110.023 123.975C110.751 123.509 111.255 122.93 111.535 122.239V118.921C111.535 118.669 111.712 118.543 112.067 118.543C112.207 118.543 112.323 118.576 112.417 118.641C112.519 118.707 112.571 118.8 112.571 118.921V125.165C112.571 125.287 112.519 125.38 112.417 125.445C112.323 125.511 112.207 125.543 112.067 125.543C111.712 125.543 111.535 125.417 111.535 125.165V124.017C111.068 124.531 110.508 124.937 109.855 125.235C109.211 125.534 108.548 125.683 107.867 125.683C106.989 125.683 106.252 125.403 105.655 124.843C105.067 124.283 104.773 123.565 104.773 122.687ZM113.942 122.071C113.942 121.269 114.156 120.578 114.586 119.999C115.015 119.411 115.533 118.987 116.14 118.725C116.746 118.464 117.381 118.333 118.044 118.333C118.884 118.333 119.663 118.623 120.382 119.201C120.456 119.267 120.494 119.351 120.494 119.453C120.494 119.603 120.433 119.743 120.312 119.873C120.19 119.995 120.064 120.055 119.934 120.055C119.84 120.055 119.761 120.023 119.696 119.957C119.248 119.565 118.688 119.369 118.016 119.369C117.064 119.369 116.317 119.659 115.776 120.237C115.244 120.816 114.978 121.432 114.978 122.085C114.978 122.748 115.286 123.355 115.902 123.905C116.518 124.447 117.227 124.717 118.03 124.717C118.851 124.717 119.518 124.423 120.032 123.835C120.134 123.733 120.223 123.681 120.298 123.681C120.438 123.681 120.573 123.751 120.704 123.891C120.834 124.031 120.9 124.167 120.9 124.297C120.9 124.381 120.867 124.456 120.802 124.521C120.083 125.343 119.182 125.753 118.1 125.753C116.952 125.753 115.972 125.394 115.16 124.675C114.348 123.947 113.942 123.079 113.942 122.071ZM121.553 119.061C121.553 118.921 121.586 118.8 121.651 118.697C121.726 118.595 121.824 118.543 121.945 118.543H122.421V116.821C122.421 116.7 122.468 116.607 122.561 116.541C122.664 116.476 122.785 116.443 122.925 116.443C123.28 116.443 123.457 116.569 123.457 116.821V118.543H125.697C125.819 118.543 125.912 118.595 125.977 118.697C126.043 118.791 126.075 118.907 126.075 119.047C126.075 119.402 125.949 119.579 125.697 119.579H123.457V122.925C123.457 123.971 123.854 124.493 124.647 124.493C124.983 124.493 125.273 124.4 125.515 124.213C125.767 124.027 125.893 123.7 125.893 123.233C125.893 123.103 125.945 122.995 126.047 122.911C126.159 122.827 126.29 122.785 126.439 122.785C126.579 122.785 126.696 122.827 126.789 122.911C126.883 122.986 126.929 123.098 126.929 123.247C126.92 123.985 126.696 124.549 126.257 124.941C125.828 125.333 125.291 125.529 124.647 125.529C123.163 125.529 122.421 124.535 122.421 122.547V119.579H121.945C121.684 119.579 121.553 119.407 121.553 119.061ZM128.004 125.151V118.921C128.004 118.669 128.181 118.543 128.536 118.543C128.676 118.543 128.792 118.576 128.886 118.641C128.988 118.707 129.04 118.8 129.04 118.921V125.151C129.04 125.273 128.988 125.371 128.886 125.445C128.783 125.511 128.662 125.543 128.522 125.543C128.176 125.543 128.004 125.413 128.004 125.151ZM128.004 116.751V116.499C128.004 116.247 128.181 116.121 128.536 116.121C128.676 116.121 128.792 116.154 128.886 116.219C128.988 116.285 129.04 116.378 129.04 116.499V116.751C129.04 116.873 128.988 116.971 128.886 117.045C128.783 117.111 128.662 117.143 128.522 117.143C128.176 117.143 128.004 117.013 128.004 116.751ZM130.416 122.071C130.416 121.269 130.626 120.578 131.046 119.999C131.476 119.411 131.989 118.987 132.586 118.725C133.193 118.464 133.828 118.333 134.49 118.333C135.424 118.333 136.282 118.688 137.066 119.397C137.86 120.097 138.256 120.984 138.256 122.057C138.256 123.075 137.906 123.947 137.206 124.675C136.506 125.394 135.592 125.753 134.462 125.753C133.352 125.753 132.4 125.394 131.606 124.675C130.813 123.947 130.416 123.079 130.416 122.071ZM131.452 122.085C131.452 122.748 131.756 123.355 132.362 123.905C132.969 124.447 133.674 124.717 134.476 124.717C135.232 124.717 135.876 124.442 136.408 123.891C136.95 123.341 137.22 122.729 137.22 122.057C137.22 121.404 136.964 120.793 136.45 120.223C135.937 119.654 135.274 119.369 134.462 119.369C133.51 119.369 132.768 119.659 132.236 120.237C131.714 120.816 131.452 121.432 131.452 122.085ZM139.625 125.179V118.921C139.625 118.8 139.671 118.707 139.765 118.641C139.867 118.576 139.989 118.543 140.129 118.543C140.483 118.543 140.661 118.669 140.661 118.921V120.027C141.127 119.523 141.692 119.127 142.355 118.837C143.017 118.539 143.689 118.389 144.371 118.389C145.248 118.389 145.981 118.665 146.569 119.215C147.166 119.757 147.465 120.466 147.465 121.343C147.465 121.427 147.46 121.857 147.451 122.631C147.451 123.397 147.451 124.237 147.451 125.151C147.451 125.273 147.399 125.371 147.297 125.445C147.194 125.511 147.073 125.543 146.933 125.543C146.587 125.543 146.415 125.413 146.415 125.151V121.469C146.415 120.807 146.177 120.298 145.701 119.943C145.234 119.589 144.749 119.411 144.245 119.411C143.563 119.411 142.863 119.64 142.145 120.097C141.435 120.545 140.941 121.115 140.661 121.805V125.179C140.661 125.431 140.483 125.557 140.129 125.557C139.989 125.557 139.867 125.525 139.765 125.459C139.671 125.394 139.625 125.301 139.625 125.179ZM149.017 124.591C149.017 124.349 149.105 124.153 149.283 124.003C149.469 123.854 149.707 123.779 149.997 123.779C150.603 123.779 150.907 124.134 150.907 124.843C150.907 125.245 150.729 125.697 150.375 126.201C150.02 126.705 149.754 126.957 149.577 126.957C149.409 126.957 149.325 126.901 149.325 126.789C149.325 126.743 149.362 126.584 149.437 126.313C149.521 126.052 149.563 125.861 149.563 125.739C149.563 125.618 149.53 125.539 149.465 125.501C149.166 125.296 149.017 124.993 149.017 124.591ZM71.8847 142.151V133.121C71.8847 132.869 72.0621 132.743 72.4167 132.743C72.5567 132.743 72.6734 132.776 72.7667 132.841C72.8694 132.907 72.9207 133 72.9207 133.121V133.233C73.5834 132.804 74.2321 132.589 74.8667 132.589C76.2667 132.589 77.4801 133.065 78.5067 134.017C79.5427 134.96 80.0607 136.145 80.0607 137.573C80.0607 138.469 79.8601 139.3 79.4587 140.065C79.0574 140.821 78.4507 141.447 77.6387 141.941C76.8267 142.427 75.8841 142.669 74.8107 142.669C74.0921 142.669 73.4621 142.497 72.9207 142.151C72.9207 142.273 72.8694 142.371 72.7667 142.445C72.6641 142.511 72.5427 142.543 72.4027 142.543C72.0574 142.543 71.8847 142.413 71.8847 142.151ZM72.9207 140.807C73.4341 141.358 74.0874 141.633 74.8807 141.633C76.1407 141.633 77.1441 141.223 77.8907 140.401C78.6374 139.58 79.0107 138.633 79.0107 137.559C79.0107 136.514 78.6281 135.599 77.8627 134.815C77.1067 134.022 76.1174 133.625 74.8947 133.625C74.2321 133.625 73.5741 133.854 72.9207 134.311V140.807ZM80.8064 140.625C80.8064 140.476 80.8531 140.364 80.9464 140.289C81.0491 140.205 81.1704 140.163 81.3104 140.163C81.4598 140.163 81.5904 140.205 81.7024 140.289C81.8144 140.373 81.8704 140.481 81.8704 140.611C81.8704 140.91 82.0571 141.143 82.4304 141.311C82.8038 141.47 83.1724 141.549 83.5364 141.549C84.0498 141.549 84.5351 141.344 84.9924 140.933C85.4591 140.523 85.6924 139.939 85.6924 139.183V133.121C85.6924 132.869 85.8698 132.743 86.2244 132.743C86.3644 132.743 86.4811 132.776 86.5744 132.841C86.6771 132.907 86.7284 133 86.7284 133.121V139.085C86.7284 140.168 86.3878 141.022 85.7064 141.647C85.0251 142.273 84.2784 142.585 83.4664 142.585C82.8691 142.585 82.2764 142.408 81.6884 142.053C81.1098 141.699 80.8158 141.223 80.8064 140.625ZM88.5055 142.151V135.921C88.5055 135.669 88.6828 135.543 89.0375 135.543C89.1775 135.543 89.2941 135.576 89.3875 135.641C89.4901 135.707 89.5415 135.8 89.5415 135.921V142.151C89.5415 142.273 89.4901 142.371 89.3875 142.445C89.2848 142.511 89.1635 142.543 89.0235 142.543C88.6781 142.543 88.5055 142.413 88.5055 142.151ZM88.5055 133.751V133.499C88.5055 133.247 88.6828 133.121 89.0375 133.121C89.1775 133.121 89.2941 133.154 89.3875 133.219C89.4901 133.285 89.5415 133.378 89.5415 133.499V133.751C89.5415 133.873 89.4901 133.971 89.3875 134.045C89.2848 134.111 89.1635 134.143 89.0235 134.143C88.6781 134.143 88.5055 134.013 88.5055 133.751ZM91.2262 142.179V135.921C91.2262 135.8 91.2728 135.707 91.3662 135.641C91.4688 135.576 91.5902 135.543 91.7302 135.543C92.0848 135.543 92.2622 135.669 92.2622 135.921V137.027C92.7288 136.523 93.2935 136.127 93.9562 135.837C94.6188 135.539 95.2908 135.389 95.9722 135.389C96.8495 135.389 97.5822 135.665 98.1702 136.215C98.7675 136.757 99.0662 137.466 99.0662 138.343C99.0662 138.427 99.0615 138.857 99.0522 139.631C99.0522 140.397 99.0522 141.237 99.0522 142.151C99.0522 142.273 99.0008 142.371 98.8982 142.445C98.7955 142.511 98.6742 142.543 98.5342 142.543C98.1888 142.543 98.0162 142.413 98.0162 142.151V138.469C98.0162 137.807 97.7782 137.298 97.3022 136.943C96.8355 136.589 96.3502 136.411 95.8462 136.411C95.1648 136.411 94.4648 136.64 93.7462 137.097C93.0368 137.545 92.5422 138.115 92.2622 138.805V142.179C92.2622 142.431 92.0848 142.557 91.7302 142.557C91.5902 142.557 91.4688 142.525 91.3662 142.459C91.2728 142.394 91.2262 142.301 91.2262 142.179ZM100.338 139.995C100.338 138.745 100.828 137.667 101.808 136.761C102.788 135.856 103.899 135.403 105.14 135.403C105.915 135.403 106.591 135.679 107.17 136.229V135.907C107.17 135.655 107.347 135.529 107.702 135.529C107.842 135.529 107.959 135.562 108.052 135.627C108.155 135.693 108.206 135.786 108.206 135.907V142.613C108.206 143.705 107.851 144.559 107.142 145.175C106.433 145.801 105.607 146.113 104.664 146.113C103.917 146.113 103.292 145.983 102.788 145.721C102.284 145.46 102.027 145.026 102.018 144.419C102.018 144.27 102.065 144.153 102.158 144.069C102.251 143.995 102.368 143.957 102.508 143.957C102.657 143.957 102.783 143.999 102.886 144.083C102.998 144.167 103.054 144.275 103.054 144.405C103.054 144.564 103.096 144.69 103.18 144.783C103.273 144.886 103.418 144.956 103.614 144.993C103.81 145.031 103.978 145.054 104.118 145.063C104.267 145.073 104.473 145.077 104.734 145.077C105.397 145.077 105.966 144.877 106.442 144.475C106.927 144.074 107.17 143.486 107.17 142.711V139.869C106.414 140.849 105.691 141.559 105 141.997C104.319 142.436 103.614 142.655 102.886 142.655C102.214 142.655 101.621 142.385 101.108 141.843C100.595 141.293 100.338 140.677 100.338 139.995ZM101.346 140.023C101.346 140.555 101.533 140.961 101.906 141.241C102.279 141.512 102.676 141.647 103.096 141.647C103.581 141.647 104.137 141.409 104.762 140.933C105.387 140.448 105.905 139.911 106.316 139.323C106.736 138.726 106.946 138.259 106.946 137.923C106.946 137.643 106.862 137.396 106.694 137.181C106.535 136.957 106.335 136.794 106.092 136.691C105.859 136.589 105.644 136.514 105.448 136.467C105.252 136.411 105.089 136.383 104.958 136.383C104.043 136.383 103.213 136.752 102.466 137.489C101.719 138.217 101.346 139.062 101.346 140.023Z" fill="black"/>
    <path d="M40.1933 39.48C40.1933 37.032 41.0733 35 42.8333 33.384C44.6093 31.752 46.6973 30.936 49.0973 30.936C50.5373 30.936 51.8733 31.432 53.1053 32.424C53.2333 32.536 53.2973 32.68 53.2973 32.856C53.2973 33.112 53.1933 33.352 52.9853 33.576C52.7773 33.784 52.5613 33.888 52.3373 33.888C52.1773 33.888 52.0413 33.832 51.9293 33.72C51.1613 33.048 50.2013 32.712 49.0493 32.712C46.9533 32.712 45.2493 33.392 43.9373 34.752C42.6413 36.096 41.9933 37.664 41.9933 39.456C41.9933 41.296 42.6333 42.92 43.9133 44.328C45.1933 45.736 46.9133 46.44 49.0733 46.44C50.4813 46.44 51.6253 45.936 52.5053 44.928C52.6813 44.752 52.8333 44.664 52.9613 44.664C53.2013 44.664 53.4333 44.784 53.6573 45.024C53.8813 45.264 53.9933 45.496 53.9933 45.72C53.9933 45.864 53.9373 45.992 53.8253 46.104C52.5933 47.512 51.0493 48.216 49.1933 48.216C47.3533 48.216 45.7373 47.8 44.3453 46.968C42.9533 46.12 41.9133 45.048 41.2253 43.752C40.5373 42.44 40.1933 41.016 40.1933 39.48ZM55.8808 47.328V36.696C55.8808 36.264 56.1848 36.048 56.7928 36.048C57.0328 36.048 57.2328 36.104 57.3928 36.216C57.5688 36.328 57.6568 36.488 57.6568 36.696V39.696C58.2648 38.384 58.9368 37.392 59.6728 36.72C60.4248 36.048 61.4168 35.712 62.6488 35.712C63.5128 35.712 64.3848 35.824 65.2648 36.048C65.7288 36.272 65.9608 36.576 65.9608 36.96C65.9608 37.232 65.9048 37.424 65.7928 37.536C65.6808 37.648 65.4968 37.72 65.2408 37.752C64.4248 37.56 63.7608 37.464 63.2488 37.464C62.0648 37.464 60.9848 38.048 60.0088 39.216C59.0328 40.384 58.2488 41.904 57.6568 43.776V47.328C57.6568 47.536 57.5688 47.704 57.3928 47.832C57.2168 47.944 57.0088 48 56.7688 48C56.1768 48 55.8808 47.776 55.8808 47.328ZM66.8143 41.664C66.8143 40.64 67.0383 39.728 67.4863 38.928C67.9343 38.128 68.5263 37.496 69.2623 37.032C69.9983 36.568 70.7903 36.224 71.6383 36C72.4863 35.76 73.3503 35.64 74.2303 35.64C75.7983 35.64 77.0143 35.984 77.8783 36.672C78.7423 37.344 79.1743 38.176 79.1743 39.168C79.1743 40.24 78.6703 41.152 77.6623 41.904C76.6543 42.656 75.2223 43.032 73.3663 43.032C71.7023 43.032 70.1183 42.792 68.6143 42.312C68.7903 43.496 69.3423 44.488 70.2703 45.288C71.1983 46.088 72.3423 46.488 73.7023 46.488C74.4223 46.488 75.1663 46.376 75.9343 46.152C76.7183 45.928 77.3343 45.608 77.7823 45.192C77.8463 45.064 77.9743 45 78.1663 45C78.3903 45 78.6303 45.104 78.8863 45.312C79.1423 45.504 79.2703 45.704 79.2703 45.912C78.8703 46.728 78.0863 47.328 76.9183 47.712C75.7663 48.08 74.6463 48.264 73.5583 48.264C71.5903 48.264 69.9743 47.616 68.7103 46.32C67.4463 45.024 66.8143 43.472 66.8143 41.664ZM68.7103 40.464C69.9103 40.992 71.3983 41.256 73.1743 41.256C74.5663 41.256 75.6223 41.04 76.3423 40.608C77.0623 40.16 77.4223 39.664 77.4223 39.12C77.4223 38.64 77.1183 38.24 76.5103 37.92C75.9183 37.584 75.0303 37.416 73.8463 37.416C72.5663 37.416 71.4943 37.704 70.6303 38.28C69.7823 38.84 69.1423 39.568 68.7103 40.464ZM81.1112 43.632C81.1112 41.488 81.9512 39.64 83.6312 38.088C85.3112 36.536 87.2152 35.76 89.3432 35.76C90.7992 35.76 92.0392 36.312 93.0632 37.416C94.0872 38.52 94.5992 39.776 94.5992 41.184L94.5752 47.472C94.5752 47.68 94.4712 47.848 94.2632 47.976C94.0712 48.088 93.8552 48.144 93.6152 48.144C93.0872 48.144 92.8232 47.92 92.8232 47.472V43.416C91.5272 45.096 90.2872 46.312 89.1032 47.064C87.9352 47.816 86.7272 48.192 85.4792 48.192C84.3272 48.192 83.3112 47.728 82.4312 46.8C81.5512 45.856 81.1112 44.8 81.1112 43.632ZM82.8392 43.68C82.8392 44.592 83.1592 45.288 83.7992 45.768C84.4392 46.232 85.1192 46.464 85.8392 46.464C86.6712 46.464 87.6232 46.056 88.6952 45.24C89.7672 44.408 90.6552 43.488 91.3592 42.48C92.0792 41.456 92.4392 40.656 92.4392 40.08C92.4392 39.6 92.2952 39.176 92.0072 38.808C91.7352 38.424 91.3912 38.144 90.9752 37.968C90.5752 37.792 90.2072 37.664 89.8712 37.584C89.5352 37.488 89.2552 37.44 89.0312 37.44C87.4632 37.44 86.0392 38.072 84.7592 39.336C83.4792 40.584 82.8392 42.032 82.8392 43.68ZM96.3863 36.888C96.3863 36.648 96.4423 36.44 96.5543 36.264C96.6823 36.088 96.8503 36 97.0583 36H97.8743V33.048C97.8743 32.84 97.9543 32.68 98.1143 32.568C98.2903 32.456 98.4983 32.4 98.7383 32.4C99.3463 32.4 99.6503 32.616 99.6503 33.048V36H103.49C103.698 36 103.858 36.088 103.97 36.264C104.082 36.424 104.138 36.624 104.138 36.864C104.138 37.472 103.922 37.776 103.49 37.776H99.6503V43.512C99.6503 45.304 100.33 46.2 101.69 46.2C102.266 46.2 102.762 46.04 103.178 45.72C103.61 45.4 103.826 44.84 103.826 44.04C103.826 43.816 103.914 43.632 104.09 43.488C104.282 43.344 104.506 43.272 104.762 43.272C105.002 43.272 105.202 43.344 105.362 43.488C105.522 43.616 105.602 43.808 105.602 44.064C105.586 45.328 105.202 46.296 104.45 46.968C103.714 47.64 102.794 47.976 101.69 47.976C99.1463 47.976 97.8743 46.272 97.8743 42.864V37.776H97.0583C96.6103 37.776 96.3863 37.48 96.3863 36.888ZM107.444 47.328V36.648C107.444 36.216 107.748 36 108.356 36C108.596 36 108.796 36.056 108.956 36.168C109.132 36.28 109.22 36.44 109.22 36.648V47.328C109.22 47.536 109.132 47.704 108.956 47.832C108.78 47.944 108.572 48 108.332 48C107.74 48 107.444 47.776 107.444 47.328ZM107.444 32.928V32.496C107.444 32.064 107.748 31.848 108.356 31.848C108.596 31.848 108.796 31.904 108.956 32.016C109.132 32.128 109.22 32.288 109.22 32.496V32.928C109.22 33.136 109.132 33.304 108.956 33.432C108.78 33.544 108.572 33.6 108.332 33.6C107.74 33.6 107.444 33.376 107.444 32.928ZM111.148 36.888C111.148 36.648 111.268 36.44 111.508 36.264C111.748 36.088 111.988 36 112.228 36C112.484 36 112.676 36.12 112.804 36.36L117.724 45.12L122.668 36.36C122.796 36.12 122.988 36 123.244 36C123.484 36 123.724 36.088 123.964 36.264C124.204 36.44 124.324 36.648 124.324 36.888C124.324 37 124.308 37.08 124.276 37.128L118.708 47.16C118.436 47.72 118.108 48 117.724 48C117.356 48 117.036 47.72 116.764 47.16L111.196 37.128C111.164 37.08 111.148 37 111.148 36.888ZM125.502 41.664C125.502 40.64 125.726 39.728 126.174 38.928C126.622 38.128 127.214 37.496 127.95 37.032C128.686 36.568 129.478 36.224 130.326 36C131.174 35.76 132.038 35.64 132.918 35.64C134.486 35.64 135.702 35.984 136.566 36.672C137.43 37.344 137.862 38.176 137.862 39.168C137.862 40.24 137.358 41.152 136.35 41.904C135.342 42.656 133.91 43.032 132.054 43.032C130.39 43.032 128.806 42.792 127.302 42.312C127.478 43.496 128.03 44.488 128.958 45.288C129.886 46.088 131.03 46.488 132.39 46.488C133.11 46.488 133.854 46.376 134.622 46.152C135.406 45.928 136.022 45.608 136.47 45.192C136.534 45.064 136.662 45 136.854 45C137.078 45 137.318 45.104 137.574 45.312C137.83 45.504 137.958 45.704 137.958 45.912C137.558 46.728 136.774 47.328 135.606 47.712C134.454 48.08 133.334 48.264 132.246 48.264C130.278 48.264 128.662 47.616 127.398 46.32C126.134 45.024 125.502 43.472 125.502 41.664ZM127.398 40.464C128.598 40.992 130.086 41.256 131.862 41.256C133.254 41.256 134.31 41.04 135.03 40.608C135.75 40.16 136.11 39.664 136.11 39.12C136.11 38.64 135.806 38.24 135.198 37.92C134.606 37.584 133.718 37.416 132.534 37.416C131.254 37.416 130.182 37.704 129.318 38.28C128.47 38.84 127.83 39.568 127.398 40.464Z" fill="black"/>
    <defs>
        <filter id="filter0_d" x="161.516" y="0" width="39.4837" height="40.1914" filterUnits="userSpaceOnUse" color-interpolation-filters="sRGB">
            <feFlood flood-opacity="0" result="BackgroundImageFix"/>
            <feColorMatrix in="SourceAlpha" type="matrix" values="0 0 0 0 0 0 0 0 0 0 0 0 0 0 0 0 0 0 127 0"/>
            <feOffset dy="4"/>
            <feGaussianBlur stdDeviation="2"/>
            <feColorMatrix type="matrix" values="0 0 0 0 0 0 0 0 0 0 0 0 0 0 0 0 0 0 0.25 0"/>
            <feBlend mode="normal" in2="BackgroundImageFix" result="effect1_dropShadow"/>
            <feBlend mode="normal" in="SourceGraphic" in2="effect1_dropShadow" result="shape"/>
        </filter>
    </defs>
</svg>
