<svg width="201" height="149" viewBox="0 0 201 149" fill="none" xmlns="http://www.w3.org/2000/svg">
    <rect x="0.501953" y="18.8951" width="178.907" height="129.605" rx="2.5" fill="#F3F3F3" stroke="#D4D0D0"/>
    <line y1="54.2793" x2="179.907" y2="54.2793" stroke="#D4D0D0"/>
    <g filter="url(#filter0_d)">
        <ellipse cx="181.257" cy="16.0957" rx="15.7419" ry="16.0957" fill="#565151"/>
    </g>
    <rect x="179.908" y="6.43828" width="3.59814" height="18.3951" rx="1.79907" fill="#0CE8D4"/>
    <rect x="172.713" y="17.4753" width="3.67901" height="17.9907" rx="1.83951" transform="rotate(-90 172.713 17.4753)" fill="#0CE8D4"/>
    <path d="M30.1734 64.5032H35.5774C35.8668 64.5032 36.0114 64.6292 36.0114 64.8812C36.0114 65.0679 35.9741 65.1985 35.8994 65.2732C35.8341 65.3479 35.7034 65.3852 35.5074 65.3852H30.8034L30.3274 69.7672H34.6814C35.0081 69.7672 35.1714 69.8885 35.1714 70.1312C35.1714 70.3179 35.1294 70.4532 35.0454 70.5372C34.9708 70.6119 34.8354 70.6492 34.6394 70.6492H30.2154L29.5014 76.2912C29.4641 76.5899 29.2728 76.7392 28.9274 76.7392C28.5914 76.7392 28.4234 76.6085 28.4234 76.3472L29.7814 64.9792C29.8281 64.6619 29.9588 64.5032 30.1734 64.5032ZM36.7077 76.7392C36.5677 76.7392 36.4697 76.7205 36.4137 76.6832C36.3577 76.6459 36.3297 76.5712 36.3297 76.4592L37.1277 69.7952C37.1557 69.5619 37.3377 69.4452 37.6737 69.4452C38.0097 69.4452 38.1777 69.5385 38.1777 69.7252L37.3657 76.3892C37.3377 76.6225 37.1184 76.7392 36.7077 76.7392ZM38.7377 66.8552C38.7377 67.4339 38.4717 67.7232 37.9397 67.7232C37.5197 67.7232 37.3097 67.5459 37.3097 67.1912C37.3097 66.6219 37.5757 66.3372 38.1077 66.3372C38.5277 66.3372 38.7377 66.5099 38.7377 66.8552ZM40.1537 69.6412H40.9797L41.2317 67.4852C41.2503 67.3452 41.339 67.2332 41.4977 67.1492C41.6563 67.0652 41.8103 67.0232 41.9597 67.0232C42.109 67.0232 42.2023 67.0325 42.2397 67.0512C42.277 67.0699 42.2957 67.1165 42.2957 67.1912L42.0017 69.6412H43.3037C43.5183 69.6412 43.6257 69.7812 43.6257 70.0612C43.6257 70.1825 43.5837 70.2992 43.4997 70.4112C43.4157 70.5232 43.3177 70.5792 43.2057 70.5792H41.8757L41.5117 73.6452C41.465 74.0185 41.4417 74.3825 41.4417 74.7372C41.4417 75.0919 41.479 75.4372 41.5537 75.7732C41.6377 76.1092 41.6797 76.3005 41.6797 76.3472C41.6797 76.4592 41.591 76.5525 41.4137 76.6272C41.2457 76.7019 41.0823 76.7392 40.9237 76.7392C40.7743 76.7392 40.6483 76.5572 40.5457 76.1932C40.4523 75.8199 40.4057 75.4372 40.4057 75.0452C40.4057 74.6439 40.4337 74.1772 40.4897 73.6452L40.8537 70.5792H40.0557C39.8503 70.5792 39.7477 70.4439 39.7477 70.1732C39.7477 70.0425 39.785 69.9212 39.8597 69.8092C39.9437 69.6972 40.0417 69.6412 40.1537 69.6412ZM49.3147 71.6012L49.3427 71.3912C49.3427 70.7099 48.9227 70.3692 48.0827 70.3692C47.392 70.3692 46.832 70.6865 46.4027 71.3212C45.9734 71.9465 45.6934 72.7772 45.5627 73.8132L45.2407 76.3892C45.2127 76.6225 44.9934 76.7392 44.5827 76.7392C44.4427 76.7392 44.3447 76.7205 44.2887 76.6832C44.2327 76.6459 44.2047 76.5712 44.2047 76.4592L45.0027 69.7952C45.0307 69.5619 45.2127 69.4452 45.5487 69.4452C45.8847 69.4452 46.0527 69.5385 46.0527 69.7252L45.9267 70.7052H46.0107C46.5894 69.8652 47.3267 69.4452 48.2227 69.4452C48.932 69.4452 49.4734 69.6132 49.8467 69.9492C50.2294 70.2759 50.4207 70.7285 50.4207 71.3072C50.4207 71.3912 50.206 73.0852 49.7767 76.3892C49.7487 76.6225 49.52 76.7392 49.0907 76.7392C48.848 76.7392 48.7267 76.6459 48.7267 76.4592L49.3147 71.6012ZM56.5014 71.0132C56.5014 70.7799 56.4267 70.6025 56.2774 70.4812C56.1374 70.3505 55.9507 70.2852 55.7174 70.2852C55.2134 70.2852 54.6907 70.5185 54.1494 70.9852C53.6081 71.4425 53.2721 72.0585 53.1414 72.8332C54.0094 72.8332 54.7841 72.6605 55.4654 72.3152C56.1561 71.9699 56.5014 71.5359 56.5014 71.0132ZM51.9514 73.6452C51.9514 72.9639 52.0774 72.3432 52.3294 71.7832C52.5814 71.2232 52.8987 70.7799 53.2814 70.4532C54.0841 69.7812 54.9147 69.4452 55.7734 69.4452C56.2867 69.4452 56.7067 69.5712 57.0334 69.8232C57.3601 70.0659 57.5234 70.4159 57.5234 70.8732C57.5234 71.6945 57.0941 72.3665 56.2354 72.8892C55.3861 73.4025 54.3361 73.6592 53.0854 73.6592C53.0854 74.3592 53.2487 74.9052 53.5754 75.2972C53.9021 75.6799 54.3734 75.8712 54.9894 75.8712C55.2787 75.8712 55.5587 75.8105 55.8294 75.6892C56.1001 75.5679 56.3147 75.4419 56.4734 75.3112L56.7114 75.1292C56.8141 75.1292 56.9027 75.1992 56.9774 75.3392C57.0521 75.4792 57.0894 75.6192 57.0894 75.7592C57.0894 75.9272 56.8421 76.1325 56.3474 76.3752C55.8621 76.6179 55.3907 76.7392 54.9334 76.7392C53.9627 76.7392 53.2207 76.4732 52.7074 75.9412C52.2034 75.3999 51.9514 74.6345 51.9514 73.6452ZM62.3945 74.8352C62.3945 75.3392 62.1985 75.7825 61.8065 76.1652C61.4145 76.5479 60.9152 76.7392 60.3085 76.7392C59.7019 76.7392 59.1699 76.6365 58.7125 76.4312C58.2552 76.2259 58.0265 76.0439 58.0265 75.8852C58.0265 75.7265 58.0592 75.5772 58.1245 75.4372C58.1992 75.2879 58.3019 75.2132 58.4325 75.2132C58.4419 75.2132 58.5165 75.2692 58.6565 75.3812C58.8059 75.4839 59.0159 75.5912 59.2865 75.7032C59.5572 75.8152 59.8419 75.8712 60.1405 75.8712C60.4392 75.8712 60.7099 75.7965 60.9525 75.6472C61.2045 75.4979 61.3305 75.2832 61.3305 75.0032C61.3305 74.7139 61.2419 74.4525 61.0645 74.2192C60.8965 73.9765 60.6865 73.7619 60.4345 73.5752C60.1825 73.3792 59.9305 73.1832 59.6785 72.9872C59.4265 72.7819 59.2119 72.5392 59.0345 72.2592C58.8665 71.9699 58.7825 71.6619 58.7825 71.3352C58.7825 70.8312 58.9692 70.3925 59.3425 70.0192C59.7252 69.6365 60.1779 69.4452 60.7005 69.4452C61.2232 69.4452 61.6432 69.5152 61.9605 69.6552C62.2779 69.7859 62.4365 69.9259 62.4365 70.0752C62.4365 70.2245 62.3992 70.3692 62.3245 70.5092C62.2592 70.6492 62.1705 70.7192 62.0585 70.7192C62.0492 70.7192 61.9932 70.6865 61.8905 70.6212C61.5639 70.4159 61.2232 70.3132 60.8685 70.3132C60.5139 70.3132 60.2432 70.3972 60.0565 70.5652C59.8792 70.7239 59.7905 70.9339 59.7905 71.1952C59.7905 71.4565 59.8792 71.6992 60.0565 71.9232C60.2339 72.1472 60.4485 72.3572 60.7005 72.5532C60.9619 72.7492 61.2185 72.9545 61.4705 73.1692C61.7319 73.3745 61.9512 73.6219 62.1285 73.9112C62.3059 74.2005 62.3945 74.5085 62.3945 74.8352ZM67.6035 74.8352C67.6035 75.3392 67.4075 75.7825 67.0155 76.1652C66.6235 76.5479 66.1242 76.7392 65.5175 76.7392C64.9108 76.7392 64.3788 76.6365 63.9215 76.4312C63.4642 76.2259 63.2355 76.0439 63.2355 75.8852C63.2355 75.7265 63.2682 75.5772 63.3335 75.4372C63.4082 75.2879 63.5108 75.2132 63.6415 75.2132C63.6508 75.2132 63.7255 75.2692 63.8655 75.3812C64.0148 75.4839 64.2248 75.5912 64.4955 75.7032C64.7662 75.8152 65.0508 75.8712 65.3495 75.8712C65.6482 75.8712 65.9188 75.7965 66.1615 75.6472C66.4135 75.4979 66.5395 75.2832 66.5395 75.0032C66.5395 74.7139 66.4508 74.4525 66.2735 74.2192C66.1055 73.9765 65.8955 73.7619 65.6435 73.5752C65.3915 73.3792 65.1395 73.1832 64.8875 72.9872C64.6355 72.7819 64.4208 72.5392 64.2435 72.2592C64.0755 71.9699 63.9915 71.6619 63.9915 71.3352C63.9915 70.8312 64.1782 70.3925 64.5515 70.0192C64.9342 69.6365 65.3868 69.4452 65.9095 69.4452C66.4322 69.4452 66.8522 69.5152 67.1695 69.6552C67.4868 69.7859 67.6455 69.9259 67.6455 70.0752C67.6455 70.2245 67.6082 70.3692 67.5335 70.5092C67.4682 70.6492 67.3795 70.7192 67.2675 70.7192C67.2582 70.7192 67.2022 70.6865 67.0995 70.6212C66.7728 70.4159 66.4322 70.3132 66.0775 70.3132C65.7228 70.3132 65.4522 70.3972 65.2655 70.5652C65.0882 70.7239 64.9995 70.9339 64.9995 71.1952C64.9995 71.4565 65.0882 71.6992 65.2655 71.9232C65.4428 72.1472 65.6575 72.3572 65.9095 72.5532C66.1708 72.7492 66.4275 72.9545 66.6795 73.1692C66.9408 73.3745 67.1602 73.6219 67.3375 73.9112C67.5148 74.2005 67.6035 74.5085 67.6035 74.8352ZM69.6485 79.0352C69.5738 79.2592 69.4105 79.3712 69.1585 79.3712C68.9065 79.3712 68.7805 79.2872 68.7805 79.1192C68.7805 79.1099 68.7805 79.0912 68.7805 79.0632C68.7898 79.0445 68.7992 79.0025 68.8085 78.9372C68.8178 78.8719 68.8318 78.7925 68.8505 78.6992C68.8692 78.6152 68.8925 78.4845 68.9205 78.3072C68.9578 78.1392 68.9952 77.9525 69.0325 77.7472C69.0698 77.5512 69.1165 77.2899 69.1725 76.9632C69.2378 76.6365 69.3032 76.2912 69.3685 75.9272C69.4338 75.5632 69.6578 75.3812 70.0405 75.3812C70.4232 75.3812 70.6145 75.5212 70.6145 75.8012C70.6145 76.0345 70.2925 77.1125 69.6485 79.0352ZM76.0846 64.7972L76.0706 64.6852C76.0706 64.4519 76.2572 64.3352 76.6306 64.3352C76.8079 64.3352 76.9386 64.3632 77.0226 64.4192C77.1066 64.4752 77.1812 64.5825 77.2466 64.7412L79.2206 69.9212L83.0286 64.5872C83.1499 64.4192 83.3319 64.3352 83.5746 64.3352C83.9386 64.3352 84.1206 64.4659 84.1206 64.7272C84.1206 64.8952 84.0692 65.0445 83.9666 65.1752L79.6126 71.0412L78.9546 76.2912C78.9172 76.5899 78.7259 76.7392 78.3806 76.7392C78.0446 76.7392 77.8766 76.6319 77.8766 76.4172C77.8766 76.3519 77.8812 76.2819 77.8906 76.2072L78.5206 70.9992L76.0846 64.7972ZM85.9169 69.4452C86.7849 69.4452 87.4569 69.7485 87.9329 70.3552C88.4183 70.9619 88.6609 71.7039 88.6609 72.5812C88.6609 73.7385 88.3156 74.7232 87.6249 75.5352C86.9436 76.3379 86.0569 76.7392 84.9649 76.7392C84.0969 76.7392 83.4249 76.4452 82.9489 75.8572C82.4823 75.2599 82.2396 74.5225 82.2209 73.6452C82.2209 72.6279 82.5056 71.6945 83.0749 70.8452C83.3643 70.4252 83.7516 70.0892 84.2369 69.8372C84.7316 69.5759 85.2916 69.4452 85.9169 69.4452ZM84.4329 70.8312C84.0409 71.1672 83.7609 71.5732 83.5929 72.0492C83.4249 72.5159 83.3409 73.0572 83.3409 73.6732C83.3409 74.2799 83.4856 74.7979 83.7749 75.2272C84.0643 75.6565 84.5309 75.8712 85.1749 75.8712C85.8283 75.8712 86.3929 75.5585 86.8689 74.9332C87.3449 74.3079 87.5829 73.6032 87.5829 72.8192C87.5829 72.0352 87.4336 71.4239 87.1349 70.9852C86.8363 70.5372 86.4069 70.3132 85.8469 70.3132C85.2963 70.3132 84.8249 70.4859 84.4329 70.8312ZM94.4278 70.3132C93.4012 70.3132 92.5472 70.6819 91.8658 71.4192C91.1845 72.1565 90.8438 73.0432 90.8438 74.0792C90.8438 74.5739 90.9605 74.9892 91.1938 75.3252C91.4272 75.6519 91.7678 75.8152 92.2158 75.8152C93.4665 75.8152 94.2365 74.6392 94.5258 72.2872L94.7638 70.3552C94.6985 70.3272 94.5865 70.3132 94.4278 70.3132ZM94.1338 75.5772C93.8258 75.9972 93.4992 76.2959 93.1538 76.4732C92.8085 76.6505 92.3558 76.7392 91.7958 76.7392C91.2452 76.7392 90.7552 76.5245 90.3258 76.0952C89.9058 75.6659 89.6958 75.0359 89.6958 74.2052C89.6958 73.3092 89.9105 72.4832 90.3398 71.7272C90.5918 71.2885 90.9045 70.9059 91.2778 70.5792C91.6605 70.2432 92.1598 69.9725 92.7758 69.7672C93.3918 69.5525 94.0545 69.4452 94.7638 69.4452C95.4825 69.4452 95.8418 69.6505 95.8418 70.0612L94.8618 77.8172C94.7218 78.9372 94.4092 79.8052 93.9238 80.4212C93.4478 81.0372 92.6825 81.3452 91.6278 81.3452C91.2265 81.3452 90.8252 81.2939 90.4238 81.1912C90.0225 81.0885 89.7098 80.9719 89.4858 80.8412C89.2618 80.7105 89.1498 80.5799 89.1498 80.4492C89.1498 80.3279 89.1872 80.1739 89.2618 79.9872C89.3458 79.8099 89.4485 79.7212 89.5698 79.7212C89.5792 79.7212 89.6165 79.7445 89.6818 79.7912C89.7565 79.8472 89.8545 79.9079 89.9758 79.9732C90.0972 80.0479 90.2372 80.1179 90.3958 80.1832C90.7692 80.3605 91.2078 80.4492 91.7118 80.4492C92.2252 80.4492 92.6405 80.3139 92.9578 80.0432C93.2752 79.7725 93.5225 79.2965 93.6998 78.6152C93.8772 77.9432 94.0218 76.9305 94.1338 75.5772ZM98.0876 74.8212C98.0876 75.1012 98.181 75.3392 98.3676 75.5352C98.5636 75.7219 98.8203 75.8152 99.1376 75.8152C99.7163 75.8152 100.206 75.5259 100.608 74.9472C101.009 74.3592 101.27 73.6965 101.392 72.9592C100.197 73.0525 99.3476 73.2579 98.8436 73.5752C98.3396 73.8925 98.0876 74.3079 98.0876 74.8212ZM102.722 71.0552C102.722 71.3072 102.633 71.9325 102.456 72.9312C102.288 73.9205 102.204 74.6019 102.204 74.9752C102.204 75.3485 102.227 75.6565 102.274 75.8992C102.33 76.1419 102.358 76.2912 102.358 76.3472C102.358 76.4592 102.264 76.5525 102.078 76.6272C101.891 76.7019 101.714 76.7392 101.546 76.7392C101.34 76.7392 101.238 76.3192 101.238 75.4792V75.1152C100.967 75.6472 100.608 76.0532 100.16 76.3332C99.7116 76.6039 99.2403 76.7392 98.7456 76.7392C98.251 76.7392 97.831 76.5899 97.4856 76.2912C97.1496 75.9925 96.9816 75.5725 96.9816 75.0312C96.9816 74.2565 97.3363 73.6032 98.0456 73.0712C98.7643 72.5392 99.9403 72.2219 101.574 72.1192C101.62 71.8392 101.644 71.5499 101.644 71.2512C101.644 70.6725 101.214 70.3832 100.356 70.3832C99.9263 70.3832 99.4876 70.4719 99.0396 70.6492C98.601 70.8265 98.3723 70.9152 98.3536 70.9152C98.2323 70.9152 98.1343 70.8452 98.0596 70.7052C97.985 70.5559 97.9476 70.4019 97.9476 70.2432C97.9476 70.0845 98.237 69.9119 98.8156 69.7252C99.3943 69.5385 99.9683 69.4452 100.538 69.4452C101.107 69.4452 101.611 69.5759 102.05 69.8372C102.498 70.0892 102.722 70.4952 102.722 71.0552ZM105.031 79.0352C104.957 79.2592 104.793 79.3712 104.541 79.3712C104.289 79.3712 104.163 79.2872 104.163 79.1192C104.163 79.1099 104.163 79.0912 104.163 79.0632C104.173 79.0445 104.182 79.0025 104.191 78.9372C104.201 78.8719 104.215 78.7925 104.233 78.6992C104.252 78.6152 104.275 78.4845 104.303 78.3072C104.341 78.1392 104.378 77.9525 104.415 77.7472C104.453 77.5512 104.499 77.2899 104.555 76.9632C104.621 76.6365 104.686 76.2912 104.751 75.9272C104.817 75.5632 105.041 75.3812 105.423 75.3812C105.806 75.3812 105.997 75.5212 105.997 75.8012C105.997 76.0345 105.675 77.1125 105.031 79.0352ZM112.503 76.2912C112.466 76.5899 112.275 76.7392 111.929 76.7392C111.593 76.7392 111.425 76.6225 111.425 76.3892C111.425 76.3705 111.897 72.5345 112.839 64.8812C112.867 64.6945 113.007 64.5825 113.259 64.5452C114.519 64.4052 115.401 64.3352 115.905 64.3352C117.035 64.3352 117.931 64.5965 118.593 65.1192C119.256 65.6419 119.587 66.3979 119.587 67.3872C119.587 68.0872 119.419 68.7032 119.083 69.2352C118.757 69.7672 118.309 70.1872 117.739 70.4952C116.619 71.1019 115.252 71.4052 113.637 71.4052C113.395 71.4052 113.213 71.4005 113.091 71.3912L112.503 76.2912ZM118.453 67.3872C118.453 66.6779 118.225 66.1412 117.767 65.7772C117.319 65.4039 116.731 65.2172 116.003 65.2172C115.275 65.2172 114.557 65.2639 113.847 65.3572L113.231 70.4252C116.713 70.4252 118.453 69.4125 118.453 67.3872ZM120.421 76.7392C120.281 76.7392 120.183 76.7205 120.127 76.6832C120.071 76.6459 120.043 76.5712 120.043 76.4592L120.841 69.7952C120.869 69.5619 121.051 69.4452 121.387 69.4452C121.723 69.4452 121.891 69.5385 121.891 69.7252L121.079 76.3892C121.051 76.6225 120.831 76.7392 120.421 76.7392ZM122.451 66.8552C122.451 67.4339 122.185 67.7232 121.653 67.7232C121.233 67.7232 121.023 67.5459 121.023 67.1912C121.023 66.6219 121.289 66.3372 121.821 66.3372C122.241 66.3372 122.451 66.5099 122.451 66.8552ZM123.839 76.7392C123.699 76.7392 123.601 76.7205 123.545 76.6832C123.489 76.6459 123.461 76.5712 123.461 76.4592L124.889 64.4892C124.926 64.2465 125.108 64.1252 125.435 64.1252C125.771 64.1252 125.939 64.2232 125.939 64.4192L124.497 76.3892C124.469 76.6225 124.249 76.7392 123.839 76.7392ZM127.551 74.8212C127.551 75.1012 127.644 75.3392 127.831 75.5352C128.027 75.7219 128.283 75.8152 128.601 75.8152C129.179 75.8152 129.669 75.5259 130.071 74.9472C130.472 74.3592 130.733 73.6965 130.855 72.9592C129.66 73.0525 128.811 73.2579 128.307 73.5752C127.803 73.8925 127.551 74.3079 127.551 74.8212ZM132.185 71.0552C132.185 71.3072 132.096 71.9325 131.919 72.9312C131.751 73.9205 131.667 74.6019 131.667 74.9752C131.667 75.3485 131.69 75.6565 131.737 75.8992C131.793 76.1419 131.821 76.2912 131.821 76.3472C131.821 76.4592 131.727 76.5525 131.541 76.6272C131.354 76.7019 131.177 76.7392 131.009 76.7392C130.803 76.7392 130.701 76.3192 130.701 75.4792V75.1152C130.43 75.6472 130.071 76.0532 129.623 76.3332C129.175 76.6039 128.703 76.7392 128.209 76.7392C127.714 76.7392 127.294 76.5899 126.949 76.2912C126.613 75.9925 126.445 75.5725 126.445 75.0312C126.445 74.2565 126.799 73.6032 127.509 73.0712C128.227 72.5392 129.403 72.2219 131.037 72.1192C131.083 71.8392 131.107 71.5499 131.107 71.2512C131.107 70.6725 130.677 70.3832 129.819 70.3832C129.389 70.3832 128.951 70.4719 128.503 70.6492C128.064 70.8265 127.835 70.9152 127.817 70.9152C127.695 70.9152 127.597 70.8452 127.523 70.7052C127.448 70.5559 127.411 70.4019 127.411 70.2432C127.411 70.0845 127.7 69.9119 128.279 69.7252C128.857 69.5385 129.431 69.4452 130.001 69.4452C130.57 69.4452 131.074 69.5759 131.513 69.8372C131.961 70.0892 132.185 70.4952 132.185 71.0552ZM134.298 69.6412H135.124L135.376 67.4852C135.395 67.3452 135.484 67.2332 135.642 67.1492C135.801 67.0652 135.955 67.0232 136.104 67.0232C136.254 67.0232 136.347 67.0325 136.384 67.0512C136.422 67.0699 136.44 67.1165 136.44 67.1912L136.146 69.6412H137.448C137.663 69.6412 137.77 69.7812 137.77 70.0612C137.77 70.1825 137.728 70.2992 137.644 70.4112C137.56 70.5232 137.462 70.5792 137.35 70.5792H136.02L135.656 73.6452C135.61 74.0185 135.586 74.3825 135.586 74.7372C135.586 75.0919 135.624 75.4372 135.698 75.7732C135.782 76.1092 135.824 76.3005 135.824 76.3472C135.824 76.4592 135.736 76.5525 135.558 76.6272C135.39 76.7019 135.227 76.7392 135.068 76.7392C134.919 76.7392 134.793 76.5572 134.69 76.1932C134.597 75.8199 134.55 75.4372 134.55 75.0452C134.55 74.6439 134.578 74.1772 134.634 73.6452L134.998 70.5792H134.2C133.995 70.5792 133.892 70.4439 133.892 70.1732C133.892 70.0425 133.93 69.9212 134.004 69.8092C134.088 69.6972 134.186 69.6412 134.298 69.6412ZM142.675 71.0132C142.675 70.7799 142.601 70.6025 142.451 70.4812C142.311 70.3505 142.125 70.2852 141.891 70.2852C141.387 70.2852 140.865 70.5185 140.323 70.9852C139.782 71.4425 139.446 72.0585 139.315 72.8332C140.183 72.8332 140.958 72.6605 141.639 72.3152C142.33 71.9699 142.675 71.5359 142.675 71.0132ZM138.125 73.6452C138.125 72.9639 138.251 72.3432 138.503 71.7832C138.755 71.2232 139.073 70.7799 139.455 70.4532C140.258 69.7812 141.089 69.4452 141.947 69.4452C142.461 69.4452 142.881 69.5712 143.207 69.8232C143.534 70.0659 143.697 70.4159 143.697 70.8732C143.697 71.6945 143.268 72.3665 142.409 72.8892C141.56 73.4025 140.51 73.6592 139.259 73.6592C139.259 74.3592 139.423 74.9052 139.749 75.2972C140.076 75.6799 140.547 75.8712 141.163 75.8712C141.453 75.8712 141.733 75.8105 142.003 75.6892C142.274 75.5679 142.489 75.4419 142.647 75.3112L142.885 75.1292C142.988 75.1292 143.077 75.1992 143.151 75.3392C143.226 75.4792 143.263 75.6192 143.263 75.7592C143.263 75.9272 143.016 76.1325 142.521 76.3752C142.036 76.6179 141.565 76.7392 141.107 76.7392C140.137 76.7392 139.395 76.4732 138.881 75.9412C138.377 75.3999 138.125 74.6345 138.125 73.6452ZM148.568 74.8352C148.568 75.3392 148.372 75.7825 147.98 76.1652C147.588 76.5479 147.089 76.7392 146.482 76.7392C145.876 76.7392 145.344 76.6365 144.886 76.4312C144.429 76.2259 144.2 76.0439 144.2 75.8852C144.2 75.7265 144.233 75.5772 144.298 75.4372C144.373 75.2879 144.476 75.2132 144.606 75.2132C144.616 75.2132 144.69 75.2692 144.83 75.3812C144.98 75.4839 145.19 75.5912 145.46 75.7032C145.731 75.8152 146.016 75.8712 146.314 75.8712C146.613 75.8712 146.884 75.7965 147.126 75.6472C147.378 75.4979 147.504 75.2832 147.504 75.0032C147.504 74.7139 147.416 74.4525 147.238 74.2192C147.07 73.9765 146.86 73.7619 146.608 73.5752C146.356 73.3792 146.104 73.1832 145.852 72.9872C145.6 72.7819 145.386 72.5392 145.208 72.2592C145.04 71.9699 144.956 71.6619 144.956 71.3352C144.956 70.8312 145.143 70.3925 145.516 70.0192C145.899 69.6365 146.352 69.4452 146.874 69.4452C147.397 69.4452 147.817 69.5152 148.134 69.6552C148.452 69.7859 148.61 69.9259 148.61 70.0752C148.61 70.2245 148.573 70.3692 148.498 70.5092C148.433 70.6492 148.344 70.7192 148.232 70.7192C148.223 70.7192 148.167 70.6865 148.064 70.6212C147.738 70.4159 147.397 70.3132 147.042 70.3132C146.688 70.3132 146.417 70.3972 146.23 70.5652C146.053 70.7239 145.964 70.9339 145.964 71.1952C145.964 71.4565 146.053 71.6992 146.23 71.9232C146.408 72.1472 146.622 72.3572 146.874 72.5532C147.136 72.7492 147.392 72.9545 147.644 73.1692C147.906 73.3745 148.125 73.6219 148.302 73.9112C148.48 74.2005 148.568 74.5085 148.568 74.8352ZM150.613 79.0352C150.539 79.2592 150.375 79.3712 150.123 79.3712C149.871 79.3712 149.745 79.2872 149.745 79.1192C149.745 79.1099 149.745 79.0912 149.745 79.0632C149.755 79.0445 149.764 79.0025 149.773 78.9372C149.783 78.8719 149.797 78.7925 149.815 78.6992C149.834 78.6152 149.857 78.4845 149.885 78.3072C149.923 78.1392 149.96 77.9525 149.997 77.7472C150.035 77.5512 150.081 77.2899 150.137 76.9632C150.203 76.6365 150.268 76.2912 150.333 75.9272C150.399 75.5632 150.623 75.3812 151.005 75.3812C151.388 75.3812 151.579 75.5212 151.579 75.8012C151.579 76.0345 151.257 77.1125 150.613 79.0352ZM57.0078 97.7392C56.8491 97.7392 56.7371 97.7159 56.6718 97.6692C56.6064 97.6319 56.5738 97.5525 56.5738 97.4312V97.3332L58.4778 85.7692C58.5338 85.4612 58.7718 85.3072 59.1918 85.3072H59.3458C59.4951 85.3072 59.6304 85.3492 59.7518 85.4332C59.8731 85.5172 59.9478 85.6292 59.9758 85.7692L61.7958 95.5272L65.8558 85.7692C65.9678 85.4799 66.1964 85.3352 66.5418 85.3352H66.7938C67.1671 85.3352 67.3538 85.4799 67.3538 85.7692L66.4718 97.3332C66.4438 97.6039 66.2478 97.7392 65.8838 97.7392C65.7158 97.7392 65.5944 97.7112 65.5198 97.6552C65.4544 97.5992 65.4218 97.4919 65.4218 97.3332L66.2058 87.4492L62.2998 97.1512C62.1971 97.4125 61.9824 97.5432 61.6558 97.5432C61.5251 97.5432 61.3944 97.5152 61.2638 97.4592C61.1331 97.3939 61.0538 97.2912 61.0258 97.1512L59.2198 87.4072L57.6378 97.3332C57.5911 97.6039 57.3811 97.7392 57.0078 97.7392ZM73.6528 92.0132C73.6528 91.7799 73.5781 91.6025 73.4288 91.4812C73.2888 91.3505 73.1021 91.2852 72.8688 91.2852C72.3648 91.2852 71.8421 91.5185 71.3008 91.9852C70.7594 92.4425 70.4234 93.0585 70.2928 93.8332C71.1608 93.8332 71.9354 93.6605 72.6168 93.3152C73.3074 92.9699 73.6528 92.5359 73.6528 92.0132ZM69.1028 94.6452C69.1028 93.9639 69.2288 93.3432 69.4808 92.7832C69.7328 92.2232 70.0501 91.7799 70.4328 91.4532C71.2354 90.7812 72.0661 90.4452 72.9248 90.4452C73.4381 90.4452 73.8581 90.5712 74.1848 90.8232C74.5114 91.0659 74.6748 91.4159 74.6748 91.8732C74.6748 92.6945 74.2454 93.3665 73.3868 93.8892C72.5374 94.4025 71.4874 94.6592 70.2368 94.6592C70.2368 95.3592 70.4001 95.9052 70.7268 96.2972C71.0534 96.6799 71.5248 96.8712 72.1408 96.8712C72.4301 96.8712 72.7101 96.8105 72.9808 96.6892C73.2514 96.5679 73.4661 96.4419 73.6248 96.3112L73.8628 96.1292C73.9654 96.1292 74.0541 96.1992 74.1288 96.3392C74.2034 96.4792 74.2408 96.6192 74.2408 96.7592C74.2408 96.9272 73.9934 97.1325 73.4988 97.3752C73.0134 97.6179 72.5421 97.7392 72.0848 97.7392C71.1141 97.7392 70.3721 97.4732 69.8588 96.9412C69.3548 96.3999 69.1028 95.6345 69.1028 94.6452ZM81.1139 94.6452C81.0766 95.0465 81.0579 95.4199 81.0579 95.7652C81.0579 96.1012 81.0999 96.4372 81.1839 96.7732C81.2679 97.1092 81.3099 97.3005 81.3099 97.3472C81.3099 97.4592 81.2212 97.5525 81.0439 97.6272C80.8666 97.7019 80.7219 97.7392 80.6099 97.7392C80.4979 97.7392 80.4139 97.6972 80.3579 97.6132C80.3112 97.5292 80.2692 97.4172 80.2319 97.2772C80.2039 97.1279 80.1806 96.9879 80.1619 96.8572C80.1526 96.7172 80.1386 96.5725 80.1199 96.4232C80.1106 96.2645 80.1012 96.1619 80.0919 96.1152C79.8772 96.6192 79.5319 97.0159 79.0559 97.3052C78.5892 97.5945 78.0759 97.7392 77.5159 97.7392C76.9559 97.7392 76.4612 97.5245 76.0319 97.0952C75.6119 96.6659 75.4019 96.0359 75.4019 95.2052C75.4019 94.3092 75.6166 93.4832 76.0459 92.7272C76.2979 92.2885 76.6106 91.9059 76.9839 91.5792C77.3666 91.2432 77.8659 90.9725 78.4819 90.7672C79.0979 90.5525 79.7932 90.4452 80.5679 90.4452L81.1979 85.4472C81.2072 85.2325 81.4219 85.1252 81.8419 85.1252C82.1032 85.1252 82.2339 85.2325 82.2339 85.4472L81.1139 94.6452ZM80.1339 91.3132C79.1072 91.3132 78.2532 91.6819 77.5719 92.4192C76.8906 93.1565 76.5499 94.0432 76.5499 95.0792C76.5499 95.5739 76.6666 95.9892 76.8999 96.3252C77.1332 96.6519 77.4739 96.8152 77.9219 96.8152C79.1726 96.8152 79.9426 95.6392 80.2319 93.2872L80.4699 91.3552C80.4046 91.3272 80.2926 91.3132 80.1339 91.3132ZM83.5817 97.7392C83.4417 97.7392 83.3437 97.7205 83.2877 97.6832C83.2317 97.6459 83.2037 97.5712 83.2037 97.4592L84.0017 90.7952C84.0297 90.5619 84.2117 90.4452 84.5477 90.4452C84.8837 90.4452 85.0517 90.5385 85.0517 90.7252L84.2397 97.3892C84.2117 97.6225 83.9924 97.7392 83.5817 97.7392ZM85.6117 87.8552C85.6117 88.4339 85.3457 88.7232 84.8137 88.7232C84.3937 88.7232 84.1837 88.5459 84.1837 88.1912C84.1837 87.6219 84.4497 87.3372 84.9817 87.3372C85.4017 87.3372 85.6117 87.5099 85.6117 87.8552ZM87.0277 90.6412H87.8537L88.1057 88.4852C88.1244 88.3452 88.213 88.2332 88.3717 88.1492C88.5304 88.0652 88.6844 88.0232 88.8337 88.0232C88.983 88.0232 89.0764 88.0325 89.1137 88.0512C89.151 88.0699 89.1697 88.1165 89.1697 88.1912L88.8757 90.6412H90.1777C90.3924 90.6412 90.4997 90.7812 90.4997 91.0612C90.4997 91.1825 90.4577 91.2992 90.3737 91.4112C90.2897 91.5232 90.1917 91.5792 90.0797 91.5792H88.7497L88.3857 94.6452C88.339 95.0185 88.3157 95.3825 88.3157 95.7372C88.3157 96.0919 88.353 96.4372 88.4277 96.7732C88.5117 97.1092 88.5537 97.3005 88.5537 97.3472C88.5537 97.4592 88.465 97.5525 88.2877 97.6272C88.1197 97.7019 87.9564 97.7392 87.7977 97.7392C87.6484 97.7392 87.5224 97.5572 87.4197 97.1932C87.3264 96.8199 87.2797 96.4372 87.2797 96.0452C87.2797 95.6439 87.3077 95.1772 87.3637 94.6452L87.7277 91.5792H86.9297C86.7244 91.5792 86.6217 91.4439 86.6217 91.1732C86.6217 91.0425 86.659 90.9212 86.7337 90.8092C86.8177 90.6972 86.9157 90.6412 87.0277 90.6412ZM91.7507 95.8212C91.7507 96.1012 91.8441 96.3392 92.0307 96.5352C92.2267 96.7219 92.4834 96.8152 92.8007 96.8152C93.3794 96.8152 93.8694 96.5259 94.2707 95.9472C94.6721 95.3592 94.9334 94.6965 95.0547 93.9592C93.8601 94.0525 93.0107 94.2579 92.5067 94.5752C92.0027 94.8925 91.7507 95.3079 91.7507 95.8212ZM96.3847 92.0552C96.3847 92.3072 96.2961 92.9325 96.1187 93.9312C95.9507 94.9205 95.8667 95.6019 95.8667 95.9752C95.8667 96.3485 95.8901 96.6565 95.9367 96.8992C95.9927 97.1419 96.0207 97.2912 96.0207 97.3472C96.0207 97.4592 95.9274 97.5525 95.7407 97.6272C95.5541 97.7019 95.3767 97.7392 95.2087 97.7392C95.0034 97.7392 94.9007 97.3192 94.9007 96.4792V96.1152C94.6301 96.6472 94.2707 97.0532 93.8227 97.3332C93.3747 97.6039 92.9034 97.7392 92.4087 97.7392C91.9141 97.7392 91.4941 97.5899 91.1487 97.2912C90.8127 96.9925 90.6447 96.5725 90.6447 96.0312C90.6447 95.2565 90.9994 94.6032 91.7087 94.0712C92.4274 93.5392 93.6034 93.2219 95.2367 93.1192C95.2834 92.8392 95.3067 92.5499 95.3067 92.2512C95.3067 91.6725 94.8774 91.3832 94.0187 91.3832C93.5894 91.3832 93.1507 91.4719 92.7027 91.6492C92.2641 91.8265 92.0354 91.9152 92.0167 91.9152C91.8954 91.9152 91.7974 91.8452 91.7227 91.7052C91.6481 91.5559 91.6107 91.4019 91.6107 91.2432C91.6107 91.0845 91.9001 90.9119 92.4787 90.7252C93.0574 90.5385 93.6314 90.4452 94.2007 90.4452C94.7701 90.4452 95.2741 90.5759 95.7127 90.8372C96.1607 91.0892 96.3847 91.4952 96.3847 92.0552ZM98.4984 90.6412H99.3244L99.5764 88.4852C99.5951 88.3452 99.6837 88.2332 99.8424 88.1492C100.001 88.0652 100.155 88.0232 100.304 88.0232C100.454 88.0232 100.547 88.0325 100.584 88.0512C100.622 88.0699 100.64 88.1165 100.64 88.1912L100.346 90.6412H101.648C101.863 90.6412 101.97 90.7812 101.97 91.0612C101.97 91.1825 101.928 91.2992 101.844 91.4112C101.76 91.5232 101.662 91.5792 101.55 91.5792H100.22L99.8564 94.6452C99.8097 95.0185 99.7864 95.3825 99.7864 95.7372C99.7864 96.0919 99.8237 96.4372 99.8984 96.7732C99.9824 97.1092 100.024 97.3005 100.024 97.3472C100.024 97.4592 99.9357 97.5525 99.7584 97.6272C99.5904 97.7019 99.4271 97.7392 99.2684 97.7392C99.1191 97.7392 98.9931 97.5572 98.8904 97.1932C98.7971 96.8199 98.7504 96.4372 98.7504 96.0452C98.7504 95.6439 98.7784 95.1772 98.8344 94.6452L99.1984 91.5792H98.4004C98.1951 91.5792 98.0924 91.4439 98.0924 91.1732C98.0924 91.0425 98.1297 90.9212 98.2044 90.8092C98.2884 90.6972 98.3864 90.6412 98.4984 90.6412ZM102.927 97.7392C102.787 97.7392 102.689 97.7205 102.633 97.6832C102.577 97.6459 102.549 97.5712 102.549 97.4592L103.347 90.7952C103.375 90.5619 103.557 90.4452 103.893 90.4452C104.229 90.4452 104.397 90.5385 104.397 90.7252L103.585 97.3892C103.557 97.6225 103.338 97.7392 102.927 97.7392ZM104.957 87.8552C104.957 88.4339 104.691 88.7232 104.159 88.7232C103.739 88.7232 103.529 88.5459 103.529 88.1912C103.529 87.6219 103.795 87.3372 104.327 87.3372C104.747 87.3372 104.957 87.5099 104.957 87.8552ZM109.439 90.4452C110.307 90.4452 110.979 90.7485 111.455 91.3552C111.941 91.9619 112.183 92.7039 112.183 93.5812C112.183 94.7385 111.838 95.7232 111.147 96.5352C110.466 97.3379 109.579 97.7392 108.487 97.7392C107.619 97.7392 106.947 97.4452 106.471 96.8572C106.005 96.2599 105.762 95.5225 105.743 94.6452C105.743 93.6279 106.028 92.6945 106.597 91.8452C106.887 91.4252 107.274 91.0892 107.759 90.8372C108.254 90.5759 108.814 90.4452 109.439 90.4452ZM107.955 91.8312C107.563 92.1672 107.283 92.5732 107.115 93.0492C106.947 93.5159 106.863 94.0572 106.863 94.6732C106.863 95.2799 107.008 95.7979 107.297 96.2272C107.587 96.6565 108.053 96.8712 108.697 96.8712C109.351 96.8712 109.915 96.5585 110.391 95.9332C110.867 95.3079 111.105 94.6032 111.105 93.8192C111.105 93.0352 110.956 92.4239 110.657 91.9852C110.359 91.5372 109.929 91.3132 109.369 91.3132C108.819 91.3132 108.347 91.4859 107.955 91.8312ZM118.706 92.6012L118.734 92.3912C118.734 91.7099 118.314 91.3692 117.474 91.3692C116.784 91.3692 116.224 91.6865 115.794 92.3212C115.365 92.9465 115.085 93.7772 114.954 94.8132L114.632 97.3892C114.604 97.6225 114.385 97.7392 113.974 97.7392C113.834 97.7392 113.736 97.7205 113.68 97.6832C113.624 97.6459 113.596 97.5712 113.596 97.4592L114.394 90.7952C114.422 90.5619 114.604 90.4452 114.94 90.4452C115.276 90.4452 115.444 90.5385 115.444 90.7252L115.318 91.7052H115.402C115.981 90.8652 116.718 90.4452 117.614 90.4452C118.324 90.4452 118.865 90.6132 119.238 90.9492C119.621 91.2759 119.812 91.7285 119.812 92.3072C119.812 92.3912 119.598 94.0852 119.168 97.3892C119.14 97.6225 118.912 97.7392 118.482 97.7392C118.24 97.7392 118.118 97.6459 118.118 97.4592L118.706 92.6012ZM122.169 100.035C122.094 100.259 121.931 100.371 121.679 100.371C121.427 100.371 121.301 100.287 121.301 100.119C121.301 100.11 121.301 100.091 121.301 100.063C121.31 100.045 121.32 100.003 121.329 99.9372C121.338 99.8719 121.352 99.7925 121.371 99.6992C121.39 99.6152 121.413 99.4845 121.441 99.3072C121.478 99.1392 121.516 98.9525 121.553 98.7472C121.59 98.5512 121.637 98.2899 121.693 97.9632C121.758 97.6365 121.824 97.2912 121.889 96.9272C121.954 96.5632 122.178 96.3812 122.561 96.3812C122.944 96.3812 123.135 96.5212 123.135 96.8012C123.135 97.0345 122.813 98.1125 122.169 100.035ZM55.2676 118.257C54.9503 118.687 54.5303 119.004 54.0076 119.209C53.4849 119.415 52.9389 119.517 52.3696 119.517C51.1749 119.517 50.5776 119.279 50.5776 118.803C50.5776 118.691 50.6196 118.589 50.7036 118.495C50.7783 118.411 50.8716 118.369 50.9836 118.369C51.0956 118.369 51.2403 118.393 51.4176 118.439C51.5856 118.486 51.7816 118.509 52.0056 118.509C53.2189 118.509 54.0543 118.145 54.5116 117.417C54.7543 117.044 54.9316 116.647 55.0436 116.227C55.1649 115.798 55.2629 115.261 55.3376 114.617L56.2756 106.413H52.7336C52.4816 106.413 52.3556 106.269 52.3556 105.979C52.3556 105.839 52.3929 105.727 52.4676 105.643C52.5423 105.55 52.6356 105.503 52.7476 105.503H56.9616C57.2603 105.503 57.4096 105.625 57.4096 105.867V105.937L56.3876 114.897C56.3036 115.653 56.1776 116.297 56.0096 116.829C55.8416 117.361 55.5943 117.837 55.2676 118.257ZM64.4469 114.645C64.4096 114.944 64.3909 115.289 64.3909 115.681C64.3909 116.073 64.4282 116.437 64.5029 116.773C64.5869 117.109 64.6289 117.301 64.6289 117.347C64.6289 117.459 64.5402 117.553 64.3629 117.627C64.1949 117.702 64.0549 117.739 63.9429 117.739C63.8309 117.739 63.7469 117.697 63.6909 117.613C63.6442 117.529 63.6022 117.413 63.5649 117.263C63.5369 117.114 63.5136 116.979 63.4949 116.857C63.4482 116.549 63.4249 116.302 63.4249 116.115C62.9022 117.198 62.0716 117.739 60.9329 117.739C60.3169 117.739 59.8502 117.539 59.5329 117.137C59.2249 116.736 59.0709 116.213 59.0709 115.569C59.0709 115.224 59.2482 113.633 59.6029 110.795C59.6309 110.562 59.8129 110.445 60.1489 110.445C60.4942 110.445 60.6669 110.539 60.6669 110.725C60.3122 113.423 60.1349 115.028 60.1349 115.541C60.1349 116.391 60.4989 116.815 61.2269 116.815C61.6002 116.815 61.9316 116.708 62.2209 116.493C62.5102 116.279 62.7436 115.989 62.9209 115.625C63.2382 114.944 63.4529 114.165 63.5649 113.287L63.8729 110.795C63.9009 110.562 64.1202 110.445 64.5309 110.445C64.8016 110.445 64.9369 110.539 64.9369 110.725L64.4469 114.645ZM74.5327 110.445C75.1207 110.445 75.5874 110.613 75.9327 110.949C76.278 111.285 76.4507 111.738 76.4507 112.307C76.4507 112.457 76.236 114.151 75.8067 117.389C75.7787 117.623 75.5687 117.739 75.1767 117.739C74.934 117.739 74.8127 117.646 74.8127 117.459L75.4007 112.349C75.4007 112.088 75.3074 111.859 75.1207 111.663C74.934 111.467 74.64 111.369 74.2387 111.369C73.604 111.369 73.1047 111.687 72.7407 112.321C72.3767 112.947 72.1294 113.777 71.9987 114.813L71.6767 117.389C71.6487 117.623 71.4247 117.739 71.0047 117.739C70.7527 117.739 70.6267 117.646 70.6267 117.459L71.2567 112.349C71.2567 112.088 71.1634 111.859 70.9767 111.663C70.7994 111.467 70.51 111.369 70.1087 111.369C69.474 111.369 68.97 111.687 68.5967 112.321C68.2234 112.956 67.976 113.787 67.8547 114.813L67.5327 117.389C67.5047 117.623 67.2854 117.739 66.8747 117.739C66.7347 117.739 66.6367 117.721 66.5807 117.683C66.5247 117.646 66.4967 117.571 66.4967 117.459L67.2947 110.795C67.3227 110.562 67.5047 110.445 67.8407 110.445C68.1767 110.445 68.3447 110.539 68.3447 110.725L68.2187 111.705H68.3027C68.928 110.865 69.628 110.445 70.4027 110.445C70.8787 110.445 71.2847 110.562 71.6207 110.795C71.9567 111.019 72.1714 111.327 72.2647 111.719H72.3347C72.9134 110.87 73.646 110.445 74.5327 110.445ZM78.0312 122.443C77.7792 122.443 77.6532 122.35 77.6532 122.163L79.0532 110.795C79.0812 110.655 79.1418 110.562 79.2352 110.515C79.3378 110.469 79.5058 110.445 79.7392 110.445C79.9725 110.445 80.0892 110.539 80.0892 110.725L79.9912 111.719C80.5978 110.87 81.3538 110.445 82.2592 110.445C82.8658 110.445 83.3792 110.66 83.7992 111.089C84.2285 111.519 84.4432 112.149 84.4432 112.979C84.4432 113.885 84.2238 114.715 83.7852 115.471C83.5425 115.91 83.2345 116.293 82.8612 116.619C82.4878 116.946 81.9932 117.217 81.3772 117.431C80.7612 117.637 80.0658 117.739 79.2912 117.739L78.7032 122.093C78.6752 122.327 78.4512 122.443 78.0312 122.443ZM79.7392 116.871C80.7565 116.871 81.6058 116.503 82.2872 115.765C82.9685 115.028 83.3092 114.146 83.3092 113.119C83.3092 112.625 83.1925 112.209 82.9592 111.873C82.7258 111.537 82.3852 111.369 81.9372 111.369C80.6585 111.369 79.8838 112.545 79.6132 114.897L79.3892 116.843C79.4638 116.862 79.5805 116.871 79.7392 116.871ZM90.2666 117.739C89.9213 117.739 89.7486 117.623 89.7486 117.389V117.333L91.1626 105.867C91.1906 105.681 91.3166 105.573 91.5406 105.545C92.2313 105.405 93.1413 105.335 94.2706 105.335C95.3999 105.335 96.2913 105.564 96.9446 106.021C97.5979 106.479 97.9246 107.155 97.9246 108.051C97.9246 108.807 97.6586 109.465 97.1266 110.025C96.5946 110.585 95.8666 110.954 94.9426 111.131C95.5586 111.393 96.0346 111.897 96.3706 112.643C96.5293 113.017 96.6786 113.432 96.8186 113.889C96.9679 114.337 97.0613 114.613 97.0986 114.715L97.9666 117.249C97.9759 117.277 97.9806 117.333 97.9806 117.417C97.9806 117.492 97.9246 117.562 97.8126 117.627C97.7099 117.702 97.5793 117.739 97.4206 117.739C97.1313 117.739 96.9539 117.637 96.8886 117.431L95.9086 114.547C95.6566 113.801 95.4279 113.217 95.2226 112.797C95.0266 112.368 94.7886 112.065 94.5086 111.887C94.2379 111.71 93.7713 111.621 93.1086 111.621H91.5126L90.8126 117.361C90.7939 117.501 90.7426 117.599 90.6586 117.655C90.5746 117.711 90.4439 117.739 90.2666 117.739ZM93.2766 110.697C94.0233 110.697 94.7699 110.501 95.5166 110.109C95.8899 109.913 96.1933 109.638 96.4266 109.283C96.6693 108.929 96.7906 108.527 96.7906 108.079C96.7906 107.491 96.5433 107.029 96.0486 106.693C95.5633 106.357 94.9519 106.189 94.2146 106.189C93.4773 106.189 92.7959 106.245 92.1706 106.357L91.6386 110.697H93.2766ZM103.178 110.445C104.046 110.445 104.718 110.749 105.194 111.355C105.679 111.962 105.922 112.704 105.922 113.581C105.922 114.739 105.576 115.723 104.886 116.535C104.204 117.338 103.318 117.739 102.226 117.739C101.358 117.739 100.686 117.445 100.21 116.857C99.743 116.26 99.5003 115.523 99.4817 114.645C99.4817 113.628 99.7663 112.695 100.336 111.845C100.625 111.425 101.012 111.089 101.498 110.837C101.992 110.576 102.552 110.445 103.178 110.445ZM101.694 111.831C101.302 112.167 101.022 112.573 100.854 113.049C100.686 113.516 100.602 114.057 100.602 114.673C100.602 115.28 100.746 115.798 101.036 116.227C101.325 116.657 101.792 116.871 102.436 116.871C103.089 116.871 103.654 116.559 104.13 115.933C104.606 115.308 104.844 114.603 104.844 113.819C104.844 113.035 104.694 112.424 104.396 111.985C104.097 111.537 103.668 111.313 103.108 111.313C102.557 111.313 102.086 111.486 101.694 111.831ZM107.139 122.443C106.887 122.443 106.761 122.35 106.761 122.163L108.161 110.795C108.189 110.655 108.249 110.562 108.343 110.515C108.445 110.469 108.613 110.445 108.847 110.445C109.08 110.445 109.197 110.539 109.197 110.725L109.099 111.719C109.705 110.87 110.461 110.445 111.367 110.445C111.973 110.445 112.487 110.66 112.907 111.089C113.336 111.519 113.551 112.149 113.551 112.979C113.551 113.885 113.331 114.715 112.893 115.471C112.65 115.91 112.342 116.293 111.969 116.619C111.595 116.946 111.101 117.217 110.485 117.431C109.869 117.637 109.173 117.739 108.399 117.739L107.811 122.093C107.783 122.327 107.559 122.443 107.139 122.443ZM108.847 116.871C109.864 116.871 110.713 116.503 111.395 115.765C112.076 115.028 112.417 114.146 112.417 113.119C112.417 112.625 112.3 112.209 112.067 111.873C111.833 111.537 111.493 111.369 111.045 111.369C109.766 111.369 108.991 112.545 108.721 114.897L108.497 116.843C108.571 116.862 108.688 116.871 108.847 116.871ZM119.426 112.013C119.426 111.78 119.352 111.603 119.202 111.481C119.062 111.351 118.876 111.285 118.642 111.285C118.138 111.285 117.616 111.519 117.074 111.985C116.533 112.443 116.197 113.059 116.066 113.833C116.934 113.833 117.709 113.661 118.39 113.315C119.081 112.97 119.426 112.536 119.426 112.013ZM114.876 114.645C114.876 113.964 115.002 113.343 115.254 112.783C115.506 112.223 115.824 111.78 116.206 111.453C117.009 110.781 117.84 110.445 118.698 110.445C119.212 110.445 119.632 110.571 119.958 110.823C120.285 111.066 120.448 111.416 120.448 111.873C120.448 112.695 120.019 113.367 119.16 113.889C118.311 114.403 117.261 114.659 116.01 114.659C116.01 115.359 116.174 115.905 116.5 116.297C116.827 116.68 117.298 116.871 117.914 116.871C118.204 116.871 118.484 116.811 118.754 116.689C119.025 116.568 119.24 116.442 119.398 116.311L119.636 116.129C119.739 116.129 119.828 116.199 119.902 116.339C119.977 116.479 120.014 116.619 120.014 116.759C120.014 116.927 119.767 117.133 119.272 117.375C118.787 117.618 118.316 117.739 117.858 117.739C116.888 117.739 116.146 117.473 115.632 116.941C115.128 116.4 114.876 115.635 114.876 114.645ZM122.155 120.035C122.081 120.259 121.917 120.371 121.665 120.371C121.413 120.371 121.287 120.287 121.287 120.119C121.287 120.11 121.287 120.091 121.287 120.063C121.297 120.045 121.306 120.003 121.315 119.937C121.325 119.872 121.339 119.793 121.357 119.699C121.376 119.615 121.399 119.485 121.427 119.307C121.465 119.139 121.502 118.953 121.539 118.747C121.577 118.551 121.623 118.29 121.679 117.963C121.745 117.637 121.81 117.291 121.875 116.927C121.941 116.563 122.165 116.381 122.547 116.381C122.93 116.381 123.121 116.521 123.121 116.801C123.121 117.035 122.799 118.113 122.155 120.035ZM55.1142 137.739C54.9555 137.739 54.8435 137.716 54.7782 137.669C54.7129 137.632 54.6802 137.553 54.6802 137.431V137.333L56.5842 125.769C56.6402 125.461 56.8782 125.307 57.2982 125.307H57.4522C57.6015 125.307 57.7369 125.349 57.8582 125.433C57.9795 125.517 58.0542 125.629 58.0822 125.769L59.9022 135.527L63.9622 125.769C64.0742 125.48 64.3029 125.335 64.6482 125.335H64.9002C65.2735 125.335 65.4602 125.48 65.4602 125.769L64.5782 137.333C64.5502 137.604 64.3542 137.739 63.9902 137.739C63.8222 137.739 63.7009 137.711 63.6262 137.655C63.5609 137.599 63.5282 137.492 63.5282 137.333L64.3122 127.449L60.4062 137.151C60.3035 137.413 60.0889 137.543 59.7622 137.543C59.6315 137.543 59.5009 137.515 59.3702 137.459C59.2395 137.394 59.1602 137.291 59.1322 137.151L57.3262 127.407L55.7442 137.333C55.6975 137.604 55.4875 137.739 55.1142 137.739ZM68.1052 135.821C68.1052 136.101 68.1985 136.339 68.3852 136.535C68.5812 136.722 68.8379 136.815 69.1552 136.815C69.7339 136.815 70.2239 136.526 70.6252 135.947C71.0265 135.359 71.2879 134.697 71.4092 133.959C70.2145 134.053 69.3652 134.258 68.8612 134.575C68.3572 134.893 68.1052 135.308 68.1052 135.821ZM72.7392 132.055C72.7392 132.307 72.6506 132.933 72.4732 133.931C72.3052 134.921 72.2212 135.602 72.2212 135.975C72.2212 136.349 72.2445 136.657 72.2912 136.899C72.3472 137.142 72.3752 137.291 72.3752 137.347C72.3752 137.459 72.2819 137.553 72.0952 137.627C71.9086 137.702 71.7312 137.739 71.5632 137.739C71.3579 137.739 71.2552 137.319 71.2552 136.479V136.115C70.9846 136.647 70.6252 137.053 70.1772 137.333C69.7292 137.604 69.2579 137.739 68.7632 137.739C68.2685 137.739 67.8485 137.59 67.5032 137.291C67.1672 136.993 66.9992 136.573 66.9992 136.031C66.9992 135.257 67.3539 134.603 68.0632 134.071C68.7819 133.539 69.9579 133.222 71.5912 133.119C71.6379 132.839 71.6612 132.55 71.6612 132.251C71.6612 131.673 71.2319 131.383 70.3732 131.383C69.9439 131.383 69.5052 131.472 69.0572 131.649C68.6185 131.827 68.3899 131.915 68.3712 131.915C68.2499 131.915 68.1519 131.845 68.0772 131.705C68.0025 131.556 67.9652 131.402 67.9652 131.243C67.9652 131.085 68.2545 130.912 68.8332 130.725C69.4119 130.539 69.9859 130.445 70.5552 130.445C71.1246 130.445 71.6285 130.576 72.0672 130.837C72.5152 131.089 72.7392 131.495 72.7392 132.055ZM78.3249 131.369C77.6436 131.369 77.0789 131.71 76.6309 132.391C76.1922 133.063 75.9169 133.871 75.8049 134.813L75.4829 137.389C75.4549 137.623 75.2356 137.739 74.8249 137.739C74.6849 137.739 74.5869 137.721 74.5309 137.683C74.4749 137.646 74.4469 137.571 74.4469 137.459L75.2449 130.795C75.2729 130.562 75.4549 130.445 75.7909 130.445C76.1269 130.445 76.2949 130.539 76.2949 130.725L76.1549 131.775H76.2249C76.4862 131.346 76.8269 131.001 77.2469 130.739C77.6669 130.478 78.1056 130.347 78.5629 130.347C78.8336 130.347 78.9689 130.445 78.9689 130.641C78.9689 130.837 78.9269 130.991 78.8429 131.103C78.7216 131.281 78.5489 131.369 78.3249 131.369ZM80.1302 130.641H80.9562L81.2082 128.485C81.2269 128.345 81.3156 128.233 81.4742 128.149C81.6329 128.065 81.7869 128.023 81.9362 128.023C82.0856 128.023 82.1789 128.033 82.2162 128.051C82.2536 128.07 82.2722 128.117 82.2722 128.191L81.9782 130.641H83.2802C83.4949 130.641 83.6022 130.781 83.6022 131.061C83.6022 131.183 83.5602 131.299 83.4762 131.411C83.3922 131.523 83.2942 131.579 83.1822 131.579H81.8522L81.4882 134.645C81.4416 135.019 81.4182 135.383 81.4182 135.737C81.4182 136.092 81.4556 136.437 81.5302 136.773C81.6142 137.109 81.6562 137.301 81.6562 137.347C81.6562 137.459 81.5676 137.553 81.3902 137.627C81.2222 137.702 81.0589 137.739 80.9002 137.739C80.7509 137.739 80.6249 137.557 80.5222 137.193C80.4289 136.82 80.3822 136.437 80.3822 136.045C80.3822 135.644 80.4102 135.177 80.4662 134.645L80.8302 131.579H80.0322C79.8269 131.579 79.7242 131.444 79.7242 131.173C79.7242 131.043 79.7616 130.921 79.8362 130.809C79.9202 130.697 80.0182 130.641 80.1302 130.641ZM84.5593 137.739C84.4193 137.739 84.3213 137.721 84.2653 137.683C84.2093 137.646 84.1813 137.571 84.1813 137.459L84.9793 130.795C85.0073 130.562 85.1893 130.445 85.5253 130.445C85.8613 130.445 86.0293 130.539 86.0293 130.725L85.2173 137.389C85.1893 137.623 84.9699 137.739 84.5593 137.739ZM86.5893 127.855C86.5893 128.434 86.3233 128.723 85.7913 128.723C85.3713 128.723 85.1613 128.546 85.1613 128.191C85.1613 127.622 85.4273 127.337 85.9593 127.337C86.3793 127.337 86.5893 127.51 86.5893 127.855ZM88.2712 135.821C88.2712 136.101 88.3646 136.339 88.5512 136.535C88.7472 136.722 89.0039 136.815 89.3212 136.815C89.8999 136.815 90.3899 136.526 90.7912 135.947C91.1926 135.359 91.4539 134.697 91.5752 133.959C90.3806 134.053 89.5312 134.258 89.0272 134.575C88.5232 134.893 88.2712 135.308 88.2712 135.821ZM92.9052 132.055C92.9052 132.307 92.8166 132.933 92.6392 133.931C92.4712 134.921 92.3872 135.602 92.3872 135.975C92.3872 136.349 92.4106 136.657 92.4572 136.899C92.5132 137.142 92.5412 137.291 92.5412 137.347C92.5412 137.459 92.4479 137.553 92.2612 137.627C92.0746 137.702 91.8972 137.739 91.7292 137.739C91.5239 137.739 91.4212 137.319 91.4212 136.479V136.115C91.1506 136.647 90.7912 137.053 90.3432 137.333C89.8952 137.604 89.4239 137.739 88.9292 137.739C88.4346 137.739 88.0146 137.59 87.6692 137.291C87.3332 136.993 87.1652 136.573 87.1652 136.031C87.1652 135.257 87.5199 134.603 88.2292 134.071C88.9479 133.539 90.1239 133.222 91.7572 133.119C91.8039 132.839 91.8272 132.55 91.8272 132.251C91.8272 131.673 91.3979 131.383 90.5392 131.383C90.1099 131.383 89.6712 131.472 89.2232 131.649C88.7846 131.827 88.5559 131.915 88.5372 131.915C88.4159 131.915 88.3179 131.845 88.2432 131.705C88.1686 131.556 88.1312 131.402 88.1312 131.243C88.1312 131.085 88.4206 130.912 88.9992 130.725C89.5779 130.539 90.1519 130.445 90.7212 130.445C91.2906 130.445 91.7946 130.576 92.2332 130.837C92.6812 131.089 92.9052 131.495 92.9052 132.055ZM94.9909 137.739C94.8509 137.739 94.7529 137.721 94.6969 137.683C94.6409 137.646 94.6129 137.571 94.6129 137.459L96.0409 125.489C96.0782 125.247 96.2602 125.125 96.5869 125.125C96.9229 125.125 97.0909 125.223 97.0909 125.419L95.6489 137.389C95.6209 137.623 95.4016 137.739 94.9909 137.739ZM106.617 126.917L103.537 133.539H107.947L106.617 126.917ZM105.987 125.741C106.108 125.471 106.369 125.335 106.771 125.335C107.181 125.335 107.415 125.471 107.471 125.741C109.085 133.497 109.893 137.38 109.893 137.389C109.893 137.623 109.715 137.739 109.361 137.739C109.006 137.739 108.801 137.604 108.745 137.333L108.129 134.393H103.131L102.207 136.423C102.151 136.573 102.09 136.708 102.025 136.829C101.969 136.951 101.922 137.053 101.885 137.137C101.847 137.212 101.815 137.273 101.787 137.319C101.768 137.357 101.74 137.403 101.703 137.459C101.675 137.515 101.647 137.557 101.619 137.585C101.591 137.613 101.563 137.641 101.535 137.669C101.488 137.716 101.404 137.739 101.283 137.739C101.161 137.739 101.035 137.702 100.905 137.627C100.765 137.553 100.695 137.441 100.695 137.291C100.695 137.142 100.923 136.577 101.381 135.597L105.987 125.741ZM115.635 131.369C114.954 131.369 114.389 131.71 113.941 132.391C113.503 133.063 113.227 133.871 113.115 134.813L112.793 137.389C112.765 137.623 112.546 137.739 112.135 137.739C111.995 137.739 111.897 137.721 111.841 137.683C111.785 137.646 111.757 137.571 111.757 137.459L112.555 130.795C112.583 130.562 112.765 130.445 113.101 130.445C113.437 130.445 113.605 130.539 113.605 130.725L113.465 131.775H113.535C113.797 131.346 114.137 131.001 114.557 130.739C114.977 130.478 115.416 130.347 115.873 130.347C116.144 130.347 116.279 130.445 116.279 130.641C116.279 130.837 116.237 130.991 116.153 131.103C116.032 131.281 115.859 131.369 115.635 131.369ZM117.441 130.641H118.267L118.519 128.485C118.537 128.345 118.626 128.233 118.785 128.149C118.943 128.065 119.097 128.023 119.247 128.023C119.396 128.023 119.489 128.033 119.527 128.051C119.564 128.07 119.583 128.117 119.583 128.191L119.289 130.641H120.591C120.805 130.641 120.913 130.781 120.913 131.061C120.913 131.183 120.871 131.299 120.787 131.411C120.703 131.523 120.605 131.579 120.493 131.579H119.163L118.799 134.645C118.752 135.019 118.729 135.383 118.729 135.737C118.729 136.092 118.766 136.437 118.841 136.773C118.925 137.109 118.967 137.301 118.967 137.347C118.967 137.459 118.878 137.553 118.701 137.627C118.533 137.702 118.369 137.739 118.211 137.739C118.061 137.739 117.935 137.557 117.833 137.193C117.739 136.82 117.693 136.437 117.693 136.045C117.693 135.644 117.721 135.177 117.777 134.645L118.141 131.579H117.343C117.137 131.579 117.035 131.444 117.035 131.173C117.035 131.043 117.072 130.921 117.147 130.809C117.231 130.697 117.329 130.641 117.441 130.641ZM125.258 135.835C125.258 136.339 125.062 136.783 124.67 137.165C124.278 137.548 123.778 137.739 123.172 137.739C122.565 137.739 122.033 137.637 121.576 137.431C121.118 137.226 120.89 137.044 120.89 136.885C120.89 136.727 120.922 136.577 120.988 136.437C121.062 136.288 121.165 136.213 121.296 136.213C121.305 136.213 121.38 136.269 121.52 136.381C121.669 136.484 121.879 136.591 122.15 136.703C122.42 136.815 122.705 136.871 123.004 136.871C123.302 136.871 123.573 136.797 123.816 136.647C124.068 136.498 124.194 136.283 124.194 136.003C124.194 135.714 124.105 135.453 123.928 135.219C123.76 134.977 123.55 134.762 123.298 134.575C123.046 134.379 122.794 134.183 122.542 133.987C122.29 133.782 122.075 133.539 121.898 133.259C121.73 132.97 121.646 132.662 121.646 132.335C121.646 131.831 121.832 131.393 122.206 131.019C122.588 130.637 123.041 130.445 123.564 130.445C124.086 130.445 124.506 130.515 124.824 130.655C125.141 130.786 125.3 130.926 125.3 131.075C125.3 131.225 125.262 131.369 125.188 131.509C125.122 131.649 125.034 131.719 124.922 131.719C124.912 131.719 124.856 131.687 124.754 131.621C124.427 131.416 124.086 131.313 123.732 131.313C123.377 131.313 123.106 131.397 122.92 131.565C122.742 131.724 122.654 131.934 122.654 132.195C122.654 132.457 122.742 132.699 122.92 132.923C123.097 133.147 123.312 133.357 123.564 133.553C123.825 133.749 124.082 133.955 124.334 134.169C124.595 134.375 124.814 134.622 124.992 134.911C125.169 135.201 125.258 135.509 125.258 135.835Z" fill="black"/>
    <path d="M60.8749 26.648C60.8749 26.68 60.5229 29.536 59.8189 35.216H69.2989C69.3949 34.144 69.7389 31.352 70.3309 26.84C70.3949 26.328 70.7229 26.072 71.3149 26.072C71.9069 26.072 72.2029 26.264 72.2029 26.648C72.2029 26.696 71.3869 33.336 69.7549 46.568C69.6909 47.08 69.3629 47.336 68.7709 47.336C68.1949 47.336 67.9069 47.112 67.9069 46.664C67.9069 46.616 68.3069 43.304 69.1069 36.728H59.6509L58.4269 46.568C58.3629 47.08 58.0349 47.336 57.4429 47.336C56.8669 47.336 56.5789 47.112 56.5789 46.664C56.5789 46.616 57.3869 40.008 59.0029 26.84C59.0669 26.328 59.3949 26.072 59.9869 26.072C60.5789 26.072 60.8749 26.264 60.8749 26.648ZM82.6111 37.52C82.6111 37.12 82.4831 36.816 82.2271 36.608C81.9871 36.384 81.6671 36.272 81.2671 36.272C80.4031 36.272 79.5071 36.672 78.5791 37.472C77.6511 38.256 77.0751 39.312 76.8511 40.64C78.3391 40.64 79.6671 40.344 80.8351 39.752C82.0191 39.16 82.6111 38.416 82.6111 37.52ZM74.8111 42.032C74.8111 40.864 75.0271 39.8 75.4591 38.84C75.8911 37.88 76.4351 37.12 77.0911 36.56C78.4671 35.408 79.8911 34.832 81.3631 34.832C82.2431 34.832 82.9631 35.048 83.5231 35.48C84.0831 35.896 84.3631 36.496 84.3631 37.28C84.3631 38.688 83.6271 39.84 82.1551 40.736C80.6991 41.616 78.8991 42.056 76.7551 42.056C76.7551 43.256 77.0351 44.192 77.5951 44.864C78.1551 45.52 78.9631 45.848 80.0191 45.848C80.5151 45.848 80.9951 45.744 81.4591 45.536C81.9231 45.328 82.2911 45.112 82.5631 44.888L82.9711 44.576C83.1471 44.576 83.2991 44.696 83.4271 44.936C83.5551 45.176 83.6191 45.416 83.6191 45.656C83.6191 45.944 83.1951 46.296 82.3471 46.712C81.5151 47.128 80.7071 47.336 79.9231 47.336C78.2591 47.336 76.9871 46.88 76.1071 45.968C75.2431 45.04 74.8111 43.728 74.8111 42.032ZM87.4096 44.048C87.4096 44.528 87.5696 44.936 87.8896 45.272C88.2256 45.592 88.6656 45.752 89.2096 45.752C90.2016 45.752 91.0416 45.256 91.7296 44.264C92.4176 43.256 92.8656 42.12 93.0736 40.856C91.0256 41.016 89.5696 41.368 88.7056 41.912C87.8416 42.456 87.4096 43.168 87.4096 44.048ZM95.3536 37.592C95.3536 38.024 95.2016 39.096 94.8976 40.808C94.6096 42.504 94.4656 43.672 94.4656 44.312C94.4656 44.952 94.5056 45.48 94.5856 45.896C94.6816 46.312 94.7296 46.568 94.7296 46.664C94.7296 46.856 94.5696 47.016 94.2496 47.144C93.9296 47.272 93.6256 47.336 93.3376 47.336C92.9856 47.336 92.8096 46.616 92.8096 45.176V44.552C92.3456 45.464 91.7296 46.16 90.9616 46.64C90.1936 47.104 89.3856 47.336 88.5376 47.336C87.6896 47.336 86.9696 47.08 86.3776 46.568C85.8016 46.056 85.5136 45.336 85.5136 44.408C85.5136 43.08 86.1216 41.96 87.3376 41.048C88.5696 40.136 90.5856 39.592 93.3856 39.416C93.4656 38.936 93.5056 38.44 93.5056 37.928C93.5056 36.936 92.7696 36.44 91.2976 36.44C90.5616 36.44 89.8096 36.592 89.0416 36.896C88.2896 37.2 87.8976 37.352 87.8656 37.352C87.6576 37.352 87.4896 37.232 87.3616 36.992C87.2336 36.736 87.1696 36.472 87.1696 36.2C87.1696 35.928 87.6656 35.632 88.6576 35.312C89.6496 34.992 90.6336 34.832 91.6096 34.832C92.5856 34.832 93.4496 35.056 94.2016 35.504C94.9696 35.936 95.3536 36.632 95.3536 37.592ZM98.929 47.336C98.689 47.336 98.521 47.304 98.425 47.24C98.329 47.176 98.281 47.048 98.281 46.856L100.729 26.336C100.793 25.92 101.105 25.712 101.665 25.712C102.241 25.712 102.529 25.88 102.529 26.216L100.057 46.736C100.009 47.136 99.633 47.336 98.929 47.336ZM104.836 35.168H106.252L106.684 31.472C106.716 31.232 106.868 31.04 107.14 30.896C107.412 30.752 107.676 30.68 107.932 30.68C108.188 30.68 108.348 30.696 108.412 30.728C108.476 30.76 108.508 30.84 108.508 30.968L108.004 35.168H110.236C110.604 35.168 110.788 35.408 110.788 35.888C110.788 36.096 110.716 36.296 110.572 36.488C110.428 36.68 110.26 36.776 110.068 36.776H107.788L107.164 42.032C107.084 42.672 107.044 43.296 107.044 43.904C107.044 44.512 107.108 45.104 107.236 45.68C107.38 46.256 107.452 46.584 107.452 46.664C107.452 46.856 107.3 47.016 106.996 47.144C106.708 47.272 106.428 47.336 106.156 47.336C105.9 47.336 105.684 47.024 105.508 46.4C105.348 45.76 105.268 45.104 105.268 44.432C105.268 43.744 105.316 42.944 105.412 42.032L106.036 36.776H104.668C104.316 36.776 104.14 36.544 104.14 36.08C104.14 35.856 104.204 35.648 104.332 35.456C104.476 35.264 104.644 35.168 104.836 35.168ZM120.541 38.528L120.589 38.168C120.589 37 119.869 36.416 118.429 36.416C117.245 36.416 116.285 36.96 115.549 38.048C114.813 39.12 114.333 40.544 114.109 42.32L113.557 46.736C113.509 47.136 113.133 47.336 112.429 47.336C112.189 47.336 112.021 47.304 111.925 47.24C111.829 47.176 111.781 47.048 111.781 46.856L114.229 26.336C114.293 25.92 114.605 25.712 115.165 25.712C115.741 25.712 116.029 25.88 116.029 26.216L114.781 37.016C115.805 35.56 117.101 34.832 118.669 34.832C119.885 34.832 120.813 35.12 121.453 35.696C122.109 36.256 122.437 37.032 122.437 38.024C122.437 38.168 122.069 41.072 121.333 46.736C121.285 47.136 120.893 47.336 120.157 47.336C119.741 47.336 119.533 47.176 119.533 46.856L120.541 38.528Z" fill="black"/>
    <defs>
        <filter id="filter0_d" x="161.516" y="0" width="39.4837" height="40.1914" filterUnits="userSpaceOnUse" color-interpolation-filters="sRGB">
            <feFlood flood-opacity="0" result="BackgroundImageFix"/>
            <feColorMatrix in="SourceAlpha" type="matrix" values="0 0 0 0 0 0 0 0 0 0 0 0 0 0 0 0 0 0 127 0"/>
            <feOffset dy="4"/>
            <feGaussianBlur stdDeviation="2"/>
            <feColorMatrix type="matrix" values="0 0 0 0 0 0 0 0 0 0 0 0 0 0 0 0 0 0 0.25 0"/>
            <feBlend mode="normal" in2="BackgroundImageFix" result="effect1_dropShadow"/>
            <feBlend mode="normal" in="SourceGraphic" in2="effect1_dropShadow" result="shape"/>
        </filter>
    </defs>
</svg>
