<svg width="83" height="161" viewBox="0 0 83 161" fill="none" xmlns="http://www.w3.org/2000/svg">
    <g filter="url(#filter0_d)">
        <path d="M5 3.76036C5.37225 5.79146 6.37791 8.19327 6.48159 10.0698C6.57304 11.7248 7.59278 13.2855 7.59278 14.999C7.59278 18.2124 11.2968 20.2583 11.2968 23.2801C11.2968 24.2002 11.2968 25.1203 11.2968 26.0404C11.2968 26.8531 11.9915 27.7209 12.0376 28.6036C12.083 29.4749 13.0452 32.38 13.7043 32.9414C14.2966 33.4458 14.9568 36.8779 15.0007 37.6734C15.1069 39.5953 16.2178 41.9048 16.8527 43.7637C17.4838 45.6113 18.6357 47.5346 18.7047 49.5912C18.7712 51.574 19.7902 55.7636 20.7419 57.5875C21.693 59.4101 22.269 61.9741 22.8614 64.0064C23.3484 65.6771 22.9879 70.739 24.4459 71.9808C25.1377 72.57 26.0128 76.203 26.1127 77.1072C26.2474 78.3261 27.1556 79.7825 27.512 80.9629C27.8716 82.1543 27.7616 83.4423 28.1499 84.5996C29.515 88.669 30.79 92.6569 32.2242 96.6269C32.5729 97.5921 32.9127 99.1366 33.1297 100.176C33.3389 101.178 33.8372 102.102 33.891 103.133C33.9766 104.774 35.3483 106.099 35.7636 107.646C36.9746 112.159 38.9368 117.006 40.1878 121.667C41.1919 125.409 43.4196 128.968 44.2416 132.906C44.7299 135.246 45.5949 137.669 47.143 139.5C47.7826 140.257 48.8931 143.497 49.6535 143.728C51.183 144.194 53.0408 145.228 54.6333 145.328C56.5891 145.45 59.4423 145.26 61.4857 145.744C64.6159 146.484 68.8289 147.946 71.8362 146.116C74.4855 144.505 75.9962 141.536 77.4128 138.821C79.459 134.9 75.7476 131.329 72.577 130.365C71.0375 129.896 69.4095 128.778 67.7824 128.393C66.1063 127.996 64.1431 127.977 62.4117 127.977C60.6214 127.977 58.8311 127.977 57.0409 127.977C55.3708 127.977 53.6013 129.16 52.0405 129.16C51.2475 129.16 50.6282 130.092 50.5589 128.765C50.5144 127.912 49.9692 127.025 49.7976 126.202C49.5524 125.028 48.6388 122.648 47.8838 121.755C47.2872 121.049 46.3004 118.518 46.0936 117.527C45.904 116.619 45.3734 116.097 45.3734 115.161C45.3734 114.366 45.1539 113.094 44.7149 112.51C43.7671 111.249 44.0641 109.063 43.3362 107.668C42.5898 106.238 42.1307 104.78 42.0398 103.133C42.0103 102.601 41.4423 98.6812 41.1138 98.4014C40.6162 97.9776 39.4885 94.4655 39.447 93.6694C39.3594 91.9909 37.9654 90.506 37.9654 88.7401C37.9654 86.8862 36.6596 85.4014 36.4838 83.8109C36.054 79.9218 33.9277 76.2752 33.5206 72.3751C33.3764 70.9936 32.4965 68.6775 31.8538 67.4459C31.4186 66.6119 30.5574 65.2699 30.5574 64.2912C30.5574 63.4431 30.605 62.4814 30.1047 61.8156C29.3577 60.8214 29.7325 58.1073 28.8907 57.3903C27.8854 56.5341 28.3785 53.8466 27.8824 52.6582C26.6212 49.6373 25.8136 46.6184 24.5488 43.5885C23.0712 40.0491 22.7208 36.1536 21.2152 32.547C19.8849 29.3603 19.9361 25.4412 18.6224 22.2942C17.8882 20.5355 17.355 18.5746 16.4823 16.9488C15.7069 15.5041 15.4523 13.3325 14.548 12.1291C12.7463 9.7313 13.4502 5.54172 11.7495 3.2784C11.3725 2.77679 11.4433 1.4499 10.556 1.39434C9.64894 1.33753 8.99313 1 8.14838 1C6.64734 1 5 1.55083 5 3.36603" stroke="black" stroke-linecap="round" stroke-linejoin="round"/>
        <path d="M19 53C21.7801 51.415 23.9978 51 27 51" stroke="black" stroke-linecap="round" stroke-linejoin="round"/>
        <path d="M54 131C55.5571 133.273 56.4884 135.949 58.0444 138.161C58.9117 139.395 59.8495 142.364 61 143" stroke="black" stroke-linecap="round" stroke-linejoin="round"/>
        <path d="M59 132C60.6969 134.556 63.0909 138.012 64 141" stroke="black" stroke-linecap="round" stroke-linejoin="round"/>
        <path d="M62 132C63.9931 135.236 67.3252 137.817 69 141" stroke="black" stroke-linecap="round" stroke-linejoin="round"/>
        <path d="M64 129C64.749 130.758 65.9107 132.358 67.0435 133.77C67.232 134.005 67.8766 135.715 67.913 136.024C67.9826 136.614 68.5912 137.242 68.8913 137.78C70.2132 140.153 71.7774 142.561 73 145" stroke="black" stroke-linecap="round" stroke-linejoin="round"/>
        <path d="M36.7657 133.077C33.9287 133.077 31.0254 134.711 30.3606 138.102C29.8271 140.822 29.6686 144.078 31.4445 146.342C33.0833 148.431 34.4089 150.952 36.9431 151.59C39.2726 152.177 41.5348 152.45 43.1511 150.161C43.6051 149.518 44.6542 149.037 45.2008 148.263C45.7847 147.435 45.9891 144.965 45.9891 143.93C45.9891 140.719 46.2653 139.116 44.038 137.097C43.3528 136.475 43.2786 135.188 42.4416 134.595C41.2692 133.765 41.2069 133.077 39.6037 133.077C37.0835 133.077 34.3572 132.633 32.154 133.881" stroke="black" stroke-linecap="round" stroke-linejoin="round"/>
        <path d="M35 138C34.3333 138 33.6667 138 33 138" stroke="black" stroke-linecap="round" stroke-linejoin="round"/>
        <path d="M38 140C38 140.333 38 140.667 38 141" stroke="black" stroke-linecap="round" stroke-linejoin="round"/>
        <path d="M37 143C37 143.39 37 143.682 37 144" stroke="black" stroke-linecap="round" stroke-linejoin="round"/>
        <path d="M40 144C40 144.333 40 144.667 40 145" stroke="black" stroke-linecap="round" stroke-linejoin="round"/>
        <path d="M40 141C40 141.333 40 141.667 40 142" stroke="black" stroke-linecap="round" stroke-linejoin="round"/>
        <path d="M40 137C40 137.333 40 137.667 40 138" stroke="black" stroke-linecap="round" stroke-linejoin="round"/>
        <path d="M45 139C45 139.333 45 139.667 45 140" stroke="black" stroke-linecap="round" stroke-linejoin="round"/>
        <path d="M44 142C44 142.333 44 142.667 44 143" stroke="black" stroke-linecap="round" stroke-linejoin="round"/>
        <path d="M42 145C42 145.333 42 145.667 42 146" stroke="black" stroke-linecap="round" stroke-linejoin="round"/>
        <path d="M39 147C39 147.333 39 147.667 39 148" stroke="black" stroke-linecap="round" stroke-linejoin="round"/>
        <path d="M42 148C42 148.36 42 148.651 42 149" stroke="black" stroke-linecap="round" stroke-linejoin="round"/>
        <path d="M44 147C44 147.333 44 147.667 44 148" stroke="black" stroke-linecap="round" stroke-linejoin="round"/>
    </g>
    <defs>
        <filter id="filter0_d" x="0.5" y="0.5" width="82.0004" height="160" filterUnits="userSpaceOnUse" color-interpolation-filters="sRGB">
            <feFlood flood-opacity="0" result="BackgroundImageFix"/>
            <feColorMatrix in="SourceAlpha" type="matrix" values="0 0 0 0 0 0 0 0 0 0 0 0 0 0 0 0 0 0 127 0"/>
            <feOffset dy="4"/>
            <feGaussianBlur stdDeviation="2"/>
            <feColorMatrix type="matrix" values="0 0 0 0 0 0 0 0 0 0 0 0 0 0 0 0 0 0 0.25 0"/>
            <feBlend mode="normal" in2="BackgroundImageFix" result="effect1_dropShadow"/>
            <feBlend mode="normal" in="SourceGraphic" in2="effect1_dropShadow" result="shape"/>
        </filter>
    </defs>
</svg>
