<svg width="201" height="149" viewBox="0 0 201 149" fill="none" xmlns="http://www.w3.org/2000/svg">
    <rect x="0.501953" y="18.8951" width="178.907" height="129.605" rx="2.5" fill="#F3F3F3" stroke="#D4D0D0"/>
    <line y1="54.2793" x2="179.907" y2="54.2793" stroke="#D4D0D0"/>
    <g filter="url(#filter0_d)">
        <ellipse cx="181.257" cy="16.0957" rx="15.7419" ry="16.0957" fill="#565151"/>
    </g>
    <rect x="179.908" y="6.43828" width="3.59814" height="18.3951" rx="1.79907" fill="#0CE8D4"/>
    <rect x="172.713" y="17.4753" width="3.67901" height="17.9907" rx="1.83951" transform="rotate(-90 172.713 17.4753)" fill="#0CE8D4"/>
    <path d="M30.0956 74.2552C31.5423 74.2552 32.2656 73.7372 32.2656 72.7012C32.2656 71.9452 32.0883 71.4692 31.7336 71.2732C31.3883 71.0679 30.6043 70.9652 29.3816 70.9652L29.3256 74.2272C29.6429 74.2459 29.8996 74.2552 30.0956 74.2552ZM30.0116 69.8172C30.7303 69.7985 31.2389 69.7052 31.5376 69.5372C31.8363 69.3692 31.9856 69.0192 31.9856 68.4872C31.9856 67.9459 31.8129 67.5865 31.4676 67.4092C31.1223 67.2319 30.5996 67.1432 29.8996 67.1432H29.3956C29.3769 68.3192 29.3676 69.2059 29.3676 69.8032L30.0116 69.8172ZM30.0256 75.5572H26.5676L26.4416 74.7872C26.9269 74.5912 27.3189 74.4559 27.6176 74.3812C27.6176 74.3532 27.5756 71.8845 27.4916 66.9752C27.3423 66.9379 26.9549 66.8165 26.3296 66.6112L26.4416 65.7572H30.3196C31.4303 65.7572 32.2936 65.9719 32.9096 66.4012C33.5256 66.8305 33.8336 67.4512 33.8336 68.2632C33.8336 68.6552 33.7263 69.0799 33.5116 69.5372C33.3063 69.9945 33.0683 70.2652 32.7976 70.3492C33.2083 70.5732 33.5303 70.8859 33.7636 71.2872C33.9969 71.6885 34.1136 72.1505 34.1136 72.6732C34.1136 73.5319 33.7636 74.2272 33.0636 74.7592C32.3636 75.2912 31.3509 75.5572 30.0256 75.5572ZM38.858 69.3832C38.522 69.3832 38.1393 69.4672 37.71 69.6352C37.5886 69.8219 37.472 70.1532 37.36 70.6292C37.2573 71.0959 37.206 71.5672 37.206 72.0432C37.206 72.9205 37.3366 73.5459 37.598 73.9192C37.8593 74.2832 38.2793 74.4652 38.858 74.4652C39.446 74.4652 39.8706 74.2832 40.132 73.9192C40.3933 73.5459 40.524 72.9112 40.524 72.0152C40.524 71.1099 40.3886 70.4472 40.118 70.0272C39.8566 69.5979 39.4366 69.3832 38.858 69.3832ZM38.858 68.2632C39.95 68.2632 40.8273 68.5992 41.49 69.2712C42.162 69.9339 42.498 70.8625 42.498 72.0572C42.498 73.2425 42.1666 74.1479 41.504 74.7732C40.8413 75.3985 39.9593 75.7112 38.858 75.7112C37.7566 75.7112 36.8746 75.3985 36.212 74.7732C35.5586 74.1479 35.232 73.2425 35.232 72.0572C35.232 70.8625 35.5633 69.9339 36.226 69.2712C36.8886 68.5992 37.766 68.2632 38.858 68.2632ZM47.3992 68.4312C47.5205 68.4219 47.7538 68.4172 48.0992 68.4172C48.4538 68.4172 48.7712 68.4265 49.0512 68.4452L49.9472 71.3292L50.3812 73.3032H50.6192L51.0252 71.3572L51.5572 69.5652C51.2398 69.5092 50.8478 69.3879 50.3812 69.2012L50.5072 68.4312H53.9932C54.2078 68.8605 54.3152 69.2665 54.3152 69.6492C53.9512 69.7052 53.5872 69.7425 53.2232 69.7612C53.0085 70.4892 52.6772 71.5625 52.2292 72.9812C51.7905 74.3905 51.5245 75.2445 51.4312 75.5432H49.5272L48.2252 71.2312H48.1692L46.8252 75.5432H45.0192L43.2132 69.7752L42.1212 69.6492C42.1212 69.2665 42.2285 68.8605 42.4432 68.4312H45.9292L46.0552 69.2012C45.6725 69.3785 45.3505 69.4999 45.0892 69.5652L45.5512 71.3432L45.9012 73.3032H46.1252L46.5312 71.3292L47.3992 68.4312ZM57.4981 65.1412C57.6754 65.1412 57.7874 65.1459 57.8341 65.1552C57.8341 65.6405 57.7734 66.0652 57.6521 66.4292C57.6428 67.0079 57.6288 67.8245 57.6101 68.8792C57.5728 71.1939 57.5448 72.9672 57.5261 74.1992L58.6181 74.3252C58.6181 74.7079 58.5108 75.1139 58.2961 75.5432H54.8101L54.6841 74.7732C55.2628 74.5585 55.6828 74.4185 55.9441 74.3532L55.6781 66.5832C55.2394 66.5365 54.8708 66.4665 54.5721 66.3732C54.5721 66.0279 54.6048 65.6919 54.6701 65.3652C55.2208 65.2159 56.1634 65.1412 57.4981 65.1412ZM61.781 68.3752C61.9583 68.3752 62.0703 68.3799 62.117 68.3892C62.117 68.8465 62.0377 69.2712 61.879 69.6632C61.8417 71.6792 61.8183 73.1912 61.809 74.1992L62.901 74.3252C62.901 74.7079 62.7937 75.1139 62.579 75.5432H59.093L58.967 74.7732C59.5457 74.5585 59.9657 74.4185 60.227 74.3532L60.073 69.8172C59.5223 69.7612 59.1163 69.6912 58.855 69.6072C58.855 69.3739 58.8877 69.0379 58.953 68.5992C59.5037 68.4499 60.4463 68.3752 61.781 68.3752ZM61.781 65.7292C61.865 66.1492 61.907 66.4712 61.907 66.6952C61.907 66.9099 61.8883 67.1525 61.851 67.4232C61.4777 67.5072 61.1603 67.5492 60.899 67.5492C60.647 67.5492 60.339 67.5352 59.975 67.5072C59.891 67.0872 59.849 66.7699 59.849 66.5552C59.849 66.3312 59.8677 66.0839 59.905 65.8132C60.2783 65.7292 60.591 65.6872 60.843 65.6872C61.1043 65.6872 61.417 65.7012 61.781 65.7292ZM67.8376 68.2632C68.771 68.2632 69.4476 68.4919 69.8676 68.9492C70.2876 69.4065 70.4976 70.0459 70.4976 70.8672C70.4976 71.6885 70.451 72.7992 70.3576 74.1992L71.4636 74.3252C71.4636 74.7079 71.3563 75.1139 71.1416 75.5432H67.6556L67.5296 74.7732C67.9683 74.5959 68.3743 74.4559 68.7476 74.3532C68.7196 73.2799 68.6916 72.3792 68.6636 71.6512C68.6356 70.9139 68.5656 70.4145 68.4536 70.1532C68.3416 69.8919 68.0943 69.7612 67.7116 69.7612C67.133 69.7612 66.615 69.8639 66.1576 70.0692C66.1483 70.4705 66.1203 71.1285 66.0736 72.0432C66.0363 72.9485 66.013 73.6672 66.0036 74.1992L67.0956 74.3252C67.0956 74.7079 66.9883 75.1139 66.7736 75.5432H63.2876L63.1616 74.7732C63.6283 74.5959 64.0483 74.4559 64.4216 74.3532C64.4123 73.7932 64.3796 73.0185 64.3236 72.0292C64.277 71.0399 64.249 70.3072 64.2396 69.8312C63.8943 69.7939 63.5256 69.7239 63.1336 69.6212L63.2036 68.6132C63.857 68.4359 64.5943 68.3472 65.4156 68.3472C65.5183 68.4125 65.6583 68.6132 65.8356 68.9492C66.153 68.7905 66.5403 68.6365 66.9976 68.4872C67.455 68.3379 67.735 68.2632 67.8376 68.2632ZM77.4446 73.1212C77.1366 73.3172 76.8099 73.4619 76.4646 73.5552C76.1193 73.6392 75.7833 73.6812 75.4566 73.6812C75.1393 73.6812 74.8593 73.6485 74.6166 73.5832C74.5139 73.8259 74.4159 74.0079 74.3226 74.1292C74.3973 74.2412 75.1813 74.2972 76.6746 74.2972C77.6079 74.2972 78.2659 74.4419 78.6486 74.7312C78.8259 74.8525 78.9799 75.0439 79.1106 75.3052C79.2506 75.5665 79.3206 75.9025 79.3206 76.3132C79.3206 76.7332 79.1153 77.1532 78.7046 77.5732C78.2939 77.9932 77.7806 78.3245 77.1646 78.5672C76.5486 78.8099 75.9373 78.9312 75.3306 78.9312C74.3226 78.9312 73.5059 78.7305 72.8806 78.3292C72.2553 77.9372 71.9426 77.4472 71.9426 76.8592C71.9426 76.7472 72.1059 76.4719 72.4326 76.0332C72.7593 75.6039 72.9739 75.3565 73.0766 75.2912C72.9833 75.2445 72.8199 75.0905 72.5866 74.8292C72.3533 74.5585 72.2226 74.3672 72.1946 74.2552C72.3159 73.9192 72.6893 73.4992 73.3146 72.9952C72.5866 72.5565 72.2226 71.8192 72.2226 70.7832C72.2226 69.9619 72.5026 69.3365 73.0626 68.9072C73.6319 68.4779 74.3786 68.2632 75.3026 68.2632C76.2359 68.2632 76.9406 68.3892 77.4166 68.6412C78.2099 68.5012 78.7699 68.4312 79.0966 68.4312C79.4326 68.4312 79.6519 68.4359 79.7546 68.4452C79.7546 68.6692 79.6986 68.9259 79.5866 69.2152C79.4839 69.4952 79.3859 69.6912 79.2926 69.8032L78.0886 69.5232C78.3219 69.8592 78.4386 70.2932 78.4386 70.8252C78.4386 71.3572 78.3499 71.8239 78.1726 72.2252C77.9953 72.6172 77.7526 72.9159 77.4446 73.1212ZM77.3746 77.1252C77.4399 76.9479 77.4726 76.7425 77.4726 76.5092C77.4726 76.2759 77.3699 76.1032 77.1646 75.9912C76.9593 75.8885 76.7166 75.8372 76.4366 75.8372C75.3446 75.8372 74.6213 75.8279 74.2666 75.8092C74.1919 75.9679 74.0986 76.1919 73.9866 76.4812C73.8746 76.7799 73.8186 76.9572 73.8186 77.0132C73.8186 77.0692 73.8559 77.1485 73.9306 77.2512C74.0053 77.3632 74.1639 77.4799 74.4066 77.6012C74.6586 77.7225 74.9619 77.7832 75.3166 77.7832C75.6806 77.7832 76.1053 77.6992 76.5906 77.5312C77.0759 77.3632 77.3373 77.2279 77.3746 77.1252ZM76.2406 69.6912C76.0259 69.4392 75.7226 69.3132 75.3306 69.3132C74.9386 69.3132 74.6306 69.4392 74.4066 69.6912C74.1919 69.9432 74.0846 70.3119 74.0846 70.7972C74.0846 71.2732 74.1966 71.6465 74.4206 71.9172C74.6446 72.1879 74.9479 72.3232 75.3306 72.3232C76.1613 72.3232 76.5766 71.8099 76.5766 70.7832C76.5766 70.3072 76.4646 69.9432 76.2406 69.6912ZM82.0523 73.7512C82.1363 74.0872 82.1783 74.4699 82.1783 74.8992C82.1783 75.3285 81.9963 75.7999 81.6323 76.3132C81.2683 76.8359 80.9277 77.1952 80.6103 77.3912C80.2837 77.2512 80.0177 77.0645 79.8123 76.8312C79.9337 76.4672 80.1997 76.0425 80.6103 75.5572L80.2603 75.5152C80.1763 75.2259 80.1343 74.9319 80.1343 74.6332C80.1343 74.3252 80.1483 74.0545 80.1763 73.8212C80.559 73.7372 80.8437 73.6952 81.0303 73.6952C81.2263 73.6952 81.567 73.7139 82.0523 73.7512ZM90.4625 65.7432C91.6478 65.7432 92.5298 65.9485 93.1085 66.3592C93.6872 66.7699 93.9765 67.5165 93.9765 68.5992C93.9765 69.5045 93.6965 70.2605 93.1365 70.8672C92.5765 71.4645 91.6805 71.7632 90.4485 71.7632C90.0472 71.7632 89.7298 71.7585 89.4965 71.7492L89.4685 74.2132L90.4905 74.3252C90.4905 74.7359 90.3832 75.1419 90.1685 75.5432H86.7105L86.5845 74.7732C87.0698 74.5772 87.4618 74.4419 87.7605 74.3672C87.7605 74.3392 87.7185 71.8705 87.6345 66.9612C87.4852 66.9239 87.0978 66.8025 86.4725 66.5972L86.5845 65.7432H90.4625ZM90.1545 70.4332C90.7798 70.4239 91.2652 70.2512 91.6105 69.9152C91.9558 69.5792 92.1285 69.1452 92.1285 68.6132C92.1285 68.0812 91.9745 67.7032 91.6665 67.4792C91.3678 67.2459 90.8965 67.1292 90.2525 67.1292C90.0005 67.1292 89.7625 67.1339 89.5385 67.1432C89.5198 68.6179 89.5105 69.7192 89.5105 70.4472L90.1545 70.4332ZM97.4372 68.3752C97.6146 68.3752 97.7266 68.3799 97.7732 68.3892C97.7732 68.8465 97.6939 69.2712 97.5352 69.6632C97.4979 71.6792 97.4746 73.1912 97.4652 74.1992L98.5572 74.3252C98.5572 74.7079 98.4499 75.1139 98.2352 75.5432H94.7492L94.6232 74.7732C95.2019 74.5585 95.6219 74.4185 95.8832 74.3532L95.7292 69.8172C95.1786 69.7612 94.7726 69.6912 94.5112 69.6072C94.5112 69.3739 94.5439 69.0379 94.6092 68.5992C95.1599 68.4499 96.1026 68.3752 97.4372 68.3752ZM97.4372 65.7292C97.5212 66.1492 97.5632 66.4712 97.5632 66.6952C97.5632 66.9099 97.5446 67.1525 97.5072 67.4232C97.1339 67.5072 96.8166 67.5492 96.5552 67.5492C96.3032 67.5492 95.9952 67.5352 95.6312 67.5072C95.5472 67.0872 95.5052 66.7699 95.5052 66.5552C95.5052 66.3312 95.5239 66.0839 95.5612 65.8132C95.9346 65.7292 96.2472 65.6872 96.4992 65.6872C96.7606 65.6872 97.0732 65.7012 97.4372 65.7292ZM103.494 68.2632C104.427 68.2632 105.104 68.4919 105.524 68.9492C105.944 69.4065 106.154 70.0459 106.154 70.8672C106.154 71.6885 106.107 72.7992 106.014 74.1992L107.12 74.3252C107.12 74.7079 107.013 75.1139 106.798 75.5432H103.312L103.186 74.7732C103.625 74.5959 104.031 74.4559 104.404 74.3532C104.376 73.2799 104.348 72.3792 104.32 71.6512C104.292 70.9139 104.222 70.4145 104.11 70.1532C103.998 69.8919 103.751 69.7612 103.368 69.7612C102.789 69.7612 102.271 69.8639 101.814 70.0692C101.805 70.4705 101.777 71.1285 101.73 72.0432C101.693 72.9485 101.669 73.6672 101.66 74.1992L102.752 74.3252C102.752 74.7079 102.645 75.1139 102.43 75.5432H98.9439L98.8179 74.7732C99.2845 74.5959 99.7045 74.4559 100.078 74.3532C100.069 73.7932 100.036 73.0185 99.9799 72.0292C99.9332 71.0399 99.9052 70.3072 99.8959 69.8312C99.5505 69.7939 99.1819 69.7239 98.7899 69.6212L98.8599 68.6132C99.5132 68.4359 100.251 68.3472 101.072 68.3472C101.175 68.4125 101.315 68.6132 101.492 68.9492C101.809 68.7905 102.197 68.6365 102.654 68.4872C103.111 68.3379 103.391 68.2632 103.494 68.2632ZM113.101 73.1212C112.793 73.3172 112.466 73.4619 112.121 73.5552C111.776 73.6392 111.44 73.6812 111.113 73.6812C110.796 73.6812 110.516 73.6485 110.273 73.5832C110.17 73.8259 110.072 74.0079 109.979 74.1292C110.054 74.2412 110.838 74.2972 112.331 74.2972C113.264 74.2972 113.922 74.4419 114.305 74.7312C114.482 74.8525 114.636 75.0439 114.767 75.3052C114.907 75.5665 114.977 75.9025 114.977 76.3132C114.977 76.7332 114.772 77.1532 114.361 77.5732C113.95 77.9932 113.437 78.3245 112.821 78.5672C112.205 78.8099 111.594 78.9312 110.987 78.9312C109.979 78.9312 109.162 78.7305 108.537 78.3292C107.912 77.9372 107.599 77.4472 107.599 76.8592C107.599 76.7472 107.762 76.4719 108.089 76.0332C108.416 75.6039 108.63 75.3565 108.733 75.2912C108.64 75.2445 108.476 75.0905 108.243 74.8292C108.01 74.5585 107.879 74.3672 107.851 74.2552C107.972 73.9192 108.346 73.4992 108.971 72.9952C108.243 72.5565 107.879 71.8192 107.879 70.7832C107.879 69.9619 108.159 69.3365 108.719 68.9072C109.288 68.4779 110.035 68.2632 110.959 68.2632C111.892 68.2632 112.597 68.3892 113.073 68.6412C113.866 68.5012 114.426 68.4312 114.753 68.4312C115.089 68.4312 115.308 68.4359 115.411 68.4452C115.411 68.6692 115.355 68.9259 115.243 69.2152C115.14 69.4952 115.042 69.6912 114.949 69.8032L113.745 69.5232C113.978 69.8592 114.095 70.2932 114.095 70.8252C114.095 71.3572 114.006 71.8239 113.829 72.2252C113.652 72.6172 113.409 72.9159 113.101 73.1212ZM113.031 77.1252C113.096 76.9479 113.129 76.7425 113.129 76.5092C113.129 76.2759 113.026 76.1032 112.821 75.9912C112.616 75.8885 112.373 75.8372 112.093 75.8372C111.001 75.8372 110.278 75.8279 109.923 75.8092C109.848 75.9679 109.755 76.1919 109.643 76.4812C109.531 76.7799 109.475 76.9572 109.475 77.0132C109.475 77.0692 109.512 77.1485 109.587 77.2512C109.662 77.3632 109.82 77.4799 110.063 77.6012C110.315 77.7225 110.618 77.7832 110.973 77.7832C111.337 77.7832 111.762 77.6992 112.247 77.5312C112.732 77.3632 112.994 77.2279 113.031 77.1252ZM111.897 69.6912C111.682 69.4392 111.379 69.3132 110.987 69.3132C110.595 69.3132 110.287 69.4392 110.063 69.6912C109.848 69.9432 109.741 70.3119 109.741 70.7972C109.741 71.2732 109.853 71.6465 110.077 71.9172C110.301 72.1879 110.604 72.3232 110.987 72.3232C111.818 72.3232 112.233 71.8099 112.233 70.7832C112.233 70.3072 112.121 69.9432 111.897 69.6912ZM123.179 65.7432C124.365 65.7432 125.247 65.9485 125.825 66.3592C126.404 66.7699 126.693 67.5165 126.693 68.5992C126.693 69.5045 126.413 70.2605 125.853 70.8672C125.293 71.4645 124.397 71.7632 123.165 71.7632C122.764 71.7632 122.447 71.7585 122.213 71.7492L122.185 74.2132L123.207 74.3252C123.207 74.7359 123.1 75.1419 122.885 75.5432H119.427L119.301 74.7732C119.787 74.5772 120.179 74.4419 120.477 74.3672C120.477 74.3392 120.435 71.8705 120.351 66.9612C120.202 66.9239 119.815 66.8025 119.189 66.5972L119.301 65.7432H123.179ZM122.871 70.4332C123.497 70.4239 123.982 70.2512 124.327 69.9152C124.673 69.5792 124.845 69.1452 124.845 68.6132C124.845 68.0812 124.691 67.7032 124.383 67.4792C124.085 67.2459 123.613 67.1292 122.969 67.1292C122.717 67.1292 122.479 67.1339 122.255 67.1432C122.237 68.6179 122.227 69.7192 122.227 70.4472L122.871 70.4332ZM130.938 69.3832C130.602 69.3832 130.219 69.4672 129.79 69.6352C129.669 69.8219 129.552 70.1532 129.44 70.6292C129.337 71.0959 129.286 71.5672 129.286 72.0432C129.286 72.9205 129.417 73.5459 129.678 73.9192C129.939 74.2832 130.359 74.4652 130.938 74.4652C131.526 74.4652 131.951 74.2832 132.212 73.9192C132.473 73.5459 132.604 72.9112 132.604 72.0152C132.604 71.1099 132.469 70.4472 132.198 70.0272C131.937 69.5979 131.517 69.3832 130.938 69.3832ZM130.938 68.2632C132.03 68.2632 132.907 68.5992 133.57 69.2712C134.242 69.9339 134.578 70.8625 134.578 72.0572C134.578 73.2425 134.247 74.1479 133.584 74.7732C132.921 75.3985 132.039 75.7112 130.938 75.7112C129.837 75.7112 128.955 75.3985 128.292 74.7732C127.639 74.1479 127.312 73.2425 127.312 72.0572C127.312 70.8625 127.643 69.9339 128.306 69.2712C128.969 68.5992 129.846 68.2632 130.938 68.2632ZM139.437 68.2632C140.371 68.2632 141.047 68.4919 141.467 68.9492C141.887 69.4065 142.097 70.0459 142.097 70.8672C142.097 71.6885 142.051 72.7992 141.957 74.1992L143.063 74.3252C143.063 74.7079 142.956 75.1139 142.741 75.5432H139.255L139.129 74.7732C139.568 74.5959 139.974 74.4559 140.347 74.3532C140.319 73.2799 140.291 72.3792 140.263 71.6512C140.235 70.9139 140.165 70.4145 140.053 70.1532C139.941 69.8919 139.694 69.7612 139.311 69.7612C138.733 69.7612 138.215 69.8639 137.757 70.0692C137.748 70.4705 137.72 71.1285 137.673 72.0432C137.636 72.9485 137.613 73.6672 137.603 74.1992L138.695 74.3252C138.695 74.7079 138.588 75.1139 138.373 75.5432H134.887L134.761 74.7732C135.228 74.5959 135.648 74.4559 136.021 74.3532C136.012 73.7932 135.979 73.0185 135.923 72.0292C135.877 71.0399 135.849 70.3072 135.839 69.8312C135.494 69.7939 135.125 69.7239 134.733 69.6212L134.803 68.6132C135.457 68.4359 136.194 68.3472 137.015 68.3472C137.118 68.4125 137.258 68.6132 137.435 68.9492C137.753 68.7905 138.14 68.6365 138.597 68.4872C139.055 68.3379 139.335 68.2632 139.437 68.2632ZM149.044 73.1212C148.736 73.3172 148.41 73.4619 148.064 73.5552C147.719 73.6392 147.383 73.6812 147.056 73.6812C146.739 73.6812 146.459 73.6485 146.216 73.5832C146.114 73.8259 146.016 74.0079 145.922 74.1292C145.997 74.2412 146.781 74.2972 148.274 74.2972C149.208 74.2972 149.866 74.4419 150.248 74.7312C150.426 74.8525 150.58 75.0439 150.71 75.3052C150.85 75.5665 150.92 75.9025 150.92 76.3132C150.92 76.7332 150.715 77.1532 150.304 77.5732C149.894 77.9932 149.38 78.3245 148.764 78.5672C148.148 78.8099 147.537 78.9312 146.93 78.9312C145.922 78.9312 145.106 78.7305 144.48 78.3292C143.855 77.9372 143.542 77.4472 143.542 76.8592C143.542 76.7472 143.706 76.4719 144.032 76.0332C144.359 75.6039 144.574 75.3565 144.676 75.2912C144.583 75.2445 144.42 75.0905 144.186 74.8292C143.953 74.5585 143.822 74.3672 143.794 74.2552C143.916 73.9192 144.289 73.4992 144.914 72.9952C144.186 72.5565 143.822 71.8192 143.822 70.7832C143.822 69.9619 144.102 69.3365 144.662 68.9072C145.232 68.4779 145.978 68.2632 146.902 68.2632C147.836 68.2632 148.54 68.3892 149.016 68.6412C149.81 68.5012 150.37 68.4312 150.696 68.4312C151.032 68.4312 151.252 68.4359 151.354 68.4452C151.354 68.6692 151.298 68.9259 151.186 69.2152C151.084 69.4952 150.986 69.6912 150.892 69.8032L149.688 69.5232C149.922 69.8592 150.038 70.2932 150.038 70.8252C150.038 71.3572 149.95 71.8239 149.772 72.2252C149.595 72.6172 149.352 72.9159 149.044 73.1212ZM148.974 77.1252C149.04 76.9479 149.072 76.7425 149.072 76.5092C149.072 76.2759 148.97 76.1032 148.764 75.9912C148.559 75.8885 148.316 75.8372 148.036 75.8372C146.944 75.8372 146.221 75.8279 145.866 75.8092C145.792 75.9679 145.698 76.1919 145.586 76.4812C145.474 76.7799 145.418 76.9572 145.418 77.0132C145.418 77.0692 145.456 77.1485 145.53 77.2512C145.605 77.3632 145.764 77.4799 146.006 77.6012C146.258 77.7225 146.562 77.7832 146.916 77.7832C147.28 77.7832 147.705 77.6992 148.19 77.5312C148.676 77.3632 148.937 77.2279 148.974 77.1252ZM147.84 69.6912C147.626 69.4392 147.322 69.3132 146.93 69.3132C146.538 69.3132 146.23 69.4392 146.006 69.6912C145.792 69.9432 145.684 70.3119 145.684 70.7972C145.684 71.2732 145.796 71.6465 146.02 71.9172C146.244 72.1879 146.548 72.3232 146.93 72.3232C147.761 72.3232 148.176 71.8099 148.176 70.7832C148.176 70.3072 148.064 69.9432 147.84 69.6912ZM153.652 73.7512C153.736 74.0872 153.778 74.4699 153.778 74.8992C153.778 75.3285 153.596 75.7999 153.232 76.3132C152.868 76.8359 152.527 77.1952 152.21 77.3912C151.883 77.2512 151.617 77.0645 151.412 76.8312C151.533 76.4672 151.799 76.0425 152.21 75.5572L151.86 75.5152C151.776 75.2259 151.734 74.9319 151.734 74.6332C151.734 74.3252 151.748 74.0545 151.776 73.8212C152.159 73.7372 152.443 73.6952 152.63 73.6952C152.826 73.6952 153.167 73.7139 153.652 73.7512ZM40.7281 93.5432L38.8801 85.9132H38.7401L36.8641 93.5432H34.6801L32.4401 84.9192C32.1508 84.8445 31.7588 84.7092 31.2641 84.5132L31.3901 83.7432H34.7921C35.0068 84.1725 35.1141 84.5785 35.1141 84.9612C34.8341 85.0172 34.5121 85.0592 34.1481 85.0872L35.6181 91.2752L37.8301 83.7432H39.9581L41.7921 91.1912L43.3041 84.9192C43.0148 84.8445 42.6228 84.7092 42.1281 84.5132L42.2541 83.7432H45.6561C45.8708 84.1725 45.9781 84.5785 45.9781 84.9612C45.6981 85.0172 45.3761 85.0592 45.0121 85.0872L42.7441 93.5432H40.7281ZM49.3399 93.7112C48.5465 93.7112 47.9305 93.5479 47.4919 93.2212C47.0625 92.8945 46.8479 92.3439 46.8479 91.5692C46.8479 90.8319 47.1045 90.2299 47.6179 89.7632C47.9165 89.4925 48.3319 89.3339 48.8639 89.2872C49.3959 89.2405 50.1285 89.2172 51.0619 89.2172V88.9932C51.0619 88.4239 50.9685 88.0085 50.7819 87.7472C50.6045 87.4765 50.2872 87.3412 49.8299 87.3412C49.5965 87.3412 49.3865 87.3879 49.1999 87.4812L48.8639 88.6992L47.8279 88.6712C47.5945 88.3165 47.4685 87.7519 47.4499 86.9772C47.6365 86.8839 48.0752 86.7439 48.7659 86.5572C49.4565 86.3612 49.8999 86.2632 50.0959 86.2632C51.1039 86.2632 51.8365 86.4732 52.2939 86.8932C52.7512 87.3039 52.9799 87.9619 52.9799 88.8672C52.9799 89.7632 52.9379 90.9485 52.8539 92.4232C53.3859 92.4699 53.7965 92.5492 54.0859 92.6612C54.0952 92.7732 54.0999 92.9085 54.0999 93.0672L54.0859 93.3752C53.4139 93.5992 52.7372 93.7112 52.0559 93.7112C51.8785 93.7112 51.7479 93.7065 51.6639 93.6972C51.5239 93.4172 51.4399 93.0812 51.4119 92.6892H51.3419C51.1645 92.8572 50.8519 93.0719 50.4039 93.3332C49.9652 93.5852 49.6105 93.7112 49.3399 93.7112ZM48.6399 91.6532C48.6399 91.9612 48.7332 92.1899 48.9199 92.3392C49.1159 92.4792 49.3352 92.5492 49.5779 92.5492C49.8205 92.5492 50.1099 92.4419 50.4459 92.2272C50.7819 92.0032 51.0525 91.8025 51.2579 91.6252L51.1879 90.3372C50.4505 90.3745 49.8952 90.4445 49.5219 90.5472C48.9339 90.6685 48.6399 91.0372 48.6399 91.6532ZM55.9487 93.7112L55.6407 93.6972C55.5847 93.5945 55.5101 93.4032 55.4167 93.1232C55.3234 92.8432 55.2721 92.6332 55.2627 92.4932C55.2161 91.5692 55.1647 89.9685 55.1087 87.6912H54.1287L54.1707 86.8932C54.3854 86.7439 54.6421 86.6085 54.9407 86.4872L56.0747 84.6952C56.4387 84.7325 56.7234 84.8305 56.9287 84.9892L56.9147 86.3192C57.5027 86.3379 58.0487 86.3939 58.5527 86.4872C58.5527 86.8605 58.4361 87.2619 58.2027 87.6912H56.9007C56.8634 89.6512 56.8401 91.1212 56.8307 92.1012C57.2041 92.1385 57.7127 92.2459 58.3567 92.4232L58.3427 93.1512C58.1841 93.2539 57.8294 93.3752 57.2787 93.5152C56.7374 93.6459 56.2941 93.7112 55.9487 93.7112ZM62.9859 87.4252L62.7619 87.4112C62.2393 87.4112 61.8193 87.5932 61.5019 87.9572C61.1939 88.3119 61.0399 88.9139 61.0399 89.7632C61.0399 90.6032 61.1566 91.2425 61.3899 91.6812C61.6326 92.1199 62.0946 92.3392 62.7759 92.3392C63.0933 92.3392 63.7653 92.1245 64.7919 91.6952C65.0253 92.0219 65.1513 92.3625 65.1699 92.7172C64.6566 93.0345 64.1526 93.2819 63.6579 93.4592C63.1726 93.6365 62.8273 93.7252 62.6219 93.7252C61.4739 93.7252 60.6153 93.4125 60.0459 92.7872C59.4766 92.1525 59.1919 91.2659 59.1919 90.1272C59.1919 87.5512 60.3539 86.2632 62.6779 86.2632C63.0793 86.2632 63.4899 86.3145 63.9099 86.4172C64.3393 86.5105 64.6753 86.6319 64.9179 86.7812C64.8899 87.7145 64.7873 88.3912 64.6099 88.8112C64.3019 88.8859 63.8679 88.9232 63.3079 88.9232L62.9859 87.4252ZM68.4974 83.1412L68.8334 83.1552C68.8334 83.6405 68.7728 84.0652 68.6514 84.4292C68.6328 85.4932 68.6234 86.2912 68.6234 86.8232C68.9221 86.6925 69.2628 86.5665 69.6454 86.4452C70.0281 86.3239 70.2661 86.2632 70.3594 86.2632C71.3114 86.2632 71.9928 86.4779 72.4034 86.9072C72.8234 87.3365 73.0334 88.0132 73.0334 88.9372C73.0334 89.0305 72.9868 90.1179 72.8934 92.1992L73.9854 92.3392C73.9854 92.7405 73.8781 93.1419 73.6634 93.5432H70.1774L70.0514 92.7732C70.6768 92.5212 71.0781 92.3859 71.2554 92.3672C71.2368 91.3592 71.2134 90.4679 71.1854 89.6932C71.1574 88.9092 71.0828 88.3912 70.9614 88.1392C70.8401 87.8872 70.6441 87.7612 70.3734 87.7612C70.1121 87.7612 69.8088 87.7939 69.4634 87.8592C69.1274 87.9152 68.8661 87.9852 68.6794 88.0692L68.5254 92.1992L69.6174 92.3252C69.6174 92.7079 69.5101 93.1139 69.2954 93.5432H65.8094L65.6834 92.7732C66.2621 92.5585 66.6821 92.4185 66.9434 92.3532L66.6774 84.5832C66.2388 84.5365 65.8701 84.4665 65.5714 84.3732C65.5714 84.1399 65.6041 83.8039 65.6694 83.3652C66.2201 83.2159 67.1628 83.1412 68.4974 83.1412ZM77.2781 86.3752C77.4554 86.3752 77.5674 86.3799 77.6141 86.3892C77.6141 86.8465 77.5347 87.2712 77.3761 87.6632C77.3387 89.6792 77.3154 91.1912 77.3061 92.1992L78.3981 92.3252C78.3981 92.7079 78.2907 93.1139 78.0761 93.5432H74.5901L74.4641 92.7732C75.0427 92.5585 75.4627 92.4185 75.7241 92.3532L75.5701 87.8172C75.0194 87.7612 74.6134 87.6912 74.3521 87.6072C74.3521 87.3739 74.3847 87.0379 74.4501 86.5992C75.0007 86.4499 75.9434 86.3752 77.2781 86.3752ZM77.2781 83.7292C77.3621 84.1492 77.4041 84.4712 77.4041 84.6952C77.4041 84.9099 77.3854 85.1525 77.3481 85.4232C76.9747 85.5072 76.6574 85.5492 76.3961 85.5492C76.1441 85.5492 75.8361 85.5352 75.4721 85.5072C75.3881 85.0872 75.3461 84.7699 75.3461 84.5552C75.3461 84.3312 75.3647 84.0839 75.4021 83.8132C75.7754 83.7292 76.0881 83.6872 76.3401 83.6872C76.6014 83.6872 76.9141 83.7012 77.2781 83.7292ZM83.3347 86.2632C84.268 86.2632 84.9447 86.4919 85.3647 86.9492C85.7847 87.4065 85.9947 88.0459 85.9947 88.8672C85.9947 89.6885 85.948 90.7992 85.8547 92.1992L86.9607 92.3252C86.9607 92.7079 86.8534 93.1139 86.6387 93.5432H83.1527L83.0267 92.7732C83.4654 92.5959 83.8714 92.4559 84.2447 92.3532C84.2167 91.2799 84.1887 90.3792 84.1607 89.6512C84.1327 88.9139 84.0627 88.4145 83.9507 88.1532C83.8387 87.8919 83.5914 87.7612 83.2087 87.7612C82.63 87.7612 82.112 87.8639 81.6547 88.0692C81.6454 88.4705 81.6174 89.1285 81.5707 90.0432C81.5334 90.9485 81.51 91.6672 81.5007 92.1992L82.5927 92.3252C82.5927 92.7079 82.4854 93.1139 82.2707 93.5432H78.7847L78.6587 92.7732C79.1254 92.5959 79.5454 92.4559 79.9187 92.3532C79.9094 91.7932 79.8767 91.0185 79.8207 90.0292C79.774 89.0399 79.746 88.3072 79.7367 87.8312C79.3914 87.7939 79.0227 87.7239 78.6307 87.6212L78.7007 86.6132C79.354 86.4359 80.0914 86.3472 80.9127 86.3472C81.0154 86.4125 81.1554 86.6132 81.3327 86.9492C81.65 86.7905 82.0374 86.6365 82.4947 86.4872C82.952 86.3379 83.232 86.2632 83.3347 86.2632ZM92.9417 91.1212C92.6337 91.3172 92.307 91.4619 91.9617 91.5552C91.6163 91.6392 91.2803 91.6812 90.9537 91.6812C90.6363 91.6812 90.3563 91.6485 90.1137 91.5832C90.011 91.8259 89.913 92.0079 89.8197 92.1292C89.8943 92.2412 90.6783 92.2972 92.1717 92.2972C93.105 92.2972 93.763 92.4419 94.1457 92.7312C94.323 92.8525 94.477 93.0439 94.6077 93.3052C94.7477 93.5665 94.8177 93.9025 94.8177 94.3132C94.8177 94.7332 94.6123 95.1532 94.2017 95.5732C93.791 95.9932 93.2777 96.3245 92.6617 96.5672C92.0457 96.8099 91.4343 96.9312 90.8277 96.9312C89.8197 96.9312 89.003 96.7305 88.3777 96.3292C87.7523 95.9372 87.4397 95.4472 87.4397 94.8592C87.4397 94.7472 87.603 94.4719 87.9297 94.0332C88.2563 93.6039 88.471 93.3565 88.5737 93.2912C88.4803 93.2445 88.317 93.0905 88.0837 92.8292C87.8503 92.5585 87.7197 92.3672 87.6917 92.2552C87.813 91.9192 88.1863 91.4992 88.8117 90.9952C88.0837 90.5565 87.7197 89.8192 87.7197 88.7832C87.7197 87.9619 87.9997 87.3365 88.5597 86.9072C89.129 86.4779 89.8757 86.2632 90.7997 86.2632C91.733 86.2632 92.4377 86.3892 92.9137 86.6412C93.707 86.5012 94.267 86.4312 94.5937 86.4312C94.9297 86.4312 95.149 86.4359 95.2517 86.4452C95.2517 86.6692 95.1957 86.9259 95.0837 87.2152C94.981 87.4952 94.883 87.6912 94.7897 87.8032L93.5857 87.5232C93.819 87.8592 93.9357 88.2932 93.9357 88.8252C93.9357 89.3572 93.847 89.8239 93.6697 90.2252C93.4923 90.6172 93.2497 90.9159 92.9417 91.1212ZM92.8717 95.1252C92.937 94.9479 92.9697 94.7425 92.9697 94.5092C92.9697 94.2759 92.867 94.1032 92.6617 93.9912C92.4563 93.8885 92.2137 93.8372 91.9337 93.8372C90.8417 93.8372 90.1183 93.8279 89.7637 93.8092C89.689 93.9679 89.5957 94.1919 89.4837 94.4812C89.3717 94.7799 89.3157 94.9572 89.3157 95.0132C89.3157 95.0692 89.353 95.1485 89.4277 95.2512C89.5023 95.3632 89.661 95.4799 89.9037 95.6012C90.1557 95.7225 90.459 95.7832 90.8137 95.7832C91.1777 95.7832 91.6023 95.6992 92.0877 95.5312C92.573 95.3632 92.8343 95.2279 92.8717 95.1252ZM91.7377 87.6912C91.523 87.4392 91.2197 87.3132 90.8277 87.3132C90.4357 87.3132 90.1277 87.4392 89.9037 87.6912C89.689 87.9432 89.5817 88.3119 89.5817 88.7972C89.5817 89.2732 89.6937 89.6465 89.9177 89.9172C90.1417 90.1879 90.445 90.3232 90.8277 90.3232C91.6583 90.3232 92.0737 89.8099 92.0737 88.7832C92.0737 88.3072 91.9617 87.9432 91.7377 87.6912ZM105.862 90.6872L107.15 83.7432H110.79C110.865 84.1445 110.902 84.4292 110.902 84.5972C110.454 84.7559 110.067 84.8772 109.74 84.9612L110.734 92.1992L111.7 92.3252C111.7 92.7079 111.593 93.1139 111.378 93.5432H107.976L107.85 92.7732C108.373 92.5585 108.765 92.4232 109.026 92.3672L107.948 86.6552L106.52 92.8572H105.092L102.88 86.0112L101.69 92.1992L102.656 92.3252C102.656 92.7079 102.549 93.1139 102.334 93.5432H98.9321L98.8061 92.7732C99.3288 92.5585 99.7208 92.4232 99.9821 92.3672L100.976 84.9612L99.8141 84.5972L99.9261 83.7432H103.846L105.722 90.6872H105.862ZM116.33 87.3832C115.994 87.3832 115.611 87.4672 115.182 87.6352C115.06 87.8219 114.944 88.1532 114.832 88.6292C114.729 89.0959 114.678 89.5672 114.678 90.0432C114.678 90.9205 114.808 91.5459 115.07 91.9192C115.331 92.2832 115.751 92.4652 116.33 92.4652C116.918 92.4652 117.342 92.2832 117.604 91.9192C117.865 91.5459 117.996 90.9112 117.996 90.0152C117.996 89.1099 117.86 88.4472 117.59 88.0272C117.328 87.5979 116.908 87.3832 116.33 87.3832ZM116.33 86.2632C117.422 86.2632 118.299 86.5992 118.962 87.2712C119.634 87.9339 119.97 88.8625 119.97 90.0572C119.97 91.2425 119.638 92.1479 118.976 92.7732C118.313 93.3985 117.431 93.7112 116.33 93.7112C115.228 93.7112 114.346 93.3985 113.684 92.7732C113.03 92.1479 112.704 91.2425 112.704 90.0572C112.704 88.8625 113.035 87.9339 113.698 87.2712C114.36 86.5992 115.238 86.2632 116.33 86.2632ZM123.989 91.4432L124.507 89.3572L125.249 87.5652C124.932 87.5092 124.54 87.3879 124.073 87.2012L124.199 86.4312H127.685C127.9 86.8605 128.007 87.2665 128.007 87.6492C127.643 87.7052 127.279 87.7425 126.915 87.7612C126.728 88.3865 126.36 89.3525 125.809 90.6592C125.268 91.9659 124.904 92.9272 124.717 93.5432H122.911L120.685 87.7752L119.593 87.6492C119.593 87.2665 119.7 86.8605 119.915 86.4312H123.401L123.527 87.2012C123.144 87.3785 122.822 87.4999 122.561 87.5652L123.233 89.3432L123.723 91.4432H123.989ZM131.337 86.3752C131.514 86.3752 131.626 86.3799 131.673 86.3892C131.673 86.8465 131.593 87.2712 131.435 87.6632C131.397 89.6792 131.374 91.1912 131.365 92.1992L132.457 92.3252C132.457 92.7079 132.349 93.1139 132.135 93.5432H128.649L128.523 92.7732C129.101 92.5585 129.521 92.4185 129.783 92.3532L129.629 87.8172C129.078 87.7612 128.672 87.6912 128.411 87.6072C128.411 87.3739 128.443 87.0379 128.509 86.5992C129.059 86.4499 130.002 86.3752 131.337 86.3752ZM131.337 83.7292C131.421 84.1492 131.463 84.4712 131.463 84.6952C131.463 84.9099 131.444 85.1525 131.407 85.4232C131.033 85.5072 130.716 85.5492 130.455 85.5492C130.203 85.5492 129.895 85.5352 129.531 85.5072C129.447 85.0872 129.405 84.7699 129.405 84.5552C129.405 84.3312 129.423 84.0839 129.461 83.8132C129.834 83.7292 130.147 83.6872 130.399 83.6872C130.66 83.6872 130.973 83.7012 131.337 83.7292ZM136.455 92.3392C136.773 92.3392 137.417 92.1199 138.387 91.6812C138.593 91.9799 138.747 92.3252 138.849 92.7172C138.336 93.0345 137.832 93.2819 137.337 93.4592C136.852 93.6272 136.507 93.7112 136.301 93.7112C135.172 93.7112 134.313 93.3985 133.725 92.7732C133.147 92.1479 132.857 91.2612 132.857 90.1132C132.857 88.9559 133.147 88.0272 133.725 87.3272C134.304 86.6179 135.163 86.2632 136.301 86.2632C137.207 86.2632 137.897 86.5572 138.373 87.1452C138.849 87.7332 139.087 88.4985 139.087 89.4412C139.087 89.6372 138.975 89.8612 138.751 90.1132L134.719 90.0432C134.738 90.7899 134.878 91.3592 135.139 91.7512C135.401 92.1432 135.839 92.3392 136.455 92.3392ZM136.175 87.4252C135.821 87.4252 135.489 87.4952 135.181 87.6352C134.967 88.0832 134.831 88.4985 134.775 88.8812C135.503 88.8532 136.329 88.8345 137.253 88.8252C137.207 87.8919 136.847 87.4252 136.175 87.4252ZM145.047 86.8652L145.061 87.2992C145.061 88.0272 145.005 88.5032 144.893 88.7272C144.585 88.8392 144.156 88.8952 143.605 88.8952L143.157 87.4812C143.036 87.4345 142.868 87.4112 142.653 87.4112C142.439 87.4112 142.261 87.4765 142.121 87.6072C141.991 87.7379 141.925 87.8919 141.925 88.0692C141.925 88.2465 141.995 88.4099 142.135 88.5592C142.275 88.6992 142.42 88.8112 142.569 88.8952C142.719 88.9792 142.933 89.0912 143.213 89.2312C143.503 89.3619 143.717 89.4645 143.857 89.5392C144.007 89.6139 144.193 89.7259 144.417 89.8752C144.651 90.0245 144.828 90.1645 144.949 90.2952C145.248 90.6499 145.397 91.0372 145.397 91.4572C145.397 92.1759 145.122 92.7312 144.571 93.1232C144.03 93.5152 143.363 93.7112 142.569 93.7112C142.149 93.7112 141.687 93.6365 141.183 93.4872C140.689 93.3379 140.269 93.1372 139.923 92.8852C139.923 92.2132 139.989 91.5879 140.119 91.0092C140.493 90.9625 140.796 90.9392 141.029 90.9392C141.263 90.9392 141.421 90.9439 141.505 90.9532L141.673 92.3112C141.907 92.3952 142.187 92.4372 142.513 92.4372C142.84 92.4372 143.097 92.3719 143.283 92.2412C143.479 92.1105 143.577 91.9285 143.577 91.6952C143.577 91.4525 143.47 91.2519 143.255 91.0932C143.041 90.9345 142.747 90.7712 142.373 90.6032C142 90.4259 141.711 90.2812 141.505 90.1692C141.3 90.0479 141.081 89.8939 140.847 89.7072C140.371 89.3432 140.133 88.8952 140.133 88.3632C140.133 87.7005 140.362 87.1872 140.819 86.8232C141.286 86.4499 141.911 86.2632 142.695 86.2632C143.479 86.2632 144.263 86.4639 145.047 86.8652ZM148.381 91.7512C148.465 92.0872 148.507 92.4699 148.507 92.8992C148.507 93.3285 148.325 93.7999 147.961 94.3132C147.597 94.8359 147.257 95.1952 146.939 95.3912C146.613 95.2512 146.347 95.0645 146.141 94.8312C146.263 94.4672 146.529 94.0425 146.939 93.5572L146.589 93.5152C146.505 93.2259 146.463 92.9319 146.463 92.6332C146.463 92.3252 146.477 92.0545 146.505 91.8212C146.888 91.7372 147.173 91.6952 147.359 91.6952C147.555 91.6952 147.896 91.7139 148.381 91.7512ZM48.3817 111.255C49.8284 111.255 50.5517 110.737 50.5517 109.701C50.5517 108.945 50.3744 108.469 50.0197 108.273C49.6744 108.068 48.8904 107.965 47.6677 107.965L47.6117 111.227C47.9291 111.246 48.1857 111.255 48.3817 111.255ZM48.2977 106.817C49.0164 106.799 49.5251 106.705 49.8237 106.537C50.1224 106.369 50.2717 106.019 50.2717 105.487C50.2717 104.946 50.0991 104.587 49.7537 104.409C49.4084 104.232 48.8857 104.143 48.1857 104.143H47.6817C47.6631 105.319 47.6537 106.206 47.6537 106.803L48.2977 106.817ZM48.3117 112.557H44.8537L44.7277 111.787C45.2131 111.591 45.6051 111.456 45.9037 111.381C45.9037 111.353 45.8617 108.885 45.7777 103.975C45.6284 103.938 45.2411 103.817 44.6157 103.611L44.7277 102.757H48.6057C49.7164 102.757 50.5797 102.972 51.1957 103.401C51.8117 103.831 52.1197 104.451 52.1197 105.263C52.1197 105.655 52.0124 106.08 51.7977 106.537C51.5924 106.995 51.3544 107.265 51.0837 107.349C51.4944 107.573 51.8164 107.886 52.0497 108.287C52.2831 108.689 52.3997 109.151 52.3997 109.673C52.3997 110.532 52.0497 111.227 51.3497 111.759C50.6497 112.291 49.6371 112.557 48.3117 112.557ZM57.1441 106.383C56.8081 106.383 56.4254 106.467 55.9961 106.635C55.8748 106.822 55.7581 107.153 55.6461 107.629C55.5434 108.096 55.4921 108.567 55.4921 109.043C55.4921 109.921 55.6228 110.546 55.8841 110.919C56.1454 111.283 56.5654 111.465 57.1441 111.465C57.7321 111.465 58.1568 111.283 58.4181 110.919C58.6794 110.546 58.8101 109.911 58.8101 109.015C58.8101 108.11 58.6748 107.447 58.4041 107.027C58.1428 106.598 57.7228 106.383 57.1441 106.383ZM57.1441 105.263C58.2361 105.263 59.1134 105.599 59.7761 106.271C60.4481 106.934 60.7841 107.863 60.7841 109.057C60.7841 110.243 60.4528 111.148 59.7901 111.773C59.1274 112.399 58.2454 112.711 57.1441 112.711C56.0428 112.711 55.1608 112.399 54.4981 111.773C53.8448 111.148 53.5181 110.243 53.5181 109.057C53.5181 107.863 53.8494 106.934 54.5121 106.271C55.1748 105.599 56.0521 105.263 57.1441 105.263ZM63.6133 112.711C62.82 112.711 62.204 112.548 61.7653 112.221C61.336 111.895 61.1213 111.344 61.1213 110.569C61.1213 109.832 61.378 109.23 61.8913 108.763C62.19 108.493 62.6053 108.334 63.1373 108.287C63.6693 108.241 64.402 108.217 65.3353 108.217V107.993C65.3353 107.424 65.242 107.009 65.0553 106.747C64.878 106.477 64.5606 106.341 64.1033 106.341C63.87 106.341 63.66 106.388 63.4733 106.481L63.1373 107.699L62.1013 107.671C61.868 107.317 61.742 106.752 61.7233 105.977C61.91 105.884 62.3486 105.744 63.0393 105.557C63.73 105.361 64.1733 105.263 64.3693 105.263C65.3773 105.263 66.11 105.473 66.5673 105.893C67.0246 106.304 67.2533 106.962 67.2533 107.867C67.2533 108.763 67.2113 109.949 67.1273 111.423C67.6593 111.47 68.07 111.549 68.3593 111.661C68.3686 111.773 68.3733 111.909 68.3733 112.067L68.3593 112.375C67.6873 112.599 67.0106 112.711 66.3293 112.711C66.152 112.711 66.0213 112.707 65.9373 112.697C65.7973 112.417 65.7133 112.081 65.6853 111.689H65.6153C65.438 111.857 65.1253 112.072 64.6773 112.333C64.2386 112.585 63.884 112.711 63.6133 112.711ZM62.9133 110.653C62.9133 110.961 63.0066 111.19 63.1933 111.339C63.3893 111.479 63.6086 111.549 63.8513 111.549C64.094 111.549 64.3833 111.442 64.7193 111.227C65.0553 111.003 65.326 110.803 65.5313 110.625L65.4613 109.337C64.724 109.375 64.1686 109.445 63.7953 109.547C63.2073 109.669 62.9133 110.037 62.9133 110.653ZM72.6582 106.775C72.6395 106.729 72.5462 106.705 72.3782 106.705C72.2102 106.705 71.9208 106.831 71.5102 107.083C71.4728 108.913 71.4495 110.285 71.4402 111.199L72.5322 111.339C72.5322 111.741 72.4248 112.142 72.2102 112.543H68.7242L68.5982 111.773C69.1768 111.559 69.5968 111.419 69.8582 111.353L69.7042 106.817C69.2188 106.78 68.8128 106.71 68.4862 106.607L68.5842 105.599C68.8362 105.487 69.7462 105.413 71.3142 105.375C71.3982 105.459 71.4402 105.623 71.4402 105.865C72.2615 105.464 72.7795 105.263 72.9942 105.263C73.2182 105.263 73.4888 105.319 73.8062 105.431C74.1328 105.534 74.3802 105.646 74.5482 105.767V106.005C74.5482 106.771 74.4548 107.48 74.2682 108.133C74.1095 108.199 73.8995 108.231 73.6382 108.231C73.3768 108.231 73.1342 108.217 72.9102 108.189C72.8822 108.068 72.7982 107.597 72.6582 106.775ZM81.0892 102.141C81.2666 102.141 81.3786 102.146 81.4252 102.155C81.4252 102.641 81.3646 103.065 81.2432 103.429C81.2059 104.437 81.1592 105.875 81.1032 107.741C81.0566 109.599 81.0239 110.826 81.0052 111.423C81.5559 111.498 81.9666 111.577 82.2372 111.661V112.333C81.6492 112.585 80.8419 112.711 79.8152 112.711C79.7592 112.609 79.6846 112.357 79.5912 111.955C78.7326 112.422 78.1119 112.674 77.7292 112.711C76.7772 112.711 76.0632 112.366 75.5872 111.675C75.1206 110.985 74.8872 110.098 74.8872 109.015C74.8872 107.923 75.1252 107.009 75.6012 106.271C76.0772 105.525 76.7819 105.151 77.7152 105.151C78.2286 105.151 78.7699 105.31 79.3392 105.627L79.2692 103.583C78.8306 103.537 78.4619 103.467 78.1632 103.373C78.1632 103.14 78.1959 102.804 78.2612 102.365C78.8119 102.216 79.7546 102.141 81.0892 102.141ZM77.9392 106.523C77.1366 106.523 76.7352 107.298 76.7352 108.847C76.7352 109.734 76.8939 110.401 77.2112 110.849C77.3886 111.111 77.6172 111.241 77.8972 111.241C78.3732 111.241 78.9099 111.078 79.5072 110.751L79.3812 107.139C78.8492 106.729 78.3686 106.523 77.9392 106.523ZM90.388 112.725C89.1186 112.725 88.106 112.296 87.35 111.437C86.594 110.579 86.216 109.309 86.216 107.629C86.216 105.949 86.5426 104.689 87.196 103.849C87.8586 103 88.9273 102.575 90.402 102.575C91.0273 102.575 91.6246 102.659 92.194 102.827C92.7726 102.995 93.1646 103.14 93.37 103.261C93.5753 103.373 93.7386 103.476 93.86 103.569C93.86 104.167 93.7853 104.829 93.636 105.557C93.3933 105.669 93.1506 105.725 92.908 105.725C92.6746 105.725 92.474 105.716 92.306 105.697L92.012 104.241C91.6013 104.129 91.2 104.073 90.808 104.073C90.2573 104.073 89.5713 104.185 88.75 104.409C88.3393 105.231 88.134 106.229 88.134 107.405C88.134 109.981 88.89 111.269 90.402 111.269C91.158 111.269 91.76 111.143 92.208 110.891C92.2266 110.406 92.2453 109.659 92.264 108.651L91.088 108.287L91.2 107.433H94.588C94.7 107.639 94.784 108.007 94.84 108.539C94.5226 108.605 94.182 108.651 93.818 108.679C93.874 109.883 93.902 110.919 93.902 111.787C93.6313 111.965 93.1413 112.165 92.432 112.389C91.7226 112.613 91.0413 112.725 90.388 112.725ZM98.1758 112.711C97.3825 112.711 96.7665 112.548 96.3278 112.221C95.8985 111.895 95.6838 111.344 95.6838 110.569C95.6838 109.832 95.9405 109.23 96.4538 108.763C96.7525 108.493 97.1678 108.334 97.6998 108.287C98.2318 108.241 98.9645 108.217 99.8978 108.217V107.993C99.8978 107.424 99.8045 107.009 99.6178 106.747C99.4405 106.477 99.1231 106.341 98.6658 106.341C98.4325 106.341 98.2225 106.388 98.0358 106.481L97.6998 107.699L96.6638 107.671C96.4305 107.317 96.3045 106.752 96.2858 105.977C96.4725 105.884 96.9111 105.744 97.6018 105.557C98.2925 105.361 98.7358 105.263 98.9318 105.263C99.9398 105.263 100.672 105.473 101.13 105.893C101.587 106.304 101.816 106.962 101.816 107.867C101.816 108.763 101.774 109.949 101.69 111.423C102.222 111.47 102.632 111.549 102.922 111.661C102.931 111.773 102.936 111.909 102.936 112.067L102.922 112.375C102.25 112.599 101.573 112.711 100.892 112.711C100.714 112.711 100.584 112.707 100.5 112.697C100.36 112.417 100.276 112.081 100.248 111.689H100.178C100 111.857 99.6878 112.072 99.2398 112.333C98.8011 112.585 98.4465 112.711 98.1758 112.711ZM97.4758 110.653C97.4758 110.961 97.5691 111.19 97.7558 111.339C97.9518 111.479 98.1711 111.549 98.4138 111.549C98.6565 111.549 98.9458 111.442 99.2818 111.227C99.6178 111.003 99.8885 110.803 100.094 110.625L100.024 109.337C99.2865 109.375 98.7311 109.445 98.3578 109.547C97.7698 109.669 97.4758 110.037 97.4758 110.653ZM112.947 108.497C112.928 107.844 112.849 107.391 112.709 107.139C112.578 106.887 112.27 106.761 111.785 106.761C111.309 106.761 110.865 106.864 110.455 107.069C110.455 108.264 110.394 109.641 110.273 111.199L111.379 111.325C111.379 111.708 111.271 112.114 111.057 112.543H107.571L107.445 111.773C107.93 111.596 108.355 111.456 108.719 111.353L108.607 108.441C108.588 107.835 108.513 107.405 108.383 107.153C108.261 106.892 108.023 106.761 107.669 106.761C107.482 106.761 107.211 106.794 106.857 106.859C106.502 106.925 106.231 106.995 106.045 107.069C106.045 107.097 106.003 108.474 105.919 111.199L107.011 111.325C107.011 111.736 106.903 112.142 106.689 112.543H103.203L103.077 111.773C103.627 111.559 104.047 111.419 104.337 111.353L104.155 106.831C103.772 106.794 103.403 106.724 103.049 106.621L103.119 105.613C103.277 105.567 103.618 105.511 104.141 105.445C104.663 105.38 105.06 105.347 105.331 105.347C105.368 105.375 105.438 105.464 105.541 105.613C105.643 105.753 105.713 105.865 105.751 105.949C106.068 105.791 106.451 105.637 106.899 105.487C107.356 105.338 107.636 105.263 107.739 105.263C108.728 105.263 109.451 105.52 109.909 106.033C110.263 105.847 110.693 105.674 111.197 105.515C111.701 105.347 112.013 105.263 112.135 105.263C113.021 105.263 113.684 105.473 114.123 105.893C114.561 106.313 114.781 107.013 114.781 107.993C114.781 108.535 114.739 109.603 114.655 111.199L115.747 111.325C115.747 111.736 115.639 112.142 115.425 112.543H111.953L111.827 111.773C112.265 111.596 112.667 111.456 113.031 111.353C113.021 111.139 113.012 110.835 113.003 110.443C112.984 109.799 112.965 109.151 112.947 108.497ZM119.803 111.339C120.12 111.339 120.764 111.12 121.735 110.681C121.94 110.98 122.094 111.325 122.197 111.717C121.684 112.035 121.18 112.282 120.685 112.459C120.2 112.627 119.854 112.711 119.649 112.711C118.52 112.711 117.661 112.399 117.073 111.773C116.494 111.148 116.205 110.261 116.205 109.113C116.205 107.956 116.494 107.027 117.073 106.327C117.652 105.618 118.51 105.263 119.649 105.263C120.554 105.263 121.245 105.557 121.721 106.145C122.197 106.733 122.435 107.499 122.435 108.441C122.435 108.637 122.323 108.861 122.099 109.113L118.067 109.043C118.086 109.79 118.226 110.359 118.487 110.751C118.748 111.143 119.187 111.339 119.803 111.339ZM119.523 106.425C119.168 106.425 118.837 106.495 118.529 106.635C118.314 107.083 118.179 107.499 118.123 107.881C118.851 107.853 119.677 107.835 120.601 107.825C120.554 106.892 120.195 106.425 119.523 106.425ZM128.395 105.865L128.409 106.299C128.409 107.027 128.353 107.503 128.241 107.727C127.933 107.839 127.504 107.895 126.953 107.895L126.505 106.481C126.384 106.435 126.216 106.411 126.001 106.411C125.786 106.411 125.609 106.477 125.469 106.607C125.338 106.738 125.273 106.892 125.273 107.069C125.273 107.247 125.343 107.41 125.483 107.559C125.623 107.699 125.768 107.811 125.917 107.895C126.066 107.979 126.281 108.091 126.561 108.231C126.85 108.362 127.065 108.465 127.205 108.539C127.354 108.614 127.541 108.726 127.765 108.875C127.998 109.025 128.176 109.165 128.297 109.295C128.596 109.65 128.745 110.037 128.745 110.457C128.745 111.176 128.47 111.731 127.919 112.123C127.378 112.515 126.71 112.711 125.917 112.711C125.497 112.711 125.035 112.637 124.531 112.487C124.036 112.338 123.616 112.137 123.271 111.885C123.271 111.213 123.336 110.588 123.467 110.009C123.84 109.963 124.144 109.939 124.377 109.939C124.61 109.939 124.769 109.944 124.853 109.953L125.021 111.311C125.254 111.395 125.534 111.437 125.861 111.437C126.188 111.437 126.444 111.372 126.631 111.241C126.827 111.111 126.925 110.929 126.925 110.695C126.925 110.453 126.818 110.252 126.603 110.093C126.388 109.935 126.094 109.771 125.721 109.603C125.348 109.426 125.058 109.281 124.853 109.169C124.648 109.048 124.428 108.894 124.195 108.707C123.719 108.343 123.481 107.895 123.481 107.363C123.481 106.701 123.71 106.187 124.167 105.823C124.634 105.45 125.259 105.263 126.043 105.263C126.827 105.263 127.611 105.464 128.395 105.865ZM131.729 110.751C131.813 111.087 131.855 111.47 131.855 111.899C131.855 112.329 131.673 112.8 131.309 113.313C130.945 113.836 130.604 114.195 130.287 114.391C129.96 114.251 129.694 114.065 129.489 113.831C129.61 113.467 129.876 113.043 130.287 112.557L129.937 112.515C129.853 112.226 129.811 111.932 129.811 111.633C129.811 111.325 129.825 111.055 129.853 110.821C130.236 110.737 130.52 110.695 130.707 110.695C130.903 110.695 131.244 110.714 131.729 110.751ZM53.9518 120.743C55.1371 120.743 56.0191 120.949 56.5978 121.359C57.1764 121.77 57.4658 122.517 57.4658 123.599C57.4658 124.505 57.1858 125.261 56.6258 125.867C56.0658 126.465 55.1698 126.763 53.9378 126.763C53.5364 126.763 53.2191 126.759 52.9858 126.749L52.9578 129.213L53.9798 129.325C53.9798 129.736 53.8724 130.142 53.6578 130.543H50.1998L50.0738 129.773C50.5591 129.577 50.9511 129.442 51.2498 129.367C51.2498 129.339 51.2078 126.871 51.1238 121.961C50.9744 121.924 50.5871 121.803 49.9618 121.597L50.0738 120.743H53.9518ZM53.6438 125.433C54.2691 125.424 54.7544 125.251 55.0998 124.915C55.4451 124.579 55.6178 124.145 55.6178 123.613C55.6178 123.081 55.4638 122.703 55.1558 122.479C54.8571 122.246 54.3858 122.129 53.7418 122.129C53.4898 122.129 53.2518 122.134 53.0278 122.143C53.0091 123.618 52.9998 124.719 52.9998 125.447L53.6438 125.433ZM61.7105 124.383C61.3745 124.383 60.9918 124.467 60.5625 124.635C60.4412 124.822 60.3245 125.153 60.2125 125.629C60.1098 126.096 60.0585 126.567 60.0585 127.043C60.0585 127.921 60.1892 128.546 60.4505 128.919C60.7118 129.283 61.1318 129.465 61.7105 129.465C62.2985 129.465 62.7232 129.283 62.9845 128.919C63.2458 128.546 63.3765 127.911 63.3765 127.015C63.3765 126.11 63.2412 125.447 62.9705 125.027C62.7092 124.598 62.2892 124.383 61.7105 124.383ZM61.7105 123.263C62.8025 123.263 63.6798 123.599 64.3425 124.271C65.0145 124.934 65.3505 125.863 65.3505 127.057C65.3505 128.243 65.0192 129.148 64.3565 129.773C63.6938 130.399 62.8118 130.711 61.7105 130.711C60.6092 130.711 59.7272 130.399 59.0645 129.773C58.4112 129.148 58.0845 128.243 58.0845 127.057C58.0845 125.863 58.4158 124.934 59.0785 124.271C59.7412 123.599 60.6185 123.263 61.7105 123.263ZM69.2437 124.383C68.9077 124.383 68.525 124.467 68.0957 124.635C67.9744 124.822 67.8577 125.153 67.7457 125.629C67.643 126.096 67.5917 126.567 67.5917 127.043C67.5917 127.921 67.7224 128.546 67.9837 128.919C68.245 129.283 68.665 129.465 69.2437 129.465C69.8317 129.465 70.2564 129.283 70.5177 128.919C70.779 128.546 70.9097 127.911 70.9097 127.015C70.9097 126.11 70.7744 125.447 70.5037 125.027C70.2424 124.598 69.8224 124.383 69.2437 124.383ZM69.2437 123.263C70.3357 123.263 71.213 123.599 71.8757 124.271C72.5477 124.934 72.8837 125.863 72.8837 127.057C72.8837 128.243 72.5524 129.148 71.8897 129.773C71.227 130.399 70.345 130.711 69.2437 130.711C68.1424 130.711 67.2604 130.399 66.5977 129.773C65.9444 129.148 65.6177 128.243 65.6177 127.057C65.6177 125.863 65.949 124.934 66.6117 124.271C67.2744 123.599 68.1517 123.263 69.2437 123.263ZM75.8389 120.141C76.0162 120.141 76.1282 120.146 76.1749 120.155C76.1749 120.641 76.1142 121.065 75.9929 121.429C75.9836 122.008 75.9696 122.825 75.9509 123.879C75.9136 126.194 75.8856 127.967 75.8669 129.199L76.9589 129.325C76.9589 129.708 76.8516 130.114 76.6369 130.543H73.1509L73.0249 129.773C73.6036 129.559 74.0236 129.419 74.2849 129.353L74.0189 121.583C73.5802 121.537 73.2116 121.467 72.9129 121.373C72.9129 121.028 72.9456 120.692 73.0109 120.365C73.5616 120.216 74.5042 120.141 75.8389 120.141ZM79.3658 128.751C79.4498 129.087 79.4918 129.47 79.4918 129.899C79.4918 130.329 79.3098 130.8 78.9458 131.313C78.5818 131.836 78.2411 132.195 77.9238 132.391C77.5971 132.251 77.3311 132.065 77.1258 131.831C77.2471 131.467 77.5131 131.043 77.9238 130.557L77.5738 130.515C77.4898 130.226 77.4478 129.932 77.4478 129.633C77.4478 129.325 77.4618 129.055 77.4898 128.821C77.8725 128.737 78.1571 128.695 78.3438 128.695C78.5398 128.695 78.8805 128.714 79.3658 128.751ZM87.776 120.743C88.9613 120.743 89.8433 120.949 90.422 121.359C91.0006 121.77 91.29 122.517 91.29 123.599C91.29 124.505 91.01 125.261 90.45 125.867C89.89 126.465 88.994 126.763 87.762 126.763C87.3606 126.763 87.0433 126.759 86.81 126.749L86.782 129.213L87.804 129.325C87.804 129.736 87.6966 130.142 87.482 130.543H84.024L83.898 129.773C84.3833 129.577 84.7753 129.442 85.074 129.367C85.074 129.339 85.032 126.871 84.948 121.961C84.7986 121.924 84.4113 121.803 83.786 121.597L83.898 120.743H87.776ZM87.468 125.433C88.0933 125.424 88.5786 125.251 88.924 124.915C89.2693 124.579 89.442 124.145 89.442 123.613C89.442 123.081 89.288 122.703 88.98 122.479C88.6813 122.246 88.21 122.129 87.566 122.129C87.314 122.129 87.076 122.134 86.852 122.143C86.8333 123.618 86.824 124.719 86.824 125.447L87.468 125.433ZM95.5347 124.383C95.1987 124.383 94.816 124.467 94.3867 124.635C94.2654 124.822 94.1487 125.153 94.0367 125.629C93.934 126.096 93.8827 126.567 93.8827 127.043C93.8827 127.921 94.0134 128.546 94.2747 128.919C94.536 129.283 94.956 129.465 95.5347 129.465C96.1227 129.465 96.5474 129.283 96.8087 128.919C97.0701 128.546 97.2007 127.911 97.2007 127.015C97.2007 126.11 97.0654 125.447 96.7947 125.027C96.5334 124.598 96.1134 124.383 95.5347 124.383ZM95.5347 123.263C96.6267 123.263 97.5041 123.599 98.1667 124.271C98.8387 124.934 99.1747 125.863 99.1747 127.057C99.1747 128.243 98.8434 129.148 98.1807 129.773C97.5181 130.399 96.6361 130.711 95.5347 130.711C94.4334 130.711 93.5514 130.399 92.8887 129.773C92.2354 129.148 91.9087 128.243 91.9087 127.057C91.9087 125.863 92.24 124.934 92.9027 124.271C93.5654 123.599 94.4427 123.263 95.5347 123.263ZM101.066 130.711L100.758 130.697C100.702 130.595 100.627 130.403 100.534 130.123C100.441 129.843 100.389 129.633 100.38 129.493C100.333 128.569 100.282 126.969 100.226 124.691H99.2459L99.2879 123.893C99.5026 123.744 99.7593 123.609 100.058 123.487L101.192 121.695C101.556 121.733 101.841 121.831 102.046 121.989L102.032 123.319C102.62 123.338 103.166 123.394 103.67 123.487C103.67 123.861 103.553 124.262 103.32 124.691H102.018C101.981 126.651 101.957 128.121 101.948 129.101C102.321 129.139 102.83 129.246 103.474 129.423L103.46 130.151C103.301 130.254 102.947 130.375 102.396 130.515C101.855 130.646 101.411 130.711 101.066 130.711ZM105.933 130.711L105.625 130.697C105.569 130.595 105.494 130.403 105.401 130.123C105.308 129.843 105.256 129.633 105.247 129.493C105.2 128.569 105.149 126.969 105.093 124.691H104.113L104.155 123.893C104.37 123.744 104.626 123.609 104.925 123.487L106.059 121.695C106.423 121.733 106.708 121.831 106.913 121.989L106.899 123.319C107.487 123.338 108.033 123.394 108.537 123.487C108.537 123.861 108.42 124.262 108.187 124.691H106.885C106.848 126.651 106.824 128.121 106.815 129.101C107.188 129.139 107.697 129.246 108.341 129.423L108.327 130.151C108.168 130.254 107.814 130.375 107.263 130.515C106.722 130.646 106.278 130.711 105.933 130.711ZM112.83 129.339C113.148 129.339 113.792 129.12 114.762 128.681C114.968 128.98 115.122 129.325 115.224 129.717C114.711 130.035 114.207 130.282 113.712 130.459C113.227 130.627 112.882 130.711 112.676 130.711C111.547 130.711 110.688 130.399 110.1 129.773C109.522 129.148 109.232 128.261 109.232 127.113C109.232 125.956 109.522 125.027 110.1 124.327C110.679 123.618 111.538 123.263 112.676 123.263C113.582 123.263 114.272 123.557 114.748 124.145C115.224 124.733 115.462 125.499 115.462 126.441C115.462 126.637 115.35 126.861 115.126 127.113L111.094 127.043C111.113 127.79 111.253 128.359 111.514 128.751C111.776 129.143 112.214 129.339 112.83 129.339ZM112.55 124.425C112.196 124.425 111.864 124.495 111.556 124.635C111.342 125.083 111.206 125.499 111.15 125.881C111.878 125.853 112.704 125.835 113.628 125.825C113.582 124.892 113.222 124.425 112.55 124.425ZM120.4 124.775C120.382 124.729 120.288 124.705 120.12 124.705C119.952 124.705 119.663 124.831 119.252 125.083C119.215 126.913 119.192 128.285 119.182 129.199L120.274 129.339C120.274 129.741 120.167 130.142 119.952 130.543H116.466L116.34 129.773C116.919 129.559 117.339 129.419 117.6 129.353L117.446 124.817C116.961 124.78 116.555 124.71 116.228 124.607L116.326 123.599C116.578 123.487 117.488 123.413 119.056 123.375C119.14 123.459 119.182 123.623 119.182 123.865C120.004 123.464 120.522 123.263 120.736 123.263C120.96 123.263 121.231 123.319 121.548 123.431C121.875 123.534 122.122 123.646 122.29 123.767V124.005C122.29 124.771 122.197 125.48 122.01 126.133C121.852 126.199 121.642 126.231 121.38 126.231C121.119 126.231 120.876 126.217 120.652 126.189C120.624 126.068 120.54 125.597 120.4 124.775ZM124.491 133.931C124.221 133.931 123.922 133.885 123.595 133.791C123.269 133.698 122.919 133.558 122.545 133.371C122.601 132.298 122.653 131.659 122.699 131.453C123.054 131.36 123.343 131.313 123.567 131.313C123.801 131.313 123.95 131.318 124.015 131.327L124.463 132.727L124.589 132.713C124.804 132.685 125.023 132.429 125.247 131.943C125.471 131.458 125.635 130.991 125.737 130.543H125.149L123.077 124.775L121.985 124.649C121.985 124.267 122.093 123.861 122.307 123.431H125.793L125.919 124.201C125.537 124.379 125.215 124.5 124.953 124.565L126.017 127.883L126.143 128.485H126.451L127.641 124.565C127.324 124.509 126.932 124.388 126.465 124.201L126.591 123.431H130.077C130.292 123.861 130.399 124.267 130.399 124.649C130.035 124.705 129.671 124.743 129.307 124.761C128.467 127.225 127.809 129.129 127.333 130.473C126.867 131.817 126.442 132.727 126.059 133.203C125.677 133.689 125.154 133.931 124.491 133.931Z" fill="black"/>
    <path d="M58.313 29.736L58.073 43.368L60.089 43.56C60.089 44.008 59.953 44.488 59.681 45H54.161L54.089 44.16C54.825 43.904 55.553 43.712 56.273 43.584C56.241 42.544 56.185 40.4 56.105 37.152C56.041 33.904 55.985 31.392 55.937 29.616C55.297 29.488 54.577 29.296 53.777 29.04L53.849 28.2H59.849C60.121 28.712 60.257 29.192 60.257 29.64C59.441 29.704 58.793 29.736 58.313 29.736ZM69.9262 32.52C71.4622 32.52 72.5742 32.904 73.2622 33.672C73.9502 34.424 74.2942 35.576 74.2942 37.128C74.2942 37.576 74.2302 39.656 74.1022 43.368L76.1182 43.56C76.1182 44.008 75.9822 44.488 75.7102 45H70.1902L70.1182 44.16C70.8542 43.904 71.5742 43.712 72.2782 43.584C72.1822 39.392 72.0942 37.064 72.0142 36.6C71.9502 36.12 71.8382 35.704 71.6782 35.352C71.5182 35 71.2782 34.752 70.9582 34.608C70.6382 34.464 70.2142 34.392 69.6862 34.392C68.6302 34.392 67.6062 34.648 66.6142 35.16C66.5182 38.808 66.4542 41.544 66.4222 43.368L68.4382 43.56C68.4382 44.008 68.3022 44.488 68.0302 45H62.5102L62.4382 44.16C63.1742 43.904 63.8942 43.712 64.5982 43.584C64.5022 39.52 64.4222 36.512 64.3582 34.56C63.4782 34.512 62.7742 34.416 62.2462 34.272L62.3422 33.024C63.2062 32.784 64.4622 32.664 66.1102 32.664C66.3022 32.952 66.4462 33.368 66.5422 33.912C67.2302 33.544 67.9182 33.224 68.6062 32.952C69.3102 32.664 69.7502 32.52 69.9262 32.52ZM85.4833 33.888L85.4113 29.088C84.5313 29.04 83.8273 28.944 83.2993 28.8L83.3953 27.552C84.2113 27.312 85.3953 27.192 86.9473 27.192C87.4433 27.192 87.7953 27.208 88.0033 27.24C88.0033 27.528 87.9553 27.912 87.8593 28.392C87.7793 28.856 87.7233 29.112 87.6913 29.16L87.4753 43.344C88.1313 43.376 88.8273 43.488 89.5633 43.68L89.5153 44.52C88.4113 45.032 87.4353 45.288 86.5873 45.288C86.4113 45.288 86.2753 45.28 86.1793 45.264C86.0513 45.024 85.8913 44.472 85.6993 43.608C83.8593 44.648 82.5713 45.208 81.8353 45.288C80.2993 45.288 79.1473 44.704 78.3793 43.536C77.6113 42.368 77.2273 40.872 77.2273 39.048C77.2273 37.208 77.6113 35.664 78.3793 34.416C79.1633 33.152 80.3153 32.52 81.8353 32.52C83.0193 32.52 84.2353 32.976 85.4833 33.888ZM82.2433 34.152C80.3713 34.152 79.4353 35.688 79.4353 38.76C79.4353 39.96 79.6273 41 80.0113 41.88C80.2033 42.36 80.4833 42.744 80.8513 43.032C81.2353 43.32 81.6753 43.464 82.1713 43.464C82.6673 43.464 83.2433 43.352 83.8993 43.128C84.5713 42.904 85.1473 42.648 85.6273 42.36L85.4833 35.52C85.0513 35.152 84.5233 34.832 83.8993 34.56C83.2753 34.288 82.7233 34.152 82.2433 34.152ZM96.3416 43.848C97.6856 43.848 98.5896 43.432 99.0536 42.6C99.5336 41.752 99.7736 40.552 99.7736 39C99.7736 36.536 99.2296 34.992 98.1416 34.368C97.6936 34.112 97.0616 33.984 96.2456 33.984C95.4456 33.984 94.6856 34.152 93.9656 34.488C93.3256 35.72 93.0056 37.152 93.0056 38.784C93.0056 40.352 93.2136 41.56 93.6296 42.408C94.1096 43.368 95.0136 43.848 96.3416 43.848ZM90.7976 39C90.7976 36.968 91.2616 35.384 92.1896 34.248C93.1176 33.096 94.5496 32.52 96.4856 32.52C98.4216 32.52 99.8216 33.048 100.686 34.104C101.55 35.144 101.982 36.688 101.982 38.736C101.982 40.784 101.518 42.392 100.59 43.56C99.6776 44.728 98.2856 45.312 96.4136 45.312C94.5416 45.312 93.1336 44.768 92.1896 43.68C91.2616 42.592 90.7976 41.032 90.7976 39ZM109.256 43.848C110.6 43.848 111.504 43.432 111.968 42.6C112.448 41.752 112.688 40.552 112.688 39C112.688 36.536 112.144 34.992 111.056 34.368C110.608 34.112 109.976 33.984 109.16 33.984C108.36 33.984 107.6 34.152 106.88 34.488C106.24 35.72 105.92 37.152 105.92 38.784C105.92 40.352 106.128 41.56 106.544 42.408C107.024 43.368 107.928 43.848 109.256 43.848ZM103.712 39C103.712 36.968 104.176 35.384 105.104 34.248C106.032 33.096 107.464 32.52 109.4 32.52C111.336 32.52 112.736 33.048 113.6 34.104C114.464 35.144 114.896 36.688 114.896 38.736C114.896 40.784 114.432 42.392 113.504 43.56C112.592 44.728 111.2 45.312 109.328 45.312C107.456 45.312 106.048 44.768 105.104 43.68C104.176 42.592 103.712 41.032 103.712 39ZM123.994 34.536C123.914 34.456 123.738 34.416 123.466 34.416C123.194 34.416 122.786 34.512 122.242 34.704C121.714 34.896 121.234 35.12 120.802 35.376C120.706 38.928 120.642 41.592 120.61 43.368L122.626 43.56C122.626 44.008 122.49 44.488 122.218 45H116.698L116.626 44.16C117.362 43.904 118.082 43.712 118.786 43.584C118.69 39.52 118.61 36.512 118.546 34.56C117.666 34.512 116.962 34.416 116.434 34.272L116.53 33.024C117.378 32.784 118.634 32.664 120.298 32.664C120.554 33.064 120.714 33.576 120.778 34.2C122.618 33.08 123.714 32.52 124.066 32.52C124.418 32.52 124.826 32.592 125.29 32.736C125.754 32.864 126.098 33.008 126.322 33.168C126.322 34.768 126.17 36.072 125.866 37.08C125.642 37.144 125.378 37.176 125.074 37.176C124.786 37.176 124.586 37.168 124.474 37.152L123.994 34.536Z" fill="black"/>
    <defs>
        <filter id="filter0_d" x="161.516" y="0" width="39.4837" height="40.1914" filterUnits="userSpaceOnUse" color-interpolation-filters="sRGB">
            <feFlood flood-opacity="0" result="BackgroundImageFix"/>
            <feColorMatrix in="SourceAlpha" type="matrix" values="0 0 0 0 0 0 0 0 0 0 0 0 0 0 0 0 0 0 127 0"/>
            <feOffset dy="4"/>
            <feGaussianBlur stdDeviation="2"/>
            <feColorMatrix type="matrix" values="0 0 0 0 0 0 0 0 0 0 0 0 0 0 0 0 0 0 0.25 0"/>
            <feBlend mode="normal" in2="BackgroundImageFix" result="effect1_dropShadow"/>
            <feBlend mode="normal" in="SourceGraphic" in2="effect1_dropShadow" result="shape"/>
        </filter>
    </defs>
</svg>
