<svg width="90" height="89" viewBox="0 0 90 89" fill="none" xmlns="http://www.w3.org/2000/svg">
    <g filter="url(#filter0_d)">
        <path d="M15.6818 19C15.6818 20.8534 15.8259 22.6881 15.8259 24.5428C15.8259 26.2389 15.4604 27.878 15.3937 29.5578C15.2632 32.8476 14.0182 36.0539 13.9533 39.3531C13.9135 41.3811 13.0708 43.277 12.3369 45.1599C12.0396 45.9225 11.6027 46.1863 12.737 46.1863C13.9616 46.1863 15.1559 46.0723 16.37 46.0543C17.378 46.0394 18.339 45.7904 19.3629 45.7904C20.4647 45.7904 21.5095 45.7888 22.5958 45.9517C24.0046 46.1629 25.4617 46.2159 26.8529 46.5236C27.9562 46.7676 28.8416 46.6095 29.9418 46.5822C31.8645 46.5346 33.6596 46.6617 35.5434 46.8535C35.9288 46.8927 36.7117 47.2606 36.7117 46.6555C36.7117 45.5257 36.2796 44.403 36.2796 43.2829C36.2796 42.4788 35.9915 41.707 35.9915 40.9074C35.9915 40.0765 35.9915 39.2455 35.9915 38.4146C35.9915 37.2369 36.4236 36.1333 36.4236 34.9687C36.4236 32.7016 36.715 30.4774 36.9278 28.2161C37.125 26.1192 36.8557 24.0337 36.8557 21.9694C36.8557 21.6419 36.8557 21.3144 36.8557 20.9869C36.8557 20.2974 35.7637 20.5837 35.2073 20.5837C32.325 20.5837 29.4195 20.6964 26.5489 20.4517C25.1312 20.3309 23.7652 20.1878 22.3397 20.1878C20.9534 20.1878 19.5878 20.2221 18.2185 19.9898C17.543 19.8752 16.7643 19.6599 16.0819 19.6599C15.8494 19.6599 14.5429 19.3959 15.2497 19.3959" stroke="black" stroke-linecap="round" stroke-linejoin="round"/>
        <path d="M16 46.0565C16 44.6948 16.2265 43.3696 16.2621 42.0132C16.2884 41.0129 16.4946 40.0537 16.6844 39.078C17.0372 37.2635 17.6689 35.5175 18.155 33.7317C18.4609 32.6082 18.8393 31.4707 19.3491 30.4222C19.9105 29.2674 20.3815 28.0515 20.9799 26.9179C21.3886 26.1437 22.3213 25.3075 23.0767 24.8962C23.8436 24.4787 24.5314 23.6712 25.4283 23.5559C26.5348 23.4137 27.3436 22.9013 28.5226 23.0168C29.2611 23.0891 30.0219 23.271 30.6121 23.7431C31.0449 24.0893 31.213 24.6164 31.5949 25.031C32.9706 26.5244 32.9054 28.6147 32.9054 30.5869C32.9054 31.933 33.1752 33.6098 32.8035 34.8998C32.6675 35.3719 32.5384 36.0042 32.5123 36.4872C32.4877 36.9425 32.1191 37.3152 32.1191 37.7676C32.1191 38.7919 31.243 39.4748 30.5174 39.9915C29.7492 40.5384 28.9675 40.8276 28.0857 41.0997C27.6458 41.2354 26.567 41.4031 26.1491 41.1296C25.5543 40.7404 25.3141 40.2858 24.8386 39.7968C24.5355 39.4851 24.4802 39.1614 24.8532 39.6545C25.5077 40.52 26.2578 41.4681 27.0082 42.2827C27.3953 42.703 27.6615 43.2422 28.0275 43.6605C28.2956 43.9669 28.3525 44.6017 28.6463 44.8435C29.1109 45.2258 29.4981 46.4463 29.4981 47" stroke="black" stroke-linecap="round" stroke-linejoin="round"/>
        <path d="M26 31C26.1731 31.1936 27 32.2849 27 31.9293" stroke="black" stroke-linecap="round" stroke-linejoin="round"/>
        <path d="M31 30C31 30.1178 31 31.1823 31 30.9728" stroke="black" stroke-linecap="round" stroke-linejoin="round"/>
        <path d="M31 34C31 34.3124 31 35.2495 31 34.9371" stroke="black" stroke-linecap="round" stroke-linejoin="round"/>
        <path d="M27 36C28.0289 37.2879 30.622 37.1802 32 36.5268" stroke="black" stroke-linecap="round" stroke-linejoin="round"/>
        <path d="M6.2766 50C5.26803 49.2764 5 48.555 5 47.3949C5 46.5168 5 45.6388 5 44.7608C5 44.2109 5.3056 44.2262 5.56738 43.8056C5.77241 43.4761 5.93008 43.0664 6.33964 42.9589C6.98372 42.7899 6.7477 42.1758 6.52876 41.7938C5.91899 40.7299 5.56738 40.0911 5.56738 38.8703C5.56738 37.8981 5.70861 36.4571 6.44996 35.7007C6.71714 35.4281 6.97021 35.1345 7.23798 34.8613C7.34703 34.75 7.65411 34.6026 7.60835 34.485C7.46503 34.1165 7.25158 33.7621 7.12766 33.3923C6.70178 32.1212 6.56028 30.7807 6.56028 29.4484C6.56028 27.918 7.0191 26.8432 7.69504 25.4466C7.92547 24.9705 8.43732 24.8055 7.97872 24.5348C7.5494 24.2814 7.16122 23.6163 7.01734 23.1671C6.68939 22.1432 6.70213 21.1284 6.70213 20.0699C6.70213 19.2708 6.56686 18.2265 7.06462 17.5082C7.5449 16.8151 8.30423 16.3109 8.94011 15.8438C9.26909 15.6021 9.69327 15.376 10.1379 15.2504C10.6341 15.1102 11.1212 15.2681 11.5957 15.0261C12.1426 14.747 11.9029 14.0864 12.5177 13.7235C13.2071 13.3165 13.797 12.8394 14.5035 12.515C15.9002 11.8737 18.1837 12.1272 19.6099 12.5439C20.1855 12.7121 20.7731 12.8769 21.1702 13.3327C21.2948 13.4757 21.4337 13.4612 21.5642 13.557C21.5993 13.5828 21.8605 13.8697 21.8794 13.861C22.3028 13.6666 22.7607 13.2299 23.2191 13.0071C23.9189 12.6668 24.5463 12.4022 25.2837 12.1604C25.9766 11.9332 28.3928 11.8561 28.8298 12.5584C29.0564 12.9226 29.3226 13.2633 29.602 13.5932C30.0542 14.1271 31.1322 13.52 31.8085 13.3689C32.7761 13.1528 34.6703 12.7927 35.5753 13.2676C35.807 13.3892 35.9998 13.876 36.0717 14.107C36.2041 14.5326 36.9232 14.1934 37.1986 14.1794C38.0836 14.1342 39.2069 13.5813 40.0985 14.0491C40.956 14.4991 41.3121 15.1225 41.3121 16.003C41.3121 16.1879 41.3479 16.4084 41.3042 16.5891C41.2193 16.9399 41.0606 16.7931 41.5169 16.7845C42.3305 16.7693 43.3738 16.8463 43.9283 17.5009C44.491 18.1653 45 18.904 45 19.7804C45 20.7314 44.3752 21.3962 43.6525 22.0599C43.2895 22.3933 43.1433 22.5663 43.156 22.5809C43.4445 22.9121 43.632 23.3552 43.8968 23.6592C44.988 24.9118 43.0943 26.7982 42.3365 27.755C41.9904 28.1921 43.5816 29.8771 43.5816 30.5266C43.5816 31.3911 43.9043 32.1633 43.156 32.9364C42.5858 33.5255 43.0072 33.2896 43.2664 33.7179C43.4761 34.0646 43.7929 34.3916 43.9362 34.76C44.0905 35.1568 44.1489 35.4301 44.1489 35.8671C44.1489 36.3194 43.7345 36.8287 44.0071 36.4533" stroke="black" stroke-linecap="round" stroke-linejoin="round"/>
        <path d="M29 53.0272C27.1504 54.153 23.1866 54.6971 21.8994 52.4218C21.3224 51.4017 19.9508 52.8309 19.1013 53.0272C17.8826 53.3088 16.5675 53.1786 15.3165 53.1786C14.401 53.1786 13.5363 53.261 12.769 52.6404C12.4413 52.3754 12.1414 51.9288 11.8875 51.5893C11.4198 50.964 10.9597 51.4602 10.3671 51.6313C9.26452 51.9498 8.15891 52.1581 7.09177 51.665C6.23175 51.2675 6.32326 50.6722 6 50" stroke="black" stroke-linecap="round" stroke-linejoin="round"/>
        <path d="M29.1988 68.8119C28.4055 68.8119 26.998 68.9859 26.2836 68.6097C25.9444 68.4311 25.5269 68.399 25.217 68.1379C24.9809 67.939 24.4258 67.5615 24.1426 67.4639C22.6731 66.9574 23.0137 64.6183 23.0839 63.42C23.1229 62.755 23.4996 61.678 24.0083 61.1958C24.6549 60.5829 25.6158 60.5879 26.4337 60.447C26.8255 60.3794 27.2278 60.2854 27.5713 60.1924C28.184 60.0264 27.9189 59.0332 27.9189 58.4625C27.9189 57.5799 27.8069 56.6927 28.1717 55.8714C28.6379 54.822 29.6748 54.2411 30.9053 54.1115C31.4321 54.056 31.9337 54.0141 32.4695 53.9842C32.6147 53.9761 32.4695 53.3079 32.4695 53.108C32.4695 51.6116 32.3993 50.0841 33.6388 49.0267C34.182 48.5633 35.112 48.1676 35.8193 48.0457C36.4091 47.944 37.8733 48.136 37.8733 47.499C37.8733 46.4144 37.8407 45.4806 38.4422 44.5185C38.8039 43.9398 39.0179 43.5726 39.5008 43.0732C39.9513 42.6074 40.5651 42.5414 41.1757 42.3617C41.592 42.2393 41.9906 42.2569 42.4239 42.2569C43.1562 42.2569 42.8862 42.0544 43.0639 41.4481C43.2183 40.921 43.5302 40.232 43.5616 39.6958C43.5822 39.3435 43.846 39.0314 43.846 38.6848C43.846 38.1761 44.3201 37.3359 44.6676 36.9699C45.2021 36.4069 45.7689 36.0858 46.5795 36.0563C47.7283 36.0144 50.3979 35.7414 50.9563 36.9324C51.0974 37.2333 51.1461 37.5932 51.3118 37.876C51.625 38.4104 52.243 38.213 52.9156 38.213C53.8977 38.213 54.6618 38.29 55.2541 38.9918C55.5534 39.3465 55.8136 40.3639 55.9256 40.8415C56.0427 41.3412 56.4915 41.0437 57.1028 41.0437C57.6468 41.0437 58.195 41.1785 58.7065 41.1785C59.6582 41.1785 59.4887 42.0946 59.4887 42.7961C59.4887 43.7982 61.22 43.5622 61.9852 43.6049C63.0439 43.6639 63.1357 44.208 63.6916 44.8854C64.4358 45.7923 66.0769 45.2548 67.2389 45.4995C68.0293 45.666 68.2472 46.3695 68.4792 47.0047C68.688 47.5764 68.5276 47.6488 69.1113 47.6488C69.7171 47.6488 70.8528 47.443 71.4024 47.7836C72.3555 48.3743 73.5372 50.2712 72.3662 51.0112C72.208 51.1112 72.718 51.1643 72.856 51.2883C73.0148 51.4309 73.174 51.5723 73.2826 51.7526C73.4707 52.0646 73.8515 52.208 73.8515 52.6363C73.8515 53.326 74.2058 54.0613 73.8199 54.793C73.4969 55.4053 73.2445 55.9917 72.5005 56.1485C71.5769 56.343 70.7964 56.4106 69.8065 56.4106C69.343 56.4106 69.8697 57.7954 69.8697 58.2977C69.8697 58.934 69.2636 59.701 68.7004 60.0501C67.7659 60.6293 66.9098 60.7241 65.8168 60.7241C65.7203 60.7241 65.4047 60.7685 65.4929 60.5893C65.5957 60.3804 65.8203 61.2684 65.8563 61.398C65.9845 61.8598 66.1723 62.4671 66.1723 62.9407C66.1723 64.83 64.1652 65.5767 62.3644 65.5767C61.8824 65.5767 61.3919 65.6021 60.9107 65.5767C60.6163 65.5612 60.887 66.4949 60.9818 66.7824C61.1425 67.2697 61.2449 68.5652 60.9818 69.0141C60.5957 69.6729 58.8925 70.0638 58.1772 70.2647C57.9323 70.3335 56.9962 70.4725 56.7946 70.377C56.7775 70.3689 56.8838 71.0457 56.8973 71.1034C56.9618 71.3784 57.0598 71.7378 57.0712 72.017C57.0965 72.6419 57.2057 73.3872 56.7077 73.8593C56.1656 74.3732 55.3657 74.7429 54.5825 74.7429C54.2507 74.7429 53.9189 74.7429 53.5871 74.7429C52.9203 74.7429 53.2316 75.4988 53.2316 76.0909C53.2316 77.0194 52.9601 78.3702 52.2362 79.0564C51.7102 79.5549 50.4483 79.5956 49.7475 79.5956C49.1919 79.5956 48.9517 79.5608 48.5388 79.1912C48.1071 78.8048 48.0792 78.8974 47.5513 79.1163C46.7109 79.4648 46.1733 79.831 45.2365 79.8652C44.7996 79.8811 44.3776 80 43.9171 80C43.2798 80 43.2931 79.8841 42.9612 79.4908C42.7792 79.2751 42.8426 78.8785 42.6768 78.682C42.2485 78.1746 41.8236 78.5349 41.1441 78.652C39.9028 78.866 39.0361 79.0073 38.6555 77.7085C38.4283 76.9332 38.5844 75.958 38.5844 75.1473C38.5844 74.6391 38.7245 74.3385 38.0709 74.3385C37.3762 74.3385 36.2948 74.5268 35.6297 74.3086C34.5871 73.9665 34.1829 72.9471 33.6783 72.1818C33.4558 71.8444 33.3228 71.1283 33.3228 70.729C33.3228 70.2135 32.5045 70.4895 32.114 70.5717C30.675 70.8748 29.0566 70.2136 29.0566 68.6771" stroke="black" stroke-linecap="round" stroke-linejoin="round"/>
        <path d="M31 61.2554C31.8846 61.9146 32.7438 62.7935 33.6964 63.3547C34.5556 63.861 35.38 64.289 36.1783 64.8937C38.0935 66.3445 40.2455 67.5099 42.0613 69.071C42.8796 69.7745 43.7028 70.5849 44.6505 71.149C45.0164 71.3668 45.3092 71.695 45.6156 71.9787C45.8113 72.1599 46.5128 72.4894 46.2361 72.4894C45.9895 72.4894 46.6848 72.6881 46.9255 72.7376C47.1875 72.7915 47.2581 73 47.546 73C48.1472 73 48.6483 71.8251 48.8942 71.4397C49.6896 70.1936 50.4944 69.1072 51.537 68.0213C52.5758 66.9393 53.828 66.05 54.8538 64.9646C56.9233 62.7749 58.9405 60.5117 60.9207 58.22C62.5225 56.3663 64.6509 54.8911 66.2216 53.0215C66.4837 52.7094 66.8764 52.0094 66.9952 51.6243C67.0818 51.3439 65.9646 51.0589 65.5781 50.8442C65.1369 50.5991 64.7764 50.3743 64.3601 50.0853C63.6566 49.5968 63.0374 49.134 62.2995 48.7165C61.3762 48.1941 60.9105 47.1652 59.9555 46.674C58.4844 45.9173 57.2407 44.9315 55.819 44.0854C55.0577 43.6322 54.2089 43.3183 53.4444 42.8726C52.7298 42.4561 52.0289 41.9577 51.2689 41.6244C50.6934 41.372 50.0743 41.2937 49.5453 41.0216C49.112 40.7987 48.4356 42.3695 48.1665 42.674C47.5134 43.4131 46.7563 44.0577 46.0293 44.7308C45.5289 45.194 45.1335 45.6949 44.6505 46.1917C42.7061 48.1919 40.9098 50.4175 39.0662 52.5037C38.3321 53.3344 37.5865 54.0474 36.9596 54.9718C36.4786 55.6811 35.7765 56.3225 35.1365 56.915C33.6735 58.2695 32.5919 60.0369 31.1379 61.3831" stroke="black" stroke-linecap="round" stroke-linejoin="round"/>
        <path d="M45.2737 62C45.0806 60.8649 45.2737 59.8427 45.2737 58.7178C45.2737 57.6534 45.2786 56.6215 45.4181 55.5715C45.5338 54.701 45.6427 53.7204 45.8515 52.8614C46.1417 51.6671 46.5763 50.8013 47.2199 49.7723C47.5239 49.2862 48.7678 49 49.3105 49C50.1746 49 50.6619 49.0814 51.4316 49.4433C53.1981 50.2741 52.8389 52.8019 52.0854 54.1485C51.9147 54.4536 51.6842 54.7244 51.5152 55.0424C51.4913 55.0873 52.9378 54.8143 53.0661 54.7992C54.1288 54.6743 55.2862 54.5347 56.3579 54.5347C57.1971 54.5347 58 54.603 58 55.5644C58 56.2386 57.3296 56.4718 57.0117 56.9802C56.6546 57.5511 55.4315 58.1772 54.7918 58.396C53.4967 58.839 52.3635 59.596 51.0211 59.9978C49.7688 60.3726 48.3574 60.9703 47.0222 60.9703C46.3121 60.9703 45.677 61.6139 45 61.6139" stroke="black" stroke-linecap="round" stroke-linejoin="round"/>
        <path d="M51.8479 36.8346C51.1811 35.2208 50.2818 32.8652 51.1682 31.1911C51.4884 30.5863 51.877 30.8154 51.2867 30.258C50.6432 29.6502 50.1297 29.1421 49.8561 28.3021C49.4093 26.9308 49.5715 25.4273 49.5715 24.0023C49.5715 23.5816 50.1251 23.2326 50.2513 22.8303C50.4855 22.0837 49.1958 21.0035 48.7178 20.5759C47.7868 19.7429 47.5796 19.3214 47.5796 18.0528C47.5796 17.4919 47.4374 16.9244 47.4374 16.3433C47.4374 15.7714 47.8443 15.334 48.0065 14.7981C48.0753 14.5705 48.1429 14.3683 48.291 14.1934C48.5598 13.8761 47.9939 13.6009 47.7219 13.2155C47.2993 12.6168 47.3333 11.8558 47.2951 11.1701C47.2636 10.6056 47.1126 9.94927 47.0184 9.41584C46.9135 8.8215 47.2834 8.42052 47.4453 7.88553C47.557 7.51627 48.1404 6.99718 48.4333 6.73593C49.3323 5.93405 51.1552 6.06409 52.259 6.06409C53.0394 6.06409 53.3458 6.07526 53.8714 6.5717C54.1778 6.86106 54.1267 6.67983 54.3378 6.32536C54.5847 5.91075 54.8347 5.54292 55.1203 5.15336C56.0698 3.85809 57.8509 3.92498 59.3096 4.17546C59.7453 4.25028 60.2939 4.94419 60.7007 4.92941C61.253 4.90935 61.993 3.71868 62.3764 3.37671C63.4218 2.44424 65.1614 2.81169 66.1072 3.61559C66.5017 3.95092 66.5012 3.52147 66.6447 3.24234C66.8256 2.89061 67.1391 2.64109 67.4272 2.36894C67.9195 1.90401 68.568 1.69591 69.0634 1.28652C69.6743 0.78172 71.8858 0.995928 72.4464 1.5254C72.7763 1.83695 72.7617 2.139 72.976 2.50331C73.3693 3.17184 73.8944 2.30176 74.6359 2.30176C75.5551 2.30176 76.4645 2.16995 77.1732 2.83923C77.6449 3.28471 78.025 4.10805 78.1691 4.7204C78.4498 5.91344 79.4746 8.38453 78.343 9.45317C78.1922 9.59562 79.3562 10.2843 79.7421 10.5804C80.6813 11.3011 80.7357 12.1637 80.983 13.1856C81.1641 13.9337 80.9752 14.7382 80.8645 15.4699C80.8222 15.7496 80.5433 16.1091 80.3349 16.306C79.9942 16.6278 80.1932 16.5285 80.5088 16.8808C81.1838 17.6342 81.7147 18.2961 82.1529 19.1725C82.6556 20.178 82.5797 21.1555 82.5797 22.2555C82.5797 23.0391 82.5683 23.4769 82.0106 24.0695C81.5628 24.5453 82.4777 24.8087 82.8484 25.137C83.3844 25.6115 83.7443 26.0851 84.1447 26.6524C85.1305 28.0488 85.4798 29.8424 84.0104 31.0567C83.5972 31.3981 83.2481 31.767 82.7931 32.0645C82.5767 32.206 82.0495 32.4077 81.8999 32.5646C81.6324 32.8453 82.1529 33.9245 82.1529 34.2816C82.1529 34.7966 82.411 35.3009 82.2872 35.8268C82.183 36.2699 81.3532 36.9179 81.0147 37.2377C80.0132 38.1835 78.5854 38.4178 77.3945 37.7751C77.0828 37.6069 77.1476 37.5235 76.9598 37.9767C76.6897 38.6286 76.3021 39.0782 75.782 39.5518C75.1477 40.1295 74.2327 40.3282 73.3633 40.3282C72.3779 40.3282 71.9321 39.9469 71.2687 39.3204C71.1051 39.1659 70.7939 38.6901 70.5652 38.7456C69.7794 38.9364 69.0187 39.5571 68.3599 39.9848C67.4458 40.5783 65.322 41.1056 64.6528 39.9997C63.8818 38.7254 62.5412 40.5596 61.5544 40.5969C59.5766 40.6716 57.7017 41 55.6894 41" stroke="black" stroke-linecap="round" stroke-linejoin="round"/>
        <path d="M56.1791 34.5979C55.4035 30.0771 54.2442 25.5941 53.2484 21.0903C53.0581 20.2295 52.771 19.3649 52.771 18.4841C52.771 17.9739 52.6989 17.5233 52.631 17.032C52.5846 16.6965 52.745 16.2085 52.5899 15.8927C51.9587 14.6083 52.0301 13.0317 52.0301 11.6186C52.0301 10.7057 51.7715 10.2982 52.771 10.0399C54.0163 9.7181 55.3429 9.30796 56.6565 9.26553C57.9031 9.22526 58.9556 8.63582 60.1305 8.32729C61.9667 7.84509 63.6546 6.95659 65.5472 6.6891C67.4927 6.41413 69.333 6.04872 71.2932 6.04872C71.9309 6.04872 73.0894 5.80145 73.2525 6.42103C73.4909 7.32678 73.7042 8.22228 73.9275 9.13149C74.1858 10.1827 74.223 11.3026 74.5202 12.3483C74.79 13.2973 75.2043 14.2104 75.4752 15.163C76.0011 17.0132 76.3856 19.1205 76.4795 21.0307C76.6055 23.5963 77.5856 26.1171 77.6649 28.7004C77.698 29.7777 77.8943 30.8262 77.9613 31.9172C77.9953 32.4719 78.1799 32.4534 77.2862 32.4534C76.349 32.4534 75.4825 32.7214 74.5532 32.7214C73.5313 32.7214 72.385 32.6856 71.4085 32.9597C69.329 33.5435 66.8287 33.8966 64.6581 33.9277C62.933 33.9525 61.2695 34.3838 59.5872 34.4639C58.4501 34.518 57.3655 35 56.1791 35" stroke="black" stroke-linecap="round" stroke-linejoin="round"/>
        <path d="M62.803 33C62.803 31.6349 62.803 30.2698 62.803 28.9047C62.803 28.4023 63.0294 27.4769 62.7696 27.0446C62.5611 26.6977 60.9421 26.9122 60.4738 26.9122C59.9332 26.9122 59.4945 26.5143 59.23 26.1182C58.6942 25.316 59.1399 23.4678 60.0982 22.9714C60.9258 22.5426 61.6155 22.2709 62.5776 22.1405C63.8156 21.9728 63.1492 21.9644 62.5776 21.6847C61.3412 21.0798 60.6989 20.0938 60.5573 18.8467C60.4667 18.0482 60.6105 17.2968 61.0332 16.5895C61.4899 15.8252 61.884 16.0348 62.7278 15.9204C64.0635 15.7395 65.7294 15.5937 66.785 16.5233C67.0547 16.7609 67.7533 17.5771 67.7617 17.3247C67.7978 16.2438 67.7617 15.1566 67.7617 14.075C67.7617 13.0727 67.3162 10.9676 68.1791 10.2077C69.461 9.07869 70.6579 12.8971 70.8004 13.4133C71.4498 15.7646 70.4627 18.181 68.5882 19.8319C66.2845 21.8608 69.0145 24.3326 70.0157 26.3167C70.9784 28.2244 70.7671 30.5141 70.7671 32.603" stroke="black" stroke-linecap="round" stroke-linejoin="round"/>
    </g>
    <defs>
        <filter id="filter0_d" x="0.5" y="0.5" width="89" height="88" filterUnits="userSpaceOnUse" color-interpolation-filters="sRGB">
            <feFlood flood-opacity="0" result="BackgroundImageFix"/>
            <feColorMatrix in="SourceAlpha" type="matrix" values="0 0 0 0 0 0 0 0 0 0 0 0 0 0 0 0 0 0 127 0"/>
            <feOffset dy="4"/>
            <feGaussianBlur stdDeviation="2"/>
            <feColorMatrix type="matrix" values="0 0 0 0 0 0 0 0 0 0 0 0 0 0 0 0 0 0 0.25 0"/>
            <feBlend mode="normal" in2="BackgroundImageFix" result="effect1_dropShadow"/>
            <feBlend mode="normal" in="SourceGraphic" in2="effect1_dropShadow" result="shape"/>
        </filter>
    </defs>
</svg>
