<svg width="201" height="149" viewBox="0 0 201 149" fill="none" xmlns="http://www.w3.org/2000/svg">
    <rect x="0.501953" y="18.8951" width="178.907" height="129.605" rx="2.5" fill="#F3F3F3" stroke="#D4D0D0"/>
    <line y1="54.2793" x2="179.907" y2="54.2793" stroke="#D4D0D0"/>
    <g filter="url(#filter0_d)">
        <ellipse cx="181.257" cy="16.0957" rx="15.7419" ry="16.0957" fill="#565151"/>
    </g>
    <rect x="172.713" y="17.4753" width="3.67901" height="17.9907" rx="1.83951" transform="rotate(-90 172.713 17.4753)" fill="#FF0000"/>
    <path d="M26.8508 67.5752L26.2428 67.7832L23.0108 77.5432H21.5388L18.3388 67.7832L17.7628 67.5752V66.4872H21.3788L21.5068 67.4792L20.0508 67.7832L22.4028 75.0472L24.7868 67.7512L23.3468 67.4792V66.4872H26.8508V67.5752ZM29.8604 76.4232L30.8044 76.6792V77.5432H27.6044L27.4284 76.6792L28.4204 76.4552V71.0152L27.5404 71.0792L27.3804 70.1192L29.3484 69.7672L29.8604 70.2792V76.4232ZM27.9084 66.8872C27.9084 66.6099 28.0044 66.3752 28.1964 66.1832C28.3884 65.9912 28.6231 65.8952 28.9004 65.8952C29.1778 65.8952 29.4124 65.9965 29.6044 66.1992C29.7964 66.4019 29.8924 66.6365 29.8924 66.9032C29.8924 67.1699 29.7964 67.3992 29.6044 67.5912C29.4124 67.7832 29.1778 67.8792 28.9004 67.8792C28.6231 67.8792 28.3884 67.7832 28.1964 67.5912C28.0044 67.3992 27.9084 67.1645 27.9084 66.8872ZM36.5756 77.0792C36.0742 77.4312 35.5409 77.6072 34.9756 77.6072C34.4209 77.6072 33.9516 77.5165 33.5676 77.3352C33.1836 77.1539 32.8529 76.8979 32.5756 76.5672C31.9889 75.8632 31.6956 74.9352 31.6956 73.7832C31.6956 72.3325 32.0902 71.2605 32.8796 70.5672C33.4876 70.0339 34.2342 69.7672 35.1196 69.7672C35.5676 69.7672 35.9942 69.8525 36.3996 70.0232V67.0472L35.4876 67.1112L35.3436 66.1512L37.3436 65.8152L37.8396 66.3592V76.1192C37.8396 76.3432 37.9142 76.4552 38.0636 76.4552C38.1382 76.4552 38.2502 76.4179 38.3996 76.3432L38.7516 77.1912C38.4209 77.4685 38.0209 77.6072 37.5516 77.6072C37.0822 77.6072 36.7569 77.4312 36.5756 77.0792ZM36.3996 75.8792V71.3672C36.3036 71.2712 36.1382 71.1805 35.9036 71.0952C35.6796 71.0099 35.4502 70.9672 35.2156 70.9672C34.9809 70.9672 34.7516 71.0099 34.5276 71.0952C34.3036 71.1699 34.0956 71.3139 33.9036 71.5272C33.4449 71.9965 33.2156 72.7165 33.2156 73.6872C33.2156 74.6045 33.4129 75.2979 33.8076 75.7672C34.1489 76.1832 34.5862 76.3912 35.1196 76.3912C35.6529 76.3912 36.0796 76.2205 36.3996 75.8792ZM45.6007 71.8792C45.6007 72.2099 45.542 72.5352 45.4247 72.8552C45.318 73.1645 45.1047 73.4472 44.7847 73.7032C44.0594 74.2792 42.8754 74.5779 41.2327 74.5992C41.4034 75.4419 41.8354 75.9965 42.5287 76.2632C42.774 76.3592 43.0407 76.4072 43.3287 76.4072C43.6167 76.4072 43.862 76.3859 44.0647 76.3432C44.2674 76.2899 44.4434 76.2312 44.5927 76.1672C44.8807 76.0285 45.0834 75.9005 45.2007 75.7832L45.5527 76.9032C45.4354 77.0205 45.238 77.1379 44.9607 77.2552C43.894 77.6925 42.8487 77.7299 41.8247 77.3672C40.8967 77.0365 40.2567 76.3912 39.9047 75.4312C39.7234 74.9512 39.6327 74.3912 39.6327 73.7512C39.6327 73.1005 39.7287 72.5299 39.9207 72.0392C40.1127 71.5379 40.3687 71.1219 40.6887 70.7912C41.3287 70.1085 42.1287 69.7672 43.0887 69.7672C43.7927 69.7672 44.3847 69.9539 44.8647 70.3272C45.3554 70.7219 45.6007 71.2392 45.6007 71.8792ZM44.0807 72.0072C44.0807 71.7085 44.0007 71.4632 43.8407 71.2712C43.6807 71.0792 43.446 70.9832 43.1367 70.9832C42.838 70.9832 42.582 71.0312 42.3687 71.1272C42.166 71.2232 41.9794 71.3672 41.8087 71.5592C41.4354 71.9965 41.2167 72.6152 41.1527 73.4152C41.9314 73.4152 42.5127 73.3565 42.8967 73.2392C43.2807 73.1112 43.574 72.9512 43.7767 72.7592C43.9794 72.5565 44.0807 72.3059 44.0807 72.0072ZM48.2781 73.7992C48.2781 74.6525 48.4487 75.3032 48.7901 75.7512C49.1314 76.1885 49.5794 76.4072 50.1341 76.4072C50.6887 76.4072 51.1421 76.1939 51.4941 75.7672C51.8461 75.3299 52.0221 74.6685 52.0221 73.7832C52.0221 72.8979 51.8514 72.2099 51.5101 71.7192C51.1794 71.2179 50.7261 70.9672 50.1501 70.9672C49.5421 70.9672 49.0727 71.2285 48.7421 71.7512C48.4327 72.2525 48.2781 72.9352 48.2781 73.7992ZM46.7581 73.6232C46.7581 73.0045 46.8487 72.4552 47.0301 71.9752C47.2114 71.4952 47.4621 71.0899 47.7821 70.7592C48.4007 70.0979 49.1901 69.7672 50.1501 69.7672C51.1314 69.7672 51.9421 70.1192 52.5821 70.8232C53.2221 71.5272 53.5421 72.4712 53.5421 73.6552C53.5421 74.8925 53.2007 75.8685 52.5181 76.5832C51.8887 77.2659 51.0994 77.6072 50.1501 77.6072C49.1581 77.6072 48.3474 77.2445 47.7181 76.5192C47.0781 75.8045 46.7581 74.8392 46.7581 73.6232ZM59.8037 75.0632C58.9824 74.5192 58.5717 73.7352 58.5717 72.7112C58.5717 71.8579 58.865 71.1539 59.4517 70.5992C60.017 70.0445 60.705 69.7672 61.5157 69.7672C62.337 69.7672 63.0357 70.0019 63.6117 70.4712L65.1957 69.6712L65.5317 69.7192L65.6917 71.0472L64.2517 71.2232C64.5077 71.6925 64.6357 72.1779 64.6357 72.6792C64.6357 73.1699 64.545 73.5912 64.3637 73.9432C64.193 74.2952 63.9637 74.5885 63.6757 74.8232C63.1104 75.2925 62.417 75.5272 61.5957 75.5272C61.329 75.5272 61.0944 75.5059 60.8917 75.4632L60.4917 76.0872L60.5557 76.3592C60.6624 76.3805 60.8917 76.4179 61.2437 76.4712C61.5957 76.5139 62.001 76.5885 62.4597 76.6952C62.9184 76.8019 63.3077 76.9405 63.6277 77.1112C63.9584 77.2712 64.2197 77.4472 64.4117 77.6392C64.7317 77.9912 64.8917 78.4339 64.8917 78.9672C64.8917 79.5005 64.7957 79.9485 64.6037 80.3112C64.4117 80.6739 64.161 80.9779 63.8517 81.2232C63.2224 81.7032 62.4544 81.9432 61.5477 81.9432C60.5877 81.9432 59.809 81.7405 59.2117 81.3352C58.561 80.8979 58.2357 80.3059 58.2357 79.5592C58.2357 78.5565 58.6784 77.8365 59.5637 77.3992C59.3077 77.1859 59.1797 76.8499 59.1797 76.3912C59.1797 75.9219 59.3877 75.4792 59.8037 75.0632ZM61.5317 70.9672C61.0944 70.9885 60.7424 71.1539 60.4757 71.4632C60.2197 71.7725 60.0917 72.1245 60.0917 72.5192C60.0917 72.9032 60.1344 73.2019 60.2197 73.4152C60.305 73.6285 60.417 73.7992 60.5557 73.9272C60.8224 74.1939 61.169 74.3272 61.5957 74.3272C62.033 74.3272 62.3957 74.1832 62.6837 73.8952C62.9717 73.6072 63.1157 73.1912 63.1157 72.6472C63.1157 72.1032 62.961 71.6872 62.6517 71.3992C62.353 71.1112 62.001 70.9672 61.5957 70.9672H61.5317ZM63.6757 79.2872C63.6757 78.9565 63.5264 78.7219 63.2277 78.5832C62.9397 78.4552 62.529 78.3325 61.9957 78.2152C61.473 78.1085 61.0677 78.0125 60.7797 77.9272C60.0224 78.2365 59.6437 78.7059 59.6437 79.3352C59.6437 79.6872 59.841 79.9805 60.2357 80.2152C60.5984 80.4285 61.0677 80.5352 61.6437 80.5352C62.209 80.5352 62.6837 80.4125 63.0677 80.1672C63.473 79.9219 63.6757 79.6285 63.6757 79.2872ZM70.5442 76.8872C70.0749 77.3779 69.4775 77.6232 68.7522 77.6232C68.0269 77.6232 67.4402 77.4205 66.9922 77.0152C66.5549 76.6099 66.3362 76.1245 66.3362 75.5592C66.3362 74.9939 66.4482 74.5459 66.6722 74.2152C66.9069 73.8845 67.2109 73.6232 67.5842 73.4312C68.2349 73.1005 69.1895 72.9245 70.4482 72.9032V71.7672C70.4482 71.5539 70.3469 71.3619 70.1442 71.1912C69.9522 71.0099 69.6482 70.9192 69.2322 70.9192C68.8375 70.9192 68.5442 71.0045 68.3522 71.1752L68.0322 72.2152L66.3522 71.7192C66.5975 70.8339 67.2002 70.2365 68.1602 69.9272C68.5015 69.8205 68.8855 69.7672 69.3122 69.7672C70.1442 69.7672 70.7789 69.9752 71.2162 70.3912C71.6642 70.8072 71.8882 71.3512 71.8882 72.0232V76.1192C71.8882 76.3432 71.9629 76.4552 72.1122 76.4552C72.1869 76.4552 72.2989 76.4179 72.4482 76.3432L72.8002 77.1912C72.4695 77.4685 72.1015 77.6072 71.6962 77.6072C71.0882 77.6072 70.7042 77.3672 70.5442 76.8872ZM68.2722 76.2472C68.3895 76.3219 68.5122 76.3752 68.6402 76.4072C68.7682 76.4285 68.9122 76.4392 69.0722 76.4392C69.2322 76.4392 69.3922 76.4072 69.5522 76.3432C69.7229 76.2685 69.8669 76.1832 69.9842 76.0872C70.2082 75.9165 70.3629 75.7032 70.4482 75.4472V74.0712C69.7442 74.0712 69.2269 74.1299 68.8962 74.2472C68.5655 74.3539 68.3095 74.4979 68.1282 74.6792C67.9469 74.8499 67.8562 75.0685 67.8562 75.3352C67.8562 75.5912 67.8935 75.7885 67.9682 75.9272C68.0535 76.0552 68.1549 76.1619 68.2722 76.2472ZM80.2876 71.7352L80.3036 72.1992V76.4232L81.2636 76.6792V77.5432H78.0796L77.8876 76.6792L78.8636 76.4552V72.2472C78.8636 71.7672 78.7516 71.4419 78.5276 71.2712C78.3036 71.0899 78.0262 70.9992 77.6956 70.9992C77.3649 70.9992 77.0449 71.0685 76.7356 71.2072C76.4262 71.3459 76.2022 71.4845 76.0636 71.6232V76.4232L76.9916 76.6792V77.5432H73.8076L73.6156 76.6792L74.6236 76.4552V71.0152L73.7436 71.0792L73.5836 70.1192C73.7222 70.0979 73.8822 70.0712 74.0636 70.0392C74.2449 69.9965 74.4262 69.9592 74.6076 69.9272C74.7889 69.8952 74.9649 69.8685 75.1356 69.8472C75.3062 69.8152 75.4449 69.7885 75.5516 69.7672L76.0156 70.3592C76.5276 69.9645 77.1942 69.7672 78.0156 69.7672C78.8476 69.7672 79.4609 70.0232 79.8556 70.5352C80.5489 70.0232 81.3276 69.7672 82.1916 69.7672C83.3009 69.7672 84.0369 70.1725 84.3996 70.9832C84.5276 71.2605 84.5916 71.6019 84.5916 72.0072V76.4232L85.5356 76.6792V77.5432H82.3356L82.1596 76.6792L83.1516 76.4552V72.2472C83.1516 71.7992 83.0182 71.4685 82.7516 71.2552C82.5276 71.0845 82.2449 70.9992 81.9036 70.9992C81.5622 70.9992 81.2422 71.0632 80.9436 71.1912C80.6556 71.3192 80.4369 71.4472 80.2876 71.5752V71.7352ZM88.8136 76.4232L89.7576 76.6792V77.5432H86.5576L86.3816 76.6792L87.3736 76.4552V71.0152L86.4936 71.0792L86.3336 70.1192L88.3016 69.7672L88.8136 70.2792V76.4232ZM86.8616 66.8872C86.8616 66.6099 86.9576 66.3752 87.1496 66.1832C87.3416 65.9912 87.5762 65.8952 87.8536 65.8952C88.1309 65.8952 88.3656 65.9965 88.5576 66.1992C88.7496 66.4019 88.8456 66.6365 88.8456 66.9032C88.8456 67.1699 88.7496 67.3992 88.5576 67.5912C88.3656 67.7832 88.1309 67.8792 87.8536 67.8792C87.5762 67.8792 87.3416 67.7832 87.1496 67.5912C86.9576 67.3992 86.8616 67.1645 86.8616 66.8872ZM93.0468 70.3592C93.5588 69.9645 94.1988 69.7672 94.9668 69.7672C96.0761 69.7672 96.8068 70.1725 97.1588 70.9832C97.2761 71.2605 97.3348 71.6019 97.3348 72.0072V76.4072L98.2948 76.6792V77.5432H95.1108L94.9188 76.6792L95.8948 76.4552V72.2472C95.8948 71.7672 95.7828 71.4419 95.5588 71.2712C95.3348 71.0899 95.0575 70.9992 94.7268 70.9992C94.3961 70.9992 94.0761 71.0685 93.7668 71.2072C93.4575 71.3459 93.2335 71.4845 93.0948 71.6232V76.4232L94.0228 76.6792V77.5432H90.8388L90.6468 76.6792L91.6548 76.4552V71.0152L90.7748 71.0792L90.6148 70.1192C90.7535 70.0979 90.9135 70.0712 91.0948 70.0392C91.2761 69.9965 91.4575 69.9592 91.6388 69.9272C91.8201 69.8952 91.9961 69.8685 92.1668 69.8472C92.3375 69.8152 92.4761 69.7885 92.5828 69.7672L93.0468 70.3592ZM100.429 75.0632C99.6074 74.5192 99.1967 73.7352 99.1967 72.7112C99.1967 71.8579 99.49 71.1539 100.077 70.5992C100.642 70.0445 101.33 69.7672 102.141 69.7672C102.962 69.7672 103.661 70.0019 104.237 70.4712L105.821 69.6712L106.157 69.7192L106.317 71.0472L104.877 71.2232C105.133 71.6925 105.261 72.1779 105.261 72.6792C105.261 73.1699 105.17 73.5912 104.989 73.9432C104.818 74.2952 104.589 74.5885 104.301 74.8232C103.735 75.2925 103.042 75.5272 102.221 75.5272C101.954 75.5272 101.719 75.5059 101.517 75.4632L101.117 76.0872L101.181 76.3592C101.287 76.3805 101.517 76.4179 101.869 76.4712C102.221 76.5139 102.626 76.5885 103.085 76.6952C103.543 76.8019 103.933 76.9405 104.253 77.1112C104.583 77.2712 104.845 77.4472 105.037 77.6392C105.357 77.9912 105.517 78.4339 105.517 78.9672C105.517 79.5005 105.421 79.9485 105.229 80.3112C105.037 80.6739 104.786 80.9779 104.477 81.2232C103.847 81.7032 103.079 81.9432 102.173 81.9432C101.213 81.9432 100.434 81.7405 99.8367 81.3352C99.186 80.8979 98.8607 80.3059 98.8607 79.5592C98.8607 78.5565 99.3034 77.8365 100.189 77.3992C99.9327 77.1859 99.8047 76.8499 99.8047 76.3912C99.8047 75.9219 100.013 75.4792 100.429 75.0632ZM102.157 70.9672C101.719 70.9885 101.367 71.1539 101.101 71.4632C100.845 71.7725 100.717 72.1245 100.717 72.5192C100.717 72.9032 100.759 73.2019 100.845 73.4152C100.93 73.6285 101.042 73.7992 101.181 73.9272C101.447 74.1939 101.794 74.3272 102.221 74.3272C102.658 74.3272 103.021 74.1832 103.309 73.8952C103.597 73.6072 103.741 73.1912 103.741 72.6472C103.741 72.1032 103.586 71.6872 103.277 71.3992C102.978 71.1112 102.626 70.9672 102.221 70.9672H102.157ZM104.301 79.2872C104.301 78.9565 104.151 78.7219 103.853 78.5832C103.565 78.4552 103.154 78.3325 102.621 78.2152C102.098 78.1085 101.693 78.0125 101.405 77.9272C100.647 78.2365 100.269 78.7059 100.269 79.3352C100.269 79.6872 100.466 79.9805 100.861 80.2152C101.223 80.4285 101.693 80.5352 102.269 80.5352C102.834 80.5352 103.309 80.4125 103.693 80.1672C104.098 79.9219 104.301 79.6285 104.301 79.2872ZM108.567 75.4152C108.684 75.8845 108.743 76.2952 108.743 76.6472C108.743 76.9885 108.695 77.3245 108.599 77.6552C108.513 77.9859 108.401 78.2899 108.263 78.5672C108.007 79.0899 107.697 79.5325 107.335 79.8952L106.503 79.4152V79.1912L107.303 77.5592L106.887 75.7192L108.567 75.4152ZM122.28 76.8872C121.608 77.3672 120.664 77.6072 119.448 77.6072C117.976 77.6072 116.718 77.1379 115.672 76.1992C114.531 75.1645 113.96 73.8099 113.96 72.1352C113.96 70.3645 114.504 68.9565 115.592 67.9112C116.584 66.9619 117.843 66.4872 119.368 66.4872C120.051 66.4872 120.84 66.5885 121.736 66.7912L122.04 69.7032H120.952L120.328 67.9752C120.126 67.9005 119.774 67.8632 119.272 67.8632C118.771 67.8632 118.286 67.9752 117.816 68.1992C117.358 68.4232 116.968 68.7219 116.648 69.0952C115.976 69.8845 115.64 70.8445 115.64 71.9752C115.64 73.2019 116.008 74.2152 116.744 75.0152C117.491 75.8259 118.483 76.2312 119.72 76.2312C120.179 76.2312 120.6 76.1619 120.984 76.0232C121.368 75.8845 121.646 75.7512 121.816 75.6232L122.28 76.8872ZM124.7 73.7992C124.7 74.6525 124.871 75.3032 125.212 75.7512C125.553 76.1885 126.001 76.4072 126.556 76.4072C127.111 76.4072 127.564 76.1939 127.916 75.7672C128.268 75.3299 128.444 74.6685 128.444 73.7832C128.444 72.8979 128.273 72.2099 127.932 71.7192C127.601 71.2179 127.148 70.9672 126.572 70.9672C125.964 70.9672 125.495 71.2285 125.164 71.7512C124.855 72.2525 124.7 72.9352 124.7 73.7992ZM123.18 73.6232C123.18 73.0045 123.271 72.4552 123.452 71.9752C123.633 71.4952 123.884 71.0899 124.204 70.7592C124.823 70.0979 125.612 69.7672 126.572 69.7672C127.553 69.7672 128.364 70.1192 129.004 70.8232C129.644 71.5272 129.964 72.4712 129.964 73.6552C129.964 74.8925 129.623 75.8685 128.94 76.5832C128.311 77.2659 127.521 77.6072 126.572 77.6072C125.58 77.6072 124.769 77.2445 124.14 76.5192C123.5 75.8045 123.18 74.8392 123.18 73.6232ZM135.982 77.0792C135.48 77.4312 134.947 77.6072 134.382 77.6072C133.827 77.6072 133.358 77.5165 132.974 77.3352C132.59 77.1539 132.259 76.8979 131.982 76.5672C131.395 75.8632 131.102 74.9352 131.102 73.7832C131.102 72.3325 131.496 71.2605 132.286 70.5672C132.894 70.0339 133.64 69.7672 134.526 69.7672C134.974 69.7672 135.4 69.8525 135.806 70.0232V67.0472L134.894 67.1112L134.75 66.1512L136.75 65.8152L137.246 66.3592V76.1192C137.246 76.3432 137.32 76.4552 137.47 76.4552C137.544 76.4552 137.656 76.4179 137.806 76.3432L138.158 77.1912C137.827 77.4685 137.427 77.6072 136.958 77.6072C136.488 77.6072 136.163 77.4312 135.982 77.0792ZM135.806 75.8792V71.3672C135.71 71.2712 135.544 71.1805 135.31 71.0952C135.086 71.0099 134.856 70.9672 134.622 70.9672C134.387 70.9672 134.158 71.0099 133.934 71.0952C133.71 71.1699 133.502 71.3139 133.31 71.5272C132.851 71.9965 132.622 72.7165 132.622 73.6872C132.622 74.6045 132.819 75.2979 133.214 75.7672C133.555 76.1832 133.992 76.3912 134.526 76.3912C135.059 76.3912 135.486 76.2205 135.806 75.8792ZM141.501 76.4232L142.445 76.6792V77.5432H139.245L139.069 76.6792L140.061 76.4552V71.0152L139.181 71.0792L139.021 70.1192L140.989 69.7672L141.501 70.2792V76.4232ZM139.549 66.8872C139.549 66.6099 139.645 66.3752 139.837 66.1832C140.029 65.9912 140.264 65.8952 140.541 65.8952C140.818 65.8952 141.053 65.9965 141.245 66.1992C141.437 66.4019 141.533 66.6365 141.533 66.9032C141.533 67.1699 141.437 67.3992 141.245 67.5912C141.053 67.7832 140.818 67.8792 140.541 67.8792C140.264 67.8792 140.029 67.7832 139.837 67.5912C139.645 67.3992 139.549 67.1645 139.549 66.8872ZM145.734 70.3592C146.246 69.9645 146.886 69.7672 147.654 69.7672C148.764 69.7672 149.494 70.1725 149.846 70.9832C149.964 71.2605 150.022 71.6019 150.022 72.0072V76.4072L150.982 76.6792V77.5432H147.798L147.606 76.6792L148.582 76.4552V72.2472C148.582 71.7672 148.47 71.4419 148.246 71.2712C148.022 71.0899 147.745 70.9992 147.414 70.9992C147.084 70.9992 146.764 71.0685 146.454 71.2072C146.145 71.3459 145.921 71.4845 145.782 71.6232V76.4232L146.71 76.6792V77.5432H143.526L143.334 76.6792L144.342 76.4552V71.0152L143.462 71.0792L143.302 70.1192C143.441 70.0979 143.601 70.0712 143.782 70.0392C143.964 69.9965 144.145 69.9592 144.326 69.9272C144.508 69.8952 144.684 69.8685 144.854 69.8472C145.025 69.8152 145.164 69.7885 145.27 69.7672L145.734 70.3592ZM153.116 75.0632C152.295 74.5192 151.884 73.7352 151.884 72.7112C151.884 71.8579 152.178 71.1539 152.764 70.5992C153.33 70.0445 154.018 69.7672 154.828 69.7672C155.65 69.7672 156.348 70.0019 156.924 70.4712L158.508 69.6712L158.844 69.7192L159.004 71.0472L157.564 71.2232C157.82 71.6925 157.948 72.1779 157.948 72.6792C157.948 73.1699 157.858 73.5912 157.676 73.9432C157.506 74.2952 157.276 74.5885 156.988 74.8232C156.423 75.2925 155.73 75.5272 154.908 75.5272C154.642 75.5272 154.407 75.5059 154.204 75.4632L153.804 76.0872L153.868 76.3592C153.975 76.3805 154.204 76.4179 154.556 76.4712C154.908 76.5139 155.314 76.5885 155.772 76.6952C156.231 76.8019 156.62 76.9405 156.94 77.1112C157.271 77.2712 157.532 77.4472 157.724 77.6392C158.044 77.9912 158.204 78.4339 158.204 78.9672C158.204 79.5005 158.108 79.9485 157.916 80.3112C157.724 80.6739 157.474 80.9779 157.164 81.2232C156.535 81.7032 155.767 81.9432 154.86 81.9432C153.9 81.9432 153.122 81.7405 152.524 81.3352C151.874 80.8979 151.548 80.3059 151.548 79.5592C151.548 78.5565 151.991 77.8365 152.876 77.3992C152.62 77.1859 152.492 76.8499 152.492 76.3912C152.492 75.9219 152.7 75.4792 153.116 75.0632ZM154.844 70.9672C154.407 70.9885 154.055 71.1539 153.788 71.4632C153.532 71.7725 153.404 72.1245 153.404 72.5192C153.404 72.9032 153.447 73.2019 153.532 73.4152C153.618 73.6285 153.73 73.7992 153.868 73.9272C154.135 74.1939 154.482 74.3272 154.908 74.3272C155.346 74.3272 155.708 74.1832 155.996 73.8952C156.284 73.6072 156.428 73.1912 156.428 72.6472C156.428 72.1032 156.274 71.6872 155.964 71.3992C155.666 71.1112 155.314 70.9672 154.908 70.9672H154.844ZM156.988 79.2872C156.988 78.9565 156.839 78.7219 156.54 78.5832C156.252 78.4552 155.842 78.3325 155.308 78.2152C154.786 78.1085 154.38 78.0125 154.092 77.9272C153.335 78.2365 152.956 78.7059 152.956 79.3352C152.956 79.6872 153.154 79.9805 153.548 80.2152C153.911 80.4285 154.38 80.5352 154.956 80.5352C155.522 80.5352 155.996 80.4125 156.38 80.1672C156.786 79.9219 156.988 79.6285 156.988 79.2872ZM161.254 75.4152C161.372 75.8845 161.43 76.2952 161.43 76.6472C161.43 76.9885 161.382 77.3245 161.286 77.6552C161.201 77.9859 161.089 78.2899 160.95 78.5672C160.694 79.0899 160.385 79.5325 160.022 79.8952L159.19 79.4152V79.1912L159.99 77.5592L159.574 75.7192L161.254 75.4152ZM30.0358 96.1992V87.7832L29.0278 87.7032V86.4872H32.4038C33.8865 86.4872 35.0065 86.8232 35.7638 87.4952C36.4465 88.1139 36.7878 88.9565 36.7878 90.0232C36.7878 90.7592 36.6011 91.3832 36.2278 91.8952C35.8545 92.4072 35.3478 92.7965 34.7078 93.0632L36.2598 96.2472L37.1718 96.4392V97.5432H34.9478L33.1558 93.4472C32.8998 93.4792 32.6385 93.4952 32.3718 93.4952H31.6358V96.2152L32.8998 96.4392V97.5432H29.1718L29.0118 96.4232L30.0358 96.1992ZM35.1078 90.0072C35.1078 88.5779 34.1371 87.8632 32.1958 87.8632H31.6358V92.1192H32.3078C33.2571 92.1192 33.9825 91.8899 34.4838 91.4312C34.8998 91.0685 35.1078 90.5939 35.1078 90.0072ZM39.6062 93.7992C39.6062 94.6525 39.7769 95.3032 40.1182 95.7512C40.4595 96.1885 40.9075 96.4072 41.4622 96.4072C42.0169 96.4072 42.4702 96.1939 42.8222 95.7672C43.1742 95.3299 43.3502 94.6685 43.3502 93.7832C43.3502 92.8979 43.1795 92.2099 42.8382 91.7192C42.5075 91.2179 42.0542 90.9672 41.4782 90.9672C40.8702 90.9672 40.4009 91.2285 40.0702 91.7512C39.7609 92.2525 39.6062 92.9352 39.6062 93.7992ZM38.0862 93.6232C38.0862 93.0045 38.1769 92.4552 38.3582 91.9752C38.5395 91.4952 38.7902 91.0899 39.1102 90.7592C39.7289 90.0979 40.5182 89.7672 41.4782 89.7672C42.4595 89.7672 43.2702 90.1192 43.9102 90.8232C44.5502 91.5272 44.8702 92.4712 44.8702 93.6552C44.8702 94.8925 44.5289 95.8685 43.8462 96.5832C43.2169 97.2659 42.4275 97.6072 41.4782 97.6072C40.4862 97.6072 39.6755 97.2445 39.0462 96.5192C38.4062 95.8045 38.0862 94.8392 38.0862 93.6232ZM47.7361 97.2392C47.2241 97.4952 46.9467 97.6285 46.9041 97.6392L46.5361 97.4152V87.0472L45.6081 87.1112L45.4641 86.1512L47.4961 85.8472L47.9761 86.3592V90.1992C48.4241 89.9112 48.9147 89.7672 49.4481 89.7672C49.9814 89.7672 50.4401 89.8579 50.8241 90.0392C51.2081 90.2205 51.5387 90.4765 51.8161 90.8072C52.4027 91.5112 52.6961 92.4392 52.6961 93.5912C52.6961 95.0419 52.3014 96.1139 51.5121 96.8072C50.9041 97.3405 50.1574 97.6072 49.2721 97.6072C48.6854 97.6072 48.1734 97.4845 47.7361 97.2392ZM49.2721 90.9832C49.0161 90.9832 48.7654 91.0365 48.5201 91.1432C48.2854 91.2392 48.1041 91.3619 47.9761 91.5112V95.9912C48.0614 96.0979 48.2214 96.1939 48.4561 96.2792C48.7014 96.3645 48.9414 96.4072 49.1761 96.4072C49.4107 96.4072 49.6401 96.3699 49.8641 96.2952C50.0881 96.2099 50.2961 96.0605 50.4881 95.8472C50.9467 95.3779 51.1761 94.6579 51.1761 93.6872C51.1761 92.7699 50.9787 92.0765 50.5841 91.6072C50.2427 91.1912 49.8054 90.9832 49.2721 90.9832ZM55.3718 93.7992C55.3718 94.6525 55.5425 95.3032 55.8838 95.7512C56.2251 96.1885 56.6731 96.4072 57.2278 96.4072C57.7825 96.4072 58.2358 96.1939 58.5878 95.7672C58.9398 95.3299 59.1158 94.6685 59.1158 93.7832C59.1158 92.8979 58.9451 92.2099 58.6038 91.7192C58.2731 91.2179 57.8198 90.9672 57.2438 90.9672C56.6358 90.9672 56.1665 91.2285 55.8358 91.7512C55.5265 92.2525 55.3718 92.9352 55.3718 93.7992ZM53.8518 93.6232C53.8518 93.0045 53.9425 92.4552 54.1238 91.9752C54.3051 91.4952 54.5558 91.0899 54.8758 90.7592C55.4945 90.0979 56.2838 89.7672 57.2438 89.7672C58.2251 89.7672 59.0358 90.1192 59.6758 90.8232C60.3158 91.5272 60.6358 92.4712 60.6358 93.6552C60.6358 94.8925 60.2945 95.8685 59.6118 96.5832C58.9825 97.2659 58.1931 97.6072 57.2438 97.6072C56.2518 97.6072 55.4411 97.2445 54.8118 96.5192C54.1718 95.8045 53.8518 94.8392 53.8518 93.6232ZM65.7916 95.9272C65.8129 96.0019 65.9249 96.3539 66.1276 96.9832C65.9782 97.1219 65.7596 97.2605 65.4716 97.3992C65.1836 97.5379 64.8102 97.6072 64.3516 97.6072C63.8929 97.6072 63.5036 97.4685 63.1836 97.1912C62.8742 96.9139 62.7196 96.4605 62.7196 95.8312V90.9672H61.4076L61.1836 89.9272L61.2956 89.7672H62.7196V87.0952L63.9996 86.7912L64.0796 87.0312V89.7672H65.7436C65.7969 89.7672 65.8236 89.7992 65.8236 89.8632V90.9672H64.0796V95.5592C64.0796 95.9005 64.1276 96.1245 64.2236 96.2312C64.3302 96.3272 64.4582 96.3752 64.6076 96.3752C64.7676 96.3752 64.9009 96.3592 65.0076 96.3272C65.1142 96.2952 65.2156 96.2525 65.3116 96.1992C65.5142 96.1139 65.6742 96.0232 65.7916 95.9272ZM69.2667 96.4232L70.2107 96.6792V97.5432H67.0107L66.8347 96.6792L67.8267 96.4552V91.0152L66.9467 91.0792L66.7867 90.1192L68.7547 89.7672L69.2667 90.2792V96.4232ZM67.3147 86.8872C67.3147 86.6099 67.4107 86.3752 67.6027 86.1832C67.7947 85.9912 68.0294 85.8952 68.3067 85.8952C68.584 85.8952 68.8187 85.9965 69.0107 86.1992C69.2027 86.4019 69.2987 86.6365 69.2987 86.9032C69.2987 87.1699 69.2027 87.3992 69.0107 87.5912C68.8187 87.7832 68.584 87.8792 68.3067 87.8792C68.0294 87.8792 67.7947 87.7832 67.6027 87.5912C67.4107 87.3992 67.3147 87.1645 67.3147 86.8872ZM76.8618 96.8712C76.2218 97.3619 75.4431 97.6072 74.5258 97.6072C73.5658 97.6072 72.7765 97.2979 72.1578 96.6792C71.4538 95.9965 71.1018 95.0419 71.1018 93.8152C71.1018 92.4179 71.4751 91.3565 72.2218 90.6312C72.8191 90.0552 73.5925 89.7672 74.5418 89.7672C75.2351 89.7672 75.8378 89.9485 76.3498 90.3112C76.7658 90.5992 77.0431 90.9032 77.1818 91.2232L75.5978 91.9752L75.0858 91.0472C74.8725 90.9939 74.6965 90.9672 74.5578 90.9672C73.2671 90.9672 72.6218 91.9059 72.6218 93.7832C72.6218 94.5832 72.8138 95.2232 73.1978 95.7032C73.5925 96.1725 74.1098 96.4072 74.7498 96.4072C75.0485 96.4072 75.3631 96.3539 75.6938 96.2472C76.0245 96.1299 76.2965 95.9645 76.5098 95.7512L76.8618 96.8712ZM80.7281 89.7672C81.0694 89.7672 81.3841 89.8152 81.6721 89.9112C81.9601 90.0072 82.2107 90.1299 82.4241 90.2792C82.8294 90.5565 83.1441 90.9139 83.3681 91.3512L81.7361 91.9752L81.3681 91.1592C81.1547 91.0525 80.9254 90.9992 80.6801 90.9992C80.4347 90.9992 80.2107 91.0739 80.0081 91.2232C79.8054 91.3619 79.7041 91.5699 79.7041 91.8472C79.7041 92.1245 79.8374 92.3539 80.1041 92.5352C80.3707 92.7059 80.7387 92.8872 81.2081 93.0792C81.6774 93.2712 82.0347 93.4525 82.2801 93.6232C82.5361 93.7939 82.7334 93.9752 82.8721 94.1672C83.1387 94.5192 83.2721 94.9139 83.2721 95.3512C83.2721 95.7779 83.1921 96.1299 83.0321 96.4072C82.8721 96.6845 82.6641 96.9139 82.4081 97.0952C81.9067 97.4365 81.2987 97.6072 80.5841 97.6072C79.9867 97.6072 79.4054 97.4419 78.8401 97.1112C78.3174 96.7912 77.9761 96.3965 77.8161 95.9272L79.4641 95.3032L79.8481 96.2312C80.0934 96.3379 80.3174 96.3912 80.5201 96.3912C80.7334 96.3912 80.9041 96.3752 81.0321 96.3432C81.1601 96.3112 81.2774 96.2632 81.3841 96.1992C81.6294 96.0392 81.7521 95.8045 81.7521 95.4952C81.7521 95.1005 81.5067 94.8019 81.0161 94.5992C80.5361 94.3859 80.1201 94.1939 79.7681 94.0232C79.4267 93.8525 79.1387 93.6712 78.9041 93.4792C78.4241 93.0739 78.1841 92.5405 78.1841 91.8792C78.1841 91.2285 78.4454 90.7059 78.9681 90.3112C79.4587 89.9485 80.0454 89.7672 80.7281 89.7672ZM86.3168 95.4152C86.4341 95.8845 86.4928 96.2952 86.4928 96.6472C86.4928 96.9885 86.4448 97.3245 86.3488 97.6552C86.2635 97.9859 86.1515 98.2899 86.0128 98.5672C85.7568 99.0899 85.4475 99.5325 85.0848 99.8952L84.2528 99.4152V99.1912L85.0528 97.5592L84.6368 95.7192L86.3168 95.4152ZM91.9504 96.4232L92.9264 96.1992V87.7832L91.9024 87.6872V86.4872H95.5984C96.7504 86.4872 97.6678 86.7592 98.3504 87.3032C99.0011 87.8259 99.3264 88.5192 99.3264 89.3832C99.3264 89.9912 99.1558 90.5352 98.8144 91.0152C98.5051 91.4525 98.1264 91.7405 97.6784 91.8792C98.2544 91.9965 98.7398 92.2632 99.1344 92.6792C99.5611 93.1272 99.7744 93.6819 99.7744 94.3432C99.7744 95.0045 99.6571 95.5379 99.4224 95.9432C99.1984 96.3485 98.8998 96.6685 98.5264 96.9032C97.8864 97.3299 97.0224 97.5432 95.9344 97.5432H92.1104L91.9504 96.4232ZM97.6464 89.5432C97.6464 88.4232 96.9318 87.8632 95.5024 87.8632H94.5264V91.3032H95.2304C96.0518 91.3032 96.6598 91.1645 97.0544 90.8872C97.4491 90.5992 97.6464 90.1512 97.6464 89.5432ZM94.5264 96.1672H95.7744C96.8198 96.1672 97.5238 95.8685 97.8864 95.2712C98.0251 95.0365 98.0944 94.7485 98.0944 94.4072C98.0944 94.0659 98.0251 93.7832 97.8864 93.5592C97.7584 93.3352 97.5824 93.1592 97.3584 93.0312C96.9424 92.7965 96.4038 92.6792 95.7424 92.6792H94.5264V96.1672ZM103.091 96.4232L104.099 96.6792V97.5432H100.835L100.643 96.6792L101.651 96.4552V87.0472L100.739 87.1112L100.579 86.1512L102.579 85.8152L103.091 86.3592V96.4232ZM106.481 93.7992C106.481 94.6525 106.652 95.3032 106.993 95.7512C107.335 96.1885 107.783 96.4072 108.337 96.4072C108.892 96.4072 109.345 96.1939 109.697 95.7672C110.049 95.3299 110.225 94.6685 110.225 93.7832C110.225 92.8979 110.055 92.2099 109.713 91.7192C109.383 91.2179 108.929 90.9672 108.353 90.9672C107.745 90.9672 107.276 91.2285 106.945 91.7512C106.636 92.2525 106.481 92.9352 106.481 93.7992ZM104.961 93.6232C104.961 93.0045 105.052 92.4552 105.233 91.9752C105.415 91.4952 105.665 91.0899 105.985 90.7592C106.604 90.0979 107.393 89.7672 108.353 89.7672C109.335 89.7672 110.145 90.1192 110.785 90.8232C111.425 91.5272 111.745 92.4712 111.745 93.6552C111.745 94.8925 111.404 95.8685 110.721 96.5832C110.092 97.2659 109.303 97.6072 108.353 97.6072C107.361 97.6072 106.551 97.2445 105.921 96.5192C105.281 95.8045 104.961 94.8392 104.961 93.6232ZM114.163 95.0632C113.342 94.5192 112.931 93.7352 112.931 92.7112C112.931 91.8579 113.224 91.1539 113.811 90.5992C114.376 90.0445 115.064 89.7672 115.875 89.7672C116.696 89.7672 117.395 90.0019 117.971 90.4712L119.555 89.6712L119.891 89.7192L120.051 91.0472L118.611 91.2232C118.867 91.6925 118.995 92.1779 118.995 92.6792C118.995 93.1699 118.904 93.5912 118.723 93.9432C118.552 94.2952 118.323 94.5885 118.035 94.8232C117.47 95.2925 116.776 95.5272 115.955 95.5272C115.688 95.5272 115.454 95.5059 115.251 95.4632L114.851 96.0872L114.915 96.3592C115.022 96.3805 115.251 96.4179 115.603 96.4712C115.955 96.5139 116.36 96.5885 116.819 96.6952C117.278 96.8019 117.667 96.9405 117.987 97.1112C118.318 97.2712 118.579 97.4472 118.771 97.6392C119.091 97.9912 119.251 98.4339 119.251 98.9672C119.251 99.5005 119.155 99.9485 118.963 100.311C118.771 100.674 118.52 100.978 118.211 101.223C117.582 101.703 116.814 101.943 115.907 101.943C114.947 101.943 114.168 101.741 113.571 101.335C112.92 100.898 112.595 100.306 112.595 99.5592C112.595 98.5565 113.038 97.8365 113.923 97.3992C113.667 97.1859 113.539 96.8499 113.539 96.3912C113.539 95.9219 113.747 95.4792 114.163 95.0632ZM115.891 90.9672C115.454 90.9885 115.102 91.1539 114.835 91.4632C114.579 91.7725 114.451 92.1245 114.451 92.5192C114.451 92.9032 114.494 93.2019 114.579 93.4152C114.664 93.6285 114.776 93.7992 114.915 93.9272C115.182 94.1939 115.528 94.3272 115.955 94.3272C116.392 94.3272 116.755 94.1832 117.043 93.8952C117.331 93.6072 117.475 93.1912 117.475 92.6472C117.475 92.1032 117.32 91.6872 117.011 91.3992C116.712 91.1112 116.36 90.9672 115.955 90.9672H115.891ZM118.035 99.2872C118.035 98.9565 117.886 98.7219 117.587 98.5832C117.299 98.4552 116.888 98.3325 116.355 98.2152C115.832 98.1085 115.427 98.0125 115.139 97.9272C114.382 98.2365 114.003 98.7059 114.003 99.3352C114.003 99.6872 114.2 99.9805 114.595 100.215C114.958 100.429 115.427 100.535 116.003 100.535C116.568 100.535 117.043 100.413 117.427 100.167C117.832 99.9219 118.035 99.6285 118.035 99.2872ZM121.976 95.0632C121.154 94.5192 120.744 93.7352 120.744 92.7112C120.744 91.8579 121.037 91.1539 121.624 90.5992C122.189 90.0445 122.877 89.7672 123.688 89.7672C124.509 89.7672 125.208 90.0019 125.784 90.4712L127.368 89.6712L127.704 89.7192L127.864 91.0472L126.424 91.2232C126.68 91.6925 126.808 92.1779 126.808 92.6792C126.808 93.1699 126.717 93.5912 126.536 93.9432C126.365 94.2952 126.136 94.5885 125.848 94.8232C125.282 95.2925 124.589 95.5272 123.768 95.5272C123.501 95.5272 123.266 95.5059 123.064 95.4632L122.664 96.0872L122.728 96.3592C122.834 96.3805 123.064 96.4179 123.416 96.4712C123.768 96.5139 124.173 96.5885 124.632 96.6952C125.09 96.8019 125.48 96.9405 125.8 97.1112C126.13 97.2712 126.392 97.4472 126.584 97.6392C126.904 97.9912 127.064 98.4339 127.064 98.9672C127.064 99.5005 126.968 99.9485 126.776 100.311C126.584 100.674 126.333 100.978 126.024 101.223C125.394 101.703 124.626 101.943 123.72 101.943C122.76 101.943 121.981 101.741 121.384 101.335C120.733 100.898 120.408 100.306 120.408 99.5592C120.408 98.5565 120.85 97.8365 121.736 97.3992C121.48 97.1859 121.352 96.8499 121.352 96.3912C121.352 95.9219 121.56 95.4792 121.976 95.0632ZM123.704 90.9672C123.266 90.9885 122.914 91.1539 122.648 91.4632C122.392 91.7725 122.264 92.1245 122.264 92.5192C122.264 92.9032 122.306 93.2019 122.392 93.4152C122.477 93.6285 122.589 93.7992 122.728 93.9272C122.994 94.1939 123.341 94.3272 123.768 94.3272C124.205 94.3272 124.568 94.1832 124.856 93.8952C125.144 93.6072 125.288 93.1912 125.288 92.6472C125.288 92.1032 125.133 91.6872 124.824 91.3992C124.525 91.1112 124.173 90.9672 123.768 90.9672H123.704ZM125.848 99.2872C125.848 98.9565 125.698 98.7219 125.4 98.5832C125.112 98.4552 124.701 98.3325 124.168 98.2152C123.645 98.1085 123.24 98.0125 122.952 97.9272C122.194 98.2365 121.816 98.7059 121.816 99.3352C121.816 99.6872 122.013 99.9805 122.408 100.215C122.77 100.429 123.24 100.535 123.816 100.535C124.381 100.535 124.856 100.413 125.24 100.167C125.645 99.9219 125.848 99.6285 125.848 99.2872ZM130.876 96.4232L131.82 96.6792V97.5432H128.62L128.444 96.6792L129.436 96.4552V91.0152L128.556 91.0792L128.396 90.1192L130.364 89.7672L130.876 90.2792V96.4232ZM128.924 86.8872C128.924 86.6099 129.02 86.3752 129.212 86.1832C129.404 85.9912 129.639 85.8952 129.916 85.8952C130.193 85.8952 130.428 85.9965 130.62 86.1992C130.812 86.4019 130.908 86.6365 130.908 86.9032C130.908 87.1699 130.812 87.3992 130.62 87.5912C130.428 87.7832 130.193 87.8792 129.916 87.8792C129.639 87.8792 129.404 87.7832 129.212 87.5912C129.02 87.3992 128.924 87.1645 128.924 86.8872ZM135.109 90.3592C135.621 89.9645 136.261 89.7672 137.029 89.7672C138.139 89.7672 138.869 90.1725 139.221 90.9832C139.339 91.2605 139.397 91.6019 139.397 92.0072V96.4072L140.357 96.6792V97.5432H137.173L136.981 96.6792L137.957 96.4552V92.2472C137.957 91.7672 137.845 91.4419 137.621 91.2712C137.397 91.0899 137.12 90.9992 136.789 90.9992C136.459 90.9992 136.139 91.0685 135.829 91.2072C135.52 91.3459 135.296 91.4845 135.157 91.6232V96.4232L136.085 96.6792V97.5432H132.901L132.709 96.6792L133.717 96.4552V91.0152L132.837 91.0792L132.677 90.1192C132.816 90.0979 132.976 90.0712 133.157 90.0392C133.339 89.9965 133.52 89.9592 133.701 89.9272C133.883 89.8952 134.059 89.8685 134.229 89.8472C134.4 89.8152 134.539 89.7885 134.645 89.7672L135.109 90.3592ZM142.491 95.0632C141.67 94.5192 141.259 93.7352 141.259 92.7112C141.259 91.8579 141.553 91.1539 142.139 90.5992C142.705 90.0445 143.393 89.7672 144.203 89.7672C145.025 89.7672 145.723 90.0019 146.299 90.4712L147.883 89.6712L148.219 89.7192L148.379 91.0472L146.939 91.2232C147.195 91.6925 147.323 92.1779 147.323 92.6792C147.323 93.1699 147.233 93.5912 147.051 93.9432C146.881 94.2952 146.651 94.5885 146.363 94.8232C145.798 95.2925 145.105 95.5272 144.283 95.5272C144.017 95.5272 143.782 95.5059 143.579 95.4632L143.179 96.0872L143.243 96.3592C143.35 96.3805 143.579 96.4179 143.931 96.4712C144.283 96.5139 144.689 96.5885 145.147 96.6952C145.606 96.8019 145.995 96.9405 146.315 97.1112C146.646 97.2712 146.907 97.4472 147.099 97.6392C147.419 97.9912 147.579 98.4339 147.579 98.9672C147.579 99.5005 147.483 99.9485 147.291 100.311C147.099 100.674 146.849 100.978 146.539 101.223C145.91 101.703 145.142 101.943 144.235 101.943C143.275 101.943 142.497 101.741 141.899 101.335C141.249 100.898 140.923 100.306 140.923 99.5592C140.923 98.5565 141.366 97.8365 142.251 97.3992C141.995 97.1859 141.867 96.8499 141.867 96.3912C141.867 95.9219 142.075 95.4792 142.491 95.0632ZM144.219 90.9672C143.782 90.9885 143.43 91.1539 143.163 91.4632C142.907 91.7725 142.779 92.1245 142.779 92.5192C142.779 92.9032 142.822 93.2019 142.907 93.4152C142.993 93.6285 143.105 93.7992 143.243 93.9272C143.51 94.1939 143.857 94.3272 144.283 94.3272C144.721 94.3272 145.083 94.1832 145.371 93.8952C145.659 93.6072 145.803 93.1912 145.803 92.6472C145.803 92.1032 145.649 91.6872 145.339 91.3992C145.041 91.1112 144.689 90.9672 144.283 90.9672H144.219ZM146.363 99.2872C146.363 98.9565 146.214 98.7219 145.915 98.5832C145.627 98.4552 145.217 98.3325 144.683 98.2152C144.161 98.1085 143.755 98.0125 143.467 97.9272C142.71 98.2365 142.331 98.7059 142.331 99.3352C142.331 99.6872 142.529 99.9805 142.923 100.215C143.286 100.429 143.755 100.535 144.331 100.535C144.897 100.535 145.371 100.413 145.755 100.167C146.161 99.9219 146.363 99.6285 146.363 99.2872ZM150.629 95.4152C150.747 95.8845 150.805 96.2952 150.805 96.6472C150.805 96.9885 150.757 97.3245 150.661 97.6552C150.576 97.9859 150.464 98.2899 150.325 98.5672C150.069 99.0899 149.76 99.5325 149.397 99.8952L148.565 99.4152V99.1912L149.365 97.5592L148.949 95.7192L150.629 95.4152ZM49.3891 116.999L49.5011 114.295H50.6211L50.9091 116.007C51.3677 116.178 51.8264 116.263 52.2851 116.263C53.2024 116.263 53.8317 115.965 54.1731 115.367C54.2904 115.165 54.3491 114.903 54.3491 114.583C54.3491 114.253 54.2477 113.959 54.0451 113.703C53.8531 113.437 53.5277 113.191 53.0691 112.967C52.6211 112.743 52.1731 112.541 51.7251 112.359C51.2877 112.178 50.8877 111.965 50.5251 111.719C50.1731 111.463 49.8797 111.154 49.6451 110.791C49.4211 110.418 49.3091 109.975 49.3091 109.463C49.3091 108.941 49.3997 108.503 49.5811 108.151C49.7731 107.799 50.0291 107.501 50.3491 107.255C51.0211 106.743 51.8424 106.487 52.8131 106.487C53.7517 106.487 54.6531 106.647 55.5171 106.967L55.7411 109.719H54.6371L53.9331 107.991C53.6131 107.885 53.2077 107.831 52.7171 107.831C52.2371 107.831 51.8264 107.943 51.4851 108.167C51.1544 108.391 50.9891 108.733 50.9891 109.191C50.9891 109.725 51.2557 110.162 51.7891 110.503C52.0237 110.663 52.2851 110.807 52.5731 110.935C52.8611 111.053 53.1917 111.197 53.5651 111.367C53.9491 111.538 54.3064 111.741 54.6371 111.975C54.9677 112.21 55.2344 112.455 55.4371 112.711C55.8211 113.191 56.0131 113.741 56.0131 114.359C56.0131 114.978 55.9064 115.49 55.6931 115.895C55.4904 116.29 55.2131 116.615 54.8611 116.871C54.1997 117.362 53.3251 117.607 52.2371 117.607C51.1491 117.607 50.1997 117.405 49.3891 116.999ZM58.7624 113.799C58.7624 114.653 58.9331 115.303 59.2744 115.751C59.6158 116.189 60.0638 116.407 60.6184 116.407C61.1731 116.407 61.6264 116.194 61.9784 115.767C62.3304 115.33 62.5064 114.669 62.5064 113.783C62.5064 112.898 62.3358 112.21 61.9944 111.719C61.6638 111.218 61.2104 110.967 60.6344 110.967C60.0264 110.967 59.5571 111.229 59.2264 111.751C58.9171 112.253 58.7624 112.935 58.7624 113.799ZM57.2424 113.623C57.2424 113.005 57.3331 112.455 57.5144 111.975C57.6958 111.495 57.9464 111.09 58.2664 110.759C58.8851 110.098 59.6744 109.767 60.6344 109.767C61.6158 109.767 62.4264 110.119 63.0664 110.823C63.7064 111.527 64.0264 112.471 64.0264 113.655C64.0264 114.893 63.6851 115.869 63.0024 116.583C62.3731 117.266 61.5838 117.607 60.6344 117.607C59.6424 117.607 58.8318 117.245 58.2024 116.519C57.5624 115.805 57.2424 114.839 57.2424 113.623ZM70.9243 116.871C70.2843 117.362 69.5056 117.607 68.5883 117.607C67.6283 117.607 66.839 117.298 66.2203 116.679C65.5163 115.997 65.1643 115.042 65.1643 113.815C65.1643 112.418 65.5376 111.357 66.2843 110.631C66.8816 110.055 67.655 109.767 68.6043 109.767C69.2976 109.767 69.9003 109.949 70.4123 110.311C70.8283 110.599 71.1056 110.903 71.2443 111.223L69.6603 111.975L69.1483 111.047C68.935 110.994 68.759 110.967 68.6203 110.967C67.3296 110.967 66.6843 111.906 66.6843 113.783C66.6843 114.583 66.8763 115.223 67.2603 115.703C67.655 116.173 68.1723 116.407 68.8123 116.407C69.111 116.407 69.4256 116.354 69.7563 116.247C70.087 116.13 70.359 115.965 70.5723 115.751L70.9243 116.871ZM74.4386 116.423L75.3826 116.679V117.543H72.1826L72.0066 116.679L72.9986 116.455V111.015L72.1186 111.079L71.9586 110.119L73.9266 109.767L74.4386 110.279V116.423ZM72.4866 106.887C72.4866 106.61 72.5826 106.375 72.7746 106.183C72.9666 105.991 73.2012 105.895 73.4786 105.895C73.7559 105.895 73.9906 105.997 74.1826 106.199C74.3746 106.402 74.4706 106.637 74.4706 106.903C74.4706 107.17 74.3746 107.399 74.1826 107.591C73.9906 107.783 73.7559 107.879 73.4786 107.879C73.2012 107.879 72.9666 107.783 72.7746 107.591C72.5826 107.399 72.4866 107.165 72.4866 106.887ZM80.5598 116.887C80.0905 117.378 79.4931 117.623 78.7678 117.623C78.0425 117.623 77.4558 117.421 77.0078 117.015C76.5705 116.61 76.3518 116.125 76.3518 115.559C76.3518 114.994 76.4638 114.546 76.6878 114.215C76.9225 113.885 77.2265 113.623 77.5998 113.431C78.2505 113.101 79.2051 112.925 80.4638 112.903V111.767C80.4638 111.554 80.3625 111.362 80.1598 111.191C79.9678 111.01 79.6638 110.919 79.2478 110.919C78.8531 110.919 78.5598 111.005 78.3678 111.175L78.0478 112.215L76.3678 111.719C76.6131 110.834 77.2158 110.237 78.1758 109.927C78.5171 109.821 78.9011 109.767 79.3278 109.767C80.1598 109.767 80.7945 109.975 81.2318 110.391C81.6798 110.807 81.9038 111.351 81.9038 112.023V116.119C81.9038 116.343 81.9785 116.455 82.1278 116.455C82.2025 116.455 82.3145 116.418 82.4638 116.343L82.8158 117.191C82.4851 117.469 82.1171 117.607 81.7118 117.607C81.1038 117.607 80.7198 117.367 80.5598 116.887ZM78.2878 116.247C78.4051 116.322 78.5278 116.375 78.6558 116.407C78.7838 116.429 78.9278 116.439 79.0878 116.439C79.2478 116.439 79.4078 116.407 79.5678 116.343C79.7385 116.269 79.8825 116.183 79.9998 116.087C80.2238 115.917 80.3785 115.703 80.4638 115.447V114.071C79.7598 114.071 79.2425 114.13 78.9118 114.247C78.5811 114.354 78.3251 114.498 78.1438 114.679C77.9625 114.85 77.8718 115.069 77.8718 115.335C77.8718 115.591 77.9091 115.789 77.9838 115.927C78.0691 116.055 78.1705 116.162 78.2878 116.247ZM85.9192 116.423L86.9272 116.679V117.543H83.6632L83.4712 116.679L84.4792 116.455V107.047L83.5672 107.111L83.4072 106.151L85.4072 105.815L85.9192 106.359V116.423ZM103.087 116.247L103.967 116.423L103.903 117.543H100.799L100.671 116.391L101.599 116.183V107.959L98.7672 117.303H96.9272L94.1912 107.879V116.231L95.1352 116.407V117.543H92.0472L91.8552 116.407L92.8632 116.199V107.799L92.0632 107.719V106.487H95.3592L97.9512 115.447L100.639 106.487H103.759L103.919 107.719L103.087 107.847V116.247ZM111.101 111.879C111.101 112.21 111.042 112.535 110.925 112.855C110.818 113.165 110.605 113.447 110.285 113.703C109.559 114.279 108.375 114.578 106.733 114.599C106.903 115.442 107.335 115.997 108.029 116.263C108.274 116.359 108.541 116.407 108.829 116.407C109.117 116.407 109.362 116.386 109.565 116.343C109.767 116.29 109.943 116.231 110.093 116.167C110.381 116.029 110.583 115.901 110.701 115.783L111.053 116.903C110.935 117.021 110.738 117.138 110.461 117.255C109.394 117.693 108.349 117.73 107.325 117.367C106.397 117.037 105.757 116.391 105.405 115.431C105.223 114.951 105.133 114.391 105.133 113.751C105.133 113.101 105.229 112.53 105.421 112.039C105.613 111.538 105.869 111.122 106.189 110.791C106.829 110.109 107.629 109.767 108.589 109.767C109.293 109.767 109.885 109.954 110.365 110.327C110.855 110.722 111.101 111.239 111.101 111.879ZM109.581 112.007C109.581 111.709 109.501 111.463 109.341 111.271C109.181 111.079 108.946 110.983 108.637 110.983C108.338 110.983 108.082 111.031 107.869 111.127C107.666 111.223 107.479 111.367 107.309 111.559C106.935 111.997 106.717 112.615 106.653 113.415C107.431 113.415 108.013 113.357 108.397 113.239C108.781 113.111 109.074 112.951 109.277 112.759C109.479 112.557 109.581 112.306 109.581 112.007ZM117.138 117.079C116.637 117.431 116.103 117.607 115.538 117.607C114.983 117.607 114.514 117.517 114.13 117.335C113.746 117.154 113.415 116.898 113.138 116.567C112.551 115.863 112.258 114.935 112.258 113.783C112.258 112.333 112.653 111.261 113.442 110.567C114.05 110.034 114.797 109.767 115.682 109.767C116.13 109.767 116.557 109.853 116.962 110.023V107.047L116.05 107.111L115.906 106.151L117.906 105.815L118.402 106.359V116.119C118.402 116.343 118.477 116.455 118.626 116.455C118.701 116.455 118.813 116.418 118.962 116.343L119.314 117.191C118.983 117.469 118.583 117.607 118.114 117.607C117.645 117.607 117.319 117.431 117.138 117.079ZM116.962 115.879V111.367C116.866 111.271 116.701 111.181 116.466 111.095C116.242 111.01 116.013 110.967 115.778 110.967C115.543 110.967 115.314 111.01 115.09 111.095C114.866 111.17 114.658 111.314 114.466 111.527C114.007 111.997 113.778 112.717 113.778 113.687C113.778 114.605 113.975 115.298 114.37 115.767C114.711 116.183 115.149 116.391 115.682 116.391C116.215 116.391 116.642 116.221 116.962 115.879ZM122.657 116.423L123.601 116.679V117.543H120.401L120.225 116.679L121.217 116.455V111.015L120.337 111.079L120.177 110.119L122.145 109.767L122.657 110.279V116.423ZM120.705 106.887C120.705 106.61 120.801 106.375 120.993 106.183C121.185 105.991 121.42 105.895 121.697 105.895C121.975 105.895 122.209 105.997 122.401 106.199C122.593 106.402 122.689 106.637 122.689 106.903C122.689 107.17 122.593 107.399 122.401 107.591C122.209 107.783 121.975 107.879 121.697 107.879C121.42 107.879 121.185 107.783 120.993 107.591C120.801 107.399 120.705 107.165 120.705 106.887ZM128.779 116.887C128.309 117.378 127.712 117.623 126.987 117.623C126.261 117.623 125.675 117.421 125.227 117.015C124.789 116.61 124.571 116.125 124.571 115.559C124.571 114.994 124.683 114.546 124.907 114.215C125.141 113.885 125.445 113.623 125.819 113.431C126.469 113.101 127.424 112.925 128.683 112.903V111.767C128.683 111.554 128.581 111.362 128.379 111.191C128.187 111.01 127.883 110.919 127.467 110.919C127.072 110.919 126.779 111.005 126.587 111.175L126.267 112.215L124.587 111.719C124.832 110.834 125.435 110.237 126.395 109.927C126.736 109.821 127.12 109.767 127.547 109.767C128.379 109.767 129.013 109.975 129.451 110.391C129.899 110.807 130.123 111.351 130.123 112.023V116.119C130.123 116.343 130.197 116.455 130.347 116.455C130.421 116.455 130.533 116.418 130.683 116.343L131.035 117.191C130.704 117.469 130.336 117.607 129.931 117.607C129.323 117.607 128.939 117.367 128.779 116.887ZM126.507 116.247C126.624 116.322 126.747 116.375 126.875 116.407C127.003 116.429 127.147 116.439 127.307 116.439C127.467 116.439 127.627 116.407 127.787 116.343C127.957 116.269 128.101 116.183 128.219 116.087C128.443 115.917 128.597 115.703 128.683 115.447V114.071C127.979 114.071 127.461 114.13 127.131 114.247C126.8 114.354 126.544 114.498 126.363 114.679C126.181 114.85 126.091 115.069 126.091 115.335C126.091 115.591 126.128 115.789 126.203 115.927C126.288 116.055 126.389 116.162 126.507 116.247Z" fill="black"/>
    <defs>
        <filter id="filter0_d" x="161.516" y="0" width="39.4837" height="40.1914" filterUnits="userSpaceOnUse" color-interpolation-filters="sRGB">
            <feFlood flood-opacity="0" result="BackgroundImageFix"/>
            <feColorMatrix in="SourceAlpha" type="matrix" values="0 0 0 0 0 0 0 0 0 0 0 0 0 0 0 0 0 0 127 0"/>
            <feOffset dy="4"/>
            <feGaussianBlur stdDeviation="2"/>
            <feColorMatrix type="matrix" values="0 0 0 0 0 0 0 0 0 0 0 0 0 0 0 0 0 0 0.25 0"/>
            <feBlend mode="normal" in2="BackgroundImageFix" result="effect1_dropShadow"/>
            <feBlend mode="normal" in="SourceGraphic" in2="effect1_dropShadow" result="shape"/>
        </filter>
    </defs>
</svg>
