<svg width="229" height="134" viewBox="0 0 229 134" fill="none" xmlns="http://www.w3.org/2000/svg">
    <g filter="url(#filter0_d)">
        <path d="M14 41.2235C14.6938 41.8436 15.372 42.5521 16.2631 42.7995C16.628 42.9007 17.3524 43.2123 17.6194 43.5086C18.4036 44.3794 20.0941 44.0602 21.0889 44.0602C22.412 44.0602 23.5913 44.1579 24.8186 43.5874C26.5338 42.7902 28.2788 42.132 30.0072 41.3811C30.7359 41.0645 31.3866 40.6284 32.0968 40.278C32.446 40.1057 32.9446 39.9032 33.2323 39.6476C33.9217 39.0352 35.0528 38.7639 35.8581 38.3168C37.7026 37.2929 39.4851 35.9868 41.1806 34.6835C42.0301 34.0306 43.1545 33.6435 44.0903 33.1513C44.4579 32.958 44.871 32.9456 45.2258 32.7486C45.6092 32.5357 46.0033 32.6976 46.3613 32.521C46.9716 32.2198 47.8324 32.1412 48.4982 32.092C48.7947 32.07 50.259 31.8588 50.4774 32.162C50.5825 32.3078 51.2033 32.6138 51.4 32.7836C51.8585 33.1795 52.3298 33.6672 52.7484 34.1319C54.8538 36.4695 55.6272 39.8801 56.8645 42.7995C57.1841 43.5536 57.5742 44.6516 57.5742 45.4785C57.5742 46.3444 58 47.1539 58 48" stroke="black" stroke-linecap="round" stroke-linejoin="round"/>
        <path d="M14 45.3236C15.5087 46.8461 16.5643 48.0784 18.875 48.2565C19.9141 48.3366 20.9809 48.2647 22.0229 48.2647C22.8915 48.2647 23.941 48.4367 24.7705 48.1177C25.6773 47.7689 26.7266 47.4404 27.6751 47.268C28.7244 47.0773 29.7148 46.5807 30.721 46.2059C32 45.7295 33.701 45.7229 34.6932 44.5965C35.1936 44.0284 36.022 43.2737 36.6793 42.9053C37.6571 42.3574 38.6666 41.8369 39.6467 41.2877C40.3369 40.901 41.1321 40.7716 41.7663 40.2583C42.3276 39.8039 43.1706 39.7934 43.7838 39.4413C44.5884 38.9793 45.5759 39.0001 46.4686 39.0001C47.6849 39.0001 48.9274 40.8461 49.1769 42.0148C49.3344 42.7525 49.9762 43.2128 50.2838 43.853C50.5729 44.4547 50.8582 45.0953 51.3043 45.6177C52.0836 46.5301 52.4988 47.9568 53 49" stroke="black" stroke-linecap="round" stroke-linejoin="round"/>
        <path d="M51.362 57C51.362 55.6056 51.2545 54.4122 51.0786 53.0916C50.9384 52.0386 50.91 51.5441 51.6534 50.7465C52.4342 49.9089 53.0301 49.7649 53.9851 49.2526C55.2228 48.5887 56.8094 48.8721 57.9925 48.167C59.484 47.278 61.0815 50.1632 61.2633 51.5282C61.4707 53.0856 62 54.7997 62 56.3747" stroke="black" stroke-linecap="round" stroke-linejoin="round"/>
        <path d="M53 53C53.6226 52.7014 54.4968 51.8308 55.1418 51.7647C55.5213 51.7259 55.8858 51.1625 56.2553 51.049C57.1521 50.7735 58.0588 50 59 50" stroke="black" stroke-linecap="round" stroke-linejoin="round"/>
        <path d="M55 55C55.7819 54.8298 56.7796 54.5714 57.5625 54.5714C58.0514 54.5714 58.4478 54 59 54" stroke="black" stroke-linecap="round" stroke-linejoin="round"/>
        <path d="M24.4981 79.6667L31.3383 65.5464L35.7844 62.2022L42.6245 59.9727L51.8587 57.7432L60.4089 57H66.9071H75.4572H78.1933L85.3755 62.2022L89.8216 66.2896L97.3457 74.4645L102.476 80.7814L107.264 89.3279L108.632 92.6721L110 96.0164V102.705L108.632 106.049L105.896 108.65L103.16 109.765H95.2937L89.4796 108.65L82.2974 106.049L77.1673 103.448L74.4312 102.705H71.0112L65.881 103.448L60.4089 104.563L53.5688 107.536L47.7546 111.995L39.8885 119.055L31.3383 123.885L26.2082 125L21.7621 123.885L19.71 120.541L18 115.71V107.536L19.026 97.8743L21.0781 89.3279L24.4981 79.6667Z" stroke="black"/>
        <path d="M58.7059 93.2958L55.9608 94.0563L56.6471 99L59.3922 97.8592L58.7059 93.2958Z" stroke="black"/>
        <path d="M68.3137 90.6338L65.2255 91.3944L65.9118 97.0986L69 95.9577L68.3137 90.6338Z" stroke="black"/>
        <path d="M37.7745 75.0423L39.8333 80.7465L34 83.4085L36.402 87.9718L41.2059 85.6901L43.6078 90.6338L48.7549 88.7324L47.0392 83.4085L52.1863 81.507L50.4706 75.0423L44.6373 77.7042L42.2353 72L37.7745 75.0423Z" stroke="black"/>
        <path d="M31.8571 89.0761C31.5185 88.2298 31 87.4794 31 86.5729C31 85.7385 31 84.9041 31 84.0697C31 83.1089 31.1198 82.3458 31.2778 81.4232C31.4 80.7091 31.8195 79.9349 31.8571 79.215C31.8981 78.4323 32.6903 77.7746 32.8492 77.0153C33.0099 76.2476 33.4735 75.8248 33.8254 75.1189C34.1266 74.5148 34.6908 73.9668 35.2143 73.5344C35.8059 73.0458 36.3494 72.4788 36.9286 72.0005C37.5706 71.4702 38.4975 71.5104 39.0317 71.0565C39.4607 70.6921 40.5041 70.2643 41.0714 70.2643C41.7772 70.2643 42.5192 70.1125 43.2857 70.1125C43.7646 70.1125 45.3199 69.8382 45.6825 70.1463C46.1255 70.5226 47.3252 70.2787 47.7143 70.7952C47.9997 71.1741 49.0053 71.5097 49.4286 71.7476C49.86 71.9902 50.8333 72.6242 51 73.1551C51.1287 73.5652 51.5321 73.9742 51.746 74.3604C51.8974 74.6336 52.2607 75.219 52.5 75.4223C52.7506 75.6352 53.0642 76.2221 53.1349 76.5601C53.2125 76.931 53.5131 77.1864 53.6825 77.5462C53.9498 78.1139 54.5714 79.1414 54.5714 79.746C54.5714 81.4167 55 83.0405 55 84.7524C55 86.1898 53.5245 87.6088 52.6429 88.5451C52.071 89.1524 51.7239 90.0229 51 90.4752C50.1857 90.9838 49.2497 91.5817 48.5714 92.2619C47.9502 92.8851 47.037 93.273 46.2143 93.4672C45.5728 93.6186 44.8158 93.9307 44.1429 93.9307C42.4381 93.9307 40.7448 94.1655 39.0714 93.7706C38.6817 93.6786 38.3183 93.4243 37.9286 93.3323C37.9115 93.3283 37.6883 93.3247 37.746 93.2481C37.8074 93.1666 38.1299 93.1722 38.0317 93.1722C37.7355 93.1722 37.4392 93.1722 37.1429 93.1722C36.4188 93.1722 35.8873 92.607 35.2222 92.4052C34.6358 92.2273 33.8454 91.3173 33.4603 90.8629C33.1132 90.4532 32.6858 90.045 32.3651 89.6071C32.2607 89.4646 31.7611 88.9244 31.8571 88.9244" stroke="black" stroke-linecap="round" stroke-linejoin="round"/>
        <path d="M68.7388 83.8794C68.3957 82.9706 68.0764 81.4232 67.4807 80.6963C66.857 79.9351 67.0189 78.4394 67.0189 77.5045C67.0189 75.3972 67.7724 73.4317 67.8788 71.4443C67.9366 70.3656 68.4461 69.7712 68.7069 68.7684C68.9259 67.9268 69.3927 66.9484 69.957 66.3287C70.5624 65.6638 70.9604 64.8419 71.5734 64.1687C72.2244 63.4537 72.8039 63.2092 73.6754 62.9357C74.2613 62.7519 74.7809 62 75.4033 62C76.4676 62 77.5319 62 78.5962 62C80.4068 62 81.8925 63.0299 83.4293 63.9676C84.1218 64.3901 84.734 64.8701 85.4279 65.3055C86.0467 65.6939 86.8471 66.0418 87.4025 66.5298C87.954 67.0143 88.5883 67.0347 88.8119 67.894C88.9964 68.6033 89.8297 69.1955 90.269 69.6779C91.1304 70.624 91.6703 72.3744 91.6703 73.7267C91.6703 74.4534 91.8007 75.3549 91.949 76.0878C92.1449 77.0561 91.7163 77.9345 91.6703 78.8424C91.6422 79.3977 91.0772 80.4438 90.7785 80.8537C90.2683 81.5542 89.5593 82.2286 89.1622 83.0137C88.3419 84.6353 87.3406 85.7341 85.8658 86.634C83.1176 88.3108 79.5986 87.9719 76.4065 87.9719C76.183 87.9719 75.7518 87.7036 75.5466 87.5784C75.335 87.4493 74.7352 87.4286 74.615 87.2636C74.4233 87.0005 73.909 86.8993 73.6754 86.6427C73.3624 86.2989 72.8755 86.0035 72.4652 85.8032C71.8809 85.5181 71.1444 85.0277 70.5223 84.8326C70.1524 84.7165 69.8734 84.4065 69.535 84.1942C69.2934 84.0426 68.863 83.9948 68.7388 83.722" stroke="black" stroke-linecap="round" stroke-linejoin="round"/>
        <path d="M70.2592 80.8446C69.9336 79.1576 69.529 75.5964 71.7104 75.2419C72.2774 75.1498 73.6044 74.7069 74.0324 75.3153C74.5352 76.0301 75.0613 76.7255 75.5643 77.461C76.7981 79.2653 75.1475 80.5443 73.8873 81.3031C73.2982 81.6578 72.5197 82 71.8555 82C71.171 82 70.4043 81.8188 70.4043 80.8446" stroke="black" stroke-linecap="round" stroke-linejoin="round"/>
        <path d="M73.2528 71.0239C73.2528 69.543 72.4938 68.0875 73.6062 67.099C74.1224 66.6402 74.9201 66 75.5848 66C77.2148 66 79.4545 66.033 79.9033 68.2764C80.3257 70.3878 79.3275 71.8799 77.6341 72.7159C76.9257 73.0657 75.2526 73.1755 74.6976 72.5589C74.211 72.0185 73.4893 71.655 73.2528 70.8669" stroke="black" stroke-linecap="round" stroke-linejoin="round"/>
        <path d="M84.7596 76.0723C84.0589 75.0134 84.0561 74.2633 84.0561 72.9798C84.0561 72.2955 83.7374 70.4652 84.6189 70.3513C86.2804 70.1364 88.0623 69.3603 89.3715 71.1587C89.8158 71.7691 89.9656 72.9658 89.9656 73.7529C89.9656 74.2106 90.048 74.7756 89.9578 75.2218C89.8245 75.8808 89.4718 75.9276 89.0901 76.3471C88.4907 77.0058 87.6871 77 86.8701 77C86.4246 77 85.979 77 85.5335 77C85.1244 77 84.9554 76.4118 84.6189 76.2269" stroke="black" stroke-linecap="round" stroke-linejoin="round"/>
        <path d="M80.2889 83.3031C80.2889 82.4517 79.9441 80.7863 80.7944 80.2416C81.1944 79.9853 81.3215 79.2816 81.8134 79.1465C82.2257 79.0333 82.5628 79 83.033 79C84.7481 79 85.9216 80.8434 85.9216 82.262C85.9216 83.1553 86.2824 83.5293 85.4562 84.2439C84.8393 84.7775 83.9949 84.9688 83.1774 84.9688C82.3678 84.9688 81.4377 85.1629 80.8345 84.5832C80.6239 84.3808 80.326 84.1437 80.2889 83.8583C80.2636 83.6637 80.1524 82.9599 80 82.8866" stroke="black" stroke-linecap="round" stroke-linejoin="round"/>
        <path d="M14.2075 42.2333C11.2709 38.4744 11.1523 37.66 11.1523 33.0678C11.1523 30.3851 11.7106 28.6495 13.8256 26.9575C17.7204 23.8416 21.1225 21.4356 26.0038 20.0409C27.8619 19.51 29.4216 17.5368 31.3504 16.9858C33.8508 16.2713 36.5734 14.9337 39.2429 14.1428C44.4517 12.5994 51.6307 10.9179 56.9798 10.9179C62.8489 10.9179 68.1737 10.6869 73.4013 13.5911C76.054 15.0649 78.9216 14.5595 81.4211 15.6703C84.0956 16.859 87.7909 16.0691 90.2047 17.4101C92.4328 18.648 94.6546 18.144 96.8666 19.9136C98.2001 20.9804 101.486 21.1789 103.147 21.6534C108.471 23.1746 113.349 27.0999 118.889 28.4851C125.051 30.0256 134.629 31.9451 139.639 35.9532C141.096 37.1188 145.611 36.512 147.489 36.9292C150.142 37.5188 153.582 39.0286 156.273 39.1781C161.821 39.4864 167.095 39.9419 172.694 39.9419C174.145 39.9419 174.992 40.301 175.41 38.8387C175.595 38.1911 177.944 38.3388 178.592 37.8203C179.836 36.8249 184.049 35.7636 185.678 35.4016C189.864 34.4714 193.6 32.9048 197.517 30.9462C201.26 29.0745 207.255 26.8393 209.568 23.1385C211.66 19.7922 217.696 17.7737 220.261 14.5671C222.755 11.4502 224.25 6.585 224.25 2.51617" stroke="black" stroke-linecap="round" stroke-linejoin="round"/>
        <path d="M14.2085 46.0523C9.18881 42.1307 5.04297 37.7544 5.04297 31.1584C5.04297 27.1373 6.21404 26.0963 8.09813 22.7991C8.57436 21.9657 12.933 18.1019 13.869 17.8345C16.3374 17.1292 18.5094 14.7369 21.4645 14.7369C25.0054 14.7369 26.205 12.5641 29.1448 11.7241C31.4371 11.0692 33.7416 10.0834 36.0189 9.43278C38.1119 8.83479 44.2222 9.87177 45.5239 8.24466C46.6803 6.79915 51.3193 6.44356 53.1618 6.33518C55.6642 6.18798 58.6745 5.57139 61.5635 5.57139C64.7908 5.57139 67.6349 6.15318 70.729 6.33518C72.8922 6.46243 75.3855 8.49611 77.6031 8.62655C82.9593 8.94162 87.4527 12.9078 92.8789 13.2093C98.0843 13.4985 104.169 15.851 108.918 17.9618C112.95 19.7537 119.305 24.6662 123.812 24.6662C128.793 24.6662 133.969 29.2489 139.088 29.2489C144.478 29.2489 150.565 31.6004 155.849 33.1103C158.365 33.829 170.903 36.9308 173.077 34.2135C174.487 32.4505 178.661 32.6229 180.715 31.71C182.399 30.9617 185.869 29.4639 187.589 29.2489C189.781 28.9749 192.169 26.3287 194.463 26.1937C196.284 26.0866 199.4 24.5171 200.743 23.3083C208.392 16.424 220.432 13.5669 220.432 0.988647" stroke="black" stroke-linecap="round" stroke-linejoin="round"/>
    </g>
    <defs>
        <filter id="filter0_d" x="0.542969" y="0.488647" width="228.207" height="133.025" filterUnits="userSpaceOnUse" color-interpolation-filters="sRGB">
            <feFlood flood-opacity="0" result="BackgroundImageFix"/>
            <feColorMatrix in="SourceAlpha" type="matrix" values="0 0 0 0 0 0 0 0 0 0 0 0 0 0 0 0 0 0 127 0"/>
            <feOffset dy="4"/>
            <feGaussianBlur stdDeviation="2"/>
            <feColorMatrix type="matrix" values="0 0 0 0 0 0 0 0 0 0 0 0 0 0 0 0 0 0 0.25 0"/>
            <feBlend mode="normal" in2="BackgroundImageFix" result="effect1_dropShadow"/>
            <feBlend mode="normal" in="SourceGraphic" in2="effect1_dropShadow" result="shape"/>
        </filter>
    </defs>
</svg>
