<svg width="356" height="107" viewBox="0 0 356 107" fill="none" xmlns="http://www.w3.org/2000/svg">
    <path d="M146.859 3.87686C133.425 3.87686 117.061 1.1826 105.825 8.43625C96.0444 14.7506 82.1716 9.05482 70.9442 11.0807C66.1281 11.9497 62.2498 13.9105 58.42 16.3696C53.5124 19.5207 46.4976 18.8348 40.5674 19.47C32.8365 20.2979 20.6993 21.5556 15.9584 27.6769C12.683 31.9059 12.9402 36.6054 8.43285 40.7623C2.29855 46.4196 -1.96081 49.1009 3.544 56.8113C7.68358 62.6095 11.3991 68.4165 11.3991 75.2768C11.3991 81.1623 21.7563 84.7657 26.9995 87.2224C32.213 89.6653 37.195 93.0089 43.2041 93.7423C54.3532 95.1032 64.8668 92.2467 75.0091 88.5902C78.2805 87.4109 85.2489 84.2823 89.0165 86.4473C93.7975 89.1947 98.0645 92.3878 104.122 93.1496C119.633 95.1002 134.895 91.5506 149.605 98.2105C156.94 101.531 164.609 100.501 172.566 98.6665C179.267 97.1215 184.595 98.3922 189.375 102.36C196.041 107.893 208.896 106.115 217.006 103.591C232.303 98.8291 251.504 98.7222 267.597 99.0768C276.917 99.2822 292.898 107.53 301.105 100.718C305.729 96.8797 309.161 94.3157 315.387 92.101C321.682 89.8616 328.306 88.6706 334.228 85.4899C339.849 82.4708 346.581 80.4182 349.334 75.2768C351.16 71.8673 350.937 68.2596 353.509 64.7902C356.13 61.2542 354.498 54.7299 354.498 50.6562C354.498 46.5529 355.611 40.0645 349.554 38.5282C341.858 36.5764 332.635 33.0096 330.767 26.0355C327.943 15.4878 307.882 16.9779 298.138 14.9562C290.685 13.4095 282.816 11.3293 275.177 10.6248C266.777 9.85001 258.24 11.0556 249.854 10.032C245.077 9.44891 244.974 8.62566 241.999 6.15656C238.077 2.90076 232.492 3.05617 227.278 3.05617C217.646 3.05617 208.015 3.05617 198.384 3.05617C194.424 3.05617 187.148 4.25759 183.443 2.8738C176.943 0.446225 172.729 1.20377 165.865 1.41479C163.502 1.48742 155.911 0.328235 154 1.59717C152.241 2.76529 148.251 3.87686 145.87 3.87686" stroke="black" stroke-width="0.5" stroke-linecap="round" stroke-linejoin="round"/>
</svg>
