<svg width="285" height="282" viewBox="0 0 285 282" fill="none" xmlns="http://www.w3.org/2000/svg">
    <path d="M51.0179 75.8601L55.2567 65.037L62.0388 57.8216L68.8209 51.5081L76.4507 47.9003H84.0806L88.3194 49.7042L96.797 39.783L110.361 26.254L128.164 17.2347L152.749 12.7251H173.096L188.355 17.2347L202.767 26.254L218.027 39.783L226.504 51.5081L232.439 67.7428V73.1544L235.83 79.4679L243.46 73.1544L252.785 70.4486H261.263L270.588 79.4679L278.218 88.4872L282.457 102.016L285 115.545V137.191L282.457 152.524L278.218 163.347L273.131 170.563L263.806 178.68L250.242 181.386H243.46L246.851 191.307L250.242 203.934L252.785 213.855L254.481 221.071V237.305V246.325V256.246V265.265L252.785 270.677L250.242 281.5H37.4537V276.088V263.461V251.736V237.305V225.5V213.855L40.8448 201.228V194.915L43.3881 178.68H40.8448L31.5194 181.386H23.8896L17.1075 178.68L9.47761 170.563L3.54328 160.641L1 149.818V137.191V130.878L3.54328 119.153L6.08657 107.428L9.47761 99.3103L17.1075 88.4872L28.9761 79.4679L40.8448 75.8601H51.0179Z" fill="#DD417C" fill-opacity="0.34"/>
    <path d="M51.0179 75.8601L55.2567 65.037L62.0388 57.8216L68.8209 51.5081L76.4507 47.9003H84.0806L88.3194 49.7042M51.0179 75.8601L55.2567 82.1736L58.6478 88.4872L60.3433 99.3103L62.0388 110.133L58.6478 127.27L55.2567 140.799L51.0179 149.818L47.6269 155.23M51.0179 75.8601H40.8448L28.9761 79.4679L17.1075 88.4872L9.47761 99.3103L6.08657 107.428L3.54328 119.153L1 130.878V137.191V149.818L3.54328 160.641L9.47761 170.563L17.1075 178.68L23.8896 181.386H31.5194L40.8448 178.68H43.3881M106.122 75.8601L103.579 65.037L99.3403 57.8216L92.5582 51.5081L88.3194 49.7042M88.3194 49.7042L96.797 39.783L110.361 26.254L128.164 17.2347L152.749 12.7251H173.096L188.355 17.2347L202.767 26.254L218.027 39.783L226.504 51.5081L232.439 67.7428V73.1544M232.439 73.1544L235.83 79.4679M232.439 73.1544L220.57 67.7428L211.245 65.037H202.767H192.594L183.269 67.7428M235.83 79.4679L243.46 73.1544L252.785 70.4486H261.263L270.588 79.4679L278.218 88.4872L282.457 102.016L285 115.545V137.191L282.457 152.524L278.218 163.347L273.131 170.563L263.806 178.68L250.242 181.386H243.46M235.83 79.4679L229.896 88.4872L226.504 102.016V110.133V119.153L229.896 130.878L232.439 137.191L235.83 145.309L240.916 155.23M183.269 67.7428L173.096 75.8601L166.313 84.8794L161.227 92.9968M183.269 67.7428H173.096L168.857 61.4293L163.77 57.8216L152.749 53.3119H144.272L134.099 55.1158L123.078 61.4293L113.752 70.4486M161.227 92.9968L158.684 102.016V110.133V119.153L161.227 127.27M161.227 92.9968L152.749 97.5064H145.967H138.337H128.164L120.534 92.9968L116.296 88.4872M37.4537 163.347L43.3881 160.641L47.6269 155.23M47.6269 155.23L43.3881 178.68M43.3881 178.68L40.8448 194.915V201.228L37.4537 213.855V225.5V237.305V251.736V263.461V276.088V281.5H250.242L252.785 270.677L254.481 265.265V256.246V246.325V237.305V221.071L252.785 213.855L250.242 203.934L246.851 191.307L243.46 181.386M243.46 181.386H235.83" stroke="black"/>
    <path d="M119.687 52.4099L124.773 58.7234L134.946 55.1157L145.967 52.4099H153.597V50.6061L155.293 41.5868L152.749 31.6656L145.967 23.5482L137.49 20.8424L128.164 23.5482L119.687 31.6656L117.143 41.5868L119.687 52.4099Z" fill="white"/>
    <path d="M164.618 50.6061V58.7234L172.248 65.9389L180.725 66.8408L189.203 65.0369L196.833 62.3312L198.528 56.9196L200.224 50.6061V41.5868L196.833 37.0771L189.203 31.6656H179.03L170.552 34.3713L164.618 41.5868V50.6061Z" fill="white"/>
    <path d="M119.687 52.4099L124.773 58.7234L134.946 55.1157L145.967 52.4099H153.597V50.6061L155.293 41.5868L152.749 31.6656L145.967 23.5482L137.49 20.8424L128.164 23.5482L119.687 31.6656L117.143 41.5868L119.687 52.4099Z" stroke="black"/>
    <path d="M164.618 50.6061V58.7234L172.248 65.9389L180.725 66.8408L189.203 65.0369L196.833 62.3312L198.528 56.9196L200.224 50.6061V41.5868L196.833 37.0771L189.203 31.6656H179.03L170.552 34.3713L164.618 41.5868V50.6061Z" stroke="black"/>
    <path d="M135.794 37.979L137.49 42.4887L142.576 44.2925L146.815 42.4887V36.1751L141.728 33.4694H137.49L135.794 37.979Z" fill="black"/>
    <path d="M176.487 46.0964L178.182 50.606L184.116 52.4099L187.507 48.8022V44.2925L184.116 40.6848H179.03L176.487 46.0964Z" fill="black"/>
    <path d="M135.794 37.979L137.49 42.4887L142.576 44.2925L146.815 42.4887V36.1751L141.728 33.4694H137.49L135.794 37.979Z" stroke="black"/>
    <path d="M176.487 46.0964L178.182 50.606L184.116 52.4099L187.507 48.8022V44.2925L184.116 40.6848H179.03L176.487 46.0964Z" stroke="black"/>
    <path d="M233.287 100.212L235.83 102.016L240.069 100.212V97.5065V93.8988L238.373 92.0949H235.83L233.287 95.7026V100.212Z" fill="#DD417C" fill-opacity="0.39"/>
    <path d="M242.612 83.9775L244.307 87.5853L248.546 89.3891L251.937 87.5853L252.785 84.8795L251.937 81.2718L248.546 79.4679H244.307L242.612 83.9775Z" fill="#DD417C" fill-opacity="0.39"/>
    <path d="M259.567 85.7814L258.719 90.291L259.567 92.0949L263.806 93.8988H268.045L269.74 90.291L268.045 85.7814L263.806 83.9775L259.567 85.7814Z" fill="#DD417C" fill-opacity="0.39"/>
    <path d="M248.546 97.5065L246.003 102.016V107.428L249.394 111.035L251.937 113.741H257.872L262.11 110.133L263.806 104.722L262.11 99.3103L257.872 95.7026H252.785L248.546 97.5065Z" fill="#DD417C" fill-opacity="0.39"/>
    <path d="M27.2806 108.33L29.8239 112.839L33.2149 114.643L37.4537 113.741L40.8448 111.937L42.5403 107.428L41.6925 102.016L37.4537 98.4084H33.2149L29.8239 102.016L27.2806 108.33Z" fill="#DD417C" fill-opacity="0.39"/>
    <path d="M17.9552 96.6045L19.6507 101.114L23.0418 102.016L25.5851 100.212L27.2806 96.6045L24.7373 92.9968H20.4985L17.9552 96.6045Z" fill="#DD417C" fill-opacity="0.39"/>
    <path d="M33.2149 89.3891L34.0627 92.0949L38.3015 92.9968L41.6925 92.0949L42.5403 89.3891L41.6925 85.7814L38.3015 84.8795L34.0627 85.7814L33.2149 89.3891Z" fill="#DD417C" fill-opacity="0.39"/>
    <path d="M47.6268 94.8007L45.9313 98.4084L47.6268 102.016H51.8657L53.5612 100.212V96.6045L51.8657 94.8007H47.6268Z" fill="#DD417C" fill-opacity="0.39"/>
    <path d="M233.287 100.212L235.83 102.016L240.069 100.212V97.5065V93.8988L238.373 92.0949H235.83L233.287 95.7026V100.212Z" stroke="black"/>
    <path d="M242.612 83.9775L244.307 87.5853L248.546 89.3891L251.937 87.5853L252.785 84.8795L251.937 81.2718L248.546 79.4679H244.307L242.612 83.9775Z" stroke="black"/>
    <path d="M259.567 85.7814L258.719 90.291L259.567 92.0949L263.806 93.8988H268.045L269.74 90.291L268.045 85.7814L263.806 83.9775L259.567 85.7814Z" stroke="black"/>
    <path d="M248.546 97.5065L246.003 102.016V107.428L249.394 111.035L251.937 113.741H257.872L262.11 110.133L263.806 104.722L262.11 99.3103L257.872 95.7026H252.785L248.546 97.5065Z" stroke="black"/>
    <path d="M27.2806 108.33L29.8239 112.839L33.2149 114.643L37.4537 113.741L40.8448 111.937L42.5403 107.428L41.6925 102.016L37.4537 98.4084H33.2149L29.8239 102.016L27.2806 108.33Z" stroke="black"/>
    <path d="M17.9552 96.6045L19.6507 101.114L23.0418 102.016L25.5851 100.212L27.2806 96.6045L24.7373 92.9968H20.4985L17.9552 96.6045Z" stroke="black"/>
    <path d="M33.2149 89.3891L34.0627 92.0949L38.3015 92.9968L41.6925 92.0949L42.5403 89.3891L41.6925 85.7814L38.3015 84.8795L34.0627 85.7814L33.2149 89.3891Z" stroke="black"/>
    <path d="M47.6268 94.8007L45.9313 98.4084L47.6268 102.016H51.8657L53.5612 100.212V96.6045L51.8657 94.8007H47.6268Z" stroke="black"/>
    <path d="M129.86 67.7428L131.555 70.4486L139.185 72.2525H145.967L151.902 70.4486L156.14 66.8409V62.3313L151.902 58.7235L145.967 56.9197H139.185L133.251 59.6255L129.86 64.1351V67.7428Z" fill="#565656" stroke="black"/>
    <path d="M216.331 32.5675L213.788 35.2733L220.57 42.4887L223.961 47.9003L227.352 52.41L229.048 49.7042L231.591 45.1945L233.287 39.783L231.591 34.3714L225.657 29.8617H220.57L216.331 32.5675Z" fill="#DD417C"/>
    <path d="M123.078 12.7251V19.0386L133.251 15.4309L145.119 12.7251V7.3135L143.424 3.70579L139.185 1H133.251L129.012 3.70579L125.621 7.3135L123.078 12.7251Z" fill="#DD417C"/>
    <path d="M216.331 32.5675L213.788 35.2733L220.57 42.4887L223.961 47.9003L227.352 52.41L229.048 49.7042L231.591 45.1945L233.287 39.783L231.591 34.3714L225.657 29.8617H220.57L216.331 32.5675Z" stroke="black"/>
    <path d="M123.078 12.7251V19.0386L133.251 15.4309L145.119 12.7251V7.3135L143.424 3.70579L139.185 1H133.251L129.012 3.70579L125.621 7.3135L123.078 12.7251Z" stroke="black"/>
    <path d="M81.5373 213.855L78.1463 226.482L81.5373 238.207L90.0149 247.227L108.666 253.54L127.316 257.148H150.206L168.857 253.54L187.507 247.227L202.767 238.207L210.397 230.09L216.331 221.973V213.855L213.788 206.64L202.767 194.013L187.507 187.699L172.248 184.994H150.206L129.86 187.699L108.666 194.013L90.0149 203.934L81.5373 213.855Z" fill="#C4C4C4" stroke="black"/>
    <path d="M180.725 101.114V111.035L186.66 121.859L192.594 125.466H204.463L211.245 120.055L215.484 111.035V101.114L211.245 91.1929L204.463 86.6833H192.594L184.964 91.1929L180.725 101.114Z" fill="#DD417C"/>
    <path d="M67.1254 80.3698L64.5821 91.1929L72.2119 101.114L83.2328 103.82L90.0149 101.114L94.2537 91.1929V80.3698L90.0149 71.3505L83.2328 66.8408L72.2119 71.3505L67.1254 80.3698Z" fill="#DD417C"/>
    <path d="M180.725 101.114V111.035L186.66 121.859L192.594 125.466H204.463L211.245 120.055L215.484 111.035V101.114L211.245 91.1929L204.463 86.6833H192.594L184.964 91.1929L180.725 101.114Z" stroke="black"/>
    <path d="M67.1254 80.3698L64.5821 91.1929L72.2119 101.114L83.2328 103.82L90.0149 101.114L94.2537 91.1929V80.3698L90.0149 71.3505L83.2328 66.8408L72.2119 71.3505L67.1254 80.3698Z" stroke="black"/>
</svg>
