<svg width="216" height="198" viewBox="0 0 216 198" fill="none" xmlns="http://www.w3.org/2000/svg">
    <g filter="url(#filter0_d)">
        <path d="M27 170.5L27.5 173L28.5 177L31.5 180.5L36 184L41.5 187L52 189H61.5H70.5L80.5 187L84.5 185.5L89.5 185H97H100H104L107 185.5L109.5 186.5L119.5 187H126.5L132.5 186.5L136 185.5L143 182.5L150.5 180L156.5 179H161H166L171 180L175 181.5H181.5L185 181L189 179.5L192 177L194.5 173L195.5 168V163L195 157L193.5 148.5L184.5 115L182.5 104V98.5V95V92.5L183.5 90L185 87.5L202 68L208 59.5L209.5 55.5L211 52V49V45.5L210 42.5L208 40L206 38L203 36.5L199.5 35.5H196L188.5 37L176 40H173L170.5 39L169 38L167.5 36.5L157.5 18.5L151 9L148.5 7L146 5L143.5 3.5L140.5 3L135 2H132L127.5 3L116.5 7.5L114 8.5H111L108 8L96.5 3.5L90 1.5L84.5 1L80 1.5L75.5 3L71.5 5L68.5 7.5L65.5 10.5L61 18.5L54.5 37.5L53 42L50 45L47 46.5L44 47L31 46.5H22.5L17.5 47L11 49L8 51L5.5 55L5 60L5.5 65L8 69.5L11 74L28.5 90.5L34 95.5L37 101L39 106.5V110.5L38 120L30 149L27.5 159.5L26.5 165L27 170.5Z" fill="#DD417C" stroke="black"/>
        <path d="M72 51L71 53.5V54.5L73.5 57.5L78.5 60.5L84.5 63L95 65L102 66.5L110 67H117L123 66.5L129.5 66L138 64.5L145 63L157.5 57.5L159.5 55.5L160.5 53.5L159.5 51L157.5 50L154 49L145.5 50L132.5 52L125.5 53.5H118H114.5H112H99.5L88 52.5L74.5 50.5L72 51Z" fill="#FFABCB" fill-opacity="0.64" stroke="black"/>
        <path d="M73 9V11.5L74 12.5L76 14L78.5 15H83.5L89 14.5L96 14L97.5 13.5L98.5 12.5L99.5 11L98.5 9L96.5 7L93.5 5.5L90.5 4.5L87.5 4H84L80.5 4.5L77.5 5.5L75 7L73 9Z" fill="white"/>
        <path d="M144.5 42L143 44L143.5 45.5L145.5 46H147.5L149 45.5L150 44L149 42.5L146.5 42H144.5Z" fill="white"/>
        <path d="M184.5 40L181 42.5L181.5 43.5L183 44H187H191L195 43.5L199.5 42L201.5 41L202.5 40V39L201.5 38L199.5 37.5H194.5L190.5 38L184.5 40Z" fill="white"/>
        <path d="M153 156.5L152 158.5L151 160L152 162L155 163L158 164H163.5H167L171 163.5H173.5H176.5H178.5L180.5 164.5L184.5 165H187.5L189.5 163.5L191.5 158.5V153.5L191 149.5L189.5 146L187.5 143.5L186 142.5L183.5 141.5L180.5 142.5L177 145L174.5 146.5L169.5 149.5L167 151.5L164 152.5L158 154L155.5 154.5L153 156.5Z" fill="white"/>
        <path d="M12 52.5L11.5 55V57L13 58L16 59H21H26L31 58L35 57.5L41.5 56L45.5 55.5H47.5L49 55L49.4056 53.5V52.5L48.5 51.5L47 51L42 50.5L30 50L20 49.5H17.5L13.5 50.5L12 52.5Z" fill="white"/>
        <path d="M73 9V11.5L74 12.5L76 14L78.5 15H83.5L89 14.5L96 14L97.5 13.5L98.5 12.5L99.5 11L98.5 9L96.5 7L93.5 5.5L90.5 4.5L87.5 4H84L80.5 4.5L77.5 5.5L75 7L73 9Z" stroke="#DD417C"/>
        <path d="M144.5 42L143 44L143.5 45.5L145.5 46H147.5L149 45.5L150 44L149 42.5L146.5 42H144.5Z" stroke="#DD417C"/>
        <path d="M184.5 40L181 42.5L181.5 43.5L183 44H187H191L195 43.5L199.5 42L201.5 41L202.5 40V39L201.5 38L199.5 37.5H194.5L190.5 38L184.5 40Z" stroke="#DD417C"/>
        <path d="M153 156.5L152 158.5L151 160L152 162L155 163L158 164H163.5H167L171 163.5H173.5H176.5H178.5L180.5 164.5L184.5 165H187.5L189.5 163.5L191.5 158.5V153.5L191 149.5L189.5 146L187.5 143.5L186 142.5L183.5 141.5L180.5 142.5L177 145L174.5 146.5L169.5 149.5L167 151.5L164 152.5L158 154L155.5 154.5L153 156.5Z" stroke="#DD417C"/>
        <path d="M12 52.5L11.5 55V57L13 58L16 59H21H26L31 58L35 57.5L41.5 56L45.5 55.5H47.5L49 55L49.4056 53.5V52.5L48.5 51.5L47 51L42 50.5L30 50L20 49.5H17.5L13.5 50.5L12 52.5Z" stroke="#DD417C"/>
    </g>
    <defs>
        <filter id="filter0_d" x="0.497498" y="0.497467" width="215.002" height="197.003" filterUnits="userSpaceOnUse" color-interpolation-filters="sRGB">
            <feFlood flood-opacity="0" result="BackgroundImageFix"/>
            <feColorMatrix in="SourceAlpha" type="matrix" values="0 0 0 0 0 0 0 0 0 0 0 0 0 0 0 0 0 0 127 0"/>
            <feOffset dy="4"/>
            <feGaussianBlur stdDeviation="2"/>
            <feColorMatrix type="matrix" values="0 0 0 0 0 0 0 0 0 0 0 0 0 0 0 0 0 0 0.25 0"/>
            <feBlend mode="normal" in2="BackgroundImageFix" result="effect1_dropShadow"/>
            <feBlend mode="normal" in="SourceGraphic" in2="effect1_dropShadow" result="shape"/>
        </filter>
    </defs>
</svg>
