<?xml version="1.0" standalone="no"?>
<!DOCTYPE svg PUBLIC "-//W3C//DTD SVG 20010904//EN"
 "http://www.w3.org/TR/2001/REC-SVG-20010904/DTD/svg10.dtd">
<svg version="1.0" xmlns="http://www.w3.org/2000/svg"
 width="1058.000000pt" height="708.000000pt" viewBox="0 0 1058.000000 708.000000"
 preserveAspectRatio="xMidYMid meet">
<metadata>
Created by potrace 1.15, written by Peter Selinger 2001-2017
</metadata>
<g transform="translate(0.000000,708.000000) scale(0.100000,-0.100000)"
fill="#000000" stroke="none">
<path d="M4013 6525 c-29 -8 -85 -31 -125 -51 -105 -53 -908 -535 -908 -545 0
-5 17 -9 39 -9 21 0 60 -3 86 -6 l47 -7 -53 -33 c-63 -39 -66 -37 112 -53
l116 -11 451 139 c248 76 467 148 486 160 99 61 111 195 26 285 -22 23 -51 56
-66 74 -49 61 -124 81 -211 57z"/>
<path d="M8095 6296 c-292 -48 -535 -183 -697 -385 -156 -195 -234 -426 -226
-672 l3 -107 -550 -4 c-302 -3 -551 -4 -552 -4 0 1 15 67 34 148 l35 148 465
2 465 3 68 273 67 272 -49 0 c-42 0 -49 2 -44 18 3 9 8 29 12 45 l6 27 -1291
0 -1290 0 -10 -37 c-6 -21 -37 -145 -69 -275 l-60 -238 50 0 c55 0 54 2 32
-72 -5 -17 21 -18 439 -18 l445 0 -42 -167 -42 -168 -105 -7 c-731 -53 -1433
-136 -2059 -244 -146 -25 -268 -48 -271 -50 -4 -2 7 50 23 116 l30 120 652 0
652 0 69 268 c37 147 70 273 73 280 3 8 -10 12 -46 12 l-51 0 10 32 c5 18 9
39 9 45 0 11 -198 13 -987 11 l-987 -3 -134 -535 -133 -535 -155 -48 c-482
-147 -754 -301 -805 -454 -60 -182 176 -380 593 -499 51 -14 97 -30 101 -34 4
-4 -71 -323 -168 -708 -96 -386 -175 -704 -175 -707 0 -3 20 -5 45 -5 49 0 51
-4 36 -58 l-10 -32 998 0 997 0 64 262 c34 145 65 269 68 276 3 8 -10 12 -46
12 l-51 0 10 32 c5 18 9 39 9 45 0 10 -126 13 -605 13 -401 0 -605 3 -605 10
0 6 41 175 92 376 l91 367 79 -7 79 -7 -3 33 -3 33 -67 3 c-38 2 -68 5 -68 8
0 3 5 25 11 50 l11 44 564 0 563 0 10 38 c6 20 35 138 66 262 31 124 58 233
61 243 5 15 -2 17 -45 17 l-50 0 10 32 c5 18 9 39 9 45 0 10 -108 13 -516 13
-486 0 -515 1 -510 18 3 9 28 110 56 223 l52 206 281 46 c561 92 1180 163
1852 212 116 8 231 17 256 19 l46 5 -13 -57 c-29 -119 -315 -1268 -321 -1286
-5 -18 0 -19 108 -13 266 15 655 51 665 61 6 6 84 306 173 667 l162 656 82 6
c107 9 868 9 985 1 l91 -7 17 -51 c23 -71 87 -199 131 -260 73 -103 255 -304
362 -400 115 -103 226 -215 251 -253 l15 -23 210 54 c189 48 454 124 464 132
6 6 -78 112 -185 235 -57 64 -173 181 -259 259 -140 128 -190 183 -223 245
-10 21 -9 21 71 13 401 -39 781 -110 989 -184 173 -62 288 -145 288 -207 0
-94 -238 -234 -625 -367 -669 -229 -1678 -417 -2888 -539 -159 -16 -290 -31
-292 -33 -6 -6 10 -167 18 -174 15 -15 864 78 1292 142 664 98 1314 234 1743
364 506 153 816 324 892 493 27 57 27 155 0 206 -66 130 -315 240 -724 320
-165 33 -453 73 -641 91 -198 18 -183 12 -191 77 -16 128 37 274 136 377 230
239 653 192 978 -109 34 -32 64 -56 66 -54 4 6 146 592 146 605 0 6 -18 21
-40 33 -32 18 -39 27 -35 42 7 22 -15 37 -150 104 -112 55 -276 110 -403 136
-127 26 -404 34 -517 15z m-6075 -1788 c-2 -20 -219 -871 -223 -874 -9 -10
-279 85 -372 130 -161 79 -266 172 -281 251 -18 97 123 216 391 330 147 63
486 177 485 163z"/>
<path d="M8570 3934 c-96 -30 -250 -73 -342 -96 l-168 -42 0 -66 c-1 -197 -96
-388 -241 -480 -122 -79 -307 -109 -486 -80 -205 33 -413 142 -586 308 -40 39
-71 62 -76 56 -9 -9 -164 -635 -159 -639 2 -1 20 -12 41 -24 25 -16 37 -30 37
-45 0 -19 19 -34 103 -80 251 -138 520 -211 822 -223 394 -15 717 92 957 316
244 228 374 577 339 910 -12 115 -40 233 -56 237 -5 1 -89 -22 -185 -52z"/>
<path d="M5510 3419 c-47 -4 -208 -17 -359 -29 -151 -11 -277 -22 -279 -25 -3
-3 -210 -816 -212 -832 0 -2 23 -3 51 -3 43 0 50 -2 45 -17 -3 -10 -8 -30 -12
-45 l-6 -28 333 0 334 0 119 483 c65 265 121 488 123 495 6 14 -6 14 -137 1z"/>
<path d="M420 995 l0 -355 203 0 203 0 17 35 c9 20 17 38 17 40 0 3 -76 5
-170 5 l-170 0 0 315 0 315 -50 0 -50 0 0 -355z"/>
<path d="M6390 995 l0 -355 45 0 45 0 0 355 0 355 -45 0 -45 0 0 -355z"/>
<path d="M6591 1268 c-18 -46 -35 -89 -38 -95 -4 -9 6 -13 30 -13 34 0 37 3
81 85 25 47 46 89 46 95 0 5 -20 10 -43 10 l-44 0 -32 -82z"/>
<path d="M7870 1241 l0 -110 -30 11 c-17 5 -64 8 -105 6 -96 -4 -146 -37 -190
-123 -27 -52 -30 -68 -30 -144 1 -95 14 -132 68 -189 35 -36 106 -62 171 -62
60 0 80 8 99 38 l16 27 1 -27 c0 -27 2 -28 50 -28 l50 0 0 355 0 355 -50 0
-50 0 0 -109z m-31 -182 l31 -11 0 -157 0 -158 -39 -11 c-83 -25 -146 -6 -195
61 -29 39 -29 145 -1 202 37 74 118 104 204 74z"/>
<path d="M2423 1307 l-83 -32 0 -37 c0 -24 5 -38 13 -38 6 1 48 16 92 33 78
32 80 34 83 70 4 45 2 45 -105 4z"/>
<path d="M9028 1248 c-25 -8 -28 -15 -28 -53 0 -34 -6 -50 -30 -75 -16 -18
-30 -36 -30 -41 0 -5 14 -9 30 -9 l30 0 0 -189 c0 -185 0 -189 24 -214 25 -27
81 -43 118 -33 20 5 68 61 68 78 0 3 -20 3 -44 1 -70 -8 -76 8 -76 199 l0 158
50 0 50 0 0 35 0 35 -50 0 -50 0 0 60 c0 65 -5 69 -62 48z"/>
<path d="M1015 1134 c-82 -42 -126 -116 -133 -220 -13 -200 121 -312 331 -278
31 6 42 14 64 51 28 48 26 61 -7 43 -11 -6 -51 -14 -88 -16 -57 -5 -74 -2
-112 18 -47 24 -90 88 -90 135 l0 23 170 0 170 0 -6 48 c-13 106 -43 161 -104
192 -49 25 -151 27 -195 4z m168 -94 c15 -17 27 -39 27 -50 0 -19 -7 -20 -110
-20 -60 0 -110 3 -110 8 0 21 45 75 73 88 44 19 87 10 120 -26z"/>
<path d="M1785 1131 c-114 -52 -169 -183 -132 -312 32 -107 132 -168 256 -156
42 5 59 12 73 29 l18 23 0 -35 c0 -53 -33 -116 -72 -136 -49 -27 -136 -22
-202 10 -29 14 -56 26 -60 26 -4 0 -6 -21 -4 -47 3 -47 4 -48 53 -67 34 -13
76 -19 130 -19 70 -1 87 3 134 28 64 35 97 81 111 154 5 30 10 151 10 271 l0
217 -51 16 c-72 24 -211 22 -264 -2z m207 -67 c4 -3 8 -72 8 -153 l0 -148 -39
-11 c-77 -24 -153 -6 -185 43 -28 42 -39 108 -26 154 14 52 62 108 104 121 29
9 120 5 138 -6z"/>
<path d="M2302 1129 c-80 -40 -122 -123 -122 -243 0 -158 100 -256 259 -256
80 0 113 15 139 62 12 22 21 43 19 44 -2 2 -25 -3 -52 -11 -68 -21 -124 -19
-175 8 -54 27 -80 61 -87 115 l-6 42 168 0 168 0 -5 65 c-11 128 -81 195 -204
195 -40 0 -73 -7 -102 -21z m141 -62 c38 -17 53 -33 62 -70 l7 -27 -111 0
c-61 0 -111 3 -111 8 0 21 45 75 73 87 40 18 41 18 80 2z"/>
<path d="M2840 1143 c-8 -3 -25 -17 -37 -31 l-23 -27 0 28 c0 26 -2 27 -50 27
l-50 0 0 -250 0 -250 50 0 50 0 0 200 0 200 36 15 c20 8 56 15 81 15 100 0
113 -31 113 -260 l0 -170 46 0 45 0 -3 214 c-3 213 -3 215 -28 242 -14 14 -39
33 -57 40 -31 13 -142 18 -173 7z"/>
<path d="M3520 1128 c-90 -46 -140 -157 -126 -276 18 -154 140 -239 311 -217
51 6 58 10 80 46 14 21 25 43 25 48 0 5 -21 3 -47 -5 -137 -41 -246 11 -267
129 l-7 37 172 0 172 0 -7 57 c-9 78 -37 135 -81 169 -32 24 -49 29 -109 32
-59 3 -79 -1 -116 -20z m145 -63 c30 -15 45 -35 59 -77 5 -16 -5 -18 -109 -18
-105 0 -114 1 -108 18 13 35 35 60 66 76 40 20 51 20 92 1z"/>
<path d="M4305 1125 c-24 -27 -25 -27 -25 -6 0 18 -6 21 -45 21 l-45 0 0 -355
0 -355 45 0 45 0 0 111 c0 102 1 111 18 104 42 -17 130 -17 180 -1 180 60 221
362 64 471 -39 26 -54 30 -127 34 -81 3 -85 2 -110 -24z m160 -74 c93 -53 96
-247 4 -314 -37 -27 -106 -33 -152 -13 l-38 15 3 158 3 158 45 12 c51 13 92 9
135 -16z"/>
<path d="M4824 1131 c-80 -36 -134 -135 -134 -246 0 -106 43 -189 121 -231 53
-29 172 -26 226 5 77 44 113 119 113 234 0 38 -5 87 -11 108 -15 50 -62 105
-110 129 -50 26 -149 27 -205 1z m166 -79 c40 -29 61 -83 61 -155 0 -78 -17
-124 -60 -160 -111 -93 -237 57 -191 225 12 42 53 96 84 109 28 11 75 3 106
-19z"/>
<path d="M5924 1140 c-12 -5 -29 -19 -38 -32 l-16 -22 0 27 c0 26 -2 27 -50
27 l-50 0 0 -250 0 -250 50 0 50 0 0 198 0 198 35 17 c40 19 82 22 120 7 26
-10 26 -10 23 38 l-3 47 -50 2 c-27 1 -60 -2 -71 -7z"/>
<path d="M7157 1142 c-10 -4 -26 -21 -37 -37 l-20 -30 0 33 c0 31 -1 32 -45
32 l-45 0 0 -250 0 -250 45 0 45 0 0 199 0 199 40 16 c47 19 128 21 151 3 34
-26 39 -54 39 -236 l0 -181 50 0 50 0 0 198 c0 173 -2 202 -19 232 -28 54 -82
80 -166 79 -38 0 -78 -4 -88 -7z"/>
<path d="M8674 1136 c-96 -42 -112 -185 -26 -240 20 -13 53 -29 73 -35 76 -24
103 -85 56 -129 -29 -28 -77 -28 -136 -2 -24 11 -45 20 -47 20 -2 0 -4 -20 -4
-45 l0 -44 57 -17 c141 -41 253 21 253 139 0 74 -22 102 -118 149 -91 45 -107
68 -78 113 28 43 81 42 169 -3 4 -2 7 17 7 41 0 42 -2 46 -31 56 -43 15 -137
13 -175 -3z"/>
<path d="M9404 1140 c-12 -5 -29 -19 -38 -32 l-16 -22 0 27 c0 26 -2 27 -50
27 l-50 0 0 -250 0 -250 50 0 50 0 0 198 0 199 40 18 c38 17 89 17 133 0 16
-7 18 -3 15 41 l-3 49 -55 2 c-30 1 -65 -2 -76 -7z"/>
<path d="M9882 1129 c-80 -40 -121 -118 -122 -233 0 -92 17 -142 65 -192 61
-64 179 -91 275 -64 26 7 41 20 58 52 12 22 21 43 19 44 -2 2 -25 -3 -52 -11
-115 -35 -215 -2 -251 82 -8 18 -14 44 -14 58 l0 25 165 0 165 0 0 43 c0 92
-47 174 -117 203 -50 21 -141 18 -191 -7z m141 -62 c38 -17 53 -33 62 -70 l7
-27 -111 0 c-122 0 -129 4 -89 55 19 24 68 53 91 55 4 0 22 -6 40 -13z"/>
<path d="M3220 890 l0 -250 45 0 45 0 0 250 0 250 -45 0 -45 0 0 -250z"/>
<path d="M5240 943 c0 -168 3 -203 18 -233 46 -92 238 -110 291 -27 l21 32 0
-37 0 -38 45 0 45 0 0 250 0 250 -45 0 -45 0 0 -196 0 -195 -37 -16 c-90 -37
-160 -25 -187 32 -13 26 -16 69 -16 204 l0 171 -45 0 -45 0 0 -197z"/>
<path d="M6800 890 l0 -250 45 0 45 0 0 250 0 250 -45 0 -45 0 0 -250z"/>
<path d="M8080 948 c0 -168 3 -198 19 -235 28 -60 66 -78 169 -78 83 0 84 0
113 35 l28 35 1 -32 c0 -32 1 -33 45 -33 l45 0 0 250 0 250 -45 0 -45 0 0
-195 0 -194 -32 -18 c-19 -10 -56 -17 -89 -17 -103 -1 -119 33 -119 267 l0
157 -45 0 -45 0 0 -192z"/>
<path d="M9580 890 l0 -250 50 0 50 0 0 250 0 250 -50 0 -50 0 0 -250z"/>
</g>
</svg>
