<svg width="332" height="24" viewBox="0 0 332 24" fill="none" xmlns="http://www.w3.org/2000/svg">
    <path d="M11.6865 18.296C11.7185 18.392 11.7505 18.48 11.7825 18.56C11.8145 18.64 11.8385 18.728 11.8545 18.824C11.8865 18.92 11.9025 19.008 11.9025 19.088C11.9025 19.2 11.8625 19.288 11.7825 19.352C11.7025 19.432 11.6065 19.496 11.4945 19.544C11.3985 19.592 11.3025 19.624 11.2065 19.64C11.1105 19.656 11.0545 19.664 11.0385 19.664C10.9425 19.664 10.7665 19.368 10.5105 18.776C10.2545 18.2 9.97447 17.384 9.67047 16.328C9.38247 15.272 9.08647 14.016 8.78247 12.56C8.47847 11.104 8.23047 9.504 8.03847 7.76C8.00647 8.128 7.94247 8.56 7.84647 9.056C7.76647 9.536 7.63847 9.992 7.46247 10.424C7.28647 10.856 7.05447 11.224 6.76647 11.528C6.49447 11.816 6.14247 11.96 5.71047 11.96C5.40647 11.96 5.06247 11.8 4.67847 11.48C4.29447 11.16 3.91847 10.784 3.55047 10.352C3.19847 9.904 2.87047 9.456 2.56647 9.008C2.27847 8.544 2.06247 8.168 1.91847 7.88C1.98247 8.584 2.08647 9.432 2.23047 10.424C2.39047 11.416 2.63047 12.464 2.95047 13.568C2.98247 13.68 3.01447 13.768 3.04647 13.832C3.09447 13.88 3.13447 13.936 3.16647 14C3.21447 14.064 3.24647 14.136 3.26247 14.216C3.29447 14.28 3.31047 14.384 3.31047 14.528C3.31047 14.736 3.23047 14.888 3.07047 14.984C2.91047 15.08 2.75847 15.128 2.61447 15.128C2.53447 15.128 2.43047 15.008 2.30247 14.768C2.17447 14.512 2.03847 14.184 1.89447 13.784C1.75047 13.384 1.60647 12.944 1.46247 12.464C1.31847 11.968 1.18247 11.48 1.05447 11C0.942469 10.52 0.846469 10.072 0.766469 9.656C0.686469 9.224 0.646469 8.88 0.646469 8.624C0.646469 8.208 0.662469 7.92 0.694469 7.76C0.742469 7.6 0.806469 7.48 0.886469 7.4V5.936C0.886469 5.712 0.942469 5.544 1.05447 5.432C1.18247 5.304 1.34247 5.24 1.53447 5.24C1.69447 5.24 1.87847 5.376 2.08647 5.648C2.29447 5.92 2.51847 6.264 2.75847 6.68C3.01447 7.096 3.27847 7.544 3.55047 8.024C3.82247 8.504 4.08647 8.952 4.34247 9.368C4.61447 9.784 4.87047 10.128 5.11047 10.4C5.36647 10.672 5.60647 10.808 5.83047 10.808C6.03847 10.808 6.23847 10.616 6.43047 10.232C6.62247 9.832 6.79847 9.312 6.95847 8.672C7.13447 8.032 7.28647 7.304 7.41447 6.488C7.54247 5.672 7.64647 4.84 7.72647 3.992C7.72647 3.896 7.71847 3.792 7.70247 3.68C7.68647 3.552 7.67847 3.416 7.67847 3.272C7.67847 3.08 7.71847 2.872 7.79847 2.648C7.89447 2.424 8.07047 2.312 8.32647 2.312C8.47047 2.312 8.58247 2.352 8.66247 2.432C8.75847 2.512 8.82247 2.616 8.85447 2.744C8.88647 2.856 8.90247 2.976 8.90247 3.104C8.91847 3.216 8.92647 3.312 8.92647 3.392C8.92647 3.52 8.91047 3.736 8.87847 4.04C8.86247 4.328 8.85447 4.776 8.85447 5.384C8.85447 5.912 8.89447 6.528 8.97447 7.232C9.05447 7.92 9.15847 8.656 9.28647 9.44C9.43047 10.208 9.59047 11.008 9.76647 11.84C9.95847 12.656 10.1585 13.456 10.3665 14.24C10.5905 15.024 10.8065 15.768 11.0145 16.472C11.2385 17.16 11.4625 17.768 11.6865 18.296ZM17.5112 5.768C17.3032 6.872 17.1112 7.936 16.9352 8.96C16.8552 9.392 16.7752 9.848 16.6952 10.328C16.6152 10.792 16.5352 11.256 16.4552 11.72C16.3912 12.168 16.3272 12.6 16.2632 13.016C16.2152 13.416 16.1752 13.784 16.1432 14.12C16.0792 14.632 16.0312 15.216 15.9992 15.872C15.9672 16.528 15.9352 17.152 15.9032 17.744C15.8712 18.432 15.8552 19.128 15.8552 19.832C15.8552 19.976 15.8392 20.136 15.8072 20.312C15.7752 20.488 15.7592 20.664 15.7592 20.84C15.7592 21 15.7192 21.136 15.6392 21.248C15.5752 21.36 15.4712 21.416 15.3272 21.416C15.1992 21.416 15.0952 21.312 15.0152 21.104C14.9512 20.912 14.8952 20.68 14.8472 20.408C14.7992 20.152 14.7672 19.888 14.7512 19.616C14.7352 19.36 14.7272 19.176 14.7272 19.064C14.7272 18.936 14.7272 18.776 14.7272 18.584C14.7272 18.408 14.7352 18.136 14.7512 17.768C14.7832 17.416 14.8232 16.952 14.8712 16.376C14.9192 15.784 14.9912 15.016 15.0872 14.072C15.0872 14.056 14.9752 13.976 14.7512 13.832C14.5432 13.688 14.2792 13.512 13.9592 13.304C13.6552 13.08 13.3352 12.84 12.9992 12.584C12.6792 12.328 12.4072 12.08 12.1832 11.84C12.1512 11.808 12.1032 11.736 12.0392 11.624C11.9752 11.512 11.9432 11.376 11.9432 11.216C11.9432 11.136 11.9832 11.056 12.0632 10.976C12.1432 10.88 12.2312 10.832 12.3272 10.832C12.3912 10.832 12.4552 10.864 12.5192 10.928C12.8872 11.248 13.3112 11.608 13.7912 12.008C14.2712 12.392 14.7432 12.744 15.2072 13.064C15.2392 12.776 15.3032 12.336 15.3992 11.744C15.5112 11.152 15.6232 10.52 15.7352 9.848C15.8472 9.16 15.9512 8.496 16.0472 7.856C16.1592 7.216 16.2392 6.704 16.2872 6.32C16.2872 6.256 16.3032 6.152 16.3352 6.008C16.3672 5.864 16.4152 5.72 16.4792 5.576C16.5432 5.432 16.6152 5.312 16.6952 5.216C16.7752 5.104 16.8632 5.048 16.9592 5.048C17.0072 5.048 17.1112 5.096 17.2712 5.192C17.4312 5.272 17.5112 5.464 17.5112 5.768ZM38.7821 11.384C38.7821 11.704 38.7581 12.008 38.7101 12.296C38.6781 12.584 38.5901 12.88 38.4461 13.184C38.3181 13.472 38.1341 13.784 37.8941 14.12C37.6541 14.456 37.3421 14.84 36.9581 15.272C36.4941 15.784 35.9501 16.24 35.3261 16.64C34.7021 17.04 34.0061 17.24 33.2381 17.24C32.7581 17.24 32.2781 17.16 31.7981 17C31.3341 16.84 30.9181 16.6 30.5501 16.28C30.1981 15.96 29.9101 15.56 29.6861 15.08C29.4621 14.6 29.3501 14.04 29.3501 13.4C29.3501 12.376 29.5421 11.304 29.9261 10.184C30.3101 9.048 30.8461 7.832 31.5341 6.536C31.9821 5.688 32.3981 4.944 32.7821 4.304C33.1661 3.648 33.5421 3.104 33.9101 2.672C34.2781 2.224 34.6461 1.888 35.0141 1.664C35.3821 1.44 35.7741 1.328 36.1901 1.328C36.5101 1.328 36.7821 1.392 37.0061 1.52C37.2461 1.632 37.3661 1.864 37.3661 2.216C37.3661 2.328 37.3421 2.432 37.2941 2.528C37.2461 2.608 37.1741 2.648 37.0781 2.648C36.9501 2.648 36.8541 2.616 36.7901 2.552C36.7421 2.472 36.5901 2.432 36.3341 2.432C35.9021 2.432 35.4781 2.632 35.0621 3.032C34.6461 3.432 34.2541 3.896 33.8861 4.424C33.5341 4.936 33.2221 5.448 32.9501 5.96C32.6941 6.472 32.5101 6.848 32.3981 7.088C32.2061 7.488 31.9901 7.96 31.7501 8.504C31.5261 9.048 31.3101 9.608 31.1021 10.184C30.8941 10.76 30.7181 11.32 30.5741 11.864C30.4301 12.392 30.3581 12.832 30.3581 13.184C30.3581 13.632 30.4301 14.032 30.5741 14.384C30.7341 14.72 30.9421 15.008 31.1981 15.248C31.4541 15.488 31.7501 15.672 32.0861 15.8C32.4381 15.912 32.8061 15.968 33.1901 15.968C33.7181 15.968 34.2541 15.84 34.7981 15.584C35.3581 15.328 35.8541 14.992 36.2861 14.576C36.7341 14.16 37.0941 13.68 37.3661 13.136C37.6541 12.592 37.7981 12.04 37.7981 11.48C37.7981 10.92 37.6541 10.456 37.3661 10.088C37.0781 9.72 36.7581 9.536 36.4061 9.536C36.1821 9.536 36.0221 9.576 35.9261 9.656C35.8461 9.72 35.7661 9.808 35.6861 9.92C35.5741 10.096 35.4701 10.24 35.3741 10.352C35.2781 10.464 35.1101 10.56 34.8701 10.64C34.4861 10.768 34.1821 10.864 33.9581 10.928C33.7501 10.976 33.5981 11.016 33.5021 11.048L33.3101 11.096C33.2141 11.096 33.0781 11.032 32.9021 10.904C32.7421 10.76 32.6621 10.648 32.6621 10.568C32.6621 10.28 32.8301 10.008 33.1661 9.752C33.5181 9.48 33.9101 9.24 34.3421 9.032C34.7741 8.808 35.1901 8.632 35.5901 8.504C35.9901 8.376 36.2381 8.312 36.3341 8.312C36.8141 8.312 37.2061 8.408 37.5101 8.6C37.8301 8.792 38.0781 9.04 38.2541 9.344C38.4461 9.648 38.5821 9.984 38.6621 10.352C38.7421 10.704 38.7821 11.048 38.7821 11.384ZM44.7755 11.816C44.7755 12.168 44.7275 12.504 44.6315 12.824C44.5355 13.144 44.4075 13.424 44.2475 13.664C44.0875 13.904 43.8955 14.096 43.6715 14.24C43.4635 14.368 43.2315 14.432 42.9755 14.432C42.5275 14.432 42.1755 14.304 41.9195 14.048C41.6635 13.792 41.4635 13.496 41.3195 13.16C41.1915 12.824 41.1035 12.488 41.0555 12.152C41.0235 11.8 41.0075 11.536 41.0075 11.36C41.0075 11.072 41.0475 10.752 41.1275 10.4C41.2235 10.032 41.3435 9.696 41.4875 9.392C41.6475 9.088 41.8235 8.832 42.0155 8.624C42.2075 8.416 42.4075 8.312 42.6155 8.312C42.6635 8.312 42.7355 8.328 42.8315 8.36C42.9435 8.392 43.0555 8.44 43.1675 8.504C43.2795 8.568 43.3755 8.648 43.4555 8.744C43.5515 8.84 43.6155 8.952 43.6475 9.08C43.8235 9.096 43.9995 9.16 44.1755 9.272C44.3515 9.384 44.4475 9.472 44.4635 9.536C44.5915 9.952 44.6715 10.368 44.7035 10.784C44.7515 11.2 44.7755 11.544 44.7755 11.816ZM43.6955 11.384C43.6955 11.144 43.6715 10.896 43.6235 10.64C43.5755 10.368 43.4795 10.096 43.3355 9.824C43.3035 9.84 43.2635 9.848 43.2155 9.848C43.1515 9.848 43.0955 9.84 43.0475 9.824C43.0155 9.808 42.9835 9.8 42.9515 9.8C42.7595 9.8 42.6075 9.856 42.4955 9.968C42.3835 10.064 42.2955 10.2 42.2315 10.376C42.1835 10.536 42.1515 10.712 42.1355 10.904C42.1195 11.096 42.1115 11.28 42.1115 11.456C42.1115 11.632 42.1195 11.832 42.1355 12.056C42.1515 12.264 42.1835 12.464 42.2315 12.656C42.2955 12.848 42.3755 13.016 42.4715 13.16C42.5675 13.288 42.6955 13.352 42.8555 13.352C43.0155 13.352 43.1515 13.272 43.2635 13.112C43.3755 12.936 43.4635 12.736 43.5275 12.512C43.5915 12.288 43.6315 12.072 43.6475 11.864C43.6795 11.64 43.6955 11.48 43.6955 11.384ZM52.6061 13.832C52.6061 14.104 52.5101 14.344 52.3181 14.552C52.1421 14.744 51.9101 14.912 51.6221 15.056C51.3501 15.184 51.0461 15.288 50.7101 15.368C50.3741 15.448 50.0541 15.512 49.7501 15.56C49.4461 15.592 49.1741 15.616 48.9341 15.632C48.7101 15.632 48.5661 15.632 48.5021 15.632C48.1501 15.632 47.8781 15.576 47.6861 15.464C47.4941 15.352 47.3981 15.152 47.3981 14.864C47.3981 14.768 47.4061 14.688 47.4221 14.624C47.4381 14.544 47.5021 14.504 47.6141 14.504C47.6621 14.504 47.7421 14.52 47.8541 14.552C47.9661 14.568 48.0541 14.576 48.1181 14.576C48.1821 14.576 48.3821 14.568 48.7181 14.552C49.0701 14.52 49.4381 14.472 49.8221 14.408C50.2221 14.344 50.5741 14.256 50.8781 14.144C51.1981 14.016 51.3581 13.856 51.3581 13.664C51.3581 13.632 51.1901 13.536 50.8541 13.376C50.5341 13.2 50.0461 12.912 49.3901 12.512C48.8781 12.192 48.5181 11.872 48.3101 11.552C48.1021 11.216 47.9981 10.768 47.9981 10.208C47.9981 9.856 48.0701 9.568 48.2141 9.344C48.3741 9.12 48.5821 8.944 48.8381 8.816C49.1101 8.688 49.4141 8.6 49.7501 8.552C50.1021 8.488 50.4701 8.456 50.8541 8.456C50.8861 8.456 50.9821 8.472 51.1421 8.504C51.3181 8.536 51.5021 8.592 51.6941 8.672C51.8861 8.736 52.0541 8.824 52.1981 8.936C52.3581 9.032 52.4381 9.144 52.4381 9.272C52.4381 9.304 52.4061 9.352 52.3421 9.416C52.2941 9.48 52.2061 9.6 52.0781 9.776C52.0301 9.76 51.9421 9.736 51.8141 9.704C51.7021 9.672 51.5661 9.64 51.4061 9.608C51.2621 9.56 51.1101 9.528 50.9501 9.512C50.7901 9.48 50.6621 9.464 50.5661 9.464C50.1501 9.464 49.8141 9.544 49.5581 9.704C49.3021 9.848 49.1741 10.136 49.1741 10.568C49.1741 10.776 49.2541 10.968 49.4141 11.144C49.5901 11.32 49.8061 11.488 50.0621 11.648C50.3181 11.792 50.5901 11.944 50.8781 12.104C51.1821 12.248 51.4621 12.408 51.7181 12.584C51.9741 12.76 52.1821 12.952 52.3421 13.16C52.5181 13.352 52.6061 13.576 52.6061 13.832ZM62.3392 12.56C62.4192 12.64 62.4592 12.688 62.4592 12.704C62.4592 12.736 62.4112 12.832 62.3152 12.992C62.2352 13.152 62.1232 13.32 61.9792 13.496C61.8352 13.672 61.6752 13.832 61.4992 13.976C61.3392 14.104 61.1792 14.168 61.0192 14.168C60.6832 14.168 60.4112 14.104 60.2032 13.976C59.9952 13.832 59.8192 13.656 59.6752 13.448C59.5472 13.24 59.4432 13.016 59.3632 12.776C59.2992 12.52 59.2432 12.28 59.1952 12.056C59.1632 11.944 59.1312 11.888 59.0992 11.888C59.0512 11.888 58.9552 12.064 58.8112 12.416C58.6672 12.752 58.5072 13.128 58.3312 13.544C58.1712 13.944 58.0112 14.32 57.8512 14.672C57.7072 15.008 57.6112 15.176 57.5632 15.176C57.2752 15.176 57.0272 15.056 56.8192 14.816C56.6272 14.56 56.4672 14.272 56.3392 13.952C56.2272 13.616 56.1392 13.28 56.0752 12.944C56.0112 12.592 55.9712 12.32 55.9552 12.128C55.9072 11.696 55.8032 10.976 55.6432 9.968C55.4832 8.96 55.3472 7.736 55.2352 6.296C55.2032 5.992 55.1632 5.72 55.1152 5.48C55.0832 5.224 55.0432 4.944 54.9952 4.64C54.9472 4.336 54.9072 3.992 54.8752 3.608C54.8432 3.224 54.8272 2.752 54.8272 2.192C54.8272 2.16 54.8352 2.056 54.8512 1.88C54.8672 1.704 54.8912 1.512 54.9232 1.304C54.9552 1.096 55.0032 0.911999 55.0672 0.751999C55.1472 0.591999 55.2352 0.511999 55.3312 0.511999C55.4432 0.511999 55.5472 0.583999 55.6432 0.727999C55.7392 0.855999 55.8192 1.008 55.8832 1.184C55.9632 1.36 56.0192 1.528 56.0512 1.688C56.0832 1.848 56.0992 1.96 56.0992 2.024C56.0992 2.264 56.0832 2.488 56.0512 2.696C56.0192 2.904 56.0032 3.096 56.0032 3.272C56.0032 3.512 56.0192 3.816 56.0512 4.184C56.0992 4.552 56.1552 4.928 56.2192 5.312C56.2832 5.696 56.3392 6.072 56.3872 6.44C56.4352 6.792 56.4752 7.08 56.5072 7.304C56.5072 7.32 56.5232 7.432 56.5552 7.64C56.5872 7.848 56.6192 8.112 56.6512 8.432C56.6992 8.736 56.7392 9.072 56.7712 9.44C56.8192 9.792 56.8672 10.144 56.9152 10.496C56.9632 10.832 57.0032 11.136 57.0352 11.408C57.0832 11.664 57.1152 11.848 57.1312 11.96C57.1312 12.008 57.1392 12.08 57.1552 12.176C57.1872 12.256 57.2112 12.352 57.2272 12.464C57.2592 12.576 57.2912 12.68 57.3232 12.776C57.3552 12.872 57.3952 12.944 57.4432 12.992C57.5392 12.8 57.6592 12.504 57.8032 12.104C57.9632 11.704 58.1232 11.296 58.2832 10.88C58.4592 10.464 58.6192 10.104 58.7632 9.8C58.9232 9.48 59.0592 9.32 59.1712 9.32C59.2992 9.32 59.4032 9.344 59.4832 9.392C59.5632 9.44 59.6672 9.48 59.7952 9.512C59.9552 9.576 60.0352 9.664 60.0352 9.776C60.0352 9.872 60.0512 9.992 60.0832 10.136C60.1152 10.328 60.1632 10.584 60.2272 10.904C60.3072 11.208 60.3952 11.512 60.4912 11.816C60.5872 12.104 60.6992 12.352 60.8272 12.56C60.9552 12.768 61.0832 12.872 61.2112 12.872C61.2752 12.872 61.3632 12.792 61.4752 12.632C61.5872 12.456 61.7392 12.36 61.9312 12.344C61.9632 12.344 62.0192 12.368 62.0992 12.416C62.1792 12.448 62.2592 12.496 62.3392 12.56ZM65.4062 15.464C65.4062 15.56 65.3582 15.656 65.2622 15.752C65.1662 15.832 65.0542 15.912 64.9262 15.992C64.8142 16.056 64.7022 16.112 64.5902 16.16C64.4782 16.192 64.4142 16.208 64.3982 16.208C64.2542 16.208 64.1422 16.176 64.0622 16.112C63.9982 16.032 63.9422 15.952 63.8942 15.872C63.8622 15.776 63.8382 15.688 63.8222 15.608C63.8222 15.528 63.8222 15.472 63.8222 15.44C63.8222 15.376 63.8382 15.296 63.8702 15.2C63.9022 15.088 63.9502 14.984 64.0142 14.888C64.0782 14.792 64.1502 14.712 64.2302 14.648C64.3262 14.568 64.4302 14.528 64.5422 14.528C64.7502 14.528 64.9422 14.616 65.1182 14.792C65.3102 14.968 65.4062 15.192 65.4062 15.464ZM68.7343 15.464C68.7343 15.56 68.6863 15.656 68.5903 15.752C68.4943 15.832 68.3823 15.912 68.2543 15.992C68.1423 16.056 68.0303 16.112 67.9183 16.16C67.8063 16.192 67.7423 16.208 67.7263 16.208C67.5823 16.208 67.4703 16.176 67.3903 16.112C67.3263 16.032 67.2703 15.952 67.2223 15.872C67.1903 15.776 67.1663 15.688 67.1503 15.608C67.1503 15.528 67.1503 15.472 67.1503 15.44C67.1503 15.376 67.1663 15.296 67.1983 15.2C67.2303 15.088 67.2783 14.984 67.3423 14.888C67.4063 14.792 67.4783 14.712 67.5583 14.648C67.6543 14.568 67.7583 14.528 67.8703 14.528C68.0783 14.528 68.2703 14.616 68.4463 14.792C68.6383 14.968 68.7343 15.192 68.7343 15.464ZM72.0624 15.464C72.0624 15.56 72.0144 15.656 71.9184 15.752C71.8224 15.832 71.7104 15.912 71.5824 15.992C71.4704 16.056 71.3584 16.112 71.2464 16.16C71.1344 16.192 71.0704 16.208 71.0544 16.208C70.9104 16.208 70.7984 16.176 70.7184 16.112C70.6544 16.032 70.5984 15.952 70.5504 15.872C70.5184 15.776 70.4944 15.688 70.4784 15.608C70.4784 15.528 70.4784 15.472 70.4784 15.44C70.4784 15.376 70.4944 15.296 70.5264 15.2C70.5584 15.088 70.6064 14.984 70.6704 14.888C70.7344 14.792 70.8064 14.712 70.8864 14.648C70.9824 14.568 71.0864 14.528 71.1984 14.528C71.4064 14.528 71.5984 14.616 71.7744 14.792C71.9664 14.968 72.0624 15.192 72.0624 15.464ZM95.12 13.568C95.12 13.872 94.936 14.096 94.568 14.24C94.2 14.384 93.768 14.536 93.272 14.696C92.792 14.84 92.328 14.976 91.88 15.104C91.432 15.216 91.032 15.328 90.68 15.44C90.344 15.536 90.136 15.608 90.056 15.656C90.056 15.688 90.056 15.728 90.056 15.776C90.056 15.824 90.064 15.872 90.08 15.92L90.152 16.496C90.152 16.64 90.128 16.752 90.08 16.832C90.048 16.912 89.968 16.952 89.84 16.952C89.696 16.952 89.592 16.912 89.528 16.832C89.48 16.736 89.432 16.632 89.384 16.52C89.352 16.392 89.32 16.264 89.288 16.136C89.272 16.008 89.232 15.912 89.168 15.848C89.136 15.848 89.008 15.88 88.784 15.944C88.56 16.008 88.272 16.088 87.92 16.184C87.584 16.28 87.2 16.392 86.768 16.52C86.352 16.632 85.944 16.736 85.544 16.832C85.144 16.928 84.768 17.008 84.416 17.072C84.064 17.136 83.792 17.168 83.6 17.168C83.168 17.168 82.952 17.032 82.952 16.76C82.952 16.552 83.008 16.4 83.12 16.304C83.248 16.208 83.392 16.136 83.552 16.088C83.584 16.072 83.736 16.032 84.008 15.968C84.296 15.904 84.64 15.832 85.04 15.752C85.44 15.656 85.864 15.552 86.312 15.44C86.776 15.328 87.2 15.224 87.584 15.128C87.984 15.032 88.304 14.944 88.544 14.864C88.8 14.784 88.928 14.728 88.928 14.696C88.928 14.6 88.888 14.424 88.808 14.168C88.744 13.912 88.68 13.672 88.616 13.448L88.472 12.968C88.248 11.944 88.072 10.912 87.944 9.872C87.816 8.832 87.712 7.808 87.632 6.8C87.6 6.768 87.56 6.752 87.512 6.752C87.432 6.752 87.224 6.832 86.888 6.992C86.552 7.152 86.192 7.328 85.808 7.52C85.424 7.696 85.064 7.864 84.728 8.024C84.408 8.184 84.216 8.264 84.152 8.264C84.04 8.264 83.928 8.216 83.816 8.12C83.72 8.024 83.672 7.928 83.672 7.832C83.672 7.704 83.776 7.56 83.984 7.4C84.192 7.224 84.448 7.048 84.752 6.872C85.072 6.68 85.416 6.504 85.784 6.344C86.168 6.168 86.528 6.016 86.864 5.888C87.216 5.744 87.512 5.632 87.752 5.552C88.008 5.472 88.176 5.432 88.256 5.432C88.384 5.432 88.552 5.408 88.76 5.36C88.968 5.312 89.192 5.256 89.432 5.192C89.672 5.128 89.912 5.072 90.152 5.024C90.408 4.976 90.632 4.952 90.824 4.952C91.032 4.952 91.136 5.024 91.136 5.168C91.136 5.248 91.104 5.312 91.04 5.36L90.344 5.552C90.168 5.6 89.976 5.656 89.768 5.72C89.576 5.768 89.392 5.832 89.216 5.912C89.056 5.976 88.92 6.056 88.808 6.152C88.712 6.232 88.664 6.32 88.664 6.416C88.664 6.816 88.704 7.344 88.784 8C88.88 8.64 88.984 9.336 89.096 10.088C89.224 10.824 89.36 11.576 89.504 12.344C89.648 13.112 89.768 13.832 89.864 14.504L94.16 13.4C94.256 13.384 94.352 13.36 94.448 13.328C94.528 13.296 94.608 13.272 94.688 13.256C94.768 13.24 94.84 13.232 94.904 13.232C95.048 13.232 95.12 13.344 95.12 13.568ZM102.597 6.152C102.389 6.392 102.093 6.632 101.709 6.872C101.325 7.096 100.941 7.304 100.557 7.496C100.173 7.688 99.8373 7.856 99.5493 8C99.2613 8.128 99.1173 8.216 99.1173 8.264C99.1173 8.312 99.1493 8.456 99.2133 8.696C99.2773 8.936 99.3493 9.224 99.4293 9.56C99.5253 9.88 99.6213 10.216 99.7173 10.568C99.8133 10.92 99.8933 11.232 99.9573 11.504C99.9893 11.664 100.029 11.872 100.077 12.128C100.125 12.384 100.165 12.64 100.197 12.896C100.245 13.152 100.285 13.384 100.317 13.592C100.349 13.784 100.365 13.888 100.365 13.904C100.365 14.144 100.325 14.392 100.245 14.648C100.165 14.904 100.037 15.032 99.8613 15.032C99.7653 15.032 99.6773 14.992 99.5973 14.912C99.5173 14.832 99.4453 14.744 99.3813 14.648C99.3173 14.536 99.2693 14.432 99.2373 14.336C99.2053 14.24 99.1893 14.168 99.1893 14.12C99.1893 14.088 99.1893 14.04 99.1893 13.976C99.2053 13.912 99.2133 13.84 99.2133 13.76C99.2133 13.456 99.1653 13.016 99.0693 12.44C99.0373 12.264 98.9733 11.992 98.8773 11.624C98.7813 11.256 98.6853 10.88 98.5893 10.496C98.4773 10.048 98.3493 9.56 98.2053 9.032C98.1413 8.808 98.1013 8.696 98.0853 8.696C97.9733 8.696 97.7813 8.768 97.5093 8.912C97.2533 9.04 96.9573 9.208 96.6213 9.416C96.2853 9.608 95.9333 9.824 95.5653 10.064C95.1973 10.288 94.8533 10.504 94.5333 10.712C94.2133 10.904 93.9413 11.072 93.7173 11.216C93.4773 11.344 93.3333 11.408 93.2853 11.408C93.0773 11.408 92.9093 11.336 92.7813 11.192C92.6533 11.048 92.5893 10.888 92.5893 10.712C92.5893 10.616 92.7253 10.48 92.9973 10.304C93.2533 10.112 93.5813 9.904 93.9813 9.68C94.3653 9.456 94.7893 9.224 95.2533 8.984C95.7013 8.744 96.1173 8.528 96.5013 8.336C96.9013 8.144 97.2293 7.984 97.4853 7.856C97.7573 7.728 97.8933 7.664 97.8933 7.664C97.7493 6.928 97.6293 6.272 97.5333 5.696C97.4533 5.2 97.3733 4.744 97.2933 4.328C97.2293 3.912 97.1973 3.688 97.1973 3.656C97.1973 3.448 97.2373 3.296 97.3173 3.2C97.4133 3.088 97.5173 3.032 97.6293 3.032C97.8053 3.032 97.9173 3.152 97.9653 3.392C98.1413 4.256 98.3013 5.024 98.4453 5.696C98.6053 6.368 98.7573 6.912 98.9013 7.328C99.0453 7.296 99.2933 7.208 99.6453 7.064C99.9973 6.904 100.365 6.736 100.749 6.56C101.133 6.384 101.477 6.232 101.781 6.104C102.101 5.96 102.285 5.888 102.333 5.888C102.429 5.888 102.485 5.92 102.501 5.984C102.533 6.048 102.565 6.104 102.597 6.152ZM105.749 9.8C105.749 10.088 105.685 10.352 105.557 10.592C105.445 10.832 105.309 11.04 105.149 11.216C104.989 11.376 104.837 11.504 104.693 11.6C104.549 11.696 104.445 11.744 104.381 11.744C104.333 11.744 104.269 11.712 104.189 11.648C104.125 11.568 104.093 11.48 104.093 11.384C104.093 11.368 104.125 11.312 104.189 11.216C104.253 11.12 104.325 11.008 104.405 10.88C104.501 10.736 104.581 10.576 104.645 10.4C104.709 10.208 104.741 10.008 104.741 9.8C104.741 9.384 104.701 9.016 104.621 8.696C104.541 8.36 104.437 8.032 104.309 7.712C104.293 7.664 104.269 7.608 104.237 7.544C104.221 7.48 104.213 7.432 104.213 7.4C104.213 7.288 104.245 7.216 104.309 7.184C104.389 7.152 104.469 7.136 104.549 7.136C104.661 7.136 104.789 7.24 104.933 7.448C105.077 7.64 105.205 7.872 105.317 8.144C105.445 8.416 105.549 8.712 105.629 9.032C105.709 9.336 105.749 9.592 105.749 9.8ZM112.981 13.832C112.981 14.104 112.885 14.344 112.693 14.552C112.517 14.744 112.285 14.912 111.997 15.056C111.725 15.184 111.421 15.288 111.085 15.368C110.749 15.448 110.429 15.512 110.125 15.56C109.821 15.592 109.549 15.616 109.309 15.632C109.085 15.632 108.941 15.632 108.877 15.632C108.525 15.632 108.253 15.576 108.061 15.464C107.869 15.352 107.773 15.152 107.773 14.864C107.773 14.768 107.781 14.688 107.797 14.624C107.813 14.544 107.877 14.504 107.989 14.504C108.037 14.504 108.117 14.52 108.229 14.552C108.341 14.568 108.429 14.576 108.493 14.576C108.557 14.576 108.757 14.568 109.093 14.552C109.445 14.52 109.813 14.472 110.197 14.408C110.597 14.344 110.949 14.256 111.253 14.144C111.573 14.016 111.733 13.856 111.733 13.664C111.733 13.632 111.565 13.536 111.229 13.376C110.909 13.2 110.421 12.912 109.765 12.512C109.253 12.192 108.893 11.872 108.685 11.552C108.477 11.216 108.373 10.768 108.373 10.208C108.373 9.856 108.445 9.568 108.589 9.344C108.749 9.12 108.957 8.944 109.213 8.816C109.485 8.688 109.789 8.6 110.125 8.552C110.477 8.488 110.845 8.456 111.229 8.456C111.261 8.456 111.357 8.472 111.517 8.504C111.693 8.536 111.877 8.592 112.069 8.672C112.261 8.736 112.429 8.824 112.573 8.936C112.733 9.032 112.813 9.144 112.813 9.272C112.813 9.304 112.781 9.352 112.717 9.416C112.669 9.48 112.581 9.6 112.453 9.776C112.405 9.76 112.317 9.736 112.189 9.704C112.077 9.672 111.941 9.64 111.781 9.608C111.637 9.56 111.485 9.528 111.325 9.512C111.165 9.48 111.037 9.464 110.941 9.464C110.525 9.464 110.189 9.544 109.933 9.704C109.677 9.848 109.549 10.136 109.549 10.568C109.549 10.776 109.629 10.968 109.789 11.144C109.965 11.32 110.181 11.488 110.437 11.648C110.693 11.792 110.965 11.944 111.253 12.104C111.557 12.248 111.837 12.408 112.093 12.584C112.349 12.76 112.557 12.952 112.717 13.16C112.893 13.352 112.981 13.576 112.981 13.832ZM128.164 16.304C128.164 16.432 128.116 16.528 128.02 16.592C127.924 16.656 127.812 16.688 127.684 16.688C127.54 16.688 127.388 16.552 127.228 16.28C127.084 16.008 126.94 15.664 126.796 15.248C126.652 14.832 126.516 14.384 126.388 13.904C126.26 13.408 126.148 12.952 126.052 12.536C125.956 12.104 125.876 11.744 125.812 11.456C125.764 11.168 125.74 11.008 125.74 10.976C125.74 10.912 125.708 10.744 125.644 10.472C125.596 10.2 125.524 9.776 125.428 9.2C125.348 8.624 125.252 7.88 125.14 6.968C125.044 6.04 124.94 4.896 124.828 3.536C124.828 3.392 124.852 3.208 124.9 2.984C124.948 2.76 125.06 2.648 125.236 2.648C125.46 2.648 125.628 2.8 125.74 3.104C125.868 3.408 125.964 3.784 126.028 4.232C126.108 4.68 126.164 5.152 126.196 5.648C126.228 6.128 126.268 6.552 126.316 6.92C126.38 7.432 126.436 7.896 126.484 8.312C126.548 8.728 126.604 9.144 126.652 9.56C126.716 9.96 126.788 10.384 126.868 10.832C126.964 11.28 127.076 11.776 127.204 12.32L128.164 16.304ZM131.45 5.96C131.45 5.992 131.394 6.056 131.282 6.152C131.17 6.248 131.034 6.352 130.874 6.464C130.73 6.56 130.578 6.648 130.418 6.728C130.258 6.808 130.13 6.848 130.034 6.848C129.97 6.848 129.882 6.848 129.77 6.848C129.674 6.832 129.57 6.8 129.458 6.752C129.362 6.704 129.274 6.64 129.194 6.56C129.114 6.464 129.074 6.344 129.074 6.2C129.074 5.976 129.154 5.768 129.314 5.576C129.474 5.368 129.682 5.264 129.938 5.264C129.986 5.264 130.09 5.288 130.25 5.336C130.426 5.368 130.602 5.416 130.778 5.48C130.954 5.544 131.106 5.616 131.234 5.696C131.378 5.776 131.45 5.864 131.45 5.96ZM132.242 14.936C132.242 15.048 132.154 15.144 131.978 15.224C131.818 15.304 131.698 15.344 131.618 15.344C131.458 15.344 131.314 15.24 131.186 15.032C131.058 14.824 130.946 14.584 130.85 14.312C130.754 14.04 130.674 13.784 130.61 13.544C130.546 13.288 130.498 13.112 130.466 13.016C130.418 12.856 130.354 12.664 130.274 12.44C130.194 12.216 130.114 12 130.034 11.792C129.97 11.584 129.914 11.4 129.866 11.24C129.818 11.08 129.794 10.992 129.794 10.976C129.794 10.752 129.834 10.544 129.914 10.352C130.01 10.16 130.122 10.064 130.25 10.064C130.394 10.064 130.546 10.176 130.706 10.4C130.866 10.624 131.018 10.912 131.162 11.264C131.322 11.6 131.466 11.976 131.594 12.392C131.722 12.792 131.834 13.176 131.93 13.544C132.026 13.896 132.098 14.208 132.146 14.48C132.21 14.736 132.242 14.888 132.242 14.936ZM142.281 14.432C142.281 14.56 142.265 14.656 142.233 14.72C142.201 14.768 142.121 14.808 141.993 14.84C141.849 14.888 141.665 14.944 141.441 15.008C141.233 15.056 141.001 15.112 140.745 15.176C140.489 15.224 140.225 15.272 139.953 15.32C139.697 15.352 139.457 15.368 139.233 15.368C138.961 15.368 138.657 15.352 138.321 15.32C138.001 15.288 137.689 15.24 137.385 15.176C137.081 15.096 136.801 15.016 136.545 14.936C136.305 14.84 136.129 14.728 136.017 14.6C136.097 14.936 136.169 15.272 136.233 15.608C136.297 15.944 136.345 16.28 136.377 16.616C136.377 16.696 136.353 16.768 136.305 16.832C136.273 16.88 136.169 16.904 135.993 16.904C135.913 16.904 135.833 16.888 135.753 16.856C135.689 16.808 135.633 16.72 135.585 16.592C135.441 16.272 135.321 15.976 135.225 15.704C135.129 15.416 135.041 15.128 134.961 14.84C134.897 14.552 134.825 14.248 134.745 13.928C134.665 13.608 134.569 13.256 134.457 12.872C134.281 12.248 134.097 11.584 133.905 10.88C133.713 10.16 133.537 9.48 133.377 8.84C133.217 8.184 133.089 7.608 132.993 7.112C132.897 6.6 132.849 6.24 132.849 6.032C132.849 5.936 132.849 5.808 132.849 5.648C132.865 5.488 132.889 5.336 132.921 5.192C132.969 5.032 133.025 4.904 133.089 4.808C133.169 4.696 133.273 4.64 133.401 4.64C133.481 4.64 133.561 4.768 133.641 5.024C133.737 5.264 133.817 5.536 133.881 5.84C133.961 6.128 134.025 6.408 134.073 6.68C134.137 6.936 134.169 7.072 134.169 7.088C134.233 7.44 134.305 7.832 134.385 8.264C134.481 8.68 134.577 9.104 134.673 9.536C134.769 9.968 134.873 10.384 134.985 10.784C135.097 11.168 135.217 11.496 135.345 11.768C135.361 11.608 135.417 11.376 135.513 11.072C135.609 10.768 135.737 10.44 135.897 10.088C136.057 9.736 136.233 9.376 136.425 9.008C136.633 8.624 136.841 8.28 137.049 7.976C137.273 7.672 137.489 7.424 137.697 7.232C137.921 7.04 138.129 6.944 138.321 6.944C138.625 6.944 138.833 6.984 138.945 7.064C139.073 7.144 139.137 7.24 139.137 7.352C139.137 7.448 139.001 7.64 138.729 7.928C138.457 8.2 138.153 8.568 137.817 9.032C137.481 9.48 137.177 10.016 136.905 10.64C136.633 11.248 136.497 11.928 136.497 12.68C136.497 12.952 136.569 13.192 136.713 13.4C136.873 13.592 137.073 13.752 137.313 13.88C137.569 14.008 137.849 14.112 138.153 14.192C138.473 14.256 138.785 14.288 139.089 14.288C139.361 14.288 139.657 14.28 139.977 14.264C140.297 14.248 140.593 14.232 140.865 14.216C141.153 14.184 141.393 14.16 141.585 14.144C141.793 14.128 141.921 14.12 141.969 14.12C142.049 14.12 142.121 14.144 142.185 14.192C142.249 14.24 142.281 14.32 142.281 14.432ZM149.995 14.48C150.011 14.512 150.019 14.56 150.019 14.624C150.019 14.72 149.947 14.864 149.803 15.056C149.755 15.12 149.651 15.224 149.491 15.368C149.331 15.512 149.115 15.656 148.843 15.8C148.571 15.944 148.235 16.072 147.835 16.184C147.451 16.296 146.995 16.352 146.467 16.352C146.099 16.352 145.739 16.272 145.387 16.112C145.035 15.936 144.723 15.688 144.451 15.368C144.179 15.032 143.955 14.624 143.779 14.144C143.603 13.648 143.515 13.072 143.515 12.416C143.515 11.792 143.595 11.208 143.755 10.664C143.915 10.12 144.115 9.64 144.355 9.224C144.611 8.808 144.891 8.48 145.195 8.24C145.499 8 145.795 7.88 146.083 7.88C146.339 7.88 146.595 7.936 146.851 8.048C147.123 8.144 147.363 8.272 147.571 8.432C147.795 8.592 147.971 8.776 148.099 8.984C148.227 9.176 148.291 9.376 148.291 9.584C148.291 9.824 148.179 10.072 147.955 10.328C147.747 10.584 147.491 10.824 147.187 11.048C146.883 11.256 146.579 11.432 146.275 11.576C145.971 11.704 145.731 11.768 145.555 11.768C145.459 11.768 145.371 11.728 145.291 11.648C145.227 11.552 145.195 11.44 145.195 11.312C145.195 11.088 145.291 10.912 145.483 10.784C145.691 10.656 145.915 10.544 146.155 10.448C146.395 10.336 146.611 10.208 146.803 10.064C147.011 9.92 147.115 9.72 147.115 9.464C147.115 9.432 147.075 9.352 146.995 9.224C146.915 9.096 146.699 9.032 146.347 9.032C146.187 9.032 146.003 9.128 145.795 9.32C145.587 9.496 145.387 9.744 145.195 10.064C145.003 10.368 144.843 10.736 144.715 11.168C144.587 11.584 144.523 12.04 144.523 12.536C144.523 12.952 144.595 13.328 144.739 13.664C144.899 14 145.099 14.288 145.339 14.528C145.579 14.752 145.859 14.928 146.179 15.056C146.499 15.184 146.827 15.248 147.163 15.248C147.403 15.248 147.659 15.2 147.931 15.104C148.219 14.992 148.483 14.88 148.723 14.768C148.979 14.64 149.195 14.528 149.371 14.432C149.563 14.32 149.683 14.264 149.731 14.264C149.779 14.264 149.827 14.288 149.875 14.336C149.939 14.384 149.979 14.432 149.995 14.48ZM164.82 16.304C164.82 16.432 164.772 16.528 164.676 16.592C164.58 16.656 164.468 16.688 164.34 16.688C164.196 16.688 164.044 16.552 163.884 16.28C163.74 16.008 163.596 15.664 163.452 15.248C163.308 14.832 163.172 14.384 163.044 13.904C162.916 13.408 162.804 12.952 162.708 12.536C162.612 12.104 162.532 11.744 162.468 11.456C162.42 11.168 162.396 11.008 162.396 10.976C162.396 10.912 162.364 10.744 162.3 10.472C162.252 10.2 162.18 9.776 162.084 9.2C162.004 8.624 161.908 7.88 161.796 6.968C161.7 6.04 161.596 4.896 161.484 3.536C161.484 3.392 161.508 3.208 161.556 2.984C161.604 2.76 161.716 2.648 161.892 2.648C162.116 2.648 162.284 2.8 162.396 3.104C162.524 3.408 162.62 3.784 162.684 4.232C162.764 4.68 162.82 5.152 162.852 5.648C162.884 6.128 162.924 6.552 162.972 6.92C163.036 7.432 163.092 7.896 163.14 8.312C163.204 8.728 163.26 9.144 163.308 9.56C163.372 9.96 163.444 10.384 163.524 10.832C163.62 11.28 163.732 11.776 163.86 12.32L164.82 16.304ZM170.986 11.816C170.986 12.168 170.938 12.504 170.842 12.824C170.746 13.144 170.618 13.424 170.458 13.664C170.298 13.904 170.106 14.096 169.882 14.24C169.674 14.368 169.442 14.432 169.186 14.432C168.738 14.432 168.386 14.304 168.13 14.048C167.874 13.792 167.674 13.496 167.53 13.16C167.402 12.824 167.314 12.488 167.266 12.152C167.234 11.8 167.218 11.536 167.218 11.36C167.218 11.072 167.258 10.752 167.338 10.4C167.434 10.032 167.554 9.696 167.698 9.392C167.858 9.088 168.034 8.832 168.226 8.624C168.418 8.416 168.618 8.312 168.826 8.312C168.874 8.312 168.946 8.328 169.042 8.36C169.154 8.392 169.266 8.44 169.378 8.504C169.49 8.568 169.586 8.648 169.666 8.744C169.762 8.84 169.826 8.952 169.858 9.08C170.034 9.096 170.21 9.16 170.386 9.272C170.562 9.384 170.658 9.472 170.674 9.536C170.802 9.952 170.882 10.368 170.914 10.784C170.962 11.2 170.986 11.544 170.986 11.816ZM169.906 11.384C169.906 11.144 169.882 10.896 169.834 10.64C169.786 10.368 169.69 10.096 169.546 9.824C169.514 9.84 169.474 9.848 169.426 9.848C169.362 9.848 169.306 9.84 169.258 9.824C169.226 9.808 169.194 9.8 169.162 9.8C168.97 9.8 168.818 9.856 168.706 9.968C168.594 10.064 168.506 10.2 168.442 10.376C168.394 10.536 168.362 10.712 168.346 10.904C168.33 11.096 168.322 11.28 168.322 11.456C168.322 11.632 168.33 11.832 168.346 12.056C168.362 12.264 168.394 12.464 168.442 12.656C168.506 12.848 168.586 13.016 168.682 13.16C168.778 13.288 168.906 13.352 169.066 13.352C169.226 13.352 169.362 13.272 169.474 13.112C169.586 12.936 169.674 12.736 169.738 12.512C169.802 12.288 169.842 12.072 169.858 11.864C169.89 11.64 169.906 11.48 169.906 11.384ZM177.713 11.816C177.713 12.168 177.665 12.504 177.569 12.824C177.473 13.144 177.345 13.424 177.185 13.664C177.025 13.904 176.833 14.096 176.609 14.24C176.401 14.368 176.169 14.432 175.913 14.432C175.465 14.432 175.113 14.304 174.857 14.048C174.601 13.792 174.401 13.496 174.257 13.16C174.129 12.824 174.041 12.488 173.993 12.152C173.961 11.8 173.945 11.536 173.945 11.36C173.945 11.072 173.985 10.752 174.065 10.4C174.161 10.032 174.281 9.696 174.425 9.392C174.585 9.088 174.761 8.832 174.953 8.624C175.145 8.416 175.345 8.312 175.553 8.312C175.601 8.312 175.673 8.328 175.769 8.36C175.881 8.392 175.993 8.44 176.105 8.504C176.217 8.568 176.313 8.648 176.393 8.744C176.489 8.84 176.553 8.952 176.585 9.08C176.761 9.096 176.937 9.16 177.113 9.272C177.289 9.384 177.385 9.472 177.401 9.536C177.529 9.952 177.609 10.368 177.641 10.784C177.689 11.2 177.713 11.544 177.713 11.816ZM176.633 11.384C176.633 11.144 176.609 10.896 176.561 10.64C176.513 10.368 176.417 10.096 176.273 9.824C176.241 9.84 176.201 9.848 176.153 9.848C176.089 9.848 176.033 9.84 175.985 9.824C175.953 9.808 175.921 9.8 175.889 9.8C175.697 9.8 175.545 9.856 175.433 9.968C175.321 10.064 175.233 10.2 175.169 10.376C175.121 10.536 175.089 10.712 175.073 10.904C175.057 11.096 175.049 11.28 175.049 11.456C175.049 11.632 175.057 11.832 175.073 12.056C175.089 12.264 175.121 12.464 175.169 12.656C175.233 12.848 175.313 13.016 175.409 13.16C175.505 13.288 175.633 13.352 175.793 13.352C175.953 13.352 176.089 13.272 176.201 13.112C176.313 12.936 176.401 12.736 176.465 12.512C176.529 12.288 176.569 12.072 176.585 11.864C176.617 11.64 176.633 11.48 176.633 11.384ZM188.664 14.432C188.664 14.56 188.648 14.656 188.616 14.72C188.584 14.768 188.504 14.808 188.376 14.84C188.232 14.888 188.048 14.944 187.824 15.008C187.616 15.056 187.384 15.112 187.128 15.176C186.872 15.224 186.608 15.272 186.336 15.32C186.08 15.352 185.84 15.368 185.616 15.368C185.344 15.368 185.04 15.352 184.704 15.32C184.384 15.288 184.072 15.24 183.768 15.176C183.464 15.096 183.184 15.016 182.928 14.936C182.688 14.84 182.512 14.728 182.4 14.6C182.48 14.936 182.552 15.272 182.616 15.608C182.68 15.944 182.728 16.28 182.76 16.616C182.76 16.696 182.736 16.768 182.688 16.832C182.656 16.88 182.552 16.904 182.376 16.904C182.296 16.904 182.216 16.888 182.136 16.856C182.072 16.808 182.016 16.72 181.968 16.592C181.824 16.272 181.704 15.976 181.608 15.704C181.512 15.416 181.424 15.128 181.344 14.84C181.28 14.552 181.208 14.248 181.128 13.928C181.048 13.608 180.952 13.256 180.84 12.872C180.664 12.248 180.48 11.584 180.288 10.88C180.096 10.16 179.92 9.48 179.76 8.84C179.6 8.184 179.472 7.608 179.376 7.112C179.28 6.6 179.232 6.24 179.232 6.032C179.232 5.936 179.232 5.808 179.232 5.648C179.248 5.488 179.272 5.336 179.304 5.192C179.352 5.032 179.408 4.904 179.472 4.808C179.552 4.696 179.656 4.64 179.784 4.64C179.864 4.64 179.944 4.768 180.024 5.024C180.12 5.264 180.2 5.536 180.264 5.84C180.344 6.128 180.408 6.408 180.456 6.68C180.52 6.936 180.552 7.072 180.552 7.088C180.616 7.44 180.688 7.832 180.768 8.264C180.864 8.68 180.96 9.104 181.056 9.536C181.152 9.968 181.256 10.384 181.368 10.784C181.48 11.168 181.6 11.496 181.728 11.768C181.744 11.608 181.8 11.376 181.896 11.072C181.992 10.768 182.12 10.44 182.28 10.088C182.44 9.736 182.616 9.376 182.808 9.008C183.016 8.624 183.224 8.28 183.432 7.976C183.656 7.672 183.872 7.424 184.08 7.232C184.304 7.04 184.512 6.944 184.704 6.944C185.008 6.944 185.216 6.984 185.328 7.064C185.456 7.144 185.52 7.24 185.52 7.352C185.52 7.448 185.384 7.64 185.112 7.928C184.84 8.2 184.536 8.568 184.2 9.032C183.864 9.48 183.56 10.016 183.288 10.64C183.016 11.248 182.88 11.928 182.88 12.68C182.88 12.952 182.952 13.192 183.096 13.4C183.256 13.592 183.456 13.752 183.696 13.88C183.952 14.008 184.232 14.112 184.536 14.192C184.856 14.256 185.168 14.288 185.472 14.288C185.744 14.288 186.04 14.28 186.36 14.264C186.68 14.248 186.976 14.232 187.248 14.216C187.536 14.184 187.776 14.16 187.968 14.144C188.176 14.128 188.304 14.12 188.352 14.12C188.432 14.12 188.504 14.144 188.568 14.192C188.632 14.24 188.664 14.32 188.664 14.432ZM191.122 5.96C191.122 5.992 191.066 6.056 190.954 6.152C190.842 6.248 190.706 6.352 190.546 6.464C190.402 6.56 190.25 6.648 190.09 6.728C189.93 6.808 189.802 6.848 189.706 6.848C189.642 6.848 189.554 6.848 189.442 6.848C189.346 6.832 189.242 6.8 189.13 6.752C189.034 6.704 188.946 6.64 188.866 6.56C188.786 6.464 188.746 6.344 188.746 6.2C188.746 5.976 188.826 5.768 188.986 5.576C189.146 5.368 189.354 5.264 189.61 5.264C189.658 5.264 189.762 5.288 189.922 5.336C190.098 5.368 190.274 5.416 190.45 5.48C190.626 5.544 190.778 5.616 190.906 5.696C191.05 5.776 191.122 5.864 191.122 5.96ZM191.914 14.936C191.914 15.048 191.826 15.144 191.65 15.224C191.49 15.304 191.37 15.344 191.29 15.344C191.13 15.344 190.986 15.24 190.858 15.032C190.73 14.824 190.618 14.584 190.522 14.312C190.426 14.04 190.346 13.784 190.282 13.544C190.218 13.288 190.17 13.112 190.138 13.016C190.09 12.856 190.026 12.664 189.946 12.44C189.866 12.216 189.786 12 189.706 11.792C189.642 11.584 189.586 11.4 189.538 11.24C189.49 11.08 189.466 10.992 189.466 10.976C189.466 10.752 189.506 10.544 189.586 10.352C189.682 10.16 189.794 10.064 189.922 10.064C190.066 10.064 190.218 10.176 190.378 10.4C190.538 10.624 190.69 10.912 190.834 11.264C190.994 11.6 191.138 11.976 191.266 12.392C191.394 12.792 191.506 13.176 191.602 13.544C191.698 13.896 191.77 14.208 191.818 14.48C191.882 14.736 191.914 14.888 191.914 14.936ZM200.633 14.048C200.633 14.144 200.601 14.24 200.537 14.336C200.473 14.432 200.393 14.52 200.297 14.6C200.217 14.68 200.121 14.752 200.009 14.816C199.913 14.864 199.825 14.888 199.745 14.888C199.473 14.888 199.121 14.832 198.689 14.72C198.273 14.592 197.937 14.4 197.681 14.144C197.409 13.872 197.169 13.552 196.961 13.184C196.753 12.8 196.521 12.24 196.265 11.504C196.089 12.208 195.881 12.904 195.641 13.592C195.417 14.28 195.049 14.912 194.537 15.488C194.505 15.52 194.457 15.536 194.393 15.536C194.281 15.536 194.161 15.48 194.033 15.368C193.905 15.256 193.841 15.144 193.841 15.032C193.841 14.92 193.825 14.664 193.793 14.264C193.777 13.848 193.753 13.392 193.721 12.896C193.689 12.384 193.657 11.872 193.625 11.36C193.609 10.832 193.601 10.4 193.601 10.064C193.601 9.904 193.609 9.696 193.625 9.44C193.641 9.168 193.689 8.936 193.769 8.744C193.785 8.712 193.841 8.648 193.937 8.552C194.049 8.456 194.169 8.408 194.297 8.408C194.409 8.408 194.473 8.48 194.489 8.624C194.505 8.768 194.513 8.928 194.513 9.104V12.896C194.513 12.976 194.521 13.088 194.537 13.232C194.569 13.376 194.609 13.48 194.657 13.544C194.833 13.16 194.993 12.712 195.137 12.2C195.297 11.672 195.449 11.176 195.593 10.712C195.737 10.232 195.881 9.832 196.025 9.512C196.169 9.176 196.313 9.008 196.457 9.008C196.617 9.008 196.745 9.04 196.841 9.104C196.937 9.168 197.017 9.296 197.081 9.488C197.161 9.952 197.225 10.368 197.273 10.736C197.321 11.088 197.377 11.408 197.441 11.696C197.521 11.984 197.625 12.256 197.753 12.512C197.897 12.752 198.089 12.976 198.329 13.184C198.553 13.392 198.801 13.544 199.073 13.64C199.361 13.736 199.609 13.784 199.817 13.784C199.913 13.784 200.017 13.768 200.129 13.736C200.241 13.688 200.321 13.664 200.369 13.664C200.433 13.664 200.489 13.72 200.537 13.832C200.601 13.944 200.633 14.016 200.633 14.048ZM207.822 14.888C207.822 15.064 207.758 15.184 207.63 15.248C207.502 15.312 207.438 15.4 207.438 15.512C207.422 15.496 207.454 15.584 207.534 15.776C207.614 15.968 207.686 16.168 207.75 16.376C207.862 16.808 207.958 17.184 208.038 17.504C208.134 17.824 208.206 18.12 208.254 18.392C208.318 18.664 208.366 18.936 208.398 19.208C208.43 19.48 208.446 19.784 208.446 20.12C208.446 20.456 208.39 20.8 208.278 21.152C208.166 21.504 208.006 21.816 207.798 22.088C207.59 22.36 207.334 22.584 207.03 22.76C206.726 22.936 206.382 23.024 205.998 23.024C205.406 23.024 204.934 22.904 204.582 22.664C204.246 22.424 203.99 22.152 203.814 21.848C203.638 21.544 203.526 21.24 203.478 20.936C203.43 20.648 203.406 20.456 203.406 20.36C203.406 19.768 203.558 19.176 203.862 18.584C204.166 17.992 204.502 17.456 204.87 16.976C205.238 16.496 205.574 16.096 205.878 15.776C206.182 15.456 206.334 15.272 206.334 15.224L206.07 14.432C205.91 14.624 205.766 14.84 205.638 15.08C205.526 15.304 205.398 15.52 205.254 15.728C205.126 15.92 204.966 16.088 204.774 16.232C204.598 16.36 204.374 16.424 204.102 16.424C203.814 16.424 203.526 16.336 203.238 16.16C202.95 15.984 202.694 15.72 202.47 15.368C202.246 15.016 202.062 14.592 201.918 14.096C201.79 13.6 201.726 13.024 201.726 12.368C201.726 12 201.782 11.544 201.894 11C202.006 10.44 202.182 9.904 202.422 9.392C202.662 8.88 202.958 8.448 203.31 8.096C203.678 7.728 204.102 7.544 204.582 7.544C204.854 7.544 205.102 7.592 205.326 7.688C205.566 7.784 205.686 7.904 205.686 8.048C205.686 8.176 205.662 8.28 205.614 8.36C205.566 8.44 205.502 8.52 205.422 8.6C205.374 8.568 205.318 8.536 205.254 8.504C205.206 8.472 205.134 8.456 205.038 8.456C204.686 8.456 204.366 8.616 204.078 8.936C203.806 9.24 203.574 9.624 203.382 10.088C203.19 10.536 203.038 11.008 202.926 11.504C202.83 12 202.782 12.432 202.782 12.8C202.782 13.616 202.918 14.24 203.19 14.672C203.462 15.088 203.75 15.296 204.054 15.296C204.198 15.296 204.35 15.192 204.51 14.984C204.686 14.76 204.846 14.52 204.99 14.264C205.15 13.992 205.286 13.736 205.398 13.496C205.51 13.256 205.574 13.112 205.59 13.064C205.622 12.904 205.638 12.72 205.638 12.512C205.638 12.336 205.63 12.144 205.614 11.936C205.614 11.712 205.614 11.488 205.614 11.264C205.614 10.848 205.646 10.504 205.71 10.232C205.774 9.944 205.934 9.8 206.19 9.8C206.446 9.8 206.63 9.88 206.742 10.04C206.854 10.184 206.91 10.36 206.91 10.568C206.91 10.712 206.902 10.888 206.886 11.096C206.886 11.288 206.886 11.48 206.886 11.672C206.886 11.848 206.878 12.008 206.862 12.152C206.862 12.28 206.862 12.36 206.862 12.392C206.862 12.488 206.87 12.632 206.886 12.824C206.918 13 206.942 13.184 206.958 13.376C206.99 13.552 207.014 13.72 207.03 13.88C207.062 14.024 207.086 14.12 207.102 14.168C207.118 14.216 207.142 14.288 207.174 14.384C207.206 14.48 207.238 14.552 207.27 14.6C207.286 14.568 207.318 14.536 207.366 14.504C207.414 14.456 207.454 14.416 207.486 14.384C207.566 14.432 207.638 14.528 207.702 14.672C207.782 14.8 207.822 14.872 207.822 14.888ZM207.006 17.936C206.942 17.68 206.87 17.424 206.79 17.168C206.71 16.912 206.63 16.648 206.55 16.376C206.278 16.712 206.014 17.032 205.758 17.336C205.518 17.656 205.294 17.968 205.086 18.272C204.894 18.576 204.734 18.888 204.606 19.208C204.494 19.544 204.438 19.896 204.438 20.264C204.438 20.76 204.574 21.168 204.846 21.488C205.134 21.808 205.446 21.968 205.782 21.968C206.15 21.968 206.494 21.832 206.814 21.56C207.15 21.288 207.318 20.896 207.318 20.384C207.318 20.048 207.31 19.768 207.294 19.544C207.278 19.32 207.254 19.12 207.222 18.944C207.206 18.784 207.174 18.624 207.126 18.464C207.094 18.32 207.054 18.144 207.006 17.936ZM221.169 5.96C221.169 5.992 221.113 6.056 221.001 6.152C220.889 6.248 220.753 6.352 220.593 6.464C220.449 6.56 220.297 6.648 220.137 6.728C219.977 6.808 219.849 6.848 219.753 6.848C219.689 6.848 219.601 6.848 219.489 6.848C219.393 6.832 219.289 6.8 219.177 6.752C219.081 6.704 218.993 6.64 218.913 6.56C218.833 6.464 218.793 6.344 218.793 6.2C218.793 5.976 218.873 5.768 219.033 5.576C219.193 5.368 219.401 5.264 219.657 5.264C219.705 5.264 219.809 5.288 219.969 5.336C220.145 5.368 220.321 5.416 220.497 5.48C220.673 5.544 220.825 5.616 220.953 5.696C221.097 5.776 221.169 5.864 221.169 5.96ZM221.961 14.936C221.961 15.048 221.873 15.144 221.697 15.224C221.537 15.304 221.417 15.344 221.337 15.344C221.177 15.344 221.033 15.24 220.905 15.032C220.777 14.824 220.665 14.584 220.569 14.312C220.473 14.04 220.393 13.784 220.329 13.544C220.265 13.288 220.217 13.112 220.185 13.016C220.137 12.856 220.073 12.664 219.993 12.44C219.913 12.216 219.833 12 219.753 11.792C219.689 11.584 219.633 11.4 219.585 11.24C219.537 11.08 219.513 10.992 219.513 10.976C219.513 10.752 219.553 10.544 219.633 10.352C219.729 10.16 219.841 10.064 219.969 10.064C220.113 10.064 220.265 10.176 220.425 10.4C220.585 10.624 220.737 10.912 220.881 11.264C221.041 11.6 221.185 11.976 221.313 12.392C221.441 12.792 221.553 13.176 221.649 13.544C221.745 13.896 221.817 14.208 221.865 14.48C221.929 14.736 221.961 14.888 221.961 14.936ZM230.68 14.048C230.68 14.144 230.648 14.24 230.584 14.336C230.52 14.432 230.44 14.52 230.344 14.6C230.264 14.68 230.168 14.752 230.056 14.816C229.96 14.864 229.872 14.888 229.792 14.888C229.52 14.888 229.168 14.832 228.736 14.72C228.32 14.592 227.984 14.4 227.728 14.144C227.456 13.872 227.216 13.552 227.008 13.184C226.8 12.8 226.568 12.24 226.312 11.504C226.136 12.208 225.928 12.904 225.688 13.592C225.464 14.28 225.096 14.912 224.584 15.488C224.552 15.52 224.504 15.536 224.44 15.536C224.328 15.536 224.208 15.48 224.08 15.368C223.952 15.256 223.888 15.144 223.888 15.032C223.888 14.92 223.872 14.664 223.84 14.264C223.824 13.848 223.8 13.392 223.768 12.896C223.736 12.384 223.704 11.872 223.672 11.36C223.656 10.832 223.648 10.4 223.648 10.064C223.648 9.904 223.656 9.696 223.672 9.44C223.688 9.168 223.736 8.936 223.816 8.744C223.832 8.712 223.888 8.648 223.984 8.552C224.096 8.456 224.216 8.408 224.344 8.408C224.456 8.408 224.52 8.48 224.536 8.624C224.552 8.768 224.56 8.928 224.56 9.104V12.896C224.56 12.976 224.568 13.088 224.584 13.232C224.616 13.376 224.656 13.48 224.704 13.544C224.88 13.16 225.04 12.712 225.184 12.2C225.344 11.672 225.496 11.176 225.64 10.712C225.784 10.232 225.928 9.832 226.072 9.512C226.216 9.176 226.36 9.008 226.504 9.008C226.664 9.008 226.792 9.04 226.888 9.104C226.984 9.168 227.064 9.296 227.128 9.488C227.208 9.952 227.272 10.368 227.32 10.736C227.368 11.088 227.424 11.408 227.488 11.696C227.568 11.984 227.672 12.256 227.8 12.512C227.944 12.752 228.136 12.976 228.376 13.184C228.6 13.392 228.848 13.544 229.12 13.64C229.408 13.736 229.656 13.784 229.864 13.784C229.96 13.784 230.064 13.768 230.176 13.736C230.288 13.688 230.368 13.664 230.416 13.664C230.48 13.664 230.536 13.72 230.584 13.832C230.648 13.944 230.68 14.016 230.68 14.048ZM248.215 6.152C248.007 6.392 247.711 6.632 247.327 6.872C246.943 7.096 246.559 7.304 246.175 7.496C245.791 7.688 245.455 7.856 245.167 8C244.879 8.128 244.735 8.216 244.735 8.264C244.735 8.312 244.767 8.456 244.831 8.696C244.895 8.936 244.967 9.224 245.047 9.56C245.143 9.88 245.239 10.216 245.335 10.568C245.431 10.92 245.511 11.232 245.575 11.504C245.607 11.664 245.647 11.872 245.695 12.128C245.743 12.384 245.783 12.64 245.815 12.896C245.863 13.152 245.903 13.384 245.935 13.592C245.967 13.784 245.983 13.888 245.983 13.904C245.983 14.144 245.943 14.392 245.863 14.648C245.783 14.904 245.655 15.032 245.479 15.032C245.383 15.032 245.295 14.992 245.215 14.912C245.135 14.832 245.063 14.744 244.999 14.648C244.935 14.536 244.887 14.432 244.855 14.336C244.823 14.24 244.807 14.168 244.807 14.12C244.807 14.088 244.807 14.04 244.807 13.976C244.823 13.912 244.831 13.84 244.831 13.76C244.831 13.456 244.783 13.016 244.687 12.44C244.655 12.264 244.591 11.992 244.495 11.624C244.399 11.256 244.303 10.88 244.207 10.496C244.095 10.048 243.967 9.56 243.823 9.032C243.759 8.808 243.719 8.696 243.703 8.696C243.591 8.696 243.399 8.768 243.127 8.912C242.871 9.04 242.575 9.208 242.239 9.416C241.903 9.608 241.551 9.824 241.183 10.064C240.815 10.288 240.471 10.504 240.151 10.712C239.831 10.904 239.559 11.072 239.335 11.216C239.095 11.344 238.951 11.408 238.903 11.408C238.695 11.408 238.527 11.336 238.399 11.192C238.271 11.048 238.207 10.888 238.207 10.712C238.207 10.616 238.343 10.48 238.615 10.304C238.871 10.112 239.199 9.904 239.599 9.68C239.983 9.456 240.407 9.224 240.871 8.984C241.319 8.744 241.735 8.528 242.119 8.336C242.519 8.144 242.847 7.984 243.103 7.856C243.375 7.728 243.511 7.664 243.511 7.664C243.367 6.928 243.247 6.272 243.151 5.696C243.071 5.2 242.991 4.744 242.911 4.328C242.847 3.912 242.815 3.688 242.815 3.656C242.815 3.448 242.855 3.296 242.935 3.2C243.031 3.088 243.135 3.032 243.247 3.032C243.423 3.032 243.535 3.152 243.583 3.392C243.759 4.256 243.919 5.024 244.063 5.696C244.223 6.368 244.375 6.912 244.519 7.328C244.663 7.296 244.911 7.208 245.263 7.064C245.615 6.904 245.983 6.736 246.367 6.56C246.751 6.384 247.095 6.232 247.399 6.104C247.719 5.96 247.903 5.888 247.951 5.888C248.047 5.888 248.103 5.92 248.119 5.984C248.151 6.048 248.183 6.104 248.215 6.152ZM257.199 12.56C257.279 12.64 257.319 12.688 257.319 12.704C257.319 12.736 257.271 12.832 257.175 12.992C257.095 13.152 256.983 13.32 256.839 13.496C256.695 13.672 256.535 13.832 256.359 13.976C256.199 14.104 256.039 14.168 255.879 14.168C255.543 14.168 255.271 14.104 255.063 13.976C254.855 13.832 254.679 13.656 254.535 13.448C254.407 13.24 254.303 13.016 254.223 12.776C254.159 12.52 254.103 12.28 254.055 12.056C254.023 11.944 253.991 11.888 253.959 11.888C253.911 11.888 253.815 12.064 253.671 12.416C253.527 12.752 253.367 13.128 253.191 13.544C253.031 13.944 252.871 14.32 252.711 14.672C252.567 15.008 252.471 15.176 252.423 15.176C252.135 15.176 251.887 15.056 251.679 14.816C251.487 14.56 251.327 14.272 251.199 13.952C251.087 13.616 250.999 13.28 250.935 12.944C250.871 12.592 250.831 12.32 250.815 12.128C250.767 11.696 250.663 10.976 250.503 9.968C250.343 8.96 250.207 7.736 250.095 6.296C250.063 5.992 250.023 5.72 249.975 5.48C249.943 5.224 249.903 4.944 249.855 4.64C249.807 4.336 249.767 3.992 249.735 3.608C249.703 3.224 249.687 2.752 249.687 2.192C249.687 2.16 249.695 2.056 249.711 1.88C249.727 1.704 249.751 1.512 249.783 1.304C249.815 1.096 249.863 0.911999 249.927 0.751999C250.007 0.591999 250.095 0.511999 250.191 0.511999C250.303 0.511999 250.407 0.583999 250.503 0.727999C250.599 0.855999 250.679 1.008 250.743 1.184C250.823 1.36 250.879 1.528 250.911 1.688C250.943 1.848 250.959 1.96 250.959 2.024C250.959 2.264 250.943 2.488 250.911 2.696C250.879 2.904 250.863 3.096 250.863 3.272C250.863 3.512 250.879 3.816 250.911 4.184C250.959 4.552 251.015 4.928 251.079 5.312C251.143 5.696 251.199 6.072 251.247 6.44C251.295 6.792 251.335 7.08 251.367 7.304C251.367 7.32 251.383 7.432 251.415 7.64C251.447 7.848 251.479 8.112 251.511 8.432C251.559 8.736 251.599 9.072 251.631 9.44C251.679 9.792 251.727 10.144 251.775 10.496C251.823 10.832 251.863 11.136 251.895 11.408C251.943 11.664 251.975 11.848 251.991 11.96C251.991 12.008 251.999 12.08 252.015 12.176C252.047 12.256 252.071 12.352 252.087 12.464C252.119 12.576 252.151 12.68 252.183 12.776C252.215 12.872 252.255 12.944 252.303 12.992C252.399 12.8 252.519 12.504 252.663 12.104C252.823 11.704 252.983 11.296 253.143 10.88C253.319 10.464 253.479 10.104 253.623 9.8C253.783 9.48 253.919 9.32 254.031 9.32C254.159 9.32 254.263 9.344 254.343 9.392C254.423 9.44 254.527 9.48 254.655 9.512C254.815 9.576 254.895 9.664 254.895 9.776C254.895 9.872 254.911 9.992 254.943 10.136C254.975 10.328 255.023 10.584 255.087 10.904C255.167 11.208 255.255 11.512 255.351 11.816C255.447 12.104 255.559 12.352 255.687 12.56C255.815 12.768 255.943 12.872 256.071 12.872C256.135 12.872 256.223 12.792 256.335 12.632C256.447 12.456 256.599 12.36 256.791 12.344C256.823 12.344 256.879 12.368 256.959 12.416C257.039 12.448 257.119 12.496 257.199 12.56ZM265.402 14.48C265.418 14.512 265.426 14.56 265.426 14.624C265.426 14.72 265.354 14.864 265.21 15.056C265.162 15.12 265.058 15.224 264.898 15.368C264.738 15.512 264.522 15.656 264.25 15.8C263.978 15.944 263.642 16.072 263.242 16.184C262.858 16.296 262.402 16.352 261.874 16.352C261.506 16.352 261.146 16.272 260.794 16.112C260.442 15.936 260.13 15.688 259.858 15.368C259.586 15.032 259.362 14.624 259.186 14.144C259.01 13.648 258.922 13.072 258.922 12.416C258.922 11.792 259.002 11.208 259.162 10.664C259.322 10.12 259.522 9.64 259.762 9.224C260.018 8.808 260.298 8.48 260.602 8.24C260.906 8 261.202 7.88 261.49 7.88C261.746 7.88 262.002 7.936 262.258 8.048C262.53 8.144 262.77 8.272 262.978 8.432C263.202 8.592 263.378 8.776 263.506 8.984C263.634 9.176 263.698 9.376 263.698 9.584C263.698 9.824 263.586 10.072 263.362 10.328C263.154 10.584 262.898 10.824 262.594 11.048C262.29 11.256 261.986 11.432 261.682 11.576C261.378 11.704 261.138 11.768 260.962 11.768C260.866 11.768 260.778 11.728 260.698 11.648C260.634 11.552 260.602 11.44 260.602 11.312C260.602 11.088 260.698 10.912 260.89 10.784C261.098 10.656 261.322 10.544 261.562 10.448C261.802 10.336 262.018 10.208 262.21 10.064C262.418 9.92 262.522 9.72 262.522 9.464C262.522 9.432 262.482 9.352 262.402 9.224C262.322 9.096 262.106 9.032 261.754 9.032C261.594 9.032 261.41 9.128 261.202 9.32C260.994 9.496 260.794 9.744 260.602 10.064C260.41 10.368 260.25 10.736 260.122 11.168C259.994 11.584 259.93 12.04 259.93 12.536C259.93 12.952 260.002 13.328 260.146 13.664C260.306 14 260.506 14.288 260.746 14.528C260.986 14.752 261.266 14.928 261.586 15.056C261.906 15.184 262.234 15.248 262.57 15.248C262.81 15.248 263.066 15.2 263.338 15.104C263.626 14.992 263.89 14.88 264.13 14.768C264.386 14.64 264.602 14.528 264.778 14.432C264.97 14.32 265.09 14.264 265.138 14.264C265.186 14.264 265.234 14.288 265.282 14.336C265.346 14.384 265.386 14.432 265.402 14.48ZM287.69 14.744C287.69 14.872 287.65 14.984 287.57 15.08C287.49 15.176 287.394 15.256 287.282 15.32C287.17 15.368 287.05 15.408 286.922 15.44C286.81 15.472 286.714 15.488 286.634 15.488C286.298 15.488 286.01 15.312 285.77 14.96C285.53 14.592 285.33 14.192 285.17 13.76C285.01 13.312 284.89 12.896 284.81 12.512C284.746 12.128 284.714 11.92 284.714 11.888C284.618 12.064 284.514 12.36 284.402 12.776C284.306 13.192 284.186 13.616 284.042 14.048C283.898 14.464 283.714 14.84 283.49 15.176C283.282 15.496 283.01 15.656 282.674 15.656C282.514 15.656 282.362 15.56 282.218 15.368C282.074 15.176 281.938 14.928 281.81 14.624C281.682 14.32 281.554 13.976 281.426 13.592C281.314 13.208 281.194 12.832 281.066 12.464C280.954 12.096 280.842 11.752 280.73 11.432C280.618 11.096 280.506 10.832 280.394 10.64C280.298 10.88 280.21 11.208 280.13 11.624C280.066 12.04 280.01 12.48 279.962 12.944C279.914 13.392 279.874 13.84 279.842 14.288C279.81 14.736 279.794 15.128 279.794 15.464C279.794 15.688 279.73 15.848 279.602 15.944C279.49 16.04 279.37 16.088 279.242 16.088C279.066 16.088 278.89 15.976 278.714 15.752C278.538 15.512 278.362 15.208 278.186 14.84C278.01 14.472 277.842 14.056 277.682 13.592C277.538 13.128 277.402 12.664 277.274 12.2C277.162 11.736 277.074 11.296 277.01 10.88C276.946 10.448 276.914 10.088 276.914 9.8C276.914 9.592 276.922 9.4 276.938 9.224C276.954 9.08 276.962 8.944 276.962 8.816C276.978 8.688 276.986 8.616 276.986 8.6C276.986 8.552 276.97 8.52 276.938 8.504C276.922 8.488 276.914 8.448 276.914 8.384C276.914 8.336 276.97 8.264 277.082 8.168C277.21 8.056 277.338 8 277.466 8C277.69 8 277.834 8.048 277.898 8.144C277.978 8.24 278.018 8.352 278.018 8.48C278.018 8.528 278.01 8.6 277.994 8.696C277.994 8.792 277.994 9.008 277.994 9.344C277.994 9.568 278.034 9.904 278.114 10.352C278.194 10.8 278.29 11.256 278.402 11.72C278.514 12.184 278.626 12.616 278.738 13.016C278.866 13.4 278.97 13.64 279.05 13.736C279.082 13.672 279.098 13.6 279.098 13.52C279.114 13.424 279.13 13.352 279.146 13.304L279.41 11.336C279.474 10.84 279.602 10.32 279.794 9.776C280.002 9.216 280.218 8.784 280.442 8.48C280.522 8.352 280.61 8.288 280.706 8.288C280.802 8.288 280.89 8.36 280.97 8.504C281.242 8.952 281.442 9.4 281.57 9.848C281.714 10.28 281.834 10.712 281.93 11.144C282.042 11.56 282.162 11.984 282.29 12.416C282.434 12.832 282.65 13.256 282.938 13.688C283.066 13.48 283.226 13.144 283.418 12.68C283.61 12.2 283.802 11.72 283.994 11.24C284.202 10.76 284.394 10.344 284.57 9.992C284.746 9.624 284.882 9.44 284.978 9.44C285.026 9.44 285.106 9.448 285.218 9.464C285.33 9.48 285.41 9.488 285.458 9.488C285.602 9.488 285.722 9.656 285.818 9.992C285.914 10.312 285.994 10.696 286.058 11.144C286.138 11.576 286.21 12.016 286.274 12.464C286.354 12.896 286.442 13.224 286.538 13.448C286.602 13.608 286.698 13.76 286.826 13.904C286.954 14.048 287.082 14.184 287.21 14.312C287.37 14.456 287.53 14.6 287.69 14.744ZM291.036 5.96C291.036 5.992 290.98 6.056 290.868 6.152C290.756 6.248 290.62 6.352 290.46 6.464C290.316 6.56 290.164 6.648 290.004 6.728C289.844 6.808 289.716 6.848 289.62 6.848C289.556 6.848 289.468 6.848 289.356 6.848C289.26 6.832 289.156 6.8 289.044 6.752C288.948 6.704 288.86 6.64 288.78 6.56C288.7 6.464 288.66 6.344 288.66 6.2C288.66 5.976 288.74 5.768 288.9 5.576C289.06 5.368 289.268 5.264 289.524 5.264C289.572 5.264 289.676 5.288 289.836 5.336C290.012 5.368 290.188 5.416 290.364 5.48C290.54 5.544 290.692 5.616 290.82 5.696C290.964 5.776 291.036 5.864 291.036 5.96ZM291.828 14.936C291.828 15.048 291.74 15.144 291.564 15.224C291.404 15.304 291.284 15.344 291.204 15.344C291.044 15.344 290.9 15.24 290.772 15.032C290.644 14.824 290.532 14.584 290.436 14.312C290.34 14.04 290.26 13.784 290.196 13.544C290.132 13.288 290.084 13.112 290.052 13.016C290.004 12.856 289.94 12.664 289.86 12.44C289.78 12.216 289.7 12 289.62 11.792C289.556 11.584 289.5 11.4 289.452 11.24C289.404 11.08 289.38 10.992 289.38 10.976C289.38 10.752 289.42 10.544 289.5 10.352C289.596 10.16 289.708 10.064 289.836 10.064C289.98 10.064 290.132 10.176 290.292 10.4C290.452 10.624 290.604 10.912 290.748 11.264C290.908 11.6 291.052 11.976 291.18 12.392C291.308 12.792 291.42 13.176 291.516 13.544C291.612 13.896 291.684 14.208 291.732 14.48C291.796 14.736 291.828 14.888 291.828 14.936ZM299.011 9.68C299.011 9.792 298.963 9.888 298.867 9.968C298.771 10.032 298.659 10.088 298.531 10.136C298.403 10.184 298.275 10.224 298.147 10.256C298.019 10.272 297.915 10.28 297.835 10.28C297.595 10.28 297.435 10.264 297.355 10.232C297.275 10.2 297.211 10.184 297.163 10.184C296.763 10.184 296.443 10.216 296.203 10.28C295.963 10.344 295.771 10.448 295.627 10.592C295.499 10.736 295.411 10.92 295.363 11.144C295.331 11.352 295.315 11.608 295.315 11.912C295.315 12.424 295.331 12.832 295.363 13.136C295.411 13.44 295.451 13.688 295.483 13.88C295.531 14.072 295.571 14.224 295.603 14.336C295.651 14.432 295.675 14.528 295.675 14.624C295.675 14.752 295.603 14.888 295.459 15.032C295.331 15.176 295.211 15.248 295.099 15.248C294.907 15.248 294.731 15.08 294.571 14.744C294.427 14.392 294.299 13.984 294.187 13.52C294.091 13.04 294.011 12.568 293.947 12.104C293.883 11.64 293.851 11.288 293.851 11.048C293.851 10.776 293.875 10.52 293.923 10.28C293.971 10.024 294.035 9.808 294.115 9.632C294.195 9.44 294.283 9.288 294.379 9.176C294.475 9.064 294.571 9.008 294.667 9.008C294.747 9.008 294.811 9.04 294.859 9.104C294.907 9.152 294.947 9.216 294.979 9.296C295.011 9.36 295.043 9.424 295.075 9.488C295.123 9.536 295.179 9.56 295.243 9.56C295.387 9.56 295.619 9.488 295.939 9.344C296.259 9.2 296.651 9.128 297.115 9.128C297.547 9.128 297.867 9.144 298.075 9.176C298.299 9.192 298.515 9.24 298.723 9.32C298.771 9.336 298.827 9.376 298.891 9.44C298.971 9.488 299.011 9.568 299.011 9.68ZM306.604 9.68C306.604 9.792 306.556 9.888 306.46 9.968C306.364 10.032 306.252 10.088 306.124 10.136C305.996 10.184 305.868 10.224 305.74 10.256C305.612 10.272 305.508 10.28 305.428 10.28C305.188 10.28 305.028 10.264 304.948 10.232C304.868 10.2 304.804 10.184 304.756 10.184C304.356 10.184 304.036 10.216 303.796 10.28C303.556 10.344 303.364 10.448 303.22 10.592C303.092 10.736 303.004 10.92 302.956 11.144C302.924 11.352 302.908 11.608 302.908 11.912C302.908 12.424 302.924 12.832 302.956 13.136C303.004 13.44 303.044 13.688 303.076 13.88C303.124 14.072 303.164 14.224 303.196 14.336C303.244 14.432 303.268 14.528 303.268 14.624C303.268 14.752 303.196 14.888 303.052 15.032C302.924 15.176 302.804 15.248 302.692 15.248C302.5 15.248 302.324 15.08 302.164 14.744C302.02 14.392 301.892 13.984 301.78 13.52C301.684 13.04 301.604 12.568 301.54 12.104C301.476 11.64 301.444 11.288 301.444 11.048C301.444 10.776 301.468 10.52 301.516 10.28C301.564 10.024 301.628 9.808 301.708 9.632C301.788 9.44 301.876 9.288 301.972 9.176C302.068 9.064 302.164 9.008 302.26 9.008C302.34 9.008 302.404 9.04 302.452 9.104C302.5 9.152 302.54 9.216 302.572 9.296C302.604 9.36 302.636 9.424 302.668 9.488C302.716 9.536 302.772 9.56 302.836 9.56C302.98 9.56 303.212 9.488 303.532 9.344C303.852 9.2 304.244 9.128 304.708 9.128C305.14 9.128 305.46 9.144 305.668 9.176C305.892 9.192 306.108 9.24 306.316 9.32C306.364 9.336 306.42 9.376 306.484 9.44C306.564 9.488 306.604 9.568 306.604 9.68ZM312.83 11.816C312.83 12.168 312.782 12.504 312.686 12.824C312.59 13.144 312.462 13.424 312.302 13.664C312.142 13.904 311.95 14.096 311.726 14.24C311.518 14.368 311.286 14.432 311.03 14.432C310.582 14.432 310.23 14.304 309.974 14.048C309.718 13.792 309.518 13.496 309.374 13.16C309.246 12.824 309.158 12.488 309.11 12.152C309.078 11.8 309.062 11.536 309.062 11.36C309.062 11.072 309.102 10.752 309.182 10.4C309.278 10.032 309.398 9.696 309.542 9.392C309.702 9.088 309.878 8.832 310.07 8.624C310.262 8.416 310.462 8.312 310.67 8.312C310.718 8.312 310.79 8.328 310.886 8.36C310.998 8.392 311.11 8.44 311.222 8.504C311.334 8.568 311.43 8.648 311.51 8.744C311.606 8.84 311.67 8.952 311.702 9.08C311.878 9.096 312.054 9.16 312.23 9.272C312.406 9.384 312.502 9.472 312.518 9.536C312.646 9.952 312.726 10.368 312.758 10.784C312.806 11.2 312.83 11.544 312.83 11.816ZM311.75 11.384C311.75 11.144 311.726 10.896 311.678 10.64C311.63 10.368 311.534 10.096 311.39 9.824C311.358 9.84 311.318 9.848 311.27 9.848C311.206 9.848 311.15 9.84 311.102 9.824C311.07 9.808 311.038 9.8 311.006 9.8C310.814 9.8 310.662 9.856 310.55 9.968C310.438 10.064 310.35 10.2 310.286 10.376C310.238 10.536 310.206 10.712 310.19 10.904C310.174 11.096 310.166 11.28 310.166 11.456C310.166 11.632 310.174 11.832 310.19 12.056C310.206 12.264 310.238 12.464 310.286 12.656C310.35 12.848 310.43 13.016 310.526 13.16C310.622 13.288 310.75 13.352 310.91 13.352C311.07 13.352 311.206 13.272 311.318 13.112C311.43 12.936 311.518 12.736 311.582 12.512C311.646 12.288 311.686 12.072 311.702 11.864C311.734 11.64 311.75 11.48 311.75 11.384ZM320.925 9.68C320.925 9.792 320.877 9.888 320.781 9.968C320.685 10.032 320.573 10.088 320.445 10.136C320.317 10.184 320.189 10.224 320.061 10.256C319.933 10.272 319.829 10.28 319.749 10.28C319.509 10.28 319.349 10.264 319.269 10.232C319.189 10.2 319.125 10.184 319.077 10.184C318.677 10.184 318.357 10.216 318.117 10.28C317.877 10.344 317.685 10.448 317.541 10.592C317.413 10.736 317.325 10.92 317.277 11.144C317.245 11.352 317.229 11.608 317.229 11.912C317.229 12.424 317.245 12.832 317.277 13.136C317.325 13.44 317.365 13.688 317.397 13.88C317.445 14.072 317.485 14.224 317.517 14.336C317.565 14.432 317.589 14.528 317.589 14.624C317.589 14.752 317.517 14.888 317.373 15.032C317.245 15.176 317.125 15.248 317.013 15.248C316.821 15.248 316.645 15.08 316.485 14.744C316.341 14.392 316.213 13.984 316.101 13.52C316.005 13.04 315.925 12.568 315.861 12.104C315.797 11.64 315.765 11.288 315.765 11.048C315.765 10.776 315.789 10.52 315.837 10.28C315.885 10.024 315.949 9.808 316.029 9.632C316.109 9.44 316.197 9.288 316.293 9.176C316.389 9.064 316.485 9.008 316.581 9.008C316.661 9.008 316.725 9.04 316.773 9.104C316.821 9.152 316.861 9.216 316.893 9.296C316.925 9.36 316.957 9.424 316.989 9.488C317.037 9.536 317.093 9.56 317.157 9.56C317.301 9.56 317.533 9.488 317.853 9.344C318.173 9.2 318.565 9.128 319.029 9.128C319.461 9.128 319.781 9.144 319.989 9.176C320.213 9.192 320.429 9.24 320.637 9.32C320.685 9.336 320.741 9.376 320.805 9.44C320.885 9.488 320.925 9.568 320.925 9.68ZM325.495 5.408C325.495 5.552 325.423 5.864 325.279 6.344C325.135 6.824 324.975 7.36 324.799 7.952C324.639 8.528 324.487 9.096 324.343 9.656C324.215 10.216 324.151 10.656 324.151 10.976C324.151 11.312 324.167 11.592 324.199 11.816C324.231 12.024 324.263 12.2 324.295 12.344C324.343 12.488 324.383 12.616 324.415 12.728C324.447 12.824 324.463 12.944 324.463 13.088C324.463 13.408 324.319 13.568 324.031 13.568C323.983 13.568 323.935 13.536 323.887 13.472C323.535 12.96 323.319 12.456 323.239 11.96C323.175 11.464 323.143 11.08 323.143 10.808C323.143 10.472 323.191 10.04 323.287 9.512C323.383 8.968 323.503 8.4 323.647 7.808C323.791 7.2 323.951 6.6 324.127 6.008C324.319 5.4 324.503 4.872 324.679 4.424C324.711 4.392 324.751 4.36 324.799 4.328C324.847 4.296 324.911 4.28 324.991 4.28C325.103 4.28 325.191 4.328 325.255 4.424C325.319 4.504 325.367 4.608 325.399 4.736C325.431 4.848 325.455 4.968 325.471 5.096C325.487 5.224 325.495 5.328 325.495 5.408ZM326.287 16.184C326.287 16.36 326.231 16.544 326.119 16.736C326.023 16.912 325.895 17 325.735 17C325.527 17 325.327 16.896 325.135 16.688C324.959 16.48 324.871 16.24 324.871 15.968C324.871 15.872 324.887 15.752 324.919 15.608C324.967 15.448 325.071 15.368 325.231 15.368C325.295 15.368 325.383 15.376 325.495 15.392C325.607 15.408 325.719 15.448 325.831 15.512C325.959 15.56 326.063 15.64 326.143 15.752C326.239 15.864 326.287 16.008 326.287 16.184ZM330.932 5.408C330.932 5.552 330.86 5.864 330.716 6.344C330.572 6.824 330.412 7.36 330.236 7.952C330.076 8.528 329.924 9.096 329.78 9.656C329.652 10.216 329.588 10.656 329.588 10.976C329.588 11.312 329.604 11.592 329.636 11.816C329.668 12.024 329.7 12.2 329.732 12.344C329.78 12.488 329.82 12.616 329.852 12.728C329.884 12.824 329.9 12.944 329.9 13.088C329.9 13.408 329.756 13.568 329.468 13.568C329.42 13.568 329.372 13.536 329.324 13.472C328.972 12.96 328.756 12.456 328.676 11.96C328.612 11.464 328.58 11.08 328.58 10.808C328.58 10.472 328.628 10.04 328.724 9.512C328.82 8.968 328.94 8.4 329.084 7.808C329.228 7.2 329.388 6.6 329.564 6.008C329.756 5.4 329.94 4.872 330.116 4.424C330.148 4.392 330.188 4.36 330.236 4.328C330.284 4.296 330.348 4.28 330.428 4.28C330.54 4.28 330.628 4.328 330.692 4.424C330.756 4.504 330.804 4.608 330.836 4.736C330.868 4.848 330.892 4.968 330.908 5.096C330.924 5.224 330.932 5.328 330.932 5.408ZM331.724 16.184C331.724 16.36 331.668 16.544 331.556 16.736C331.46 16.912 331.332 17 331.172 17C330.964 17 330.764 16.896 330.572 16.688C330.396 16.48 330.308 16.24 330.308 15.968C330.308 15.872 330.324 15.752 330.356 15.608C330.404 15.448 330.508 15.368 330.668 15.368C330.732 15.368 330.82 15.376 330.932 15.392C331.044 15.408 331.156 15.448 331.268 15.512C331.396 15.56 331.5 15.64 331.58 15.752C331.676 15.864 331.724 16.008 331.724 16.184Z" fill="#DD417C"/>
</svg>
