<svg width="360" height="353" viewBox="0 0 360 353" fill="none" xmlns="http://www.w3.org/2000/svg">
    <path d="M196.024 192.48C199.124 192.48 205.624 192.221 205.898 187.731C206.073 184.871 205.232 181.082 201.455 181.082C196.178 181.082 194.501 188.856 197.012 192.48" stroke="black" stroke-width="0.5" stroke-linecap="round" stroke-linejoin="round"/>
    <path d="M195.037 165.886C204.879 178.003 206.257 158.183 203.375 157.391C200.29 156.543 195.787 157.338 192.569 157.338C188.806 157.338 192 163.95 194.05 164.936" stroke="black" stroke-width="0.5" stroke-linecap="round" stroke-linejoin="round"/>
    <path d="M190.1 142.142C184.565 146.301 187.481 145.753 190.1 150.162C190.732 151.226 194.627 152.335 195.805 151.428C198.559 149.309 202.367 147.269 204.143 144.041C208.795 135.588 187.138 130.989 187.138 143.092" stroke="black" stroke-width="0.5" stroke-linecap="round" stroke-linejoin="round"/>
    <path d="M179.239 118.398C178.594 124.059 176.671 129.26 181.433 133.383C182.631 134.42 188.47 133.686 190.1 133.594C192.86 133.438 198.895 127.404 200.193 125.046C203.31 119.383 198.058 115.046 193.062 112.91C189.395 111.342 179.9 114.278 178.252 117.448" stroke="black" stroke-width="0.5" stroke-linecap="round" stroke-linejoin="round"/>
    <path d="M146.859 3.87686C133.425 3.87686 117.061 1.1826 105.825 8.43625C96.0444 14.7506 82.1716 9.05482 70.9442 11.0807C66.1281 11.9497 62.2498 13.9105 58.42 16.3696C53.5124 19.5207 46.4976 18.8348 40.5674 19.47C32.8365 20.2979 20.6993 21.5556 15.9584 27.6769C12.683 31.9059 12.9402 36.6054 8.43285 40.7623C2.29855 46.4196 -1.96081 49.1009 3.544 56.8113C7.68358 62.6095 11.3991 68.4165 11.3991 75.2768C11.3991 81.1623 21.7563 84.7657 26.9995 87.2224C32.213 89.6653 37.195 93.0089 43.2041 93.7423C54.3532 95.1032 64.8668 92.2467 75.0091 88.5902C78.2805 87.4109 85.2489 84.2823 89.0165 86.4473C93.7975 89.1947 98.0645 92.3878 104.122 93.1496C119.633 95.1002 134.895 91.5506 149.605 98.2105C156.94 101.531 164.609 100.501 172.566 98.6665C179.267 97.1215 184.595 98.3922 189.375 102.36C196.041 107.893 208.896 106.115 217.006 103.591C232.303 98.8291 251.504 98.7222 267.597 99.0768C276.917 99.2822 292.898 107.53 301.105 100.718C305.729 96.8797 309.161 94.3157 315.387 92.101C321.682 89.8616 328.306 88.6706 334.228 85.4899C339.849 82.4708 346.581 80.4182 349.334 75.2768C351.16 71.8673 350.937 68.2596 353.509 64.7902C356.13 61.2542 354.498 54.7299 354.498 50.6562C354.498 46.5529 355.611 40.0645 349.554 38.5282C341.858 36.5764 332.635 33.0096 330.767 26.0355C327.943 15.4878 307.882 16.9779 298.138 14.9562C290.685 13.4095 282.816 11.3293 275.177 10.6248C266.777 9.85001 258.24 11.0556 249.854 10.032C245.077 9.44891 244.974 8.62566 241.999 6.15656C238.077 2.90076 232.492 3.05617 227.278 3.05617C217.646 3.05617 208.015 3.05617 198.384 3.05617C194.424 3.05617 187.148 4.25759 183.443 2.8738C176.943 0.446225 172.729 1.20377 165.865 1.41479C163.502 1.48742 155.911 0.328235 154 1.59717C152.241 2.76529 148.251 3.87686 145.87 3.87686" stroke="black" stroke-width="0.5" stroke-linecap="round" stroke-linejoin="round"/>
    <path d="M26.6865 64.296C26.7185 64.392 26.7505 64.48 26.7825 64.56C26.8145 64.64 26.8385 64.728 26.8545 64.824C26.8865 64.92 26.9025 65.008 26.9025 65.088C26.9025 65.2 26.8625 65.288 26.7825 65.352C26.7025 65.432 26.6065 65.496 26.4945 65.544C26.3985 65.592 26.3025 65.624 26.2065 65.64C26.1105 65.656 26.0545 65.664 26.0385 65.664C25.9425 65.664 25.7665 65.368 25.5105 64.776C25.2545 64.2 24.9745 63.384 24.6705 62.328C24.3825 61.272 24.0865 60.016 23.7825 58.56C23.4785 57.104 23.2305 55.504 23.0385 53.76C23.0065 54.128 22.9425 54.56 22.8465 55.056C22.7665 55.536 22.6385 55.992 22.4625 56.424C22.2865 56.856 22.0545 57.224 21.7665 57.528C21.4945 57.816 21.1425 57.96 20.7105 57.96C20.4065 57.96 20.0625 57.8 19.6785 57.48C19.2945 57.16 18.9185 56.784 18.5505 56.352C18.1985 55.904 17.8705 55.456 17.5665 55.008C17.2785 54.544 17.0625 54.168 16.9185 53.88C16.9825 54.584 17.0865 55.432 17.2305 56.424C17.3905 57.416 17.6305 58.464 17.9505 59.568C17.9825 59.68 18.0145 59.768 18.0465 59.832C18.0945 59.88 18.1345 59.936 18.1665 60C18.2145 60.064 18.2465 60.136 18.2625 60.216C18.2945 60.28 18.3105 60.384 18.3105 60.528C18.3105 60.736 18.2305 60.888 18.0705 60.984C17.9105 61.08 17.7585 61.128 17.6145 61.128C17.5345 61.128 17.4305 61.008 17.3025 60.768C17.1745 60.512 17.0385 60.184 16.8945 59.784C16.7505 59.384 16.6065 58.944 16.4625 58.464C16.3185 57.968 16.1825 57.48 16.0545 57C15.9425 56.52 15.8465 56.072 15.7665 55.656C15.6865 55.224 15.6465 54.88 15.6465 54.624C15.6465 54.208 15.6625 53.92 15.6945 53.76C15.7425 53.6 15.8065 53.48 15.8865 53.4V51.936C15.8865 51.712 15.9425 51.544 16.0545 51.432C16.1825 51.304 16.3425 51.24 16.5345 51.24C16.6945 51.24 16.8785 51.376 17.0865 51.648C17.2945 51.92 17.5185 52.264 17.7585 52.68C18.0145 53.096 18.2785 53.544 18.5505 54.024C18.8225 54.504 19.0865 54.952 19.3425 55.368C19.6145 55.784 19.8705 56.128 20.1105 56.4C20.3665 56.672 20.6065 56.808 20.8305 56.808C21.0385 56.808 21.2385 56.616 21.4305 56.232C21.6225 55.832 21.7985 55.312 21.9585 54.672C22.1345 54.032 22.2865 53.304 22.4145 52.488C22.5425 51.672 22.6465 50.84 22.7265 49.992C22.7265 49.896 22.7185 49.792 22.7025 49.68C22.6865 49.552 22.6785 49.416 22.6785 49.272C22.6785 49.08 22.7185 48.872 22.7985 48.648C22.8945 48.424 23.0705 48.312 23.3265 48.312C23.4705 48.312 23.5825 48.352 23.6625 48.432C23.7585 48.512 23.8225 48.616 23.8545 48.744C23.8865 48.856 23.9025 48.976 23.9025 49.104C23.9185 49.216 23.9265 49.312 23.9265 49.392C23.9265 49.52 23.9105 49.736 23.8785 50.04C23.8625 50.328 23.8545 50.776 23.8545 51.384C23.8545 51.912 23.8945 52.528 23.9745 53.232C24.0545 53.92 24.1585 54.656 24.2865 55.44C24.4305 56.208 24.5905 57.008 24.7665 57.84C24.9585 58.656 25.1585 59.456 25.3665 60.24C25.5905 61.024 25.8065 61.768 26.0145 62.472C26.2385 63.16 26.4625 63.768 26.6865 64.296ZM32.5112 51.768C32.3032 52.872 32.1112 53.936 31.9352 54.96C31.8552 55.392 31.7752 55.848 31.6952 56.328C31.6152 56.792 31.5352 57.256 31.4552 57.72C31.3912 58.168 31.3272 58.6 31.2632 59.016C31.2152 59.416 31.1752 59.784 31.1432 60.12C31.0792 60.632 31.0312 61.216 30.9992 61.872C30.9672 62.528 30.9352 63.152 30.9032 63.744C30.8712 64.432 30.8552 65.128 30.8552 65.832C30.8552 65.976 30.8392 66.136 30.8072 66.312C30.7752 66.488 30.7592 66.664 30.7592 66.84C30.7592 67 30.7192 67.136 30.6392 67.248C30.5752 67.36 30.4712 67.416 30.3272 67.416C30.1992 67.416 30.0952 67.312 30.0152 67.104C29.9512 66.912 29.8952 66.68 29.8472 66.408C29.7992 66.152 29.7672 65.888 29.7512 65.616C29.7352 65.36 29.7272 65.176 29.7272 65.064C29.7272 64.936 29.7272 64.776 29.7272 64.584C29.7272 64.408 29.7352 64.136 29.7512 63.768C29.7832 63.416 29.8232 62.952 29.8712 62.376C29.9192 61.784 29.9912 61.016 30.0872 60.072C30.0872 60.056 29.9752 59.976 29.7512 59.832C29.5432 59.688 29.2792 59.512 28.9592 59.304C28.6552 59.08 28.3352 58.84 27.9992 58.584C27.6792 58.328 27.4072 58.08 27.1832 57.84C27.1512 57.808 27.1032 57.736 27.0392 57.624C26.9752 57.512 26.9432 57.376 26.9432 57.216C26.9432 57.136 26.9832 57.056 27.0632 56.976C27.1432 56.88 27.2312 56.832 27.3272 56.832C27.3912 56.832 27.4552 56.864 27.5192 56.928C27.8872 57.248 28.3112 57.608 28.7912 58.008C29.2712 58.392 29.7432 58.744 30.2072 59.064C30.2392 58.776 30.3032 58.336 30.3992 57.744C30.5112 57.152 30.6232 56.52 30.7352 55.848C30.8472 55.16 30.9512 54.496 31.0472 53.856C31.1592 53.216 31.2392 52.704 31.2872 52.32C31.2872 52.256 31.3032 52.152 31.3352 52.008C31.3672 51.864 31.4152 51.72 31.4792 51.576C31.5432 51.432 31.6152 51.312 31.6952 51.216C31.7752 51.104 31.8632 51.048 31.9592 51.048C32.0072 51.048 32.1112 51.096 32.2712 51.192C32.4312 51.272 32.5112 51.464 32.5112 51.768ZM53.7821 57.384C53.7821 57.704 53.7581 58.008 53.7101 58.296C53.6781 58.584 53.5901 58.88 53.4461 59.184C53.3181 59.472 53.1341 59.784 52.8941 60.12C52.6541 60.456 52.3421 60.84 51.9581 61.272C51.4941 61.784 50.9501 62.24 50.3261 62.64C49.7021 63.04 49.0061 63.24 48.2381 63.24C47.7581 63.24 47.2781 63.16 46.7981 63C46.3341 62.84 45.9181 62.6 45.5501 62.28C45.1981 61.96 44.9101 61.56 44.6861 61.08C44.4621 60.6 44.3501 60.04 44.3501 59.4C44.3501 58.376 44.5421 57.304 44.9261 56.184C45.3101 55.048 45.8461 53.832 46.5341 52.536C46.9821 51.688 47.3981 50.944 47.7821 50.304C48.1661 49.648 48.5421 49.104 48.9101 48.672C49.2781 48.224 49.6461 47.888 50.0141 47.664C50.3821 47.44 50.7741 47.328 51.1901 47.328C51.5101 47.328 51.7821 47.392 52.0061 47.52C52.2461 47.632 52.3661 47.864 52.3661 48.216C52.3661 48.328 52.3421 48.432 52.2941 48.528C52.2461 48.608 52.1741 48.648 52.0781 48.648C51.9501 48.648 51.8541 48.616 51.7901 48.552C51.7421 48.472 51.5901 48.432 51.3341 48.432C50.9021 48.432 50.4781 48.632 50.0621 49.032C49.6461 49.432 49.2541 49.896 48.8861 50.424C48.5341 50.936 48.2221 51.448 47.9501 51.96C47.6941 52.472 47.5101 52.848 47.3981 53.088C47.2061 53.488 46.9901 53.96 46.7501 54.504C46.5261 55.048 46.3101 55.608 46.1021 56.184C45.8941 56.76 45.7181 57.32 45.5741 57.864C45.4301 58.392 45.3581 58.832 45.3581 59.184C45.3581 59.632 45.4301 60.032 45.5741 60.384C45.7341 60.72 45.9421 61.008 46.1981 61.248C46.4541 61.488 46.7501 61.672 47.0861 61.8C47.4381 61.912 47.8061 61.968 48.1901 61.968C48.7181 61.968 49.2541 61.84 49.7981 61.584C50.3581 61.328 50.8541 60.992 51.2861 60.576C51.7341 60.16 52.0941 59.68 52.3661 59.136C52.6541 58.592 52.7981 58.04 52.7981 57.48C52.7981 56.92 52.6541 56.456 52.3661 56.088C52.0781 55.72 51.7581 55.536 51.4061 55.536C51.1821 55.536 51.0221 55.576 50.9261 55.656C50.8461 55.72 50.7661 55.808 50.6861 55.92C50.5741 56.096 50.4701 56.24 50.3741 56.352C50.2781 56.464 50.1101 56.56 49.8701 56.64C49.4861 56.768 49.1821 56.864 48.9581 56.928C48.7501 56.976 48.5981 57.016 48.5021 57.048L48.3101 57.096C48.2141 57.096 48.0781 57.032 47.9021 56.904C47.7421 56.76 47.6621 56.648 47.6621 56.568C47.6621 56.28 47.8301 56.008 48.1661 55.752C48.5181 55.48 48.9101 55.24 49.3421 55.032C49.7741 54.808 50.1901 54.632 50.5901 54.504C50.9901 54.376 51.2381 54.312 51.3341 54.312C51.8141 54.312 52.2061 54.408 52.5101 54.6C52.8301 54.792 53.0781 55.04 53.2541 55.344C53.4461 55.648 53.5821 55.984 53.6621 56.352C53.7421 56.704 53.7821 57.048 53.7821 57.384ZM59.7755 57.816C59.7755 58.168 59.7275 58.504 59.6315 58.824C59.5355 59.144 59.4075 59.424 59.2475 59.664C59.0875 59.904 58.8955 60.096 58.6715 60.24C58.4635 60.368 58.2315 60.432 57.9755 60.432C57.5275 60.432 57.1755 60.304 56.9195 60.048C56.6635 59.792 56.4635 59.496 56.3195 59.16C56.1915 58.824 56.1035 58.488 56.0555 58.152C56.0235 57.8 56.0075 57.536 56.0075 57.36C56.0075 57.072 56.0475 56.752 56.1275 56.4C56.2235 56.032 56.3435 55.696 56.4875 55.392C56.6475 55.088 56.8235 54.832 57.0155 54.624C57.2075 54.416 57.4075 54.312 57.6155 54.312C57.6635 54.312 57.7355 54.328 57.8315 54.36C57.9435 54.392 58.0555 54.44 58.1675 54.504C58.2795 54.568 58.3755 54.648 58.4555 54.744C58.5515 54.84 58.6155 54.952 58.6475 55.08C58.8235 55.096 58.9995 55.16 59.1755 55.272C59.3515 55.384 59.4475 55.472 59.4635 55.536C59.5915 55.952 59.6715 56.368 59.7035 56.784C59.7515 57.2 59.7755 57.544 59.7755 57.816ZM58.6955 57.384C58.6955 57.144 58.6715 56.896 58.6235 56.64C58.5755 56.368 58.4795 56.096 58.3355 55.824C58.3035 55.84 58.2635 55.848 58.2155 55.848C58.1515 55.848 58.0955 55.84 58.0475 55.824C58.0155 55.808 57.9835 55.8 57.9515 55.8C57.7595 55.8 57.6075 55.856 57.4955 55.968C57.3835 56.064 57.2955 56.2 57.2315 56.376C57.1835 56.536 57.1515 56.712 57.1355 56.904C57.1195 57.096 57.1115 57.28 57.1115 57.456C57.1115 57.632 57.1195 57.832 57.1355 58.056C57.1515 58.264 57.1835 58.464 57.2315 58.656C57.2955 58.848 57.3755 59.016 57.4715 59.16C57.5675 59.288 57.6955 59.352 57.8555 59.352C58.0155 59.352 58.1515 59.272 58.2635 59.112C58.3755 58.936 58.4635 58.736 58.5275 58.512C58.5915 58.288 58.6315 58.072 58.6475 57.864C58.6795 57.64 58.6955 57.48 58.6955 57.384ZM67.6061 59.832C67.6061 60.104 67.5101 60.344 67.3181 60.552C67.1421 60.744 66.9101 60.912 66.6221 61.056C66.3501 61.184 66.0461 61.288 65.7101 61.368C65.3741 61.448 65.0541 61.512 64.7501 61.56C64.4461 61.592 64.1741 61.616 63.9341 61.632C63.7101 61.632 63.5661 61.632 63.5021 61.632C63.1501 61.632 62.8781 61.576 62.6861 61.464C62.4941 61.352 62.3981 61.152 62.3981 60.864C62.3981 60.768 62.4061 60.688 62.4221 60.624C62.4381 60.544 62.5021 60.504 62.6141 60.504C62.6621 60.504 62.7421 60.52 62.8541 60.552C62.9661 60.568 63.0541 60.576 63.1181 60.576C63.1821 60.576 63.3821 60.568 63.7181 60.552C64.0701 60.52 64.4381 60.472 64.8221 60.408C65.2221 60.344 65.5741 60.256 65.8781 60.144C66.1981 60.016 66.3581 59.856 66.3581 59.664C66.3581 59.632 66.1901 59.536 65.8541 59.376C65.5341 59.2 65.0461 58.912 64.3901 58.512C63.8781 58.192 63.5181 57.872 63.3101 57.552C63.1021 57.216 62.9981 56.768 62.9981 56.208C62.9981 55.856 63.0701 55.568 63.2141 55.344C63.3741 55.12 63.5821 54.944 63.8381 54.816C64.1101 54.688 64.4141 54.6 64.7501 54.552C65.1021 54.488 65.4701 54.456 65.8541 54.456C65.8861 54.456 65.9821 54.472 66.1421 54.504C66.3181 54.536 66.5021 54.592 66.6941 54.672C66.8861 54.736 67.0541 54.824 67.1981 54.936C67.3581 55.032 67.4381 55.144 67.4381 55.272C67.4381 55.304 67.4061 55.352 67.3421 55.416C67.2941 55.48 67.2061 55.6 67.0781 55.776C67.0301 55.76 66.9421 55.736 66.8141 55.704C66.7021 55.672 66.5661 55.64 66.4061 55.608C66.2621 55.56 66.1101 55.528 65.9501 55.512C65.7901 55.48 65.6621 55.464 65.5661 55.464C65.1501 55.464 64.8141 55.544 64.5581 55.704C64.3021 55.848 64.1741 56.136 64.1741 56.568C64.1741 56.776 64.2541 56.968 64.4141 57.144C64.5901 57.32 64.8061 57.488 65.0621 57.648C65.3181 57.792 65.5901 57.944 65.8781 58.104C66.1821 58.248 66.4621 58.408 66.7181 58.584C66.9741 58.76 67.1821 58.952 67.3421 59.16C67.5181 59.352 67.6061 59.576 67.6061 59.832ZM77.3392 58.56C77.4192 58.64 77.4592 58.688 77.4592 58.704C77.4592 58.736 77.4112 58.832 77.3152 58.992C77.2352 59.152 77.1232 59.32 76.9792 59.496C76.8352 59.672 76.6752 59.832 76.4992 59.976C76.3392 60.104 76.1792 60.168 76.0192 60.168C75.6832 60.168 75.4112 60.104 75.2032 59.976C74.9952 59.832 74.8192 59.656 74.6752 59.448C74.5472 59.24 74.4432 59.016 74.3632 58.776C74.2992 58.52 74.2432 58.28 74.1952 58.056C74.1632 57.944 74.1312 57.888 74.0992 57.888C74.0512 57.888 73.9552 58.064 73.8112 58.416C73.6672 58.752 73.5072 59.128 73.3312 59.544C73.1712 59.944 73.0112 60.32 72.8512 60.672C72.7072 61.008 72.6112 61.176 72.5632 61.176C72.2752 61.176 72.0272 61.056 71.8192 60.816C71.6272 60.56 71.4672 60.272 71.3392 59.952C71.2272 59.616 71.1392 59.28 71.0752 58.944C71.0112 58.592 70.9712 58.32 70.9552 58.128C70.9072 57.696 70.8032 56.976 70.6432 55.968C70.4832 54.96 70.3472 53.736 70.2352 52.296C70.2032 51.992 70.1632 51.72 70.1152 51.48C70.0832 51.224 70.0432 50.944 69.9952 50.64C69.9472 50.336 69.9072 49.992 69.8752 49.608C69.8432 49.224 69.8272 48.752 69.8272 48.192C69.8272 48.16 69.8352 48.056 69.8512 47.88C69.8672 47.704 69.8912 47.512 69.9232 47.304C69.9552 47.096 70.0032 46.912 70.0672 46.752C70.1472 46.592 70.2352 46.512 70.3312 46.512C70.4432 46.512 70.5472 46.584 70.6432 46.728C70.7392 46.856 70.8192 47.008 70.8832 47.184C70.9632 47.36 71.0192 47.528 71.0512 47.688C71.0832 47.848 71.0992 47.96 71.0992 48.024C71.0992 48.264 71.0832 48.488 71.0512 48.696C71.0192 48.904 71.0032 49.096 71.0032 49.272C71.0032 49.512 71.0192 49.816 71.0512 50.184C71.0992 50.552 71.1552 50.928 71.2192 51.312C71.2832 51.696 71.3392 52.072 71.3872 52.44C71.4352 52.792 71.4752 53.08 71.5072 53.304C71.5072 53.32 71.5232 53.432 71.5552 53.64C71.5872 53.848 71.6192 54.112 71.6512 54.432C71.6992 54.736 71.7392 55.072 71.7712 55.44C71.8192 55.792 71.8672 56.144 71.9152 56.496C71.9632 56.832 72.0032 57.136 72.0352 57.408C72.0832 57.664 72.1152 57.848 72.1312 57.96C72.1312 58.008 72.1392 58.08 72.1552 58.176C72.1872 58.256 72.2112 58.352 72.2272 58.464C72.2592 58.576 72.2912 58.68 72.3232 58.776C72.3552 58.872 72.3952 58.944 72.4432 58.992C72.5392 58.8 72.6592 58.504 72.8032 58.104C72.9632 57.704 73.1232 57.296 73.2832 56.88C73.4592 56.464 73.6192 56.104 73.7632 55.8C73.9232 55.48 74.0592 55.32 74.1712 55.32C74.2992 55.32 74.4032 55.344 74.4832 55.392C74.5632 55.44 74.6672 55.48 74.7952 55.512C74.9552 55.576 75.0352 55.664 75.0352 55.776C75.0352 55.872 75.0512 55.992 75.0832 56.136C75.1152 56.328 75.1632 56.584 75.2272 56.904C75.3072 57.208 75.3952 57.512 75.4912 57.816C75.5872 58.104 75.6992 58.352 75.8272 58.56C75.9552 58.768 76.0832 58.872 76.2112 58.872C76.2752 58.872 76.3632 58.792 76.4752 58.632C76.5872 58.456 76.7392 58.36 76.9312 58.344C76.9632 58.344 77.0192 58.368 77.0992 58.416C77.1792 58.448 77.2592 58.496 77.3392 58.56ZM80.4062 61.464C80.4062 61.56 80.3582 61.656 80.2622 61.752C80.1662 61.832 80.0542 61.912 79.9262 61.992C79.8142 62.056 79.7022 62.112 79.5902 62.16C79.4782 62.192 79.4142 62.208 79.3982 62.208C79.2542 62.208 79.1422 62.176 79.0622 62.112C78.9982 62.032 78.9422 61.952 78.8942 61.872C78.8622 61.776 78.8382 61.688 78.8222 61.608C78.8222 61.528 78.8222 61.472 78.8222 61.44C78.8222 61.376 78.8382 61.296 78.8702 61.2C78.9022 61.088 78.9502 60.984 79.0142 60.888C79.0782 60.792 79.1502 60.712 79.2302 60.648C79.3262 60.568 79.4302 60.528 79.5422 60.528C79.7502 60.528 79.9422 60.616 80.1182 60.792C80.3102 60.968 80.4062 61.192 80.4062 61.464ZM83.7343 61.464C83.7343 61.56 83.6863 61.656 83.5903 61.752C83.4943 61.832 83.3823 61.912 83.2543 61.992C83.1423 62.056 83.0303 62.112 82.9183 62.16C82.8063 62.192 82.7423 62.208 82.7263 62.208C82.5823 62.208 82.4703 62.176 82.3903 62.112C82.3263 62.032 82.2703 61.952 82.2223 61.872C82.1903 61.776 82.1663 61.688 82.1503 61.608C82.1503 61.528 82.1503 61.472 82.1503 61.44C82.1503 61.376 82.1663 61.296 82.1983 61.2C82.2303 61.088 82.2783 60.984 82.3423 60.888C82.4063 60.792 82.4783 60.712 82.5583 60.648C82.6543 60.568 82.7583 60.528 82.8703 60.528C83.0783 60.528 83.2703 60.616 83.4463 60.792C83.6383 60.968 83.7343 61.192 83.7343 61.464ZM87.0624 61.464C87.0624 61.56 87.0144 61.656 86.9184 61.752C86.8224 61.832 86.7104 61.912 86.5824 61.992C86.4704 62.056 86.3584 62.112 86.2464 62.16C86.1344 62.192 86.0704 62.208 86.0544 62.208C85.9104 62.208 85.7984 62.176 85.7184 62.112C85.6544 62.032 85.5984 61.952 85.5504 61.872C85.5184 61.776 85.4944 61.688 85.4784 61.608C85.4784 61.528 85.4784 61.472 85.4784 61.44C85.4784 61.376 85.4944 61.296 85.5264 61.2C85.5584 61.088 85.6064 60.984 85.6704 60.888C85.7344 60.792 85.8064 60.712 85.8864 60.648C85.9824 60.568 86.0864 60.528 86.1984 60.528C86.4064 60.528 86.5984 60.616 86.7744 60.792C86.9664 60.968 87.0624 61.192 87.0624 61.464ZM110.12 59.568C110.12 59.872 109.936 60.096 109.568 60.24C109.2 60.384 108.768 60.536 108.272 60.696C107.792 60.84 107.328 60.976 106.88 61.104C106.432 61.216 106.032 61.328 105.68 61.44C105.344 61.536 105.136 61.608 105.056 61.656C105.056 61.688 105.056 61.728 105.056 61.776C105.056 61.824 105.064 61.872 105.08 61.92L105.152 62.496C105.152 62.64 105.128 62.752 105.08 62.832C105.048 62.912 104.968 62.952 104.84 62.952C104.696 62.952 104.592 62.912 104.528 62.832C104.48 62.736 104.432 62.632 104.384 62.52C104.352 62.392 104.32 62.264 104.288 62.136C104.272 62.008 104.232 61.912 104.168 61.848C104.136 61.848 104.008 61.88 103.784 61.944C103.56 62.008 103.272 62.088 102.92 62.184C102.584 62.28 102.2 62.392 101.768 62.52C101.352 62.632 100.944 62.736 100.544 62.832C100.144 62.928 99.768 63.008 99.416 63.072C99.064 63.136 98.792 63.168 98.6 63.168C98.168 63.168 97.952 63.032 97.952 62.76C97.952 62.552 98.008 62.4 98.12 62.304C98.248 62.208 98.392 62.136 98.552 62.088C98.584 62.072 98.736 62.032 99.008 61.968C99.296 61.904 99.64 61.832 100.04 61.752C100.44 61.656 100.864 61.552 101.312 61.44C101.776 61.328 102.2 61.224 102.584 61.128C102.984 61.032 103.304 60.944 103.544 60.864C103.8 60.784 103.928 60.728 103.928 60.696C103.928 60.6 103.888 60.424 103.808 60.168C103.744 59.912 103.68 59.672 103.616 59.448L103.472 58.968C103.248 57.944 103.072 56.912 102.944 55.872C102.816 54.832 102.712 53.808 102.632 52.8C102.6 52.768 102.56 52.752 102.512 52.752C102.432 52.752 102.224 52.832 101.888 52.992C101.552 53.152 101.192 53.328 100.808 53.52C100.424 53.696 100.064 53.864 99.728 54.024C99.408 54.184 99.216 54.264 99.152 54.264C99.04 54.264 98.928 54.216 98.816 54.12C98.72 54.024 98.672 53.928 98.672 53.832C98.672 53.704 98.776 53.56 98.984 53.4C99.192 53.224 99.448 53.048 99.752 52.872C100.072 52.68 100.416 52.504 100.784 52.344C101.168 52.168 101.528 52.016 101.864 51.888C102.216 51.744 102.512 51.632 102.752 51.552C103.008 51.472 103.176 51.432 103.256 51.432C103.384 51.432 103.552 51.408 103.76 51.36C103.968 51.312 104.192 51.256 104.432 51.192C104.672 51.128 104.912 51.072 105.152 51.024C105.408 50.976 105.632 50.952 105.824 50.952C106.032 50.952 106.136 51.024 106.136 51.168C106.136 51.248 106.104 51.312 106.04 51.36L105.344 51.552C105.168 51.6 104.976 51.656 104.768 51.72C104.576 51.768 104.392 51.832 104.216 51.912C104.056 51.976 103.92 52.056 103.808 52.152C103.712 52.232 103.664 52.32 103.664 52.416C103.664 52.816 103.704 53.344 103.784 54C103.88 54.64 103.984 55.336 104.096 56.088C104.224 56.824 104.36 57.576 104.504 58.344C104.648 59.112 104.768 59.832 104.864 60.504L109.16 59.4C109.256 59.384 109.352 59.36 109.448 59.328C109.528 59.296 109.608 59.272 109.688 59.256C109.768 59.24 109.84 59.232 109.904 59.232C110.048 59.232 110.12 59.344 110.12 59.568ZM117.597 52.152C117.389 52.392 117.093 52.632 116.709 52.872C116.325 53.096 115.941 53.304 115.557 53.496C115.173 53.688 114.837 53.856 114.549 54C114.261 54.128 114.117 54.216 114.117 54.264C114.117 54.312 114.149 54.456 114.213 54.696C114.277 54.936 114.349 55.224 114.429 55.56C114.525 55.88 114.621 56.216 114.717 56.568C114.813 56.92 114.893 57.232 114.957 57.504C114.989 57.664 115.029 57.872 115.077 58.128C115.125 58.384 115.165 58.64 115.197 58.896C115.245 59.152 115.285 59.384 115.317 59.592C115.349 59.784 115.365 59.888 115.365 59.904C115.365 60.144 115.325 60.392 115.245 60.648C115.165 60.904 115.037 61.032 114.861 61.032C114.765 61.032 114.677 60.992 114.597 60.912C114.517 60.832 114.445 60.744 114.381 60.648C114.317 60.536 114.269 60.432 114.237 60.336C114.205 60.24 114.189 60.168 114.189 60.12C114.189 60.088 114.189 60.04 114.189 59.976C114.205 59.912 114.213 59.84 114.213 59.76C114.213 59.456 114.165 59.016 114.069 58.44C114.037 58.264 113.973 57.992 113.877 57.624C113.781 57.256 113.685 56.88 113.589 56.496C113.477 56.048 113.349 55.56 113.205 55.032C113.141 54.808 113.101 54.696 113.085 54.696C112.973 54.696 112.781 54.768 112.509 54.912C112.253 55.04 111.957 55.208 111.621 55.416C111.285 55.608 110.933 55.824 110.565 56.064C110.197 56.288 109.853 56.504 109.533 56.712C109.213 56.904 108.941 57.072 108.717 57.216C108.477 57.344 108.333 57.408 108.285 57.408C108.077 57.408 107.909 57.336 107.781 57.192C107.653 57.048 107.589 56.888 107.589 56.712C107.589 56.616 107.725 56.48 107.997 56.304C108.253 56.112 108.581 55.904 108.981 55.68C109.365 55.456 109.789 55.224 110.253 54.984C110.701 54.744 111.117 54.528 111.501 54.336C111.901 54.144 112.229 53.984 112.485 53.856C112.757 53.728 112.893 53.664 112.893 53.664C112.749 52.928 112.629 52.272 112.533 51.696C112.453 51.2 112.373 50.744 112.293 50.328C112.229 49.912 112.197 49.688 112.197 49.656C112.197 49.448 112.237 49.296 112.317 49.2C112.413 49.088 112.517 49.032 112.629 49.032C112.805 49.032 112.917 49.152 112.965 49.392C113.141 50.256 113.301 51.024 113.445 51.696C113.605 52.368 113.757 52.912 113.901 53.328C114.045 53.296 114.293 53.208 114.645 53.064C114.997 52.904 115.365 52.736 115.749 52.56C116.133 52.384 116.477 52.232 116.781 52.104C117.101 51.96 117.285 51.888 117.333 51.888C117.429 51.888 117.485 51.92 117.501 51.984C117.533 52.048 117.565 52.104 117.597 52.152ZM120.749 55.8C120.749 56.088 120.685 56.352 120.557 56.592C120.445 56.832 120.309 57.04 120.149 57.216C119.989 57.376 119.837 57.504 119.693 57.6C119.549 57.696 119.445 57.744 119.381 57.744C119.333 57.744 119.269 57.712 119.189 57.648C119.125 57.568 119.093 57.48 119.093 57.384C119.093 57.368 119.125 57.312 119.189 57.216C119.253 57.12 119.325 57.008 119.405 56.88C119.501 56.736 119.581 56.576 119.645 56.4C119.709 56.208 119.741 56.008 119.741 55.8C119.741 55.384 119.701 55.016 119.621 54.696C119.541 54.36 119.437 54.032 119.309 53.712C119.293 53.664 119.269 53.608 119.237 53.544C119.221 53.48 119.213 53.432 119.213 53.4C119.213 53.288 119.245 53.216 119.309 53.184C119.389 53.152 119.469 53.136 119.549 53.136C119.661 53.136 119.789 53.24 119.933 53.448C120.077 53.64 120.205 53.872 120.317 54.144C120.445 54.416 120.549 54.712 120.629 55.032C120.709 55.336 120.749 55.592 120.749 55.8ZM127.981 59.832C127.981 60.104 127.885 60.344 127.693 60.552C127.517 60.744 127.285 60.912 126.997 61.056C126.725 61.184 126.421 61.288 126.085 61.368C125.749 61.448 125.429 61.512 125.125 61.56C124.821 61.592 124.549 61.616 124.309 61.632C124.085 61.632 123.941 61.632 123.877 61.632C123.525 61.632 123.253 61.576 123.061 61.464C122.869 61.352 122.773 61.152 122.773 60.864C122.773 60.768 122.781 60.688 122.797 60.624C122.813 60.544 122.877 60.504 122.989 60.504C123.037 60.504 123.117 60.52 123.229 60.552C123.341 60.568 123.429 60.576 123.493 60.576C123.557 60.576 123.757 60.568 124.093 60.552C124.445 60.52 124.813 60.472 125.197 60.408C125.597 60.344 125.949 60.256 126.253 60.144C126.573 60.016 126.733 59.856 126.733 59.664C126.733 59.632 126.565 59.536 126.229 59.376C125.909 59.2 125.421 58.912 124.765 58.512C124.253 58.192 123.893 57.872 123.685 57.552C123.477 57.216 123.373 56.768 123.373 56.208C123.373 55.856 123.445 55.568 123.589 55.344C123.749 55.12 123.957 54.944 124.213 54.816C124.485 54.688 124.789 54.6 125.125 54.552C125.477 54.488 125.845 54.456 126.229 54.456C126.261 54.456 126.357 54.472 126.517 54.504C126.693 54.536 126.877 54.592 127.069 54.672C127.261 54.736 127.429 54.824 127.573 54.936C127.733 55.032 127.813 55.144 127.813 55.272C127.813 55.304 127.781 55.352 127.717 55.416C127.669 55.48 127.581 55.6 127.453 55.776C127.405 55.76 127.317 55.736 127.189 55.704C127.077 55.672 126.941 55.64 126.781 55.608C126.637 55.56 126.485 55.528 126.325 55.512C126.165 55.48 126.037 55.464 125.941 55.464C125.525 55.464 125.189 55.544 124.933 55.704C124.677 55.848 124.549 56.136 124.549 56.568C124.549 56.776 124.629 56.968 124.789 57.144C124.965 57.32 125.181 57.488 125.437 57.648C125.693 57.792 125.965 57.944 126.253 58.104C126.557 58.248 126.837 58.408 127.093 58.584C127.349 58.76 127.557 58.952 127.717 59.16C127.893 59.352 127.981 59.576 127.981 59.832ZM143.164 62.304C143.164 62.432 143.116 62.528 143.02 62.592C142.924 62.656 142.812 62.688 142.684 62.688C142.54 62.688 142.388 62.552 142.228 62.28C142.084 62.008 141.94 61.664 141.796 61.248C141.652 60.832 141.516 60.384 141.388 59.904C141.26 59.408 141.148 58.952 141.052 58.536C140.956 58.104 140.876 57.744 140.812 57.456C140.764 57.168 140.74 57.008 140.74 56.976C140.74 56.912 140.708 56.744 140.644 56.472C140.596 56.2 140.524 55.776 140.428 55.2C140.348 54.624 140.252 53.88 140.14 52.968C140.044 52.04 139.94 50.896 139.828 49.536C139.828 49.392 139.852 49.208 139.9 48.984C139.948 48.76 140.06 48.648 140.236 48.648C140.46 48.648 140.628 48.8 140.74 49.104C140.868 49.408 140.964 49.784 141.028 50.232C141.108 50.68 141.164 51.152 141.196 51.648C141.228 52.128 141.268 52.552 141.316 52.92C141.38 53.432 141.436 53.896 141.484 54.312C141.548 54.728 141.604 55.144 141.652 55.56C141.716 55.96 141.788 56.384 141.868 56.832C141.964 57.28 142.076 57.776 142.204 58.32L143.164 62.304ZM146.45 51.96C146.45 51.992 146.394 52.056 146.282 52.152C146.17 52.248 146.034 52.352 145.874 52.464C145.73 52.56 145.578 52.648 145.418 52.728C145.258 52.808 145.13 52.848 145.034 52.848C144.97 52.848 144.882 52.848 144.77 52.848C144.674 52.832 144.57 52.8 144.458 52.752C144.362 52.704 144.274 52.64 144.194 52.56C144.114 52.464 144.074 52.344 144.074 52.2C144.074 51.976 144.154 51.768 144.314 51.576C144.474 51.368 144.682 51.264 144.938 51.264C144.986 51.264 145.09 51.288 145.25 51.336C145.426 51.368 145.602 51.416 145.778 51.48C145.954 51.544 146.106 51.616 146.234 51.696C146.378 51.776 146.45 51.864 146.45 51.96ZM147.242 60.936C147.242 61.048 147.154 61.144 146.978 61.224C146.818 61.304 146.698 61.344 146.618 61.344C146.458 61.344 146.314 61.24 146.186 61.032C146.058 60.824 145.946 60.584 145.85 60.312C145.754 60.04 145.674 59.784 145.61 59.544C145.546 59.288 145.498 59.112 145.466 59.016C145.418 58.856 145.354 58.664 145.274 58.44C145.194 58.216 145.114 58 145.034 57.792C144.97 57.584 144.914 57.4 144.866 57.24C144.818 57.08 144.794 56.992 144.794 56.976C144.794 56.752 144.834 56.544 144.914 56.352C145.01 56.16 145.122 56.064 145.25 56.064C145.394 56.064 145.546 56.176 145.706 56.4C145.866 56.624 146.018 56.912 146.162 57.264C146.322 57.6 146.466 57.976 146.594 58.392C146.722 58.792 146.834 59.176 146.93 59.544C147.026 59.896 147.098 60.208 147.146 60.48C147.21 60.736 147.242 60.888 147.242 60.936ZM157.281 60.432C157.281 60.56 157.265 60.656 157.233 60.72C157.201 60.768 157.121 60.808 156.993 60.84C156.849 60.888 156.665 60.944 156.441 61.008C156.233 61.056 156.001 61.112 155.745 61.176C155.489 61.224 155.225 61.272 154.953 61.32C154.697 61.352 154.457 61.368 154.233 61.368C153.961 61.368 153.657 61.352 153.321 61.32C153.001 61.288 152.689 61.24 152.385 61.176C152.081 61.096 151.801 61.016 151.545 60.936C151.305 60.84 151.129 60.728 151.017 60.6C151.097 60.936 151.169 61.272 151.233 61.608C151.297 61.944 151.345 62.28 151.377 62.616C151.377 62.696 151.353 62.768 151.305 62.832C151.273 62.88 151.169 62.904 150.993 62.904C150.913 62.904 150.833 62.888 150.753 62.856C150.689 62.808 150.633 62.72 150.585 62.592C150.441 62.272 150.321 61.976 150.225 61.704C150.129 61.416 150.041 61.128 149.961 60.84C149.897 60.552 149.825 60.248 149.745 59.928C149.665 59.608 149.569 59.256 149.457 58.872C149.281 58.248 149.097 57.584 148.905 56.88C148.713 56.16 148.537 55.48 148.377 54.84C148.217 54.184 148.089 53.608 147.993 53.112C147.897 52.6 147.849 52.24 147.849 52.032C147.849 51.936 147.849 51.808 147.849 51.648C147.865 51.488 147.889 51.336 147.921 51.192C147.969 51.032 148.025 50.904 148.089 50.808C148.169 50.696 148.273 50.64 148.401 50.64C148.481 50.64 148.561 50.768 148.641 51.024C148.737 51.264 148.817 51.536 148.881 51.84C148.961 52.128 149.025 52.408 149.073 52.68C149.137 52.936 149.169 53.072 149.169 53.088C149.233 53.44 149.305 53.832 149.385 54.264C149.481 54.68 149.577 55.104 149.673 55.536C149.769 55.968 149.873 56.384 149.985 56.784C150.097 57.168 150.217 57.496 150.345 57.768C150.361 57.608 150.417 57.376 150.513 57.072C150.609 56.768 150.737 56.44 150.897 56.088C151.057 55.736 151.233 55.376 151.425 55.008C151.633 54.624 151.841 54.28 152.049 53.976C152.273 53.672 152.489 53.424 152.697 53.232C152.921 53.04 153.129 52.944 153.321 52.944C153.625 52.944 153.833 52.984 153.945 53.064C154.073 53.144 154.137 53.24 154.137 53.352C154.137 53.448 154.001 53.64 153.729 53.928C153.457 54.2 153.153 54.568 152.817 55.032C152.481 55.48 152.177 56.016 151.905 56.64C151.633 57.248 151.497 57.928 151.497 58.68C151.497 58.952 151.569 59.192 151.713 59.4C151.873 59.592 152.073 59.752 152.313 59.88C152.569 60.008 152.849 60.112 153.153 60.192C153.473 60.256 153.785 60.288 154.089 60.288C154.361 60.288 154.657 60.28 154.977 60.264C155.297 60.248 155.593 60.232 155.865 60.216C156.153 60.184 156.393 60.16 156.585 60.144C156.793 60.128 156.921 60.12 156.969 60.12C157.049 60.12 157.121 60.144 157.185 60.192C157.249 60.24 157.281 60.32 157.281 60.432ZM164.995 60.48C165.011 60.512 165.019 60.56 165.019 60.624C165.019 60.72 164.947 60.864 164.803 61.056C164.755 61.12 164.651 61.224 164.491 61.368C164.331 61.512 164.115 61.656 163.843 61.8C163.571 61.944 163.235 62.072 162.835 62.184C162.451 62.296 161.995 62.352 161.467 62.352C161.099 62.352 160.739 62.272 160.387 62.112C160.035 61.936 159.723 61.688 159.451 61.368C159.179 61.032 158.955 60.624 158.779 60.144C158.603 59.648 158.515 59.072 158.515 58.416C158.515 57.792 158.595 57.208 158.755 56.664C158.915 56.12 159.115 55.64 159.355 55.224C159.611 54.808 159.891 54.48 160.195 54.24C160.499 54 160.795 53.88 161.083 53.88C161.339 53.88 161.595 53.936 161.851 54.048C162.123 54.144 162.363 54.272 162.571 54.432C162.795 54.592 162.971 54.776 163.099 54.984C163.227 55.176 163.291 55.376 163.291 55.584C163.291 55.824 163.179 56.072 162.955 56.328C162.747 56.584 162.491 56.824 162.187 57.048C161.883 57.256 161.579 57.432 161.275 57.576C160.971 57.704 160.731 57.768 160.555 57.768C160.459 57.768 160.371 57.728 160.291 57.648C160.227 57.552 160.195 57.44 160.195 57.312C160.195 57.088 160.291 56.912 160.483 56.784C160.691 56.656 160.915 56.544 161.155 56.448C161.395 56.336 161.611 56.208 161.803 56.064C162.011 55.92 162.115 55.72 162.115 55.464C162.115 55.432 162.075 55.352 161.995 55.224C161.915 55.096 161.699 55.032 161.347 55.032C161.187 55.032 161.003 55.128 160.795 55.32C160.587 55.496 160.387 55.744 160.195 56.064C160.003 56.368 159.843 56.736 159.715 57.168C159.587 57.584 159.523 58.04 159.523 58.536C159.523 58.952 159.595 59.328 159.739 59.664C159.899 60 160.099 60.288 160.339 60.528C160.579 60.752 160.859 60.928 161.179 61.056C161.499 61.184 161.827 61.248 162.163 61.248C162.403 61.248 162.659 61.2 162.931 61.104C163.219 60.992 163.483 60.88 163.723 60.768C163.979 60.64 164.195 60.528 164.371 60.432C164.563 60.32 164.683 60.264 164.731 60.264C164.779 60.264 164.827 60.288 164.875 60.336C164.939 60.384 164.979 60.432 164.995 60.48ZM179.82 62.304C179.82 62.432 179.772 62.528 179.676 62.592C179.58 62.656 179.468 62.688 179.34 62.688C179.196 62.688 179.044 62.552 178.884 62.28C178.74 62.008 178.596 61.664 178.452 61.248C178.308 60.832 178.172 60.384 178.044 59.904C177.916 59.408 177.804 58.952 177.708 58.536C177.612 58.104 177.532 57.744 177.468 57.456C177.42 57.168 177.396 57.008 177.396 56.976C177.396 56.912 177.364 56.744 177.3 56.472C177.252 56.2 177.18 55.776 177.084 55.2C177.004 54.624 176.908 53.88 176.796 52.968C176.7 52.04 176.596 50.896 176.484 49.536C176.484 49.392 176.508 49.208 176.556 48.984C176.604 48.76 176.716 48.648 176.892 48.648C177.116 48.648 177.284 48.8 177.396 49.104C177.524 49.408 177.62 49.784 177.684 50.232C177.764 50.68 177.82 51.152 177.852 51.648C177.884 52.128 177.924 52.552 177.972 52.92C178.036 53.432 178.092 53.896 178.14 54.312C178.204 54.728 178.26 55.144 178.308 55.56C178.372 55.96 178.444 56.384 178.524 56.832C178.62 57.28 178.732 57.776 178.86 58.32L179.82 62.304ZM185.986 57.816C185.986 58.168 185.938 58.504 185.842 58.824C185.746 59.144 185.618 59.424 185.458 59.664C185.298 59.904 185.106 60.096 184.882 60.24C184.674 60.368 184.442 60.432 184.186 60.432C183.738 60.432 183.386 60.304 183.13 60.048C182.874 59.792 182.674 59.496 182.53 59.16C182.402 58.824 182.314 58.488 182.266 58.152C182.234 57.8 182.218 57.536 182.218 57.36C182.218 57.072 182.258 56.752 182.338 56.4C182.434 56.032 182.554 55.696 182.698 55.392C182.858 55.088 183.034 54.832 183.226 54.624C183.418 54.416 183.618 54.312 183.826 54.312C183.874 54.312 183.946 54.328 184.042 54.36C184.154 54.392 184.266 54.44 184.378 54.504C184.49 54.568 184.586 54.648 184.666 54.744C184.762 54.84 184.826 54.952 184.858 55.08C185.034 55.096 185.21 55.16 185.386 55.272C185.562 55.384 185.658 55.472 185.674 55.536C185.802 55.952 185.882 56.368 185.914 56.784C185.962 57.2 185.986 57.544 185.986 57.816ZM184.906 57.384C184.906 57.144 184.882 56.896 184.834 56.64C184.786 56.368 184.69 56.096 184.546 55.824C184.514 55.84 184.474 55.848 184.426 55.848C184.362 55.848 184.306 55.84 184.258 55.824C184.226 55.808 184.194 55.8 184.162 55.8C183.97 55.8 183.818 55.856 183.706 55.968C183.594 56.064 183.506 56.2 183.442 56.376C183.394 56.536 183.362 56.712 183.346 56.904C183.33 57.096 183.322 57.28 183.322 57.456C183.322 57.632 183.33 57.832 183.346 58.056C183.362 58.264 183.394 58.464 183.442 58.656C183.506 58.848 183.586 59.016 183.682 59.16C183.778 59.288 183.906 59.352 184.066 59.352C184.226 59.352 184.362 59.272 184.474 59.112C184.586 58.936 184.674 58.736 184.738 58.512C184.802 58.288 184.842 58.072 184.858 57.864C184.89 57.64 184.906 57.48 184.906 57.384ZM192.713 57.816C192.713 58.168 192.665 58.504 192.569 58.824C192.473 59.144 192.345 59.424 192.185 59.664C192.025 59.904 191.833 60.096 191.609 60.24C191.401 60.368 191.169 60.432 190.913 60.432C190.465 60.432 190.113 60.304 189.857 60.048C189.601 59.792 189.401 59.496 189.257 59.16C189.129 58.824 189.041 58.488 188.993 58.152C188.961 57.8 188.945 57.536 188.945 57.36C188.945 57.072 188.985 56.752 189.065 56.4C189.161 56.032 189.281 55.696 189.425 55.392C189.585 55.088 189.761 54.832 189.953 54.624C190.145 54.416 190.345 54.312 190.553 54.312C190.601 54.312 190.673 54.328 190.769 54.36C190.881 54.392 190.993 54.44 191.105 54.504C191.217 54.568 191.313 54.648 191.393 54.744C191.489 54.84 191.553 54.952 191.585 55.08C191.761 55.096 191.937 55.16 192.113 55.272C192.289 55.384 192.385 55.472 192.401 55.536C192.529 55.952 192.609 56.368 192.641 56.784C192.689 57.2 192.713 57.544 192.713 57.816ZM191.633 57.384C191.633 57.144 191.609 56.896 191.561 56.64C191.513 56.368 191.417 56.096 191.273 55.824C191.241 55.84 191.201 55.848 191.153 55.848C191.089 55.848 191.033 55.84 190.985 55.824C190.953 55.808 190.921 55.8 190.889 55.8C190.697 55.8 190.545 55.856 190.433 55.968C190.321 56.064 190.233 56.2 190.169 56.376C190.121 56.536 190.089 56.712 190.073 56.904C190.057 57.096 190.049 57.28 190.049 57.456C190.049 57.632 190.057 57.832 190.073 58.056C190.089 58.264 190.121 58.464 190.169 58.656C190.233 58.848 190.313 59.016 190.409 59.16C190.505 59.288 190.633 59.352 190.793 59.352C190.953 59.352 191.089 59.272 191.201 59.112C191.313 58.936 191.401 58.736 191.465 58.512C191.529 58.288 191.569 58.072 191.585 57.864C191.617 57.64 191.633 57.48 191.633 57.384ZM203.664 60.432C203.664 60.56 203.648 60.656 203.616 60.72C203.584 60.768 203.504 60.808 203.376 60.84C203.232 60.888 203.048 60.944 202.824 61.008C202.616 61.056 202.384 61.112 202.128 61.176C201.872 61.224 201.608 61.272 201.336 61.32C201.08 61.352 200.84 61.368 200.616 61.368C200.344 61.368 200.04 61.352 199.704 61.32C199.384 61.288 199.072 61.24 198.768 61.176C198.464 61.096 198.184 61.016 197.928 60.936C197.688 60.84 197.512 60.728 197.4 60.6C197.48 60.936 197.552 61.272 197.616 61.608C197.68 61.944 197.728 62.28 197.76 62.616C197.76 62.696 197.736 62.768 197.688 62.832C197.656 62.88 197.552 62.904 197.376 62.904C197.296 62.904 197.216 62.888 197.136 62.856C197.072 62.808 197.016 62.72 196.968 62.592C196.824 62.272 196.704 61.976 196.608 61.704C196.512 61.416 196.424 61.128 196.344 60.84C196.28 60.552 196.208 60.248 196.128 59.928C196.048 59.608 195.952 59.256 195.84 58.872C195.664 58.248 195.48 57.584 195.288 56.88C195.096 56.16 194.92 55.48 194.76 54.84C194.6 54.184 194.472 53.608 194.376 53.112C194.28 52.6 194.232 52.24 194.232 52.032C194.232 51.936 194.232 51.808 194.232 51.648C194.248 51.488 194.272 51.336 194.304 51.192C194.352 51.032 194.408 50.904 194.472 50.808C194.552 50.696 194.656 50.64 194.784 50.64C194.864 50.64 194.944 50.768 195.024 51.024C195.12 51.264 195.2 51.536 195.264 51.84C195.344 52.128 195.408 52.408 195.456 52.68C195.52 52.936 195.552 53.072 195.552 53.088C195.616 53.44 195.688 53.832 195.768 54.264C195.864 54.68 195.96 55.104 196.056 55.536C196.152 55.968 196.256 56.384 196.368 56.784C196.48 57.168 196.6 57.496 196.728 57.768C196.744 57.608 196.8 57.376 196.896 57.072C196.992 56.768 197.12 56.44 197.28 56.088C197.44 55.736 197.616 55.376 197.808 55.008C198.016 54.624 198.224 54.28 198.432 53.976C198.656 53.672 198.872 53.424 199.08 53.232C199.304 53.04 199.512 52.944 199.704 52.944C200.008 52.944 200.216 52.984 200.328 53.064C200.456 53.144 200.52 53.24 200.52 53.352C200.52 53.448 200.384 53.64 200.112 53.928C199.84 54.2 199.536 54.568 199.2 55.032C198.864 55.48 198.56 56.016 198.288 56.64C198.016 57.248 197.88 57.928 197.88 58.68C197.88 58.952 197.952 59.192 198.096 59.4C198.256 59.592 198.456 59.752 198.696 59.88C198.952 60.008 199.232 60.112 199.536 60.192C199.856 60.256 200.168 60.288 200.472 60.288C200.744 60.288 201.04 60.28 201.36 60.264C201.68 60.248 201.976 60.232 202.248 60.216C202.536 60.184 202.776 60.16 202.968 60.144C203.176 60.128 203.304 60.12 203.352 60.12C203.432 60.12 203.504 60.144 203.568 60.192C203.632 60.24 203.664 60.32 203.664 60.432ZM206.122 51.96C206.122 51.992 206.066 52.056 205.954 52.152C205.842 52.248 205.706 52.352 205.546 52.464C205.402 52.56 205.25 52.648 205.09 52.728C204.93 52.808 204.802 52.848 204.706 52.848C204.642 52.848 204.554 52.848 204.442 52.848C204.346 52.832 204.242 52.8 204.13 52.752C204.034 52.704 203.946 52.64 203.866 52.56C203.786 52.464 203.746 52.344 203.746 52.2C203.746 51.976 203.826 51.768 203.986 51.576C204.146 51.368 204.354 51.264 204.61 51.264C204.658 51.264 204.762 51.288 204.922 51.336C205.098 51.368 205.274 51.416 205.45 51.48C205.626 51.544 205.778 51.616 205.906 51.696C206.05 51.776 206.122 51.864 206.122 51.96ZM206.914 60.936C206.914 61.048 206.826 61.144 206.65 61.224C206.49 61.304 206.37 61.344 206.29 61.344C206.13 61.344 205.986 61.24 205.858 61.032C205.73 60.824 205.618 60.584 205.522 60.312C205.426 60.04 205.346 59.784 205.282 59.544C205.218 59.288 205.17 59.112 205.138 59.016C205.09 58.856 205.026 58.664 204.946 58.44C204.866 58.216 204.786 58 204.706 57.792C204.642 57.584 204.586 57.4 204.538 57.24C204.49 57.08 204.466 56.992 204.466 56.976C204.466 56.752 204.506 56.544 204.586 56.352C204.682 56.16 204.794 56.064 204.922 56.064C205.066 56.064 205.218 56.176 205.378 56.4C205.538 56.624 205.69 56.912 205.834 57.264C205.994 57.6 206.138 57.976 206.266 58.392C206.394 58.792 206.506 59.176 206.602 59.544C206.698 59.896 206.77 60.208 206.818 60.48C206.882 60.736 206.914 60.888 206.914 60.936ZM215.633 60.048C215.633 60.144 215.601 60.24 215.537 60.336C215.473 60.432 215.393 60.52 215.297 60.6C215.217 60.68 215.121 60.752 215.009 60.816C214.913 60.864 214.825 60.888 214.745 60.888C214.473 60.888 214.121 60.832 213.689 60.72C213.273 60.592 212.937 60.4 212.681 60.144C212.409 59.872 212.169 59.552 211.961 59.184C211.753 58.8 211.521 58.24 211.265 57.504C211.089 58.208 210.881 58.904 210.641 59.592C210.417 60.28 210.049 60.912 209.537 61.488C209.505 61.52 209.457 61.536 209.393 61.536C209.281 61.536 209.161 61.48 209.033 61.368C208.905 61.256 208.841 61.144 208.841 61.032C208.841 60.92 208.825 60.664 208.793 60.264C208.777 59.848 208.753 59.392 208.721 58.896C208.689 58.384 208.657 57.872 208.625 57.36C208.609 56.832 208.601 56.4 208.601 56.064C208.601 55.904 208.609 55.696 208.625 55.44C208.641 55.168 208.689 54.936 208.769 54.744C208.785 54.712 208.841 54.648 208.937 54.552C209.049 54.456 209.169 54.408 209.297 54.408C209.409 54.408 209.473 54.48 209.489 54.624C209.505 54.768 209.513 54.928 209.513 55.104V58.896C209.513 58.976 209.521 59.088 209.537 59.232C209.569 59.376 209.609 59.48 209.657 59.544C209.833 59.16 209.993 58.712 210.137 58.2C210.297 57.672 210.449 57.176 210.593 56.712C210.737 56.232 210.881 55.832 211.025 55.512C211.169 55.176 211.313 55.008 211.457 55.008C211.617 55.008 211.745 55.04 211.841 55.104C211.937 55.168 212.017 55.296 212.081 55.488C212.161 55.952 212.225 56.368 212.273 56.736C212.321 57.088 212.377 57.408 212.441 57.696C212.521 57.984 212.625 58.256 212.753 58.512C212.897 58.752 213.089 58.976 213.329 59.184C213.553 59.392 213.801 59.544 214.073 59.64C214.361 59.736 214.609 59.784 214.817 59.784C214.913 59.784 215.017 59.768 215.129 59.736C215.241 59.688 215.321 59.664 215.369 59.664C215.433 59.664 215.489 59.72 215.537 59.832C215.601 59.944 215.633 60.016 215.633 60.048ZM222.822 60.888C222.822 61.064 222.758 61.184 222.63 61.248C222.502 61.312 222.438 61.4 222.438 61.512C222.422 61.496 222.454 61.584 222.534 61.776C222.614 61.968 222.686 62.168 222.75 62.376C222.862 62.808 222.958 63.184 223.038 63.504C223.134 63.824 223.206 64.12 223.254 64.392C223.318 64.664 223.366 64.936 223.398 65.208C223.43 65.48 223.446 65.784 223.446 66.12C223.446 66.456 223.39 66.8 223.278 67.152C223.166 67.504 223.006 67.816 222.798 68.088C222.59 68.36 222.334 68.584 222.03 68.76C221.726 68.936 221.382 69.024 220.998 69.024C220.406 69.024 219.934 68.904 219.582 68.664C219.246 68.424 218.99 68.152 218.814 67.848C218.638 67.544 218.526 67.24 218.478 66.936C218.43 66.648 218.406 66.456 218.406 66.36C218.406 65.768 218.558 65.176 218.862 64.584C219.166 63.992 219.502 63.456 219.87 62.976C220.238 62.496 220.574 62.096 220.878 61.776C221.182 61.456 221.334 61.272 221.334 61.224L221.07 60.432C220.91 60.624 220.766 60.84 220.638 61.08C220.526 61.304 220.398 61.52 220.254 61.728C220.126 61.92 219.966 62.088 219.774 62.232C219.598 62.36 219.374 62.424 219.102 62.424C218.814 62.424 218.526 62.336 218.238 62.16C217.95 61.984 217.694 61.72 217.47 61.368C217.246 61.016 217.062 60.592 216.918 60.096C216.79 59.6 216.726 59.024 216.726 58.368C216.726 58 216.782 57.544 216.894 57C217.006 56.44 217.182 55.904 217.422 55.392C217.662 54.88 217.958 54.448 218.31 54.096C218.678 53.728 219.102 53.544 219.582 53.544C219.854 53.544 220.102 53.592 220.326 53.688C220.566 53.784 220.686 53.904 220.686 54.048C220.686 54.176 220.662 54.28 220.614 54.36C220.566 54.44 220.502 54.52 220.422 54.6C220.374 54.568 220.318 54.536 220.254 54.504C220.206 54.472 220.134 54.456 220.038 54.456C219.686 54.456 219.366 54.616 219.078 54.936C218.806 55.24 218.574 55.624 218.382 56.088C218.19 56.536 218.038 57.008 217.926 57.504C217.83 58 217.782 58.432 217.782 58.8C217.782 59.616 217.918 60.24 218.19 60.672C218.462 61.088 218.75 61.296 219.054 61.296C219.198 61.296 219.35 61.192 219.51 60.984C219.686 60.76 219.846 60.52 219.99 60.264C220.15 59.992 220.286 59.736 220.398 59.496C220.51 59.256 220.574 59.112 220.59 59.064C220.622 58.904 220.638 58.72 220.638 58.512C220.638 58.336 220.63 58.144 220.614 57.936C220.614 57.712 220.614 57.488 220.614 57.264C220.614 56.848 220.646 56.504 220.71 56.232C220.774 55.944 220.934 55.8 221.19 55.8C221.446 55.8 221.63 55.88 221.742 56.04C221.854 56.184 221.91 56.36 221.91 56.568C221.91 56.712 221.902 56.888 221.886 57.096C221.886 57.288 221.886 57.48 221.886 57.672C221.886 57.848 221.878 58.008 221.862 58.152C221.862 58.28 221.862 58.36 221.862 58.392C221.862 58.488 221.87 58.632 221.886 58.824C221.918 59 221.942 59.184 221.958 59.376C221.99 59.552 222.014 59.72 222.03 59.88C222.062 60.024 222.086 60.12 222.102 60.168C222.118 60.216 222.142 60.288 222.174 60.384C222.206 60.48 222.238 60.552 222.27 60.6C222.286 60.568 222.318 60.536 222.366 60.504C222.414 60.456 222.454 60.416 222.486 60.384C222.566 60.432 222.638 60.528 222.702 60.672C222.782 60.8 222.822 60.872 222.822 60.888ZM222.006 63.936C221.942 63.68 221.87 63.424 221.79 63.168C221.71 62.912 221.63 62.648 221.55 62.376C221.278 62.712 221.014 63.032 220.758 63.336C220.518 63.656 220.294 63.968 220.086 64.272C219.894 64.576 219.734 64.888 219.606 65.208C219.494 65.544 219.438 65.896 219.438 66.264C219.438 66.76 219.574 67.168 219.846 67.488C220.134 67.808 220.446 67.968 220.782 67.968C221.15 67.968 221.494 67.832 221.814 67.56C222.15 67.288 222.318 66.896 222.318 66.384C222.318 66.048 222.31 65.768 222.294 65.544C222.278 65.32 222.254 65.12 222.222 64.944C222.206 64.784 222.174 64.624 222.126 64.464C222.094 64.32 222.054 64.144 222.006 63.936ZM236.169 51.96C236.169 51.992 236.113 52.056 236.001 52.152C235.889 52.248 235.753 52.352 235.593 52.464C235.449 52.56 235.297 52.648 235.137 52.728C234.977 52.808 234.849 52.848 234.753 52.848C234.689 52.848 234.601 52.848 234.489 52.848C234.393 52.832 234.289 52.8 234.177 52.752C234.081 52.704 233.993 52.64 233.913 52.56C233.833 52.464 233.793 52.344 233.793 52.2C233.793 51.976 233.873 51.768 234.033 51.576C234.193 51.368 234.401 51.264 234.657 51.264C234.705 51.264 234.809 51.288 234.969 51.336C235.145 51.368 235.321 51.416 235.497 51.48C235.673 51.544 235.825 51.616 235.953 51.696C236.097 51.776 236.169 51.864 236.169 51.96ZM236.961 60.936C236.961 61.048 236.873 61.144 236.697 61.224C236.537 61.304 236.417 61.344 236.337 61.344C236.177 61.344 236.033 61.24 235.905 61.032C235.777 60.824 235.665 60.584 235.569 60.312C235.473 60.04 235.393 59.784 235.329 59.544C235.265 59.288 235.217 59.112 235.185 59.016C235.137 58.856 235.073 58.664 234.993 58.44C234.913 58.216 234.833 58 234.753 57.792C234.689 57.584 234.633 57.4 234.585 57.24C234.537 57.08 234.513 56.992 234.513 56.976C234.513 56.752 234.553 56.544 234.633 56.352C234.729 56.16 234.841 56.064 234.969 56.064C235.113 56.064 235.265 56.176 235.425 56.4C235.585 56.624 235.737 56.912 235.881 57.264C236.041 57.6 236.185 57.976 236.313 58.392C236.441 58.792 236.553 59.176 236.649 59.544C236.745 59.896 236.817 60.208 236.865 60.48C236.929 60.736 236.961 60.888 236.961 60.936ZM245.68 60.048C245.68 60.144 245.648 60.24 245.584 60.336C245.52 60.432 245.44 60.52 245.344 60.6C245.264 60.68 245.168 60.752 245.056 60.816C244.96 60.864 244.872 60.888 244.792 60.888C244.52 60.888 244.168 60.832 243.736 60.72C243.32 60.592 242.984 60.4 242.728 60.144C242.456 59.872 242.216 59.552 242.008 59.184C241.8 58.8 241.568 58.24 241.312 57.504C241.136 58.208 240.928 58.904 240.688 59.592C240.464 60.28 240.096 60.912 239.584 61.488C239.552 61.52 239.504 61.536 239.44 61.536C239.328 61.536 239.208 61.48 239.08 61.368C238.952 61.256 238.888 61.144 238.888 61.032C238.888 60.92 238.872 60.664 238.84 60.264C238.824 59.848 238.8 59.392 238.768 58.896C238.736 58.384 238.704 57.872 238.672 57.36C238.656 56.832 238.648 56.4 238.648 56.064C238.648 55.904 238.656 55.696 238.672 55.44C238.688 55.168 238.736 54.936 238.816 54.744C238.832 54.712 238.888 54.648 238.984 54.552C239.096 54.456 239.216 54.408 239.344 54.408C239.456 54.408 239.52 54.48 239.536 54.624C239.552 54.768 239.56 54.928 239.56 55.104V58.896C239.56 58.976 239.568 59.088 239.584 59.232C239.616 59.376 239.656 59.48 239.704 59.544C239.88 59.16 240.04 58.712 240.184 58.2C240.344 57.672 240.496 57.176 240.64 56.712C240.784 56.232 240.928 55.832 241.072 55.512C241.216 55.176 241.36 55.008 241.504 55.008C241.664 55.008 241.792 55.04 241.888 55.104C241.984 55.168 242.064 55.296 242.128 55.488C242.208 55.952 242.272 56.368 242.32 56.736C242.368 57.088 242.424 57.408 242.488 57.696C242.568 57.984 242.672 58.256 242.8 58.512C242.944 58.752 243.136 58.976 243.376 59.184C243.6 59.392 243.848 59.544 244.12 59.64C244.408 59.736 244.656 59.784 244.864 59.784C244.96 59.784 245.064 59.768 245.176 59.736C245.288 59.688 245.368 59.664 245.416 59.664C245.48 59.664 245.536 59.72 245.584 59.832C245.648 59.944 245.68 60.016 245.68 60.048ZM263.215 52.152C263.007 52.392 262.711 52.632 262.327 52.872C261.943 53.096 261.559 53.304 261.175 53.496C260.791 53.688 260.455 53.856 260.167 54C259.879 54.128 259.735 54.216 259.735 54.264C259.735 54.312 259.767 54.456 259.831 54.696C259.895 54.936 259.967 55.224 260.047 55.56C260.143 55.88 260.239 56.216 260.335 56.568C260.431 56.92 260.511 57.232 260.575 57.504C260.607 57.664 260.647 57.872 260.695 58.128C260.743 58.384 260.783 58.64 260.815 58.896C260.863 59.152 260.903 59.384 260.935 59.592C260.967 59.784 260.983 59.888 260.983 59.904C260.983 60.144 260.943 60.392 260.863 60.648C260.783 60.904 260.655 61.032 260.479 61.032C260.383 61.032 260.295 60.992 260.215 60.912C260.135 60.832 260.063 60.744 259.999 60.648C259.935 60.536 259.887 60.432 259.855 60.336C259.823 60.24 259.807 60.168 259.807 60.12C259.807 60.088 259.807 60.04 259.807 59.976C259.823 59.912 259.831 59.84 259.831 59.76C259.831 59.456 259.783 59.016 259.687 58.44C259.655 58.264 259.591 57.992 259.495 57.624C259.399 57.256 259.303 56.88 259.207 56.496C259.095 56.048 258.967 55.56 258.823 55.032C258.759 54.808 258.719 54.696 258.703 54.696C258.591 54.696 258.399 54.768 258.127 54.912C257.871 55.04 257.575 55.208 257.239 55.416C256.903 55.608 256.551 55.824 256.183 56.064C255.815 56.288 255.471 56.504 255.151 56.712C254.831 56.904 254.559 57.072 254.335 57.216C254.095 57.344 253.951 57.408 253.903 57.408C253.695 57.408 253.527 57.336 253.399 57.192C253.271 57.048 253.207 56.888 253.207 56.712C253.207 56.616 253.343 56.48 253.615 56.304C253.871 56.112 254.199 55.904 254.599 55.68C254.983 55.456 255.407 55.224 255.871 54.984C256.319 54.744 256.735 54.528 257.119 54.336C257.519 54.144 257.847 53.984 258.103 53.856C258.375 53.728 258.511 53.664 258.511 53.664C258.367 52.928 258.247 52.272 258.151 51.696C258.071 51.2 257.991 50.744 257.911 50.328C257.847 49.912 257.815 49.688 257.815 49.656C257.815 49.448 257.855 49.296 257.935 49.2C258.031 49.088 258.135 49.032 258.247 49.032C258.423 49.032 258.535 49.152 258.583 49.392C258.759 50.256 258.919 51.024 259.063 51.696C259.223 52.368 259.375 52.912 259.519 53.328C259.663 53.296 259.911 53.208 260.263 53.064C260.615 52.904 260.983 52.736 261.367 52.56C261.751 52.384 262.095 52.232 262.399 52.104C262.719 51.96 262.903 51.888 262.951 51.888C263.047 51.888 263.103 51.92 263.119 51.984C263.151 52.048 263.183 52.104 263.215 52.152ZM272.199 58.56C272.279 58.64 272.319 58.688 272.319 58.704C272.319 58.736 272.271 58.832 272.175 58.992C272.095 59.152 271.983 59.32 271.839 59.496C271.695 59.672 271.535 59.832 271.359 59.976C271.199 60.104 271.039 60.168 270.879 60.168C270.543 60.168 270.271 60.104 270.063 59.976C269.855 59.832 269.679 59.656 269.535 59.448C269.407 59.24 269.303 59.016 269.223 58.776C269.159 58.52 269.103 58.28 269.055 58.056C269.023 57.944 268.991 57.888 268.959 57.888C268.911 57.888 268.815 58.064 268.671 58.416C268.527 58.752 268.367 59.128 268.191 59.544C268.031 59.944 267.871 60.32 267.711 60.672C267.567 61.008 267.471 61.176 267.423 61.176C267.135 61.176 266.887 61.056 266.679 60.816C266.487 60.56 266.327 60.272 266.199 59.952C266.087 59.616 265.999 59.28 265.935 58.944C265.871 58.592 265.831 58.32 265.815 58.128C265.767 57.696 265.663 56.976 265.503 55.968C265.343 54.96 265.207 53.736 265.095 52.296C265.063 51.992 265.023 51.72 264.975 51.48C264.943 51.224 264.903 50.944 264.855 50.64C264.807 50.336 264.767 49.992 264.735 49.608C264.703 49.224 264.687 48.752 264.687 48.192C264.687 48.16 264.695 48.056 264.711 47.88C264.727 47.704 264.751 47.512 264.783 47.304C264.815 47.096 264.863 46.912 264.927 46.752C265.007 46.592 265.095 46.512 265.191 46.512C265.303 46.512 265.407 46.584 265.503 46.728C265.599 46.856 265.679 47.008 265.743 47.184C265.823 47.36 265.879 47.528 265.911 47.688C265.943 47.848 265.959 47.96 265.959 48.024C265.959 48.264 265.943 48.488 265.911 48.696C265.879 48.904 265.863 49.096 265.863 49.272C265.863 49.512 265.879 49.816 265.911 50.184C265.959 50.552 266.015 50.928 266.079 51.312C266.143 51.696 266.199 52.072 266.247 52.44C266.295 52.792 266.335 53.08 266.367 53.304C266.367 53.32 266.383 53.432 266.415 53.64C266.447 53.848 266.479 54.112 266.511 54.432C266.559 54.736 266.599 55.072 266.631 55.44C266.679 55.792 266.727 56.144 266.775 56.496C266.823 56.832 266.863 57.136 266.895 57.408C266.943 57.664 266.975 57.848 266.991 57.96C266.991 58.008 266.999 58.08 267.015 58.176C267.047 58.256 267.071 58.352 267.087 58.464C267.119 58.576 267.151 58.68 267.183 58.776C267.215 58.872 267.255 58.944 267.303 58.992C267.399 58.8 267.519 58.504 267.663 58.104C267.823 57.704 267.983 57.296 268.143 56.88C268.319 56.464 268.479 56.104 268.623 55.8C268.783 55.48 268.919 55.32 269.031 55.32C269.159 55.32 269.263 55.344 269.343 55.392C269.423 55.44 269.527 55.48 269.655 55.512C269.815 55.576 269.895 55.664 269.895 55.776C269.895 55.872 269.911 55.992 269.943 56.136C269.975 56.328 270.023 56.584 270.087 56.904C270.167 57.208 270.255 57.512 270.351 57.816C270.447 58.104 270.559 58.352 270.687 58.56C270.815 58.768 270.943 58.872 271.071 58.872C271.135 58.872 271.223 58.792 271.335 58.632C271.447 58.456 271.599 58.36 271.791 58.344C271.823 58.344 271.879 58.368 271.959 58.416C272.039 58.448 272.119 58.496 272.199 58.56ZM280.402 60.48C280.418 60.512 280.426 60.56 280.426 60.624C280.426 60.72 280.354 60.864 280.21 61.056C280.162 61.12 280.058 61.224 279.898 61.368C279.738 61.512 279.522 61.656 279.25 61.8C278.978 61.944 278.642 62.072 278.242 62.184C277.858 62.296 277.402 62.352 276.874 62.352C276.506 62.352 276.146 62.272 275.794 62.112C275.442 61.936 275.13 61.688 274.858 61.368C274.586 61.032 274.362 60.624 274.186 60.144C274.01 59.648 273.922 59.072 273.922 58.416C273.922 57.792 274.002 57.208 274.162 56.664C274.322 56.12 274.522 55.64 274.762 55.224C275.018 54.808 275.298 54.48 275.602 54.24C275.906 54 276.202 53.88 276.49 53.88C276.746 53.88 277.002 53.936 277.258 54.048C277.53 54.144 277.77 54.272 277.978 54.432C278.202 54.592 278.378 54.776 278.506 54.984C278.634 55.176 278.698 55.376 278.698 55.584C278.698 55.824 278.586 56.072 278.362 56.328C278.154 56.584 277.898 56.824 277.594 57.048C277.29 57.256 276.986 57.432 276.682 57.576C276.378 57.704 276.138 57.768 275.962 57.768C275.866 57.768 275.778 57.728 275.698 57.648C275.634 57.552 275.602 57.44 275.602 57.312C275.602 57.088 275.698 56.912 275.89 56.784C276.098 56.656 276.322 56.544 276.562 56.448C276.802 56.336 277.018 56.208 277.21 56.064C277.418 55.92 277.522 55.72 277.522 55.464C277.522 55.432 277.482 55.352 277.402 55.224C277.322 55.096 277.106 55.032 276.754 55.032C276.594 55.032 276.41 55.128 276.202 55.32C275.994 55.496 275.794 55.744 275.602 56.064C275.41 56.368 275.25 56.736 275.122 57.168C274.994 57.584 274.93 58.04 274.93 58.536C274.93 58.952 275.002 59.328 275.146 59.664C275.306 60 275.506 60.288 275.746 60.528C275.986 60.752 276.266 60.928 276.586 61.056C276.906 61.184 277.234 61.248 277.57 61.248C277.81 61.248 278.066 61.2 278.338 61.104C278.626 60.992 278.89 60.88 279.13 60.768C279.386 60.64 279.602 60.528 279.778 60.432C279.97 60.32 280.09 60.264 280.138 60.264C280.186 60.264 280.234 60.288 280.282 60.336C280.346 60.384 280.386 60.432 280.402 60.48ZM302.69 60.744C302.69 60.872 302.65 60.984 302.57 61.08C302.49 61.176 302.394 61.256 302.282 61.32C302.17 61.368 302.05 61.408 301.922 61.44C301.81 61.472 301.714 61.488 301.634 61.488C301.298 61.488 301.01 61.312 300.77 60.96C300.53 60.592 300.33 60.192 300.17 59.76C300.01 59.312 299.89 58.896 299.81 58.512C299.746 58.128 299.714 57.92 299.714 57.888C299.618 58.064 299.514 58.36 299.402 58.776C299.306 59.192 299.186 59.616 299.042 60.048C298.898 60.464 298.714 60.84 298.49 61.176C298.282 61.496 298.01 61.656 297.674 61.656C297.514 61.656 297.362 61.56 297.218 61.368C297.074 61.176 296.938 60.928 296.81 60.624C296.682 60.32 296.554 59.976 296.426 59.592C296.314 59.208 296.194 58.832 296.066 58.464C295.954 58.096 295.842 57.752 295.73 57.432C295.618 57.096 295.506 56.832 295.394 56.64C295.298 56.88 295.21 57.208 295.13 57.624C295.066 58.04 295.01 58.48 294.962 58.944C294.914 59.392 294.874 59.84 294.842 60.288C294.81 60.736 294.794 61.128 294.794 61.464C294.794 61.688 294.73 61.848 294.602 61.944C294.49 62.04 294.37 62.088 294.242 62.088C294.066 62.088 293.89 61.976 293.714 61.752C293.538 61.512 293.362 61.208 293.186 60.84C293.01 60.472 292.842 60.056 292.682 59.592C292.538 59.128 292.402 58.664 292.274 58.2C292.162 57.736 292.074 57.296 292.01 56.88C291.946 56.448 291.914 56.088 291.914 55.8C291.914 55.592 291.922 55.4 291.938 55.224C291.954 55.08 291.962 54.944 291.962 54.816C291.978 54.688 291.986 54.616 291.986 54.6C291.986 54.552 291.97 54.52 291.938 54.504C291.922 54.488 291.914 54.448 291.914 54.384C291.914 54.336 291.97 54.264 292.082 54.168C292.21 54.056 292.338 54 292.466 54C292.69 54 292.834 54.048 292.898 54.144C292.978 54.24 293.018 54.352 293.018 54.48C293.018 54.528 293.01 54.6 292.994 54.696C292.994 54.792 292.994 55.008 292.994 55.344C292.994 55.568 293.034 55.904 293.114 56.352C293.194 56.8 293.29 57.256 293.402 57.72C293.514 58.184 293.626 58.616 293.738 59.016C293.866 59.4 293.97 59.64 294.05 59.736C294.082 59.672 294.098 59.6 294.098 59.52C294.114 59.424 294.13 59.352 294.146 59.304L294.41 57.336C294.474 56.84 294.602 56.32 294.794 55.776C295.002 55.216 295.218 54.784 295.442 54.48C295.522 54.352 295.61 54.288 295.706 54.288C295.802 54.288 295.89 54.36 295.97 54.504C296.242 54.952 296.442 55.4 296.57 55.848C296.714 56.28 296.834 56.712 296.93 57.144C297.042 57.56 297.162 57.984 297.29 58.416C297.434 58.832 297.65 59.256 297.938 59.688C298.066 59.48 298.226 59.144 298.418 58.68C298.61 58.2 298.802 57.72 298.994 57.24C299.202 56.76 299.394 56.344 299.57 55.992C299.746 55.624 299.882 55.44 299.978 55.44C300.026 55.44 300.106 55.448 300.218 55.464C300.33 55.48 300.41 55.488 300.458 55.488C300.602 55.488 300.722 55.656 300.818 55.992C300.914 56.312 300.994 56.696 301.058 57.144C301.138 57.576 301.21 58.016 301.274 58.464C301.354 58.896 301.442 59.224 301.538 59.448C301.602 59.608 301.698 59.76 301.826 59.904C301.954 60.048 302.082 60.184 302.21 60.312C302.37 60.456 302.53 60.6 302.69 60.744ZM306.036 51.96C306.036 51.992 305.98 52.056 305.868 52.152C305.756 52.248 305.62 52.352 305.46 52.464C305.316 52.56 305.164 52.648 305.004 52.728C304.844 52.808 304.716 52.848 304.62 52.848C304.556 52.848 304.468 52.848 304.356 52.848C304.26 52.832 304.156 52.8 304.044 52.752C303.948 52.704 303.86 52.64 303.78 52.56C303.7 52.464 303.66 52.344 303.66 52.2C303.66 51.976 303.74 51.768 303.9 51.576C304.06 51.368 304.268 51.264 304.524 51.264C304.572 51.264 304.676 51.288 304.836 51.336C305.012 51.368 305.188 51.416 305.364 51.48C305.54 51.544 305.692 51.616 305.82 51.696C305.964 51.776 306.036 51.864 306.036 51.96ZM306.828 60.936C306.828 61.048 306.74 61.144 306.564 61.224C306.404 61.304 306.284 61.344 306.204 61.344C306.044 61.344 305.9 61.24 305.772 61.032C305.644 60.824 305.532 60.584 305.436 60.312C305.34 60.04 305.26 59.784 305.196 59.544C305.132 59.288 305.084 59.112 305.052 59.016C305.004 58.856 304.94 58.664 304.86 58.44C304.78 58.216 304.7 58 304.62 57.792C304.556 57.584 304.5 57.4 304.452 57.24C304.404 57.08 304.38 56.992 304.38 56.976C304.38 56.752 304.42 56.544 304.5 56.352C304.596 56.16 304.708 56.064 304.836 56.064C304.98 56.064 305.132 56.176 305.292 56.4C305.452 56.624 305.604 56.912 305.748 57.264C305.908 57.6 306.052 57.976 306.18 58.392C306.308 58.792 306.42 59.176 306.516 59.544C306.612 59.896 306.684 60.208 306.732 60.48C306.796 60.736 306.828 60.888 306.828 60.936ZM314.011 55.68C314.011 55.792 313.963 55.888 313.867 55.968C313.771 56.032 313.659 56.088 313.531 56.136C313.403 56.184 313.275 56.224 313.147 56.256C313.019 56.272 312.915 56.28 312.835 56.28C312.595 56.28 312.435 56.264 312.355 56.232C312.275 56.2 312.211 56.184 312.163 56.184C311.763 56.184 311.443 56.216 311.203 56.28C310.963 56.344 310.771 56.448 310.627 56.592C310.499 56.736 310.411 56.92 310.363 57.144C310.331 57.352 310.315 57.608 310.315 57.912C310.315 58.424 310.331 58.832 310.363 59.136C310.411 59.44 310.451 59.688 310.483 59.88C310.531 60.072 310.571 60.224 310.603 60.336C310.651 60.432 310.675 60.528 310.675 60.624C310.675 60.752 310.603 60.888 310.459 61.032C310.331 61.176 310.211 61.248 310.099 61.248C309.907 61.248 309.731 61.08 309.571 60.744C309.427 60.392 309.299 59.984 309.187 59.52C309.091 59.04 309.011 58.568 308.947 58.104C308.883 57.64 308.851 57.288 308.851 57.048C308.851 56.776 308.875 56.52 308.923 56.28C308.971 56.024 309.035 55.808 309.115 55.632C309.195 55.44 309.283 55.288 309.379 55.176C309.475 55.064 309.571 55.008 309.667 55.008C309.747 55.008 309.811 55.04 309.859 55.104C309.907 55.152 309.947 55.216 309.979 55.296C310.011 55.36 310.043 55.424 310.075 55.488C310.123 55.536 310.179 55.56 310.243 55.56C310.387 55.56 310.619 55.488 310.939 55.344C311.259 55.2 311.651 55.128 312.115 55.128C312.547 55.128 312.867 55.144 313.075 55.176C313.299 55.192 313.515 55.24 313.723 55.32C313.771 55.336 313.827 55.376 313.891 55.44C313.971 55.488 314.011 55.568 314.011 55.68ZM321.604 55.68C321.604 55.792 321.556 55.888 321.46 55.968C321.364 56.032 321.252 56.088 321.124 56.136C320.996 56.184 320.868 56.224 320.74 56.256C320.612 56.272 320.508 56.28 320.428 56.28C320.188 56.28 320.028 56.264 319.948 56.232C319.868 56.2 319.804 56.184 319.756 56.184C319.356 56.184 319.036 56.216 318.796 56.28C318.556 56.344 318.364 56.448 318.22 56.592C318.092 56.736 318.004 56.92 317.956 57.144C317.924 57.352 317.908 57.608 317.908 57.912C317.908 58.424 317.924 58.832 317.956 59.136C318.004 59.44 318.044 59.688 318.076 59.88C318.124 60.072 318.164 60.224 318.196 60.336C318.244 60.432 318.268 60.528 318.268 60.624C318.268 60.752 318.196 60.888 318.052 61.032C317.924 61.176 317.804 61.248 317.692 61.248C317.5 61.248 317.324 61.08 317.164 60.744C317.02 60.392 316.892 59.984 316.78 59.52C316.684 59.04 316.604 58.568 316.54 58.104C316.476 57.64 316.444 57.288 316.444 57.048C316.444 56.776 316.468 56.52 316.516 56.28C316.564 56.024 316.628 55.808 316.708 55.632C316.788 55.44 316.876 55.288 316.972 55.176C317.068 55.064 317.164 55.008 317.26 55.008C317.34 55.008 317.404 55.04 317.452 55.104C317.5 55.152 317.54 55.216 317.572 55.296C317.604 55.36 317.636 55.424 317.668 55.488C317.716 55.536 317.772 55.56 317.836 55.56C317.98 55.56 318.212 55.488 318.532 55.344C318.852 55.2 319.244 55.128 319.708 55.128C320.14 55.128 320.46 55.144 320.668 55.176C320.892 55.192 321.108 55.24 321.316 55.32C321.364 55.336 321.42 55.376 321.484 55.44C321.564 55.488 321.604 55.568 321.604 55.68ZM327.83 57.816C327.83 58.168 327.782 58.504 327.686 58.824C327.59 59.144 327.462 59.424 327.302 59.664C327.142 59.904 326.95 60.096 326.726 60.24C326.518 60.368 326.286 60.432 326.03 60.432C325.582 60.432 325.23 60.304 324.974 60.048C324.718 59.792 324.518 59.496 324.374 59.16C324.246 58.824 324.158 58.488 324.11 58.152C324.078 57.8 324.062 57.536 324.062 57.36C324.062 57.072 324.102 56.752 324.182 56.4C324.278 56.032 324.398 55.696 324.542 55.392C324.702 55.088 324.878 54.832 325.07 54.624C325.262 54.416 325.462 54.312 325.67 54.312C325.718 54.312 325.79 54.328 325.886 54.36C325.998 54.392 326.11 54.44 326.222 54.504C326.334 54.568 326.43 54.648 326.51 54.744C326.606 54.84 326.67 54.952 326.702 55.08C326.878 55.096 327.054 55.16 327.23 55.272C327.406 55.384 327.502 55.472 327.518 55.536C327.646 55.952 327.726 56.368 327.758 56.784C327.806 57.2 327.83 57.544 327.83 57.816ZM326.75 57.384C326.75 57.144 326.726 56.896 326.678 56.64C326.63 56.368 326.534 56.096 326.39 55.824C326.358 55.84 326.318 55.848 326.27 55.848C326.206 55.848 326.15 55.84 326.102 55.824C326.07 55.808 326.038 55.8 326.006 55.8C325.814 55.8 325.662 55.856 325.55 55.968C325.438 56.064 325.35 56.2 325.286 56.376C325.238 56.536 325.206 56.712 325.19 56.904C325.174 57.096 325.166 57.28 325.166 57.456C325.166 57.632 325.174 57.832 325.19 58.056C325.206 58.264 325.238 58.464 325.286 58.656C325.35 58.848 325.43 59.016 325.526 59.16C325.622 59.288 325.75 59.352 325.91 59.352C326.07 59.352 326.206 59.272 326.318 59.112C326.43 58.936 326.518 58.736 326.582 58.512C326.646 58.288 326.686 58.072 326.702 57.864C326.734 57.64 326.75 57.48 326.75 57.384ZM335.925 55.68C335.925 55.792 335.877 55.888 335.781 55.968C335.685 56.032 335.573 56.088 335.445 56.136C335.317 56.184 335.189 56.224 335.061 56.256C334.933 56.272 334.829 56.28 334.749 56.28C334.509 56.28 334.349 56.264 334.269 56.232C334.189 56.2 334.125 56.184 334.077 56.184C333.677 56.184 333.357 56.216 333.117 56.28C332.877 56.344 332.685 56.448 332.541 56.592C332.413 56.736 332.325 56.92 332.277 57.144C332.245 57.352 332.229 57.608 332.229 57.912C332.229 58.424 332.245 58.832 332.277 59.136C332.325 59.44 332.365 59.688 332.397 59.88C332.445 60.072 332.485 60.224 332.517 60.336C332.565 60.432 332.589 60.528 332.589 60.624C332.589 60.752 332.517 60.888 332.373 61.032C332.245 61.176 332.125 61.248 332.013 61.248C331.821 61.248 331.645 61.08 331.485 60.744C331.341 60.392 331.213 59.984 331.101 59.52C331.005 59.04 330.925 58.568 330.861 58.104C330.797 57.64 330.765 57.288 330.765 57.048C330.765 56.776 330.789 56.52 330.837 56.28C330.885 56.024 330.949 55.808 331.029 55.632C331.109 55.44 331.197 55.288 331.293 55.176C331.389 55.064 331.485 55.008 331.581 55.008C331.661 55.008 331.725 55.04 331.773 55.104C331.821 55.152 331.861 55.216 331.893 55.296C331.925 55.36 331.957 55.424 331.989 55.488C332.037 55.536 332.093 55.56 332.157 55.56C332.301 55.56 332.533 55.488 332.853 55.344C333.173 55.2 333.565 55.128 334.029 55.128C334.461 55.128 334.781 55.144 334.989 55.176C335.213 55.192 335.429 55.24 335.637 55.32C335.685 55.336 335.741 55.376 335.805 55.44C335.885 55.488 335.925 55.568 335.925 55.68ZM340.495 51.408C340.495 51.552 340.423 51.864 340.279 52.344C340.135 52.824 339.975 53.36 339.799 53.952C339.639 54.528 339.487 55.096 339.343 55.656C339.215 56.216 339.151 56.656 339.151 56.976C339.151 57.312 339.167 57.592 339.199 57.816C339.231 58.024 339.263 58.2 339.295 58.344C339.343 58.488 339.383 58.616 339.415 58.728C339.447 58.824 339.463 58.944 339.463 59.088C339.463 59.408 339.319 59.568 339.031 59.568C338.983 59.568 338.935 59.536 338.887 59.472C338.535 58.96 338.319 58.456 338.239 57.96C338.175 57.464 338.143 57.08 338.143 56.808C338.143 56.472 338.191 56.04 338.287 55.512C338.383 54.968 338.503 54.4 338.647 53.808C338.791 53.2 338.951 52.6 339.127 52.008C339.319 51.4 339.503 50.872 339.679 50.424C339.711 50.392 339.751 50.36 339.799 50.328C339.847 50.296 339.911 50.28 339.991 50.28C340.103 50.28 340.191 50.328 340.255 50.424C340.319 50.504 340.367 50.608 340.399 50.736C340.431 50.848 340.455 50.968 340.471 51.096C340.487 51.224 340.495 51.328 340.495 51.408ZM341.287 62.184C341.287 62.36 341.231 62.544 341.119 62.736C341.023 62.912 340.895 63 340.735 63C340.527 63 340.327 62.896 340.135 62.688C339.959 62.48 339.871 62.24 339.871 61.968C339.871 61.872 339.887 61.752 339.919 61.608C339.967 61.448 340.071 61.368 340.231 61.368C340.295 61.368 340.383 61.376 340.495 61.392C340.607 61.408 340.719 61.448 340.831 61.512C340.959 61.56 341.063 61.64 341.143 61.752C341.239 61.864 341.287 62.008 341.287 62.184ZM345.932 51.408C345.932 51.552 345.86 51.864 345.716 52.344C345.572 52.824 345.412 53.36 345.236 53.952C345.076 54.528 344.924 55.096 344.78 55.656C344.652 56.216 344.588 56.656 344.588 56.976C344.588 57.312 344.604 57.592 344.636 57.816C344.668 58.024 344.7 58.2 344.732 58.344C344.78 58.488 344.82 58.616 344.852 58.728C344.884 58.824 344.9 58.944 344.9 59.088C344.9 59.408 344.756 59.568 344.468 59.568C344.42 59.568 344.372 59.536 344.324 59.472C343.972 58.96 343.756 58.456 343.676 57.96C343.612 57.464 343.58 57.08 343.58 56.808C343.58 56.472 343.628 56.04 343.724 55.512C343.82 54.968 343.94 54.4 344.084 53.808C344.228 53.2 344.388 52.6 344.564 52.008C344.756 51.4 344.94 50.872 345.116 50.424C345.148 50.392 345.188 50.36 345.236 50.328C345.284 50.296 345.348 50.28 345.428 50.28C345.54 50.28 345.628 50.328 345.692 50.424C345.756 50.504 345.804 50.608 345.836 50.736C345.868 50.848 345.892 50.968 345.908 51.096C345.924 51.224 345.932 51.328 345.932 51.408ZM346.724 62.184C346.724 62.36 346.668 62.544 346.556 62.736C346.46 62.912 346.332 63 346.172 63C345.964 63 345.764 62.896 345.572 62.688C345.396 62.48 345.308 62.24 345.308 61.968C345.308 61.872 345.324 61.752 345.356 61.608C345.404 61.448 345.508 61.368 345.668 61.368C345.732 61.368 345.82 61.376 345.932 61.392C346.044 61.408 346.156 61.448 346.268 61.512C346.396 61.56 346.5 61.64 346.58 61.752C346.676 61.864 346.724 62.008 346.724 62.184Z" fill="#DD417C"/>
    <path d="M103.277 231.937L106.321 227.057L100.233 218.271L94.1441 207.534V197.773L97.1884 186.059L103.277 176.298L115.454 167.513L127.632 161.656H140.824L148.942 165.561L159.09 173.37L163.149 180.203L166.193 191.916V194.845L177.355 197.773L189.533 203.63L196.636 207.534L202.725 212.415L206.784 216.319L200.695 215.343L193.592 212.415L181.415 207.534H174.311L168.223 205.582L166.193 212.415L174.311 215.343L185.474 221.2L193.592 227.057L181.415 224.128L166.193 216.319V221.2L177.355 227.057L185.474 237.794L196.636 256.34L202.725 273.91L204.754 289.528L202.725 304.17L198.666 315.884L189.533 328.573L181.415 337.358L183.444 338.334H186.488L188.518 339.31H190.548L191.562 341.263L188.518 342.239H192.577L193.592 344.191V346.143V347.119L191.562 349.072L186.488 350.048H181.415L127.632 352H122.558L120.528 350.048V348.096L121.543 346.143L123.572 345.167L112.41 341.263L103.277 334.43L97.1884 326.621L94.1441 319.788L91.0997 309.051L89.0702 299.289V286.6V273.91L91.0997 266.101L94.1441 252.436L97.1884 241.698L103.277 231.937Z" fill="#F1B1C9"/>
    <path d="M123.572 345.167L112.41 341.263L103.277 334.43L97.1884 326.621L94.1441 319.788L91.0997 309.051L89.0702 299.289V286.6V273.91L91.0997 266.101L94.1441 252.436L97.1884 241.698L103.277 231.937L106.321 227.057L100.233 218.271L94.1441 207.534V197.773L97.1884 186.059L103.277 176.298L115.454 167.513L127.632 161.656H140.824L148.942 165.561L159.09 173.37L163.149 180.203L166.193 191.916V194.845M123.572 345.167L140.824 347.119M123.572 345.167L121.543 346.143L120.528 348.096V350.048L122.558 352H127.632L181.415 350.048H186.488L191.562 349.072L193.592 347.119V346.143V344.191L192.577 342.239H188.518M140.824 347.119L142.853 341.263L144.883 333.454V326.621V319.788L142.853 312.955L140.824 309.051M140.824 347.119L159.09 345.167L171.267 341.263L181.415 337.358M140.824 309.051L134.735 316.86L124.587 314.907L112.41 309.051L106.321 299.289L103.277 286.6L100.233 273.91L99.2179 264.149L100.233 254.388L103.277 244.627L106.321 237.794M140.824 309.051L144.883 302.218L147.927 295.385V289.528V279.767V270.982V261.221L144.883 254.388L142.853 247.555V241.698L147.927 234.865L153.001 229.985L159.09 227.057L166.193 221.2M166.193 221.2L177.355 227.057L185.474 237.794L196.636 256.34L202.725 273.91L204.754 289.528L202.725 304.17L198.666 315.884L189.533 328.573L181.415 337.358M166.193 221.2V216.319M181.415 337.358L183.444 338.334H186.488L188.518 339.31H190.548L191.562 341.263L188.518 342.239M166.193 194.845L177.355 197.773L189.533 203.63L196.636 207.534L202.725 212.415L206.784 216.319L200.695 215.343L193.592 212.415L181.415 207.534H174.311L168.223 205.582L166.193 212.415L174.311 215.343L185.474 221.2L193.592 227.057L181.415 224.128L166.193 216.319M166.193 194.845L163.149 195.821L161.119 199.725V206.558V214.367L163.149 215.343L166.193 216.319M149.957 187.036V188.012V186.059M188.518 342.239H185.474M151.986 193.868L149.957 194.845L146.912 195.821L142.853 194.845L140.824 193.868L137.779 191.916L136.765 188.988V185.083L137.779 182.155L140.824 179.227H144.883H147.927L149.957 180.203L151.986 182.155L154.016 185.083L155.03 188.012V189.964L154.016 192.892L151.986 193.868Z" stroke="black"/>
    <path d="M131.219 184.955C131.219 188.624 130.874 194.508 135.416 195.964" stroke="black" stroke-linecap="round" stroke-linejoin="round"/>
    <path d="M127.023 188.258C127.023 191.308 127.596 193.031 128.93 195.597" stroke="black" stroke-linecap="round" stroke-linejoin="round"/>
    <path d="M159.5 227L166 221.5L177.5 227L185.5 238L196.5 256.5L203 274L205 289.5L203 304.5L198.5 316L189.5 329L181.5 337.5L159 345L141 347L145 333.5L144.5 319L143 312.5L141 309L145 302.5L148 295L147.5 261L144.5 254L143 248V241L148.5 234.5L153 229.5L159.5 227Z" fill="#DD417C" stroke="black"/>
    <path d="M161 200V214.5L166 216.5L181.5 224.5L193.5 227L185 221L174 215.5L166 212.5L168 205.5L174 207.5H181.5L200.5 215.5L207 216.5L202 212L196.5 207.5L189 203.5L177 198L166 195L163 196L161 200Z" fill="#DD417C" stroke="black"/>
    <path d="M136.5 189L138 192L142.5 195L147 196L150.5 195L154 193L155.5 189L154 185L152 182.5L150.5 180.5L148 179H140.5L138 182.5L136.5 185V189Z" fill="white" stroke="black"/>
    <path d="M148.5 186V187H149V186" stroke="black"/>
    <path d="M271.729 226.08L282.892 216.319V215.343V214.367L278.833 211.439L276.803 207.813L271.729 208.51L259.552 211.439L245.345 217.295L240.271 218.271L251.434 206.558L264.626 196.797L271.729 193.868V188.012L272.744 181.179L279.848 170.441L289.995 162.633L300.143 159.704H309.276L322.468 161.656L330.586 165.561L335.66 171.418L341.749 182.155L343.778 188.988V198.749L342.764 207.534L339.719 216.319L337.69 221.2L342.764 225.104L347.837 231.937L353.926 243.651L357.985 261.221L359 273.91L357.985 294.409L355.956 306.122L352.911 316.86L346.823 327.597L339.719 335.406L336.675 336.757L332.616 338.56L334.645 339.31L337.69 340.287L340.734 343.215L339.719 347.119L336.675 349.072L329.572 350.048H278.833H264.626L261.582 348.096L262.597 346.143L264.626 345.167L269.7 344.191L268.685 341.263L273.759 340.287L269.7 339.31L261.582 333.454L256.508 327.597L253.464 322.716L249.404 312.955L245.345 301.242V287.576L247.375 275.863L249.404 267.077L254.478 253.412L259.552 241.698L271.729 226.08Z" fill="#DD417C" fill-opacity="0.41"/>
    <path d="M282.892 216.319L271.729 226.08L259.552 241.698L254.478 253.412L249.404 267.077L247.375 275.863L245.345 287.576V301.242L249.404 312.955L253.464 322.716L256.508 327.597L261.582 333.454L269.7 339.31L273.759 340.287M282.892 216.319V215.343V214.367L278.833 211.439L276.803 207.813M282.892 216.319L286.951 221.2L289.995 225.104L292.025 230.961L296.084 235.842L302.173 239.746L304.202 241.698L299.128 248.531L297.099 257.316L295.069 268.054V275.863L297.099 287.576L301.158 295.385L308.261 306.122L315.365 311.979L320.439 314.907L323.483 313.443M271.729 193.868V188.012L272.744 181.179L279.848 170.441L289.995 162.633L300.143 159.704H309.276L322.468 161.656L330.586 165.561L335.66 171.418L341.749 182.155L343.778 188.988V198.749L342.764 207.534L339.719 216.319L337.69 221.2L342.764 225.104L347.837 231.937L353.926 243.651L357.985 261.221L359 273.91L357.985 294.409L355.956 306.122L352.911 316.86L346.823 327.597L339.719 335.406L336.675 336.757M271.729 193.868L264.626 196.797L251.434 206.558L240.271 218.271L245.345 217.295L259.552 211.439L271.729 208.51L276.803 207.813M271.729 193.868H276.803L280.862 196.797L286.951 203.63L278.833 207.534L276.803 207.813M331.601 226.08L335.66 229.985L340.734 239.746L343.778 249.507L345.808 261.221L346.823 270.006L345.808 280.743L343.778 289.528L340.734 295.385L336.675 301.242L326.527 311.979L323.483 313.443M323.483 313.443L324.498 321.74L326.527 327.597L329.572 333.454L332.616 336.382L336.675 336.757M336.675 336.757L332.616 338.56M273.759 340.287L277.818 341.263L288.981 343.215H301.158H314.35L326.527 341.263L332.616 338.56M273.759 340.287L268.685 341.263L269.7 344.191L264.626 345.167L262.597 346.143L261.582 348.096L264.626 350.048H278.833H329.572L336.675 349.072L339.719 347.119L340.734 343.215L337.69 340.287L334.645 339.31L332.616 338.56M282.892 185.083H283.907H284.922M288.981 193.868H284.922L281.877 191.916L279.848 188.988V186.059V181.179L282.892 179.227L285.936 177.274H288.981L293.04 178.25L295.069 179.227L297.099 181.179L299.128 184.107V187.036L297.099 189.964L295.069 191.916L292.025 192.892L288.981 193.868Z" stroke="black"/>
    <path d="M271.5 226L283 216.5L290 224.5L292 230.5L297 236L302 239.5L304.5 241.5L299 248L295 267V276L297 287L300.5 294.5L308.5 306L315 311.5L320.5 315L323 313.5L324 322L329.5 333.5L332 336.5H336.5L326.5 341.5L314 343H288.5L269.5 339.5L261.5 333.5L256 327L253.5 323L245.5 300.5V287L249.5 267L259.5 241.5L271.5 226Z" fill="#DD417C" stroke="black"/>
    <path d="M271.5 194H277L281 196.5L286.5 203.5L278.5 207.5L270.5 209L259 211.5L245 217L239.5 218.5L251.5 206.5L265 196.5L271.5 194Z" fill="#DD417C" stroke="black"/>
    <path d="M280 181V189L281.5 192L285.5 194H289L295.5 192L297 190L299 187V184L297.5 182L295.5 179.5L293 178.5L289 177H285.5L280 181Z" fill="white" stroke="black"/>
    <path d="M286 185V184H287V185" stroke="black"/>
</svg>
