<svg width="225" height="67" viewBox="0 0 225 67" fill="none" xmlns="http://www.w3.org/2000/svg">
    <path d="M15.5702 59.6091C15.8034 60.6636 15.8 61.537 15.5599 62.2292C15.3145 62.898 14.8857 63.5705 14.2733 64.2467C14.1117 64.4054 13.8851 64.603 13.5933 64.8396C13.3015 65.0762 12.972 65.3089 12.6047 65.5376C12.2375 65.7663 11.8416 65.9768 11.4171 66.1691C10.9926 66.3613 10.5929 66.4989 10.2179 66.5818C9.16343 66.8151 8.34077 66.8742 7.74996 66.7591C7.16434 66.6674 6.83783 66.4693 6.77043 66.1646C6.69786 65.8366 6.73197 65.5464 6.87278 65.294C7.01359 65.0416 7.15171 64.8882 7.28712 64.8336L7.73599 65.0293C7.87907 65.1205 8.07162 65.2131 8.31362 65.3071C8.55045 65.3776 8.90319 65.361 9.37186 65.2573C9.81709 65.1588 10.3405 64.9693 10.9421 64.6887C11.5385 64.3847 12.0842 64.0182 12.5792 63.5891C13.0925 63.1314 13.4965 62.6242 13.7912 62.0674C14.1093 61.5054 14.2009 60.9198 14.0662 60.3105C13.9469 59.7716 13.428 59.3702 12.5093 59.1064C11.6089 58.814 10.2735 58.7776 8.50313 58.9972C7.59711 59.1239 6.69503 59.2128 5.79689 59.264C4.89356 59.2918 4.06189 59.2546 3.30186 59.1523C2.56008 59.0215 1.93423 58.8035 1.42429 58.4985C0.90918 58.17 0.584228 57.7011 0.449442 57.0918C0.319839 56.506 0.359455 55.9073 0.568288 55.2957C0.777121 54.6842 1.06662 54.104 1.43679 53.5551C1.82521 52.9775 2.23831 52.456 2.67608 51.9904C3.11386 51.5249 3.48257 51.136 3.78223 50.824C4.02715 50.5977 4.36714 50.3013 4.80222 49.9346C5.25554 49.5394 5.73749 49.1624 6.24805 48.8036C6.77686 48.4163 7.30432 48.0784 7.83043 47.7899C8.3748 47.4728 8.84616 47.2702 9.24453 47.1821C9.7132 47.0784 10.0581 47.1373 10.2791 47.3588C10.5002 47.5803 10.6626 47.9253 10.7662 48.394C10.8544 48.7924 10.9008 49.2246 10.9056 49.6905C10.9103 50.1565 10.9008 50.6133 10.8769 51.0611C10.8531 51.5088 10.8189 51.9096 10.7743 52.2636C10.7479 52.589 10.7217 52.8037 10.6956 52.9078C10.6485 53.1395 10.5741 53.3034 10.4725 53.3996C10.3709 53.4958 10.2967 53.5491 10.2498 53.5595C10.1561 53.5802 10.0963 53.532 10.0703 53.4149C10.0548 53.3446 10.038 53.2131 10.0199 53.0204C10.0202 52.7992 10.0126 52.5427 9.99724 52.2512C10.0053 51.9544 9.98481 51.6394 9.93566 51.3062C9.90995 50.9677 9.86081 50.6345 9.78823 50.3064C9.67418 49.7909 9.5678 49.4211 9.46909 49.1972C9.37039 48.9732 9.157 48.8975 8.82893 48.9701C8.50086 49.0427 8.07636 49.2349 7.55543 49.5468C7.02932 49.8352 6.50186 50.1731 5.97305 50.5605C5.40256 50.9817 4.86192 51.4823 4.35115 52.0623C3.86382 52.6371 3.43765 53.2107 3.07267 53.7831C2.70768 54.3554 2.42212 54.8979 2.21598 55.4105C2.0281 55.8946 1.96267 56.2654 2.01969 56.5232C2.0819 56.8044 2.32898 57.0324 2.76094 57.2073C3.21115 57.3535 3.74991 57.4555 4.37722 57.5134C5.02796 57.566 5.7321 57.5823 6.48964 57.5622C7.24718 57.5421 7.98523 57.4894 8.70379 57.4042C9.30517 57.3449 9.97033 57.2961 10.6993 57.2577C11.4282 57.2194 12.1258 57.2617 12.7921 57.3847C13.4584 57.5077 14.0517 57.7451 14.572 58.097C15.0871 58.4255 15.4198 58.9295 15.5702 59.6091ZM34.1117 55.5809C34.2102 56.0262 34.0133 56.4139 33.521 56.744C33.0287 57.0741 32.4453 57.4367 31.7707 57.8318C31.1143 58.1982 30.4788 58.5477 29.8641 58.8803C29.2443 59.1895 28.6948 59.4832 28.2155 59.7612C27.7545 60.0107 27.4732 60.1836 27.3716 60.2798C27.382 60.3266 27.3949 60.3852 27.4105 60.4555C27.426 60.5258 27.4533 60.5935 27.4923 60.6587L27.7844 61.4789C27.831 61.6898 27.8322 61.8616 27.7878 61.9944C27.7668 62.1219 27.6626 62.2064 27.4752 62.2479C27.2643 62.2945 27.099 62.2696 26.9793 62.1732C26.8779 62.0482 26.7739 61.9114 26.6673 61.7629C26.579 61.5858 26.4906 61.4087 26.4023 61.2316C26.3374 61.0493 26.2477 60.9217 26.1332 60.8487C26.0864 60.8591 25.9093 60.9474 25.6019 61.1137C25.2946 61.28 24.8987 61.4905 24.4143 61.7452C23.9533 61.9946 23.4272 62.2831 22.836 62.6105C22.263 62.9093 21.6991 63.1938 21.1444 63.4641C20.5897 63.7343 20.0649 63.9732 19.5701 64.181C19.0753 64.3888 18.6873 64.5238 18.4061 64.586C17.7734 64.726 17.413 64.5968 17.3249 64.1984C17.2575 63.8938 17.2902 63.653 17.4232 63.4761C17.5795 63.2941 17.7671 63.142 17.9859 63.0198C18.0276 62.986 18.2372 62.8782 18.6148 62.6963C19.0159 62.5093 19.4964 62.2924 20.0563 62.0456C20.611 61.7754 21.1983 61.4857 21.8182 61.1765C22.4615 60.8621 23.0488 60.5724 23.5801 60.3074C24.1348 60.0372 24.5749 59.8047 24.9005 59.6097C25.2495 59.4096 25.4189 59.2861 25.4085 59.2393C25.3774 59.0987 25.2618 58.8538 25.0617 58.5048C24.885 58.1506 24.7135 57.8199 24.5472 57.5125L24.1808 56.8562C23.5209 55.429 22.9288 53.9746 22.4043 52.4929C21.8799 51.0112 21.3958 49.5452 20.952 48.0948C20.8948 48.0583 20.831 48.0478 20.7607 48.0634C20.6436 48.0893 20.3648 48.2738 19.9246 48.617C19.4843 48.9602 19.0141 49.3346 18.5139 49.7403C18.0085 50.1225 17.5357 50.4851 17.0954 50.8283C16.6786 51.1664 16.4233 51.3457 16.3296 51.3665C16.1656 51.4028 15.986 51.3688 15.7908 51.2644C15.6191 51.1549 15.5177 51.0299 15.4866 50.8893C15.4452 50.7018 15.5508 50.4572 15.8036 50.1555C16.0512 49.8303 16.3691 49.4896 16.7573 49.1334C17.1638 48.7485 17.6106 48.3793 18.0977 48.0257C18.6031 47.6435 19.0811 47.3042 19.5317 47.0079C20.0006 46.683 20.3978 46.423 20.7234 46.2281C21.0724 46.028 21.3055 45.915 21.4227 45.889C21.6102 45.8476 21.8484 45.758 22.1375 45.6203C22.4266 45.4826 22.7365 45.328 23.0673 45.1565C23.398 44.985 23.7314 44.8252 24.0674 44.6772C24.4267 44.5239 24.747 44.4162 25.0282 44.354C25.3329 44.2866 25.5085 44.3583 25.5552 44.5692C25.5811 44.6864 25.555 44.7905 25.4768 44.8816L24.5196 45.3883C24.2774 45.5156 24.0144 45.6598 23.7305 45.8209C23.4648 45.9535 23.2161 46.1068 22.9842 46.281C22.7706 46.4266 22.5974 46.5878 22.4644 46.7647C22.3497 46.913 22.308 47.0574 22.3391 47.198C22.4687 47.7838 22.6983 48.5442 23.028 49.479C23.376 50.3853 23.7538 51.3709 24.1615 52.436C24.5875 53.4725 25.0303 54.5298 25.49 55.6079C25.9498 56.6861 26.3588 57.7017 26.7171 58.6548L32.6513 55.6459C32.7867 55.5914 32.9195 55.5252 33.0498 55.4472C33.1566 55.3744 33.266 55.3133 33.3779 55.264C33.4899 55.2146 33.5928 55.1796 33.6865 55.1588C33.8974 55.1122 34.0392 55.2529 34.1117 55.5809ZM49.0654 48.9176C49.1691 49.3863 49.2324 49.8393 49.2555 50.2766C49.3019 50.7088 49.2689 51.1708 49.1565 51.6627C49.0624 52.126 48.894 52.6426 48.6513 53.2124C48.4087 53.7823 48.0762 54.4458 47.6537 55.2029C47.1401 56.1031 46.4911 56.9472 45.7068 57.7352C44.9225 58.5232 43.9679 59.0417 42.8431 59.2905C42.1401 59.446 41.4112 59.4844 40.6563 59.4056C39.9249 59.3216 39.2379 59.1049 38.5953 58.7554C37.976 58.4008 37.4246 57.9083 36.941 57.2779C36.4575 56.6474 36.112 55.8636 35.9046 54.9262C35.5728 53.4265 35.5067 51.7942 35.7062 50.0295C35.9005 48.2413 36.2916 46.2867 36.8793 44.1657C37.2607 42.7785 37.6289 41.5541 37.9839 40.4923C38.3338 39.4071 38.7082 38.4886 39.1072 37.7366C39.501 36.9613 39.9311 36.3499 40.3975 35.9026C40.8639 35.4553 41.4017 35.1643 42.011 35.0295C42.4797 34.9258 42.8988 34.9314 43.2683 35.0463C43.6561 35.1326 43.907 35.4335 44.0211 35.949C44.0574 36.1131 44.0559 36.2732 44.0167 36.4293C43.9723 36.562 43.8798 36.6439 43.7392 36.675C43.5518 36.7165 43.4008 36.7008 43.2863 36.6278C43.1901 36.5261 42.9545 36.5168 42.5796 36.5998C41.9469 36.7397 41.3907 37.17 40.911 37.8906C40.4314 38.6113 40.0076 39.4178 39.6397 40.3104C39.2901 41.1743 38.999 42.0253 38.7665 42.8633C38.5575 43.6961 38.4098 44.3064 38.3235 44.6942C38.172 45.3422 38.0085 46.1035 37.8333 46.978C37.6815 47.8473 37.5466 48.7375 37.4286 49.6484C37.3106 50.5594 37.2342 51.4366 37.1996 52.28C37.1598 53.1 37.1969 53.7677 37.3109 54.2833C37.4561 54.9394 37.6911 55.5019 38.0161 55.9708C38.3593 56.4111 38.7572 56.7655 39.2099 57.034C39.6626 57.3026 40.1558 57.4762 40.6893 57.5548C41.2412 57.6047 41.7983 57.5675 42.3607 57.4431C43.134 57.272 43.8775 56.9109 44.5913 56.3597C45.3285 55.8033 45.9461 55.1505 46.444 54.4013C46.9654 53.6468 47.3371 52.8272 47.5592 51.9423C47.8048 51.0523 47.8368 50.1972 47.6554 49.377C47.4739 48.5568 47.1127 47.9239 46.5716 47.4783C46.0306 47.0326 45.5023 46.8668 44.9868 46.9809C44.6587 47.0534 44.4373 47.1639 44.3227 47.3121C44.2262 47.4318 44.1376 47.5866 44.0567 47.7766C43.9497 48.0706 43.844 48.3152 43.7397 48.5103C43.6354 48.7055 43.4205 48.9005 43.0949 49.0954C42.574 49.4073 42.1598 49.6464 41.8525 49.8127C41.5634 49.9504 41.3538 50.0583 41.2235 50.1362L40.9579 50.2687C40.8173 50.2999 40.5974 50.2502 40.2981 50.1197C40.0171 49.9607 39.8637 49.8226 39.8377 49.7054C39.7444 49.2836 39.9024 48.8308 40.3115 48.347C40.7389 47.8346 41.2353 47.3561 41.8006 46.9115C42.3607 46.4434 42.9129 46.0509 43.4573 45.7338C44.0017 45.4167 44.3442 45.2426 44.4848 45.2115C45.1878 45.056 45.793 45.0696 46.3004 45.2523C46.8313 45.4298 47.2749 45.7127 47.6311 46.1009C48.0108 46.4839 48.3189 46.932 48.5553 47.445C48.7865 47.9346 48.9565 48.4255 49.0654 48.9176ZM68.2878 51.8548C68.3397 52.0891 68.2809 52.3234 68.1114 52.5575C67.942 52.7916 67.7284 52.9372 67.4706 52.9942C67.4238 53.0046 67.3483 52.9967 67.2442 52.9706C67.1349 52.921 67.0516 52.878 66.9944 52.8415C65.8028 52.1219 64.5553 51.4269 63.2517 50.7567C61.9482 50.0864 60.6277 49.3954 59.2904 48.6834C57.953 47.9715 56.617 47.2101 55.2824 46.3992C53.9711 45.5832 52.6978 44.6605 51.4622 43.6311C52.0468 44.8291 52.755 46.0858 53.5868 47.4012C54.4133 48.6931 55.1983 49.9082 55.9418 51.0465C56.7086 52.1796 57.3689 53.1643 57.9226 54.0004C58.4711 54.8131 58.7712 55.3366 58.8231 55.571C58.8853 55.8522 58.8174 56.1007 58.6193 56.3166C58.4499 56.5507 58.248 56.6937 58.0137 56.7455C57.8731 56.7766 57.6871 56.658 57.4556 56.3897C57.2294 56.1447 56.959 55.8113 56.6444 55.3893C56.3533 54.9621 56.04 54.4906 55.7047 53.9749C55.3876 53.4305 55.0732 52.8979 54.7613 52.3769C54.4442 51.8326 54.1492 51.3325 53.8763 50.8767C53.5982 50.3974 53.376 50.0041 53.2097 49.6968L51.6308 47.0596C51.2851 46.497 50.9368 45.9226 50.586 45.3366C50.2299 44.7271 49.8959 44.1619 49.584 43.641C49.2956 43.1149 49.0461 42.6539 48.8356 42.258C48.6486 41.8569 48.5395 41.5861 48.5084 41.4455C48.4514 41.1877 48.4295 40.9222 48.4428 40.6489C48.4509 40.3521 48.5487 40.183 48.7361 40.1415C48.8533 40.1156 48.9431 40.1326 49.0055 40.1925C49.0627 40.229 49.1148 40.2421 49.1617 40.2317L49.5446 39.9627C49.6618 39.9368 49.8946 40.045 50.2432 40.2874C50.6101 40.5012 51.0328 40.801 51.5114 41.1867C52.0135 41.5673 52.5519 42.0012 53.1267 42.4885C53.7016 42.9759 54.2738 43.4515 54.8435 43.9154C55.4366 44.3741 55.9867 44.8055 56.494 45.2094C57.0246 45.6082 57.4851 45.9119 57.8754 46.1206C58.4946 46.4752 59.1086 46.8064 59.7175 47.1141C60.3263 47.4219 60.9378 47.7413 61.5518 48.0725C62.1841 48.3751 62.8476 48.7076 63.5423 49.0701C64.237 49.4326 65.0058 49.8525 65.8488 50.3296C65.8774 50.3479 65.9386 50.3466 66.0323 50.3259C66.0792 50.3155 66.0897 50.2518 66.0637 50.1346C66.0378 50.0174 66.0067 49.8768 65.9704 49.7128C65.8979 49.3847 65.6745 48.8196 65.3004 48.0175C64.9211 47.1919 64.4313 46.2556 63.831 45.2086C63.2489 44.1329 62.5927 42.9999 61.8623 41.8096C61.1268 40.5958 60.369 39.4484 59.5891 38.3674C58.8274 37.2577 58.0565 36.273 57.2764 35.4132C56.5197 34.5482 55.824 33.9033 55.1892 33.4783C55.0175 33.3688 54.8654 33.1813 54.7329 32.9156C54.6238 32.6448 54.5485 32.4156 54.507 32.2282C54.4708 32.0641 54.5373 31.8651 54.7068 31.6309C54.8944 31.3682 55.082 31.2161 55.2695 31.1746C55.5507 31.1124 55.9292 31.3236 56.4052 31.8083C56.8811 32.2929 57.4193 32.9481 58.0199 33.7739C58.6152 34.5762 59.2365 35.4957 59.8837 36.5324C60.5544 37.5639 61.2159 38.6097 61.8683 39.6698C62.6376 40.9253 63.3692 42.1768 64.0631 43.4243C64.7752 44.6433 65.4106 45.7932 65.9692 46.874C66.5513 47.9497 67.0372 48.9238 67.4268 49.7962C67.8399 50.6634 68.1269 51.3496 68.2878 51.8548ZM98.9571 48.2039C99.0193 48.4851 98.9879 48.6764 98.8629 48.7778C98.743 48.9027 98.5893 48.9858 98.4019 49.0273C98.2613 49.0584 98.0686 49.0764 97.8239 49.0814C97.7016 49.0839 97.4999 49.0056 97.2189 48.8466C96.9665 48.7057 96.6829 48.535 96.3681 48.3342C96.0247 48.1152 95.6501 47.8663 95.2443 47.5873L93.0435 45.9726C93.0122 46.0533 92.9405 46.2289 92.8283 46.4995C92.7109 46.7467 92.5518 47.0277 92.3511 47.3425C92.1686 47.6287 91.9341 47.9018 91.6475 48.1618C91.3609 48.4219 91.0301 48.5934 90.6552 48.6763C90.3974 48.7333 90.0629 48.7213 89.6517 48.6402C89.2691 48.5774 88.8592 48.4468 88.4221 48.2486C87.9849 48.0503 87.5348 47.7935 87.0717 47.4781C86.6321 47.1575 86.229 46.7796 85.8623 46.3445C85.3943 45.7844 84.9679 45.1905 84.5833 44.5628C84.2169 43.9064 83.8856 43.2423 83.5895 42.5704C83.3168 41.8933 83.0818 41.2202 82.8846 40.551C82.6822 39.8583 82.5136 39.2074 82.3788 38.5981C82.187 37.7311 82.0848 37.1023 82.0722 36.7118C82.0829 36.3162 82.3227 36.0665 82.7913 35.9628C82.9788 35.9213 83.135 35.9605 83.2598 36.0804C83.4029 36.1716 83.49 36.2876 83.5211 36.4282C83.8114 37.7404 84.2006 39.0554 84.6888 40.3731C85.1717 41.6673 85.7134 42.8379 86.3137 43.885C86.9089 44.9086 87.542 45.7149 88.213 46.3038C88.9075 46.8876 89.6063 47.1017 90.3093 46.9462C90.6139 46.8788 90.8601 46.7137 91.0478 46.451C91.2302 46.1648 91.3581 45.8539 91.4313 45.5181C91.5279 45.1772 91.5803 44.8584 91.5884 44.5616C91.5965 44.2648 91.5967 44.0436 91.589 43.8978C91.3759 43.6008 91.1276 43.201 90.8444 42.6983C90.5793 42.167 90.3157 41.5863 90.0533 40.9561C89.791 40.3258 89.547 39.667 89.3211 38.9796C89.0953 38.2921 88.9098 37.6203 88.7647 36.9642C88.5417 35.9565 88.3603 35.1364 88.2203 34.5037C88.0986 33.8424 88.034 33.3282 88.0266 32.9611C88.0139 32.5706 88.0649 32.3012 88.1796 32.153C88.2891 31.9813 88.4727 31.8669 88.7305 31.8099C88.8711 31.7788 89.0104 31.7971 89.1483 31.8649C89.3044 31.9041 89.428 31.9628 89.519 32.041C89.6335 32.114 89.7246 32.1922 89.7922 32.2756C89.8598 32.3589 89.8962 32.4123 89.9013 32.4358C89.9221 32.5295 89.9168 32.6167 89.8855 32.6974C89.849 32.7546 89.8411 32.8301 89.8618 32.9238C89.9033 33.1113 89.9863 33.3756 90.111 33.7167C90.259 34.0527 90.4097 34.4003 90.5629 34.7597C90.8694 35.4785 91.1875 36.3053 91.5173 37.2401C91.8704 38.1698 92.1869 39.2673 92.4669 40.5327L92.7935 42.009C92.835 42.1965 93.0142 42.5624 93.3313 43.1068C93.6666 43.6225 94.3076 44.3533 95.2543 45.2992C95.8888 45.9454 96.4545 46.447 96.9514 46.8041C97.4717 47.156 97.8892 47.4324 98.204 47.6331C98.3992 47.7374 98.5683 47.8352 98.7114 47.9264C98.8596 48.0411 98.9416 48.1336 98.9571 48.2039ZM90.9819 37.6535C90.9274 37.5181 90.8533 37.3501 90.7598 37.1496C90.6663 36.9491 90.561 36.7511 90.4441 36.5558C90.3506 36.3552 90.2648 36.1899 90.1868 36.0596C90.1323 35.9242 90.105 35.8565 90.105 35.8565C90.1621 36.1143 90.2321 36.4306 90.315 36.8056C90.4162 37.1519 90.52 37.5099 90.6264 37.8797C90.751 38.2208 90.8756 38.5619 91.0002 38.9031C91.1197 39.2208 91.2405 39.489 91.3626 39.7078C91.3263 39.5438 91.3018 39.3771 91.2889 39.2079C91.2578 39.0673 91.2241 38.915 91.1878 38.751C91.1698 38.5583 91.14 38.3682 91.0985 38.1808L90.9819 37.6535ZM104.489 27.8075C104.826 29.3307 104.934 30.7079 104.813 31.939C104.715 33.165 104.531 34.2751 104.259 35.2693C104.006 36.2348 103.734 37.1183 103.445 37.9198C103.173 38.6927 103.037 39.4111 103.036 40.0749C103.013 40.5226 102.801 40.7905 102.403 40.8786C102.356 40.889 102.321 40.8968 102.298 40.902C102.269 40.8837 102.231 40.8798 102.184 40.8901C102.437 41.2522 102.784 41.6547 103.226 42.0977C103.663 42.5172 104.102 42.9485 104.544 43.3914C104.987 43.8344 105.379 44.276 105.722 44.7163C106.089 45.1513 106.311 45.5446 106.389 45.8961C106.43 46.0836 106.34 46.2879 106.119 46.5089C105.926 46.7482 105.736 46.8886 105.548 46.9301C105.455 46.9508 105.371 46.9078 105.299 46.801C104.878 46.0092 104.245 45.2029 103.399 44.3821C102.554 43.5613 101.66 42.6286 100.716 41.5838C99.795 40.5338 98.9111 39.316 98.0638 37.9303C97.2165 36.5447 96.5829 34.9028 96.1629 33.0046C95.9867 32.2079 95.8741 31.5323 95.8252 30.9778C95.7945 30.3946 95.9783 30.059 96.3767 29.9709C96.611 29.919 96.7906 29.953 96.9154 30.0729C97.0403 30.1928 97.1208 30.3347 97.1571 30.4987C97.6289 32.6312 98.2428 34.4618 98.9989 35.9906C99.7549 37.5193 100.478 38.6745 101.167 39.4561L101.562 38.41C101.964 37.3379 102.31 36.4011 102.599 35.5996C102.884 34.7747 103.092 33.9913 103.223 33.2495C103.348 32.4843 103.389 31.7255 103.346 30.9732C103.326 30.2156 103.209 29.3565 102.997 28.3957C102.94 28.1379 102.842 27.8645 102.705 27.5754C102.59 27.2812 102.437 27.0324 102.245 26.8292C102.07 26.5974 101.871 26.4201 101.648 26.2976C101.424 26.175 101.171 26.1448 100.89 26.2071C100.515 26.29 99.9645 26.5225 99.2379 26.9044C98.5347 27.2812 97.8236 27.7335 97.1046 28.2613C96.3856 28.789 95.7473 29.3481 95.1897 29.9385C94.6268 30.5055 94.3244 31.0271 94.2823 31.5034C94.2692 31.5555 94.247 31.6219 94.2157 31.7025C94.1844 31.7832 94.1453 31.8287 94.0984 31.8391C93.9344 31.8754 93.7301 31.7854 93.4857 31.5691C93.2412 31.3528 93.0982 31.1509 93.0567 30.9634C92.9634 30.5416 93.0601 30.0901 93.3469 29.6088C93.6337 29.1274 94.0221 28.6605 94.5119 28.2081C95.0251 27.7504 95.6048 27.3149 96.2507 26.9016C96.8915 26.4649 97.5219 26.0919 98.1417 25.7827C98.7564 25.4501 99.3111 25.1799 99.8059 24.9721C100.319 24.7357 100.693 24.5916 100.927 24.5398C101.302 24.4568 101.677 24.4845 102.051 24.6228C102.45 24.756 102.805 24.9724 103.117 25.272C103.429 25.5717 103.707 25.9403 103.951 26.3779C104.196 26.8154 104.375 27.292 104.489 27.8075ZM140.796 17.0101C140.832 17.1742 140.793 17.3303 140.678 17.4786C140.582 17.5982 140.475 17.671 140.358 17.6969C140.147 17.7436 139.813 17.8422 139.354 17.9927C138.919 18.1381 138.44 18.3056 137.917 18.4951C137.412 18.656 136.909 18.8286 136.409 19.013C135.927 19.1687 135.539 19.3037 135.245 19.418C135.151 19.4387 134.955 19.4945 134.655 19.5853C134.379 19.671 134.059 19.7787 133.694 19.9085C133.348 20.0097 132.993 20.1252 132.628 20.255C132.287 20.3797 132.014 20.477 131.808 20.5471C131.56 20.651 131.204 20.816 130.737 21.042C130.271 21.268 129.852 21.4837 129.48 21.689C129.349 21.767 129.228 21.8306 129.116 21.88C129.004 21.9293 128.916 21.9735 128.851 22.0125C128.762 22.0567 128.685 22.0982 128.62 22.1372L132.003 28.431C132.12 28.6263 132.313 28.9402 132.58 29.3726C132.848 29.805 133.15 30.279 133.485 30.7948C133.844 31.3053 134.208 31.8393 134.577 32.3967C134.969 32.949 135.316 33.4621 135.618 33.9362C135.802 34.2149 136.014 34.5613 136.253 34.9755C136.492 35.3896 136.722 35.818 136.943 36.2608C137.159 36.6801 137.343 37.0695 137.497 37.4288C137.673 37.783 137.777 38.0304 137.808 38.171C137.881 38.4991 137.862 38.8596 137.753 39.2526C137.648 39.669 137.444 39.9109 137.139 39.9783C136.858 40.0405 136.673 39.8724 136.585 39.4741L136.53 39.228C136.515 39.1577 136.497 39.0757 136.476 38.982C136.479 38.883 136.467 38.775 136.441 38.6578C136.4 38.4704 136.259 38.1696 136.02 37.7554C135.776 37.3179 135.486 36.8412 135.151 36.3255C134.81 35.7863 134.441 35.2289 134.044 34.6532C133.664 34.0489 133.295 33.4915 132.936 32.9809C132.596 32.4417 132.299 31.9911 132.047 31.629C131.79 31.2435 131.622 30.9856 131.544 30.8554C131.432 30.6835 131.279 30.4347 131.084 30.1092C130.913 29.7784 130.707 29.4059 130.468 28.9918C130.229 28.5777 129.973 28.1427 129.7 27.6869C129.446 27.2025 129.194 26.7298 128.944 26.2688C128.339 25.1983 127.675 24.0301 126.952 22.7643C126.84 22.8137 126.466 22.9578 125.831 23.1967C125.214 23.4069 124.517 23.6471 123.741 23.9171C122.965 24.1871 122.224 24.4493 121.519 24.7037C120.808 24.9347 120.324 25.0787 120.066 25.1358C119.48 25.2654 119.084 25.2546 118.879 25.1034C118.673 24.9522 118.528 24.7386 118.442 24.4626C118.401 24.2751 118.406 24.0773 118.458 23.8691C118.505 23.6375 118.611 23.5035 118.775 23.4672C118.962 23.4257 119.122 23.4272 119.255 23.4716C119.359 23.4977 119.493 23.4926 119.657 23.4563C119.704 23.446 119.933 23.3707 120.345 23.2305C120.78 23.0851 121.282 22.9125 121.853 22.7126C122.446 22.5075 123.052 22.2998 123.669 22.0896C124.309 21.8741 124.871 21.6885 125.352 21.5328C125.47 21.5069 125.587 21.4809 125.704 21.455C125.839 21.4005 125.963 21.3485 126.075 21.2992C126.187 21.2498 126.302 21.2122 126.419 21.1863C126.403 21.116 126.405 20.9559 126.423 20.706C126.46 20.4275 126.525 20.2779 126.619 20.2571C126.853 20.2053 127.061 20.2576 127.243 20.4139C127.444 20.5417 127.61 20.6277 127.743 20.6721C127.902 20.6124 128.137 20.5111 128.45 20.3682C128.781 20.1967 129.126 20.0343 129.485 19.8811C129.868 19.7227 130.23 19.5811 130.571 19.4565C130.93 19.3033 131.236 19.1864 131.489 19.106L135.547 17.9501C135.893 17.8489 136.287 17.7373 136.727 17.6154C137.185 17.4649 137.632 17.3169 138.066 17.1715C138.501 17.0262 138.88 16.9055 139.203 16.8095C139.521 16.69 139.738 16.6173 139.855 16.5914C140.071 16.5682 140.274 16.597 140.464 16.6779C140.654 16.7588 140.765 16.8695 140.796 17.0101ZM149.905 25.7243C150.019 26.0186 150.097 26.2595 150.138 26.4469C150.203 26.6292 150.256 26.8141 150.298 27.0016C150.427 27.5874 150.498 28.2968 150.511 29.1299C150.546 29.9577 150.457 30.7763 150.243 31.5857C150.047 32.3665 149.701 33.082 149.206 33.7323C148.729 34.354 148.034 34.766 147.12 34.9681C146.276 35.1548 145.427 35.0967 144.574 34.7939C143.715 34.4677 142.91 33.9945 142.158 33.3742C141.401 32.7305 140.743 31.9789 140.185 31.1193C139.644 30.2311 139.27 29.3183 139.063 28.381C138.762 27.0219 138.587 25.8438 138.539 24.8467C138.508 23.821 138.577 22.9087 138.744 22.1097C138.729 22.0394 138.666 21.9794 138.557 21.9299C138.471 21.8751 138.415 21.7892 138.389 21.672C138.364 21.5548 138.435 21.3792 138.605 21.1451C138.798 20.9058 139.028 20.6704 139.297 20.439C139.583 20.1789 139.866 19.9566 140.145 19.7721C140.441 19.5589 140.672 19.4341 140.836 19.3979C140.93 19.3771 141.092 19.3903 141.324 19.4374C141.579 19.4793 141.882 19.4613 142.234 19.3836C142.351 19.3576 142.466 19.32 142.578 19.2706C142.69 19.2213 142.816 19.1811 142.957 19.15C143.449 19.0411 144.028 19.1588 144.694 19.503C145.378 19.8187 146.047 20.2853 146.7 20.9028C147.376 21.5152 147.993 22.2512 148.552 23.1108C149.129 23.9417 149.58 24.8129 149.905 25.7243ZM148.802 27.4062C148.703 26.961 148.47 26.349 148.101 25.5703C147.727 24.7682 147.264 24.0103 146.713 23.2965C146.156 22.5592 145.541 21.9456 144.868 21.4556C144.217 20.9604 143.564 20.7853 142.908 20.9305C142.861 20.9408 142.767 20.9616 142.627 20.9927C142.504 20.9952 142.361 21.0146 142.197 21.0509C142.028 21.0637 141.873 21.0857 141.732 21.1168C141.587 21.1245 141.502 21.1309 141.479 21.1361C141.104 21.219 140.815 21.4673 140.611 21.8811C140.431 22.2896 140.31 22.7958 140.246 23.3997C140.207 23.9984 140.221 24.6713 140.288 25.4185C140.355 26.1656 140.468 26.9024 140.629 27.6289C140.686 27.8866 140.868 28.3749 141.174 29.0937C141.476 29.789 141.89 30.4962 142.418 31.2151C142.964 31.9055 143.609 32.4879 144.353 32.9624C145.097 33.4369 145.938 33.5704 146.875 33.3631C147.508 33.2231 147.982 32.9216 148.297 32.4585C148.608 31.972 148.806 31.4242 148.892 30.8152C149.002 30.2009 149.039 29.5905 149.003 28.984C148.962 28.3539 148.895 27.828 148.802 27.4062ZM165.301 20.7696C165.478 21.5663 165.506 22.359 165.385 23.1477C165.265 23.9363 165.022 24.7275 164.657 25.5211C164.291 26.3147 163.83 27.1173 163.272 27.929C162.732 28.712 162.12 29.4989 161.434 30.2896C160.713 31.1376 159.845 31.9932 158.831 32.8565C157.818 33.7198 156.777 34.5153 155.709 35.2432C154.67 35.9893 153.666 36.6171 152.697 37.1264C151.728 37.6357 150.927 37.9603 150.295 38.1003C149.873 38.1936 149.555 38.2024 149.342 38.1267C149.11 38.0796 148.953 37.8686 148.87 37.4937C148.813 37.2359 148.839 36.9105 148.949 36.5176C149.059 36.1246 149.207 35.9074 149.395 35.8659C149.582 35.8244 149.736 35.8519 149.855 35.9483C149.952 36.0499 150.015 36.1711 150.046 36.3117C150.062 36.382 150.075 36.4405 150.085 36.4874C150.072 36.5395 150.068 36.5772 150.073 36.6006L150.089 36.6709C150.959 36.3802 152.092 35.8346 153.488 35.0342C154.866 34.2623 156.461 33.0859 158.274 31.5049C159.056 30.8158 159.808 30.0473 160.53 29.1993C161.246 28.328 161.862 27.4422 162.375 26.542C162.907 25.6131 163.293 24.692 163.534 23.7785C163.769 22.8416 163.798 21.9747 163.622 21.178C163.498 20.6156 163.078 20.1063 162.362 19.6501C161.665 19.1652 160.814 18.7635 159.81 18.445C158.823 18.0978 157.773 17.8508 156.659 17.704C155.54 17.5337 154.52 17.4768 153.598 17.5332C153.647 17.6452 153.747 17.9303 153.898 18.3886C154.043 18.8235 154.23 19.3352 154.459 19.9237C154.687 20.5122 154.938 21.145 155.211 21.8221C155.501 22.4706 155.794 23.0696 156.087 23.6191C156.42 24.2338 156.646 24.7 156.766 25.0177C156.903 25.3068 157.007 25.5542 157.077 25.7599C157.152 25.989 157.255 26.2859 157.385 26.6505C157.533 26.9864 157.663 27.351 157.774 27.7442C157.904 28.1087 158.02 28.4642 158.121 28.8105C158.24 29.1282 158.321 29.3808 158.362 29.5682C158.409 29.7791 158.411 30.0121 158.369 30.2672C158.351 30.5171 158.283 30.655 158.166 30.6809C157.885 30.7431 157.665 30.6934 157.506 30.5319C157.366 30.3417 157.197 30.0227 156.999 29.5747C156.82 29.0982 156.586 28.4862 156.298 27.7389C156.01 26.9915 155.577 26.0917 155.001 25.0394C154.185 23.5731 153.53 22.1694 153.037 20.8283C152.538 19.4637 152.175 18.3766 151.946 17.5668C151.946 17.5668 151.888 17.5797 151.771 17.6056C151.672 17.6029 151.528 17.6223 151.341 17.6638C151.177 17.7001 150.978 17.7442 150.743 17.796C150.527 17.8192 150.326 17.8516 150.138 17.893C149.74 17.9812 149.395 18.1435 149.103 18.3801C148.806 18.5933 148.573 18.817 148.403 19.0511C148.21 19.2904 148.062 19.5076 147.958 19.7028C147.825 19.8797 147.735 19.9733 147.688 19.9837C147.524 20.0199 147.293 20.034 146.997 20.026C146.671 19.9996 146.483 19.8693 146.431 19.6349C146.363 19.3303 146.448 18.992 146.686 18.6199C146.894 18.2297 147.184 17.8707 147.553 17.5431C147.918 17.192 148.331 16.8917 148.792 16.6422C149.248 16.3693 149.687 16.1862 150.109 16.0929C150.812 15.9374 151.652 15.8497 152.631 15.8298C153.61 15.8099 154.628 15.8551 155.685 15.9654C156.765 16.0706 157.837 16.2512 158.902 16.5074C159.99 16.7583 160.982 17.0794 161.88 17.4707C162.778 17.8621 163.534 18.334 164.147 18.8864C164.761 19.4389 165.146 20.0666 165.301 20.7696ZM181.975 29.7645C182.019 29.853 182.049 29.9324 182.064 30.0027C182.085 30.0965 182.101 30.1668 182.111 30.2136C182.163 30.448 182.14 30.625 182.044 30.7446C181.971 30.8591 181.782 30.95 181.478 31.0174C181.196 31.0796 180.999 31.0742 180.884 31.0012C180.712 30.8917 180.445 30.57 180.081 30.036C179.717 29.502 179.318 28.8651 178.884 28.1254C178.45 27.3857 178.003 26.5874 177.543 25.7305C177.106 24.8685 176.703 24.0481 176.335 23.2694C176.103 23.4436 175.78 23.6502 175.366 23.8893C174.946 24.105 174.515 24.3233 174.073 24.5441C173.559 24.7805 173.026 25.0338 172.471 25.304C172.483 26.3583 172.511 27.2616 172.554 28.014C172.616 28.7377 172.652 29.3443 172.662 29.8337C172.69 30.2945 172.657 30.6459 172.563 30.8879C172.498 31.1482 172.325 31.3094 172.043 31.3716C171.856 31.4131 171.669 31.3439 171.481 31.1641C171.294 30.9843 171.154 30.6835 171.06 30.2617C171.014 30.0508 170.963 29.5458 170.91 28.7465C170.856 27.9473 170.795 27.0635 170.729 26.095C170.657 25.1032 170.587 24.123 170.52 23.1546C170.454 22.1861 170.384 21.4272 170.312 20.8779C170.273 20.5915 170.242 20.119 170.219 19.4604C170.22 18.7966 170.218 18.1211 170.214 17.4338C170.204 16.7231 170.21 16.0828 170.231 15.5127C170.252 14.9426 170.279 14.6172 170.31 14.5366C170.493 13.5866 170.53 12.6443 170.422 11.7096C170.337 10.7698 170.235 9.91979 170.116 9.15955C170.015 8.3707 169.983 7.72638 170.02 7.22661C170.052 6.7034 170.29 6.39255 170.736 6.29405C170.853 6.26813 170.991 6.33595 171.149 6.49749C171.331 6.65386 171.51 6.84796 171.684 7.07981C171.858 7.31165 172.009 7.54869 172.136 7.7909C172.258 8.00968 172.347 8.18678 172.401 8.3222C172.456 8.45761 172.541 8.73363 172.658 9.15025C172.798 9.56168 172.937 10.0226 173.074 10.5329C173.23 11.0147 173.374 11.499 173.507 11.9859C173.657 12.4442 173.773 12.7996 173.853 13.0522C174.094 13.81 174.392 14.6537 174.745 15.5834C175.121 16.5078 175.485 17.3737 175.836 18.181C176.186 18.9884 176.497 19.6694 176.767 20.2241C177.032 20.7554 177.2 21.0133 177.27 20.9977C177.364 20.977 177.476 20.9276 177.606 20.8497C177.76 20.7665 177.907 20.7094 178.047 20.6783C178.235 20.6368 178.349 20.7098 178.391 20.8973C178.432 21.0847 178.419 21.2474 178.351 21.3853C178.283 21.5232 178.201 21.652 178.105 21.7717C178.032 21.8861 177.956 21.9889 177.878 22.0799C177.823 22.1658 177.806 22.2556 177.827 22.3493C177.869 22.5368 178.08 22.9938 178.462 23.7205L179.483 25.6699C179.572 25.847 179.747 26.14 180.01 26.549C180.272 26.9579 180.54 27.3903 180.813 27.8461C181.104 28.2733 181.364 28.6705 181.593 29.0378C181.827 29.4285 181.954 29.6707 181.975 29.7645ZM172.391 23.4414C172.531 23.4103 172.781 23.3181 173.141 23.1649C173.495 22.9882 173.858 22.7972 174.231 22.5919C174.603 22.3866 174.929 22.1917 175.207 22.0071C175.486 21.8225 175.618 21.6951 175.602 21.6248C175.586 21.5545 175.501 21.3891 175.345 21.1287C175.207 20.8396 175.03 20.4854 174.815 20.0661C174.617 19.6181 174.395 19.1142 174.148 18.5543C173.902 17.9944 173.659 17.3967 173.42 16.7613C173.28 16.3499 173.094 15.7887 172.863 15.0779C172.632 14.367 172.404 13.6678 172.178 12.9804C171.947 12.2695 171.751 11.6614 171.59 11.1563C171.429 10.6511 171.349 10.3985 171.349 10.3985C171.349 10.3985 171.352 10.5821 171.36 10.9491C171.362 11.2927 171.363 11.6858 171.363 12.1283C171.381 12.5423 171.396 12.9445 171.408 13.335C171.439 13.6968 171.46 13.9012 171.47 13.9481L171.688 14.9323C171.698 14.9791 171.71 15.1978 171.723 15.5883C171.753 15.9502 171.784 16.4227 171.815 17.0058C171.84 17.5655 171.867 18.1864 171.895 18.8684C171.941 19.5219 171.982 20.1519 172.018 20.7585C172.054 21.365 172.089 21.9104 172.122 22.3947C172.174 22.8503 172.218 23.1601 172.254 23.3241C172.275 23.4178 172.32 23.4569 172.391 23.4414ZM192.007 13.5712C192.079 13.8993 192.049 14.1518 191.916 14.3286C191.807 14.5004 191.658 14.6069 191.471 14.6484C191.26 14.6951 191.041 14.7066 190.815 14.6829C190.612 14.6541 190.345 14.6148 190.014 14.565L189.44 14.4708C189.419 14.5983 189.418 14.7584 189.436 14.9511C189.472 15.1151 189.503 15.2557 189.529 15.3729C189.711 16.193 189.943 17.0757 190.226 18.0209C190.509 18.9662 190.803 19.9088 191.11 20.8488C191.416 21.7888 191.729 22.7029 192.048 23.5908C192.391 24.4736 192.689 25.2679 192.944 25.9736C193.203 26.7027 193.423 27.3056 193.602 27.7821C193.786 28.2821 193.894 28.6024 193.925 28.743L194.12 29.6217C194.177 29.8795 194.193 30.1216 194.17 30.3481C194.169 30.5693 194.076 30.7007 193.888 30.7422C193.537 30.8199 193.167 30.5944 192.78 30.0656C192.421 29.555 192.077 28.943 191.747 28.2294C191.445 27.5341 191.182 26.8427 190.956 26.1552C190.735 25.4912 190.599 25.042 190.547 24.8077C190.511 24.6437 190.388 24.2531 190.178 23.6359C189.991 23.0136 189.777 22.3235 189.535 21.5658C189.289 20.7846 189.042 20.0034 188.796 19.2222C188.567 18.4124 188.391 17.7263 188.266 17.1639C188.215 16.9296 188.146 16.6744 188.06 16.3984C187.993 16.0938 187.931 15.8126 187.874 15.5548L187.633 14.4652C187.55 14.0902 187.195 13.7632 186.567 13.4841C185.964 13.1997 185.235 12.9062 184.382 12.6034C183.523 12.2772 182.628 11.8976 181.696 11.4646C180.76 11.0081 179.938 10.4034 179.23 9.65044C179.155 9.64255 179.096 9.54488 179.055 9.35741C178.982 9.02934 178.988 8.72087 179.071 8.432C179.155 8.14313 179.314 7.97277 179.548 7.92093C179.618 7.90538 179.745 7.97579 179.927 8.13215C180.104 8.26508 180.326 8.4371 180.594 8.64821C180.862 8.85932 181.173 9.0978 181.526 9.36366C181.875 9.60609 182.256 9.82902 182.67 10.0325C182.951 10.1915 183.339 10.3884 183.833 10.6232C184.322 10.8345 184.8 11.0484 185.265 11.2649C185.755 11.4762 186.177 11.6654 186.534 11.8323C186.885 11.9758 187.073 12.045 187.096 12.0398C187.19 12.0191 187.228 11.9124 187.21 11.7197C187.191 11.5271 187.177 11.4073 187.167 11.3604L186.876 9.21255C186.729 7.99152 186.631 6.88248 186.582 5.88542C186.552 4.85974 186.457 3.98369 186.296 3.25725C186.28 3.18695 186.226 3.05154 186.132 2.851C186.039 2.65047 185.984 2.51505 185.969 2.44475C185.938 2.30415 185.961 2.18833 186.039 2.0973C186.112 1.98283 186.202 1.8892 186.309 1.81641C186.434 1.71501 186.588 1.63185 186.77 1.56695C187.098 1.49437 187.361 1.57141 187.559 1.79807C187.751 2.0013 187.871 2.20837 187.917 2.41927C188.104 3.26287 188.227 4.096 188.286 4.91866C188.368 5.73613 188.427 6.55879 188.463 7.38663C188.522 8.20929 188.587 9.05538 188.656 9.9249C188.744 10.7658 188.889 11.6432 189.091 12.5571C189.122 12.6977 189.238 12.8319 189.438 12.9596C189.633 13.0639 189.863 13.1605 190.129 13.2492C190.413 13.3094 190.722 13.3761 191.058 13.4493C191.389 13.499 191.705 13.5397 192.007 13.5712ZM196.039 7.22237C196.085 7.43327 196.081 7.91355 196.026 8.66321C195.97 9.41287 195.91 10.2497 195.844 11.1738C195.796 12.0692 195.757 12.9504 195.728 13.8172C195.722 14.6788 195.771 15.344 195.874 15.8127C195.983 16.3048 196.097 16.7097 196.217 17.0274C196.331 17.3216 196.435 17.569 196.529 17.7696C196.646 17.9649 196.746 18.1394 196.829 18.2931C196.907 18.4233 196.969 18.5939 197.016 18.8048C197.119 19.2735 196.96 19.5544 196.539 19.6478C196.468 19.6633 196.388 19.632 196.297 19.5538C195.615 18.918 195.135 18.2498 194.858 17.5493C194.603 16.8436 194.432 16.2916 194.344 15.8932C194.235 15.4011 194.165 14.7529 194.135 13.9485C194.099 13.1206 194.091 12.2498 194.11 11.3361C194.124 10.399 194.164 9.46843 194.23 8.54437C194.314 7.59169 194.412 6.75877 194.525 6.04561C194.561 5.98837 194.61 5.92854 194.67 5.86613C194.729 5.80371 194.818 5.75954 194.935 5.73362C195.099 5.69733 195.244 5.73911 195.368 5.85898C195.488 5.95541 195.592 6.09217 195.68 6.26927C195.764 6.42294 195.838 6.59091 195.903 6.7732C195.967 6.95548 196.013 7.10521 196.039 7.22237ZM200.69 22.7482C200.747 23.0059 200.725 23.2936 200.623 23.6111C200.539 23.8999 200.381 24.0703 200.146 24.1221C199.842 24.1895 199.515 24.102 199.166 23.8596C198.841 23.612 198.635 23.289 198.546 22.8906C198.515 22.75 198.5 22.5691 198.5 22.3478C198.519 22.0979 198.645 21.9471 198.879 21.8952C198.973 21.8745 199.104 21.8577 199.274 21.8448C199.443 21.832 199.62 21.8543 199.805 21.9117C200.008 21.9405 200.186 22.024 200.339 22.1621C200.516 22.2951 200.633 22.4904 200.69 22.7482ZM204.003 5.46059C204.049 5.67149 204.045 6.15177 203.989 6.90143C203.934 7.65109 203.873 8.48795 203.807 9.41201C203.76 10.3075 203.721 11.1886 203.692 12.0554C203.686 12.9171 203.734 13.5822 203.838 14.0509C203.947 14.543 204.061 14.9479 204.181 15.2656C204.295 15.5599 204.399 15.8072 204.492 16.0078C204.609 16.2031 204.709 16.3776 204.792 16.5313C204.87 16.6615 204.933 16.8321 204.979 17.043C205.083 17.5117 204.924 17.7927 204.502 17.886C204.432 17.9015 204.351 17.8702 204.26 17.792C203.579 17.1562 203.099 16.488 202.821 15.7875C202.567 15.0818 202.396 14.5298 202.307 14.1314C202.199 13.6393 202.129 12.9911 202.098 12.1867C202.063 11.3588 202.054 10.4881 202.074 9.57436C202.087 8.63724 202.127 7.70664 202.193 6.78258C202.278 5.8299 202.376 4.99698 202.489 4.28382C202.525 4.22659 202.573 4.16676 202.633 4.10434C202.693 4.04192 202.782 3.99775 202.899 3.97183C203.063 3.93554 203.207 3.97733 203.332 4.09719C203.452 4.19362 203.556 4.33039 203.644 4.50749C203.727 4.66115 203.801 4.82913 203.866 5.01141C203.931 5.19369 203.977 5.34342 204.003 5.46059ZM208.654 20.9864C208.711 21.2441 208.689 21.5318 208.587 21.8493C208.503 22.1381 208.344 22.3085 208.11 22.3603C207.805 22.4277 207.479 22.3402 207.13 22.0978C206.805 21.8502 206.598 21.5272 206.51 21.1288C206.479 20.9882 206.464 20.8073 206.464 20.586C206.482 20.3361 206.609 20.1853 206.843 20.1334C206.937 20.1127 207.068 20.0959 207.237 20.083C207.407 20.0702 207.584 20.0925 207.768 20.1499C207.971 20.1788 208.15 20.2622 208.303 20.4003C208.48 20.5333 208.597 20.7286 208.654 20.9864ZM211.966 3.6988C212.013 3.9097 212.009 4.38998 211.953 5.13964C211.898 5.8893 211.837 6.72616 211.771 7.65022C211.723 8.54567 211.685 9.4268 211.655 10.2936C211.649 11.1553 211.698 11.8204 211.802 12.2891C211.911 12.7812 212.025 13.1861 212.144 13.5038C212.259 13.7981 212.362 14.0455 212.456 14.246C212.573 14.4413 212.673 14.6159 212.756 14.7695C212.834 14.8998 212.896 15.0703 212.943 15.2812C213.047 15.7499 212.888 16.0309 212.466 16.1242C212.396 16.1397 212.315 16.1084 212.224 16.0302C211.543 15.3944 211.063 14.7263 210.785 14.0257C210.531 13.32 210.359 12.768 210.271 12.3696C210.162 11.8775 210.093 11.2293 210.062 10.4249C210.026 9.59704 210.018 8.72627 210.037 7.81258C210.051 6.87545 210.091 5.94486 210.157 5.0208C210.241 4.06812 210.34 3.2352 210.452 2.52204C210.489 2.4648 210.537 2.40497 210.597 2.34256C210.657 2.28014 210.745 2.23597 210.863 2.21005C211.027 2.17376 211.171 2.21554 211.296 2.33541C211.416 2.43184 211.52 2.5686 211.608 2.7457C211.691 2.89937 211.765 3.06734 211.83 3.24963C211.895 3.43191 211.94 3.58164 211.966 3.6988ZM216.618 19.2246C216.675 19.4824 216.652 19.77 216.55 20.0875C216.467 20.3764 216.308 20.5467 216.074 20.5986C215.769 20.6659 215.442 20.5784 215.094 20.336C214.769 20.0884 214.562 19.7654 214.474 19.367C214.443 19.2264 214.427 19.0455 214.427 18.8242C214.446 18.5743 214.572 18.4235 214.807 18.3716C214.9 18.3509 215.032 18.3341 215.201 18.3213C215.37 18.3084 215.547 18.3307 215.732 18.3881C215.935 18.417 216.113 18.5004 216.267 18.6386C216.444 18.7715 216.561 18.9668 216.618 19.2246ZM219.93 1.93702C219.977 2.14792 219.972 2.6282 219.917 3.37786C219.861 4.12752 219.801 4.96438 219.735 5.88844C219.687 6.78388 219.649 7.66502 219.619 8.53184C219.613 9.39349 219.662 10.0586 219.766 10.5273C219.874 11.0194 219.989 11.4243 220.108 11.742C220.222 12.0363 220.326 12.2837 220.42 12.4842C220.537 12.6796 220.637 12.8541 220.72 13.0077C220.798 13.138 220.86 13.3085 220.907 13.5194C221.011 13.9881 220.851 14.2691 220.43 14.3624C220.359 14.378 220.279 14.3466 220.188 14.2685C219.506 13.6326 219.027 12.9645 218.749 12.264C218.494 11.5583 218.323 11.0062 218.235 10.6079C218.126 10.1158 218.056 9.4675 218.026 8.6631C217.99 7.83525 217.982 6.96449 218.001 6.05079C218.015 5.11367 218.055 4.18307 218.121 3.25901C218.205 2.30633 218.303 1.47341 218.416 0.76025C218.452 0.703016 218.501 0.643189 218.561 0.580771C218.621 0.518351 218.709 0.474181 218.826 0.44826C218.99 0.411971 219.135 0.453759 219.26 0.573623C219.379 0.670053 219.483 0.806818 219.572 0.983918C219.655 1.13758 219.729 1.30556 219.794 1.48784C219.859 1.67012 219.904 1.81985 219.93 1.93702ZM224.581 17.4628C224.638 17.7206 224.616 18.0082 224.514 18.3257C224.431 18.6146 224.272 18.7849 224.037 18.8368C223.733 18.9042 223.406 18.8166 223.057 18.5742C222.732 18.3266 222.526 18.0036 222.438 17.6053C222.406 17.4647 222.391 17.2837 222.391 17.0624C222.41 16.8126 222.536 16.6617 222.77 16.6099C222.864 16.5891 222.996 16.5723 223.165 16.5595C223.334 16.5466 223.511 16.5689 223.696 16.6264C223.899 16.6552 224.077 16.7387 224.23 16.8768C224.407 17.0097 224.524 17.205 224.581 17.4628Z" fill="#090909"/>
</svg>
