<svg width="197" height="101" viewBox="0 0 197 101" fill="none" xmlns="http://www.w3.org/2000/svg">
    <path d="M179.169 0.742493C177.63 0.742493 176.838 1.50877 175.569 2.2339C174.485 2.85322 173.482 3.42045 172.39 3.96635C171.304 4.50919 169.796 4.9641 168.933 5.82684C168.44 6.31934 167.852 6.62978 167.306 7.05462C166.918 7.35662 165.851 9.13281 165.34 8.87745" stroke="black" stroke-linecap="round" stroke-linejoin="round"/>
    <path d="M169.679 10.2333C168.366 10.2333 167.575 9.954 166.357 9.68343C165.303 9.4492 164.424 9.14863 163.306 9.14863C162.193 9.14863 161.121 8.95084 159.992 9.15616C159.136 9.31182 158.252 9.82443 157.537 10.2333C156.813 10.6469 156.005 11.4849 155.171 11.5891C154.557 11.6659 153.238 12.3221 152.761 12.7039C152.429 12.9695 151.893 13.0762 151.511 13.2462C151.159 13.4027 150.593 13.7584 150.223 13.7584C149.263 13.7584 148.25 14.3008 147.24 14.3008C146.665 14.3008 144.828 14.4265 144.732 15.2499C144.669 15.7778 144.703 16.113 144.732 16.6057C144.757 17.0362 145.409 17.3337 145.409 17.8937C145.409 18.1759 146.076 18.6036 146.291 18.775C146.716 19.1149 146.588 19.9357 146.795 20.402C147.266 21.4613 147.266 22.4692 148.121 23.3246C149.778 24.9819 150.608 27.5582 151.111 29.825C151.259 30.4907 151.733 31.2024 151.985 31.8587C152.149 32.2839 152.346 33.1746 152.625 33.5234C152.984 33.9721 153.62 34.8377 153.816 35.3763C153.953 35.7533 154.179 36.4896 154.388 36.7774C154.732 37.25 154.879 38.6791 154.9 39.2781C154.927 40.0201 155.123 40.8469 155.375 41.5529C155.782 42.6943 156.436 43.6951 156.904 44.8069C157.161 45.4183 157.354 46.1028 157.582 46.7352C157.811 47.3713 158.62 47.8363 159.028 48.3923C159.448 48.9656 159.781 49.9257 159.781 50.6369C159.781 51.2191 159.943 51.8547 160.391 52.2037C160.922 52.6167 161.104 53.4336 161.408 53.9662C161.646 54.3821 161.981 54.6835 162.116 55.1413C162.341 55.8988 162.824 57.6269 163.849 57.1148C164.894 56.5922 166.03 56.2279 167.027 55.5932C168.082 54.922 169.46 54.2453 170.357 53.3486C171.164 52.5412 172.358 52.3438 173.174 51.6915C173.497 51.4332 174.039 51.1522 174.424 50.9382C175.355 50.4212 176.283 49.2521 177.339 49.0175C178.219 48.822 179.231 48.443 180.119 48.332C180.55 48.2781 181.559 47.5226 181.874 47.2474C182.302 46.8727 182.859 46.585 183.373 46.3284C183.719 46.155 184.497 45.7968 184.864 45.756C185.47 45.6886 185.978 44.9425 186.559 44.9425C187.164 44.9425 187.859 44.2888 188.389 44.0235C189.055 43.6905 189.674 43.3958 190.295 42.969C190.626 42.7412 191.402 42.3283 191.643 42.0274C191.996 41.5868 192.708 41.5127 193.104 41.116C193.554 40.6668 194.147 40.3309 194.49 39.7301C194.725 39.3189 195.439 39.2066 195.439 38.7057" stroke="black" stroke-linecap="round" stroke-linejoin="round"/>
    <path d="M144.731 17.148C143.477 17.3928 142.844 18.5241 141.681 18.7825C141.347 18.8566 140.465 19.2605 140.257 19.5207C140.012 19.8268 138.997 19.7269 138.63 19.8898C138.12 20.1168 137.506 20.0731 137.003 20.2965C136.394 20.5671 135.557 20.7913 134.902 20.9368C134.367 21.0555 133.682 21.2155 133.139 21.2155C132.414 21.2155 132.393 21.6886 132.393 22.3002C132.393 23.1472 132.425 23.9999 132.393 24.8461C132.377 25.2893 132.274 25.3519 132.589 25.7575C132.733 25.942 132.8 26.4717 132.8 26.7066C132.8 27.8986 133.545 29.1992 133.614 30.4351C133.645 31.0026 133.851 31.4816 133.885 32.0621C133.915 32.5779 134.165 33.4409 134.427 33.9C135 34.902 136.19 36.0467 136.19 37.282C136.19 38.3782 136.858 39.734 137.305 40.7394C137.712 41.6567 137.935 42.5492 138.193 43.5264C138.346 44.1028 138.46 45.0197 139.112 45.2061C139.501 45.3173 140.366 47.1751 140.393 47.6541C140.446 48.6097 141.298 49.6525 141.749 50.4411C142.466 51.6968 143.763 50.7938 144.867 51.2847C145.481 51.5574 146.626 51.3148 147.308 51.3148C148.144 51.3148 148.98 51.3148 149.816 51.3148C150.675 51.3148 151.56 51.1793 152.392 51.1793C153.208 51.1793 153.971 50.9081 154.765 50.9081C155.664 50.9081 156.516 50.3658 157.408 50.3658C158.047 50.3658 158.603 50.2302 159.239 50.2302" stroke="black" stroke-linecap="round" stroke-linejoin="round"/>
    <path d="M132.122 22.7069C131.643 22.9056 130.109 23.6272 129.817 24.138C129.543 24.6176 128.624 25.2655 128.115 25.411C127.457 25.5991 126.678 26.0965 126.021 26.0965C125.755 26.0965 125.047 26.1526 124.801 26.2622C124.364 26.4564 123.882 26.2786 123.445 26.4731C123.105 26.6243 122.653 26.4099 122.3 26.5107C121.889 26.6282 121.469 26.6388 120.997 26.6388C120.139 26.6388 119.252 26.7744 118.36 26.7744C116.129 26.7744 113.925 26.5032 111.679 26.5032C109.454 26.5032 107.248 26.3676 105.006 26.3676C104.412 26.3676 104.039 26.2586 103.484 26.0663C103.042 25.9134 102.578 26.0421 102.158 25.8554C101.777 25.686 100.123 25.6911 99.8232 25.9307C99.55 26.1493 99.4054 26.148 99.1755 26.4354C98.8685 26.8191 98.3734 27.1848 98.023 27.5351C97.495 28.0631 97.0258 28.5795 96.3885 28.9437C96.0084 29.1609 95.642 29.4127 95.3038 29.6894C94.9213 30.0024 94.1996 30.8419 93.6844 30.8419C93.3255 30.8419 92.6742 31.0366 92.4566 31.3164C92.1788 31.6735 91.6859 31.5523 91.3795 31.8587C90.7161 32.5221 89.7651 32.6308 88.9616 33.1166C88.1698 33.5954 86.8574 34.017 86.4608 34.9093C86.1151 35.6872 85.4393 36.3116 85.2029 37.1389C85.0078 37.8218 84.3538 39.0655 83.7868 39.5191C83.6737 39.6097 83.3281 40.4615 83.3123 40.6038C83.279 40.9031 82.9767 41.4979 82.8001 41.7186C82.2338 42.4264 82.2127 43.6731 81.6552 44.37C81.2234 44.9096 81.4237 46.0099 81.0752 46.6372C80.8102 47.1142 80.9564 48.2132 81.2107 48.671C81.5541 49.289 82.7231 49.5731 83.4479 49.251C84.149 48.9393 85.0569 49.1535 85.7528 48.8442C86.6712 48.436 87.4436 48.0941 88.261 47.4583C88.819 47.0243 89.7135 46.6282 90.0914 45.9669C90.4561 45.3287 91.2847 44.7197 91.8239 44.2344C92.3573 43.7543 92.6621 43.0732 93.1797 42.6074C93.872 41.9843 94.0632 41.2876 94.3246 40.4381C94.4499 40.0308 95.0186 38.2542 94.5656 38.0277" stroke="black" stroke-linecap="round" stroke-linejoin="round"/>
    <path d="M94.5664 39.7903C95.4849 39.5837 96.3128 39.3043 97.2103 39.1049C97.6086 39.0163 97.9979 38.6737 98.4305 38.5776C98.8046 38.4945 99.3177 38.2806 99.6508 38.0955C100.082 37.8559 100.532 37.8922 101.007 37.8922C101.134 37.8922 101.972 38.1667 102.023 38.2311C102.54 38.8774 103.284 39.231 103.786 39.8581C104.726 41.0336 105.797 42.1045 106.972 43.0443C107.557 43.5118 108.37 43.5723 109.006 43.9256C109.528 44.2154 110.326 44.8125 110.701 45.2814C111.617 46.4263 113.507 46.0612 114.527 47.0816C115.095 47.6497 115.911 47.5185 116.666 47.5185C117.512 47.5185 118.109 47.7085 118.971 47.2775C119.709 46.9086 120.516 46.5914 121.11 45.997C121.379 45.7286 121.548 45.3484 121.819 45.078C122.108 44.7888 122.593 44.4773 122.798 44.129C123.35 43.1895 124.301 42.6103 124.771 41.5529C124.879 41.3101 124.922 40.5943 124.937 40.3326C124.959 39.9287 124.937 39.517 124.937 39.1124" stroke="black" stroke-linecap="round" stroke-linejoin="round"/>
    <path d="M114.632 46.9762C115.341 47.4923 116.282 47.602 116.907 48.2266C117.297 48.6168 118.149 49.2231 118.699 49.2811C119.557 49.3714 120.333 49.9483 121.064 50.3356C121.74 50.693 122.406 50.9941 123.106 51.3826C124.197 51.989 125.131 52.8093 126.224 53.4164C127.237 53.9792 128.421 54.7245 129.245 55.548C130.894 57.1973 134.401 58.4998 136.189 56.2636C136.655 55.6814 137.293 55.3078 137.681 54.6291C137.998 54.0749 138.325 53.3632 138.705 52.874C139.598 51.7269 140.121 50.6369 141.748 50.6369" stroke="black" stroke-linecap="round" stroke-linejoin="round"/>
    <path d="M129.953 56.1958C131.309 57.1824 131.81 58.4156 132.8 59.6532C133.722 60.8059 133.749 62.1757 133.749 63.6529C133.749 64.8485 133.024 66.5425 131.776 66.8993C131.089 67.0954 130.261 67.3136 129.546 67.3136C129.162 67.3136 128.778 67.3136 128.394 67.3136C128.115 67.3136 127.782 67.0583 127.512 67.0424C126.754 66.9978 126.11 66.6752 125.411 66.3645C124.762 66.0763 124.358 65.2944 123.648 65.1367C123.458 65.0945 122.883 64.8143 122.767 64.6697C122.619 64.4851 121.924 64.4212 121.682 64.3006C120.965 63.9417 120.214 63.0679 119.377 62.975C118.635 62.8924 117.753 62.2906 117.073 61.9505C116.347 61.5876 115.789 60.9815 115.107 60.6023C114.482 60.255 113.65 59.9115 113.111 59.4799C112.871 59.2886 112.4 59.2364 112.192 58.9753C112.028 58.7709 111.747 58.4816 111.514 58.3651" stroke="black" stroke-linecap="round" stroke-linejoin="round"/>
    <path d="M122.089 64.8731C122.675 65.2995 123.359 65.7304 123.987 66.0632C124.497 66.3329 124.802 66.9031 125.283 67.178C126.532 67.8919 126.428 69.5751 126.428 70.8387C126.428 72.0071 125.619 72.9006 124.936 73.7538C124.096 74.8038 123.438 75.5841 122.021 75.5841C120.764 75.5841 119.796 74.7456 118.699 74.2584C118.399 74.1249 118.127 73.9587 117.818 73.8216C117.438 73.6526 116.957 73.682 116.598 73.4826C116.206 73.2649 115.468 72.6266 115.039 72.6013C114.392 72.5633 113.634 71.9442 113.08 71.592C112.5 71.2226 111.879 70.8868 111.348 70.4621C111.095 70.2601 110.138 69.7541 109.819 69.7541C109.58 69.7541 108.124 69.028 108.124 69.2118" stroke="black" stroke-linecap="round" stroke-linejoin="round"/>
    <path d="M119.92 75.1774C120.123 75.6971 120.598 76.3985 120.598 76.94C120.598 77.2124 120.748 77.3698 120.734 77.6179C120.721 77.8333 120.523 78.1268 120.47 78.3636C120.249 79.3603 119.251 79.79 118.534 80.435C118.176 80.7579 117.617 80.7203 117.209 80.902C116.778 81.0933 116.117 81.143 115.649 81.143C115.103 81.143 114.704 81.0075 114.158 81.0075C113.797 81.0075 112.831 80.9762 112.569 80.7664C112.227 80.4929 111.762 80.7192 111.484 80.194C111.311 79.8661 110.714 79.4908 110.354 79.388C109.463 79.1333 108.545 78.5039 107.853 77.8891C107.233 77.3373 106.075 77.1229 105.549 76.4654C105.17 75.9922 103.446 75.4486 102.837 75.4486" stroke="black" stroke-linecap="round" stroke-linejoin="round"/>
    <path d="M110.972 80.194C111.468 80.8297 111.697 81.4377 111.507 82.2955C111.368 82.9199 111.021 83.2998 110.535 83.689C110.21 83.9493 109.292 83.9903 108.87 83.9903C108.238 83.9903 107.605 83.9903 106.972 83.9903C106.059 83.9903 104.42 83.7666 103.786 82.9734C103.167 82.2002 101.841 81.9254 101.074 81.4142" stroke="black" stroke-linecap="round" stroke-linejoin="round"/>
    <path d="M100.938 81.821C100.938 82.3181 100.938 82.8152 100.938 83.3124C100.938 83.5525 100.938 84.2199 100.938 83.5835" stroke="black" stroke-linecap="round" stroke-linejoin="round"/>
    <path d="M100.938 81.5498C100.661 80.8796 100.125 80.1667 100.125 79.4482C100.125 78.9501 99.8323 78.2529 99.447 77.889C98.6237 77.1114 97.3721 77.3467 96.3964 77.3467C95.731 77.3467 95.6462 78.0481 95.2741 78.4615C95.0203 78.7435 94.4004 79.5197 94.3024 79.8625C94.229 80.1196 94.1746 80.3257 94.1593 80.6007C94.1393 80.9613 93.7888 81.2236 93.7526 81.5498C93.7066 81.9635 93.0061 82.6843 93.3759 83.1466C93.6375 83.4736 93.6474 84.1866 93.8881 84.6079C94.1665 85.095 94.6126 85.5024 95.1084 85.7227C95.6511 85.9639 96.3448 86.024 96.9387 86.024C97.5832 86.024 98.2135 86.2952 98.8369 86.2952C99.7172 86.2952 101.909 86.9123 102.565 86.0918C103.161 85.3474 103.869 84.0212 103.379 83.0412" stroke="black" stroke-linecap="round" stroke-linejoin="round"/>
    <path d="M95.7864 77.4823C95.7864 76.3549 96.1317 74.2872 95.4097 73.3847C95.2434 73.1767 95.1669 72.8332 94.9427 72.6315C94.771 72.4769 94.4594 72.3999 94.2648 72.2247C94.0758 72.0546 93.3288 71.2773 93.0747 71.2455C92.5535 71.1804 92.1559 70.8146 91.5532 70.8388C91.1631 70.8544 90.0236 71.029 89.7153 71.2756C89.2016 71.6866 89.0452 72.2366 88.6005 72.7369C88.1802 73.2097 87.7284 73.8932 87.4857 74.4392C87.2395 74.9932 87.1347 75.5932 86.868 76.1265C86.6013 76.6599 86.1935 77.3187 86.16 77.8891C86.1222 78.5315 86.0244 79.1235 86.0244 79.7872C86.0244 80.4398 86.2281 80.9765 86.2956 81.5498C86.3542 82.0477 87.0668 82.4739 87.5158 82.4989C88.1182 82.5323 88.7134 82.8742 89.2784 82.9056C90.5194 82.9746 91.6699 83.5998 92.9391 83.1768" stroke="black" stroke-linecap="round" stroke-linejoin="round"/>
    <path d="M88.7363 72.6013C88.4497 71.9103 88.2069 71.1332 87.855 70.4998C87.7311 70.2768 87.7833 69.9865 87.6215 69.7842C87.4585 69.5805 87.2074 69.4298 87.0791 69.2118C86.4512 68.1443 84.6863 67.9915 83.5841 67.9915C82.452 67.9915 81.2085 67.7748 80.3603 68.8351C80.0614 69.2087 80.1791 69.9098 80.0514 70.3567C79.8903 70.9207 79.9127 71.531 79.7803 72.1268C79.3275 74.1641 78.5297 76.6779 79.6522 78.6423C80.1246 79.469 81.8718 80.2106 82.7631 80.322C83.8003 80.4517 85.1688 80.1429 85.6179 79.2449" stroke="black" stroke-linecap="round" stroke-linejoin="round"/>
    <path d="M79.5168 72.6013C78.8914 73.6019 77.3435 73.8815 76.2628 73.3094C75.8165 73.0731 75.5071 72.5926 75.0425 72.3603C74.5923 72.1352 73.8949 71.8459 73.521 71.5468C73.0356 71.1585 72.9135 71.1162 72.8732 70.432C72.846 69.9698 72.602 69.4609 72.602 68.9406C72.602 67.9365 72.4428 66.8186 72.8732 65.9578" stroke="black" stroke-linecap="round" stroke-linejoin="round"/>
    <path d="M80.1938 69.6185C78.4257 68.8854 76.9001 67.0059 74.9061 66.7713C74.012 66.6661 73.2493 65.804 72.3903 65.5586C71.5732 65.3251 70.4376 64.7532 69.7841 64.1651C69.5296 63.936 68.8925 63.9996 68.6693 63.7207C68.4577 63.4562 67.7994 63.201 67.5093 63.1181C66.4615 62.8187 66.2505 62.1078 65.5208 61.3781C64.9291 60.7864 63.4484 60.2633 62.6359 60.2633C61.6722 60.2633 60.7931 59.8566 59.8564 59.8566" stroke="black" stroke-linecap="round" stroke-linejoin="round"/>
    <path d="M91.9895 31.5198C91.082 31.5198 89.2563 31.2117 88.4945 31.8211C88.1466 32.0994 87.2911 32.2597 86.8374 32.3634C86.4994 32.4407 85.356 32.4337 85.105 32.6346C84.8049 32.8746 84.2366 32.8503 83.8546 33.0413C83.4825 33.2274 82.9204 33.3931 82.4988 33.4179C82.1079 33.4409 81.7112 33.8006 81.2785 33.8247C80.8285 33.8497 80.3632 33.9603 79.8549 33.9603C79.3375 33.9603 78.8523 33.8247 78.3635 33.8247C77.8237 33.8247 77.506 33.4006 77.0077 33.2899C76.056 33.0784 75.0776 32.1852 74.0926 32.0621C73.6474 32.0064 71.7877 30.6324 71.7877 31.9265C71.7877 32.6296 71.0579 33.7848 70.4997 34.2314C70.1633 34.5005 69.8691 35.0147 69.7615 35.3914C69.6069 35.9324 69.2423 36.4098 68.8802 36.8753C68.5231 37.3344 68.391 37.8225 68.2701 38.3667C68.1378 38.962 67.9444 39.3326 67.6525 39.8581C67.2125 40.6501 66.5659 41.6969 66.3719 42.5698C66.1527 43.5565 65.3034 44.5637 64.8429 45.4848C64.1059 46.9588 63.5109 48.4774 62.8091 49.959C62.2753 51.086 61.7647 52.0492 61.491 53.2808C61.3624 53.8592 61.3343 54.4605 61.2047 55.0434C61.0908 55.5563 60.7581 56.0158 60.6624 56.5423C60.4589 57.6617 59.8564 58.52 59.8564 59.721" stroke="black" stroke-linecap="round" stroke-linejoin="round"/>
    <path d="M71.7882 31.7909C71.8804 31.3808 72.1852 30.3073 72.5339 30.0284C72.609 29.9682 71.3323 29.6902 71.1102 29.5915C70.6702 29.3959 70.1224 29.46 69.7469 29.1471C69.3307 28.8002 68.5549 28.417 68.0521 28.2733C66.9505 27.9586 65.6944 27.6266 64.6776 27.0455C63.8591 26.5778 62.8529 26.0965 61.8906 26.0965" stroke="black" stroke-linecap="round" stroke-linejoin="round"/>
    <path d="M59.7209 59.721C59.0909 61.2405 57.443 62.3241 55.789 61.589C55.1264 61.2945 54.4621 61.1333 53.7553 60.8358C53.2198 60.6103 52.1137 60.5501 51.7216 60.0599C51.6202 59.9332 51.0303 59.7587 50.8403 59.6532C50.4875 59.4572 50.0511 59.3022 49.6803 59.1786C48.9786 58.9448 48.3164 58.6705 47.5863 58.5083C46.1615 58.1916 44.7967 57.8228 43.3154 57.8228" stroke="black" stroke-linecap="round" stroke-linejoin="round"/>
    <path d="M61.3481 25.8253C61.094 27.1277 60.4801 27.9683 59.8265 29.0793C59.5227 29.5958 59.1665 30.1159 58.7419 30.5406C58.4266 30.8558 57.672 31.3362 57.5593 31.7307C57.2885 32.6784 56.0372 33.6266 55.9248 34.6382C55.8645 35.1803 55.3098 35.5945 55.2469 36.1296C55.1902 36.6114 54.7013 37.1916 54.5614 37.6813C54.2089 38.9152 52.6708 39.8329 52.6708 41.2139C52.6708 41.7998 52.1206 42.3003 52.0004 42.8409C51.8607 43.4698 51.4885 43.9518 51.1794 44.5357C50.581 45.666 49.5582 46.4777 48.9423 47.5863C48.3895 48.5814 47.7644 49.8859 46.9763 50.7725C46.0073 51.8627 45.5348 53.4218 44.6413 54.5387C44.229 55.054 44.0128 55.7456 43.7525 56.3314C43.6297 56.6076 43.468 56.9785 43.4512 57.2805C43.4441 57.4086 43.3305 58.1634 43.2478 58.2296C42.9857 58.4392 42.6018 59.4737 42.5096 59.7963C42.3509 60.352 42.0894 60.8458 41.7941 61.348C41.2302 62.3065 40.4684 63.6292 40.4684 64.8053C40.4684 65.7961 40.0753 67.972 41.3496 68.2552C42.0432 68.4093 42.7338 68.0599 43.2478 67.6601C43.7113 67.2996 44.4221 66.6212 44.7015 66.0934C45.0237 65.4849 45.4011 64.948 45.7259 64.3308C46.0558 63.7042 46.1586 62.9825 46.5018 62.3648C46.7126 61.9854 47.1119 61.0178 47.1119 60.6023C47.1119 60.0194 47.6542 59.4856 47.6542 58.9075" stroke="black" stroke-linecap="round" stroke-linejoin="round"/>
    <path d="M61.3483 26.5032C61.4468 26.0546 61.5778 25.3163 61.9584 25.0118C62.0674 24.9246 62.758 24.1186 62.3652 24.2058C61.6312 24.3689 60.728 24.0884 59.9925 23.7614C59.1491 23.3866 58.174 23.2332 57.2808 22.9781C56.835 22.8507 56.2579 22.7261 55.8572 22.5035C55.3944 22.2464 54.8769 21.9409 54.3733 21.7578C53.3537 21.3871 52.285 20.6676 51.1796 20.5376C50.3024 20.4344 49.5774 19.4637 48.7316 19.1817C48.1824 18.9987 47.7406 18.6722 47.2477 18.3984C46.8199 18.1607 46.2453 17.9994 45.8617 17.7205C45.407 17.3897 44.5821 17.3442 44.054 17.1179C43.4955 16.8785 42.9413 16.8463 42.3667 16.7111C41.3092 16.4623 40.2643 16.3383 39.3086 15.7922C38.5215 15.3424 37.8512 14.4952 37.2146 13.894C36.5739 13.2889 36.1472 12.7073 35.3767 12.267C34.9098 12.0002 34.6986 11.2424 34.3071 10.8509C33.9009 10.4448 33.3716 10.0798 32.8081 9.95459C32.594 9.907 32.4225 9.70343 32.198 9.69096C31.9345 9.67632 31.7601 9.81321 31.5201 9.82654C31.2109 9.84372 30.589 9.86373 30.2999 9.99225C29.4874 10.3534 28.4149 10.3942 27.5279 10.6476C27.1786 10.7474 26.7362 10.9972 26.368 11.1522C25.902 11.3484 25.138 11.3 24.6355 11.318C23.491 11.3588 22.366 11.5891 21.2158 11.5891" stroke="black" stroke-linecap="round" stroke-linejoin="round"/>
    <path d="M18.9111 4.67441C19.8948 5.08229 20.219 6.15958 21.1482 6.57257C21.5086 6.7327 21.9769 7.21035 22.3308 7.44632C22.658 7.66443 23.2231 8.17347 23.3854 8.53851C23.7791 9.42452 25.4329 10.3758 26.2326 10.7756" stroke="black" stroke-linecap="round" stroke-linejoin="round"/>
    <path d="M40.0618 68.1271C39.7431 67.3773 39.0403 67.1971 38.5101 66.6357C38.0096 66.1057 37.4787 65.4932 36.8681 65.1443C35.5219 64.375 33.8861 64.4367 32.4692 63.7282C31.5439 63.2656 30.8221 62.4684 29.8253 62.1012C28.9036 61.7616 27.911 61.3682 26.9705 61.1069C24.9524 60.5463 23.5638 58.696 21.5623 58.1241C20.5036 57.8216 19.4356 57.637 18.3686 57.3859C17.3791 57.1531 16.4003 56.6698 15.4535 56.4595C14.5094 56.2497 13.7961 55.31 12.9151 54.9455C12.0147 54.5729 10.8607 53.9757 10.1658 53.2808C8.59613 51.7111 7.02704 50.4566 5.08147 49.3866C4.09563 48.8443 3.35668 47.9631 2.57319 47.1796C2.18177 46.7882 1.52705 46.3753 1.28516 45.8915" stroke="black" stroke-linecap="round" stroke-linejoin="round"/>
    <path d="M82.7707 41.6885C83.4461 41.6885 84.1215 41.6885 84.7969 41.6885C85.0799 41.6885 85.9855 41.6734 86.1603 41.8919C86.6587 42.5149 86.3976 43.6359 85.859 44.2344C84.768 45.4466 82.8695 46.1627 81.2793 46.1627" stroke="black" stroke-linecap="round" stroke-linejoin="round"/>
    <path d="M81.4146 70.5676C81.4146 71.3204 81.2569 72.3325 81.4221 73.0759C81.5266 73.5461 82.4097 74.2283 82.8382 74.2283C84.0834 74.2283 85.3683 74.7433 86.1901 73.7161C86.4704 73.3657 86.1961 72.4894 86.627 72.2021C86.8725 72.0384 86.0484 72.059 85.7532 72.059C85.394 72.059 85.0792 71.9921 84.7364 71.9159C83.5764 71.6581 82.9249 70.8062 81.9569 70.1608" stroke="black" stroke-linecap="round" stroke-linejoin="round"/>
    <path d="M90.2278 73.2792C90.9141 73.9447 92.243 74.928 93.2106 75.0418C93.9588 75.1298 94.1597 75.5487 94.1597 76.1943C94.1597 76.5734 93.5503 76.858 93.3161 77.0454C92.8131 77.4478 90.4081 77.3927 90.0621 76.8044C89.4437 75.7531 89.4085 74.847 90.0922 73.8216" stroke="black" stroke-linecap="round" stroke-linejoin="round"/>
    <path d="M94.9727 79.2449C95.7074 79.5316 98.708 80.5643 97.9555 81.8812C97.6777 82.3674 96.3921 82.3096 95.9895 82.2202C95.3001 82.0669 94.7554 81.3056 94.1592 81.0074" stroke="black" stroke-linecap="round" stroke-linejoin="round"/>
    <path d="M6.5 48.5L4.5 44M9.5 51.5L7 43.5M12.5 53.5L9.5 43.5M16 56L14 50L12.5 42.5M12.5 37L18 56M21 57L16 33M19 28.5L20.5 41.5L22 51.5L25 60M22 23L25 44L26.5 57L27.5 61M25 20.5L29 55L30.5 62M28.5 14V26.5L32 51.5L33.5 63.5M32 14L34 44.5L37.5 65.5M37.5 17.5L38.5 39L40 53.5L41 61M42 22.5L43 40L45 53.5M45 24L47 39L48 48.5M49 24L49.5 32.5L50.5 38V44M52 24L53.5 39M54.5 24L56 34M58 24L58.5 30M60 51.5L60.5 56.5M58 53.5V58L58.5 60M54.5 53.5L55 59.5L56 61M53 52V58L53.5 61M50.5 52L51 59.5M49 52V58M47 52V58" stroke="black"/>
    <path d="M44.5361 58.5007C44.9251 59.0298 45.2243 59.578 45.5153 60.1277C45.5993 60.2863 46.1061 60.8056 46.0275 60.8056" stroke="black" stroke-linecap="round" stroke-linejoin="round"/>
    <path d="M43.8584 59.5854C44.1514 60.3264 44.4103 61.035 44.9129 61.6493C45.0541 61.8217 45.2142 62.3421 45.2142 62.5682" stroke="black" stroke-linecap="round" stroke-linejoin="round"/>
    <path d="M42.9092 60.5345C43.5302 61.328 44.4295 62.2501 44.7772 63.216C44.8376 63.3837 45.2839 64.2301 44.9429 64.0596" stroke="black" stroke-linecap="round" stroke-linejoin="round"/>
    <path d="M42.2314 61.8903C42.9785 62.9246 44.2934 66.5566 43.7229 65.4154" stroke="black" stroke-linecap="round" stroke-linejoin="round"/>
    <path d="M41.5527 63.6529C41.8352 64.4531 42.2853 65.1618 42.5696 65.9578C42.6084 66.0663 42.773 66.787 42.773 66.6357" stroke="black" stroke-linecap="round" stroke-linejoin="round"/>
    <path d="M196 31L195 39M194 29L193.5 40M192 28.5V38V42M190 27.5V39L189 43M187.5 26V40L187 44M184 21.5L185 41L184 45.5M181.5 15.5V42L181 47.5M179.5 12V40L178 45L177 49.5M177 2.5V29L176 38L174.5 50M173.5 3.5V27.5L172 44L170.5 53M171 4.5L170.5 38L168.5 47.5L167 55M169.5 6L167 42L164.5 56.5M146.5 14.5V19M148 14.5V23M149.5 14.5V25M151.5 13.5V30M154 12L152.5 33M156.5 11L156 31.5L155 38M160 9L159 28.5L157.5 37.5L156.5 43M162.5 9L161 25L160 39L159 46.5M164.5 9L162.5 34.5L160 50M167 9.5L165 38L162.5 50L162 54.5M62.5 60L62 57M64.5 61L63.5 57M66 58L67 62.5M69 59L70.5 65M72.5 61L73.5 64L74.5 66M76 63L77 67M89.5 64H95.5M91 66L95 66.5" stroke="black"/>
    <path d="M89.0068 15.521C89.6635 13.9758 91.1261 13.9405 92.3286 13.0052C93.464 12.1221 95.2657 12.1314 96.6748 12.1314C100.119 12.1314 103.916 11.7668 106.904 13.7584" stroke="black" stroke-linecap="round" stroke-linejoin="round"/>
    <path d="M92.668 17.6903C94.1475 17.0769 95.4401 16.8768 97.0744 16.8768C98.3671 16.8768 99.8 16.8499 100.939 17.4192" stroke="black" stroke-linecap="round" stroke-linejoin="round"/>
    <path d="M88.3291 92.2608C89.1743 92.6029 89.9572 92.9092 90.7696 93.3154C91.3298 93.5955 91.9176 93.6518 92.4644 93.9556C93.824 94.7109 95.3522 94.757 96.8708 94.8369C98.7914 94.938 100.746 94.9725 102.693 94.9725C103.464 94.9725 104.334 94.7376 105.074 94.5733C105.612 94.4537 107.184 94.0234 106.633 94.0234" stroke="black" stroke-linecap="round" stroke-linejoin="round"/>
    <path d="M91.9902 97.6841C92.9317 98.0652 93.8916 98.4844 94.7697 98.9722C94.983 99.0907 95.3714 99.2409 95.5907 99.3036C95.8196 99.369 96.3959 99.3376 96.5699 99.4768C97.0519 99.8625 100.667 100.261 100.939 99.7179" stroke="black" stroke-linecap="round" stroke-linejoin="round"/>
    <path d="M72.7373 68.9406C73.4606 68.6332 74.4163 67.7519 74.771 67.0424" stroke="black" stroke-linecap="round" stroke-linejoin="round"/>
    <path d="M73.1436 71.1099C74.3922 70.2018 75.6605 69.1648 76.5331 67.8559" stroke="black" stroke-linecap="round" stroke-linejoin="round"/>
    <path d="M74.7705 72.3302C75.2602 71.6837 76.0804 70.9568 76.7365 70.432C77.2512 70.0202 78.1601 69.3937 78.1601 68.6694" stroke="black" stroke-linecap="round" stroke-linejoin="round"/>
    <path d="M75.8555 72.7369C76.3724 72.5277 77.3124 72.2625 77.618 71.7276C77.7492 71.498 78.0023 71.1927 78.1905 71.0045C78.61 70.585 79.412 70.0981 79.6518 69.6185" stroke="black" stroke-linecap="round" stroke-linejoin="round"/>
    <path d="M84.668 49.2811C84.668 49.8253 84.8036 51.4523 84.8036 50.9081" stroke="black" stroke-linecap="round" stroke-linejoin="round"/>
    <path d="M86.7021 48.6032C86.8293 49.2706 86.8377 51.3164 86.8377 50.6369" stroke="black" stroke-linecap="round" stroke-linejoin="round"/>
    <path d="M88.7363 47.3829C88.8877 48.1588 88.8719 48.9014 88.8719 49.6879" stroke="black" stroke-linecap="round" stroke-linejoin="round"/>
    <path d="M90.6338 45.8915C90.6338 46.7954 90.6338 49.5071 90.6338 48.6032" stroke="black" stroke-linecap="round" stroke-linejoin="round"/>
    <path d="M91.9902 44.5357C92.0074 45.3954 92.1258 47.9717 92.1258 47.1118" stroke="black" stroke-linecap="round" stroke-linejoin="round"/>
    <path d="M93.6172 42.9087C93.6172 43.8916 93.7528 44.7815 93.7528 45.756" stroke="black" stroke-linecap="round" stroke-linejoin="round"/>
    <path d="M96.3281 40.1971C96.3281 41.1513 96.3318 42.0359 96.4562 42.969C96.4975 43.279 96.4637 43.6129 96.4637 43.9256C96.4637 44.2877 96.3729 44.695 96.5993 44.129" stroke="black" stroke-linecap="round" stroke-linejoin="round"/>
    <path d="M98.2266 39.248C98.2266 40.6465 98.3621 41.8543 98.3621 43.1799" stroke="black" stroke-linecap="round" stroke-linejoin="round"/>
    <path d="M100.531 38.7057C100.744 39.8246 100.802 41.2443 100.802 42.3664" stroke="black" stroke-linecap="round" stroke-linejoin="round"/>
    <path d="M102.701 40.1971C102.701 40.4567 102.865 43.098 102.701 43.1799" stroke="black" stroke-linecap="round" stroke-linejoin="round"/>
    <path d="M120.327 32.3333C120.711 31.7431 121.286 31.5198 121.954 31.5198C122.19 31.5198 123.092 31.4134 123.174 31.2486" stroke="black" stroke-linecap="round" stroke-linejoin="round"/>
    <path d="M121.683 33.5535C122.407 33.005 123.087 32.74 123.988 32.74" stroke="black" stroke-linecap="round" stroke-linejoin="round"/>
    <path d="M100.939 26.2321C100.735 27.2749 100.396 28.4625 100.396 29.486" stroke="black" stroke-linecap="round" stroke-linejoin="round"/>
    <path d="M103.379 26.6388C103.193 27.506 103.085 28.5835 102.701 29.3504" stroke="black" stroke-linecap="round" stroke-linejoin="round"/>
    <path d="M109.615 83.7191C109.337 83.2442 109.229 82.665 108.938 82.2277" stroke="black" stroke-linecap="round" stroke-linejoin="round"/>
    <path d="M107.446 84.397C107.446 83.8198 107.436 83.3685 107.318 82.8378C107.267 82.6065 107.175 82.3119 107.175 82.0921" stroke="black" stroke-linecap="round" stroke-linejoin="round"/>
    <path d="M104.734 83.5835C104.884 82.8148 105.006 82.1975 105.006 81.4142" stroke="black" stroke-linecap="round" stroke-linejoin="round"/>
    <path d="M102.43 81.9565C102.43 81.2398 102.565 80.6272 102.565 79.9228" stroke="black" stroke-linecap="round" stroke-linejoin="round"/>
    <path d="M95.7861 86.024C95.7861 85.3461 95.7861 84.6682 95.7861 83.9903" stroke="black" stroke-linecap="round" stroke-linejoin="round"/>
    <path d="M97.9551 86.1596C98.0916 85.4599 97.9551 85.0298 97.9551 84.397" stroke="black" stroke-linecap="round" stroke-linejoin="round"/>
    <path d="M100.938 86.4308C100.628 86.0039 100.526 85.3396 100.23 84.9695C100.026 84.7143 99.8218 84.4379 99.7178 84.1259" stroke="black" stroke-linecap="round" stroke-linejoin="round"/>
    <path d="M87.1094 82.0921C87.3155 81.0355 87.2057 79.575 87.7873 78.7025" stroke="black" stroke-linecap="round" stroke-linejoin="round"/>
    <path d="M89.0068 82.6344C89.1802 81.551 89.0068 80.7014 89.0068 79.6516" stroke="black" stroke-linecap="round" stroke-linejoin="round"/>
    <path d="M90.498 82.77C90.6437 81.8598 90.6336 80.9753 90.6336 80.0584" stroke="black" stroke-linecap="round" stroke-linejoin="round"/>
    <path d="M92.1258 83.0412C92.1258 82.1389 92.2747 81.0474 91.9902 80.194" stroke="black" stroke-linecap="round" stroke-linejoin="round"/>
    <path d="M79.5166 77.2111C79.6525 76.4975 79.6157 75.657 79.9233 75.0418" stroke="black" stroke-linecap="round" stroke-linejoin="round"/>
    <path d="M80.7363 79.3805C80.9221 78.5818 81.2337 77.8849 81.2787 77.0756C81.3012 76.6703 81.4197 76.1102 81.5498 75.7197" stroke="black" stroke-linecap="round" stroke-linejoin="round"/>
    <path d="M82.3634 80.194C82.3634 79.7224 82.182 78.6363 82.3936 78.1602C82.5412 77.8279 82.6346 77.1652 82.6346 76.8044" stroke="black" stroke-linecap="round" stroke-linejoin="round"/>
    <path d="M83.8555 79.9228C84.0656 78.5834 83.9911 77.2092 83.9911 75.8553" stroke="black" stroke-linecap="round" stroke-linejoin="round"/>
    <path d="M153.951 43.0443C154.102 43.8198 154.282 44.5012 154.599 45.2136C154.825 45.7216 155.179 46.3655 155.299 46.9084C155.412 47.4155 155.958 48.0337 156.324 48.3998C156.536 48.6122 156.785 48.9455 156.934 49.2058C156.99 49.3033 157.357 49.5523 157.205 49.5523" stroke="black" stroke-linecap="round" stroke-linejoin="round"/>
    <path d="M151.782 43.3155C151.971 43.8099 152.076 44.5812 152.528 44.9425C152.663 45.0503 152.983 45.5913 153.002 45.7559C153.082 46.4288 153.664 46.9371 153.808 47.5863C153.922 48.0957 154.089 49.0178 154.697 49.153C155.256 49.2773 155.503 49.9892 155.985 50.2302" stroke="black" stroke-linecap="round" stroke-linejoin="round"/>
    <path d="M149.612 41.8241C149.89 43.5965 149.775 45.7508 151.307 46.9762C151.842 47.4042 152.022 48.3822 152.46 48.8744C152.894 49.3626 153.079 50.2008 153.68 50.5014" stroke="black" stroke-linecap="round" stroke-linejoin="round"/>
    <path d="M147.985 44.5357C148.303 45.3683 148.437 46.4067 148.867 47.1796C149.153 47.6952 149.107 48.3977 149.409 48.9421C149.959 49.9317 150.917 50.196 151.782 50.7725" stroke="black" stroke-linecap="round" stroke-linejoin="round"/>
    <path d="M146.223 44.9425C146.421 45.8906 146.777 46.6683 147.202 47.5185C147.39 47.8955 147.801 48.5987 147.85 49.0099C147.943 49.804 150.042 51.3379 149.477 50.7725" stroke="black" stroke-linecap="round" stroke-linejoin="round"/>
    <path d="M143.918 44.6713C144.264 46.3224 144.949 47.5865 145.786 49.0099C146.005 49.3822 146.39 49.5992 146.69 49.8988C146.823 50.0319 147.579 50.796 147.579 50.6369" stroke="black" stroke-linecap="round" stroke-linejoin="round"/>
    <path d="M141.613 44.4001C141.891 45.976 142.257 47.6671 143.481 48.7689C143.876 49.1245 144.263 49.6101 144.596 50.0268C144.716 50.1761 145.352 50.7725 145.274 50.7725" stroke="black" stroke-linecap="round" stroke-linejoin="round"/>
    <path d="M136.055 46.1627C137.025 46.8906 138.902 47.9658 138.902 49.4167" stroke="black" stroke-linecap="round" stroke-linejoin="round"/>
    <path d="M134.834 47.6541C137.023 49.4948 137.681 51.5787 137.681 54.2977" stroke="black" stroke-linecap="round" stroke-linejoin="round"/>
    <path d="M132.665 50.5013C133.338 51.8464 133.75 52.8101 133.75 54.2977C133.75 54.6969 133.764 56.8129 133.614 56.7381" stroke="black" stroke-linecap="round" stroke-linejoin="round"/>
    <path d="M129.953 48.4676C130.621 49.3661 130.929 50.1822 131.166 51.2471C131.301 51.856 131.206 52.7294 131.512 53.2808C131.752 53.7127 131.58 54.6276 131.58 55.1112C131.58 55.3814 131.576 56.7301 131.445 56.467" stroke="black" stroke-linecap="round" stroke-linejoin="round"/>
    <path d="M128.19 49.0099C128.65 50.1453 128.868 51.1192 128.868 52.3317C128.868 52.7456 129.069 54.4007 128.733 54.5688" stroke="black" stroke-linecap="round" stroke-linejoin="round"/>
    <path d="M125.208 48.0609C125.911 48.9886 126.428 49.8631 126.428 51.0437C126.428 51.812 126.428 52.5803 126.428 53.3486" stroke="black" stroke-linecap="round" stroke-linejoin="round"/>
    <path d="M123.038 48.0609C123.56 48.8003 124.171 50.4288 123.58 51.3149" stroke="black" stroke-linecap="round" stroke-linejoin="round"/>
    <path d="M120.733 48.1964C121.187 48.9899 121.276 49.4966 121.276 50.3658" stroke="black" stroke-linecap="round" stroke-linejoin="round"/>
</svg>
