<svg width="95" height="53" viewBox="0 0 95 53" fill="none" xmlns="http://www.w3.org/2000/svg">
    <path d="M6.77734 19.0625C5.93359 19.0625 5.16797 18.8516 4.48047 18.4297C3.79297 18.0234 3.20703 17.4609 2.72266 16.7422C2.25391 16.0234 1.88672 15.1797 1.62109 14.2109C1.37109 13.2422 1.24609 12.1953 1.24609 11.0703C1.24609 9.46094 1.43359 8.02344 1.80859 6.75781C2.18359 5.49219 2.67578 4.42188 3.28516 3.54688C3.91016 2.67187 4.61328 2 5.39453 1.53125C6.19141 1.0625 7.00391 0.828125 7.83203 0.828125C8.61328 0.828125 9.26953 0.96875 9.80078 1.25C10.332 1.53125 10.7539 1.89063 11.0664 2.32812C11.3945 2.76562 11.6133 3.25 11.7227 3.78125C11.8477 4.29688 11.8867 4.78906 11.8398 5.25781C11.7617 6.16406 11.4492 6.89844 10.9023 7.46094C10.3711 8.02344 9.75391 8.30469 9.05078 8.30469C8.81641 8.28906 8.57422 8.25 8.32422 8.1875C8.10547 8.125 7.87891 8.03125 7.64453 7.90625C7.41016 7.78125 7.19141 7.60156 6.98828 7.36719C7.64453 7.41406 8.15234 7.28125 8.51172 6.96875C8.87109 6.65625 9.13672 6.30469 9.30859 5.91406C9.49609 5.46094 9.60547 4.92969 9.63672 4.32031C9.63672 3.97656 9.58203 3.67969 9.47266 3.42969C9.36328 3.16406 9.21484 2.95312 9.02734 2.79688C8.85547 2.625 8.66797 2.5 8.46484 2.42188C8.26172 2.34375 8.06641 2.30469 7.87891 2.30469C7.45703 2.30469 6.99609 2.46875 6.49609 2.79688C6.01172 3.125 5.55078 3.625 5.11328 4.29688C4.67578 4.95312 4.30859 5.79688 4.01172 6.82812C3.73047 7.84375 3.58984 9.05469 3.58984 10.4609C3.58984 11.8516 3.71484 12.9922 3.96484 13.8828C4.21484 14.7578 4.51953 15.4453 4.87891 15.9453C5.23828 16.4297 5.61328 16.7656 6.00391 16.9531C6.41016 17.125 6.75391 17.2109 7.03516 17.2109C7.58203 17.1641 8.08203 16.9766 8.53516 16.6484C8.92578 16.3672 9.29297 15.9219 9.63672 15.3125C9.99609 14.6875 10.2383 13.7969 10.3633 12.6406C10.5664 12.6562 10.7305 12.7031 10.8555 12.7812C10.9961 12.8594 11.1133 12.9375 11.207 13.0156C11.3008 13.1094 11.3867 13.2188 11.4648 13.3438C11.4805 13.3594 11.4805 13.5156 11.4648 13.8125C11.4492 14.1094 11.3945 14.4688 11.3008 14.8906C11.207 15.3125 11.0586 15.7656 10.8555 16.25C10.668 16.7344 10.3945 17.1875 10.0352 17.6094C9.69141 18.0312 9.25391 18.375 8.72266 18.6406C8.19141 18.9219 7.54297 19.0625 6.77734 19.0625ZM19.5508 12.9688C19.5195 13.5781 19.4102 14.1406 19.2227 14.6562C19.0508 15.1719 18.8086 15.625 18.4961 16.0156C18.1836 16.3906 17.8086 16.6875 17.3711 16.9062C16.9492 17.125 16.4805 17.2422 15.9648 17.2578C15.5117 17.2734 15.082 17.1641 14.6758 16.9297C14.2852 16.6953 13.9414 16.3672 13.6445 15.9453C13.3477 15.5234 13.1211 15.0234 12.9648 14.4453C12.8242 13.8516 12.7852 13.2109 12.8477 12.5234C12.8945 11.7266 13.043 11.0469 13.293 10.4844C13.543 9.90625 13.8086 9.42969 14.0898 9.05469C14.3711 8.67969 14.6289 8.40625 14.8633 8.23438C15.1133 8.04688 15.2695 7.9375 15.332 7.90625C15.4414 7.85938 15.543 7.85156 15.6367 7.88281C15.7305 7.89844 15.832 7.92188 15.9414 7.95312C15.9727 7.96875 16.0039 8.00781 16.0352 8.07031C16.0977 8.17969 16.1367 8.38281 16.1523 8.67969C16.2305 8.50781 16.332 8.36719 16.457 8.25781C16.582 8.14844 16.707 8.07031 16.832 8.02344C16.9883 7.96094 17.1445 7.92188 17.3008 7.90625C17.4102 7.89062 17.5977 7.97656 17.8633 8.16406C18.1445 8.35156 18.4102 8.64844 18.6602 9.05469C18.9258 9.46094 19.1523 9.99219 19.3398 10.6484C19.5273 11.2891 19.5977 12.0625 19.5508 12.9688ZM17.957 12.6875C17.9727 12.3125 17.957 11.9375 17.9102 11.5625C17.8789 11.1719 17.8164 10.8203 17.7227 10.5078C17.6445 10.1797 17.543 9.92188 17.418 9.73438C17.293 9.53125 17.168 9.42969 17.043 9.42969C16.9023 9.46094 16.7461 9.53125 16.5742 9.64062C16.4336 9.73438 16.2773 9.88281 16.1055 10.0859C15.9336 10.2891 15.7695 10.5781 15.6133 10.9531C15.5977 10.9062 15.582 10.8203 15.5664 10.6953C15.5508 10.5859 15.5352 10.4453 15.5195 10.2734C15.5195 10.0859 15.5352 9.83594 15.5664 9.52344C15.3477 9.78906 15.1758 10.1016 15.0508 10.4609C14.9414 10.8203 14.8555 11.1641 14.793 11.4922C14.7305 11.8828 14.6836 12.2734 14.6523 12.6641C14.6367 13.0859 14.6523 13.5 14.6992 13.9062C14.7617 14.3125 14.8555 14.6719 14.9805 14.9844C15.1211 15.2969 15.2852 15.5469 15.4727 15.7344C15.6602 15.9219 15.8867 16.0078 16.1523 15.9922C16.418 15.9766 16.6523 15.8672 16.8555 15.6641C17.0586 15.4609 17.2383 15.2031 17.3945 14.8906C17.5508 14.5781 17.6758 14.2266 17.7695 13.8359C17.8633 13.4453 17.9258 13.0625 17.957 12.6875ZM25.9961 9.6875C25.8711 9.6875 25.7305 9.75781 25.5742 9.89844C25.4336 10.0234 25.293 10.2031 25.1523 10.4375C25.0117 10.6562 24.8711 10.9062 24.7305 11.1875C24.5898 11.4531 24.4648 11.7266 24.3555 12.0078C24.0898 12.6641 23.832 13.3359 23.582 14.0234C23.332 14.7109 23.1836 15.3047 23.1367 15.8047C23.1211 15.8516 23.1133 15.8984 23.1133 15.9453C23.1133 15.9766 23.1133 16.0078 23.1133 16.0391C23.0977 16.0703 23.0898 16.1172 23.0898 16.1797C23.0586 16.3984 23.0117 16.5781 22.9492 16.7188C22.9023 16.8438 22.793 16.9297 22.6211 16.9766C22.4336 17.0078 22.2461 17.0312 22.0586 17.0469C21.8711 17.0625 21.6914 17.0469 21.5195 17C21.4102 16.9688 21.3242 16.9141 21.2617 16.8359C21.2148 16.7422 21.1758 16.6406 21.1445 16.5312C21.1289 16.4062 21.1133 16.2891 21.0977 16.1797C21.0977 16.0703 21.0977 15.9766 21.0977 15.8984C21.0977 15.8047 21.1055 15.5156 21.1211 15.0312C21.1367 14.5312 21.1523 13.9688 21.168 13.3438C21.1836 12.7188 21.1914 12.1094 21.1914 11.5156C21.1914 10.9062 21.1836 10.4453 21.168 10.1328C21.1367 9.91406 21.1055 9.71094 21.0742 9.52344C21.043 9.35156 21.0039 9.17969 20.957 9.00781C20.9258 8.83594 20.8711 8.6875 20.793 8.5625C20.9648 8.46875 21.1367 8.39062 21.3086 8.32812C21.4805 8.26562 21.6367 8.21875 21.7773 8.1875C21.9492 8.14062 22.1055 8.10938 22.2461 8.09375C22.6211 8.0625 22.9102 8.0625 23.1133 8.09375C23.332 8.125 23.4414 8.28906 23.4414 8.58594C23.4414 8.85156 23.418 9.26562 23.3711 9.82812C23.3398 10.375 23.3008 11.1406 23.2539 12.125C23.4258 11.7344 23.6289 11.2969 23.8633 10.8125C24.0977 10.3125 24.3477 9.85156 24.6133 9.42969C24.8789 8.99219 25.1523 8.63281 25.4336 8.35156C25.7148 8.05469 25.9805 7.90625 26.2305 7.90625C26.4023 7.90625 26.5977 7.94531 26.8164 8.02344C27.0508 8.08594 27.2695 8.17969 27.4727 8.30469C27.6758 8.41406 27.8555 8.53906 28.0117 8.67969C28.1836 8.82031 28.3008 8.96094 28.3633 9.10156C28.4258 9.25781 28.4648 9.5 28.4805 9.82812C28.4961 10.1562 28.4961 10.5234 28.4805 10.9297C28.6055 10.6328 28.7461 10.3438 28.9023 10.0625C29.0586 9.78125 29.2148 9.52344 29.3711 9.28906C29.543 9.03906 29.7148 8.82812 29.8867 8.65625C30.0586 8.48438 30.2148 8.36719 30.3555 8.30469C30.543 8.22656 30.7695 8.21094 31.0352 8.25781C31.3008 8.30469 31.5586 8.39062 31.8086 8.51562C32.0742 8.625 32.3008 8.75781 32.4883 8.91406C32.6914 9.07031 32.8164 9.21875 32.8633 9.35938C32.9102 9.51562 32.9492 9.75781 32.9805 10.0859C33.0117 10.4141 33.0352 10.7734 33.0508 11.1641C33.0664 11.5547 33.0742 11.9609 33.0742 12.3828C33.0742 12.7891 33.0664 13.1484 33.0508 13.4609C33.0195 14.3672 33.0273 15.0859 33.0742 15.6172C33.1211 16.1328 33.3086 16.5156 33.6367 16.7656C33.418 16.9062 33.2148 17.0078 33.0273 17.0703C32.8398 17.1484 32.6758 17.2031 32.5352 17.2344C32.3633 17.2812 32.2148 17.3047 32.0898 17.3047C31.918 17.3047 31.7773 17.2578 31.668 17.1641C31.5586 17.0859 31.4727 16.9766 31.4102 16.8359C31.3477 16.6953 31.3086 16.5391 31.293 16.3672C31.2773 16.1953 31.2695 16.0234 31.2695 15.8516C31.2695 15.6953 31.2773 15.4375 31.293 15.0781C31.3242 14.7031 31.3477 14.2812 31.3633 13.8125C31.3789 13.3438 31.3789 12.8672 31.3633 12.3828C31.3477 11.8828 31.3086 11.4297 31.2461 11.0234C31.1992 10.6016 31.1133 10.2578 30.9883 9.99219C30.8633 9.72656 30.6914 9.59375 30.4727 9.59375C30.2852 9.59375 30.1055 9.71094 29.9336 9.94531C29.7617 10.1641 29.5977 10.4609 29.4414 10.8359C29.2852 11.1953 29.1445 11.6016 29.0195 12.0547C28.9102 12.4922 28.8086 12.9297 28.7148 13.3672C28.6211 13.8047 28.5508 14.2109 28.5039 14.5859C28.457 14.9453 28.4336 15.2344 28.4336 15.4531L28.4102 15.2422C28.4102 15.5391 28.4102 15.8125 28.4102 16.0625C28.4258 16.3125 28.4414 16.5625 28.457 16.8125C28.4727 16.9062 28.3867 16.9844 28.1992 17.0469C28.0117 17.125 27.8008 17.1562 27.5664 17.1406C27.3477 17.1406 27.1445 17.0938 26.957 17C26.7695 16.9062 26.6758 16.75 26.6758 16.5312C26.6758 16.375 26.6758 16.1406 26.6758 15.8281C26.6758 15.5156 26.668 15.1641 26.6523 14.7734C26.6523 14.3828 26.6445 13.9766 26.6289 13.5547C26.6289 13.1172 26.6211 12.7031 26.6055 12.3125C26.6055 12.0156 26.5977 11.7109 26.582 11.3984C26.582 11.0859 26.5664 10.8047 26.5352 10.5547C26.5039 10.2891 26.4414 10.0781 26.3477 9.92188C26.2695 9.76562 26.1523 9.6875 25.9961 9.6875ZM39.4258 7.71875C39.8633 7.71875 40.2695 7.84375 40.6445 8.09375C41.0195 8.34375 41.3398 8.67188 41.6055 9.07812C41.8711 9.48438 42.082 9.95312 42.2383 10.4844C42.3945 11 42.4727 11.5391 42.4727 12.1016C42.4727 12.6641 42.4102 13.2578 42.2852 13.8828C42.1602 14.5078 41.9648 15.0859 41.6992 15.6172C41.4336 16.1484 41.0898 16.5938 40.668 16.9531C40.2461 17.2969 39.7305 17.4688 39.1211 17.4688C38.6367 17.4688 38.1758 17.2969 37.7383 16.9531C37.3164 16.5938 36.9883 16.1484 36.7539 15.6172C36.7227 16.1641 36.6523 16.7188 36.543 17.2812C36.4336 17.8594 36.3789 18.5469 36.3789 19.3438C36.3789 19.5781 36.3867 19.8438 36.4023 20.1406C36.418 20.4375 36.4414 20.7344 36.4727 21.0312C36.5039 21.3281 36.5508 21.6016 36.6133 21.8516C36.6758 22.1016 36.7461 22.2969 36.8242 22.4375C36.5586 22.5938 36.3164 22.7109 36.0977 22.7891C35.8945 22.8672 35.7148 22.9219 35.5586 22.9531C35.3867 23 35.2227 23.0234 35.0664 23.0234C34.8633 23.0234 34.7305 22.9375 34.668 22.7656C34.6055 22.5938 34.5742 22.2891 34.5742 21.8516C34.5742 21.5703 34.582 21.1641 34.5977 20.6328C34.6289 20.1172 34.6602 19.5234 34.6914 18.8516C34.7383 18.1797 34.7773 17.4766 34.8086 16.7422C34.8555 15.9922 34.8945 15.2578 34.9258 14.5391C34.9727 13.8203 35.0039 13.1562 35.0195 12.5469C35.0508 11.9219 35.0664 11.3984 35.0664 10.9766C35.0664 10.4609 35.0586 10.0625 35.043 9.78125C35.0273 9.48438 35.0039 9.26562 34.9727 9.125C34.957 8.96875 34.9336 8.85938 34.9023 8.79688C34.8711 8.73438 34.832 8.66406 34.7852 8.58594C34.9258 8.47656 35.0898 8.38281 35.2773 8.30469C35.4805 8.21094 35.6758 8.14844 35.8633 8.11719C36.0664 8.07031 36.2461 8.05469 36.4023 8.07031C36.5742 8.08594 36.707 8.125 36.8008 8.1875C36.8789 8.26562 36.9336 8.38281 36.9648 8.53906C37.0117 8.69531 37.0508 8.92969 37.082 9.24219C37.3789 8.83594 37.7148 8.48438 38.0898 8.1875C38.4805 7.875 38.9258 7.71875 39.4258 7.71875ZM38.5117 16.0859C38.793 16.0859 39.0586 15.9531 39.3086 15.6875C39.5742 15.4219 39.8008 15.0859 39.9883 14.6797C40.1914 14.2578 40.3477 13.7969 40.457 13.2969C40.582 12.7812 40.6445 12.2734 40.6445 11.7734C40.6445 11.2266 40.5898 10.7812 40.4805 10.4375C40.3867 10.0781 40.2617 9.79688 40.1055 9.59375C39.9648 9.375 39.8086 9.22656 39.6367 9.14844C39.4805 9.05469 39.3398 9.00781 39.2148 9.00781C38.918 9.00781 38.6367 9.13281 38.3711 9.38281C38.1055 9.61719 37.8711 9.92969 37.668 10.3203C37.4648 10.6953 37.3008 11.1172 37.1758 11.5859C37.0664 12.0547 37.0117 12.5234 37.0117 12.9922C37.0117 13.4297 37.0508 13.8359 37.1289 14.2109C37.2227 14.5859 37.3398 14.9141 37.4805 15.1953C37.6211 15.4766 37.7773 15.6953 37.9492 15.8516C38.1367 16.0078 38.3242 16.0859 38.5117 16.0859ZM46.8789 1.8125C46.8477 2.375 46.793 3.02344 46.7148 3.75781C46.6367 4.49219 46.5508 5.28125 46.457 6.125C46.3789 6.96875 46.293 7.85156 46.1992 8.77344C46.1211 9.69531 46.0508 10.625 45.9883 11.5625C45.9258 12.5 45.8945 13.2656 45.8945 13.8594C45.9102 14.4375 45.9492 14.9141 46.0117 15.2891C46.0742 15.6641 46.1602 15.9609 46.2695 16.1797C46.3789 16.3984 46.5195 16.6094 46.6914 16.8125C46.4883 16.9375 46.3008 17.0312 46.1289 17.0938C45.957 17.1562 45.8086 17.2031 45.6836 17.2344C45.5273 17.2812 45.3867 17.3047 45.2617 17.3047C45.0273 17.3047 44.8242 17.1953 44.6523 16.9766C44.4805 16.7422 44.3398 16.4453 44.2305 16.0859C44.1367 15.7266 44.0586 15.3281 43.9961 14.8906C43.9492 14.4375 43.9258 13.9922 43.9258 13.5547C43.9258 13.0859 43.9414 12.5469 43.9727 11.9375C44.0039 11.3125 44.0352 10.6562 44.0664 9.96875C44.1133 9.26562 44.1602 8.53906 44.207 7.78906C44.2539 7.02344 44.293 6.26562 44.3242 5.51562C44.3555 4.9375 44.3867 4.41406 44.418 3.94531C44.4492 3.53906 44.4727 3.17188 44.4883 2.84375C44.5039 2.5 44.4961 2.29687 44.4648 2.23438C44.5586 2.10937 44.6758 2.01562 44.8164 1.95312C44.957 1.89063 45.0898 1.83594 45.2148 1.78906C45.3711 1.74219 45.5273 1.70313 45.6836 1.67188H46.1289C46.2539 1.67188 46.3867 1.6875 46.5273 1.71875C46.668 1.73437 46.7852 1.76562 46.8789 1.8125ZM51.1211 17.2578C50.0273 17.2578 49.1836 16.8906 48.5898 16.1562C47.9961 15.4219 47.6992 14.4609 47.6992 13.2734C47.6992 12.4453 47.8164 11.6719 48.0508 10.9531C48.3008 10.2188 48.6289 9.58594 49.0352 9.05469C49.4414 8.52344 49.9102 8.10938 50.4414 7.8125C50.9883 7.5 51.5586 7.34375 52.1523 7.34375C52.7305 7.34375 53.2227 7.55469 53.6289 7.97656C54.0352 8.38281 54.2383 8.96875 54.2383 9.73438C54.2383 10.2344 54.1289 10.7344 53.9102 11.2344C53.6914 11.7188 53.4023 12.1562 53.043 12.5469C52.6992 12.9219 52.3164 13.2266 51.8945 13.4609C51.4727 13.6953 51.0664 13.8125 50.6758 13.8125C50.4258 13.8125 50.2148 13.7812 50.043 13.7188C49.8711 13.6562 49.7148 13.5625 49.5742 13.4375C49.6211 14.3281 49.8164 14.9531 50.1602 15.3125C50.5039 15.6562 50.9492 15.8281 51.4961 15.8281C51.8711 15.8281 52.1992 15.75 52.4805 15.5938C52.7773 15.4375 53.0273 15.2578 53.2305 15.0547C53.4336 14.8516 53.5977 14.6484 53.7227 14.4453C53.8477 14.2266 53.9336 14.0625 53.9805 13.9531C54.0273 13.8594 54.1055 13.8125 54.2148 13.8125C54.3398 13.8125 54.4023 13.9062 54.4023 14.0938C54.4023 14.2656 54.3398 14.5312 54.2148 14.8906C54.1055 15.2344 53.918 15.5859 53.6523 15.9453C53.3867 16.2891 53.043 16.5938 52.6211 16.8594C52.2148 17.125 51.7148 17.2578 51.1211 17.2578ZM52.1992 8.35156C52.1055 8.35156 51.9258 8.45312 51.6602 8.65625C51.4102 8.84375 51.1367 9.125 50.8398 9.5C50.5586 9.875 50.293 10.3281 50.043 10.8594C49.8086 11.375 49.6602 11.9609 49.5977 12.6172C50.5352 12.3984 51.2773 12.0547 51.8242 11.5859C52.3711 11.1172 52.6445 10.4297 52.6445 9.52344C52.6445 9.07031 52.5898 8.76562 52.4805 8.60938C52.3711 8.4375 52.2773 8.35156 52.1992 8.35156ZM64.5742 6.57031C64.4023 6.53906 64.168 6.50781 63.8711 6.47656C63.5898 6.44531 63.3008 6.42188 63.0039 6.40625C62.6602 6.39062 62.293 6.38281 61.9023 6.38281C61.5117 6.35156 61.0195 6.35156 60.4258 6.38281C59.8477 6.39844 59.2383 6.40625 58.5977 6.40625C58.582 6.8125 58.5508 7.22656 58.5039 7.64844C58.4727 8.07031 58.4414 8.48438 58.4102 8.89062C58.332 9.64062 58.2617 10.4062 58.1992 11.1875C58.1523 11.9688 58.1289 12.7109 58.1289 13.4141C58.1289 14.1172 58.168 14.7578 58.2461 15.3359C58.3398 15.8984 58.5039 16.3438 58.7383 16.6719C58.5508 16.8125 58.3477 16.9219 58.1289 17C57.9102 17.0625 57.7148 17.1094 57.543 17.1406C57.3398 17.1875 57.1367 17.2109 56.9336 17.2109C56.7461 17.2109 56.5898 17.1484 56.4648 17.0234C56.3398 16.8984 56.2695 16.6797 56.2539 16.3672C56.2227 15.8359 56.2148 15.3047 56.2305 14.7734C56.2617 14.2266 56.293 13.6562 56.3242 13.0625C56.3711 12.4688 56.418 11.8359 56.4648 11.1641C56.5117 10.4766 56.5586 9.72656 56.6055 8.91406C56.6523 8.07031 56.6758 7.25 56.6758 6.45312C56.082 6.46875 55.582 6.47656 55.1758 6.47656C54.7695 6.47656 54.543 6.46875 54.4961 6.45312C54.4492 6.42188 54.3945 6.35156 54.332 6.24219C54.2695 6.14844 54.1914 6.00781 54.0977 5.82031C53.9883 5.63281 53.8555 5.36719 53.6992 5.02344C53.9961 5.02344 54.3242 5.02344 54.6836 5.02344C55.0273 5.02344 55.3477 5.01562 55.6445 5C55.9883 4.98438 56.332 4.96875 56.6758 4.95312C56.6602 4.70312 56.6523 4.4375 56.6523 4.15625C56.6367 3.9375 56.6289 3.69531 56.6289 3.42969C56.6289 3.14844 56.6211 2.89062 56.6055 2.65625C56.6055 2.5625 56.7148 2.45313 56.9336 2.32812C57.168 2.1875 57.418 2.0625 57.6836 1.95312C57.9492 1.84375 58.1914 1.77344 58.4102 1.74219C58.6445 1.71094 58.7617 1.76562 58.7617 1.90625C58.7617 2.04688 58.7539 2.39062 58.7383 2.9375C58.7383 3.46875 58.7227 4.11719 58.6914 4.88281C58.8477 4.88281 58.9648 4.875 59.043 4.85938C59.8711 4.82812 60.5352 4.79688 61.0352 4.76562C61.5508 4.71875 61.9727 4.71094 62.3008 4.74219C62.6289 4.77344 62.918 4.85156 63.168 4.97656C63.418 5.10156 63.6992 5.30469 64.0117 5.58594C64.1211 5.67969 64.2148 5.78125 64.293 5.89062C64.3711 5.98438 64.4336 6.09375 64.4805 6.21875C64.543 6.32812 64.5742 6.44531 64.5742 6.57031ZM63.7773 17.2578C62.6836 17.2578 61.8398 16.8906 61.2461 16.1562C60.6523 15.4219 60.3555 14.4609 60.3555 13.2734C60.3555 12.4453 60.4727 11.6719 60.707 10.9531C60.957 10.2188 61.2852 9.58594 61.6914 9.05469C62.0977 8.52344 62.5664 8.10938 63.0977 7.8125C63.6445 7.5 64.2148 7.34375 64.8086 7.34375C65.3867 7.34375 65.8789 7.55469 66.2852 7.97656C66.6914 8.38281 66.8945 8.96875 66.8945 9.73438C66.8945 10.2344 66.7852 10.7344 66.5664 11.2344C66.3477 11.7188 66.0586 12.1562 65.6992 12.5469C65.3555 12.9219 64.9727 13.2266 64.5508 13.4609C64.1289 13.6953 63.7227 13.8125 63.332 13.8125C63.082 13.8125 62.8711 13.7812 62.6992 13.7188C62.5273 13.6562 62.3711 13.5625 62.2305 13.4375C62.2773 14.3281 62.4727 14.9531 62.8164 15.3125C63.1602 15.6562 63.6055 15.8281 64.1523 15.8281C64.5273 15.8281 64.8555 15.75 65.1367 15.5938C65.4336 15.4375 65.6836 15.2578 65.8867 15.0547C66.0898 14.8516 66.2539 14.6484 66.3789 14.4453C66.5039 14.2266 66.5898 14.0625 66.6367 13.9531C66.6836 13.8594 66.7617 13.8125 66.8711 13.8125C66.9961 13.8125 67.0586 13.9062 67.0586 14.0938C67.0586 14.2656 66.9961 14.5312 66.8711 14.8906C66.7617 15.2344 66.5742 15.5859 66.3086 15.9453C66.043 16.2891 65.6992 16.5938 65.2773 16.8594C64.8711 17.125 64.3711 17.2578 63.7773 17.2578ZM64.8555 8.35156C64.7617 8.35156 64.582 8.45312 64.3164 8.65625C64.0664 8.84375 63.793 9.125 63.4961 9.5C63.2148 9.875 62.9492 10.3281 62.6992 10.8594C62.4648 11.375 62.3164 11.9609 62.2539 12.6172C63.1914 12.3984 63.9336 12.0547 64.4805 11.5859C65.0273 11.1172 65.3008 10.4297 65.3008 9.52344C65.3008 9.07031 65.2461 8.76562 65.1367 8.60938C65.0273 8.4375 64.9336 8.35156 64.8555 8.35156ZM82.2695 6.57031C82.0977 6.53906 81.8633 6.50781 81.5664 6.47656C81.2852 6.44531 80.9961 6.42188 80.6992 6.40625C80.3555 6.39062 79.9883 6.38281 79.5977 6.38281C79.207 6.35156 78.7148 6.35156 78.1211 6.38281C77.543 6.39844 76.9336 6.40625 76.293 6.40625C76.2773 6.8125 76.2461 7.22656 76.1992 7.64844C76.168 8.07031 76.1367 8.48438 76.1055 8.89062C76.0273 9.64062 75.957 10.4062 75.8945 11.1875C75.8477 11.9688 75.8242 12.7109 75.8242 13.4141C75.8242 14.1172 75.8633 14.7578 75.9414 15.3359C76.0352 15.8984 76.1992 16.3438 76.4336 16.6719C76.2461 16.8125 76.043 16.9219 75.8242 17C75.6055 17.0625 75.4102 17.1094 75.2383 17.1406C75.0352 17.1875 74.832 17.2109 74.6289 17.2109C74.4414 17.2109 74.2852 17.1484 74.1602 17.0234C74.0352 16.8984 73.9648 16.6797 73.9492 16.3672C73.918 15.8359 73.9102 15.3047 73.9258 14.7734C73.957 14.2266 73.9883 13.6562 74.0195 13.0625C74.0664 12.4688 74.1133 11.8359 74.1602 11.1641C74.207 10.4766 74.2539 9.72656 74.3008 8.91406C74.3477 8.07031 74.3711 7.25 74.3711 6.45312C73.7773 6.46875 73.2773 6.47656 72.8711 6.47656C72.4648 6.47656 72.2383 6.46875 72.1914 6.45312C72.1445 6.42188 72.0898 6.35156 72.0273 6.24219C71.9648 6.14844 71.8867 6.00781 71.793 5.82031C71.6836 5.63281 71.5508 5.36719 71.3945 5.02344C71.6914 5.02344 72.0195 5.02344 72.3789 5.02344C72.7227 5.02344 73.043 5.01562 73.3398 5C73.6836 4.98438 74.0273 4.96875 74.3711 4.95312C74.3555 4.70312 74.3477 4.4375 74.3477 4.15625C74.332 3.9375 74.3242 3.69531 74.3242 3.42969C74.3242 3.14844 74.3164 2.89062 74.3008 2.65625C74.3008 2.5625 74.4102 2.45313 74.6289 2.32812C74.8633 2.1875 75.1133 2.0625 75.3789 1.95312C75.6445 1.84375 75.8867 1.77344 76.1055 1.74219C76.3398 1.71094 76.457 1.76562 76.457 1.90625C76.457 2.04688 76.4492 2.39062 76.4336 2.9375C76.4336 3.46875 76.418 4.11719 76.3867 4.88281C76.543 4.88281 76.6602 4.875 76.7383 4.85938C77.5664 4.82812 78.2305 4.79688 78.7305 4.76562C79.2461 4.71875 79.668 4.71094 79.9961 4.74219C80.3242 4.77344 80.6133 4.85156 80.8633 4.97656C81.1133 5.10156 81.3945 5.30469 81.707 5.58594C81.8164 5.67969 81.9102 5.78125 81.9883 5.89062C82.0664 5.98438 82.1289 6.09375 82.1758 6.21875C82.2383 6.32812 82.2695 6.44531 82.2695 6.57031ZM80.3008 13.3203C80.4883 12.7578 80.6445 12.2812 80.7695 11.8906C80.9102 11.5 81.0273 11.1875 81.1211 10.9531C81.2305 10.6719 81.3242 10.4453 81.4023 10.2734C81.4961 10.0234 81.5977 9.77344 81.707 9.52344C81.832 9.27344 81.957 9.04688 82.082 8.84375C82.207 8.625 82.3242 8.44531 82.4336 8.30469C82.543 8.16406 82.6367 8.07031 82.7148 8.02344C82.7773 7.99219 82.918 7.99219 83.1367 8.02344C83.3711 8.05469 83.6211 8.13281 83.8867 8.25781C84.168 8.36719 84.4258 8.52344 84.6602 8.72656C84.9102 8.92969 85.082 9.17969 85.1758 9.47656C85.2695 9.83594 85.3008 10.3047 85.2695 10.8828C85.2383 11.4609 85.1914 12.0547 85.1289 12.6641C85.082 13.2734 85.043 13.8516 85.0117 14.3984C84.9961 14.9453 85.0352 15.3594 85.1289 15.6406C85.1914 15.7969 85.2539 15.9531 85.3164 16.1094C85.3789 16.2344 85.4492 16.3672 85.5273 16.5078C85.6211 16.6328 85.7227 16.7422 85.832 16.8359C85.3789 17.0078 85.0117 17.1328 84.7305 17.2109C84.4648 17.3047 84.2617 17.3672 84.1211 17.3984C83.9492 17.4453 83.832 17.4531 83.7695 17.4219C83.6445 17.375 83.5273 17.2578 83.418 17.0703C83.3086 16.8828 83.2148 16.5859 83.1367 16.1797C83.1055 16.0547 83.0977 15.8359 83.1133 15.5234C83.1289 15.2109 83.1523 14.8594 83.1836 14.4688C83.2148 14.0781 83.2461 13.6719 83.2773 13.25C83.3086 12.8125 83.3398 12.4062 83.3711 12.0312C83.4023 11.6562 83.418 11.3281 83.418 11.0469C83.4336 10.7656 83.4336 10.5781 83.418 10.4844C83.3398 10.2188 83.2305 10.0312 83.0898 9.92188C82.9492 9.79688 82.8398 9.78125 82.7617 9.875C82.5742 10.1094 82.3633 10.5156 82.1289 11.0938C81.9102 11.6562 81.6992 12.2734 81.4961 12.9453C81.293 13.6016 81.1133 14.2578 80.957 14.9141C80.8164 15.5703 80.7305 16.1094 80.6992 16.5312C80.6992 16.625 80.6211 16.7266 80.4648 16.8359C80.3242 16.9297 80.1602 17.0156 79.9727 17.0938C79.8008 17.1719 79.6289 17.2188 79.457 17.2344C79.2852 17.2656 79.168 17.2422 79.1055 17.1641C79.0586 17.1172 78.957 17.0078 78.8008 16.8359C78.6602 16.6641 78.582 16.375 78.5664 15.9688C78.5352 15.5781 78.5352 15.0469 78.5664 14.375C78.5977 13.6875 78.6055 12.9688 78.5898 12.2188V10.4844C78.5898 9.78125 78.582 8.8125 78.5664 7.57812C78.5664 6.32812 78.5586 4.67969 78.543 2.63281C78.7148 2.53906 78.8711 2.46094 79.0117 2.39844C79.1523 2.32031 79.2852 2.25781 79.4102 2.21094C79.5508 2.14844 79.6836 2.10156 79.8086 2.07031C80.4805 1.89844 80.832 1.89844 80.8633 2.07031C80.8789 2.22656 80.8633 2.72656 80.8164 3.57031C80.8008 3.92969 80.7773 4.38281 80.7461 4.92969C80.7148 5.47656 80.6758 6.14062 80.6289 6.92188C80.5977 7.70312 80.5508 8.625 80.4883 9.6875C80.4414 10.7344 80.3789 11.9453 80.3008 13.3203ZM90.0977 17.2578C89.0039 17.2578 88.1602 16.8906 87.5664 16.1562C86.9727 15.4219 86.6758 14.4609 86.6758 13.2734C86.6758 12.4453 86.793 11.6719 87.0273 10.9531C87.2773 10.2188 87.6055 9.58594 88.0117 9.05469C88.418 8.52344 88.8867 8.10938 89.418 7.8125C89.9648 7.5 90.5352 7.34375 91.1289 7.34375C91.707 7.34375 92.1992 7.55469 92.6055 7.97656C93.0117 8.38281 93.2148 8.96875 93.2148 9.73438C93.2148 10.2344 93.1055 10.7344 92.8867 11.2344C92.668 11.7188 92.3789 12.1562 92.0195 12.5469C91.6758 12.9219 91.293 13.2266 90.8711 13.4609C90.4492 13.6953 90.043 13.8125 89.6523 13.8125C89.4023 13.8125 89.1914 13.7812 89.0195 13.7188C88.8477 13.6562 88.6914 13.5625 88.5508 13.4375C88.5977 14.3281 88.793 14.9531 89.1367 15.3125C89.4805 15.6562 89.9258 15.8281 90.4727 15.8281C90.8477 15.8281 91.1758 15.75 91.457 15.5938C91.7539 15.4375 92.0039 15.2578 92.207 15.0547C92.4102 14.8516 92.5742 14.6484 92.6992 14.4453C92.8242 14.2266 92.9102 14.0625 92.957 13.9531C93.0039 13.8594 93.082 13.8125 93.1914 13.8125C93.3164 13.8125 93.3789 13.9062 93.3789 14.0938C93.3789 14.2656 93.3164 14.5312 93.1914 14.8906C93.082 15.2344 92.8945 15.5859 92.6289 15.9453C92.3633 16.2891 92.0195 16.5938 91.5977 16.8594C91.1914 17.125 90.6914 17.2578 90.0977 17.2578ZM91.1758 8.35156C91.082 8.35156 90.9023 8.45312 90.6367 8.65625C90.3867 8.84375 90.1133 9.125 89.8164 9.5C89.5352 9.875 89.2695 10.3281 89.0195 10.8594C88.7852 11.375 88.6367 11.9609 88.5742 12.6172C89.5117 12.3984 90.2539 12.0547 90.8008 11.5859C91.3477 11.1172 91.6211 10.4297 91.6211 9.52344C91.6211 9.07031 91.5664 8.76562 91.457 8.60938C91.3477 8.4375 91.2539 8.35156 91.1758 8.35156ZM6.10938 44.7344C5.84375 45.1875 5.48438 45.5781 5.03125 45.9062C4.59375 46.2344 4.03125 46.3984 3.34375 46.3984C2.92188 46.3984 2.52344 46.2969 2.14844 46.0938C1.78906 45.8906 1.47656 45.6094 1.21094 45.25C0.945312 44.8906 0.734375 44.4609 0.578125 43.9609C0.4375 43.4609 0.367188 42.9141 0.367188 42.3203C0.367188 41.4453 0.484375 40.6641 0.71875 39.9766C0.96875 39.2891 1.28906 38.7109 1.67969 38.2422C2.08594 37.7734 2.53125 37.4141 3.01562 37.1641C3.51562 36.9141 4.01562 36.7891 4.51562 36.7891C4.76562 36.7891 4.99219 36.8359 5.19531 36.9297C5.39844 37.0234 5.57812 37.1484 5.73438 37.3047C5.89062 37.4453 6.02344 37.6016 6.13281 37.7734C6.25781 37.9453 6.36719 38.1016 6.46094 38.2422C6.46094 37.8828 6.45312 37.5625 6.4375 37.2812C6.42188 36.9844 6.39062 36.75 6.34375 36.5781C6.5625 36.6406 6.75 36.7031 6.90625 36.7656C7.07812 36.8281 7.21875 36.8906 7.32812 36.9531C7.45312 37.0156 7.5625 37.0859 7.65625 37.1641C7.875 37.3672 8.00781 37.5781 8.05469 37.7969C8.10156 38.0156 8.09375 38.3281 8.03125 38.7344C8 38.9375 7.96094 39.3125 7.91406 39.8594C7.86719 40.4062 7.82031 41.0078 7.77344 41.6641C7.72656 42.3203 7.67969 42.9844 7.63281 43.6562C7.60156 44.3281 7.57812 44.8906 7.5625 45.3438C7.53125 45.9062 7.52344 46.4844 7.53906 47.0781C7.55469 47.6719 7.57812 48.2422 7.60938 48.7891C7.65625 49.3359 7.71094 49.8516 7.77344 50.3359C7.85156 50.8359 7.9375 51.2734 8.03125 51.6484C7.9375 51.7734 7.8125 51.8594 7.65625 51.9062C7.51562 51.9688 7.375 52.0078 7.23438 52.0234C7.0625 52.0547 6.89844 52.0547 6.74219 52.0234C6.28906 51.9766 6.00781 51.8125 5.89844 51.5312C5.78906 51.2656 5.73438 50.9062 5.73438 50.4531C5.73438 50.2969 5.74219 50.0234 5.75781 49.6328C5.78906 49.2422 5.82031 48.7812 5.85156 48.25C5.89844 47.7344 5.9375 47.1719 5.96875 46.5625C6.01562 45.9531 6.0625 45.3438 6.10938 44.7344ZM3.95312 45.1328C4.14062 45.1328 4.36719 45.0469 4.63281 44.875C4.89844 44.6875 5.14844 44.4297 5.38281 44.1016C5.61719 43.7734 5.82031 43.3828 5.99219 42.9297C6.16406 42.4609 6.25 41.9453 6.25 41.3828C6.25 40.7734 6.1875 40.25 6.0625 39.8125C5.9375 39.3594 5.78125 38.9922 5.59375 38.7109C5.40625 38.4297 5.21094 38.2266 5.00781 38.1016C4.80469 37.9609 4.625 37.8906 4.46875 37.8906C4.10938 37.8906 3.79688 38 3.53125 38.2188C3.28125 38.4375 3.07031 38.7266 2.89844 39.0859C2.74219 39.4297 2.61719 39.8281 2.52344 40.2812C2.44531 40.7344 2.39844 41.1953 2.38281 41.6641C2.38281 42.1016 2.41406 42.5312 2.47656 42.9531C2.55469 43.3594 2.66406 43.7266 2.80469 44.0547C2.94531 44.3828 3.10938 44.6484 3.29688 44.8516C3.5 45.0391 3.71875 45.1328 3.95312 45.1328ZM14.875 37.2812C14.875 37.1094 14.9766 36.9844 15.1797 36.9062C15.3984 36.8125 15.625 36.7656 15.8594 36.7656C16.1094 36.7656 16.3359 36.8125 16.5391 36.9062C16.7422 36.9844 16.8359 37.0938 16.8203 37.2344C16.8047 37.3438 16.7891 37.5625 16.7734 37.8906C16.7578 38.2031 16.7344 38.5781 16.7031 39.0156C16.6875 39.4531 16.6641 39.9219 16.6328 40.4219C16.6016 40.9219 16.5703 41.4141 16.5391 41.8984C16.5234 42.3672 16.5078 42.8047 16.4922 43.2109C16.4922 43.6172 16.4922 43.9297 16.4922 44.1484C16.4922 44.4297 16.5078 44.6875 16.5391 44.9219C16.5703 45.125 16.6094 45.3281 16.6562 45.5312C16.7031 45.7188 16.7734 45.8516 16.8672 45.9297C16.7422 45.9766 16.6094 46.0078 16.4688 46.0234C16.3438 46.0391 16.2266 46.0547 16.1172 46.0703C15.9922 46.0859 15.8672 46.0938 15.7422 46.0938C15.4766 46.0938 15.25 46.0391 15.0625 45.9297C14.8906 45.8203 14.8047 45.5938 14.8047 45.25C14.8047 45.0781 14.8125 44.8281 14.8281 44.5C14.8594 44.1719 14.8906 43.8203 14.9219 43.4453C14.8125 43.7734 14.6797 44.1094 14.5234 44.4531C14.3672 44.7969 14.1719 45.1016 13.9375 45.3672C13.7188 45.6328 13.4688 45.8516 13.1875 46.0234C12.9062 46.1953 12.5859 46.2812 12.2266 46.2812C11.8203 46.2812 11.4453 46.1953 11.1016 46.0234C10.7734 45.8516 10.4844 45.6094 10.2344 45.2969C9.98438 44.9688 9.79688 44.5703 9.67188 44.1016C9.54688 43.6328 9.5 43.0938 9.53125 42.4844C9.53125 42.0156 9.53906 41.5156 9.55469 40.9844C9.57031 40.5312 9.59375 40.0078 9.625 39.4141C9.65625 38.8203 9.71094 38.2031 9.78906 37.5625C9.80469 37.5 9.91406 37.4219 10.1172 37.3281C10.3203 37.2344 10.5469 37.1562 10.7969 37.0938C11.0469 37.0312 11.2891 37.0078 11.5234 37.0234C11.7578 37.0391 11.9297 37.1328 12.0391 37.3047C11.9609 37.5859 11.8828 37.9219 11.8047 38.3125C11.7266 38.6875 11.6562 39.0781 11.5938 39.4844C11.5312 39.8906 11.4844 40.2891 11.4531 40.6797C11.4219 41.0703 11.4062 41.4297 11.4062 41.7578C11.4062 42.0547 11.4219 42.3828 11.4531 42.7422C11.4844 43.0859 11.5391 43.4141 11.6172 43.7266C11.7109 44.0234 11.8359 44.2734 11.9922 44.4766C12.1641 44.6797 12.3828 44.7812 12.6484 44.7812C12.9453 44.7812 13.2031 44.6562 13.4219 44.4062C13.6562 44.1406 13.8516 43.8047 14.0078 43.3984C14.1641 42.9922 14.2969 42.5312 14.4062 42.0156C14.5156 41.4844 14.6016 40.9609 14.6641 40.4453C14.7422 39.9297 14.7891 39.4375 14.8047 38.9688C14.8359 38.4844 14.8594 38.0781 14.875 37.75V37.2812ZM21.6016 46.2578C20.5078 46.2578 19.6641 45.8906 19.0703 45.1562C18.4766 44.4219 18.1797 43.4609 18.1797 42.2734C18.1797 41.4453 18.2969 40.6719 18.5312 39.9531C18.7812 39.2188 19.1094 38.5859 19.5156 38.0547C19.9219 37.5234 20.3906 37.1094 20.9219 36.8125C21.4688 36.5 22.0391 36.3438 22.6328 36.3438C23.2109 36.3438 23.7031 36.5547 24.1094 36.9766C24.5156 37.3828 24.7188 37.9688 24.7188 38.7344C24.7188 39.2344 24.6094 39.7344 24.3906 40.2344C24.1719 40.7188 23.8828 41.1562 23.5234 41.5469C23.1797 41.9219 22.7969 42.2266 22.375 42.4609C21.9531 42.6953 21.5469 42.8125 21.1562 42.8125C20.9062 42.8125 20.6953 42.7812 20.5234 42.7188C20.3516 42.6562 20.1953 42.5625 20.0547 42.4375C20.1016 43.3281 20.2969 43.9531 20.6406 44.3125C20.9844 44.6562 21.4297 44.8281 21.9766 44.8281C22.3516 44.8281 22.6797 44.75 22.9609 44.5938C23.2578 44.4375 23.5078 44.2578 23.7109 44.0547C23.9141 43.8516 24.0781 43.6484 24.2031 43.4453C24.3281 43.2266 24.4141 43.0625 24.4609 42.9531C24.5078 42.8594 24.5859 42.8125 24.6953 42.8125C24.8203 42.8125 24.8828 42.9062 24.8828 43.0938C24.8828 43.2656 24.8203 43.5312 24.6953 43.8906C24.5859 44.2344 24.3984 44.5859 24.1328 44.9453C23.8672 45.2891 23.5234 45.5938 23.1016 45.8594C22.6953 46.125 22.1953 46.2578 21.6016 46.2578ZM22.6797 37.3516C22.5859 37.3516 22.4062 37.4531 22.1406 37.6562C21.8906 37.8438 21.6172 38.125 21.3203 38.5C21.0391 38.875 20.7734 39.3281 20.5234 39.8594C20.2891 40.375 20.1406 40.9609 20.0781 41.6172C21.0156 41.3984 21.7578 41.0547 22.3047 40.5859C22.8516 40.1172 23.125 39.4297 23.125 38.5234C23.125 38.0703 23.0703 37.7656 22.9609 37.6094C22.8516 37.4375 22.7578 37.3516 22.6797 37.3516ZM29.9453 41.5469C30.2891 41.6719 30.6172 41.7891 30.9297 41.8984C31.2422 42.0078 31.5156 42.1406 31.75 42.2969C31.9844 42.4531 32.1719 42.6406 32.3125 42.8594C32.4531 43.0625 32.5234 43.3203 32.5234 43.6328C32.5234 44.0078 32.4375 44.3594 32.2656 44.6875C32.1094 45.0156 31.875 45.3047 31.5625 45.5547C31.25 45.8047 30.8672 46 30.4141 46.1406C29.9766 46.2969 29.4844 46.375 28.9375 46.375C28.3281 46.375 27.8359 46.3125 27.4609 46.1875C27.0859 46.0781 26.7969 45.9453 26.5938 45.7891C26.3906 45.6328 26.2578 45.4766 26.1953 45.3203C26.1328 45.1641 26.1016 45.0391 26.1016 44.9453C26.1016 44.7578 26.1406 44.5547 26.2188 44.3359C26.2969 44.1016 26.4453 43.8516 26.6641 43.5859C26.7578 43.4766 26.8594 43.375 26.9688 43.2812C27.1875 43.0938 27.4062 42.9766 27.625 42.9297C27.5938 43.2891 27.6328 43.5859 27.7422 43.8203C27.8672 44.0391 28.0234 44.2109 28.2109 44.3359C28.4141 44.4609 28.6328 44.5469 28.8672 44.5938C29.1172 44.6406 29.3516 44.6641 29.5703 44.6641C29.7891 44.6641 30.0078 44.6328 30.2266 44.5703C30.4609 44.5078 30.6719 44.4297 30.8594 44.3359C31.0469 44.2266 31.1953 44.1094 31.3047 43.9844C31.4297 43.8438 31.4922 43.6953 31.4922 43.5391C31.4922 43.3672 31.4219 43.2266 31.2812 43.1172C31.1406 43.0078 30.9609 42.9219 30.7422 42.8594C30.5391 42.7812 30.3125 42.7266 30.0625 42.6953C29.8281 42.6484 29.6016 42.6016 29.3828 42.5547C29.1641 42.5078 28.8672 42.4453 28.4922 42.3672C28.1328 42.2734 27.7734 42.1328 27.4141 41.9453C27.0703 41.7578 26.7656 41.5078 26.5 41.1953C26.25 40.8828 26.125 40.4688 26.125 39.9531C26.125 39.3594 26.2734 38.8438 26.5703 38.4062C26.8828 37.9531 27.2578 37.5781 27.6953 37.2812C28.1484 36.9688 28.625 36.7344 29.125 36.5781C29.625 36.4219 30.0703 36.3438 30.4609 36.3438C30.6641 36.3438 30.8828 36.375 31.1172 36.4375C31.3516 36.4844 31.5703 36.5781 31.7734 36.7188C31.9766 36.8438 32.1406 37.0156 32.2656 37.2344C32.4062 37.4531 32.4766 37.7344 32.4766 38.0781C32.4766 38.4219 32.4453 38.7031 32.3828 38.9219C32.3359 39.125 32.2578 39.2891 32.1484 39.4141C32.0547 39.5234 31.9375 39.5938 31.7969 39.625C31.6562 39.6562 31.4922 39.6719 31.3047 39.6719C31.1797 39.6719 31.0625 39.6562 30.9531 39.625C30.8594 39.5938 30.7578 39.5625 30.6484 39.5312C30.5391 39.5 30.4375 39.4453 30.3438 39.3672C30.5 39.1797 30.6172 39 30.6953 38.8281C30.7891 38.6562 30.8359 38.4453 30.8359 38.1953C30.8359 37.9766 30.7734 37.7812 30.6484 37.6094C30.5391 37.4375 30.3516 37.3516 30.0859 37.3516C29.8047 37.3516 29.5312 37.4062 29.2656 37.5156C29.0156 37.625 28.7891 37.7734 28.5859 37.9609C28.3984 38.1484 28.2422 38.3672 28.1172 38.6172C28.0078 38.8516 27.9531 39.1094 27.9531 39.3906C27.9531 39.8125 28.1094 40.2109 28.4219 40.5859C28.75 40.9609 29.2578 41.2812 29.9453 41.5469ZM42.6953 35.5703C42.5234 35.5391 42.2891 35.5078 41.9922 35.4766C41.7109 35.4453 41.4219 35.4219 41.125 35.4062C40.7812 35.3906 40.4141 35.3828 40.0234 35.3828C39.6328 35.3516 39.1406 35.3516 38.5469 35.3828C37.9688 35.3984 37.3594 35.4062 36.7188 35.4062C36.7031 35.8125 36.6719 36.2266 36.625 36.6484C36.5938 37.0703 36.5625 37.4844 36.5312 37.8906C36.4531 38.6406 36.3828 39.4062 36.3203 40.1875C36.2734 40.9688 36.25 41.7109 36.25 42.4141C36.25 43.1172 36.2891 43.7578 36.3672 44.3359C36.4609 44.8984 36.625 45.3438 36.8594 45.6719C36.6719 45.8125 36.4688 45.9219 36.25 46C36.0312 46.0625 35.8359 46.1094 35.6641 46.1406C35.4609 46.1875 35.2578 46.2109 35.0547 46.2109C34.8672 46.2109 34.7109 46.1484 34.5859 46.0234C34.4609 45.8984 34.3906 45.6797 34.375 45.3672C34.3438 44.8359 34.3359 44.3047 34.3516 43.7734C34.3828 43.2266 34.4141 42.6562 34.4453 42.0625C34.4922 41.4688 34.5391 40.8359 34.5859 40.1641C34.6328 39.4766 34.6797 38.7266 34.7266 37.9141C34.7734 37.0703 34.7969 36.25 34.7969 35.4531C34.2031 35.4688 33.7031 35.4766 33.2969 35.4766C32.8906 35.4766 32.6641 35.4688 32.6172 35.4531C32.5703 35.4219 32.5156 35.3516 32.4531 35.2422C32.3906 35.1484 32.3125 35.0078 32.2188 34.8203C32.1094 34.6328 31.9766 34.3672 31.8203 34.0234C32.1172 34.0234 32.4453 34.0234 32.8047 34.0234C33.1484 34.0234 33.4688 34.0156 33.7656 34C34.1094 33.9844 34.4531 33.9688 34.7969 33.9531C34.7812 33.7031 34.7734 33.4375 34.7734 33.1562C34.7578 32.9375 34.75 32.6953 34.75 32.4297C34.75 32.1484 34.7422 31.8906 34.7266 31.6562C34.7266 31.5625 34.8359 31.4531 35.0547 31.3281C35.2891 31.1875 35.5391 31.0625 35.8047 30.9531C36.0703 30.8438 36.3125 30.7734 36.5312 30.7422C36.7656 30.7109 36.8828 30.7656 36.8828 30.9062C36.8828 31.0469 36.875 31.3906 36.8594 31.9375C36.8594 32.4688 36.8438 33.1172 36.8125 33.8828C36.9688 33.8828 37.0859 33.875 37.1641 33.8594C37.9922 33.8281 38.6562 33.7969 39.1562 33.7656C39.6719 33.7188 40.0938 33.7109 40.4219 33.7422C40.75 33.7734 41.0391 33.8516 41.2891 33.9766C41.5391 34.1016 41.8203 34.3047 42.1328 34.5859C42.2422 34.6797 42.3359 34.7812 42.4141 34.8906C42.4922 34.9844 42.5547 35.0938 42.6016 35.2188C42.6641 35.3281 42.6953 35.4453 42.6953 35.5703ZM38.8984 37.7031C38.8984 37.6094 39.0234 37.5078 39.2734 37.3984C39.5234 37.2891 39.7969 37.2031 40.0938 37.1406C40.4062 37.0625 40.6875 37.0234 40.9375 37.0234C41.2031 37.0078 41.3359 37.0625 41.3359 37.1875C41.3359 37.4219 41.3203 37.7578 41.2891 38.1953C41.2578 38.6172 41.2188 39.0703 41.1719 39.5547C41.125 40.0234 41.0781 40.5 41.0312 40.9844C40.9844 41.4531 40.9531 41.8516 40.9375 42.1797C40.9062 42.5234 40.875 42.8984 40.8438 43.3047C40.8125 43.6484 40.7891 44.0312 40.7734 44.4531C40.7578 44.875 40.7578 45.3047 40.7734 45.7422C40.7734 45.8203 40.6953 45.8984 40.5391 45.9766C40.3828 46.0547 40.2109 46.1094 40.0234 46.1406C39.8359 46.1875 39.6562 46.2109 39.4844 46.2109C39.3125 46.2109 39.2188 46.1797 39.2031 46.1172C39.1719 46.0547 39.1406 45.9453 39.1094 45.7891C39.0781 45.6328 39.0469 45.4141 39.0156 45.1328C38.9844 44.8359 38.9609 44.4609 38.9453 44.0078C38.9297 43.5391 38.9375 42.9766 38.9688 42.3203C39.0312 41.0234 39.0391 40.0234 38.9922 39.3203C38.9453 38.6016 38.9141 38.0625 38.8984 37.7031ZM40.5391 33.0391C40.8516 33.0391 41.1484 33.1328 41.4297 33.3203C41.7109 33.5078 41.8516 33.7578 41.8516 34.0703C41.8516 34.3047 41.7891 34.5312 41.6641 34.75C41.5547 34.9688 41.4141 35.1641 41.2422 35.3359C41.0703 35.5078 40.875 35.6484 40.6562 35.7578C40.4375 35.8516 40.2344 35.8984 40.0469 35.8984C39.7969 35.8984 39.5938 35.8594 39.4375 35.7812C39.2812 35.6875 39.1562 35.5859 39.0625 35.4766C38.9844 35.3516 38.9297 35.2188 38.8984 35.0781C38.8672 34.9375 38.8516 34.8047 38.8516 34.6797C38.8516 34.5234 38.875 34.3516 38.9219 34.1641C38.9688 33.9609 39.0547 33.7812 39.1797 33.625C39.3047 33.4531 39.4766 33.3125 39.6953 33.2031C39.9141 33.0938 40.1953 33.0391 40.5391 33.0391ZM39.9531 35.2188C40.0469 35.2188 40.1484 35.1875 40.2578 35.125C40.3828 35.0469 40.4922 34.9609 40.5859 34.8672C40.6953 34.7734 40.7812 34.6719 40.8438 34.5625C40.9219 34.4531 40.9609 34.3594 40.9609 34.2812C40.9609 34.1562 40.8984 34.0938 40.7734 34.0938C40.6953 34.0938 40.5938 34.125 40.4688 34.1875C40.3594 34.25 40.25 34.3281 40.1406 34.4219C40.0312 34.5 39.9375 34.5938 39.8594 34.7031C39.7969 34.7969 39.7656 34.8906 39.7656 34.9844C39.7656 35.1406 39.8281 35.2188 39.9531 35.2188ZM49.4219 41.9688C49.3906 42.5781 49.2812 43.1406 49.0938 43.6562C48.9219 44.1719 48.6797 44.625 48.3672 45.0156C48.0547 45.3906 47.6797 45.6875 47.2422 45.9062C46.8203 46.125 46.3516 46.2422 45.8359 46.2578C45.3828 46.2734 44.9531 46.1641 44.5469 45.9297C44.1562 45.6953 43.8125 45.3672 43.5156 44.9453C43.2188 44.5234 42.9922 44.0234 42.8359 43.4453C42.6953 42.8516 42.6562 42.2109 42.7188 41.5234C42.7656 40.7266 42.9141 40.0469 43.1641 39.4844C43.4141 38.9062 43.6797 38.4297 43.9609 38.0547C44.2422 37.6797 44.5 37.4062 44.7344 37.2344C44.9844 37.0469 45.1406 36.9375 45.2031 36.9062C45.3125 36.8594 45.4141 36.8516 45.5078 36.8828C45.6016 36.8984 45.7031 36.9219 45.8125 36.9531C45.8438 36.9688 45.875 37.0078 45.9062 37.0703C45.9688 37.1797 46.0078 37.3828 46.0234 37.6797C46.1016 37.5078 46.2031 37.3672 46.3281 37.2578C46.4531 37.1484 46.5781 37.0703 46.7031 37.0234C46.8594 36.9609 47.0156 36.9219 47.1719 36.9062C47.2812 36.8906 47.4688 36.9766 47.7344 37.1641C48.0156 37.3516 48.2812 37.6484 48.5312 38.0547C48.7969 38.4609 49.0234 38.9922 49.2109 39.6484C49.3984 40.2891 49.4688 41.0625 49.4219 41.9688ZM47.8281 41.6875C47.8438 41.3125 47.8281 40.9375 47.7812 40.5625C47.75 40.1719 47.6875 39.8203 47.5938 39.5078C47.5156 39.1797 47.4141 38.9219 47.2891 38.7344C47.1641 38.5312 47.0391 38.4297 46.9141 38.4297C46.7734 38.4609 46.6172 38.5312 46.4453 38.6406C46.3047 38.7344 46.1484 38.8828 45.9766 39.0859C45.8047 39.2891 45.6406 39.5781 45.4844 39.9531C45.4688 39.9062 45.4531 39.8203 45.4375 39.6953C45.4219 39.5859 45.4062 39.4453 45.3906 39.2734C45.3906 39.0859 45.4062 38.8359 45.4375 38.5234C45.2188 38.7891 45.0469 39.1016 44.9219 39.4609C44.8125 39.8203 44.7266 40.1641 44.6641 40.4922C44.6016 40.8828 44.5547 41.2734 44.5234 41.6641C44.5078 42.0859 44.5234 42.5 44.5703 42.9062C44.6328 43.3125 44.7266 43.6719 44.8516 43.9844C44.9922 44.2969 45.1562 44.5469 45.3438 44.7344C45.5312 44.9219 45.7578 45.0078 46.0234 44.9922C46.2891 44.9766 46.5234 44.8672 46.7266 44.6641C46.9297 44.4609 47.1094 44.2031 47.2656 43.8906C47.4219 43.5781 47.5469 43.2266 47.6406 42.8359C47.7344 42.4453 47.7969 42.0625 47.8281 41.6875ZM53.125 45.3672C53.1094 45.4609 53.0234 45.5625 52.8672 45.6719C52.7266 45.7656 52.5547 45.8516 52.3516 45.9297C52.1641 46.0078 51.9844 46.0547 51.8125 46.0703C51.6406 46.1016 51.5234 46.0859 51.4609 46.0234C51.3984 45.9609 51.2969 45.8438 51.1562 45.6719C51.0156 45.5 50.9297 45.2188 50.8984 44.8281C50.8672 44.4219 50.8516 43.9141 50.8516 43.3047C50.8516 42.6797 50.8438 41.9922 50.8281 41.2422V40.3047C50.8281 40.0234 50.8203 39.6953 50.8047 39.3203C50.8047 38.9453 50.7969 38.5547 50.7812 38.1484C50.9219 38.0703 51.0625 38 51.2031 37.9375C51.3594 37.8594 51.5 37.7969 51.625 37.75C51.7656 37.6875 51.8984 37.6406 52.0234 37.6094C52.3516 37.5156 52.6016 37.4609 52.7734 37.4453C52.9453 37.4297 53.0469 37.4844 53.0781 37.6094C53.0938 37.7031 53.0859 37.9297 53.0547 38.2891C53.0234 38.6016 52.9844 39.0781 52.9375 39.7188C52.8906 40.3438 52.8125 41.2188 52.7031 42.3438C52.9062 41.8438 53.0703 41.4141 53.1953 41.0547C53.3359 40.6953 53.4531 40.4062 53.5469 40.1875C53.6406 39.9219 53.7266 39.7109 53.8047 39.5547C53.8828 39.3516 53.9844 39.125 54.1094 38.875C54.2344 38.625 54.3594 38.3906 54.4844 38.1719C54.625 37.9531 54.75 37.7578 54.8594 37.5859C54.9844 37.4141 55.0781 37.3125 55.1406 37.2812C55.1875 37.25 55.3281 37.25 55.5625 37.2812C55.7969 37.3125 56.0469 37.3906 56.3125 37.5156C56.5781 37.625 56.8359 37.7891 57.0859 38.0078C57.3359 38.2109 57.5 38.4609 57.5781 38.7578C57.6719 39.1016 57.7031 39.5547 57.6719 40.1172C57.6562 40.6797 57.6172 41.2578 57.5547 41.8516C57.5078 42.4453 57.4688 43.0078 57.4375 43.5391C57.4062 44.0703 57.4375 44.4766 57.5312 44.7578C57.5625 44.9141 57.6094 45.0547 57.6719 45.1797C57.7031 45.3047 57.7422 45.4219 57.7891 45.5312C57.8516 45.625 57.9141 45.6953 57.9766 45.7422C57.6016 45.9141 57.2969 46.0391 57.0625 46.1172C56.8281 46.1953 56.6484 46.25 56.5234 46.2812C56.3672 46.3281 56.2578 46.3438 56.1953 46.3281C56.0547 46.2812 55.9297 46.1641 55.8203 45.9766C55.7266 45.7891 55.6406 45.4922 55.5625 45.0859C55.5312 44.9609 55.5156 44.7578 55.5156 44.4766C55.5312 44.1797 55.5547 43.8516 55.5859 43.4922C55.6172 43.1172 55.6484 42.7344 55.6797 42.3438C55.7266 41.9375 55.7578 41.5625 55.7734 41.2188C55.8047 40.8594 55.8281 40.5547 55.8438 40.3047C55.8594 40.0391 55.8594 39.8594 55.8438 39.7656C55.7656 39.4844 55.6562 39.2891 55.5156 39.1797C55.375 39.0547 55.2656 39.0391 55.1875 39.1328C54.9844 39.3672 54.7656 39.75 54.5312 40.2812C54.3125 40.7969 54.1016 41.3672 53.8984 41.9922C53.6953 42.6016 53.5234 43.2109 53.3828 43.8203C53.2422 44.4297 53.1562 44.9453 53.125 45.3672ZM61.7734 45.3672C61.7578 45.4609 61.6719 45.5625 61.5156 45.6719C61.375 45.7656 61.2031 45.8516 61 45.9297C60.8125 46.0078 60.6328 46.0547 60.4609 46.0703C60.2891 46.1016 60.1719 46.0859 60.1094 46.0234C60.0469 45.9609 59.9453 45.8438 59.8047 45.6719C59.6641 45.5 59.5781 45.2188 59.5469 44.8281C59.5156 44.4219 59.5 43.9141 59.5 43.3047C59.5 42.6797 59.4922 41.9922 59.4766 41.2422V40.3047C59.4766 40.0234 59.4688 39.6953 59.4531 39.3203C59.4531 38.9453 59.4453 38.5547 59.4297 38.1484C59.5703 38.0703 59.7109 38 59.8516 37.9375C60.0078 37.8594 60.1484 37.7969 60.2734 37.75C60.4141 37.6875 60.5469 37.6406 60.6719 37.6094C61 37.5156 61.25 37.4609 61.4219 37.4453C61.5938 37.4297 61.6953 37.4844 61.7266 37.6094C61.7422 37.7031 61.7344 37.9297 61.7031 38.2891C61.6719 38.6016 61.6328 39.0781 61.5859 39.7188C61.5391 40.3438 61.4609 41.2188 61.3516 42.3438C61.5547 41.8438 61.7188 41.4141 61.8438 41.0547C61.9844 40.6953 62.1016 40.4062 62.1953 40.1875C62.2891 39.9219 62.375 39.7109 62.4531 39.5547C62.5312 39.3516 62.6328 39.125 62.7578 38.875C62.8828 38.625 63.0078 38.3906 63.1328 38.1719C63.2734 37.9531 63.3984 37.7578 63.5078 37.5859C63.6328 37.4141 63.7266 37.3125 63.7891 37.2812C63.8359 37.25 63.9766 37.25 64.2109 37.2812C64.4453 37.3125 64.6953 37.3906 64.9609 37.5156C65.2266 37.625 65.4844 37.7891 65.7344 38.0078C65.9844 38.2109 66.1484 38.4609 66.2266 38.7578C66.3203 39.1016 66.3516 39.5547 66.3203 40.1172C66.3047 40.6797 66.2656 41.2578 66.2031 41.8516C66.1562 42.4453 66.1172 43.0078 66.0859 43.5391C66.0547 44.0703 66.0859 44.4766 66.1797 44.7578C66.2109 44.9141 66.2578 45.0547 66.3203 45.1797C66.3516 45.3047 66.3906 45.4219 66.4375 45.5312C66.5 45.625 66.5625 45.6953 66.625 45.7422C66.25 45.9141 65.9453 46.0391 65.7109 46.1172C65.4766 46.1953 65.2969 46.25 65.1719 46.2812C65.0156 46.3281 64.9062 46.3438 64.8438 46.3281C64.7031 46.2812 64.5781 46.1641 64.4688 45.9766C64.375 45.7891 64.2891 45.4922 64.2109 45.0859C64.1797 44.9609 64.1641 44.7578 64.1641 44.4766C64.1797 44.1797 64.2031 43.8516 64.2344 43.4922C64.2656 43.1172 64.2969 42.7344 64.3281 42.3438C64.375 41.9375 64.4062 41.5625 64.4219 41.2188C64.4531 40.8594 64.4766 40.5547 64.4922 40.3047C64.5078 40.0391 64.5078 39.8594 64.4922 39.7656C64.4141 39.4844 64.3047 39.2891 64.1641 39.1797C64.0234 39.0547 63.9141 39.0391 63.8359 39.1328C63.6328 39.3672 63.4141 39.75 63.1797 40.2812C62.9609 40.7969 62.75 41.3672 62.5469 41.9922C62.3438 42.6016 62.1719 43.2109 62.0312 43.8203C61.8906 44.4297 61.8047 44.9453 61.7734 45.3672ZM74.7578 44.8047C74.7891 44.9141 74.8359 45.0156 74.8984 45.1094C74.9453 45.1875 75.0078 45.2656 75.0859 45.3438C75.1797 45.4062 75.2891 45.4453 75.4141 45.4609C75.3047 45.6797 75.1953 45.8281 75.0859 45.9062C75.0234 45.9531 74.9688 45.9844 74.9219 46C74.7812 46.0469 74.5703 46.0703 74.2891 46.0703C74.0078 46.0703 73.7344 45.9844 73.4688 45.8125C73.375 45.7344 73.2891 45.6172 73.2109 45.4609C73.1328 45.3359 73.0625 45.1641 73 44.9453C72.9531 44.7109 72.9141 44.4141 72.8828 44.0547C72.6641 44.5234 72.4141 44.8984 72.1328 45.1797C71.8672 45.4453 71.6016 45.6406 71.3359 45.7656C71.0391 45.9375 70.7344 46.0391 70.4219 46.0703C70.0312 46.1016 69.6562 46.0391 69.2969 45.8828C68.9531 45.7109 68.6562 45.4609 68.4062 45.1328C68.1719 44.7891 67.9922 44.375 67.8672 43.8906C67.7422 43.4062 67.7031 42.8594 67.75 42.25C67.7969 41.6094 67.9219 41.0391 68.125 40.5391C68.3281 40.0391 68.5703 39.5938 68.8516 39.2031C69.1328 38.8125 69.4297 38.4844 69.7422 38.2188C70.0547 37.9375 70.3516 37.7109 70.6328 37.5391C70.9297 37.3516 71.1797 37.2188 71.3828 37.1406C71.6016 37.0469 71.7422 36.9922 71.8047 36.9766C71.9766 36.9297 72.125 36.9141 72.25 36.9297C72.375 36.9453 72.4844 37.0156 72.5781 37.1406C72.6094 37.1875 72.6484 37.2422 72.6953 37.3047C72.7266 37.3672 72.7656 37.4531 72.8125 37.5625C72.8594 37.6562 72.8984 37.7656 72.9297 37.8906C72.5547 38.0625 72.2031 38.2578 71.875 38.4766C71.5469 38.6797 71.2422 38.9297 70.9609 39.2266C70.6953 39.5234 70.4609 39.8828 70.2578 40.3047C70.0547 40.7266 69.8984 41.2422 69.7891 41.8516C69.6328 42.6172 69.6719 43.2344 69.9062 43.7031C70.1562 44.1719 70.4922 44.3672 70.9141 44.2891C71.1641 44.2109 71.4062 44.0625 71.6406 43.8438C71.8438 43.6562 72.0547 43.375 72.2734 43C72.5078 42.625 72.7266 42.1094 72.9297 41.4531C73.0078 40.5156 73.0703 39.7812 73.1172 39.25C73.1797 38.7031 73.2344 38.2891 73.2812 38.0078C73.3438 37.6797 73.3906 37.4609 73.4219 37.3516C73.4688 37.2734 73.5625 37.2031 73.7031 37.1406C73.8438 37.0625 74 37 74.1719 36.9531C74.3438 36.9062 74.5 36.8828 74.6406 36.8828C74.7812 36.8672 74.875 36.8672 74.9219 36.8828C74.9531 36.8984 74.9688 37.0938 74.9688 37.4688C74.9688 37.8281 74.9531 38.2891 74.9219 38.8516C74.9062 39.3984 74.8828 40 74.8516 40.6562C74.8203 41.2969 74.7891 41.9062 74.7578 42.4844C74.7422 43.0625 74.7266 43.5703 74.7109 44.0078C74.7109 44.4297 74.7266 44.6953 74.7578 44.8047ZM76.9141 37.7031C76.9141 37.6094 77.0391 37.5078 77.2891 37.3984C77.5391 37.2891 77.8125 37.2031 78.1094 37.1406C78.4219 37.0625 78.7031 37.0234 78.9531 37.0234C79.2188 37.0078 79.3516 37.0625 79.3516 37.1875C79.3516 37.4219 79.3359 37.7578 79.3047 38.1953C79.2734 38.6172 79.2344 39.0703 79.1875 39.5547C79.1406 40.0234 79.0938 40.5 79.0469 40.9844C79 41.4531 78.9688 41.8516 78.9531 42.1797C78.9219 42.5234 78.8906 42.8984 78.8594 43.3047C78.8281 43.6484 78.8047 44.0312 78.7891 44.4531C78.7734 44.875 78.7734 45.3047 78.7891 45.7422C78.7891 45.8203 78.7109 45.8984 78.5547 45.9766C78.3984 46.0547 78.2266 46.1094 78.0391 46.1406C77.8516 46.1875 77.6719 46.2109 77.5 46.2109C77.3281 46.2109 77.2344 46.1797 77.2188 46.1172C77.1875 46.0547 77.1562 45.9453 77.125 45.7891C77.0938 45.6328 77.0625 45.4141 77.0312 45.1328C77 44.8359 76.9766 44.4609 76.9609 44.0078C76.9453 43.5391 76.9531 42.9766 76.9844 42.3203C77.0469 41.0234 77.0547 40.0234 77.0078 39.3203C76.9609 38.6016 76.9297 38.0625 76.9141 37.7031ZM78.5547 33.0391C78.8672 33.0391 79.1641 33.1328 79.4453 33.3203C79.7266 33.5078 79.8672 33.7578 79.8672 34.0703C79.8672 34.3047 79.8047 34.5312 79.6797 34.75C79.5703 34.9688 79.4297 35.1641 79.2578 35.3359C79.0859 35.5078 78.8906 35.6484 78.6719 35.7578C78.4531 35.8516 78.25 35.8984 78.0625 35.8984C77.8125 35.8984 77.6094 35.8594 77.4531 35.7812C77.2969 35.6875 77.1719 35.5859 77.0781 35.4766C77 35.3516 76.9453 35.2188 76.9141 35.0781C76.8828 34.9375 76.8672 34.8047 76.8672 34.6797C76.8672 34.5234 76.8906 34.3516 76.9375 34.1641C76.9844 33.9609 77.0703 33.7812 77.1953 33.625C77.3203 33.4531 77.4922 33.3125 77.7109 33.2031C77.9297 33.0938 78.2109 33.0391 78.5547 33.0391ZM77.9688 35.2188C78.0625 35.2188 78.1641 35.1875 78.2734 35.125C78.3984 35.0469 78.5078 34.9609 78.6016 34.8672C78.7109 34.7734 78.7969 34.6719 78.8594 34.5625C78.9375 34.4531 78.9766 34.3594 78.9766 34.2812C78.9766 34.1562 78.9141 34.0938 78.7891 34.0938C78.7109 34.0938 78.6094 34.125 78.4844 34.1875C78.375 34.25 78.2656 34.3281 78.1562 34.4219C78.0469 34.5 77.9531 34.5938 77.875 34.7031C77.8125 34.7969 77.7812 34.8906 77.7812 34.9844C77.7812 35.1406 77.8438 35.2188 77.9688 35.2188ZM87.3203 38.8047C87.3203 39.0234 87.2578 39.25 87.1328 39.4844C87.0234 39.7031 86.8828 39.9141 86.7109 40.1172C86.5391 40.3203 86.3438 40.5 86.125 40.6562C85.9219 40.7969 85.7266 40.8828 85.5391 40.9141C85.6641 40.4297 85.7031 40.0547 85.6562 39.7891C85.6094 39.5234 85.5312 39.3281 85.4219 39.2031C85.2969 39.0625 85.1406 38.9844 84.9531 38.9688C84.6719 38.9688 84.3984 39.1328 84.1328 39.4609C83.8828 39.7734 83.6641 40.1641 83.4766 40.6328C83.2891 41.0859 83.1406 41.5781 83.0312 42.1094C82.9219 42.625 82.8672 43.0938 82.8672 43.5156C82.8516 43.8125 82.8594 44.1016 82.8906 44.3828C82.9062 44.6172 82.9297 44.8594 82.9609 45.1094C83.0078 45.3594 83.0703 45.5547 83.1484 45.6953C83.0547 45.7734 82.8984 45.8672 82.6797 45.9766C82.4766 46.0859 82.2578 46.1562 82.0234 46.1875C81.8047 46.2188 81.6016 46.1797 81.4141 46.0703C81.2422 45.9609 81.1484 45.7266 81.1328 45.3672C81.1016 45.0234 81.0781 44.6406 81.0625 44.2188C81.0625 43.7812 81.0625 43.3516 81.0625 42.9297C81.0781 42.4922 81.0938 42.0625 81.1094 41.6406C81.125 41.2188 81.1484 40.8281 81.1797 40.4688C81.2109 39.7812 81.2266 39.25 81.2266 38.875C81.2266 38.5 81.2188 38.1406 81.2031 37.7969C81.2031 37.7344 81.3047 37.6484 81.5078 37.5391C81.7266 37.4141 81.9609 37.3047 82.2109 37.2109C82.4766 37.1172 82.7188 37.0625 82.9375 37.0469C83.1562 37.0312 83.2656 37.0781 83.2656 37.1875C83.2656 37.3594 83.2422 37.7031 83.1953 38.2188C83.1641 38.7188 83.1172 39.2422 83.0547 39.7891C83.1641 39.4922 83.3047 39.1719 83.4766 38.8281C83.6641 38.4844 83.875 38.1641 84.1094 37.8672C84.3438 37.5703 84.6094 37.3281 84.9062 37.1406C85.2031 36.9375 85.5312 36.8359 85.8906 36.8359C86.1719 36.8359 86.3984 36.9219 86.5703 37.0938C86.7578 37.2656 86.9062 37.4609 87.0156 37.6797C87.125 37.8984 87.2031 38.1172 87.25 38.3359C87.2969 38.5547 87.3203 38.7109 87.3203 38.8047ZM91.2109 46.2578C90.1172 46.2578 89.2734 45.8906 88.6797 45.1562C88.0859 44.4219 87.7891 43.4609 87.7891 42.2734C87.7891 41.4453 87.9062 40.6719 88.1406 39.9531C88.3906 39.2188 88.7188 38.5859 89.125 38.0547C89.5312 37.5234 90 37.1094 90.5312 36.8125C91.0781 36.5 91.6484 36.3438 92.2422 36.3438C92.8203 36.3438 93.3125 36.5547 93.7188 36.9766C94.125 37.3828 94.3281 37.9688 94.3281 38.7344C94.3281 39.2344 94.2188 39.7344 94 40.2344C93.7812 40.7188 93.4922 41.1562 93.1328 41.5469C92.7891 41.9219 92.4062 42.2266 91.9844 42.4609C91.5625 42.6953 91.1562 42.8125 90.7656 42.8125C90.5156 42.8125 90.3047 42.7812 90.1328 42.7188C89.9609 42.6562 89.8047 42.5625 89.6641 42.4375C89.7109 43.3281 89.9062 43.9531 90.25 44.3125C90.5938 44.6562 91.0391 44.8281 91.5859 44.8281C91.9609 44.8281 92.2891 44.75 92.5703 44.5938C92.8672 44.4375 93.1172 44.2578 93.3203 44.0547C93.5234 43.8516 93.6875 43.6484 93.8125 43.4453C93.9375 43.2266 94.0234 43.0625 94.0703 42.9531C94.1172 42.8594 94.1953 42.8125 94.3047 42.8125C94.4297 42.8125 94.4922 42.9062 94.4922 43.0938C94.4922 43.2656 94.4297 43.5312 94.3047 43.8906C94.1953 44.2344 94.0078 44.5859 93.7422 44.9453C93.4766 45.2891 93.1328 45.5938 92.7109 45.8594C92.3047 46.125 91.8047 46.2578 91.2109 46.2578ZM92.2891 37.3516C92.1953 37.3516 92.0156 37.4531 91.75 37.6562C91.5 37.8438 91.2266 38.125 90.9297 38.5C90.6484 38.875 90.3828 39.3281 90.1328 39.8594C89.8984 40.375 89.75 40.9609 89.6875 41.6172C90.625 41.3984 91.3672 41.0547 91.9141 40.5859C92.4609 40.1172 92.7344 39.4297 92.7344 38.5234C92.7344 38.0703 92.6797 37.7656 92.5703 37.6094C92.4609 37.4375 92.3672 37.3516 92.2891 37.3516Z" fill="black"/>
</svg>
