<svg width="174" height="75" viewBox="0 0 174 75" fill="none" xmlns="http://www.w3.org/2000/svg">
    <path d="M6.17188 19.0625C5.32812 19.0625 4.5625 18.8516 3.875 18.4297C3.1875 18.0234 2.60156 17.4609 2.11719 16.7422C1.64844 16.0234 1.28125 15.1797 1.01562 14.2109C0.765625 13.2422 0.640625 12.1953 0.640625 11.0703C0.640625 9.46094 0.828125 8.02344 1.20312 6.75781C1.57812 5.49219 2.07031 4.42188 2.67969 3.54688C3.30469 2.67187 4.00781 2 4.78906 1.53125C5.58594 1.0625 6.39844 0.828125 7.22656 0.828125C8.00781 0.828125 8.66406 0.96875 9.19531 1.25C9.72656 1.53125 10.1484 1.89063 10.4609 2.32812C10.7891 2.76562 11.0078 3.25 11.1172 3.78125C11.2422 4.29688 11.2812 4.78906 11.2344 5.25781C11.1562 6.16406 10.8438 6.89844 10.2969 7.46094C9.76562 8.02344 9.14844 8.30469 8.44531 8.30469C8.21094 8.28906 7.96875 8.25 7.71875 8.1875C7.5 8.125 7.27344 8.03125 7.03906 7.90625C6.80469 7.78125 6.58594 7.60156 6.38281 7.36719C7.03906 7.41406 7.54688 7.28125 7.90625 6.96875C8.26562 6.65625 8.53125 6.30469 8.70312 5.91406C8.89062 5.46094 9 4.92969 9.03125 4.32031C9.03125 3.97656 8.97656 3.67969 8.86719 3.42969C8.75781 3.16406 8.60938 2.95312 8.42188 2.79688C8.25 2.625 8.0625 2.5 7.85938 2.42188C7.65625 2.34375 7.46094 2.30469 7.27344 2.30469C6.85156 2.30469 6.39062 2.46875 5.89062 2.79688C5.40625 3.125 4.94531 3.625 4.50781 4.29688C4.07031 4.95312 3.70312 5.79688 3.40625 6.82812C3.125 7.84375 2.98438 9.05469 2.98438 10.4609C2.98438 11.8516 3.10938 12.9922 3.35938 13.8828C3.60938 14.7578 3.91406 15.4453 4.27344 15.9453C4.63281 16.4297 5.00781 16.7656 5.39844 16.9531C5.80469 17.125 6.14844 17.2109 6.42969 17.2109C6.97656 17.1641 7.47656 16.9766 7.92969 16.6484C8.32031 16.3672 8.6875 15.9219 9.03125 15.3125C9.39062 14.6875 9.63281 13.7969 9.75781 12.6406C9.96094 12.6562 10.125 12.7031 10.25 12.7812C10.3906 12.8594 10.5078 12.9375 10.6016 13.0156C10.6953 13.1094 10.7812 13.2188 10.8594 13.3438C10.875 13.3594 10.875 13.5156 10.8594 13.8125C10.8438 14.1094 10.7891 14.4688 10.6953 14.8906C10.6016 15.3125 10.4531 15.7656 10.25 16.25C10.0625 16.7344 9.78906 17.1875 9.42969 17.6094C9.08594 18.0312 8.64844 18.375 8.11719 18.6406C7.58594 18.9219 6.9375 19.0625 6.17188 19.0625ZM18.9453 12.9688C18.9141 13.5781 18.8047 14.1406 18.6172 14.6562C18.4453 15.1719 18.2031 15.625 17.8906 16.0156C17.5781 16.3906 17.2031 16.6875 16.7656 16.9062C16.3438 17.125 15.875 17.2422 15.3594 17.2578C14.9062 17.2734 14.4766 17.1641 14.0703 16.9297C13.6797 16.6953 13.3359 16.3672 13.0391 15.9453C12.7422 15.5234 12.5156 15.0234 12.3594 14.4453C12.2188 13.8516 12.1797 13.2109 12.2422 12.5234C12.2891 11.7266 12.4375 11.0469 12.6875 10.4844C12.9375 9.90625 13.2031 9.42969 13.4844 9.05469C13.7656 8.67969 14.0234 8.40625 14.2578 8.23438C14.5078 8.04688 14.6641 7.9375 14.7266 7.90625C14.8359 7.85938 14.9375 7.85156 15.0312 7.88281C15.125 7.89844 15.2266 7.92188 15.3359 7.95312C15.3672 7.96875 15.3984 8.00781 15.4297 8.07031C15.4922 8.17969 15.5312 8.38281 15.5469 8.67969C15.625 8.50781 15.7266 8.36719 15.8516 8.25781C15.9766 8.14844 16.1016 8.07031 16.2266 8.02344C16.3828 7.96094 16.5391 7.92188 16.6953 7.90625C16.8047 7.89062 16.9922 7.97656 17.2578 8.16406C17.5391 8.35156 17.8047 8.64844 18.0547 9.05469C18.3203 9.46094 18.5469 9.99219 18.7344 10.6484C18.9219 11.2891 18.9922 12.0625 18.9453 12.9688ZM17.3516 12.6875C17.3672 12.3125 17.3516 11.9375 17.3047 11.5625C17.2734 11.1719 17.2109 10.8203 17.1172 10.5078C17.0391 10.1797 16.9375 9.92188 16.8125 9.73438C16.6875 9.53125 16.5625 9.42969 16.4375 9.42969C16.2969 9.46094 16.1406 9.53125 15.9688 9.64062C15.8281 9.73438 15.6719 9.88281 15.5 10.0859C15.3281 10.2891 15.1641 10.5781 15.0078 10.9531C14.9922 10.9062 14.9766 10.8203 14.9609 10.6953C14.9453 10.5859 14.9297 10.4453 14.9141 10.2734C14.9141 10.0859 14.9297 9.83594 14.9609 9.52344C14.7422 9.78906 14.5703 10.1016 14.4453 10.4609C14.3359 10.8203 14.25 11.1641 14.1875 11.4922C14.125 11.8828 14.0781 12.2734 14.0469 12.6641C14.0312 13.0859 14.0469 13.5 14.0938 13.9062C14.1562 14.3125 14.25 14.6719 14.375 14.9844C14.5156 15.2969 14.6797 15.5469 14.8672 15.7344C15.0547 15.9219 15.2812 16.0078 15.5469 15.9922C15.8125 15.9766 16.0469 15.8672 16.25 15.6641C16.4531 15.4609 16.6328 15.2031 16.7891 14.8906C16.9453 14.5781 17.0703 14.2266 17.1641 13.8359C17.2578 13.4453 17.3203 13.0625 17.3516 12.6875ZM22.6484 16.3672C22.6328 16.4609 22.5469 16.5625 22.3906 16.6719C22.25 16.7656 22.0781 16.8516 21.875 16.9297C21.6875 17.0078 21.5078 17.0547 21.3359 17.0703C21.1641 17.1016 21.0469 17.0859 20.9844 17.0234C20.9219 16.9609 20.8203 16.8438 20.6797 16.6719C20.5391 16.5 20.4531 16.2188 20.4219 15.8281C20.3906 15.4219 20.375 14.9141 20.375 14.3047C20.375 13.6797 20.3672 12.9922 20.3516 12.2422V11.3047C20.3516 11.0234 20.3438 10.6953 20.3281 10.3203C20.3281 9.94531 20.3203 9.55469 20.3047 9.14844C20.4453 9.07031 20.5859 9 20.7266 8.9375C20.8828 8.85938 21.0234 8.79688 21.1484 8.75C21.2891 8.6875 21.4219 8.64062 21.5469 8.60938C21.875 8.51562 22.125 8.46094 22.2969 8.44531C22.4688 8.42969 22.5703 8.48438 22.6016 8.60938C22.6172 8.70312 22.6094 8.92969 22.5781 9.28906C22.5469 9.60156 22.5078 10.0781 22.4609 10.7188C22.4141 11.3438 22.3359 12.2188 22.2266 13.3438C22.4297 12.8438 22.5938 12.4141 22.7188 12.0547C22.8594 11.6953 22.9766 11.4062 23.0703 11.1875C23.1641 10.9219 23.25 10.7109 23.3281 10.5547C23.4062 10.3516 23.5078 10.125 23.6328 9.875C23.7578 9.625 23.8828 9.39062 24.0078 9.17188C24.1484 8.95312 24.2734 8.75781 24.3828 8.58594C24.5078 8.41406 24.6016 8.3125 24.6641 8.28125C24.7109 8.25 24.8516 8.25 25.0859 8.28125C25.3203 8.3125 25.5703 8.39062 25.8359 8.51562C26.1016 8.625 26.3594 8.78906 26.6094 9.00781C26.8594 9.21094 27.0234 9.46094 27.1016 9.75781C27.1953 10.1016 27.2266 10.5547 27.1953 11.1172C27.1797 11.6797 27.1406 12.2578 27.0781 12.8516C27.0312 13.4453 26.9922 14.0078 26.9609 14.5391C26.9297 15.0703 26.9609 15.4766 27.0547 15.7578C27.0859 15.9141 27.1328 16.0547 27.1953 16.1797C27.2266 16.3047 27.2656 16.4219 27.3125 16.5312C27.375 16.625 27.4375 16.6953 27.5 16.7422C27.125 16.9141 26.8203 17.0391 26.5859 17.1172C26.3516 17.1953 26.1719 17.25 26.0469 17.2812C25.8906 17.3281 25.7812 17.3438 25.7188 17.3281C25.5781 17.2812 25.4531 17.1641 25.3438 16.9766C25.25 16.7891 25.1641 16.4922 25.0859 16.0859C25.0547 15.9609 25.0391 15.7578 25.0391 15.4766C25.0547 15.1797 25.0781 14.8516 25.1094 14.4922C25.1406 14.1172 25.1719 13.7344 25.2031 13.3438C25.25 12.9375 25.2812 12.5625 25.2969 12.2188C25.3281 11.8594 25.3516 11.5547 25.3672 11.3047C25.3828 11.0391 25.3828 10.8594 25.3672 10.7656C25.2891 10.4844 25.1797 10.2891 25.0391 10.1797C24.8984 10.0547 24.7891 10.0391 24.7109 10.1328C24.5078 10.3672 24.2891 10.75 24.0547 11.2812C23.8359 11.7969 23.625 12.3672 23.4219 12.9922C23.2188 13.6016 23.0469 14.2109 22.9062 14.8203C22.7656 15.4297 22.6797 15.9453 22.6484 16.3672ZM31.2969 16.3672C31.2812 16.4609 31.1953 16.5625 31.0391 16.6719C30.8984 16.7656 30.7266 16.8516 30.5234 16.9297C30.3359 17.0078 30.1562 17.0547 29.9844 17.0703C29.8125 17.1016 29.6953 17.0859 29.6328 17.0234C29.5703 16.9609 29.4688 16.8438 29.3281 16.6719C29.1875 16.5 29.1016 16.2188 29.0703 15.8281C29.0391 15.4219 29.0234 14.9141 29.0234 14.3047C29.0234 13.6797 29.0156 12.9922 29 12.2422V11.3047C29 11.0234 28.9922 10.6953 28.9766 10.3203C28.9766 9.94531 28.9688 9.55469 28.9531 9.14844C29.0938 9.07031 29.2344 9 29.375 8.9375C29.5312 8.85938 29.6719 8.79688 29.7969 8.75C29.9375 8.6875 30.0703 8.64062 30.1953 8.60938C30.5234 8.51562 30.7734 8.46094 30.9453 8.44531C31.1172 8.42969 31.2188 8.48438 31.25 8.60938C31.2656 8.70312 31.2578 8.92969 31.2266 9.28906C31.1953 9.60156 31.1562 10.0781 31.1094 10.7188C31.0625 11.3438 30.9844 12.2188 30.875 13.3438C31.0781 12.8438 31.2422 12.4141 31.3672 12.0547C31.5078 11.6953 31.625 11.4062 31.7188 11.1875C31.8125 10.9219 31.8984 10.7109 31.9766 10.5547C32.0547 10.3516 32.1562 10.125 32.2812 9.875C32.4062 9.625 32.5312 9.39062 32.6562 9.17188C32.7969 8.95312 32.9219 8.75781 33.0312 8.58594C33.1562 8.41406 33.25 8.3125 33.3125 8.28125C33.3594 8.25 33.5 8.25 33.7344 8.28125C33.9688 8.3125 34.2188 8.39062 34.4844 8.51562C34.75 8.625 35.0078 8.78906 35.2578 9.00781C35.5078 9.21094 35.6719 9.46094 35.75 9.75781C35.8438 10.1016 35.875 10.5547 35.8438 11.1172C35.8281 11.6797 35.7891 12.2578 35.7266 12.8516C35.6797 13.4453 35.6406 14.0078 35.6094 14.5391C35.5781 15.0703 35.6094 15.4766 35.7031 15.7578C35.7344 15.9141 35.7812 16.0547 35.8438 16.1797C35.875 16.3047 35.9141 16.4219 35.9609 16.5312C36.0234 16.625 36.0859 16.6953 36.1484 16.7422C35.7734 16.9141 35.4688 17.0391 35.2344 17.1172C35 17.1953 34.8203 17.25 34.6953 17.2812C34.5391 17.3281 34.4297 17.3438 34.3672 17.3281C34.2266 17.2812 34.1016 17.1641 33.9922 16.9766C33.8984 16.7891 33.8125 16.4922 33.7344 16.0859C33.7031 15.9609 33.6875 15.7578 33.6875 15.4766C33.7031 15.1797 33.7266 14.8516 33.7578 14.4922C33.7891 14.1172 33.8203 13.7344 33.8516 13.3438C33.8984 12.9375 33.9297 12.5625 33.9453 12.2188C33.9766 11.8594 34 11.5547 34.0156 11.3047C34.0312 11.0391 34.0312 10.8594 34.0156 10.7656C33.9375 10.4844 33.8281 10.2891 33.6875 10.1797C33.5469 10.0547 33.4375 10.0391 33.3594 10.1328C33.1562 10.3672 32.9375 10.75 32.7031 11.2812C32.4844 11.7969 32.2734 12.3672 32.0703 12.9922C31.8672 13.6016 31.6953 14.2109 31.5547 14.8203C31.4141 15.4297 31.3281 15.9453 31.2969 16.3672ZM40.6484 17.2578C39.5547 17.2578 38.7109 16.8906 38.1172 16.1562C37.5234 15.4219 37.2266 14.4609 37.2266 13.2734C37.2266 12.4453 37.3438 11.6719 37.5781 10.9531C37.8281 10.2188 38.1562 9.58594 38.5625 9.05469C38.9688 8.52344 39.4375 8.10938 39.9688 7.8125C40.5156 7.5 41.0859 7.34375 41.6797 7.34375C42.2578 7.34375 42.75 7.55469 43.1562 7.97656C43.5625 8.38281 43.7656 8.96875 43.7656 9.73438C43.7656 10.2344 43.6562 10.7344 43.4375 11.2344C43.2188 11.7188 42.9297 12.1562 42.5703 12.5469C42.2266 12.9219 41.8438 13.2266 41.4219 13.4609C41 13.6953 40.5938 13.8125 40.2031 13.8125C39.9531 13.8125 39.7422 13.7812 39.5703 13.7188C39.3984 13.6562 39.2422 13.5625 39.1016 13.4375C39.1484 14.3281 39.3438 14.9531 39.6875 15.3125C40.0312 15.6562 40.4766 15.8281 41.0234 15.8281C41.3984 15.8281 41.7266 15.75 42.0078 15.5938C42.3047 15.4375 42.5547 15.2578 42.7578 15.0547C42.9609 14.8516 43.125 14.6484 43.25 14.4453C43.375 14.2266 43.4609 14.0625 43.5078 13.9531C43.5547 13.8594 43.6328 13.8125 43.7422 13.8125C43.8672 13.8125 43.9297 13.9062 43.9297 14.0938C43.9297 14.2656 43.8672 14.5312 43.7422 14.8906C43.6328 15.2344 43.4453 15.5859 43.1797 15.9453C42.9141 16.2891 42.5703 16.5938 42.1484 16.8594C41.7422 17.125 41.2422 17.2578 40.6484 17.2578ZM41.7266 8.35156C41.6328 8.35156 41.4531 8.45312 41.1875 8.65625C40.9375 8.84375 40.6641 9.125 40.3672 9.5C40.0859 9.875 39.8203 10.3281 39.5703 10.8594C39.3359 11.375 39.1875 11.9609 39.125 12.6172C40.0625 12.3984 40.8047 12.0547 41.3516 11.5859C41.8984 11.1172 42.1719 10.4297 42.1719 9.52344C42.1719 9.07031 42.1172 8.76562 42.0078 8.60938C41.8984 8.4375 41.8047 8.35156 41.7266 8.35156ZM51.7109 14.0469C51.7109 14.2188 51.6484 14.4844 51.5234 14.8438C51.4141 15.1875 51.2266 15.5391 50.9609 15.8984C50.6953 16.2422 50.3516 16.5469 49.9297 16.8125C49.5234 17.0781 49.0234 17.2109 48.4297 17.2109C47.5859 17.2109 46.875 16.9844 46.2969 16.5312C45.7344 16.0625 45.3359 15.3984 45.1016 14.5391C44.9141 13.8203 44.8594 13.0547 44.9375 12.2422C45.0312 11.4141 45.2578 10.6484 45.6172 9.94531C45.9766 9.24219 46.4766 8.64844 47.1172 8.16406C47.7578 7.66406 48.5391 7.39062 49.4609 7.34375C49.9297 7.32812 50.3203 7.41406 50.6328 7.60156C50.9453 7.78906 51.1875 8.03125 51.3594 8.32812C51.5312 8.625 51.6328 8.95312 51.6641 9.3125C51.6953 9.65625 51.6562 9.98438 51.5469 10.2969C51.4531 10.6094 51.2969 10.875 51.0781 11.0938C50.875 11.2969 50.6094 11.4062 50.2812 11.4219C49.9531 11.4531 49.6797 11.4141 49.4609 11.3047C49.2578 11.1797 49.0938 11.0312 48.9688 10.8594C48.8594 10.6875 48.7812 10.5078 48.7344 10.3203C48.7031 10.1328 48.7031 9.96875 48.7344 9.82812C48.7812 9.625 48.8594 9.4375 48.9688 9.26562C49.0625 9.10938 49.1953 8.95312 49.3672 8.79688C49.5547 8.64062 49.7969 8.51562 50.0938 8.42188C50.0469 8.39062 50 8.375 49.9531 8.375C49.9062 8.375 49.8594 8.36719 49.8125 8.35156C49.75 8.35156 49.7031 8.34375 49.6719 8.32812C49.4219 8.32812 49.1328 8.41406 48.8047 8.58594C48.4922 8.75781 48.1875 9.03125 47.8906 9.40625C47.6094 9.78125 47.3672 10.2656 47.1641 10.8594C46.9766 11.4375 46.8828 12.1406 46.8828 12.9688C46.8828 13.3281 46.9219 13.6875 47 14.0469C47.0781 14.3906 47.1953 14.7031 47.3516 14.9844C47.5234 15.25 47.7266 15.4688 47.9609 15.6406C48.2109 15.7969 48.5 15.875 48.8281 15.875C49.2031 15.875 49.5312 15.7969 49.8125 15.6406C50.1094 15.4688 50.3594 15.2734 50.5625 15.0547C50.7656 14.8359 50.9219 14.6172 51.0312 14.3984C51.1562 14.1797 51.2422 14.0156 51.2891 13.9062C51.3359 13.8125 51.4141 13.7656 51.5234 13.7656C51.6484 13.7656 51.7109 13.8594 51.7109 14.0469ZM61.8828 6.57031C61.7109 6.53906 61.4766 6.50781 61.1797 6.47656C60.8984 6.44531 60.6094 6.42188 60.3125 6.40625C59.9688 6.39062 59.6016 6.38281 59.2109 6.38281C58.8203 6.35156 58.3281 6.35156 57.7344 6.38281C57.1562 6.39844 56.5469 6.40625 55.9062 6.40625C55.8906 6.8125 55.8594 7.22656 55.8125 7.64844C55.7812 8.07031 55.75 8.48438 55.7188 8.89062C55.6406 9.64062 55.5703 10.4062 55.5078 11.1875C55.4609 11.9688 55.4375 12.7109 55.4375 13.4141C55.4375 14.1172 55.4766 14.7578 55.5547 15.3359C55.6484 15.8984 55.8125 16.3438 56.0469 16.6719C55.8594 16.8125 55.6562 16.9219 55.4375 17C55.2188 17.0625 55.0234 17.1094 54.8516 17.1406C54.6484 17.1875 54.4453 17.2109 54.2422 17.2109C54.0547 17.2109 53.8984 17.1484 53.7734 17.0234C53.6484 16.8984 53.5781 16.6797 53.5625 16.3672C53.5312 15.8359 53.5234 15.3047 53.5391 14.7734C53.5703 14.2266 53.6016 13.6562 53.6328 13.0625C53.6797 12.4688 53.7266 11.8359 53.7734 11.1641C53.8203 10.4766 53.8672 9.72656 53.9141 8.91406C53.9609 8.07031 53.9844 7.25 53.9844 6.45312C53.3906 6.46875 52.8906 6.47656 52.4844 6.47656C52.0781 6.47656 51.8516 6.46875 51.8047 6.45312C51.7578 6.42188 51.7031 6.35156 51.6406 6.24219C51.5781 6.14844 51.5 6.00781 51.4062 5.82031C51.2969 5.63281 51.1641 5.36719 51.0078 5.02344C51.3047 5.02344 51.6328 5.02344 51.9922 5.02344C52.3359 5.02344 52.6562 5.01562 52.9531 5C53.2969 4.98438 53.6406 4.96875 53.9844 4.95312C53.9688 4.70312 53.9609 4.4375 53.9609 4.15625C53.9453 3.9375 53.9375 3.69531 53.9375 3.42969C53.9375 3.14844 53.9297 2.89062 53.9141 2.65625C53.9141 2.5625 54.0234 2.45313 54.2422 2.32812C54.4766 2.1875 54.7266 2.0625 54.9922 1.95312C55.2578 1.84375 55.5 1.77344 55.7188 1.74219C55.9531 1.71094 56.0703 1.76562 56.0703 1.90625C56.0703 2.04688 56.0625 2.39062 56.0469 2.9375C56.0469 3.46875 56.0312 4.11719 56 4.88281C56.1562 4.88281 56.2734 4.875 56.3516 4.85938C57.1797 4.82812 57.8438 4.79688 58.3438 4.76562C58.8594 4.71875 59.2812 4.71094 59.6094 4.74219C59.9375 4.77344 60.2266 4.85156 60.4766 4.97656C60.7266 5.10156 61.0078 5.30469 61.3203 5.58594C61.4297 5.67969 61.5234 5.78125 61.6016 5.89062C61.6797 5.98438 61.7422 6.09375 61.7891 6.21875C61.8516 6.32812 61.8828 6.44531 61.8828 6.57031ZM73.3438 7.74219C74.0938 7.74219 74.3906 8.21875 74.2344 9.17188C74.1719 9.57812 74.0625 10.125 73.9062 10.8125C73.75 11.5 73.5547 12.2188 73.3203 12.9688C73.0859 13.7031 72.8125 14.4219 72.5 15.125C72.2031 15.8281 71.875 16.4062 71.5156 16.8594C71.1875 17.0156 70.9062 17.1094 70.6719 17.1406C70.5469 17.1719 70.4375 17.1797 70.3438 17.1641C70.2188 17.1641 70.1016 17.1484 69.9922 17.1172C69.8828 17.0859 69.7734 17.0234 69.6641 16.9297C69.5703 16.8359 69.4766 16.6953 69.3828 16.5078C69.3047 16.3203 69.2422 16.0625 69.1953 15.7344C69.1172 15.25 69 14.7266 68.8438 14.1641C68.7031 13.6016 68.5547 13.0859 68.3984 12.6172C68.2578 13.0391 68.1094 13.4688 67.9531 13.9062C67.8125 14.3281 67.6641 14.7266 67.5078 15.1016C67.3672 15.4766 67.2266 15.8125 67.0859 16.1094C66.9453 16.4062 66.8125 16.6328 66.6875 16.7891C66.1719 17.0234 65.7969 17.1641 65.5625 17.2109C65.4219 17.2578 65.3047 17.2734 65.2109 17.2578C64.8984 16.8516 64.625 16.4219 64.3906 15.9688C64.1562 15.5 63.9688 15.0625 63.8281 14.6562C63.6562 14.1875 63.5156 13.7188 63.4062 13.25C63.2812 12.6562 63.1953 12.0859 63.1484 11.5391C63.1016 10.9922 63.0547 10.4922 63.0078 10.0391C62.9766 9.57031 62.9297 9.16406 62.8672 8.82031C62.8203 8.47656 62.7266 8.20312 62.5859 8C62.7266 7.89062 62.8906 7.78906 63.0781 7.69531C63.2656 7.58594 63.4609 7.52344 63.6641 7.50781C63.8672 7.47656 64.0703 7.49219 64.2734 7.55469C64.4922 7.60156 64.7031 7.71875 64.9062 7.90625C64.9375 8.3125 64.9609 8.71094 64.9766 9.10156C64.9922 9.47656 65.0078 9.82031 65.0234 10.1328C65.0391 10.4922 65.0469 10.8281 65.0469 11.1406C65.0625 11.5312 65.0781 11.9453 65.0938 12.3828C65.125 12.8203 65.1641 13.25 65.2109 13.6719C65.2578 14.0938 65.3281 14.4922 65.4219 14.8672C65.5312 15.2266 65.6719 15.5312 65.8438 15.7812C66.0156 15.5 66.2578 15.0391 66.5703 14.3984C66.8828 13.7422 67.1406 12.9219 67.3438 11.9375C67.4219 11.5312 67.4688 11.125 67.4844 10.7188C67.5156 10.3125 67.5156 9.94531 67.4844 9.61719C67.4688 9.27344 67.4375 8.97656 67.3906 8.72656C67.3594 8.46094 67.3203 8.27344 67.2734 8.16406C67.3984 8.08594 67.5312 8.03125 67.6719 8C67.8125 7.95312 67.9453 7.91406 68.0703 7.88281C68.2109 7.85156 68.3438 7.83594 68.4688 7.83594C68.875 7.80469 69.1484 7.88281 69.2891 8.07031C69.4453 8.24219 69.4844 8.57031 69.4062 9.05469C69.3906 9.17969 69.3516 9.375 69.2891 9.64062C69.2266 9.89062 69.1484 10.1953 69.0547 10.5547C69.1484 10.8672 69.2578 11.2656 69.3828 11.75C69.5078 12.2188 69.6328 12.6797 69.7578 13.1328C69.8516 13.5703 69.9453 14.0156 70.0391 14.4688C70.1328 14.9219 70.2109 15.3203 70.2734 15.6641C70.3516 15.6484 70.4297 15.6172 70.5078 15.5703C70.5859 15.5234 70.6562 15.4375 70.7188 15.3125C70.7812 15.2031 70.8672 15.0234 70.9766 14.7734C71.0859 14.5234 71.2031 14.2188 71.3281 13.8594C71.4531 13.5 71.5703 13.1016 71.6797 12.6641C71.8047 12.2266 71.9141 11.7578 72.0078 11.2578C72.1797 10.2578 72.2422 9.53125 72.1953 9.07812C72.1641 8.625 72.0781 8.32031 71.9375 8.16406C72.0938 8.05469 72.25 7.97656 72.4062 7.92969C72.5781 7.86719 72.7344 7.82031 72.875 7.78906C73.0469 7.75781 73.2031 7.74219 73.3438 7.74219ZM75.5234 8.70312C75.5234 8.60938 75.6484 8.50781 75.8984 8.39844C76.1484 8.28906 76.4219 8.20312 76.7188 8.14062C77.0312 8.0625 77.3125 8.02344 77.5625 8.02344C77.8281 8.00781 77.9609 8.0625 77.9609 8.1875C77.9609 8.42188 77.9453 8.75781 77.9141 9.19531C77.8828 9.61719 77.8438 10.0703 77.7969 10.5547C77.75 11.0234 77.7031 11.5 77.6562 11.9844C77.6094 12.4531 77.5781 12.8516 77.5625 13.1797C77.5312 13.5234 77.5 13.8984 77.4688 14.3047C77.4375 14.6484 77.4141 15.0312 77.3984 15.4531C77.3828 15.875 77.3828 16.3047 77.3984 16.7422C77.3984 16.8203 77.3203 16.8984 77.1641 16.9766C77.0078 17.0547 76.8359 17.1094 76.6484 17.1406C76.4609 17.1875 76.2812 17.2109 76.1094 17.2109C75.9375 17.2109 75.8438 17.1797 75.8281 17.1172C75.7969 17.0547 75.7656 16.9453 75.7344 16.7891C75.7031 16.6328 75.6719 16.4141 75.6406 16.1328C75.6094 15.8359 75.5859 15.4609 75.5703 15.0078C75.5547 14.5391 75.5625 13.9766 75.5938 13.3203C75.6562 12.0234 75.6641 11.0234 75.6172 10.3203C75.5703 9.60156 75.5391 9.0625 75.5234 8.70312ZM77.1641 4.03906C77.4766 4.03906 77.7734 4.13281 78.0547 4.32031C78.3359 4.50781 78.4766 4.75781 78.4766 5.07031C78.4766 5.30469 78.4141 5.53125 78.2891 5.75C78.1797 5.96875 78.0391 6.16406 77.8672 6.33594C77.6953 6.50781 77.5 6.64844 77.2812 6.75781C77.0625 6.85156 76.8594 6.89844 76.6719 6.89844C76.4219 6.89844 76.2188 6.85938 76.0625 6.78125C75.9062 6.6875 75.7812 6.58594 75.6875 6.47656C75.6094 6.35156 75.5547 6.21875 75.5234 6.07812C75.4922 5.9375 75.4766 5.80469 75.4766 5.67969C75.4766 5.52344 75.5 5.35156 75.5469 5.16406C75.5938 4.96094 75.6797 4.78125 75.8047 4.625C75.9297 4.45312 76.1016 4.3125 76.3203 4.20312C76.5391 4.09375 76.8203 4.03906 77.1641 4.03906ZM76.5781 6.21875C76.6719 6.21875 76.7734 6.1875 76.8828 6.125C77.0078 6.04688 77.1172 5.96094 77.2109 5.86719C77.3203 5.77344 77.4062 5.67188 77.4688 5.5625C77.5469 5.45312 77.5859 5.35938 77.5859 5.28125C77.5859 5.15625 77.5234 5.09375 77.3984 5.09375C77.3203 5.09375 77.2188 5.125 77.0938 5.1875C76.9844 5.25 76.875 5.32812 76.7656 5.42188C76.6562 5.5 76.5625 5.59375 76.4844 5.70312C76.4219 5.79688 76.3906 5.89062 76.3906 5.98438C76.3906 6.14062 76.4531 6.21875 76.5781 6.21875ZM88.3906 6.57031C88.2188 6.53906 87.9844 6.50781 87.6875 6.47656C87.4062 6.44531 87.1172 6.42188 86.8203 6.40625C86.4766 6.39062 86.1094 6.38281 85.7188 6.38281C85.3281 6.35156 84.8359 6.35156 84.2422 6.38281C83.6641 6.39844 83.0547 6.40625 82.4141 6.40625C82.3984 6.8125 82.3672 7.22656 82.3203 7.64844C82.2891 8.07031 82.2578 8.48438 82.2266 8.89062C82.1484 9.64062 82.0781 10.4062 82.0156 11.1875C81.9688 11.9688 81.9453 12.7109 81.9453 13.4141C81.9453 14.1172 81.9844 14.7578 82.0625 15.3359C82.1562 15.8984 82.3203 16.3438 82.5547 16.6719C82.3672 16.8125 82.1641 16.9219 81.9453 17C81.7266 17.0625 81.5312 17.1094 81.3594 17.1406C81.1562 17.1875 80.9531 17.2109 80.75 17.2109C80.5625 17.2109 80.4062 17.1484 80.2812 17.0234C80.1562 16.8984 80.0859 16.6797 80.0703 16.3672C80.0391 15.8359 80.0312 15.3047 80.0469 14.7734C80.0781 14.2266 80.1094 13.6562 80.1406 13.0625C80.1875 12.4688 80.2344 11.8359 80.2812 11.1641C80.3281 10.4766 80.375 9.72656 80.4219 8.91406C80.4688 8.07031 80.4922 7.25 80.4922 6.45312C79.8984 6.46875 79.3984 6.47656 78.9922 6.47656C78.5859 6.47656 78.3594 6.46875 78.3125 6.45312C78.2656 6.42188 78.2109 6.35156 78.1484 6.24219C78.0859 6.14844 78.0078 6.00781 77.9141 5.82031C77.8047 5.63281 77.6719 5.36719 77.5156 5.02344C77.8125 5.02344 78.1406 5.02344 78.5 5.02344C78.8438 5.02344 79.1641 5.01562 79.4609 5C79.8047 4.98438 80.1484 4.96875 80.4922 4.95312C80.4766 4.70312 80.4688 4.4375 80.4688 4.15625C80.4531 3.9375 80.4453 3.69531 80.4453 3.42969C80.4453 3.14844 80.4375 2.89062 80.4219 2.65625C80.4219 2.5625 80.5312 2.45313 80.75 2.32812C80.9844 2.1875 81.2344 2.0625 81.5 1.95312C81.7656 1.84375 82.0078 1.77344 82.2266 1.74219C82.4609 1.71094 82.5781 1.76562 82.5781 1.90625C82.5781 2.04688 82.5703 2.39062 82.5547 2.9375C82.5547 3.46875 82.5391 4.11719 82.5078 4.88281C82.6641 4.88281 82.7812 4.875 82.8594 4.85938C83.6875 4.82812 84.3516 4.79688 84.8516 4.76562C85.3672 4.71875 85.7891 4.71094 86.1172 4.74219C86.4453 4.77344 86.7344 4.85156 86.9844 4.97656C87.2344 5.10156 87.5156 5.30469 87.8281 5.58594C87.9375 5.67969 88.0312 5.78125 88.1094 5.89062C88.1875 5.98438 88.25 6.09375 88.2969 6.21875C88.3594 6.32812 88.3906 6.44531 88.3906 6.57031ZM86.4219 13.3203C86.6094 12.7578 86.7656 12.2812 86.8906 11.8906C87.0312 11.5 87.1484 11.1875 87.2422 10.9531C87.3516 10.6719 87.4453 10.4453 87.5234 10.2734C87.6172 10.0234 87.7188 9.77344 87.8281 9.52344C87.9531 9.27344 88.0781 9.04688 88.2031 8.84375C88.3281 8.625 88.4453 8.44531 88.5547 8.30469C88.6641 8.16406 88.7578 8.07031 88.8359 8.02344C88.8984 7.99219 89.0391 7.99219 89.2578 8.02344C89.4922 8.05469 89.7422 8.13281 90.0078 8.25781C90.2891 8.36719 90.5469 8.52344 90.7812 8.72656C91.0312 8.92969 91.2031 9.17969 91.2969 9.47656C91.3906 9.83594 91.4219 10.3047 91.3906 10.8828C91.3594 11.4609 91.3125 12.0547 91.25 12.6641C91.2031 13.2734 91.1641 13.8516 91.1328 14.3984C91.1172 14.9453 91.1562 15.3594 91.25 15.6406C91.3125 15.7969 91.375 15.9531 91.4375 16.1094C91.5 16.2344 91.5703 16.3672 91.6484 16.5078C91.7422 16.6328 91.8438 16.7422 91.9531 16.8359C91.5 17.0078 91.1328 17.1328 90.8516 17.2109C90.5859 17.3047 90.3828 17.3672 90.2422 17.3984C90.0703 17.4453 89.9531 17.4531 89.8906 17.4219C89.7656 17.375 89.6484 17.2578 89.5391 17.0703C89.4297 16.8828 89.3359 16.5859 89.2578 16.1797C89.2266 16.0547 89.2188 15.8359 89.2344 15.5234C89.25 15.2109 89.2734 14.8594 89.3047 14.4688C89.3359 14.0781 89.3672 13.6719 89.3984 13.25C89.4297 12.8125 89.4609 12.4062 89.4922 12.0312C89.5234 11.6562 89.5391 11.3281 89.5391 11.0469C89.5547 10.7656 89.5547 10.5781 89.5391 10.4844C89.4609 10.2188 89.3516 10.0312 89.2109 9.92188C89.0703 9.79688 88.9609 9.78125 88.8828 9.875C88.6953 10.1094 88.4844 10.5156 88.25 11.0938C88.0312 11.6562 87.8203 12.2734 87.6172 12.9453C87.4141 13.6016 87.2344 14.2578 87.0781 14.9141C86.9375 15.5703 86.8516 16.1094 86.8203 16.5312C86.8203 16.625 86.7422 16.7266 86.5859 16.8359C86.4453 16.9297 86.2812 17.0156 86.0938 17.0938C85.9219 17.1719 85.75 17.2188 85.5781 17.2344C85.4062 17.2656 85.2891 17.2422 85.2266 17.1641C85.1797 17.1172 85.0781 17.0078 84.9219 16.8359C84.7812 16.6641 84.7031 16.375 84.6875 15.9688C84.6562 15.5781 84.6562 15.0469 84.6875 14.375C84.7188 13.6875 84.7266 12.9688 84.7109 12.2188V10.4844C84.7109 9.78125 84.7031 8.8125 84.6875 7.57812C84.6875 6.32812 84.6797 4.67969 84.6641 2.63281C84.8359 2.53906 84.9922 2.46094 85.1328 2.39844C85.2734 2.32031 85.4062 2.25781 85.5312 2.21094C85.6719 2.14844 85.8047 2.10156 85.9297 2.07031C86.6016 1.89844 86.9531 1.89844 86.9844 2.07031C87 2.22656 86.9844 2.72656 86.9375 3.57031C86.9219 3.92969 86.8984 4.38281 86.8672 4.92969C86.8359 5.47656 86.7969 6.14062 86.75 6.92188C86.7188 7.70312 86.6719 8.625 86.6094 9.6875C86.5625 10.7344 86.5 11.9453 86.4219 13.3203ZM101.164 1.8125C101.133 2.375 101.078 3.02344 101 3.75781C100.922 4.49219 100.836 5.28125 100.742 6.125C100.664 6.96875 100.578 7.85156 100.484 8.77344C100.406 9.69531 100.336 10.625 100.273 11.5625C100.211 12.5 100.18 13.2656 100.18 13.8594C100.195 14.4375 100.234 14.9141 100.297 15.2891C100.359 15.6641 100.445 15.9609 100.555 16.1797C100.664 16.3984 100.805 16.6094 100.977 16.8125C100.773 16.9375 100.586 17.0312 100.414 17.0938C100.242 17.1562 100.094 17.2031 99.9688 17.2344C99.8125 17.2812 99.6719 17.3047 99.5469 17.3047C99.3125 17.3047 99.1094 17.1953 98.9375 16.9766C98.7656 16.7422 98.625 16.4453 98.5156 16.0859C98.4219 15.7266 98.3438 15.3281 98.2812 14.8906C98.2344 14.4375 98.2109 13.9922 98.2109 13.5547C98.2109 13.0859 98.2266 12.5469 98.2578 11.9375C98.2891 11.3125 98.3203 10.6562 98.3516 9.96875C98.3984 9.26562 98.4453 8.53906 98.4922 7.78906C98.5391 7.02344 98.5781 6.26562 98.6094 5.51562C98.6406 4.9375 98.6719 4.41406 98.7031 3.94531C98.7344 3.53906 98.7578 3.17188 98.7734 2.84375C98.7891 2.5 98.7812 2.29687 98.75 2.23438C98.8438 2.10937 98.9609 2.01562 99.1016 1.95312C99.2422 1.89063 99.375 1.83594 99.5 1.78906C99.6562 1.74219 99.8125 1.70313 99.9688 1.67188H100.414C100.539 1.67188 100.672 1.6875 100.812 1.71875C100.953 1.73437 101.07 1.76562 101.164 1.8125ZM102.406 8.70312C102.406 8.60938 102.531 8.50781 102.781 8.39844C103.031 8.28906 103.305 8.20312 103.602 8.14062C103.914 8.0625 104.195 8.02344 104.445 8.02344C104.711 8.00781 104.844 8.0625 104.844 8.1875C104.844 8.42188 104.828 8.75781 104.797 9.19531C104.766 9.61719 104.727 10.0703 104.68 10.5547C104.633 11.0234 104.586 11.5 104.539 11.9844C104.492 12.4531 104.461 12.8516 104.445 13.1797C104.414 13.5234 104.383 13.8984 104.352 14.3047C104.32 14.6484 104.297 15.0312 104.281 15.4531C104.266 15.875 104.266 16.3047 104.281 16.7422C104.281 16.8203 104.203 16.8984 104.047 16.9766C103.891 17.0547 103.719 17.1094 103.531 17.1406C103.344 17.1875 103.164 17.2109 102.992 17.2109C102.82 17.2109 102.727 17.1797 102.711 17.1172C102.68 17.0547 102.648 16.9453 102.617 16.7891C102.586 16.6328 102.555 16.4141 102.523 16.1328C102.492 15.8359 102.469 15.4609 102.453 15.0078C102.438 14.5391 102.445 13.9766 102.477 13.3203C102.539 12.0234 102.547 11.0234 102.5 10.3203C102.453 9.60156 102.422 9.0625 102.406 8.70312ZM104.047 4.03906C104.359 4.03906 104.656 4.13281 104.938 4.32031C105.219 4.50781 105.359 4.75781 105.359 5.07031C105.359 5.30469 105.297 5.53125 105.172 5.75C105.062 5.96875 104.922 6.16406 104.75 6.33594C104.578 6.50781 104.383 6.64844 104.164 6.75781C103.945 6.85156 103.742 6.89844 103.555 6.89844C103.305 6.89844 103.102 6.85938 102.945 6.78125C102.789 6.6875 102.664 6.58594 102.57 6.47656C102.492 6.35156 102.438 6.21875 102.406 6.07812C102.375 5.9375 102.359 5.80469 102.359 5.67969C102.359 5.52344 102.383 5.35156 102.43 5.16406C102.477 4.96094 102.562 4.78125 102.688 4.625C102.812 4.45312 102.984 4.3125 103.203 4.20312C103.422 4.09375 103.703 4.03906 104.047 4.03906ZM103.461 6.21875C103.555 6.21875 103.656 6.1875 103.766 6.125C103.891 6.04688 104 5.96094 104.094 5.86719C104.203 5.77344 104.289 5.67188 104.352 5.5625C104.43 5.45312 104.469 5.35938 104.469 5.28125C104.469 5.15625 104.406 5.09375 104.281 5.09375C104.203 5.09375 104.102 5.125 103.977 5.1875C103.867 5.25 103.758 5.32812 103.648 5.42188C103.539 5.5 103.445 5.59375 103.367 5.70312C103.305 5.79688 103.273 5.89062 103.273 5.98438C103.273 6.14062 103.336 6.21875 103.461 6.21875ZM111.195 11.3984C111.523 11.5391 111.836 11.7656 112.133 12.0781C112.43 12.375 112.617 12.8281 112.695 13.4375C112.758 13.9688 112.844 14.4453 112.953 14.8672C113.062 15.2891 113.219 15.6719 113.422 16.0156C113.625 16.3438 113.891 16.6406 114.219 16.9062C114.562 17.1562 115 17.375 115.531 17.5625C115.391 17.6875 115.219 17.7891 115.016 17.8672C114.828 17.9453 114.648 18 114.477 18.0312C114.273 18.0938 114.062 18.125 113.844 18.125C113.328 18.1719 112.906 18.1016 112.578 17.9141C112.25 17.7422 111.992 17.4844 111.805 17.1406C111.617 16.7969 111.477 16.3984 111.383 15.9453C111.289 15.4922 111.219 15.0234 111.172 14.5391C111.156 14.3359 111.133 14.125 111.102 13.9062C111.07 13.6875 111.016 13.4766 110.938 13.2734C110.859 13.0703 110.75 12.8828 110.609 12.7109C110.484 12.5391 110.32 12.4062 110.117 12.3125C109.773 12.5781 109.453 12.8125 109.156 13.0156C108.875 13.2031 108.625 13.3594 108.406 13.4844C108.422 14.3281 108.461 15.0234 108.523 15.5703C108.602 16.1172 108.703 16.4844 108.828 16.6719C108.719 16.75 108.609 16.8203 108.5 16.8828C108.391 16.9297 108.297 16.9688 108.219 17C108.109 17.0469 108.008 17.0781 107.914 17.0938C107.602 17.1875 107.32 17.1719 107.07 17.0469C106.836 16.9375 106.711 16.6328 106.695 16.1328L106.555 2.44531C106.555 2.32031 106.672 2.19531 106.906 2.07031C107.156 1.92969 107.43 1.82031 107.727 1.74219C108.023 1.66406 108.289 1.625 108.523 1.625C108.773 1.625 108.891 1.69531 108.875 1.83594C108.828 2.91406 108.781 3.92969 108.734 4.88281C108.688 5.83594 108.648 6.67969 108.617 7.41406C108.57 8.27344 108.531 9.05469 108.5 9.75781C108.469 10.1797 108.445 10.5859 108.43 10.9766C108.43 11.3672 108.422 11.7422 108.406 12.1016C108.703 11.8672 109.016 11.6094 109.344 11.3281C109.672 11.0469 109.984 10.7344 110.281 10.3906C110.578 10.0469 110.828 9.67969 111.031 9.28906C111.234 8.88281 111.352 8.45312 111.383 8C111.555 7.875 111.727 7.77344 111.898 7.69531C112.086 7.60156 112.25 7.53125 112.391 7.48438C112.562 7.42188 112.719 7.39062 112.859 7.39062C113.219 7.375 113.43 7.45312 113.492 7.625C113.539 7.75 113.531 7.9375 113.469 8.1875C113.422 8.42188 113.305 8.71094 113.117 9.05469C112.945 9.38281 112.703 9.75 112.391 10.1562C112.078 10.5469 111.68 10.9609 111.195 11.3984ZM118.086 17.2578C116.992 17.2578 116.148 16.8906 115.555 16.1562C114.961 15.4219 114.664 14.4609 114.664 13.2734C114.664 12.4453 114.781 11.6719 115.016 10.9531C115.266 10.2188 115.594 9.58594 116 9.05469C116.406 8.52344 116.875 8.10938 117.406 7.8125C117.953 7.5 118.523 7.34375 119.117 7.34375C119.695 7.34375 120.188 7.55469 120.594 7.97656C121 8.38281 121.203 8.96875 121.203 9.73438C121.203 10.2344 121.094 10.7344 120.875 11.2344C120.656 11.7188 120.367 12.1562 120.008 12.5469C119.664 12.9219 119.281 13.2266 118.859 13.4609C118.438 13.6953 118.031 13.8125 117.641 13.8125C117.391 13.8125 117.18 13.7812 117.008 13.7188C116.836 13.6562 116.68 13.5625 116.539 13.4375C116.586 14.3281 116.781 14.9531 117.125 15.3125C117.469 15.6562 117.914 15.8281 118.461 15.8281C118.836 15.8281 119.164 15.75 119.445 15.5938C119.742 15.4375 119.992 15.2578 120.195 15.0547C120.398 14.8516 120.562 14.6484 120.688 14.4453C120.812 14.2266 120.898 14.0625 120.945 13.9531C120.992 13.8594 121.07 13.8125 121.18 13.8125C121.305 13.8125 121.367 13.9062 121.367 14.0938C121.367 14.2656 121.305 14.5312 121.18 14.8906C121.07 15.2344 120.883 15.5859 120.617 15.9453C120.352 16.2891 120.008 16.5938 119.586 16.8594C119.18 17.125 118.68 17.2578 118.086 17.2578ZM119.164 8.35156C119.07 8.35156 118.891 8.45312 118.625 8.65625C118.375 8.84375 118.102 9.125 117.805 9.5C117.523 9.875 117.258 10.3281 117.008 10.8594C116.773 11.375 116.625 11.9609 116.562 12.6172C117.5 12.3984 118.242 12.0547 118.789 11.5859C119.336 11.1172 119.609 10.4297 119.609 9.52344C119.609 9.07031 119.555 8.76562 119.445 8.60938C119.336 8.4375 119.242 8.35156 119.164 8.35156ZM127.906 9.6875C127.781 9.6875 127.641 9.75781 127.484 9.89844C127.344 10.0234 127.203 10.2031 127.062 10.4375C126.922 10.6562 126.781 10.9062 126.641 11.1875C126.5 11.4531 126.375 11.7266 126.266 12.0078C126 12.6641 125.742 13.3359 125.492 14.0234C125.242 14.7109 125.094 15.3047 125.047 15.8047C125.031 15.8516 125.023 15.8984 125.023 15.9453C125.023 15.9766 125.023 16.0078 125.023 16.0391C125.008 16.0703 125 16.1172 125 16.1797C124.969 16.3984 124.922 16.5781 124.859 16.7188C124.812 16.8438 124.703 16.9297 124.531 16.9766C124.344 17.0078 124.156 17.0312 123.969 17.0469C123.781 17.0625 123.602 17.0469 123.43 17C123.32 16.9688 123.234 16.9141 123.172 16.8359C123.125 16.7422 123.086 16.6406 123.055 16.5312C123.039 16.4062 123.023 16.2891 123.008 16.1797C123.008 16.0703 123.008 15.9766 123.008 15.8984C123.008 15.8047 123.016 15.5156 123.031 15.0312C123.047 14.5312 123.062 13.9688 123.078 13.3438C123.094 12.7188 123.102 12.1094 123.102 11.5156C123.102 10.9062 123.094 10.4453 123.078 10.1328C123.047 9.91406 123.016 9.71094 122.984 9.52344C122.953 9.35156 122.914 9.17969 122.867 9.00781C122.836 8.83594 122.781 8.6875 122.703 8.5625C122.875 8.46875 123.047 8.39062 123.219 8.32812C123.391 8.26562 123.547 8.21875 123.688 8.1875C123.859 8.14062 124.016 8.10938 124.156 8.09375C124.531 8.0625 124.82 8.0625 125.023 8.09375C125.242 8.125 125.352 8.28906 125.352 8.58594C125.352 8.85156 125.328 9.26562 125.281 9.82812C125.25 10.375 125.211 11.1406 125.164 12.125C125.336 11.7344 125.539 11.2969 125.773 10.8125C126.008 10.3125 126.258 9.85156 126.523 9.42969C126.789 8.99219 127.062 8.63281 127.344 8.35156C127.625 8.05469 127.891 7.90625 128.141 7.90625C128.312 7.90625 128.508 7.94531 128.727 8.02344C128.961 8.08594 129.18 8.17969 129.383 8.30469C129.586 8.41406 129.766 8.53906 129.922 8.67969C130.094 8.82031 130.211 8.96094 130.273 9.10156C130.336 9.25781 130.375 9.5 130.391 9.82812C130.406 10.1562 130.406 10.5234 130.391 10.9297C130.516 10.6328 130.656 10.3438 130.812 10.0625C130.969 9.78125 131.125 9.52344 131.281 9.28906C131.453 9.03906 131.625 8.82812 131.797 8.65625C131.969 8.48438 132.125 8.36719 132.266 8.30469C132.453 8.22656 132.68 8.21094 132.945 8.25781C133.211 8.30469 133.469 8.39062 133.719 8.51562C133.984 8.625 134.211 8.75781 134.398 8.91406C134.602 9.07031 134.727 9.21875 134.773 9.35938C134.82 9.51562 134.859 9.75781 134.891 10.0859C134.922 10.4141 134.945 10.7734 134.961 11.1641C134.977 11.5547 134.984 11.9609 134.984 12.3828C134.984 12.7891 134.977 13.1484 134.961 13.4609C134.93 14.3672 134.938 15.0859 134.984 15.6172C135.031 16.1328 135.219 16.5156 135.547 16.7656C135.328 16.9062 135.125 17.0078 134.938 17.0703C134.75 17.1484 134.586 17.2031 134.445 17.2344C134.273 17.2812 134.125 17.3047 134 17.3047C133.828 17.3047 133.688 17.2578 133.578 17.1641C133.469 17.0859 133.383 16.9766 133.32 16.8359C133.258 16.6953 133.219 16.5391 133.203 16.3672C133.188 16.1953 133.18 16.0234 133.18 15.8516C133.18 15.6953 133.188 15.4375 133.203 15.0781C133.234 14.7031 133.258 14.2812 133.273 13.8125C133.289 13.3438 133.289 12.8672 133.273 12.3828C133.258 11.8828 133.219 11.4297 133.156 11.0234C133.109 10.6016 133.023 10.2578 132.898 9.99219C132.773 9.72656 132.602 9.59375 132.383 9.59375C132.195 9.59375 132.016 9.71094 131.844 9.94531C131.672 10.1641 131.508 10.4609 131.352 10.8359C131.195 11.1953 131.055 11.6016 130.93 12.0547C130.82 12.4922 130.719 12.9297 130.625 13.3672C130.531 13.8047 130.461 14.2109 130.414 14.5859C130.367 14.9453 130.344 15.2344 130.344 15.4531L130.32 15.2422C130.32 15.5391 130.32 15.8125 130.32 16.0625C130.336 16.3125 130.352 16.5625 130.367 16.8125C130.383 16.9062 130.297 16.9844 130.109 17.0469C129.922 17.125 129.711 17.1562 129.477 17.1406C129.258 17.1406 129.055 17.0938 128.867 17C128.68 16.9062 128.586 16.75 128.586 16.5312C128.586 16.375 128.586 16.1406 128.586 15.8281C128.586 15.5156 128.578 15.1641 128.562 14.7734C128.562 14.3828 128.555 13.9766 128.539 13.5547C128.539 13.1172 128.531 12.7031 128.516 12.3125C128.516 12.0156 128.508 11.7109 128.492 11.3984C128.492 11.0859 128.477 10.8047 128.445 10.5547C128.414 10.2891 128.352 10.0781 128.258 9.92188C128.18 9.76562 128.062 9.6875 127.906 9.6875ZM136.906 8.70312C136.906 8.60938 137.031 8.50781 137.281 8.39844C137.531 8.28906 137.805 8.20312 138.102 8.14062C138.414 8.0625 138.695 8.02344 138.945 8.02344C139.211 8.00781 139.344 8.0625 139.344 8.1875C139.344 8.42188 139.328 8.75781 139.297 9.19531C139.266 9.61719 139.227 10.0703 139.18 10.5547C139.133 11.0234 139.086 11.5 139.039 11.9844C138.992 12.4531 138.961 12.8516 138.945 13.1797C138.914 13.5234 138.883 13.8984 138.852 14.3047C138.82 14.6484 138.797 15.0312 138.781 15.4531C138.766 15.875 138.766 16.3047 138.781 16.7422C138.781 16.8203 138.703 16.8984 138.547 16.9766C138.391 17.0547 138.219 17.1094 138.031 17.1406C137.844 17.1875 137.664 17.2109 137.492 17.2109C137.32 17.2109 137.227 17.1797 137.211 17.1172C137.18 17.0547 137.148 16.9453 137.117 16.7891C137.086 16.6328 137.055 16.4141 137.023 16.1328C136.992 15.8359 136.969 15.4609 136.953 15.0078C136.938 14.5391 136.945 13.9766 136.977 13.3203C137.039 12.0234 137.047 11.0234 137 10.3203C136.953 9.60156 136.922 9.0625 136.906 8.70312ZM138.547 4.03906C138.859 4.03906 139.156 4.13281 139.438 4.32031C139.719 4.50781 139.859 4.75781 139.859 5.07031C139.859 5.30469 139.797 5.53125 139.672 5.75C139.562 5.96875 139.422 6.16406 139.25 6.33594C139.078 6.50781 138.883 6.64844 138.664 6.75781C138.445 6.85156 138.242 6.89844 138.055 6.89844C137.805 6.89844 137.602 6.85938 137.445 6.78125C137.289 6.6875 137.164 6.58594 137.07 6.47656C136.992 6.35156 136.938 6.21875 136.906 6.07812C136.875 5.9375 136.859 5.80469 136.859 5.67969C136.859 5.52344 136.883 5.35156 136.93 5.16406C136.977 4.96094 137.062 4.78125 137.188 4.625C137.312 4.45312 137.484 4.3125 137.703 4.20312C137.922 4.09375 138.203 4.03906 138.547 4.03906ZM137.961 6.21875C138.055 6.21875 138.156 6.1875 138.266 6.125C138.391 6.04688 138.5 5.96094 138.594 5.86719C138.703 5.77344 138.789 5.67188 138.852 5.5625C138.93 5.45312 138.969 5.35938 138.969 5.28125C138.969 5.15625 138.906 5.09375 138.781 5.09375C138.703 5.09375 138.602 5.125 138.477 5.1875C138.367 5.25 138.258 5.32812 138.148 5.42188C138.039 5.5 137.945 5.59375 137.867 5.70312C137.805 5.79688 137.773 5.89062 137.773 5.98438C137.773 6.14062 137.836 6.21875 137.961 6.21875ZM143.398 16.3672C143.383 16.4609 143.297 16.5625 143.141 16.6719C143 16.7656 142.828 16.8516 142.625 16.9297C142.438 17.0078 142.258 17.0547 142.086 17.0703C141.914 17.1016 141.797 17.0859 141.734 17.0234C141.672 16.9609 141.57 16.8438 141.43 16.6719C141.289 16.5 141.203 16.2188 141.172 15.8281C141.141 15.4219 141.125 14.9141 141.125 14.3047C141.125 13.6797 141.117 12.9922 141.102 12.2422V11.3047C141.102 11.0234 141.094 10.6953 141.078 10.3203C141.078 9.94531 141.07 9.55469 141.055 9.14844C141.195 9.07031 141.336 9 141.477 8.9375C141.633 8.85938 141.773 8.79688 141.898 8.75C142.039 8.6875 142.172 8.64062 142.297 8.60938C142.625 8.51562 142.875 8.46094 143.047 8.44531C143.219 8.42969 143.32 8.48438 143.352 8.60938C143.367 8.70312 143.359 8.92969 143.328 9.28906C143.297 9.60156 143.258 10.0781 143.211 10.7188C143.164 11.3438 143.086 12.2188 142.977 13.3438C143.18 12.8438 143.344 12.4141 143.469 12.0547C143.609 11.6953 143.727 11.4062 143.82 11.1875C143.914 10.9219 144 10.7109 144.078 10.5547C144.156 10.3516 144.258 10.125 144.383 9.875C144.508 9.625 144.633 9.39062 144.758 9.17188C144.898 8.95312 145.023 8.75781 145.133 8.58594C145.258 8.41406 145.352 8.3125 145.414 8.28125C145.461 8.25 145.602 8.25 145.836 8.28125C146.07 8.3125 146.32 8.39062 146.586 8.51562C146.852 8.625 147.109 8.78906 147.359 9.00781C147.609 9.21094 147.773 9.46094 147.852 9.75781C147.945 10.1016 147.977 10.5547 147.945 11.1172C147.93 11.6797 147.891 12.2578 147.828 12.8516C147.781 13.4453 147.742 14.0078 147.711 14.5391C147.68 15.0703 147.711 15.4766 147.805 15.7578C147.836 15.9141 147.883 16.0547 147.945 16.1797C147.977 16.3047 148.016 16.4219 148.062 16.5312C148.125 16.625 148.188 16.6953 148.25 16.7422C147.875 16.9141 147.57 17.0391 147.336 17.1172C147.102 17.1953 146.922 17.25 146.797 17.2812C146.641 17.3281 146.531 17.3438 146.469 17.3281C146.328 17.2812 146.203 17.1641 146.094 16.9766C146 16.7891 145.914 16.4922 145.836 16.0859C145.805 15.9609 145.789 15.7578 145.789 15.4766C145.805 15.1797 145.828 14.8516 145.859 14.4922C145.891 14.1172 145.922 13.7344 145.953 13.3438C146 12.9375 146.031 12.5625 146.047 12.2188C146.078 11.8594 146.102 11.5547 146.117 11.3047C146.133 11.0391 146.133 10.8594 146.117 10.7656C146.039 10.4844 145.93 10.2891 145.789 10.1797C145.648 10.0547 145.539 10.0391 145.461 10.1328C145.258 10.3672 145.039 10.75 144.805 11.2812C144.586 11.7969 144.375 12.3672 144.172 12.9922C143.969 13.6016 143.797 14.2109 143.656 14.8203C143.516 15.4297 143.43 15.9453 143.398 16.3672ZM157.227 2.11719C157.227 2.28906 157.211 2.625 157.18 3.125C157.148 3.625 157.109 4.22656 157.062 4.92969C157.016 5.63281 156.969 6.40625 156.922 7.25C156.875 8.09375 156.836 8.95312 156.805 9.82812C156.773 10.7031 156.742 11.5234 156.711 12.2891C156.695 13.0391 156.688 13.7109 156.688 14.3047C156.703 14.8984 156.734 15.3984 156.781 15.8047C156.828 16.1953 156.898 16.4609 156.992 16.6016L155.938 17C155.859 17.0312 155.766 17.0469 155.656 17.0469C155.547 17.0469 155.43 17.0156 155.305 16.9531C155.195 16.8906 155.102 16.7812 155.023 16.625C154.945 16.4688 154.906 16.25 154.906 15.9688C154.906 15.8594 154.906 15.7266 154.906 15.5703C154.922 15.3984 154.93 15.2031 154.93 14.9844C154.742 15.2969 154.539 15.6016 154.32 15.8984C154.102 16.1953 153.859 16.4531 153.594 16.6719C153.344 16.8906 153.07 17.0625 152.773 17.1875C152.477 17.3281 152.164 17.3984 151.836 17.3984C151.523 17.3984 151.219 17.3281 150.922 17.1875C150.625 17.0625 150.359 16.8672 150.125 16.6016C149.891 16.3359 149.695 15.9922 149.539 15.5703C149.398 15.1484 149.328 14.6406 149.328 14.0469C149.328 12.9688 149.453 12.0312 149.703 11.2344C149.953 10.4219 150.266 9.75 150.641 9.21875C151.031 8.67188 151.445 8.26562 151.883 8C152.336 7.71875 152.75 7.57812 153.125 7.57812C153.703 7.57812 154.148 7.73438 154.461 8.04688C154.773 8.34375 155 8.65625 155.141 8.98438C155.156 8.53125 155.164 8.10938 155.164 7.71875C155.18 7.3125 155.188 6.96875 155.188 6.6875C155.188 5.53125 155.164 4.5 155.117 3.59375C155.07 2.6875 154.953 2 154.766 1.53125C154.984 1.40625 155.18 1.3125 155.352 1.25C155.539 1.1875 155.703 1.14063 155.844 1.10938C156.016 1.0625 156.164 1.03906 156.289 1.03906C156.633 1.03906 156.875 1.14063 157.016 1.34375C157.156 1.53125 157.227 1.78906 157.227 2.11719ZM155 12.9922C155.031 12.5859 155.047 12.1641 155.047 11.7266C155.062 11.2734 155.078 10.8203 155.094 10.3672C154.984 10.5391 154.852 10.6875 154.695 10.8125C154.555 10.9375 154.398 10.9688 154.227 10.9062C154.289 10.4375 154.281 10.0781 154.203 9.82812C154.141 9.57812 154.047 9.39062 153.922 9.26562C153.781 9.125 153.617 9.04688 153.43 9.03125C153.148 9.03125 152.867 9.1875 152.586 9.5C152.32 9.8125 152.078 10.2031 151.859 10.6719C151.656 11.125 151.492 11.6172 151.367 12.1484C151.242 12.6641 151.18 13.1406 151.18 13.5781C151.18 14.4531 151.297 15.0625 151.531 15.4062C151.781 15.75 152.047 15.9219 152.328 15.9219C152.562 15.9219 152.805 15.8281 153.055 15.6406C153.32 15.4531 153.57 15.2109 153.805 14.9141C154.055 14.6172 154.281 14.3047 154.484 13.9766C154.703 13.6328 154.875 13.3047 155 12.9922ZM161.727 17.2578C160.633 17.2578 159.789 16.8906 159.195 16.1562C158.602 15.4219 158.305 14.4609 158.305 13.2734C158.305 12.4453 158.422 11.6719 158.656 10.9531C158.906 10.2188 159.234 9.58594 159.641 9.05469C160.047 8.52344 160.516 8.10938 161.047 7.8125C161.594 7.5 162.164 7.34375 162.758 7.34375C163.336 7.34375 163.828 7.55469 164.234 7.97656C164.641 8.38281 164.844 8.96875 164.844 9.73438C164.844 10.2344 164.734 10.7344 164.516 11.2344C164.297 11.7188 164.008 12.1562 163.648 12.5469C163.305 12.9219 162.922 13.2266 162.5 13.4609C162.078 13.6953 161.672 13.8125 161.281 13.8125C161.031 13.8125 160.82 13.7812 160.648 13.7188C160.477 13.6562 160.32 13.5625 160.18 13.4375C160.227 14.3281 160.422 14.9531 160.766 15.3125C161.109 15.6562 161.555 15.8281 162.102 15.8281C162.477 15.8281 162.805 15.75 163.086 15.5938C163.383 15.4375 163.633 15.2578 163.836 15.0547C164.039 14.8516 164.203 14.6484 164.328 14.4453C164.453 14.2266 164.539 14.0625 164.586 13.9531C164.633 13.8594 164.711 13.8125 164.82 13.8125C164.945 13.8125 165.008 13.9062 165.008 14.0938C165.008 14.2656 164.945 14.5312 164.82 14.8906C164.711 15.2344 164.523 15.5859 164.258 15.9453C163.992 16.2891 163.648 16.5938 163.227 16.8594C162.82 17.125 162.32 17.2578 161.727 17.2578ZM162.805 8.35156C162.711 8.35156 162.531 8.45312 162.266 8.65625C162.016 8.84375 161.742 9.125 161.445 9.5C161.164 9.875 160.898 10.3281 160.648 10.8594C160.414 11.375 160.266 11.9609 160.203 12.6172C161.141 12.3984 161.883 12.0547 162.43 11.5859C162.977 11.1172 163.25 10.4297 163.25 9.52344C163.25 9.07031 163.195 8.76562 163.086 8.60938C162.977 8.4375 162.883 8.35156 162.805 8.35156ZM173.984 2.11719C173.984 2.28906 173.969 2.625 173.938 3.125C173.906 3.625 173.867 4.22656 173.82 4.92969C173.773 5.63281 173.727 6.40625 173.68 7.25C173.633 8.09375 173.594 8.95312 173.562 9.82812C173.531 10.7031 173.5 11.5234 173.469 12.2891C173.453 13.0391 173.445 13.7109 173.445 14.3047C173.461 14.8984 173.492 15.3984 173.539 15.8047C173.586 16.1953 173.656 16.4609 173.75 16.6016L172.695 17C172.617 17.0312 172.523 17.0469 172.414 17.0469C172.305 17.0469 172.188 17.0156 172.062 16.9531C171.953 16.8906 171.859 16.7812 171.781 16.625C171.703 16.4688 171.664 16.25 171.664 15.9688C171.664 15.8594 171.664 15.7266 171.664 15.5703C171.68 15.3984 171.688 15.2031 171.688 14.9844C171.5 15.2969 171.297 15.6016 171.078 15.8984C170.859 16.1953 170.617 16.4531 170.352 16.6719C170.102 16.8906 169.828 17.0625 169.531 17.1875C169.234 17.3281 168.922 17.3984 168.594 17.3984C168.281 17.3984 167.977 17.3281 167.68 17.1875C167.383 17.0625 167.117 16.8672 166.883 16.6016C166.648 16.3359 166.453 15.9922 166.297 15.5703C166.156 15.1484 166.086 14.6406 166.086 14.0469C166.086 12.9688 166.211 12.0312 166.461 11.2344C166.711 10.4219 167.023 9.75 167.398 9.21875C167.789 8.67188 168.203 8.26562 168.641 8C169.094 7.71875 169.508 7.57812 169.883 7.57812C170.461 7.57812 170.906 7.73438 171.219 8.04688C171.531 8.34375 171.758 8.65625 171.898 8.98438C171.914 8.53125 171.922 8.10938 171.922 7.71875C171.938 7.3125 171.945 6.96875 171.945 6.6875C171.945 5.53125 171.922 4.5 171.875 3.59375C171.828 2.6875 171.711 2 171.523 1.53125C171.742 1.40625 171.938 1.3125 172.109 1.25C172.297 1.1875 172.461 1.14063 172.602 1.10938C172.773 1.0625 172.922 1.03906 173.047 1.03906C173.391 1.03906 173.633 1.14063 173.773 1.34375C173.914 1.53125 173.984 1.78906 173.984 2.11719ZM171.758 12.9922C171.789 12.5859 171.805 12.1641 171.805 11.7266C171.82 11.2734 171.836 10.8203 171.852 10.3672C171.742 10.5391 171.609 10.6875 171.453 10.8125C171.312 10.9375 171.156 10.9688 170.984 10.9062C171.047 10.4375 171.039 10.0781 170.961 9.82812C170.898 9.57812 170.805 9.39062 170.68 9.26562C170.539 9.125 170.375 9.04688 170.188 9.03125C169.906 9.03125 169.625 9.1875 169.344 9.5C169.078 9.8125 168.836 10.2031 168.617 10.6719C168.414 11.125 168.25 11.6172 168.125 12.1484C168 12.6641 167.938 13.1406 167.938 13.5781C167.938 14.4531 168.055 15.0625 168.289 15.4062C168.539 15.75 168.805 15.9219 169.086 15.9219C169.32 15.9219 169.562 15.8281 169.812 15.6406C170.078 15.4531 170.328 15.2109 170.562 14.9141C170.812 14.6172 171.039 14.3047 171.242 13.9766C171.461 13.6328 171.633 13.3047 171.758 12.9922ZM62.2812 41.5469C62.625 41.6719 62.9531 41.7891 63.2656 41.8984C63.5781 42.0078 63.8516 42.1406 64.0859 42.2969C64.3203 42.4531 64.5078 42.6406 64.6484 42.8594C64.7891 43.0625 64.8594 43.3203 64.8594 43.6328C64.8594 44.0078 64.7734 44.3594 64.6016 44.6875C64.4453 45.0156 64.2109 45.3047 63.8984 45.5547C63.5859 45.8047 63.2031 46 62.75 46.1406C62.3125 46.2969 61.8203 46.375 61.2734 46.375C60.6641 46.375 60.1719 46.3125 59.7969 46.1875C59.4219 46.0781 59.1328 45.9453 58.9297 45.7891C58.7266 45.6328 58.5938 45.4766 58.5312 45.3203C58.4688 45.1641 58.4375 45.0391 58.4375 44.9453C58.4375 44.7578 58.4766 44.5547 58.5547 44.3359C58.6328 44.1016 58.7812 43.8516 59 43.5859C59.0938 43.4766 59.1953 43.375 59.3047 43.2812C59.5234 43.0938 59.7422 42.9766 59.9609 42.9297C59.9297 43.2891 59.9688 43.5859 60.0781 43.8203C60.2031 44.0391 60.3594 44.2109 60.5469 44.3359C60.75 44.4609 60.9688 44.5469 61.2031 44.5938C61.4531 44.6406 61.6875 44.6641 61.9062 44.6641C62.125 44.6641 62.3438 44.6328 62.5625 44.5703C62.7969 44.5078 63.0078 44.4297 63.1953 44.3359C63.3828 44.2266 63.5312 44.1094 63.6406 43.9844C63.7656 43.8438 63.8281 43.6953 63.8281 43.5391C63.8281 43.3672 63.7578 43.2266 63.6172 43.1172C63.4766 43.0078 63.2969 42.9219 63.0781 42.8594C62.875 42.7812 62.6484 42.7266 62.3984 42.6953C62.1641 42.6484 61.9375 42.6016 61.7188 42.5547C61.5 42.5078 61.2031 42.4453 60.8281 42.3672C60.4688 42.2734 60.1094 42.1328 59.75 41.9453C59.4062 41.7578 59.1016 41.5078 58.8359 41.1953C58.5859 40.8828 58.4609 40.4688 58.4609 39.9531C58.4609 39.3594 58.6094 38.8438 58.9062 38.4062C59.2188 37.9531 59.5938 37.5781 60.0312 37.2812C60.4844 36.9688 60.9609 36.7344 61.4609 36.5781C61.9609 36.4219 62.4062 36.3438 62.7969 36.3438C63 36.3438 63.2188 36.375 63.4531 36.4375C63.6875 36.4844 63.9062 36.5781 64.1094 36.7188C64.3125 36.8438 64.4766 37.0156 64.6016 37.2344C64.7422 37.4531 64.8125 37.7344 64.8125 38.0781C64.8125 38.4219 64.7812 38.7031 64.7188 38.9219C64.6719 39.125 64.5938 39.2891 64.4844 39.4141C64.3906 39.5234 64.2734 39.5938 64.1328 39.625C63.9922 39.6562 63.8281 39.6719 63.6406 39.6719C63.5156 39.6719 63.3984 39.6562 63.2891 39.625C63.1953 39.5938 63.0938 39.5625 62.9844 39.5312C62.875 39.5 62.7734 39.4453 62.6797 39.3672C62.8359 39.1797 62.9531 39 63.0312 38.8281C63.125 38.6562 63.1719 38.4453 63.1719 38.1953C63.1719 37.9766 63.1094 37.7812 62.9844 37.6094C62.875 37.4375 62.6875 37.3516 62.4219 37.3516C62.1406 37.3516 61.8672 37.4062 61.6016 37.5156C61.3516 37.625 61.125 37.7734 60.9219 37.9609C60.7344 38.1484 60.5781 38.3672 60.4531 38.6172C60.3438 38.8516 60.2891 39.1094 60.2891 39.3906C60.2891 39.8125 60.4453 40.2109 60.7578 40.5859C61.0859 40.9609 61.5938 41.2812 62.2812 41.5469ZM75.0312 35.5703C74.8594 35.5391 74.625 35.5078 74.3281 35.4766C74.0469 35.4453 73.7578 35.4219 73.4609 35.4062C73.1172 35.3906 72.75 35.3828 72.3594 35.3828C71.9688 35.3516 71.4766 35.3516 70.8828 35.3828C70.3047 35.3984 69.6953 35.4062 69.0547 35.4062C69.0391 35.8125 69.0078 36.2266 68.9609 36.6484C68.9297 37.0703 68.8984 37.4844 68.8672 37.8906C68.7891 38.6406 68.7188 39.4062 68.6562 40.1875C68.6094 40.9688 68.5859 41.7109 68.5859 42.4141C68.5859 43.1172 68.625 43.7578 68.7031 44.3359C68.7969 44.8984 68.9609 45.3438 69.1953 45.6719C69.0078 45.8125 68.8047 45.9219 68.5859 46C68.3672 46.0625 68.1719 46.1094 68 46.1406C67.7969 46.1875 67.5938 46.2109 67.3906 46.2109C67.2031 46.2109 67.0469 46.1484 66.9219 46.0234C66.7969 45.8984 66.7266 45.6797 66.7109 45.3672C66.6797 44.8359 66.6719 44.3047 66.6875 43.7734C66.7188 43.2266 66.75 42.6562 66.7812 42.0625C66.8281 41.4688 66.875 40.8359 66.9219 40.1641C66.9688 39.4766 67.0156 38.7266 67.0625 37.9141C67.1094 37.0703 67.1328 36.25 67.1328 35.4531C66.5391 35.4688 66.0391 35.4766 65.6328 35.4766C65.2266 35.4766 65 35.4688 64.9531 35.4531C64.9062 35.4219 64.8516 35.3516 64.7891 35.2422C64.7266 35.1484 64.6484 35.0078 64.5547 34.8203C64.4453 34.6328 64.3125 34.3672 64.1562 34.0234C64.4531 34.0234 64.7812 34.0234 65.1406 34.0234C65.4844 34.0234 65.8047 34.0156 66.1016 34C66.4453 33.9844 66.7891 33.9688 67.1328 33.9531C67.1172 33.7031 67.1094 33.4375 67.1094 33.1562C67.0938 32.9375 67.0859 32.6953 67.0859 32.4297C67.0859 32.1484 67.0781 31.8906 67.0625 31.6562C67.0625 31.5625 67.1719 31.4531 67.3906 31.3281C67.625 31.1875 67.875 31.0625 68.1406 30.9531C68.4062 30.8438 68.6484 30.7734 68.8672 30.7422C69.1016 30.7109 69.2188 30.7656 69.2188 30.9062C69.2188 31.0469 69.2109 31.3906 69.1953 31.9375C69.1953 32.4688 69.1797 33.1172 69.1484 33.8828C69.3047 33.8828 69.4219 33.875 69.5 33.8594C70.3281 33.8281 70.9922 33.7969 71.4922 33.7656C72.0078 33.7188 72.4297 33.7109 72.7578 33.7422C73.0859 33.7734 73.375 33.8516 73.625 33.9766C73.875 34.1016 74.1562 34.3047 74.4688 34.5859C74.5781 34.6797 74.6719 34.7812 74.75 34.8906C74.8281 34.9844 74.8906 35.0938 74.9375 35.2188C75 35.3281 75.0312 35.4453 75.0312 35.5703ZM76.4141 37.2812C76.4141 37.1094 76.5156 36.9844 76.7188 36.9062C76.9375 36.8125 77.1641 36.7656 77.3984 36.7656C77.6484 36.7656 77.875 36.8125 78.0781 36.9062C78.2812 36.9844 78.375 37.0938 78.3594 37.2344C78.3438 37.3438 78.3281 37.5625 78.3125 37.8906C78.2969 38.2031 78.2734 38.5781 78.2422 39.0156C78.2266 39.4531 78.2031 39.9219 78.1719 40.4219C78.1406 40.9219 78.1094 41.4141 78.0781 41.8984C78.0625 42.3672 78.0469 42.8047 78.0312 43.2109C78.0312 43.6172 78.0312 43.9297 78.0312 44.1484C78.0312 44.4297 78.0469 44.6875 78.0781 44.9219C78.1094 45.125 78.1484 45.3281 78.1953 45.5312C78.2422 45.7188 78.3125 45.8516 78.4062 45.9297C78.2812 45.9766 78.1484 46.0078 78.0078 46.0234C77.8828 46.0391 77.7656 46.0547 77.6562 46.0703C77.5312 46.0859 77.4062 46.0938 77.2812 46.0938C77.0156 46.0938 76.7891 46.0391 76.6016 45.9297C76.4297 45.8203 76.3438 45.5938 76.3438 45.25C76.3438 45.0781 76.3516 44.8281 76.3672 44.5C76.3984 44.1719 76.4297 43.8203 76.4609 43.4453C76.3516 43.7734 76.2188 44.1094 76.0625 44.4531C75.9062 44.7969 75.7109 45.1016 75.4766 45.3672C75.2578 45.6328 75.0078 45.8516 74.7266 46.0234C74.4453 46.1953 74.125 46.2812 73.7656 46.2812C73.3594 46.2812 72.9844 46.1953 72.6406 46.0234C72.3125 45.8516 72.0234 45.6094 71.7734 45.2969C71.5234 44.9688 71.3359 44.5703 71.2109 44.1016C71.0859 43.6328 71.0391 43.0938 71.0703 42.4844C71.0703 42.0156 71.0781 41.5156 71.0938 40.9844C71.1094 40.5312 71.1328 40.0078 71.1641 39.4141C71.1953 38.8203 71.25 38.2031 71.3281 37.5625C71.3438 37.5 71.4531 37.4219 71.6562 37.3281C71.8594 37.2344 72.0859 37.1562 72.3359 37.0938C72.5859 37.0312 72.8281 37.0078 73.0625 37.0234C73.2969 37.0391 73.4688 37.1328 73.5781 37.3047C73.5 37.5859 73.4219 37.9219 73.3438 38.3125C73.2656 38.6875 73.1953 39.0781 73.1328 39.4844C73.0703 39.8906 73.0234 40.2891 72.9922 40.6797C72.9609 41.0703 72.9453 41.4297 72.9453 41.7578C72.9453 42.0547 72.9609 42.3828 72.9922 42.7422C73.0234 43.0859 73.0781 43.4141 73.1562 43.7266C73.25 44.0234 73.375 44.2734 73.5312 44.4766C73.7031 44.6797 73.9219 44.7812 74.1875 44.7812C74.4844 44.7812 74.7422 44.6562 74.9609 44.4062C75.1953 44.1406 75.3906 43.8047 75.5469 43.3984C75.7031 42.9922 75.8359 42.5312 75.9453 42.0156C76.0547 41.4844 76.1406 40.9609 76.2031 40.4453C76.2812 39.9297 76.3281 39.4375 76.3438 38.9688C76.375 38.4844 76.3984 38.0781 76.4141 37.75V37.2812ZM87.6172 31.1172C87.6172 31.2891 87.6016 31.625 87.5703 32.125C87.5391 32.625 87.5 33.2266 87.4531 33.9297C87.4062 34.6328 87.3594 35.4062 87.3125 36.25C87.2656 37.0938 87.2266 37.9531 87.1953 38.8281C87.1641 39.7031 87.1328 40.5234 87.1016 41.2891C87.0859 42.0391 87.0781 42.7109 87.0781 43.3047C87.0938 43.8984 87.125 44.3984 87.1719 44.8047C87.2188 45.1953 87.2891 45.4609 87.3828 45.6016L86.3281 46C86.25 46.0312 86.1562 46.0469 86.0469 46.0469C85.9375 46.0469 85.8203 46.0156 85.6953 45.9531C85.5859 45.8906 85.4922 45.7812 85.4141 45.625C85.3359 45.4688 85.2969 45.25 85.2969 44.9688C85.2969 44.8594 85.2969 44.7266 85.2969 44.5703C85.3125 44.3984 85.3203 44.2031 85.3203 43.9844C85.1328 44.2969 84.9297 44.6016 84.7109 44.8984C84.4922 45.1953 84.25 45.4531 83.9844 45.6719C83.7344 45.8906 83.4609 46.0625 83.1641 46.1875C82.8672 46.3281 82.5547 46.3984 82.2266 46.3984C81.9141 46.3984 81.6094 46.3281 81.3125 46.1875C81.0156 46.0625 80.75 45.8672 80.5156 45.6016C80.2812 45.3359 80.0859 44.9922 79.9297 44.5703C79.7891 44.1484 79.7188 43.6406 79.7188 43.0469C79.7188 41.9688 79.8438 41.0312 80.0938 40.2344C80.3438 39.4219 80.6562 38.75 81.0312 38.2188C81.4219 37.6719 81.8359 37.2656 82.2734 37C82.7266 36.7188 83.1406 36.5781 83.5156 36.5781C84.0938 36.5781 84.5391 36.7344 84.8516 37.0469C85.1641 37.3438 85.3906 37.6562 85.5312 37.9844C85.5469 37.5312 85.5547 37.1094 85.5547 36.7188C85.5703 36.3125 85.5781 35.9688 85.5781 35.6875C85.5781 34.5312 85.5547 33.5 85.5078 32.5938C85.4609 31.6875 85.3438 31 85.1562 30.5312C85.375 30.4062 85.5703 30.3125 85.7422 30.25C85.9297 30.1875 86.0938 30.1406 86.2344 30.1094C86.4062 30.0625 86.5547 30.0391 86.6797 30.0391C87.0234 30.0391 87.2656 30.1406 87.4062 30.3438C87.5469 30.5312 87.6172 30.7891 87.6172 31.1172ZM85.3906 41.9922C85.4219 41.5859 85.4375 41.1641 85.4375 40.7266C85.4531 40.2734 85.4688 39.8203 85.4844 39.3672C85.375 39.5391 85.2422 39.6875 85.0859 39.8125C84.9453 39.9375 84.7891 39.9688 84.6172 39.9062C84.6797 39.4375 84.6719 39.0781 84.5938 38.8281C84.5312 38.5781 84.4375 38.3906 84.3125 38.2656C84.1719 38.125 84.0078 38.0469 83.8203 38.0312C83.5391 38.0312 83.2578 38.1875 82.9766 38.5C82.7109 38.8125 82.4688 39.2031 82.25 39.6719C82.0469 40.125 81.8828 40.6172 81.7578 41.1484C81.6328 41.6641 81.5703 42.1406 81.5703 42.5781C81.5703 43.4531 81.6875 44.0625 81.9219 44.4062C82.1719 44.75 82.4375 44.9219 82.7188 44.9219C82.9531 44.9219 83.1953 44.8281 83.4453 44.6406C83.7109 44.4531 83.9609 44.2109 84.1953 43.9141C84.4453 43.6172 84.6719 43.3047 84.875 42.9766C85.0938 42.6328 85.2656 42.3047 85.3906 41.9922ZM92.1172 46.2578C91.0234 46.2578 90.1797 45.8906 89.5859 45.1562C88.9922 44.4219 88.6953 43.4609 88.6953 42.2734C88.6953 41.4453 88.8125 40.6719 89.0469 39.9531C89.2969 39.2188 89.625 38.5859 90.0312 38.0547C90.4375 37.5234 90.9062 37.1094 91.4375 36.8125C91.9844 36.5 92.5547 36.3438 93.1484 36.3438C93.7266 36.3438 94.2188 36.5547 94.625 36.9766C95.0312 37.3828 95.2344 37.9688 95.2344 38.7344C95.2344 39.2344 95.125 39.7344 94.9062 40.2344C94.6875 40.7188 94.3984 41.1562 94.0391 41.5469C93.6953 41.9219 93.3125 42.2266 92.8906 42.4609C92.4688 42.6953 92.0625 42.8125 91.6719 42.8125C91.4219 42.8125 91.2109 42.7812 91.0391 42.7188C90.8672 42.6562 90.7109 42.5625 90.5703 42.4375C90.6172 43.3281 90.8125 43.9531 91.1562 44.3125C91.5 44.6562 91.9453 44.8281 92.4922 44.8281C92.8672 44.8281 93.1953 44.75 93.4766 44.5938C93.7734 44.4375 94.0234 44.2578 94.2266 44.0547C94.4297 43.8516 94.5938 43.6484 94.7188 43.4453C94.8438 43.2266 94.9297 43.0625 94.9766 42.9531C95.0234 42.8594 95.1016 42.8125 95.2109 42.8125C95.3359 42.8125 95.3984 42.9062 95.3984 43.0938C95.3984 43.2656 95.3359 43.5312 95.2109 43.8906C95.1016 44.2344 94.9141 44.5859 94.6484 44.9453C94.3828 45.2891 94.0391 45.5938 93.6172 45.8594C93.2109 46.125 92.7109 46.2578 92.1172 46.2578ZM93.1953 37.3516C93.1016 37.3516 92.9219 37.4531 92.6562 37.6562C92.4062 37.8438 92.1328 38.125 91.8359 38.5C91.5547 38.875 91.2891 39.3281 91.0391 39.8594C90.8047 40.375 90.6562 40.9609 90.5938 41.6172C91.5312 41.3984 92.2734 41.0547 92.8203 40.5859C93.3672 40.1172 93.6406 39.4297 93.6406 38.5234C93.6406 38.0703 93.5859 37.7656 93.4766 37.6094C93.3672 37.4375 93.2734 37.3516 93.1953 37.3516ZM99.1953 45.3672C99.1797 45.4609 99.0938 45.5625 98.9375 45.6719C98.7969 45.7656 98.625 45.8516 98.4219 45.9297C98.2344 46.0078 98.0547 46.0547 97.8828 46.0703C97.7109 46.1016 97.5938 46.0859 97.5312 46.0234C97.4688 45.9609 97.3672 45.8438 97.2266 45.6719C97.0859 45.5 97 45.2188 96.9688 44.8281C96.9375 44.4219 96.9219 43.9141 96.9219 43.3047C96.9219 42.6797 96.9141 41.9922 96.8984 41.2422V40.3047C96.8984 40.0234 96.8906 39.6953 96.875 39.3203C96.875 38.9453 96.8672 38.5547 96.8516 38.1484C96.9922 38.0703 97.1328 38 97.2734 37.9375C97.4297 37.8594 97.5703 37.7969 97.6953 37.75C97.8359 37.6875 97.9688 37.6406 98.0938 37.6094C98.4219 37.5156 98.6719 37.4609 98.8438 37.4453C99.0156 37.4297 99.1172 37.4844 99.1484 37.6094C99.1641 37.7031 99.1562 37.9297 99.125 38.2891C99.0938 38.6016 99.0547 39.0781 99.0078 39.7188C98.9609 40.3438 98.8828 41.2188 98.7734 42.3438C98.9766 41.8438 99.1406 41.4141 99.2656 41.0547C99.4062 40.6953 99.5234 40.4062 99.6172 40.1875C99.7109 39.9219 99.7969 39.7109 99.875 39.5547C99.9531 39.3516 100.055 39.125 100.18 38.875C100.305 38.625 100.43 38.3906 100.555 38.1719C100.695 37.9531 100.82 37.7578 100.93 37.5859C101.055 37.4141 101.148 37.3125 101.211 37.2812C101.258 37.25 101.398 37.25 101.633 37.2812C101.867 37.3125 102.117 37.3906 102.383 37.5156C102.648 37.625 102.906 37.7891 103.156 38.0078C103.406 38.2109 103.57 38.4609 103.648 38.7578C103.742 39.1016 103.773 39.5547 103.742 40.1172C103.727 40.6797 103.688 41.2578 103.625 41.8516C103.578 42.4453 103.539 43.0078 103.508 43.5391C103.477 44.0703 103.508 44.4766 103.602 44.7578C103.633 44.9141 103.68 45.0547 103.742 45.1797C103.773 45.3047 103.812 45.4219 103.859 45.5312C103.922 45.625 103.984 45.6953 104.047 45.7422C103.672 45.9141 103.367 46.0391 103.133 46.1172C102.898 46.1953 102.719 46.25 102.594 46.2812C102.438 46.3281 102.328 46.3438 102.266 46.3281C102.125 46.2812 102 46.1641 101.891 45.9766C101.797 45.7891 101.711 45.4922 101.633 45.0859C101.602 44.9609 101.586 44.7578 101.586 44.4766C101.602 44.1797 101.625 43.8516 101.656 43.4922C101.688 43.1172 101.719 42.7344 101.75 42.3438C101.797 41.9375 101.828 41.5625 101.844 41.2188C101.875 40.8594 101.898 40.5547 101.914 40.3047C101.93 40.0391 101.93 39.8594 101.914 39.7656C101.836 39.4844 101.727 39.2891 101.586 39.1797C101.445 39.0547 101.336 39.0391 101.258 39.1328C101.055 39.3672 100.836 39.75 100.602 40.2812C100.383 40.7969 100.172 41.3672 99.9688 41.9922C99.7656 42.6016 99.5938 43.2109 99.4531 43.8203C99.3125 44.4297 99.2266 44.9453 99.1953 45.3672ZM114.219 35.5703C114.047 35.5391 113.812 35.5078 113.516 35.4766C113.234 35.4453 112.945 35.4219 112.648 35.4062C112.305 35.3906 111.938 35.3828 111.547 35.3828C111.156 35.3516 110.664 35.3516 110.07 35.3828C109.492 35.3984 108.883 35.4062 108.242 35.4062C108.227 35.8125 108.195 36.2266 108.148 36.6484C108.117 37.0703 108.086 37.4844 108.055 37.8906C107.977 38.6406 107.906 39.4062 107.844 40.1875C107.797 40.9688 107.773 41.7109 107.773 42.4141C107.773 43.1172 107.812 43.7578 107.891 44.3359C107.984 44.8984 108.148 45.3438 108.383 45.6719C108.195 45.8125 107.992 45.9219 107.773 46C107.555 46.0625 107.359 46.1094 107.188 46.1406C106.984 46.1875 106.781 46.2109 106.578 46.2109C106.391 46.2109 106.234 46.1484 106.109 46.0234C105.984 45.8984 105.914 45.6797 105.898 45.3672C105.867 44.8359 105.859 44.3047 105.875 43.7734C105.906 43.2266 105.938 42.6562 105.969 42.0625C106.016 41.4688 106.062 40.8359 106.109 40.1641C106.156 39.4766 106.203 38.7266 106.25 37.9141C106.297 37.0703 106.32 36.25 106.32 35.4531C105.727 35.4688 105.227 35.4766 104.82 35.4766C104.414 35.4766 104.188 35.4688 104.141 35.4531C104.094 35.4219 104.039 35.3516 103.977 35.2422C103.914 35.1484 103.836 35.0078 103.742 34.8203C103.633 34.6328 103.5 34.3672 103.344 34.0234C103.641 34.0234 103.969 34.0234 104.328 34.0234C104.672 34.0234 104.992 34.0156 105.289 34C105.633 33.9844 105.977 33.9688 106.32 33.9531C106.305 33.7031 106.297 33.4375 106.297 33.1562C106.281 32.9375 106.273 32.6953 106.273 32.4297C106.273 32.1484 106.266 31.8906 106.25 31.6562C106.25 31.5625 106.359 31.4531 106.578 31.3281C106.812 31.1875 107.062 31.0625 107.328 30.9531C107.594 30.8438 107.836 30.7734 108.055 30.7422C108.289 30.7109 108.406 30.7656 108.406 30.9062C108.406 31.0469 108.398 31.3906 108.383 31.9375C108.383 32.4688 108.367 33.1172 108.336 33.8828C108.492 33.8828 108.609 33.875 108.688 33.8594C109.516 33.8281 110.18 33.7969 110.68 33.7656C111.195 33.7188 111.617 33.7109 111.945 33.7422C112.273 33.7734 112.562 33.8516 112.812 33.9766C113.062 34.1016 113.344 34.3047 113.656 34.5859C113.766 34.6797 113.859 34.7812 113.938 34.8906C114.016 34.9844 114.078 35.0938 114.125 35.2188C114.188 35.3281 114.219 35.4453 114.219 35.5703ZM113.984 41.5469C114.328 41.6719 114.656 41.7891 114.969 41.8984C115.281 42.0078 115.555 42.1406 115.789 42.2969C116.023 42.4531 116.211 42.6406 116.352 42.8594C116.492 43.0625 116.562 43.3203 116.562 43.6328C116.562 44.0078 116.477 44.3594 116.305 44.6875C116.148 45.0156 115.914 45.3047 115.602 45.5547C115.289 45.8047 114.906 46 114.453 46.1406C114.016 46.2969 113.523 46.375 112.977 46.375C112.367 46.375 111.875 46.3125 111.5 46.1875C111.125 46.0781 110.836 45.9453 110.633 45.7891C110.43 45.6328 110.297 45.4766 110.234 45.3203C110.172 45.1641 110.141 45.0391 110.141 44.9453C110.141 44.7578 110.18 44.5547 110.258 44.3359C110.336 44.1016 110.484 43.8516 110.703 43.5859C110.797 43.4766 110.898 43.375 111.008 43.2812C111.227 43.0938 111.445 42.9766 111.664 42.9297C111.633 43.2891 111.672 43.5859 111.781 43.8203C111.906 44.0391 112.062 44.2109 112.25 44.3359C112.453 44.4609 112.672 44.5469 112.906 44.5938C113.156 44.6406 113.391 44.6641 113.609 44.6641C113.828 44.6641 114.047 44.6328 114.266 44.5703C114.5 44.5078 114.711 44.4297 114.898 44.3359C115.086 44.2266 115.234 44.1094 115.344 43.9844C115.469 43.8438 115.531 43.6953 115.531 43.5391C115.531 43.3672 115.461 43.2266 115.32 43.1172C115.18 43.0078 115 42.9219 114.781 42.8594C114.578 42.7812 114.352 42.7266 114.102 42.6953C113.867 42.6484 113.641 42.6016 113.422 42.5547C113.203 42.5078 112.906 42.4453 112.531 42.3672C112.172 42.2734 111.812 42.1328 111.453 41.9453C111.109 41.7578 110.805 41.5078 110.539 41.1953C110.289 40.8828 110.164 40.4688 110.164 39.9531C110.164 39.3594 110.312 38.8438 110.609 38.4062C110.922 37.9531 111.297 37.5781 111.734 37.2812C112.188 36.9688 112.664 36.7344 113.164 36.5781C113.664 36.4219 114.109 36.3438 114.5 36.3438C114.703 36.3438 114.922 36.375 115.156 36.4375C115.391 36.4844 115.609 36.5781 115.812 36.7188C116.016 36.8438 116.18 37.0156 116.305 37.2344C116.445 37.4531 116.516 37.7344 116.516 38.0781C116.516 38.4219 116.484 38.7031 116.422 38.9219C116.375 39.125 116.297 39.2891 116.188 39.4141C116.094 39.5234 115.977 39.5938 115.836 39.625C115.695 39.6562 115.531 39.6719 115.344 39.6719C115.219 39.6719 115.102 39.6562 114.992 39.625C114.898 39.5938 114.797 39.5625 114.688 39.5312C114.578 39.5 114.477 39.4453 114.383 39.3672C114.539 39.1797 114.656 39 114.734 38.8281C114.828 38.6562 114.875 38.4453 114.875 38.1953C114.875 37.9766 114.812 37.7812 114.688 37.6094C114.578 37.4375 114.391 37.3516 114.125 37.3516C113.844 37.3516 113.57 37.4062 113.305 37.5156C113.055 37.625 112.828 37.7734 112.625 37.9609C112.438 38.1484 112.281 38.3672 112.156 38.6172C112.047 38.8516 111.992 39.1094 111.992 39.3906C111.992 39.8125 112.148 40.2109 112.461 40.5859C112.789 40.9609 113.297 41.2812 113.984 41.5469Z" fill="black"/>
    <path d="M33.7725 69.8574C34.3408 69.8691 34.8535 69.7051 35.3105 69.3652C35.7676 69.0195 36.0664 68.5684 36.207 68.0117L37.71 68.0029C37.6221 68.6006 37.3818 69.1455 36.9893 69.6377C36.6025 70.1299 36.1133 70.5137 35.5215 70.7891C34.9297 71.0645 34.3232 71.1934 33.7021 71.1758C32.9111 71.1641 32.2402 70.959 31.6895 70.5605C31.1445 70.1562 30.7432 69.5967 30.4854 68.8818C30.2275 68.1611 30.1396 67.3525 30.2217 66.4561L30.2656 66.0166C30.377 65.1025 30.6436 64.2852 31.0654 63.5645C31.4873 62.8438 32.0381 62.2842 32.7178 61.8857C33.3975 61.4814 34.1475 61.291 34.9678 61.3145C35.9639 61.3379 36.7607 61.6719 37.3584 62.3164C37.9561 62.9609 38.2549 63.7783 38.2549 64.7686L36.7695 64.7598C36.7578 64.1387 36.585 63.6377 36.251 63.2568C35.917 62.8701 35.4658 62.665 34.8975 62.6416C34.0713 62.624 33.3828 62.9316 32.832 63.5645C32.2871 64.1973 31.9473 65.082 31.8125 66.2188L31.7861 66.4473C31.751 66.8223 31.7451 67.209 31.7686 67.6074C31.8096 68.293 32.0029 68.835 32.3486 69.2334C32.6943 69.6318 33.1689 69.8398 33.7725 69.8574ZM44.2666 61.3145C45.0635 61.3262 45.7461 61.543 46.3145 61.9648C46.8828 62.3867 47.3018 62.9697 47.5713 63.7139C47.8467 64.4521 47.9404 65.2607 47.8525 66.1396L47.835 66.333C47.7236 67.2588 47.4482 68.0967 47.0088 68.8467C46.5693 69.5908 46.001 70.1709 45.3037 70.5869C44.6064 71.0029 43.8418 71.1992 43.0098 71.1758C42.2188 71.1641 41.5361 70.9473 40.9619 70.5254C40.3936 70.1035 39.9775 69.5293 39.7139 68.8027C39.4502 68.0762 39.3564 67.2764 39.4326 66.4033C39.5205 65.4189 39.7871 64.5342 40.2324 63.749C40.6777 62.9639 41.249 62.3574 41.9463 61.9297C42.6494 61.4961 43.4229 61.291 44.2666 61.3145ZM41.0322 66.4121C40.9912 66.7812 40.9912 67.165 41.0322 67.5635C41.0908 68.2549 41.2959 68.8057 41.6475 69.2158C42.0049 69.626 42.4795 69.8398 43.0713 69.8574C43.5986 69.875 44.085 69.7461 44.5303 69.4707C44.9756 69.1895 45.3506 68.7676 45.6553 68.2051C45.96 67.6426 46.1562 67.0186 46.2441 66.333C46.291 65.7939 46.2998 65.3398 46.2705 64.9707C46.2002 64.2617 45.9863 63.7021 45.6289 63.292C45.2715 62.8818 44.7969 62.665 44.2051 62.6416C43.3848 62.624 42.6875 62.9463 42.1133 63.6084C41.5391 64.2705 41.1846 65.1377 41.0498 66.21L41.0322 66.4121ZM52.1768 61.4814L51.9746 62.5449C52.7715 61.7012 53.7354 61.291 54.8662 61.3145C55.4697 61.3262 55.9795 61.4639 56.3955 61.7275C56.8174 61.9912 57.1074 62.3633 57.2656 62.8438C58.1562 61.8008 59.208 61.291 60.4209 61.3145C61.3701 61.3379 62.0703 61.6572 62.5215 62.2725C62.9727 62.8877 63.1396 63.7139 63.0225 64.751L61.9766 71H60.3945L61.4316 64.7334C61.4668 64.4287 61.4668 64.1504 61.4316 63.8984C61.3203 63.1016 60.7988 62.6943 59.8672 62.6768C59.2871 62.665 58.7598 62.8467 58.2852 63.2217C57.8164 63.5908 57.5146 64.0771 57.3799 64.6807L56.2988 71H54.6992L55.7539 64.7422C55.8301 64.0918 55.7305 63.5908 55.4551 63.2393C55.1855 62.8877 54.7637 62.7061 54.1895 62.6943C53.1992 62.6709 52.4111 63.1221 51.8252 64.0479L50.6211 71H49.0303L50.6826 61.4902L52.1768 61.4814ZM66.1602 71H64.5781L66.2305 61.4902H67.8125L66.1602 71ZM67.4697 58.0186C67.7393 58.0068 67.9619 58.0889 68.1377 58.2646C68.3193 58.4346 68.4102 58.6602 68.4102 58.9414C68.4043 59.2168 68.3135 59.4424 68.1377 59.6182C67.9678 59.7939 67.7451 59.8877 67.4697 59.8994C67.1943 59.9111 66.9688 59.832 66.793 59.6621C66.6172 59.4922 66.5322 59.2695 66.5381 58.9941C66.5439 58.7188 66.6318 58.4902 66.8018 58.3086C66.9717 58.127 67.1943 58.0303 67.4697 58.0186ZM71.917 61.4814L71.6885 62.6855C72.5439 61.748 73.5166 61.291 74.6064 61.3145C75.5029 61.3379 76.165 61.6484 76.5928 62.2461C77.0205 62.8438 77.1787 63.6846 77.0674 64.7686L76.0303 71H74.4395L75.4854 64.7422C75.5205 64.4551 75.5234 64.1885 75.4941 63.9424C75.3945 63.1221 74.9111 62.7031 74.0439 62.6855C73.0889 62.668 72.251 63.1777 71.5303 64.2148L70.3525 71H68.7617L70.4141 61.4902L71.917 61.4814ZM78.9482 66.2275C79.0889 65.1904 79.3672 64.291 79.7832 63.5293C80.2051 62.7617 80.7148 62.1963 81.3125 61.833C81.916 61.4639 82.5752 61.2881 83.29 61.3057C84.3916 61.3291 85.2236 61.7451 85.7861 62.5537L86.1025 61.4902H87.5615L85.9795 70.7979C85.8096 72.0107 85.3174 72.9805 84.5029 73.707C83.6885 74.4395 82.6836 74.7881 81.4883 74.7529C80.8438 74.7412 80.2256 74.5889 79.6338 74.2959C79.0479 74.0029 78.585 73.6016 78.2451 73.0918L79.1504 72.1162C79.7246 72.9658 80.4834 73.4023 81.4268 73.4258C82.1826 73.4492 82.8213 73.2383 83.3428 72.793C83.8701 72.3477 84.2188 71.7148 84.3887 70.8945L84.5645 70.0508C83.791 70.8242 82.8857 71.1992 81.8486 71.1758C81.2568 71.1582 80.7412 71 80.3018 70.7012C79.8682 70.3965 79.5312 69.96 79.291 69.3916C79.0508 68.8174 78.9189 68.1787 78.8955 67.4756C78.8838 67.1299 78.9014 66.7139 78.9482 66.2275ZM80.4863 67.1328C80.4688 67.9707 80.6123 68.6211 80.917 69.084C81.2275 69.541 81.6934 69.7812 82.3145 69.8047C83.2637 69.8281 84.0811 69.3623 84.7666 68.4072L85.5137 64.0391C85.1621 63.1719 84.5264 62.7207 83.6064 62.6855C82.7451 62.6621 82.0361 63.0137 81.4795 63.7402C80.9287 64.4668 80.6035 65.4482 80.5039 66.6846L80.4863 67.1328ZM98.6797 68.4248C98.7676 67.7686 98.4072 67.3057 97.5986 67.0361L95.9463 66.5527C94.5518 66.0723 93.8779 65.2754 93.9248 64.1621C93.9658 63.3242 94.3467 62.6387 95.0674 62.1055C95.7939 61.5664 96.6465 61.3027 97.625 61.3145C98.5859 61.3262 99.3652 61.6074 99.9629 62.1582C100.566 62.7031 100.856 63.415 100.833 64.2939L99.251 64.2852C99.2627 63.8105 99.1133 63.4238 98.8027 63.125C98.4922 62.8262 98.0791 62.6709 97.5635 62.6592C97.0127 62.6475 96.5381 62.7822 96.1396 63.0635C95.7705 63.3271 95.5566 63.6729 95.498 64.1006C95.4219 64.6514 95.7588 65.0527 96.5088 65.3047L97.3086 65.5244C98.3984 65.8057 99.1719 66.1719 99.6289 66.623C100.086 67.0742 100.297 67.6338 100.262 68.3018C100.227 68.8936 100.033 69.4092 99.6816 69.8486C99.3301 70.2881 98.8613 70.625 98.2754 70.8594C97.6895 71.0879 97.0654 71.1934 96.4033 71.1758C95.3955 71.1641 94.5635 70.8711 93.9072 70.2969C93.251 69.7168 92.9346 68.9727 92.958 68.0645L94.5488 68.0732C94.5488 68.6064 94.7188 69.0342 95.0586 69.3564C95.3984 69.6787 95.8643 69.8398 96.4561 69.8398C97.0361 69.8516 97.5371 69.7314 97.959 69.4795C98.3809 69.2217 98.6211 68.8701 98.6797 68.4248ZM107.161 61.3145C107.958 61.3262 108.641 61.543 109.209 61.9648C109.777 62.3867 110.196 62.9697 110.466 63.7139C110.741 64.4521 110.835 65.2607 110.747 66.1396L110.729 66.333C110.618 67.2588 110.343 68.0967 109.903 68.8467C109.464 69.5908 108.896 70.1709 108.198 70.5869C107.501 71.0029 106.736 71.1992 105.904 71.1758C105.113 71.1641 104.431 70.9473 103.856 70.5254C103.288 70.1035 102.872 69.5293 102.608 68.8027C102.345 68.0762 102.251 67.2764 102.327 66.4033C102.415 65.4189 102.682 64.5342 103.127 63.749C103.572 62.9639 104.144 62.3574 104.841 61.9297C105.544 61.4961 106.317 61.291 107.161 61.3145ZM103.927 66.4121C103.886 66.7812 103.886 67.165 103.927 67.5635C103.985 68.2549 104.19 68.8057 104.542 69.2158C104.899 69.626 105.374 69.8398 105.966 69.8574C106.493 69.875 106.979 69.7461 107.425 69.4707C107.87 69.1895 108.245 68.7676 108.55 68.2051C108.854 67.6426 109.051 67.0186 109.139 66.333C109.186 65.7939 109.194 65.3398 109.165 64.9707C109.095 64.2617 108.881 63.7021 108.523 63.292C108.166 62.8818 107.691 62.665 107.1 62.6416C106.279 62.624 105.582 62.9463 105.008 63.6084C104.434 64.2705 104.079 65.1377 103.944 66.21L103.927 66.4121ZM117.216 61.3145C118.013 61.3262 118.695 61.543 119.264 61.9648C119.832 62.3867 120.251 62.9697 120.521 63.7139C120.796 64.4521 120.89 65.2607 120.802 66.1396L120.784 66.333C120.673 67.2588 120.397 68.0967 119.958 68.8467C119.519 69.5908 118.95 70.1709 118.253 70.5869C117.556 71.0029 116.791 71.1992 115.959 71.1758C115.168 71.1641 114.485 70.9473 113.911 70.5254C113.343 70.1035 112.927 69.5293 112.663 68.8027C112.399 68.0762 112.306 67.2764 112.382 66.4033C112.47 65.4189 112.736 64.5342 113.182 63.749C113.627 62.9639 114.198 62.3574 114.896 61.9297C115.599 61.4961 116.372 61.291 117.216 61.3145ZM113.981 66.4121C113.94 66.7812 113.94 67.165 113.981 67.5635C114.04 68.2549 114.245 68.8057 114.597 69.2158C114.954 69.626 115.429 69.8398 116.021 69.8574C116.548 69.875 117.034 69.7461 117.479 69.4707C117.925 69.1895 118.3 68.7676 118.604 68.2051C118.909 67.6426 119.105 67.0186 119.193 66.333C119.24 65.7939 119.249 65.3398 119.22 64.9707C119.149 64.2617 118.936 63.7021 118.578 63.292C118.221 62.8818 117.746 62.665 117.154 62.6416C116.334 62.624 115.637 62.9463 115.062 63.6084C114.488 64.2705 114.134 65.1377 113.999 66.21L113.981 66.4121ZM125.144 61.4814L124.915 62.6855C125.771 61.748 126.743 61.291 127.833 61.3145C128.729 61.3379 129.392 61.6484 129.819 62.2461C130.247 62.8438 130.405 63.6846 130.294 64.7686L129.257 71H127.666L128.712 64.7422C128.747 64.4551 128.75 64.1885 128.721 63.9424C128.621 63.1221 128.138 62.7031 127.271 62.6855C126.315 62.668 125.478 63.1777 124.757 64.2148L123.579 71H121.988L123.641 61.4902L125.144 61.4814ZM132.878 69.1543C133.165 69.1484 133.402 69.2363 133.59 69.418C133.777 69.5996 133.868 69.834 133.862 70.1211C133.856 70.4082 133.76 70.6426 133.572 70.8242C133.385 71 133.15 71.0938 132.869 71.1055C132.588 71.1172 132.356 71.0381 132.175 70.8682C131.993 70.6924 131.902 70.4609 131.902 70.1738C131.902 69.8867 131.993 69.6494 132.175 69.4619C132.356 69.2686 132.591 69.166 132.878 69.1543ZM137.571 69.1543C137.858 69.1484 138.096 69.2363 138.283 69.418C138.471 69.5996 138.562 69.834 138.556 70.1211C138.55 70.4082 138.453 70.6426 138.266 70.8242C138.078 71 137.844 71.0938 137.562 71.1055C137.281 71.1172 137.05 71.0381 136.868 70.8682C136.687 70.6924 136.596 70.4609 136.596 70.1738C136.596 69.8867 136.687 69.6494 136.868 69.4619C137.05 69.2686 137.284 69.166 137.571 69.1543ZM142.265 69.1543C142.552 69.1484 142.789 69.2363 142.977 69.418C143.164 69.5996 143.255 69.834 143.249 70.1211C143.243 70.4082 143.146 70.6426 142.959 70.8242C142.771 71 142.537 71.0938 142.256 71.1055C141.975 71.1172 141.743 71.0381 141.562 70.8682C141.38 70.6924 141.289 70.4609 141.289 70.1738C141.289 69.8867 141.38 69.6494 141.562 69.4619C141.743 69.2686 141.978 69.166 142.265 69.1543Z" fill="#DD417C"/>
</svg>
