<svg width="150" height="53" viewBox="0 0 150 53" fill="none" xmlns="http://www.w3.org/2000/svg">
    <path d="M5.87891 19.0625C5.03516 19.0625 4.26953 18.8516 3.58203 18.4297C2.89453 18.0234 2.30859 17.4609 1.82422 16.7422C1.35547 16.0234 0.988281 15.1797 0.722656 14.2109C0.472656 13.2422 0.347656 12.1953 0.347656 11.0703C0.347656 9.46094 0.535156 8.02344 0.910156 6.75781C1.28516 5.49219 1.77734 4.42188 2.38672 3.54688C3.01172 2.67187 3.71484 2 4.49609 1.53125C5.29297 1.0625 6.10547 0.828125 6.93359 0.828125C7.71484 0.828125 8.37109 0.96875 8.90234 1.25C9.43359 1.53125 9.85547 1.89063 10.168 2.32812C10.4961 2.76562 10.7148 3.25 10.8242 3.78125C10.9492 4.29688 10.9883 4.78906 10.9414 5.25781C10.8633 6.16406 10.5508 6.89844 10.0039 7.46094C9.47266 8.02344 8.85547 8.30469 8.15234 8.30469C7.91797 8.28906 7.67578 8.25 7.42578 8.1875C7.20703 8.125 6.98047 8.03125 6.74609 7.90625C6.51172 7.78125 6.29297 7.60156 6.08984 7.36719C6.74609 7.41406 7.25391 7.28125 7.61328 6.96875C7.97266 6.65625 8.23828 6.30469 8.41016 5.91406C8.59766 5.46094 8.70703 4.92969 8.73828 4.32031C8.73828 3.97656 8.68359 3.67969 8.57422 3.42969C8.46484 3.16406 8.31641 2.95312 8.12891 2.79688C7.95703 2.625 7.76953 2.5 7.56641 2.42188C7.36328 2.34375 7.16797 2.30469 6.98047 2.30469C6.55859 2.30469 6.09766 2.46875 5.59766 2.79688C5.11328 3.125 4.65234 3.625 4.21484 4.29688C3.77734 4.95312 3.41016 5.79688 3.11328 6.82812C2.83203 7.84375 2.69141 9.05469 2.69141 10.4609C2.69141 11.8516 2.81641 12.9922 3.06641 13.8828C3.31641 14.7578 3.62109 15.4453 3.98047 15.9453C4.33984 16.4297 4.71484 16.7656 5.10547 16.9531C5.51172 17.125 5.85547 17.2109 6.13672 17.2109C6.68359 17.1641 7.18359 16.9766 7.63672 16.6484C8.02734 16.3672 8.39453 15.9219 8.73828 15.3125C9.09766 14.6875 9.33984 13.7969 9.46484 12.6406C9.66797 12.6562 9.83203 12.7031 9.95703 12.7812C10.0977 12.8594 10.2148 12.9375 10.3086 13.0156C10.4023 13.1094 10.4883 13.2188 10.5664 13.3438C10.582 13.3594 10.582 13.5156 10.5664 13.8125C10.5508 14.1094 10.4961 14.4688 10.4023 14.8906C10.3086 15.3125 10.1602 15.7656 9.95703 16.25C9.76953 16.7344 9.49609 17.1875 9.13672 17.6094C8.79297 18.0312 8.35547 18.375 7.82422 18.6406C7.29297 18.9219 6.64453 19.0625 5.87891 19.0625ZM18.5352 9.80469C18.5352 10.0234 18.4727 10.25 18.3477 10.4844C18.2383 10.7031 18.0977 10.9141 17.9258 11.1172C17.7539 11.3203 17.5586 11.5 17.3398 11.6562C17.1367 11.7969 16.9414 11.8828 16.7539 11.9141C16.8789 11.4297 16.918 11.0547 16.8711 10.7891C16.8242 10.5234 16.7461 10.3281 16.6367 10.2031C16.5117 10.0625 16.3555 9.98438 16.168 9.96875C15.8867 9.96875 15.6133 10.1328 15.3477 10.4609C15.0977 10.7734 14.8789 11.1641 14.6914 11.6328C14.5039 12.0859 14.3555 12.5781 14.2461 13.1094C14.1367 13.625 14.082 14.0938 14.082 14.5156C14.0664 14.8125 14.0742 15.1016 14.1055 15.3828C14.1211 15.6172 14.1445 15.8594 14.1758 16.1094C14.2227 16.3594 14.2852 16.5547 14.3633 16.6953C14.2695 16.7734 14.1133 16.8672 13.8945 16.9766C13.6914 17.0859 13.4727 17.1562 13.2383 17.1875C13.0195 17.2188 12.8164 17.1797 12.6289 17.0703C12.457 16.9609 12.3633 16.7266 12.3477 16.3672C12.3164 16.0234 12.293 15.6406 12.2773 15.2188C12.2773 14.7812 12.2773 14.3516 12.2773 13.9297C12.293 13.4922 12.3086 13.0625 12.3242 12.6406C12.3398 12.2188 12.3633 11.8281 12.3945 11.4688C12.4258 10.7812 12.4414 10.25 12.4414 9.875C12.4414 9.5 12.4336 9.14062 12.418 8.79688C12.418 8.73438 12.5195 8.64844 12.7227 8.53906C12.9414 8.41406 13.1758 8.30469 13.4258 8.21094C13.6914 8.11719 13.9336 8.0625 14.1523 8.04688C14.3711 8.03125 14.4805 8.07812 14.4805 8.1875C14.4805 8.35938 14.457 8.70312 14.4102 9.21875C14.3789 9.71875 14.332 10.2422 14.2695 10.7891C14.3789 10.4922 14.5195 10.1719 14.6914 9.82812C14.8789 9.48438 15.0898 9.16406 15.3242 8.86719C15.5586 8.57031 15.8242 8.32812 16.1211 8.14062C16.418 7.9375 16.7461 7.83594 17.1055 7.83594C17.3867 7.83594 17.6133 7.92188 17.7852 8.09375C17.9727 8.26562 18.1211 8.46094 18.2305 8.67969C18.3398 8.89844 18.418 9.11719 18.4648 9.33594C18.5117 9.55469 18.5352 9.71094 18.5352 9.80469ZM22.4258 17.2578C21.332 17.2578 20.4883 16.8906 19.8945 16.1562C19.3008 15.4219 19.0039 14.4609 19.0039 13.2734C19.0039 12.4453 19.1211 11.6719 19.3555 10.9531C19.6055 10.2188 19.9336 9.58594 20.3398 9.05469C20.7461 8.52344 21.2148 8.10938 21.7461 7.8125C22.293 7.5 22.8633 7.34375 23.457 7.34375C24.0352 7.34375 24.5273 7.55469 24.9336 7.97656C25.3398 8.38281 25.543 8.96875 25.543 9.73438C25.543 10.2344 25.4336 10.7344 25.2148 11.2344C24.9961 11.7188 24.707 12.1562 24.3477 12.5469C24.0039 12.9219 23.6211 13.2266 23.1992 13.4609C22.7773 13.6953 22.3711 13.8125 21.9805 13.8125C21.7305 13.8125 21.5195 13.7812 21.3477 13.7188C21.1758 13.6562 21.0195 13.5625 20.8789 13.4375C20.9258 14.3281 21.1211 14.9531 21.4648 15.3125C21.8086 15.6562 22.2539 15.8281 22.8008 15.8281C23.1758 15.8281 23.5039 15.75 23.7852 15.5938C24.082 15.4375 24.332 15.2578 24.5352 15.0547C24.7383 14.8516 24.9023 14.6484 25.0273 14.4453C25.1523 14.2266 25.2383 14.0625 25.2852 13.9531C25.332 13.8594 25.4102 13.8125 25.5195 13.8125C25.6445 13.8125 25.707 13.9062 25.707 14.0938C25.707 14.2656 25.6445 14.5312 25.5195 14.8906C25.4102 15.2344 25.2227 15.5859 24.957 15.9453C24.6914 16.2891 24.3477 16.5938 23.9258 16.8594C23.5195 17.125 23.0195 17.2578 22.4258 17.2578ZM23.5039 8.35156C23.4102 8.35156 23.2305 8.45312 22.9648 8.65625C22.7148 8.84375 22.4414 9.125 22.1445 9.5C21.8633 9.875 21.5977 10.3281 21.3477 10.8594C21.1133 11.375 20.9648 11.9609 20.9023 12.6172C21.8398 12.3984 22.582 12.0547 23.1289 11.5859C23.6758 11.1172 23.9492 10.4297 23.9492 9.52344C23.9492 9.07031 23.8945 8.76562 23.7852 8.60938C23.6758 8.4375 23.582 8.35156 23.5039 8.35156ZM33.8398 15.8047C33.8711 15.9141 33.918 16.0156 33.9805 16.1094C34.0273 16.1875 34.0898 16.2656 34.168 16.3438C34.2617 16.4062 34.3711 16.4453 34.4961 16.4609C34.3867 16.6797 34.2773 16.8281 34.168 16.9062C34.1055 16.9531 34.0508 16.9844 34.0039 17C33.8633 17.0469 33.6523 17.0703 33.3711 17.0703C33.0898 17.0703 32.8164 16.9844 32.5508 16.8125C32.457 16.7344 32.3711 16.6172 32.293 16.4609C32.2148 16.3359 32.1445 16.1641 32.082 15.9453C32.0352 15.7109 31.9961 15.4141 31.9648 15.0547C31.7461 15.5234 31.4961 15.8984 31.2148 16.1797C30.9492 16.4453 30.6836 16.6406 30.418 16.7656C30.1211 16.9375 29.8164 17.0391 29.5039 17.0703C29.1133 17.1016 28.7383 17.0391 28.3789 16.8828C28.0352 16.7109 27.7383 16.4609 27.4883 16.1328C27.2539 15.7891 27.0742 15.375 26.9492 14.8906C26.8242 14.4062 26.7852 13.8594 26.832 13.25C26.8789 12.6094 27.0039 12.0391 27.207 11.5391C27.4102 11.0391 27.6523 10.5938 27.9336 10.2031C28.2148 9.8125 28.5117 9.48438 28.8242 9.21875C29.1367 8.9375 29.4336 8.71094 29.7148 8.53906C30.0117 8.35156 30.2617 8.21875 30.4648 8.14062C30.6836 8.04688 30.8242 7.99219 30.8867 7.97656C31.0586 7.92969 31.207 7.91406 31.332 7.92969C31.457 7.94531 31.5664 8.01562 31.6602 8.14062C31.6914 8.1875 31.7305 8.24219 31.7773 8.30469C31.8086 8.36719 31.8477 8.45312 31.8945 8.5625C31.9414 8.65625 31.9805 8.76562 32.0117 8.89062C31.6367 9.0625 31.2852 9.25781 30.957 9.47656C30.6289 9.67969 30.3242 9.92969 30.043 10.2266C29.7773 10.5234 29.543 10.8828 29.3398 11.3047C29.1367 11.7266 28.9805 12.2422 28.8711 12.8516C28.7148 13.6172 28.7539 14.2344 28.9883 14.7031C29.2383 15.1719 29.5742 15.3672 29.9961 15.2891C30.2461 15.2109 30.4883 15.0625 30.7227 14.8438C30.9258 14.6562 31.1367 14.375 31.3555 14C31.5898 13.625 31.8086 13.1094 32.0117 12.4531C32.0898 11.5156 32.1523 10.7812 32.1992 10.25C32.2617 9.70312 32.3164 9.28906 32.3633 9.00781C32.4258 8.67969 32.4727 8.46094 32.5039 8.35156C32.5508 8.27344 32.6445 8.20312 32.7852 8.14062C32.9258 8.0625 33.082 8 33.2539 7.95312C33.4258 7.90625 33.582 7.88281 33.7227 7.88281C33.8633 7.86719 33.957 7.86719 34.0039 7.88281C34.0352 7.89844 34.0508 8.09375 34.0508 8.46875C34.0508 8.82812 34.0352 9.28906 34.0039 9.85156C33.9883 10.3984 33.9648 11 33.9336 11.6562C33.9023 12.2969 33.8711 12.9062 33.8398 13.4844C33.8242 14.0625 33.8086 14.5703 33.793 15.0078C33.793 15.4297 33.8086 15.6953 33.8398 15.8047ZM44.668 6.57031C44.4961 6.53906 44.2617 6.50781 43.9648 6.47656C43.6836 6.44531 43.3945 6.42188 43.0977 6.40625C42.7539 6.39062 42.3867 6.38281 41.9961 6.38281C41.6055 6.35156 41.1133 6.35156 40.5195 6.38281C39.9414 6.39844 39.332 6.40625 38.6914 6.40625C38.6758 6.8125 38.6445 7.22656 38.5977 7.64844C38.5664 8.07031 38.5352 8.48438 38.5039 8.89062C38.4258 9.64062 38.3555 10.4062 38.293 11.1875C38.2461 11.9688 38.2227 12.7109 38.2227 13.4141C38.2227 14.1172 38.2617 14.7578 38.3398 15.3359C38.4336 15.8984 38.5977 16.3438 38.832 16.6719C38.6445 16.8125 38.4414 16.9219 38.2227 17C38.0039 17.0625 37.8086 17.1094 37.6367 17.1406C37.4336 17.1875 37.2305 17.2109 37.0273 17.2109C36.8398 17.2109 36.6836 17.1484 36.5586 17.0234C36.4336 16.8984 36.3633 16.6797 36.3477 16.3672C36.3164 15.8359 36.3086 15.3047 36.3242 14.7734C36.3555 14.2266 36.3867 13.6562 36.418 13.0625C36.4648 12.4688 36.5117 11.8359 36.5586 11.1641C36.6055 10.4766 36.6523 9.72656 36.6992 8.91406C36.7461 8.07031 36.7695 7.25 36.7695 6.45312C36.1758 6.46875 35.6758 6.47656 35.2695 6.47656C34.8633 6.47656 34.6367 6.46875 34.5898 6.45312C34.543 6.42188 34.4883 6.35156 34.4258 6.24219C34.3633 6.14844 34.2852 6.00781 34.1914 5.82031C34.082 5.63281 33.9492 5.36719 33.793 5.02344C34.0898 5.02344 34.418 5.02344 34.7773 5.02344C35.1211 5.02344 35.4414 5.01562 35.7383 5C36.082 4.98438 36.4258 4.96875 36.7695 4.95312C36.7539 4.70312 36.7461 4.4375 36.7461 4.15625C36.7305 3.9375 36.7227 3.69531 36.7227 3.42969C36.7227 3.14844 36.7148 2.89062 36.6992 2.65625C36.6992 2.5625 36.8086 2.45313 37.0273 2.32812C37.2617 2.1875 37.5117 2.0625 37.7773 1.95312C38.043 1.84375 38.2852 1.77344 38.5039 1.74219C38.7383 1.71094 38.8555 1.76562 38.8555 1.90625C38.8555 2.04688 38.8477 2.39062 38.832 2.9375C38.832 3.46875 38.8164 4.11719 38.7852 4.88281C38.9414 4.88281 39.0586 4.875 39.1367 4.85938C39.9648 4.82812 40.6289 4.79688 41.1289 4.76562C41.6445 4.71875 42.0664 4.71094 42.3945 4.74219C42.7227 4.77344 43.0117 4.85156 43.2617 4.97656C43.5117 5.10156 43.793 5.30469 44.1055 5.58594C44.2148 5.67969 44.3086 5.78125 44.3867 5.89062C44.4648 5.98438 44.5273 6.09375 44.5742 6.21875C44.6367 6.32812 44.668 6.44531 44.668 6.57031ZM43.8711 17.2578C42.7773 17.2578 41.9336 16.8906 41.3398 16.1562C40.7461 15.4219 40.4492 14.4609 40.4492 13.2734C40.4492 12.4453 40.5664 11.6719 40.8008 10.9531C41.0508 10.2188 41.3789 9.58594 41.7852 9.05469C42.1914 8.52344 42.6602 8.10938 43.1914 7.8125C43.7383 7.5 44.3086 7.34375 44.9023 7.34375C45.4805 7.34375 45.9727 7.55469 46.3789 7.97656C46.7852 8.38281 46.9883 8.96875 46.9883 9.73438C46.9883 10.2344 46.8789 10.7344 46.6602 11.2344C46.4414 11.7188 46.1523 12.1562 45.793 12.5469C45.4492 12.9219 45.0664 13.2266 44.6445 13.4609C44.2227 13.6953 43.8164 13.8125 43.4258 13.8125C43.1758 13.8125 42.9648 13.7812 42.793 13.7188C42.6211 13.6562 42.4648 13.5625 42.3242 13.4375C42.3711 14.3281 42.5664 14.9531 42.9102 15.3125C43.2539 15.6562 43.6992 15.8281 44.2461 15.8281C44.6211 15.8281 44.9492 15.75 45.2305 15.5938C45.5273 15.4375 45.7773 15.2578 45.9805 15.0547C46.1836 14.8516 46.3477 14.6484 46.4727 14.4453C46.5977 14.2266 46.6836 14.0625 46.7305 13.9531C46.7773 13.8594 46.8555 13.8125 46.9648 13.8125C47.0898 13.8125 47.1523 13.9062 47.1523 14.0938C47.1523 14.2656 47.0898 14.5312 46.9648 14.8906C46.8555 15.2344 46.668 15.5859 46.4023 15.9453C46.1367 16.2891 45.793 16.5938 45.3711 16.8594C44.9648 17.125 44.4648 17.2578 43.8711 17.2578ZM44.9492 8.35156C44.8555 8.35156 44.6758 8.45312 44.4102 8.65625C44.1602 8.84375 43.8867 9.125 43.5898 9.5C43.3086 9.875 43.043 10.3281 42.793 10.8594C42.5586 11.375 42.4102 11.9609 42.3477 12.6172C43.2852 12.3984 44.0273 12.0547 44.5742 11.5859C45.1211 11.1172 45.3945 10.4297 45.3945 9.52344C45.3945 9.07031 45.3398 8.76562 45.2305 8.60938C45.1211 8.4375 45.0273 8.35156 44.9492 8.35156ZM60.4883 8C60.5195 9.375 60.543 10.5781 60.5586 11.6094C60.5742 12.6406 60.5898 13.5078 60.6055 14.2109C60.6211 15.0391 60.6289 15.75 60.6289 16.3438C60.6445 17.0781 60.582 17.8359 60.4414 18.6172C60.3164 19.4141 60.1055 20.1406 59.8086 20.7969C59.5117 21.4531 59.1211 21.9922 58.6367 22.4141C58.1523 22.8359 57.5664 23.0469 56.8789 23.0469C56.0508 23.0469 55.418 22.875 54.9805 22.5312C54.543 22.2031 54.2227 21.8281 54.0195 21.4062C53.8164 20.9844 53.6992 20.5859 53.668 20.2109C53.6367 19.8516 53.6211 19.6406 53.6211 19.5781C53.6211 19.4531 53.6992 19.3125 53.8555 19.1562C54.0117 19 54.2461 18.8594 54.5586 18.7344C54.6836 18.6875 54.8086 18.6484 54.9336 18.6172C55.043 18.5859 55.1523 18.5625 55.2617 18.5469C55.3711 18.5312 55.4727 18.5391 55.5664 18.5703C55.4102 18.8516 55.3164 19.1719 55.2852 19.5312C55.2695 19.8906 55.3164 20.2266 55.4258 20.5391C55.5508 20.8672 55.7305 21.1406 55.9648 21.3594C56.1992 21.5781 56.4961 21.6875 56.8555 21.6875C57.3555 21.6875 57.7461 21.5391 58.0273 21.2422C58.3242 20.9609 58.543 20.6094 58.6836 20.1875C58.8398 19.7656 58.9336 19.3203 58.9648 18.8516C59.0117 18.3828 59.0352 17.9688 59.0352 17.6094C59.0352 17.3281 59.0273 16.9688 59.0117 16.5312C59.0117 16.0781 58.9883 15.5781 58.9414 15.0312C58.7539 15.3438 58.5352 15.6484 58.2852 15.9453C58.0352 16.2266 57.7695 16.4766 57.4883 16.6953C57.207 16.9141 56.918 17.0859 56.6211 17.2109C56.3398 17.3516 56.0586 17.4219 55.7773 17.4219C55.293 17.4219 54.9023 17.2734 54.6055 16.9766C54.3086 16.6641 54.082 16.2812 53.9258 15.8281C53.7695 15.3594 53.6602 14.8594 53.5977 14.3281C53.5508 13.7812 53.5273 13.2812 53.5273 12.8281C53.5273 12.4844 53.543 12.0703 53.5742 11.5859C53.6055 11.0859 53.6445 10.6094 53.6914 10.1562C53.7383 9.70312 53.793 9.3125 53.8555 8.98438C53.9336 8.64062 54.0117 8.44531 54.0898 8.39844C54.543 8.13281 54.9883 7.98438 55.4258 7.95312C55.8633 7.92188 56.1914 7.97656 56.4102 8.11719C56.2227 8.25781 56.0664 8.49219 55.9414 8.82031C55.8164 9.14844 55.7148 9.51562 55.6367 9.92188C55.5586 10.3125 55.5039 10.7266 55.4727 11.1641C55.4414 11.5859 55.4258 11.9688 55.4258 12.3125C55.4258 12.5938 55.4336 12.9297 55.4492 13.3203C55.4648 13.7109 55.4961 14.0859 55.543 14.4453C55.6055 14.8047 55.6914 15.1094 55.8008 15.3594C55.9102 15.6094 56.0508 15.7344 56.2227 15.7344C56.5664 15.7344 56.8867 15.6094 57.1836 15.3594C57.4805 15.1094 57.7383 14.7969 57.957 14.4219C58.1914 14.0469 58.3711 13.6484 58.4961 13.2266C58.6211 12.7891 58.6836 12.3828 58.6836 12.0078V11.8203C58.6523 11.4141 58.6211 11.0312 58.5898 10.6719C58.5586 10.2969 58.5273 9.96094 58.4961 9.66406C58.4805 9.36719 58.4648 9.125 58.4492 8.9375C58.4492 8.73438 58.4492 8.60156 58.4492 8.53906C58.4492 8.38281 58.5508 8.24219 58.7539 8.11719C58.9727 7.99219 59.207 7.90625 59.457 7.85938C59.7227 7.79688 59.957 7.77344 60.1602 7.78906C60.3789 7.80469 60.4883 7.875 60.4883 8ZM68.8086 12.9688C68.7773 13.5781 68.668 14.1406 68.4805 14.6562C68.3086 15.1719 68.0664 15.625 67.7539 16.0156C67.4414 16.3906 67.0664 16.6875 66.6289 16.9062C66.207 17.125 65.7383 17.2422 65.2227 17.2578C64.7695 17.2734 64.3398 17.1641 63.9336 16.9297C63.543 16.6953 63.1992 16.3672 62.9023 15.9453C62.6055 15.5234 62.3789 15.0234 62.2227 14.4453C62.082 13.8516 62.043 13.2109 62.1055 12.5234C62.1523 11.7266 62.3008 11.0469 62.5508 10.4844C62.8008 9.90625 63.0664 9.42969 63.3477 9.05469C63.6289 8.67969 63.8867 8.40625 64.1211 8.23438C64.3711 8.04688 64.5273 7.9375 64.5898 7.90625C64.6992 7.85938 64.8008 7.85156 64.8945 7.88281C64.9883 7.89844 65.0898 7.92188 65.1992 7.95312C65.2305 7.96875 65.2617 8.00781 65.293 8.07031C65.3555 8.17969 65.3945 8.38281 65.4102 8.67969C65.4883 8.50781 65.5898 8.36719 65.7148 8.25781C65.8398 8.14844 65.9648 8.07031 66.0898 8.02344C66.2461 7.96094 66.4023 7.92188 66.5586 7.90625C66.668 7.89062 66.8555 7.97656 67.1211 8.16406C67.4023 8.35156 67.668 8.64844 67.918 9.05469C68.1836 9.46094 68.4102 9.99219 68.5977 10.6484C68.7852 11.2891 68.8555 12.0625 68.8086 12.9688ZM67.2148 12.6875C67.2305 12.3125 67.2148 11.9375 67.168 11.5625C67.1367 11.1719 67.0742 10.8203 66.9805 10.5078C66.9023 10.1797 66.8008 9.92188 66.6758 9.73438C66.5508 9.53125 66.4258 9.42969 66.3008 9.42969C66.1602 9.46094 66.0039 9.53125 65.832 9.64062C65.6914 9.73438 65.5352 9.88281 65.3633 10.0859C65.1914 10.2891 65.0273 10.5781 64.8711 10.9531C64.8555 10.9062 64.8398 10.8203 64.8242 10.6953C64.8086 10.5859 64.793 10.4453 64.7773 10.2734C64.7773 10.0859 64.793 9.83594 64.8242 9.52344C64.6055 9.78906 64.4336 10.1016 64.3086 10.4609C64.1992 10.8203 64.1133 11.1641 64.0508 11.4922C63.9883 11.8828 63.9414 12.2734 63.9102 12.6641C63.8945 13.0859 63.9102 13.5 63.957 13.9062C64.0195 14.3125 64.1133 14.6719 64.2383 14.9844C64.3789 15.2969 64.543 15.5469 64.7305 15.7344C64.918 15.9219 65.1445 16.0078 65.4102 15.9922C65.6758 15.9766 65.9102 15.8672 66.1133 15.6641C66.3164 15.4609 66.4961 15.2031 66.6523 14.8906C66.8086 14.5781 66.9336 14.2266 67.0273 13.8359C67.1211 13.4453 67.1836 13.0625 67.2148 12.6875ZM75.3945 8.28125C75.3945 8.10938 75.4961 7.98438 75.6992 7.90625C75.918 7.8125 76.1445 7.76562 76.3789 7.76562C76.6289 7.76562 76.8555 7.8125 77.0586 7.90625C77.2617 7.98438 77.3555 8.09375 77.3398 8.23438C77.3242 8.34375 77.3086 8.5625 77.293 8.89062C77.2773 9.20312 77.2539 9.57812 77.2227 10.0156C77.207 10.4531 77.1836 10.9219 77.1523 11.4219C77.1211 11.9219 77.0898 12.4141 77.0586 12.8984C77.043 13.3672 77.0273 13.8047 77.0117 14.2109C77.0117 14.6172 77.0117 14.9297 77.0117 15.1484C77.0117 15.4297 77.0273 15.6875 77.0586 15.9219C77.0898 16.125 77.1289 16.3281 77.1758 16.5312C77.2227 16.7188 77.293 16.8516 77.3867 16.9297C77.2617 16.9766 77.1289 17.0078 76.9883 17.0234C76.8633 17.0391 76.7461 17.0547 76.6367 17.0703C76.5117 17.0859 76.3867 17.0938 76.2617 17.0938C75.9961 17.0938 75.7695 17.0391 75.582 16.9297C75.4102 16.8203 75.3242 16.5938 75.3242 16.25C75.3242 16.0781 75.332 15.8281 75.3477 15.5C75.3789 15.1719 75.4102 14.8203 75.4414 14.4453C75.332 14.7734 75.1992 15.1094 75.043 15.4531C74.8867 15.7969 74.6914 16.1016 74.457 16.3672C74.2383 16.6328 73.9883 16.8516 73.707 17.0234C73.4258 17.1953 73.1055 17.2812 72.7461 17.2812C72.3398 17.2812 71.9648 17.1953 71.6211 17.0234C71.293 16.8516 71.0039 16.6094 70.7539 16.2969C70.5039 15.9688 70.3164 15.5703 70.1914 15.1016C70.0664 14.6328 70.0195 14.0938 70.0508 13.4844C70.0508 13.0156 70.0586 12.5156 70.0742 11.9844C70.0898 11.5312 70.1133 11.0078 70.1445 10.4141C70.1758 9.82031 70.2305 9.20312 70.3086 8.5625C70.3242 8.5 70.4336 8.42188 70.6367 8.32812C70.8398 8.23438 71.0664 8.15625 71.3164 8.09375C71.5664 8.03125 71.8086 8.00781 72.043 8.02344C72.2773 8.03906 72.4492 8.13281 72.5586 8.30469C72.4805 8.58594 72.4023 8.92188 72.3242 9.3125C72.2461 9.6875 72.1758 10.0781 72.1133 10.4844C72.0508 10.8906 72.0039 11.2891 71.9727 11.6797C71.9414 12.0703 71.9258 12.4297 71.9258 12.7578C71.9258 13.0547 71.9414 13.3828 71.9727 13.7422C72.0039 14.0859 72.0586 14.4141 72.1367 14.7266C72.2305 15.0234 72.3555 15.2734 72.5117 15.4766C72.6836 15.6797 72.9023 15.7812 73.168 15.7812C73.4648 15.7812 73.7227 15.6562 73.9414 15.4062C74.1758 15.1406 74.3711 14.8047 74.5273 14.3984C74.6836 13.9922 74.8164 13.5312 74.9258 13.0156C75.0352 12.4844 75.1211 11.9609 75.1836 11.4453C75.2617 10.9297 75.3086 10.4375 75.3242 9.96875C75.3555 9.48438 75.3789 9.07812 75.3945 8.75V8.28125ZM85.332 9.80469C85.332 10.0234 85.2695 10.25 85.1445 10.4844C85.0352 10.7031 84.8945 10.9141 84.7227 11.1172C84.5508 11.3203 84.3555 11.5 84.1367 11.6562C83.9336 11.7969 83.7383 11.8828 83.5508 11.9141C83.6758 11.4297 83.7148 11.0547 83.668 10.7891C83.6211 10.5234 83.543 10.3281 83.4336 10.2031C83.3086 10.0625 83.1523 9.98438 82.9648 9.96875C82.6836 9.96875 82.4102 10.1328 82.1445 10.4609C81.8945 10.7734 81.6758 11.1641 81.4883 11.6328C81.3008 12.0859 81.1523 12.5781 81.043 13.1094C80.9336 13.625 80.8789 14.0938 80.8789 14.5156C80.8633 14.8125 80.8711 15.1016 80.9023 15.3828C80.918 15.6172 80.9414 15.8594 80.9727 16.1094C81.0195 16.3594 81.082 16.5547 81.1602 16.6953C81.0664 16.7734 80.9102 16.8672 80.6914 16.9766C80.4883 17.0859 80.2695 17.1562 80.0352 17.1875C79.8164 17.2188 79.6133 17.1797 79.4258 17.0703C79.2539 16.9609 79.1602 16.7266 79.1445 16.3672C79.1133 16.0234 79.0898 15.6406 79.0742 15.2188C79.0742 14.7812 79.0742 14.3516 79.0742 13.9297C79.0898 13.4922 79.1055 13.0625 79.1211 12.6406C79.1367 12.2188 79.1602 11.8281 79.1914 11.4688C79.2227 10.7812 79.2383 10.25 79.2383 9.875C79.2383 9.5 79.2305 9.14062 79.2148 8.79688C79.2148 8.73438 79.3164 8.64844 79.5195 8.53906C79.7383 8.41406 79.9727 8.30469 80.2227 8.21094C80.4883 8.11719 80.7305 8.0625 80.9492 8.04688C81.168 8.03125 81.2773 8.07812 81.2773 8.1875C81.2773 8.35938 81.2539 8.70312 81.207 9.21875C81.1758 9.71875 81.1289 10.2422 81.0664 10.7891C81.1758 10.4922 81.3164 10.1719 81.4883 9.82812C81.6758 9.48438 81.8867 9.16406 82.1211 8.86719C82.3555 8.57031 82.6211 8.32812 82.918 8.14062C83.2148 7.9375 83.543 7.83594 83.9023 7.83594C84.1836 7.83594 84.4102 7.92188 84.582 8.09375C84.7695 8.26562 84.918 8.46094 85.0273 8.67969C85.1367 8.89844 85.2148 9.11719 85.2617 9.33594C85.3086 9.55469 85.332 9.71094 85.332 9.80469ZM97.8945 15.8047C97.9258 15.9141 97.9727 16.0156 98.0352 16.1094C98.082 16.1875 98.1445 16.2656 98.2227 16.3438C98.3164 16.4062 98.4258 16.4453 98.5508 16.4609C98.4414 16.6797 98.332 16.8281 98.2227 16.9062C98.1602 16.9531 98.1055 16.9844 98.0586 17C97.918 17.0469 97.707 17.0703 97.4258 17.0703C97.1445 17.0703 96.8711 16.9844 96.6055 16.8125C96.5117 16.7344 96.4258 16.6172 96.3477 16.4609C96.2695 16.3359 96.1992 16.1641 96.1367 15.9453C96.0898 15.7109 96.0508 15.4141 96.0195 15.0547C95.8008 15.5234 95.5508 15.8984 95.2695 16.1797C95.0039 16.4453 94.7383 16.6406 94.4727 16.7656C94.1758 16.9375 93.8711 17.0391 93.5586 17.0703C93.168 17.1016 92.793 17.0391 92.4336 16.8828C92.0898 16.7109 91.793 16.4609 91.543 16.1328C91.3086 15.7891 91.1289 15.375 91.0039 14.8906C90.8789 14.4062 90.8398 13.8594 90.8867 13.25C90.9336 12.6094 91.0586 12.0391 91.2617 11.5391C91.4648 11.0391 91.707 10.5938 91.9883 10.2031C92.2695 9.8125 92.5664 9.48438 92.8789 9.21875C93.1914 8.9375 93.4883 8.71094 93.7695 8.53906C94.0664 8.35156 94.3164 8.21875 94.5195 8.14062C94.7383 8.04688 94.8789 7.99219 94.9414 7.97656C95.1133 7.92969 95.2617 7.91406 95.3867 7.92969C95.5117 7.94531 95.6211 8.01562 95.7148 8.14062C95.7461 8.1875 95.7852 8.24219 95.832 8.30469C95.8633 8.36719 95.9023 8.45312 95.9492 8.5625C95.9961 8.65625 96.0352 8.76562 96.0664 8.89062C95.6914 9.0625 95.3398 9.25781 95.0117 9.47656C94.6836 9.67969 94.3789 9.92969 94.0977 10.2266C93.832 10.5234 93.5977 10.8828 93.3945 11.3047C93.1914 11.7266 93.0352 12.2422 92.9258 12.8516C92.7695 13.6172 92.8086 14.2344 93.043 14.7031C93.293 15.1719 93.6289 15.3672 94.0508 15.2891C94.3008 15.2109 94.543 15.0625 94.7773 14.8438C94.9805 14.6562 95.1914 14.375 95.4102 14C95.6445 13.625 95.8633 13.1094 96.0664 12.4531C96.1445 11.5156 96.207 10.7812 96.2539 10.25C96.3164 9.70312 96.3711 9.28906 96.418 9.00781C96.4805 8.67969 96.5273 8.46094 96.5586 8.35156C96.6055 8.27344 96.6992 8.20312 96.8398 8.14062C96.9805 8.0625 97.1367 8 97.3086 7.95312C97.4805 7.90625 97.6367 7.88281 97.7773 7.88281C97.918 7.86719 98.0117 7.86719 98.0586 7.88281C98.0898 7.89844 98.1055 8.09375 98.1055 8.46875C98.1055 8.82812 98.0898 9.28906 98.0586 9.85156C98.043 10.3984 98.0195 11 97.9883 11.6562C97.957 12.2969 97.9258 12.9062 97.8945 13.4844C97.8789 14.0625 97.8633 14.5703 97.8477 15.0078C97.8477 15.4297 97.8633 15.6953 97.8945 15.8047ZM106.332 14.0469C106.332 14.2188 106.27 14.4844 106.145 14.8438C106.035 15.1875 105.848 15.5391 105.582 15.8984C105.316 16.2422 104.973 16.5469 104.551 16.8125C104.145 17.0781 103.645 17.2109 103.051 17.2109C102.207 17.2109 101.496 16.9844 100.918 16.5312C100.355 16.0625 99.957 15.3984 99.7227 14.5391C99.5352 13.8203 99.4805 13.0547 99.5586 12.2422C99.6523 11.4141 99.8789 10.6484 100.238 9.94531C100.598 9.24219 101.098 8.64844 101.738 8.16406C102.379 7.66406 103.16 7.39062 104.082 7.34375C104.551 7.32812 104.941 7.41406 105.254 7.60156C105.566 7.78906 105.809 8.03125 105.98 8.32812C106.152 8.625 106.254 8.95312 106.285 9.3125C106.316 9.65625 106.277 9.98438 106.168 10.2969C106.074 10.6094 105.918 10.875 105.699 11.0938C105.496 11.2969 105.23 11.4062 104.902 11.4219C104.574 11.4531 104.301 11.4141 104.082 11.3047C103.879 11.1797 103.715 11.0312 103.59 10.8594C103.48 10.6875 103.402 10.5078 103.355 10.3203C103.324 10.1328 103.324 9.96875 103.355 9.82812C103.402 9.625 103.48 9.4375 103.59 9.26562C103.684 9.10938 103.816 8.95312 103.988 8.79688C104.176 8.64062 104.418 8.51562 104.715 8.42188C104.668 8.39062 104.621 8.375 104.574 8.375C104.527 8.375 104.48 8.36719 104.434 8.35156C104.371 8.35156 104.324 8.34375 104.293 8.32812C104.043 8.32812 103.754 8.41406 103.426 8.58594C103.113 8.75781 102.809 9.03125 102.512 9.40625C102.23 9.78125 101.988 10.2656 101.785 10.8594C101.598 11.4375 101.504 12.1406 101.504 12.9688C101.504 13.3281 101.543 13.6875 101.621 14.0469C101.699 14.3906 101.816 14.7031 101.973 14.9844C102.145 15.25 102.348 15.4688 102.582 15.6406C102.832 15.7969 103.121 15.875 103.449 15.875C103.824 15.875 104.152 15.7969 104.434 15.6406C104.73 15.4688 104.98 15.2734 105.184 15.0547C105.387 14.8359 105.543 14.6172 105.652 14.3984C105.777 14.1797 105.863 14.0156 105.91 13.9062C105.957 13.8125 106.035 13.7656 106.145 13.7656C106.27 13.7656 106.332 13.8594 106.332 14.0469ZM114.113 14.0469C114.113 14.2188 114.051 14.4844 113.926 14.8438C113.816 15.1875 113.629 15.5391 113.363 15.8984C113.098 16.2422 112.754 16.5469 112.332 16.8125C111.926 17.0781 111.426 17.2109 110.832 17.2109C109.988 17.2109 109.277 16.9844 108.699 16.5312C108.137 16.0625 107.738 15.3984 107.504 14.5391C107.316 13.8203 107.262 13.0547 107.34 12.2422C107.434 11.4141 107.66 10.6484 108.02 9.94531C108.379 9.24219 108.879 8.64844 109.52 8.16406C110.16 7.66406 110.941 7.39062 111.863 7.34375C112.332 7.32812 112.723 7.41406 113.035 7.60156C113.348 7.78906 113.59 8.03125 113.762 8.32812C113.934 8.625 114.035 8.95312 114.066 9.3125C114.098 9.65625 114.059 9.98438 113.949 10.2969C113.855 10.6094 113.699 10.875 113.48 11.0938C113.277 11.2969 113.012 11.4062 112.684 11.4219C112.355 11.4531 112.082 11.4141 111.863 11.3047C111.66 11.1797 111.496 11.0312 111.371 10.8594C111.262 10.6875 111.184 10.5078 111.137 10.3203C111.105 10.1328 111.105 9.96875 111.137 9.82812C111.184 9.625 111.262 9.4375 111.371 9.26562C111.465 9.10938 111.598 8.95312 111.77 8.79688C111.957 8.64062 112.199 8.51562 112.496 8.42188C112.449 8.39062 112.402 8.375 112.355 8.375C112.309 8.375 112.262 8.36719 112.215 8.35156C112.152 8.35156 112.105 8.34375 112.074 8.32812C111.824 8.32812 111.535 8.41406 111.207 8.58594C110.895 8.75781 110.59 9.03125 110.293 9.40625C110.012 9.78125 109.77 10.2656 109.566 10.8594C109.379 11.4375 109.285 12.1406 109.285 12.9688C109.285 13.3281 109.324 13.6875 109.402 14.0469C109.48 14.3906 109.598 14.7031 109.754 14.9844C109.926 15.25 110.129 15.4688 110.363 15.6406C110.613 15.7969 110.902 15.875 111.23 15.875C111.605 15.875 111.934 15.7969 112.215 15.6406C112.512 15.4688 112.762 15.2734 112.965 15.0547C113.168 14.8359 113.324 14.6172 113.434 14.3984C113.559 14.1797 113.645 14.0156 113.691 13.9062C113.738 13.8125 113.816 13.7656 113.926 13.7656C114.051 13.7656 114.113 13.8594 114.113 14.0469ZM121.941 12.9688C121.91 13.5781 121.801 14.1406 121.613 14.6562C121.441 15.1719 121.199 15.625 120.887 16.0156C120.574 16.3906 120.199 16.6875 119.762 16.9062C119.34 17.125 118.871 17.2422 118.355 17.2578C117.902 17.2734 117.473 17.1641 117.066 16.9297C116.676 16.6953 116.332 16.3672 116.035 15.9453C115.738 15.5234 115.512 15.0234 115.355 14.4453C115.215 13.8516 115.176 13.2109 115.238 12.5234C115.285 11.7266 115.434 11.0469 115.684 10.4844C115.934 9.90625 116.199 9.42969 116.48 9.05469C116.762 8.67969 117.02 8.40625 117.254 8.23438C117.504 8.04688 117.66 7.9375 117.723 7.90625C117.832 7.85938 117.934 7.85156 118.027 7.88281C118.121 7.89844 118.223 7.92188 118.332 7.95312C118.363 7.96875 118.395 8.00781 118.426 8.07031C118.488 8.17969 118.527 8.38281 118.543 8.67969C118.621 8.50781 118.723 8.36719 118.848 8.25781C118.973 8.14844 119.098 8.07031 119.223 8.02344C119.379 7.96094 119.535 7.92188 119.691 7.90625C119.801 7.89062 119.988 7.97656 120.254 8.16406C120.535 8.35156 120.801 8.64844 121.051 9.05469C121.316 9.46094 121.543 9.99219 121.73 10.6484C121.918 11.2891 121.988 12.0625 121.941 12.9688ZM120.348 12.6875C120.363 12.3125 120.348 11.9375 120.301 11.5625C120.27 11.1719 120.207 10.8203 120.113 10.5078C120.035 10.1797 119.934 9.92188 119.809 9.73438C119.684 9.53125 119.559 9.42969 119.434 9.42969C119.293 9.46094 119.137 9.53125 118.965 9.64062C118.824 9.73438 118.668 9.88281 118.496 10.0859C118.324 10.2891 118.16 10.5781 118.004 10.9531C117.988 10.9062 117.973 10.8203 117.957 10.6953C117.941 10.5859 117.926 10.4453 117.91 10.2734C117.91 10.0859 117.926 9.83594 117.957 9.52344C117.738 9.78906 117.566 10.1016 117.441 10.4609C117.332 10.8203 117.246 11.1641 117.184 11.4922C117.121 11.8828 117.074 12.2734 117.043 12.6641C117.027 13.0859 117.043 13.5 117.09 13.9062C117.152 14.3125 117.246 14.6719 117.371 14.9844C117.512 15.2969 117.676 15.5469 117.863 15.7344C118.051 15.9219 118.277 16.0078 118.543 15.9922C118.809 15.9766 119.043 15.8672 119.246 15.6641C119.449 15.4609 119.629 15.2031 119.785 14.8906C119.941 14.5781 120.066 14.2266 120.16 13.8359C120.254 13.4453 120.316 13.0625 120.348 12.6875ZM128.527 8.28125C128.527 8.10938 128.629 7.98438 128.832 7.90625C129.051 7.8125 129.277 7.76562 129.512 7.76562C129.762 7.76562 129.988 7.8125 130.191 7.90625C130.395 7.98438 130.488 8.09375 130.473 8.23438C130.457 8.34375 130.441 8.5625 130.426 8.89062C130.41 9.20312 130.387 9.57812 130.355 10.0156C130.34 10.4531 130.316 10.9219 130.285 11.4219C130.254 11.9219 130.223 12.4141 130.191 12.8984C130.176 13.3672 130.16 13.8047 130.145 14.2109C130.145 14.6172 130.145 14.9297 130.145 15.1484C130.145 15.4297 130.16 15.6875 130.191 15.9219C130.223 16.125 130.262 16.3281 130.309 16.5312C130.355 16.7188 130.426 16.8516 130.52 16.9297C130.395 16.9766 130.262 17.0078 130.121 17.0234C129.996 17.0391 129.879 17.0547 129.77 17.0703C129.645 17.0859 129.52 17.0938 129.395 17.0938C129.129 17.0938 128.902 17.0391 128.715 16.9297C128.543 16.8203 128.457 16.5938 128.457 16.25C128.457 16.0781 128.465 15.8281 128.48 15.5C128.512 15.1719 128.543 14.8203 128.574 14.4453C128.465 14.7734 128.332 15.1094 128.176 15.4531C128.02 15.7969 127.824 16.1016 127.59 16.3672C127.371 16.6328 127.121 16.8516 126.84 17.0234C126.559 17.1953 126.238 17.2812 125.879 17.2812C125.473 17.2812 125.098 17.1953 124.754 17.0234C124.426 16.8516 124.137 16.6094 123.887 16.2969C123.637 15.9688 123.449 15.5703 123.324 15.1016C123.199 14.6328 123.152 14.0938 123.184 13.4844C123.184 13.0156 123.191 12.5156 123.207 11.9844C123.223 11.5312 123.246 11.0078 123.277 10.4141C123.309 9.82031 123.363 9.20312 123.441 8.5625C123.457 8.5 123.566 8.42188 123.77 8.32812C123.973 8.23438 124.199 8.15625 124.449 8.09375C124.699 8.03125 124.941 8.00781 125.176 8.02344C125.41 8.03906 125.582 8.13281 125.691 8.30469C125.613 8.58594 125.535 8.92188 125.457 9.3125C125.379 9.6875 125.309 10.0781 125.246 10.4844C125.184 10.8906 125.137 11.2891 125.105 11.6797C125.074 12.0703 125.059 12.4297 125.059 12.7578C125.059 13.0547 125.074 13.3828 125.105 13.7422C125.137 14.0859 125.191 14.4141 125.27 14.7266C125.363 15.0234 125.488 15.2734 125.645 15.4766C125.816 15.6797 126.035 15.7812 126.301 15.7812C126.598 15.7812 126.855 15.6562 127.074 15.4062C127.309 15.1406 127.504 14.8047 127.66 14.3984C127.816 13.9922 127.949 13.5312 128.059 13.0156C128.168 12.4844 128.254 11.9609 128.316 11.4453C128.395 10.9297 128.441 10.4375 128.457 9.96875C128.488 9.48438 128.512 9.07812 128.527 8.75V8.28125ZM134.551 16.3672C134.535 16.4609 134.449 16.5625 134.293 16.6719C134.152 16.7656 133.98 16.8516 133.777 16.9297C133.59 17.0078 133.41 17.0547 133.238 17.0703C133.066 17.1016 132.949 17.0859 132.887 17.0234C132.824 16.9609 132.723 16.8438 132.582 16.6719C132.441 16.5 132.355 16.2188 132.324 15.8281C132.293 15.4219 132.277 14.9141 132.277 14.3047C132.277 13.6797 132.27 12.9922 132.254 12.2422V11.3047C132.254 11.0234 132.246 10.6953 132.23 10.3203C132.23 9.94531 132.223 9.55469 132.207 9.14844C132.348 9.07031 132.488 9 132.629 8.9375C132.785 8.85938 132.926 8.79688 133.051 8.75C133.191 8.6875 133.324 8.64062 133.449 8.60938C133.777 8.51562 134.027 8.46094 134.199 8.44531C134.371 8.42969 134.473 8.48438 134.504 8.60938C134.52 8.70312 134.512 8.92969 134.48 9.28906C134.449 9.60156 134.41 10.0781 134.363 10.7188C134.316 11.3438 134.238 12.2188 134.129 13.3438C134.332 12.8438 134.496 12.4141 134.621 12.0547C134.762 11.6953 134.879 11.4062 134.973 11.1875C135.066 10.9219 135.152 10.7109 135.23 10.5547C135.309 10.3516 135.41 10.125 135.535 9.875C135.66 9.625 135.785 9.39062 135.91 9.17188C136.051 8.95312 136.176 8.75781 136.285 8.58594C136.41 8.41406 136.504 8.3125 136.566 8.28125C136.613 8.25 136.754 8.25 136.988 8.28125C137.223 8.3125 137.473 8.39062 137.738 8.51562C138.004 8.625 138.262 8.78906 138.512 9.00781C138.762 9.21094 138.926 9.46094 139.004 9.75781C139.098 10.1016 139.129 10.5547 139.098 11.1172C139.082 11.6797 139.043 12.2578 138.98 12.8516C138.934 13.4453 138.895 14.0078 138.863 14.5391C138.832 15.0703 138.863 15.4766 138.957 15.7578C138.988 15.9141 139.035 16.0547 139.098 16.1797C139.129 16.3047 139.168 16.4219 139.215 16.5312C139.277 16.625 139.34 16.6953 139.402 16.7422C139.027 16.9141 138.723 17.0391 138.488 17.1172C138.254 17.1953 138.074 17.25 137.949 17.2812C137.793 17.3281 137.684 17.3438 137.621 17.3281C137.48 17.2812 137.355 17.1641 137.246 16.9766C137.152 16.7891 137.066 16.4922 136.988 16.0859C136.957 15.9609 136.941 15.7578 136.941 15.4766C136.957 15.1797 136.98 14.8516 137.012 14.4922C137.043 14.1172 137.074 13.7344 137.105 13.3438C137.152 12.9375 137.184 12.5625 137.199 12.2188C137.23 11.8594 137.254 11.5547 137.27 11.3047C137.285 11.0391 137.285 10.8594 137.27 10.7656C137.191 10.4844 137.082 10.2891 136.941 10.1797C136.801 10.0547 136.691 10.0391 136.613 10.1328C136.41 10.3672 136.191 10.75 135.957 11.2812C135.738 11.7969 135.527 12.3672 135.324 12.9922C135.121 13.6016 134.949 14.2109 134.809 14.8203C134.668 15.4297 134.582 15.9453 134.551 16.3672ZM149.574 6.57031C149.402 6.53906 149.168 6.50781 148.871 6.47656C148.59 6.44531 148.301 6.42188 148.004 6.40625C147.66 6.39062 147.293 6.38281 146.902 6.38281C146.512 6.35156 146.02 6.35156 145.426 6.38281C144.848 6.39844 144.238 6.40625 143.598 6.40625C143.582 6.8125 143.551 7.22656 143.504 7.64844C143.473 8.07031 143.441 8.48438 143.41 8.89062C143.332 9.64062 143.262 10.4062 143.199 11.1875C143.152 11.9688 143.129 12.7109 143.129 13.4141C143.129 14.1172 143.168 14.7578 143.246 15.3359C143.34 15.8984 143.504 16.3438 143.738 16.6719C143.551 16.8125 143.348 16.9219 143.129 17C142.91 17.0625 142.715 17.1094 142.543 17.1406C142.34 17.1875 142.137 17.2109 141.934 17.2109C141.746 17.2109 141.59 17.1484 141.465 17.0234C141.34 16.8984 141.27 16.6797 141.254 16.3672C141.223 15.8359 141.215 15.3047 141.23 14.7734C141.262 14.2266 141.293 13.6562 141.324 13.0625C141.371 12.4688 141.418 11.8359 141.465 11.1641C141.512 10.4766 141.559 9.72656 141.605 8.91406C141.652 8.07031 141.676 7.25 141.676 6.45312C141.082 6.46875 140.582 6.47656 140.176 6.47656C139.77 6.47656 139.543 6.46875 139.496 6.45312C139.449 6.42188 139.395 6.35156 139.332 6.24219C139.27 6.14844 139.191 6.00781 139.098 5.82031C138.988 5.63281 138.855 5.36719 138.699 5.02344C138.996 5.02344 139.324 5.02344 139.684 5.02344C140.027 5.02344 140.348 5.01562 140.645 5C140.988 4.98438 141.332 4.96875 141.676 4.95312C141.66 4.70312 141.652 4.4375 141.652 4.15625C141.637 3.9375 141.629 3.69531 141.629 3.42969C141.629 3.14844 141.621 2.89062 141.605 2.65625C141.605 2.5625 141.715 2.45313 141.934 2.32812C142.168 2.1875 142.418 2.0625 142.684 1.95312C142.949 1.84375 143.191 1.77344 143.41 1.74219C143.645 1.71094 143.762 1.76562 143.762 1.90625C143.762 2.04688 143.754 2.39062 143.738 2.9375C143.738 3.46875 143.723 4.11719 143.691 4.88281C143.848 4.88281 143.965 4.875 144.043 4.85938C144.871 4.82812 145.535 4.79688 146.035 4.76562C146.551 4.71875 146.973 4.71094 147.301 4.74219C147.629 4.77344 147.918 4.85156 148.168 4.97656C148.418 5.10156 148.699 5.30469 149.012 5.58594C149.121 5.67969 149.215 5.78125 149.293 5.89062C149.371 5.98438 149.434 6.09375 149.48 6.21875C149.543 6.32812 149.574 6.44531 149.574 6.57031Z" fill="black"/>
    <path d="M32.8438 41.5469C33.1875 41.6719 33.5156 41.7891 33.8281 41.8984C34.1406 42.0078 34.4141 42.1406 34.6484 42.2969C34.8828 42.4531 35.0703 42.6406 35.2109 42.8594C35.3516 43.0625 35.4219 43.3203 35.4219 43.6328C35.4219 44.0078 35.3359 44.3594 35.1641 44.6875C35.0078 45.0156 34.7734 45.3047 34.4609 45.5547C34.1484 45.8047 33.7656 46 33.3125 46.1406C32.875 46.2969 32.3828 46.375 31.8359 46.375C31.2266 46.375 30.7344 46.3125 30.3594 46.1875C29.9844 46.0781 29.6953 45.9453 29.4922 45.7891C29.2891 45.6328 29.1562 45.4766 29.0938 45.3203C29.0312 45.1641 29 45.0391 29 44.9453C29 44.7578 29.0391 44.5547 29.1172 44.3359C29.1953 44.1016 29.3438 43.8516 29.5625 43.5859C29.6562 43.4766 29.7578 43.375 29.8672 43.2812C30.0859 43.0938 30.3047 42.9766 30.5234 42.9297C30.4922 43.2891 30.5312 43.5859 30.6406 43.8203C30.7656 44.0391 30.9219 44.2109 31.1094 44.3359C31.3125 44.4609 31.5312 44.5469 31.7656 44.5938C32.0156 44.6406 32.25 44.6641 32.4688 44.6641C32.6875 44.6641 32.9062 44.6328 33.125 44.5703C33.3594 44.5078 33.5703 44.4297 33.7578 44.3359C33.9453 44.2266 34.0938 44.1094 34.2031 43.9844C34.3281 43.8438 34.3906 43.6953 34.3906 43.5391C34.3906 43.3672 34.3203 43.2266 34.1797 43.1172C34.0391 43.0078 33.8594 42.9219 33.6406 42.8594C33.4375 42.7812 33.2109 42.7266 32.9609 42.6953C32.7266 42.6484 32.5 42.6016 32.2812 42.5547C32.0625 42.5078 31.7656 42.4453 31.3906 42.3672C31.0312 42.2734 30.6719 42.1328 30.3125 41.9453C29.9688 41.7578 29.6641 41.5078 29.3984 41.1953C29.1484 40.8828 29.0234 40.4688 29.0234 39.9531C29.0234 39.3594 29.1719 38.8438 29.4688 38.4062C29.7812 37.9531 30.1562 37.5781 30.5938 37.2812C31.0469 36.9688 31.5234 36.7344 32.0234 36.5781C32.5234 36.4219 32.9688 36.3438 33.3594 36.3438C33.5625 36.3438 33.7812 36.375 34.0156 36.4375C34.25 36.4844 34.4688 36.5781 34.6719 36.7188C34.875 36.8438 35.0391 37.0156 35.1641 37.2344C35.3047 37.4531 35.375 37.7344 35.375 38.0781C35.375 38.4219 35.3438 38.7031 35.2812 38.9219C35.2344 39.125 35.1562 39.2891 35.0469 39.4141C34.9531 39.5234 34.8359 39.5938 34.6953 39.625C34.5547 39.6562 34.3906 39.6719 34.2031 39.6719C34.0781 39.6719 33.9609 39.6562 33.8516 39.625C33.7578 39.5938 33.6562 39.5625 33.5469 39.5312C33.4375 39.5 33.3359 39.4453 33.2422 39.3672C33.3984 39.1797 33.5156 39 33.5938 38.8281C33.6875 38.6562 33.7344 38.4453 33.7344 38.1953C33.7344 37.9766 33.6719 37.7812 33.5469 37.6094C33.4375 37.4375 33.25 37.3516 32.9844 37.3516C32.7031 37.3516 32.4297 37.4062 32.1641 37.5156C31.9141 37.625 31.6875 37.7734 31.4844 37.9609C31.2969 38.1484 31.1406 38.3672 31.0156 38.6172C30.9062 38.8516 30.8516 39.1094 30.8516 39.3906C30.8516 39.8125 31.0078 40.2109 31.3203 40.5859C31.6484 40.9609 32.1562 41.2812 32.8438 41.5469ZM36.9219 37.7031C36.9219 37.6094 37.0469 37.5078 37.2969 37.3984C37.5469 37.2891 37.8203 37.2031 38.1172 37.1406C38.4297 37.0625 38.7109 37.0234 38.9609 37.0234C39.2266 37.0078 39.3594 37.0625 39.3594 37.1875C39.3594 37.4219 39.3438 37.7578 39.3125 38.1953C39.2812 38.6172 39.2422 39.0703 39.1953 39.5547C39.1484 40.0234 39.1016 40.5 39.0547 40.9844C39.0078 41.4531 38.9766 41.8516 38.9609 42.1797C38.9297 42.5234 38.8984 42.8984 38.8672 43.3047C38.8359 43.6484 38.8125 44.0312 38.7969 44.4531C38.7812 44.875 38.7812 45.3047 38.7969 45.7422C38.7969 45.8203 38.7188 45.8984 38.5625 45.9766C38.4062 46.0547 38.2344 46.1094 38.0469 46.1406C37.8594 46.1875 37.6797 46.2109 37.5078 46.2109C37.3359 46.2109 37.2422 46.1797 37.2266 46.1172C37.1953 46.0547 37.1641 45.9453 37.1328 45.7891C37.1016 45.6328 37.0703 45.4141 37.0391 45.1328C37.0078 44.8359 36.9844 44.4609 36.9688 44.0078C36.9531 43.5391 36.9609 42.9766 36.9922 42.3203C37.0547 41.0234 37.0625 40.0234 37.0156 39.3203C36.9688 38.6016 36.9375 38.0625 36.9219 37.7031ZM38.5625 33.0391C38.875 33.0391 39.1719 33.1328 39.4531 33.3203C39.7344 33.5078 39.875 33.7578 39.875 34.0703C39.875 34.3047 39.8125 34.5312 39.6875 34.75C39.5781 34.9688 39.4375 35.1641 39.2656 35.3359C39.0938 35.5078 38.8984 35.6484 38.6797 35.7578C38.4609 35.8516 38.2578 35.8984 38.0703 35.8984C37.8203 35.8984 37.6172 35.8594 37.4609 35.7812C37.3047 35.6875 37.1797 35.5859 37.0859 35.4766C37.0078 35.3516 36.9531 35.2188 36.9219 35.0781C36.8906 34.9375 36.875 34.8047 36.875 34.6797C36.875 34.5234 36.8984 34.3516 36.9453 34.1641C36.9922 33.9609 37.0781 33.7812 37.2031 33.625C37.3281 33.4531 37.5 33.3125 37.7188 33.2031C37.9375 33.0938 38.2188 33.0391 38.5625 33.0391ZM37.9766 35.2188C38.0703 35.2188 38.1719 35.1875 38.2812 35.125C38.4062 35.0469 38.5156 34.9609 38.6094 34.8672C38.7188 34.7734 38.8047 34.6719 38.8672 34.5625C38.9453 34.4531 38.9844 34.3594 38.9844 34.2812C38.9844 34.1562 38.9219 34.0938 38.7969 34.0938C38.7188 34.0938 38.6172 34.125 38.4922 34.1875C38.3828 34.25 38.2734 34.3281 38.1641 34.4219C38.0547 34.5 37.9609 34.5938 37.8828 34.7031C37.8203 34.7969 37.7891 34.8906 37.7891 34.9844C37.7891 35.1406 37.8516 35.2188 37.9766 35.2188ZM43.5547 46.2109C43.2266 46.2109 42.8906 46.125 42.5469 45.9531C42.2031 45.7812 41.8828 45.5234 41.5859 45.1797C41.2891 44.8203 41.0469 44.3828 40.8594 43.8672C40.6719 43.3359 40.5781 42.7188 40.5781 42.0156C40.5781 40.9844 40.7109 40.1328 40.9766 39.4609C41.2422 38.7734 41.5625 38.2266 41.9375 37.8203C42.3281 37.3984 42.75 37.1016 43.2031 36.9297C43.6562 36.7578 44.0703 36.6719 44.4453 36.6719C44.8359 36.6719 45.1562 36.7422 45.4062 36.8828C45.6719 37.0078 45.8906 37.1562 46.0625 37.3281V36.8828C46.1562 36.8047 46.2578 36.7344 46.3672 36.6719C46.4922 36.6094 46.6172 36.5625 46.7422 36.5312C46.8672 36.4844 47 36.4609 47.1406 36.4609H47.4922C47.5859 36.4766 47.6797 36.4922 47.7734 36.5078C47.8828 36.5234 47.9609 36.5625 48.0078 36.625C47.9141 38.6719 47.8359 40.3281 47.7734 41.5938C47.7109 42.8594 47.6641 43.8438 47.6328 44.5469C47.5859 45.375 47.5547 45.9766 47.5391 46.3516C47.5078 47.0078 47.4219 47.6562 47.2812 48.2969C47.1406 48.9531 46.9219 49.5391 46.625 50.0547C46.3281 50.5703 45.9375 50.9844 45.4531 51.2969C44.9688 51.6094 44.375 51.7656 43.6719 51.7656C43.0625 51.7656 42.5703 51.6484 42.1953 51.4141C41.8359 51.1797 41.5547 50.8906 41.3516 50.5469C41.1641 50.2031 41.0391 49.8359 40.9766 49.4453C40.9141 49.0703 40.8828 48.7266 40.8828 48.4141C40.8828 48.3359 40.9219 48.2188 41 48.0625C41.0938 47.9062 41.2188 47.7422 41.375 47.5703C41.5469 47.4141 41.7578 47.2734 42.0078 47.1484C42.2578 47.0234 42.5391 46.9453 42.8516 46.9141C42.7109 47.3359 42.625 47.7188 42.5938 48.0625C42.5625 48.25 42.5547 48.4375 42.5703 48.625C42.5703 49.1406 42.6719 49.5703 42.875 49.9141C43.0781 50.2578 43.3906 50.4297 43.8125 50.4297C44.2656 50.4297 44.6328 50.2344 44.9141 49.8438C45.1953 49.4688 45.4062 49.0078 45.5469 48.4609C45.7031 47.9297 45.8047 47.3672 45.8516 46.7734C45.9141 46.1953 45.9453 45.7031 45.9453 45.2969V44.6172C45.8516 44.7891 45.7344 44.9688 45.5938 45.1562C45.4688 45.3438 45.3125 45.5156 45.125 45.6719C44.9375 45.8281 44.7109 45.9531 44.4453 46.0469C44.1953 46.1562 43.8984 46.2109 43.5547 46.2109ZM44.5156 38.0078C44.25 38.0078 43.9922 38.125 43.7422 38.3594C43.5078 38.5938 43.2969 38.9062 43.1094 39.2969C42.9219 39.6719 42.7734 40.1016 42.6641 40.5859C42.5547 41.0703 42.5 41.5547 42.5 42.0391C42.5 42.3516 42.5156 42.6719 42.5469 43C42.5938 43.3281 42.6719 43.6328 42.7812 43.9141C42.9062 44.1797 43.0625 44.3984 43.25 44.5703C43.4375 44.7422 43.6875 44.8281 44 44.8281C44.2344 44.8125 44.4531 44.7188 44.6562 44.5469C44.8281 44.4062 45 44.1797 45.1719 43.8672C45.3594 43.5547 45.5078 43.1094 45.6172 42.5312C45.7422 42.6562 45.8359 42.7734 45.8984 42.8828C45.9766 42.9922 46.0391 43.0938 46.0859 43.1875C46.1016 43.0625 46.1094 42.9141 46.1094 42.7422C46.125 42.5703 46.1328 42.375 46.1328 42.1562C46.1328 41.7344 46.1094 41.2812 46.0625 40.7969C46.0156 40.2969 45.9297 39.8438 45.8047 39.4375C45.6953 39.0312 45.5312 38.6953 45.3125 38.4297C45.1094 38.1484 44.8438 38.0078 44.5156 38.0078ZM51.8984 45.3672C51.8828 45.4609 51.7969 45.5625 51.6406 45.6719C51.5 45.7656 51.3281 45.8516 51.125 45.9297C50.9375 46.0078 50.7578 46.0547 50.5859 46.0703C50.4141 46.1016 50.2969 46.0859 50.2344 46.0234C50.1719 45.9609 50.0703 45.8438 49.9297 45.6719C49.7891 45.5 49.7031 45.2188 49.6719 44.8281C49.6406 44.4219 49.625 43.9141 49.625 43.3047C49.625 42.6797 49.6172 41.9922 49.6016 41.2422V40.3047C49.6016 40.0234 49.5938 39.6953 49.5781 39.3203C49.5781 38.9453 49.5703 38.5547 49.5547 38.1484C49.6953 38.0703 49.8359 38 49.9766 37.9375C50.1328 37.8594 50.2734 37.7969 50.3984 37.75C50.5391 37.6875 50.6719 37.6406 50.7969 37.6094C51.125 37.5156 51.375 37.4609 51.5469 37.4453C51.7188 37.4297 51.8203 37.4844 51.8516 37.6094C51.8672 37.7031 51.8594 37.9297 51.8281 38.2891C51.7969 38.6016 51.7578 39.0781 51.7109 39.7188C51.6641 40.3438 51.5859 41.2188 51.4766 42.3438C51.6797 41.8438 51.8438 41.4141 51.9688 41.0547C52.1094 40.6953 52.2266 40.4062 52.3203 40.1875C52.4141 39.9219 52.5 39.7109 52.5781 39.5547C52.6562 39.3516 52.7578 39.125 52.8828 38.875C53.0078 38.625 53.1328 38.3906 53.2578 38.1719C53.3984 37.9531 53.5234 37.7578 53.6328 37.5859C53.7578 37.4141 53.8516 37.3125 53.9141 37.2812C53.9609 37.25 54.1016 37.25 54.3359 37.2812C54.5703 37.3125 54.8203 37.3906 55.0859 37.5156C55.3516 37.625 55.6094 37.7891 55.8594 38.0078C56.1094 38.2109 56.2734 38.4609 56.3516 38.7578C56.4453 39.1016 56.4766 39.5547 56.4453 40.1172C56.4297 40.6797 56.3906 41.2578 56.3281 41.8516C56.2812 42.4453 56.2422 43.0078 56.2109 43.5391C56.1797 44.0703 56.2109 44.4766 56.3047 44.7578C56.3359 44.9141 56.3828 45.0547 56.4453 45.1797C56.4766 45.3047 56.5156 45.4219 56.5625 45.5312C56.625 45.625 56.6875 45.6953 56.75 45.7422C56.375 45.9141 56.0703 46.0391 55.8359 46.1172C55.6016 46.1953 55.4219 46.25 55.2969 46.2812C55.1406 46.3281 55.0312 46.3438 54.9688 46.3281C54.8281 46.2812 54.7031 46.1641 54.5938 45.9766C54.5 45.7891 54.4141 45.4922 54.3359 45.0859C54.3047 44.9609 54.2891 44.7578 54.2891 44.4766C54.3047 44.1797 54.3281 43.8516 54.3594 43.4922C54.3906 43.1172 54.4219 42.7344 54.4531 42.3438C54.5 41.9375 54.5312 41.5625 54.5469 41.2188C54.5781 40.8594 54.6016 40.5547 54.6172 40.3047C54.6328 40.0391 54.6328 39.8594 54.6172 39.7656C54.5391 39.4844 54.4297 39.2891 54.2891 39.1797C54.1484 39.0547 54.0391 39.0391 53.9609 39.1328C53.7578 39.3672 53.5391 39.75 53.3047 40.2812C53.0859 40.7969 52.875 41.3672 52.6719 41.9922C52.4688 42.6016 52.2969 43.2109 52.1562 43.8203C52.0156 44.4297 51.9297 44.9453 51.8984 45.3672ZM68.4688 37.2812C68.4688 37.1094 68.5703 36.9844 68.7734 36.9062C68.9922 36.8125 69.2188 36.7656 69.4531 36.7656C69.7031 36.7656 69.9297 36.8125 70.1328 36.9062C70.3359 36.9844 70.4297 37.0938 70.4141 37.2344C70.3984 37.3438 70.3828 37.5625 70.3672 37.8906C70.3516 38.2031 70.3281 38.5781 70.2969 39.0156C70.2812 39.4531 70.2578 39.9219 70.2266 40.4219C70.1953 40.9219 70.1641 41.4141 70.1328 41.8984C70.1172 42.3672 70.1016 42.8047 70.0859 43.2109C70.0859 43.6172 70.0859 43.9297 70.0859 44.1484C70.0859 44.4297 70.1016 44.6875 70.1328 44.9219C70.1641 45.125 70.2031 45.3281 70.25 45.5312C70.2969 45.7188 70.3672 45.8516 70.4609 45.9297C70.3359 45.9766 70.2031 46.0078 70.0625 46.0234C69.9375 46.0391 69.8203 46.0547 69.7109 46.0703C69.5859 46.0859 69.4609 46.0938 69.3359 46.0938C69.0703 46.0938 68.8438 46.0391 68.6562 45.9297C68.4844 45.8203 68.3984 45.5938 68.3984 45.25C68.3984 45.0781 68.4062 44.8281 68.4219 44.5C68.4531 44.1719 68.4844 43.8203 68.5156 43.4453C68.4062 43.7734 68.2734 44.1094 68.1172 44.4531C67.9609 44.7969 67.7656 45.1016 67.5312 45.3672C67.3125 45.6328 67.0625 45.8516 66.7812 46.0234C66.5 46.1953 66.1797 46.2812 65.8203 46.2812C65.4141 46.2812 65.0391 46.1953 64.6953 46.0234C64.3672 45.8516 64.0781 45.6094 63.8281 45.2969C63.5781 44.9688 63.3906 44.5703 63.2656 44.1016C63.1406 43.6328 63.0938 43.0938 63.125 42.4844C63.125 42.0156 63.1328 41.5156 63.1484 40.9844C63.1641 40.5312 63.1875 40.0078 63.2188 39.4141C63.25 38.8203 63.3047 38.2031 63.3828 37.5625C63.3984 37.5 63.5078 37.4219 63.7109 37.3281C63.9141 37.2344 64.1406 37.1562 64.3906 37.0938C64.6406 37.0312 64.8828 37.0078 65.1172 37.0234C65.3516 37.0391 65.5234 37.1328 65.6328 37.3047C65.5547 37.5859 65.4766 37.9219 65.3984 38.3125C65.3203 38.6875 65.25 39.0781 65.1875 39.4844C65.125 39.8906 65.0781 40.2891 65.0469 40.6797C65.0156 41.0703 65 41.4297 65 41.7578C65 42.0547 65.0156 42.3828 65.0469 42.7422C65.0781 43.0859 65.1328 43.4141 65.2109 43.7266C65.3047 44.0234 65.4297 44.2734 65.5859 44.4766C65.7578 44.6797 65.9766 44.7812 66.2422 44.7812C66.5391 44.7812 66.7969 44.6562 67.0156 44.4062C67.25 44.1406 67.4453 43.8047 67.6016 43.3984C67.7578 42.9922 67.8906 42.5312 68 42.0156C68.1094 41.4844 68.1953 40.9609 68.2578 40.4453C68.3359 39.9297 68.3828 39.4375 68.3984 38.9688C68.4297 38.4844 68.4531 38.0781 68.4688 37.75V37.2812ZM76.625 36.7188C77.0625 36.7188 77.4688 36.8438 77.8438 37.0938C78.2188 37.3438 78.5391 37.6719 78.8047 38.0781C79.0703 38.4844 79.2812 38.9531 79.4375 39.4844C79.5938 40 79.6719 40.5391 79.6719 41.1016C79.6719 41.6641 79.6094 42.2578 79.4844 42.8828C79.3594 43.5078 79.1641 44.0859 78.8984 44.6172C78.6328 45.1484 78.2891 45.5938 77.8672 45.9531C77.4453 46.2969 76.9297 46.4688 76.3203 46.4688C75.8359 46.4688 75.375 46.2969 74.9375 45.9531C74.5156 45.5938 74.1875 45.1484 73.9531 44.6172C73.9219 45.1641 73.8516 45.7188 73.7422 46.2812C73.6328 46.8594 73.5781 47.5469 73.5781 48.3438C73.5781 48.5781 73.5859 48.8438 73.6016 49.1406C73.6172 49.4375 73.6406 49.7344 73.6719 50.0312C73.7031 50.3281 73.75 50.6016 73.8125 50.8516C73.875 51.1016 73.9453 51.2969 74.0234 51.4375C73.7578 51.5938 73.5156 51.7109 73.2969 51.7891C73.0938 51.8672 72.9141 51.9219 72.7578 51.9531C72.5859 52 72.4219 52.0234 72.2656 52.0234C72.0625 52.0234 71.9297 51.9375 71.8672 51.7656C71.8047 51.5938 71.7734 51.2891 71.7734 50.8516C71.7734 50.5703 71.7812 50.1641 71.7969 49.6328C71.8281 49.1172 71.8594 48.5234 71.8906 47.8516C71.9375 47.1797 71.9766 46.4766 72.0078 45.7422C72.0547 44.9922 72.0938 44.2578 72.125 43.5391C72.1719 42.8203 72.2031 42.1562 72.2188 41.5469C72.25 40.9219 72.2656 40.3984 72.2656 39.9766C72.2656 39.4609 72.2578 39.0625 72.2422 38.7812C72.2266 38.4844 72.2031 38.2656 72.1719 38.125C72.1562 37.9688 72.1328 37.8594 72.1016 37.7969C72.0703 37.7344 72.0312 37.6641 71.9844 37.5859C72.125 37.4766 72.2891 37.3828 72.4766 37.3047C72.6797 37.2109 72.875 37.1484 73.0625 37.1172C73.2656 37.0703 73.4453 37.0547 73.6016 37.0703C73.7734 37.0859 73.9062 37.125 74 37.1875C74.0781 37.2656 74.1328 37.3828 74.1641 37.5391C74.2109 37.6953 74.25 37.9297 74.2812 38.2422C74.5781 37.8359 74.9141 37.4844 75.2891 37.1875C75.6797 36.875 76.125 36.7188 76.625 36.7188ZM75.7109 45.0859C75.9922 45.0859 76.2578 44.9531 76.5078 44.6875C76.7734 44.4219 77 44.0859 77.1875 43.6797C77.3906 43.2578 77.5469 42.7969 77.6562 42.2969C77.7812 41.7812 77.8438 41.2734 77.8438 40.7734C77.8438 40.2266 77.7891 39.7812 77.6797 39.4375C77.5859 39.0781 77.4609 38.7969 77.3047 38.5938C77.1641 38.375 77.0078 38.2266 76.8359 38.1484C76.6797 38.0547 76.5391 38.0078 76.4141 38.0078C76.1172 38.0078 75.8359 38.1328 75.5703 38.3828C75.3047 38.6172 75.0703 38.9297 74.8672 39.3203C74.6641 39.6953 74.5 40.1172 74.375 40.5859C74.2656 41.0547 74.2109 41.5234 74.2109 41.9922C74.2109 42.4297 74.25 42.8359 74.3281 43.2109C74.4219 43.5859 74.5391 43.9141 74.6797 44.1953C74.8203 44.4766 74.9766 44.6953 75.1484 44.8516C75.3359 45.0078 75.5234 45.0859 75.7109 45.0859ZM88.0391 42.3203C88.2266 41.7578 88.3828 41.2812 88.5078 40.8906C88.6484 40.5 88.7656 40.1875 88.8594 39.9531C88.9688 39.6719 89.0625 39.4453 89.1406 39.2734C89.2344 39.0234 89.3359 38.7734 89.4453 38.5234C89.5703 38.2734 89.6953 38.0469 89.8203 37.8438C89.9453 37.625 90.0625 37.4453 90.1719 37.3047C90.2812 37.1641 90.375 37.0703 90.4531 37.0234C90.5156 36.9922 90.6562 36.9922 90.875 37.0234C91.1094 37.0547 91.3594 37.1328 91.625 37.2578C91.9062 37.3672 92.1641 37.5234 92.3984 37.7266C92.6484 37.9297 92.8203 38.1797 92.9141 38.4766C93.0078 38.8359 93.0391 39.3047 93.0078 39.8828C92.9766 40.4609 92.9297 41.0547 92.8672 41.6641C92.8203 42.2734 92.7812 42.8516 92.75 43.3984C92.7344 43.9453 92.7734 44.3594 92.8672 44.6406C92.9297 44.7969 92.9922 44.9531 93.0547 45.1094C93.1172 45.2344 93.1875 45.3672 93.2656 45.5078C93.3594 45.6328 93.4609 45.7422 93.5703 45.8359C93.1172 46.0078 92.75 46.1328 92.4688 46.2109C92.2031 46.3047 92 46.3672 91.8594 46.3984C91.6875 46.4453 91.5703 46.4531 91.5078 46.4219C91.3828 46.375 91.2656 46.2578 91.1562 46.0703C91.0469 45.8828 90.9531 45.5859 90.875 45.1797C90.8438 45.0547 90.8359 44.8359 90.8516 44.5234C90.8672 44.2109 90.8906 43.8594 90.9219 43.4688C90.9531 43.0781 90.9844 42.6719 91.0156 42.25C91.0469 41.8125 91.0781 41.4062 91.1094 41.0312C91.1406 40.6562 91.1562 40.3281 91.1562 40.0469C91.1719 39.7656 91.1719 39.5781 91.1562 39.4844C91.0781 39.2188 90.9688 39.0312 90.8281 38.9219C90.6875 38.7969 90.5781 38.7812 90.5 38.875C90.3125 39.1094 90.1016 39.5156 89.8672 40.0938C89.6484 40.6562 89.4375 41.2734 89.2344 41.9453C89.0312 42.6016 88.8516 43.2578 88.6953 43.9141C88.5547 44.5703 88.4688 45.1094 88.4375 45.5312C88.4375 45.625 88.3594 45.7266 88.2031 45.8359C88.0625 45.9297 87.8984 46.0156 87.7109 46.0938C87.5391 46.1719 87.3672 46.2188 87.1953 46.2344C87.0234 46.2656 86.9062 46.2422 86.8438 46.1641C86.7969 46.1172 86.6953 46.0078 86.5391 45.8359C86.3984 45.6641 86.3203 45.375 86.3047 44.9688C86.2734 44.5781 86.2734 44.0469 86.3047 43.375C86.3359 42.6875 86.3438 41.9688 86.3281 41.2188V39.4844C86.3281 38.7812 86.3203 37.8125 86.3047 36.5781C86.3047 35.3281 86.2969 33.6797 86.2812 31.6328C86.4531 31.5391 86.6094 31.4609 86.75 31.3984C86.8906 31.3203 87.0234 31.2578 87.1484 31.2109C87.2891 31.1484 87.4219 31.1016 87.5469 31.0703C88.2188 30.8984 88.5703 30.8984 88.6016 31.0703C88.6172 31.2266 88.6016 31.7266 88.5547 32.5703C88.5391 32.9297 88.5156 33.3828 88.4844 33.9297C88.4531 34.4766 88.4141 35.1406 88.3672 35.9219C88.3359 36.7031 88.2891 37.625 88.2266 38.6875C88.1797 39.7344 88.1172 40.9453 88.0391 42.3203ZM97.8359 46.2578C96.7422 46.2578 95.8984 45.8906 95.3047 45.1562C94.7109 44.4219 94.4141 43.4609 94.4141 42.2734C94.4141 41.4453 94.5312 40.6719 94.7656 39.9531C95.0156 39.2188 95.3438 38.5859 95.75 38.0547C96.1562 37.5234 96.625 37.1094 97.1562 36.8125C97.7031 36.5 98.2734 36.3438 98.8672 36.3438C99.4453 36.3438 99.9375 36.5547 100.344 36.9766C100.75 37.3828 100.953 37.9688 100.953 38.7344C100.953 39.2344 100.844 39.7344 100.625 40.2344C100.406 40.7188 100.117 41.1562 99.7578 41.5469C99.4141 41.9219 99.0312 42.2266 98.6094 42.4609C98.1875 42.6953 97.7812 42.8125 97.3906 42.8125C97.1406 42.8125 96.9297 42.7812 96.7578 42.7188C96.5859 42.6562 96.4297 42.5625 96.2891 42.4375C96.3359 43.3281 96.5312 43.9531 96.875 44.3125C97.2188 44.6562 97.6641 44.8281 98.2109 44.8281C98.5859 44.8281 98.9141 44.75 99.1953 44.5938C99.4922 44.4375 99.7422 44.2578 99.9453 44.0547C100.148 43.8516 100.312 43.6484 100.438 43.4453C100.562 43.2266 100.648 43.0625 100.695 42.9531C100.742 42.8594 100.82 42.8125 100.93 42.8125C101.055 42.8125 101.117 42.9062 101.117 43.0938C101.117 43.2656 101.055 43.5312 100.93 43.8906C100.82 44.2344 100.633 44.5859 100.367 44.9453C100.102 45.2891 99.7578 45.5938 99.3359 45.8594C98.9297 46.125 98.4297 46.2578 97.8359 46.2578ZM98.9141 37.3516C98.8203 37.3516 98.6406 37.4531 98.375 37.6562C98.125 37.8438 97.8516 38.125 97.5547 38.5C97.2734 38.875 97.0078 39.3281 96.7578 39.8594C96.5234 40.375 96.375 40.9609 96.3125 41.6172C97.25 41.3984 97.9922 41.0547 98.5391 40.5859C99.0859 40.1172 99.3594 39.4297 99.3594 38.5234C99.3594 38.0703 99.3047 37.7656 99.1953 37.6094C99.0859 37.4375 98.9922 37.3516 98.9141 37.3516ZM108.828 38.8047C108.828 39.0234 108.766 39.25 108.641 39.4844C108.531 39.7031 108.391 39.9141 108.219 40.1172C108.047 40.3203 107.852 40.5 107.633 40.6562C107.43 40.7969 107.234 40.8828 107.047 40.9141C107.172 40.4297 107.211 40.0547 107.164 39.7891C107.117 39.5234 107.039 39.3281 106.93 39.2031C106.805 39.0625 106.648 38.9844 106.461 38.9688C106.18 38.9688 105.906 39.1328 105.641 39.4609C105.391 39.7734 105.172 40.1641 104.984 40.6328C104.797 41.0859 104.648 41.5781 104.539 42.1094C104.43 42.625 104.375 43.0938 104.375 43.5156C104.359 43.8125 104.367 44.1016 104.398 44.3828C104.414 44.6172 104.438 44.8594 104.469 45.1094C104.516 45.3594 104.578 45.5547 104.656 45.6953C104.562 45.7734 104.406 45.8672 104.188 45.9766C103.984 46.0859 103.766 46.1562 103.531 46.1875C103.312 46.2188 103.109 46.1797 102.922 46.0703C102.75 45.9609 102.656 45.7266 102.641 45.3672C102.609 45.0234 102.586 44.6406 102.57 44.2188C102.57 43.7812 102.57 43.3516 102.57 42.9297C102.586 42.4922 102.602 42.0625 102.617 41.6406C102.633 41.2188 102.656 40.8281 102.688 40.4688C102.719 39.7812 102.734 39.25 102.734 38.875C102.734 38.5 102.727 38.1406 102.711 37.7969C102.711 37.7344 102.812 37.6484 103.016 37.5391C103.234 37.4141 103.469 37.3047 103.719 37.2109C103.984 37.1172 104.227 37.0625 104.445 37.0469C104.664 37.0312 104.773 37.0781 104.773 37.1875C104.773 37.3594 104.75 37.7031 104.703 38.2188C104.672 38.7188 104.625 39.2422 104.562 39.7891C104.672 39.4922 104.812 39.1719 104.984 38.8281C105.172 38.4844 105.383 38.1641 105.617 37.8672C105.852 37.5703 106.117 37.3281 106.414 37.1406C106.711 36.9375 107.039 36.8359 107.398 36.8359C107.68 36.8359 107.906 36.9219 108.078 37.0938C108.266 37.2656 108.414 37.4609 108.523 37.6797C108.633 37.8984 108.711 38.1172 108.758 38.3359C108.805 38.5547 108.828 38.7109 108.828 38.8047ZM112.719 46.2578C111.625 46.2578 110.781 45.8906 110.188 45.1562C109.594 44.4219 109.297 43.4609 109.297 42.2734C109.297 41.4453 109.414 40.6719 109.648 39.9531C109.898 39.2188 110.227 38.5859 110.633 38.0547C111.039 37.5234 111.508 37.1094 112.039 36.8125C112.586 36.5 113.156 36.3438 113.75 36.3438C114.328 36.3438 114.82 36.5547 115.227 36.9766C115.633 37.3828 115.836 37.9688 115.836 38.7344C115.836 39.2344 115.727 39.7344 115.508 40.2344C115.289 40.7188 115 41.1562 114.641 41.5469C114.297 41.9219 113.914 42.2266 113.492 42.4609C113.07 42.6953 112.664 42.8125 112.273 42.8125C112.023 42.8125 111.812 42.7812 111.641 42.7188C111.469 42.6562 111.312 42.5625 111.172 42.4375C111.219 43.3281 111.414 43.9531 111.758 44.3125C112.102 44.6562 112.547 44.8281 113.094 44.8281C113.469 44.8281 113.797 44.75 114.078 44.5938C114.375 44.4375 114.625 44.2578 114.828 44.0547C115.031 43.8516 115.195 43.6484 115.32 43.4453C115.445 43.2266 115.531 43.0625 115.578 42.9531C115.625 42.8594 115.703 42.8125 115.812 42.8125C115.938 42.8125 116 42.9062 116 43.0938C116 43.2656 115.938 43.5312 115.812 43.8906C115.703 44.2344 115.516 44.5859 115.25 44.9453C114.984 45.2891 114.641 45.5938 114.219 45.8594C113.812 46.125 113.312 46.2578 112.719 46.2578ZM113.797 37.3516C113.703 37.3516 113.523 37.4531 113.258 37.6562C113.008 37.8438 112.734 38.125 112.438 38.5C112.156 38.875 111.891 39.3281 111.641 39.8594C111.406 40.375 111.258 40.9609 111.195 41.6172C112.133 41.3984 112.875 41.0547 113.422 40.5859C113.969 40.1172 114.242 39.4297 114.242 38.5234C114.242 38.0703 114.188 37.7656 114.078 37.6094C113.969 37.4375 113.875 37.3516 113.797 37.3516Z" fill="#DD417C"/>
    <path d="M28.3906 48.7422H116.609V49.9375H28.3906V48.7422Z" fill="#DD417C"/>
</svg>
