<svg width="193" height="136" viewBox="0 0 193 136" fill="none" xmlns="http://www.w3.org/2000/svg">
    <path d="M0.934692 53.5227C0.934692 75.86 10.1463 96.5565 29.228 108.823C39.1191 115.182 51.5326 119.54 63.0943 119.54C70.1393 119.54 80.8863 123.303 85.1478 115.254C89.2927 107.424 91.3538 93.2327 81.5278 88.8655C73.6508 85.3646 64.8616 84.7876 57.0927 89.1037C52.4245 91.6971 54.3163 96.8896 51.9484 100.678C50.0649 103.692 51.6611 109.916 53.044 112.681C56.8782 120.35 64.4148 129.961 72.9541 132.401C85.7586 136.059 102.051 135.885 111.965 125.971C115.728 122.208 118.492 118.056 121.396 113.539C124.896 108.094 124.396 103.647 124.396 97.2487C124.396 77.8054 126.164 58.2148 130.35 39.376C134.955 18.6554 154.441 12.3688 173.267 12.3688C177.062 12.3688 181.06 13.0289 184.413 13.2261C185.405 13.2845 186.419 13.2261 187.413 13.2261C188.244 13.2261 192.643 13.2261 192 13.2261C190.716 13.2261 186.828 10.8528 185.699 10.2253C179.468 6.76371 173.35 4.26542 167.265 1.2229" stroke="black" stroke-linecap="round" stroke-linejoin="round"/>
    <path d="M191 13C187.014 18.0977 182.55 17.3211 177.927 20.9048C175.672 22.6533 170.921 25 168 25" stroke="black" stroke-linecap="round" stroke-linejoin="round"/>
</svg>
