<svg width="108" height="122" viewBox="0 0 108 122" fill="none" xmlns="http://www.w3.org/2000/svg">
    <g filter="url(#filter0_d)">
        <path d="M11.1838 3.62653C25.7501 3.62653 40.6111 4.48188 55.152 3.62653C59.4573 3.37328 92.7027 -3.7511 93.1786 4.81486C93.6184 12.7313 94.3669 20.7645 94.3669 28.5815C94.3669 39.627 102.685 48.5424 102.685 59.4781C102.685 66.0425 102.446 73.0931 100.573 79.4156C98.6402 85.9378 101.604 94.8861 98.8562 101.07C97.5531 104.001 98.1203 107.039 94.9611 108.794C89.8016 111.66 81.5793 110.672 75.8818 111.501C61.2566 113.628 44.1684 111.765 29.5369 111.765C20.276 111.765 16.0259 111.893 9.73136 104.899C5.7767 100.505 8.8071 84.3227 8.8071 78.4914C8.8071 70.6188 5.2421 63.7192 5.2421 55.9131C5.2421 48.6021 6.43044 41.7468 6.43044 34.5231C6.43044 28.756 7.85128 20.7863 5.50618 15.5098C3.45528 10.8953 4.69801 2.4382 9.99543 2.4382" stroke="black" stroke-linecap="round" stroke-linejoin="round"/>
    </g>
    <defs>
        <filter id="filter0_d" x="0.0701904" y="0.107666" width="107.115" height="120.912" filterUnits="userSpaceOnUse" color-interpolation-filters="sRGB">
            <feFlood flood-opacity="0" result="BackgroundImageFix"/>
            <feColorMatrix in="SourceAlpha" type="matrix" values="0 0 0 0 0 0 0 0 0 0 0 0 0 0 0 0 0 0 127 0"/>
            <feOffset dy="4"/>
            <feGaussianBlur stdDeviation="2"/>
            <feColorMatrix type="matrix" values="0 0 0 0 0 0 0 0 0 0 0 0 0 0 0 0 0 0 0.25 0"/>
            <feBlend mode="normal" in2="BackgroundImageFix" result="effect1_dropShadow"/>
            <feBlend mode="normal" in="SourceGraphic" in2="effect1_dropShadow" result="shape"/>
        </filter>
    </defs>
</svg>
