<svg width="138" height="138" viewBox="0 0 138 138" fill="none" xmlns="http://www.w3.org/2000/svg">
    <g filter="url(#filter0_d)">
        <path d="M74.533 20.957H73.1383L72.4409 19.5807L73.1383 18.2043L78.0197 13.3871H79.4144L80.1117 14.0753V15.4517L74.533 20.957Z" fill="black"/>
        <path d="M73.1383 24.3979V25.7742H75.9277L84.9932 17.5162L85.6905 15.4517V14.0753H84.2958L73.1383 24.3979Z" fill="black"/>
        <path d="M94.0587 34.0323L95.4534 35.4086L99.6375 36.0968H103.822L108.006 34.0323L110.098 32.656L112.19 29.2151V26.4624V22.3334L111.492 19.5807L109.4 16.828L105.914 14.0753L102.427 13.3871H97.5454L94.0587 15.4517L90.572 18.2043L89.1773 21.6452V26.4624L90.572 30.5914L94.0587 34.0323Z" fill="black"/>
        <path d="M74.533 64.3119L80.8091 48.4839L82.2038 46.4194L84.2958 43.6667L87.0852 41.6022L89.1773 40.914L90.572 40.2259H112.19L114.282 40.914L115.676 42.2904L118.466 45.0431L119.861 47.1076L121.255 49.8603L122.65 52.6129L124.045 55.3656L124.742 58.8065V60.871V65.6882L114.282 65.4015L112.19 65.3441L89.1773 64.7133L84.9932 64.5986L74.533 64.3119Z" fill="black"/>
    </g>
    <g filter="url(#filter1_d)">
        <path d="M13.2581 126.247L15.3226 128.312L18.0753 129H20.828L22.2043 127.624L29.7742 105.602L30.4624 103.538V102.161V83.5806L40.0968 100.097L40.785 100.785V126.247L42.1613 127.624L42.8495 128.312L44.914 129H46.2903H48.3548L49.7312 128.312L51.1075 127.624L51.7957 126.247V124.871L51.1075 98.0322V96.6559L40.785 78.7634L40.0968 78.0753V77.3871V56.7419V55.3656H41.4731L42.1613 56.7419L49.043 73.9462L51.1075 76.0107L52.4839 77.3871H54.5484L56.6129 76.0107L57.9893 73.9462V71.8817V69.8172L48.3548 47.7957L46.2903 44.3548L44.914 42.2903L42.8495 40.914L40.0968 39.5376H17.3871L14.6344 40.914L11.8817 42.9785L9.8172 45.043L7.75269 48.4839L6.37634 52.6129L5.68817 56.0538L5 76.0107L6.37634 77.3871L7.75269 78.0753H9.8172L11.8817 77.3871L13.2581 76.0107L14.6344 73.9462V61.5591L15.3226 56.7419L16.0108 55.3656H17.3871L18.0753 102.161L11.8817 121.43V124.183L13.2581 126.247Z" fill="#0E0202"/>
        <path d="M33.2151 34.7204L29.086 35.4086H24.957L22.8925 34.7204L20.828 32.6559L19.4516 31.2796L18.0753 29.9032L16.6989 27.1505L16.0108 25.086V22.3333L17.3871 18.8925L19.4516 16.1398L22.8925 14.0753L26.3333 12.6989H30.4624L33.9032 13.3871L37.3441 15.4516L39.4086 17.5161L40.785 20.957V25.086L40.0968 27.8387L38.0323 31.2796L35.9677 33.3441L33.2151 34.7204Z" fill="#0E0202"/>
        <path d="M13.2581 126.247L15.3226 128.312L18.0753 129H20.828L22.2043 127.624L29.7742 105.602L30.4624 103.538V102.161V83.5806L40.0968 100.097L40.785 100.785V126.247L42.1613 127.624L42.8495 128.312L44.914 129H46.2903H48.3548L49.7312 128.312L51.1075 127.624L51.7957 126.247V124.871L51.1075 98.0322V96.6559L40.785 78.7634L40.0968 78.0753V77.3871V56.7419V55.3656H41.4731L42.1613 56.7419L49.043 73.9462L51.1075 76.0107L52.4839 77.3871H54.5484L56.6129 76.0107L57.9893 73.9462V71.8817V69.8172L48.3548 47.7957L46.2903 44.3548L44.914 42.2903L42.8495 40.914L40.0968 39.5376H17.3871L14.6344 40.914L11.8817 42.9785L9.8172 45.043L7.75269 48.4839L6.37634 52.6129L5.68817 56.0538L5 76.0107L6.37634 77.3871L7.75269 78.0753H9.8172L11.8817 77.3871L13.2581 76.0107L14.6344 73.9462V61.5591L15.3226 56.7419L16.0108 55.3656H17.3871L18.0753 102.161L11.8817 121.43V124.183L13.2581 126.247Z" stroke="black"/>
        <path d="M33.2151 34.7204L29.086 35.4086H24.957L22.8925 34.7204L20.828 32.6559L19.4516 31.2796L18.0753 29.9032L16.6989 27.1505L16.0108 25.086V22.3333L17.3871 18.8925L19.4516 16.1398L22.8925 14.0753L26.3333 12.6989H30.4624L33.9032 13.3871L37.3441 15.4516L39.4086 17.5161L40.785 20.957V25.086L40.0968 27.8387L38.0323 31.2796L35.9677 33.3441L33.2151 34.7204Z" stroke="black"/>
    </g>
    <g filter="url(#filter2_d)">
        <path d="M61.4301 3.75269V67.7527L133 71.1935V3.06452L131.624 1L62.8065 1.68817L61.4301 3.75269Z" stroke="black"/>
    </g>
    <g filter="url(#filter3_d)">
        <path d="M87.5807 56.0538L84.828 62.9356V63.6237H88.957V56.0538H87.5807Z" fill="white"/>
        <path d="M111.667 54.6775V64.3119H114.419V58.1184L111.667 54.6775Z" fill="white"/>
        <path d="M87.5807 56.0538L84.828 62.9356V63.6237H88.957V56.0538H87.5807Z" stroke="#FFFDFD" stroke-width="0.25"/>
        <path d="M111.667 54.6775V64.3119H114.419V58.1184L111.667 54.6775Z" stroke="#FFFDFD" stroke-width="0.25"/>
    </g>
    <defs>
        <filter id="filter0_d" x="68.4409" y="13.3871" width="60.3011" height="60.3011" filterUnits="userSpaceOnUse" color-interpolation-filters="sRGB">
            <feFlood flood-opacity="0" result="BackgroundImageFix"/>
            <feColorMatrix in="SourceAlpha" type="matrix" values="0 0 0 0 0 0 0 0 0 0 0 0 0 0 0 0 0 0 127 0"/>
            <feOffset dy="4"/>
            <feGaussianBlur stdDeviation="2"/>
            <feColorMatrix type="matrix" values="0 0 0 0 0 0 0 0 0 0 0 0 0 0 0 0 0 0 0.25 0"/>
            <feBlend mode="normal" in2="BackgroundImageFix" result="effect1_dropShadow"/>
            <feBlend mode="normal" in="SourceGraphic" in2="effect1_dropShadow" result="shape"/>
        </filter>
        <filter id="filter1_d" x="0.492798" y="12.1989" width="61.9964" height="125.301" filterUnits="userSpaceOnUse" color-interpolation-filters="sRGB">
            <feFlood flood-opacity="0" result="BackgroundImageFix"/>
            <feColorMatrix in="SourceAlpha" type="matrix" values="0 0 0 0 0 0 0 0 0 0 0 0 0 0 0 0 0 0 127 0"/>
            <feOffset dy="4"/>
            <feGaussianBlur stdDeviation="2"/>
            <feColorMatrix type="matrix" values="0 0 0 0 0 0 0 0 0 0 0 0 0 0 0 0 0 0 0.25 0"/>
            <feBlend mode="normal" in2="BackgroundImageFix" result="effect1_dropShadow"/>
            <feBlend mode="normal" in="SourceGraphic" in2="effect1_dropShadow" result="shape"/>
        </filter>
        <filter id="filter2_d" x="56.9301" y="0.497314" width="80.5699" height="79.2208" filterUnits="userSpaceOnUse" color-interpolation-filters="sRGB">
            <feFlood flood-opacity="0" result="BackgroundImageFix"/>
            <feColorMatrix in="SourceAlpha" type="matrix" values="0 0 0 0 0 0 0 0 0 0 0 0 0 0 0 0 0 0 127 0"/>
            <feOffset dy="4"/>
            <feGaussianBlur stdDeviation="2"/>
            <feColorMatrix type="matrix" values="0 0 0 0 0 0 0 0 0 0 0 0 0 0 0 0 0 0 0.25 0"/>
            <feBlend mode="normal" in2="BackgroundImageFix" result="effect1_dropShadow"/>
            <feBlend mode="normal" in="SourceGraphic" in2="effect1_dropShadow" result="shape"/>
        </filter>
        <filter id="filter3_d" x="80.703" y="54.3212" width="37.8414" height="18.1158" filterUnits="userSpaceOnUse" color-interpolation-filters="sRGB">
            <feFlood flood-opacity="0" result="BackgroundImageFix"/>
            <feColorMatrix in="SourceAlpha" type="matrix" values="0 0 0 0 0 0 0 0 0 0 0 0 0 0 0 0 0 0 127 0"/>
            <feOffset dy="4"/>
            <feGaussianBlur stdDeviation="2"/>
            <feColorMatrix type="matrix" values="0 0 0 0 0 0 0 0 0 0 0 0 0 0 0 0 0 0 0.25 0"/>
            <feBlend mode="normal" in2="BackgroundImageFix" result="effect1_dropShadow"/>
            <feBlend mode="normal" in="SourceGraphic" in2="effect1_dropShadow" result="shape"/>
        </filter>
    </defs>
</svg>
