<svg width="222" height="82" viewBox="0 0 222 82" fill="none" xmlns="http://www.w3.org/2000/svg">
    <path d="M0.731873 5.65401C5.4808 5.65401 10.2293 6.0056 14.4499 4.12979C18.0047 2.54984 22.5792 2.22451 26.4531 2.22451C35.6619 2.22451 44.8707 2.22451 54.0796 2.22451C63.9318 2.22451 73.9758 5.21319 83.2303 8.41666C86.3999 9.51382 89.1762 13.0236 92.4708 13.3704C97.3098 13.8797 101.671 18.8405 106.189 19.372C108.901 19.691 114.907 24.7424 116.287 27.0883C117.753 29.5808 122.181 32.4111 124.384 34.6142C127.305 37.5354 126.754 40.7789 128.29 44.2358C129.523 47.0091 128.126 51.5088 130.005 53.8575C131.538 55.7741 131.053 62.2996 131.053 64.8128C131.053 68.527 131.686 72.5963 130.005 75.9586C127.332 81.3051 115.055 81.6139 110.047 79.3881C105.248 77.2554 104.919 76.8724 103.569 72.1481C102.639 68.8938 101.902 65.4957 101.902 61.812C101.902 49.1066 106.434 37.1804 116.906 28.8031C122.364 24.437 126.817 19.6599 133.625 17.2286C141.84 14.2947 150.238 13.3704 158.917 13.3704C163.489 13.3704 167.967 12.513 172.635 12.513C175.635 12.513 180.603 12.3142 183.781 11.608C192.589 9.65078 199.89 10.7982 208.645 10.7982C212.216 10.7982 215.179 11.6556 218.933 11.6556C219.776 11.6556 223.258 12.0131 220.22 11.6556C218.923 11.5031 217.545 10.1698 216.361 9.51219C213.585 7.9698 211.754 6.29727 208.645 5.60638C205.964 5.01053 200.59 3.35122 199.643 0.509766" stroke="#DD417C" stroke-linecap="round" stroke-linejoin="round"/>
    <path d="M220.077 11.6556C217.807 12.5968 200.217 22.6611 199.5 21.9441" stroke="#DD417C" stroke-linecap="round" stroke-linejoin="round"/>
</svg>
