<svg width="80" height="42" viewBox="0 0 80 42" fill="none" xmlns="http://www.w3.org/2000/svg">
    <path d="M5.90625 25.6367C5.50781 25.9648 5.28516 26.5508 5.23828 27.3945C5.21484 28.2148 5.35547 29.0586 5.66016 29.9258C5.98828 30.7695 6.48047 31.5195 7.13672 32.1758C7.79297 32.832 8.61328 33.1602 9.59766 33.1602C10.2305 33.1602 10.7695 33.0078 11.2148 32.7031C11.6836 32.3984 12.0586 32.0234 12.3398 31.5781C12.6445 31.1094 12.8672 30.5938 13.0078 30.0312C13.1484 29.4688 13.2188 28.918 13.2188 28.3789C13.2188 27.6055 13.0664 26.9609 12.7617 26.4453C12.4805 25.9297 12.0938 25.4844 11.6016 25.1094C11.1328 24.7109 10.582 24.3828 9.94922 24.125C9.33984 23.8438 8.71875 23.5625 8.08594 23.2812C7.5 23.0469 6.79688 22.7539 5.97656 22.4023C5.15625 22.0273 4.37109 21.5469 3.62109 20.9609C2.87109 20.3516 2.22656 19.6133 1.6875 18.7461C1.17188 17.8555 0.914062 16.7656 0.914062 15.4766C0.914062 14.6328 1.13672 13.7773 1.58203 12.9102C2.02734 12.043 2.66016 11.2578 3.48047 10.5547C4.30078 9.82812 5.28516 9.24219 6.43359 8.79688C7.60547 8.35156 8.91797 8.12891 10.3711 8.12891C11.8008 8.12891 12.9609 8.25781 13.8516 8.51562C14.7422 8.77344 15.4336 9.11328 15.9258 9.53516C16.418 9.93359 16.7461 10.3789 16.9102 10.8711C17.0977 11.3398 17.1914 11.7852 17.1914 12.207C17.1914 12.6289 17.0625 13.0625 16.8047 13.5078C16.5469 13.9297 16.2422 14.3281 15.8906 14.7031C15.5391 15.0547 15.1758 15.3711 14.8008 15.6523C14.4258 15.9102 14.1211 16.0859 13.8867 16.1797C14.0039 15.875 14.1211 15.4531 14.2383 14.9141C14.3555 14.375 14.3203 13.8359 14.1328 13.2969C13.9688 12.7578 13.5586 12.2891 12.9023 11.8906C12.2695 11.4922 11.2383 11.293 9.80859 11.293C8.98828 11.293 8.19141 11.4219 7.41797 11.6797C6.64453 11.9375 5.95312 12.2773 5.34375 12.6992C4.75781 13.0977 4.28906 13.5547 3.9375 14.0703C3.58594 14.5859 3.41016 15.1133 3.41016 15.6523C3.41016 16.168 3.58594 16.6484 3.9375 17.0938C4.3125 17.5156 4.80469 17.9258 5.41406 18.3242C6.04688 18.6992 6.76172 19.0742 7.55859 19.4492C8.37891 19.8242 9.23438 20.1992 10.125 20.5742C10.9922 20.9492 11.8477 21.3594 12.6914 21.8047C13.5352 22.2266 14.2852 22.7188 14.9414 23.2812C15.6211 23.8438 16.1602 24.4766 16.5586 25.1797C16.957 25.8828 17.1562 26.6914 17.1562 27.6055C17.1562 28.5898 16.9688 29.5391 16.5938 30.4531C16.2422 31.3438 15.7266 32.1289 15.0469 32.8086C14.3906 33.4883 13.582 34.0273 12.6211 34.4258C11.6602 34.8477 10.5703 35.0586 9.35156 35.0586C8.27344 35.0586 7.25391 34.8828 6.29297 34.5312C5.33203 34.1797 4.48828 33.7227 3.76172 33.1602C3.05859 32.5977 2.49609 31.9766 2.07422 31.2969C1.65234 30.6172 1.44141 29.9492 1.44141 29.293C1.44141 28.5898 1.59375 27.9922 1.89844 27.5C2.22656 27.0078 2.625 26.6211 3.09375 26.3398C3.5625 26.0352 4.04297 25.8242 4.53516 25.707C5.05078 25.5898 5.50781 25.5664 5.90625 25.6367ZM32.625 16.3555C32.3672 16.3086 32.0156 16.2617 31.5703 16.2148C31.1484 16.168 30.7148 16.1328 30.2695 16.1094C29.7539 16.0859 29.2031 16.0742 28.6172 16.0742C28.0312 16.0273 27.293 16.0273 26.4023 16.0742C25.5352 16.0977 24.6211 16.1094 23.6602 16.1094C23.6367 16.7188 23.5898 17.3398 23.5195 17.9727C23.4727 18.6055 23.4258 19.2266 23.3789 19.8359C23.2617 20.9609 23.1562 22.1094 23.0625 23.2812C22.9922 24.4531 22.957 25.5664 22.957 26.6211C22.957 27.6758 23.0156 28.6367 23.1328 29.5039C23.2734 30.3477 23.5195 31.0156 23.8711 31.5078C23.5898 31.7188 23.2852 31.8828 22.957 32C22.6289 32.0938 22.3359 32.1641 22.0781 32.2109C21.7734 32.2812 21.4688 32.3164 21.1641 32.3164C20.8828 32.3164 20.6484 32.2227 20.4609 32.0352C20.2734 31.8477 20.168 31.5195 20.1445 31.0508C20.0977 30.2539 20.0859 29.457 20.1094 28.6602C20.1562 27.8398 20.2031 26.9844 20.25 26.0938C20.3203 25.2031 20.3906 24.2539 20.4609 23.2461C20.5312 22.2148 20.6016 21.0898 20.6719 19.8711C20.7422 18.6055 20.7773 17.375 20.7773 16.1797C19.8867 16.2031 19.1367 16.2148 18.5273 16.2148C17.918 16.2148 17.5781 16.2031 17.5078 16.1797C17.4375 16.1328 17.3555 16.0273 17.2617 15.8633C17.168 15.7227 17.0508 15.5117 16.9102 15.2305C16.7461 14.9492 16.5469 14.5508 16.3125 14.0352C16.7578 14.0352 17.25 14.0352 17.7891 14.0352C18.3047 14.0352 18.7852 14.0234 19.2305 14C19.7461 13.9766 20.2617 13.9531 20.7773 13.9297C20.7539 13.5547 20.7422 13.1562 20.7422 12.7344C20.7188 12.4062 20.707 12.043 20.707 11.6445C20.707 11.2227 20.6953 10.8359 20.6719 10.4844C20.6719 10.3438 20.8359 10.1797 21.1641 9.99219C21.5156 9.78125 21.8906 9.59375 22.2891 9.42969C22.6875 9.26562 23.0508 9.16016 23.3789 9.11328C23.7305 9.06641 23.9062 9.14844 23.9062 9.35938C23.9062 9.57031 23.8945 10.0859 23.8711 10.9062C23.8711 11.7031 23.8477 12.6758 23.8008 13.8242C24.0352 13.8242 24.2109 13.8125 24.3281 13.7891C25.5703 13.7422 26.5664 13.6953 27.3164 13.6484C28.0898 13.5781 28.7227 13.5664 29.2148 13.6133C29.707 13.6602 30.1406 13.7773 30.5156 13.9648C30.8906 14.1523 31.3125 14.457 31.7812 14.8789C31.9453 15.0195 32.0859 15.1719 32.2031 15.3359C32.3203 15.4766 32.4141 15.6406 32.4844 15.8281C32.5781 15.9922 32.625 16.168 32.625 16.3555ZM31.4297 32.3867C29.7891 32.3867 28.5234 31.8359 27.6328 30.7344C26.7422 29.6328 26.2969 28.1914 26.2969 26.4102C26.2969 25.168 26.4727 24.0078 26.8242 22.9297C27.1992 21.8281 27.6914 20.8789 28.3008 20.082C28.9102 19.2852 29.6133 18.6641 30.4102 18.2188C31.2305 17.75 32.0859 17.5156 32.9766 17.5156C33.8438 17.5156 34.582 17.832 35.1914 18.4648C35.8008 19.0742 36.1055 19.9531 36.1055 21.1016C36.1055 21.8516 35.9414 22.6016 35.6133 23.3516C35.2852 24.0781 34.8516 24.7344 34.3125 25.3203C33.7969 25.8828 33.2227 26.3398 32.5898 26.6914C31.957 27.043 31.3477 27.2188 30.7617 27.2188C30.3867 27.2188 30.0703 27.1719 29.8125 27.0781C29.5547 26.9844 29.3203 26.8438 29.1094 26.6562C29.1797 27.9922 29.4727 28.9297 29.9883 29.4688C30.5039 29.9844 31.1719 30.2422 31.9922 30.2422C32.5547 30.2422 33.0469 30.125 33.4688 29.8906C33.9141 29.6562 34.2891 29.3867 34.5938 29.082C34.8984 28.7773 35.1445 28.4727 35.332 28.168C35.5195 27.8398 35.6484 27.5938 35.7188 27.4297C35.7891 27.2891 35.9062 27.2188 36.0703 27.2188C36.2578 27.2188 36.3516 27.3594 36.3516 27.6406C36.3516 27.8984 36.2578 28.2969 36.0703 28.8359C35.9062 29.3516 35.625 29.8789 35.2266 30.418C34.8281 30.9336 34.3125 31.3906 33.6797 31.7891C33.0703 32.1875 32.3203 32.3867 31.4297 32.3867ZM33.0469 19.0273C32.9062 19.0273 32.6367 19.1797 32.2383 19.4844C31.8633 19.7656 31.4531 20.1875 31.0078 20.75C30.5859 21.3125 30.1875 21.9922 29.8125 22.7891C29.4609 23.5625 29.2383 24.4414 29.1445 25.4258C30.5508 25.0977 31.6641 24.582 32.4844 23.8789C33.3047 23.1758 33.7148 22.1445 33.7148 20.7852C33.7148 20.1055 33.6328 19.6484 33.4688 19.4141C33.3047 19.1562 33.1641 19.0273 33.0469 19.0273ZM45.2461 18.0781C45.9023 18.0781 46.5117 18.2656 47.0742 18.6406C47.6367 19.0156 48.1172 19.5078 48.5156 20.1172C48.9141 20.7266 49.2305 21.4297 49.4648 22.2266C49.6992 23 49.8164 23.8086 49.8164 24.6523C49.8164 25.4961 49.7227 26.3867 49.5352 27.3242C49.3477 28.2617 49.0547 29.1289 48.6562 29.9258C48.2578 30.7227 47.7422 31.3906 47.1094 31.9297C46.4766 32.4453 45.7031 32.7031 44.7891 32.7031C44.0625 32.7031 43.3711 32.4453 42.7148 31.9297C42.082 31.3906 41.5898 30.7227 41.2383 29.9258C41.1914 30.7461 41.0859 31.5781 40.9219 32.4219C40.7578 33.2891 40.6758 34.3203 40.6758 35.5156C40.6758 35.8672 40.6875 36.2656 40.7109 36.7109C40.7344 37.1562 40.7695 37.6016 40.8164 38.0469C40.8633 38.4922 40.9336 38.9023 41.0273 39.2773C41.1211 39.6523 41.2266 39.9453 41.3438 40.1562C40.9453 40.3906 40.582 40.5664 40.2539 40.6836C39.9492 40.8008 39.6797 40.8828 39.4453 40.9297C39.1875 41 38.9414 41.0352 38.707 41.0352C38.4023 41.0352 38.2031 40.9062 38.1094 40.6484C38.0156 40.3906 37.9688 39.9336 37.9688 39.2773C37.9688 38.8555 37.9805 38.2461 38.0039 37.4492C38.0508 36.6758 38.0977 35.7852 38.1445 34.7773C38.2148 33.7695 38.2734 32.7148 38.3203 31.6133C38.3906 30.4883 38.4492 29.3867 38.4961 28.3086C38.5664 27.2305 38.6133 26.2344 38.6367 25.3203C38.6836 24.3828 38.707 23.5977 38.707 22.9648C38.707 22.1914 38.6953 21.5938 38.6719 21.1719C38.6484 20.7266 38.6133 20.3984 38.5664 20.1875C38.543 19.9531 38.5078 19.7891 38.4609 19.6953C38.4141 19.6016 38.3555 19.4961 38.2852 19.3789C38.4961 19.2148 38.7422 19.0742 39.0234 18.957C39.3281 18.8164 39.6211 18.7227 39.9023 18.6758C40.207 18.6055 40.4766 18.582 40.7109 18.6055C40.9688 18.6289 41.168 18.6875 41.3086 18.7812C41.4258 18.8984 41.5078 19.0742 41.5547 19.3086C41.625 19.543 41.6836 19.8945 41.7305 20.3633C42.1758 19.7539 42.6797 19.2266 43.2422 18.7812C43.8281 18.3125 44.4961 18.0781 45.2461 18.0781ZM43.875 30.6289C44.2969 30.6289 44.6953 30.4297 45.0703 30.0312C45.4688 29.6328 45.8086 29.1289 46.0898 28.5195C46.3945 27.8867 46.6289 27.1953 46.793 26.4453C46.9805 25.6719 47.0742 24.9102 47.0742 24.1602C47.0742 23.3398 46.9922 22.6719 46.8281 22.1562C46.6875 21.6172 46.5 21.1953 46.2656 20.8906C46.0547 20.5625 45.8203 20.3398 45.5625 20.2227C45.3281 20.082 45.1172 20.0117 44.9297 20.0117C44.4844 20.0117 44.0625 20.1992 43.6641 20.5742C43.2656 20.9258 42.9141 21.3945 42.6094 21.9805C42.3047 22.543 42.0586 23.1758 41.8711 23.8789C41.707 24.582 41.625 25.2852 41.625 25.9883C41.625 26.6445 41.6836 27.2539 41.8008 27.8164C41.9414 28.3789 42.1172 28.8711 42.3281 29.293C42.5391 29.7148 42.7734 30.043 43.0312 30.2773C43.3125 30.5117 43.5938 30.6289 43.875 30.6289Z" fill="black"/>
    <path d="M78.6328 23.375C78.4141 23.3438 78.1484 23.3281 77.8359 23.3281C77.5547 23.2969 77.2734 23.2812 76.9922 23.2812H75.9141C75.9141 24.4688 75.9297 25.6875 75.9609 26.9375C75.9922 28.0312 76.0078 29.2656 76.0078 30.6406C76.0391 31.9844 76.0859 33.3594 76.1484 34.7656C75.9922 34.9219 75.7734 35.0625 75.4922 35.1875C75.2109 35.3125 74.9297 35.4219 74.6484 35.5156C74.3047 35.6406 73.9609 35.7344 73.6172 35.7969C72.6172 35.9844 71.9141 36.0469 71.5078 35.9844C71.1328 35.9531 70.9609 35.5 70.9922 34.625C70.9922 34.0625 71.0547 32.7969 71.1797 30.8281C71.3359 28.8281 71.4766 26.3906 71.6016 23.5156C71.4766 23.5469 71.3359 23.5625 71.1797 23.5625C71.0547 23.5625 70.9297 23.5781 70.8047 23.6094C69.7109 23.7031 68.6328 23.8125 67.5703 23.9375C66.6641 24.0312 65.6953 24.125 64.6641 24.2188C63.6328 24.3125 62.7266 24.4062 61.9453 24.5C61.6328 24.5625 61.3828 24.5312 61.1953 24.4062C61.0078 24.25 60.8047 24.0625 60.5859 23.8438C60.4922 23.75 60.3359 23.5625 60.1172 23.2812C59.9297 22.9688 59.7266 22.6406 59.5078 22.2969C59.2891 21.9531 59.0703 21.625 58.8516 21.3125C58.6641 20.9688 58.5391 20.6875 58.4766 20.4688C58.3203 20.0938 58.2578 19.75 58.2891 19.4375C58.3516 19.125 58.4609 18.7969 58.6172 18.4531C59.5234 16.8594 60.3203 15.4531 61.0078 14.2344C61.7266 13.0156 62.3203 11.9844 62.7891 11.1406C63.3516 10.1406 63.8359 9.29688 64.2422 8.60938C64.6172 7.98438 65.0234 7.26562 65.4609 6.45312C65.9297 5.64062 66.4297 4.85938 66.9609 4.10938C67.5234 3.35938 68.1172 2.6875 68.7422 2.09375C69.3984 1.46875 70.0859 1.04687 70.8047 0.828125L75.9609 0.3125C75.8984 2.65625 75.8516 4.84375 75.8203 6.875C75.7891 8.90625 75.7734 10.6875 75.7734 12.2188C75.7734 14 75.7891 15.6406 75.8203 17.1406C75.7891 17.4219 75.7734 17.7188 75.7734 18.0312C75.8047 18.3125 75.8203 18.6094 75.8203 18.9219C76.2578 18.9219 76.7109 18.9062 77.1797 18.875C77.5859 18.8438 78.0078 18.8281 78.4453 18.8281C78.9141 18.7969 79.3516 18.7812 79.7578 18.7812C79.9141 19.4688 79.9609 20.0625 79.8984 20.5625C79.8672 20.8438 79.8203 21.1094 79.7578 21.3594C79.6953 21.6406 79.6016 21.9062 79.4766 22.1562C79.3828 22.375 79.2578 22.5938 79.1016 22.8125C78.9453 23.0312 78.7891 23.2188 78.6328 23.375ZM71.8359 15.1719C71.8984 12.8594 71.9141 10.7188 71.8828 8.75C71.8516 6.78125 71.8203 5.26562 71.7891 4.20312C71.2578 5.10938 70.6172 6.1875 69.8672 7.4375C69.1484 8.6875 68.4297 9.9375 67.7109 11.1875C67.2734 11.9062 66.8203 12.6875 66.3516 13.5312C65.9141 14.3438 65.4766 15.1719 65.0391 16.0156C64.6016 16.8281 64.1953 17.625 63.8203 18.4062C63.4453 19.1875 63.1172 19.8594 62.8359 20.4219C63.6797 20.2969 64.7891 20.1406 66.1641 19.9531C67.5391 19.7656 69.1016 19.5781 70.8516 19.3906C71.0078 19.3594 71.1484 19.3438 71.2734 19.3438C71.4297 19.3438 71.5859 19.3281 71.7422 19.2969C71.7734 18.6094 71.7891 17.9375 71.7891 17.2812C71.8203 16.5938 71.8359 15.8906 71.8359 15.1719Z" fill="#DD417C"/>
</svg>
