<svg width="80" height="42" viewBox="0 0 80 42" fill="none" xmlns="http://www.w3.org/2000/svg">
    <path d="M5.90625 25.6367C5.50781 25.9648 5.28516 26.5508 5.23828 27.3945C5.21484 28.2148 5.35547 29.0586 5.66016 29.9258C5.98828 30.7695 6.48047 31.5195 7.13672 32.1758C7.79297 32.832 8.61328 33.1602 9.59766 33.1602C10.2305 33.1602 10.7695 33.0078 11.2148 32.7031C11.6836 32.3984 12.0586 32.0234 12.3398 31.5781C12.6445 31.1094 12.8672 30.5938 13.0078 30.0312C13.1484 29.4688 13.2188 28.918 13.2188 28.3789C13.2188 27.6055 13.0664 26.9609 12.7617 26.4453C12.4805 25.9297 12.0938 25.4844 11.6016 25.1094C11.1328 24.7109 10.582 24.3828 9.94922 24.125C9.33984 23.8438 8.71875 23.5625 8.08594 23.2812C7.5 23.0469 6.79688 22.7539 5.97656 22.4023C5.15625 22.0273 4.37109 21.5469 3.62109 20.9609C2.87109 20.3516 2.22656 19.6133 1.6875 18.7461C1.17188 17.8555 0.914062 16.7656 0.914062 15.4766C0.914062 14.6328 1.13672 13.7773 1.58203 12.9102C2.02734 12.043 2.66016 11.2578 3.48047 10.5547C4.30078 9.82812 5.28516 9.24219 6.43359 8.79688C7.60547 8.35156 8.91797 8.12891 10.3711 8.12891C11.8008 8.12891 12.9609 8.25781 13.8516 8.51562C14.7422 8.77344 15.4336 9.11328 15.9258 9.53516C16.418 9.93359 16.7461 10.3789 16.9102 10.8711C17.0977 11.3398 17.1914 11.7852 17.1914 12.207C17.1914 12.6289 17.0625 13.0625 16.8047 13.5078C16.5469 13.9297 16.2422 14.3281 15.8906 14.7031C15.5391 15.0547 15.1758 15.3711 14.8008 15.6523C14.4258 15.9102 14.1211 16.0859 13.8867 16.1797C14.0039 15.875 14.1211 15.4531 14.2383 14.9141C14.3555 14.375 14.3203 13.8359 14.1328 13.2969C13.9688 12.7578 13.5586 12.2891 12.9023 11.8906C12.2695 11.4922 11.2383 11.293 9.80859 11.293C8.98828 11.293 8.19141 11.4219 7.41797 11.6797C6.64453 11.9375 5.95312 12.2773 5.34375 12.6992C4.75781 13.0977 4.28906 13.5547 3.9375 14.0703C3.58594 14.5859 3.41016 15.1133 3.41016 15.6523C3.41016 16.168 3.58594 16.6484 3.9375 17.0938C4.3125 17.5156 4.80469 17.9258 5.41406 18.3242C6.04688 18.6992 6.76172 19.0742 7.55859 19.4492C8.37891 19.8242 9.23438 20.1992 10.125 20.5742C10.9922 20.9492 11.8477 21.3594 12.6914 21.8047C13.5352 22.2266 14.2852 22.7188 14.9414 23.2812C15.6211 23.8438 16.1602 24.4766 16.5586 25.1797C16.957 25.8828 17.1562 26.6914 17.1562 27.6055C17.1562 28.5898 16.9688 29.5391 16.5938 30.4531C16.2422 31.3438 15.7266 32.1289 15.0469 32.8086C14.3906 33.4883 13.582 34.0273 12.6211 34.4258C11.6602 34.8477 10.5703 35.0586 9.35156 35.0586C8.27344 35.0586 7.25391 34.8828 6.29297 34.5312C5.33203 34.1797 4.48828 33.7227 3.76172 33.1602C3.05859 32.5977 2.49609 31.9766 2.07422 31.2969C1.65234 30.6172 1.44141 29.9492 1.44141 29.293C1.44141 28.5898 1.59375 27.9922 1.89844 27.5C2.22656 27.0078 2.625 26.6211 3.09375 26.3398C3.5625 26.0352 4.04297 25.8242 4.53516 25.707C5.05078 25.5898 5.50781 25.5664 5.90625 25.6367ZM32.625 16.3555C32.3672 16.3086 32.0156 16.2617 31.5703 16.2148C31.1484 16.168 30.7148 16.1328 30.2695 16.1094C29.7539 16.0859 29.2031 16.0742 28.6172 16.0742C28.0312 16.0273 27.293 16.0273 26.4023 16.0742C25.5352 16.0977 24.6211 16.1094 23.6602 16.1094C23.6367 16.7188 23.5898 17.3398 23.5195 17.9727C23.4727 18.6055 23.4258 19.2266 23.3789 19.8359C23.2617 20.9609 23.1562 22.1094 23.0625 23.2812C22.9922 24.4531 22.957 25.5664 22.957 26.6211C22.957 27.6758 23.0156 28.6367 23.1328 29.5039C23.2734 30.3477 23.5195 31.0156 23.8711 31.5078C23.5898 31.7188 23.2852 31.8828 22.957 32C22.6289 32.0938 22.3359 32.1641 22.0781 32.2109C21.7734 32.2812 21.4688 32.3164 21.1641 32.3164C20.8828 32.3164 20.6484 32.2227 20.4609 32.0352C20.2734 31.8477 20.168 31.5195 20.1445 31.0508C20.0977 30.2539 20.0859 29.457 20.1094 28.6602C20.1562 27.8398 20.2031 26.9844 20.25 26.0938C20.3203 25.2031 20.3906 24.2539 20.4609 23.2461C20.5312 22.2148 20.6016 21.0898 20.6719 19.8711C20.7422 18.6055 20.7773 17.375 20.7773 16.1797C19.8867 16.2031 19.1367 16.2148 18.5273 16.2148C17.918 16.2148 17.5781 16.2031 17.5078 16.1797C17.4375 16.1328 17.3555 16.0273 17.2617 15.8633C17.168 15.7227 17.0508 15.5117 16.9102 15.2305C16.7461 14.9492 16.5469 14.5508 16.3125 14.0352C16.7578 14.0352 17.25 14.0352 17.7891 14.0352C18.3047 14.0352 18.7852 14.0234 19.2305 14C19.7461 13.9766 20.2617 13.9531 20.7773 13.9297C20.7539 13.5547 20.7422 13.1562 20.7422 12.7344C20.7188 12.4062 20.707 12.043 20.707 11.6445C20.707 11.2227 20.6953 10.8359 20.6719 10.4844C20.6719 10.3438 20.8359 10.1797 21.1641 9.99219C21.5156 9.78125 21.8906 9.59375 22.2891 9.42969C22.6875 9.26562 23.0508 9.16016 23.3789 9.11328C23.7305 9.06641 23.9062 9.14844 23.9062 9.35938C23.9062 9.57031 23.8945 10.0859 23.8711 10.9062C23.8711 11.7031 23.8477 12.6758 23.8008 13.8242C24.0352 13.8242 24.2109 13.8125 24.3281 13.7891C25.5703 13.7422 26.5664 13.6953 27.3164 13.6484C28.0898 13.5781 28.7227 13.5664 29.2148 13.6133C29.707 13.6602 30.1406 13.7773 30.5156 13.9648C30.8906 14.1523 31.3125 14.457 31.7812 14.8789C31.9453 15.0195 32.0859 15.1719 32.2031 15.3359C32.3203 15.4766 32.4141 15.6406 32.4844 15.8281C32.5781 15.9922 32.625 16.168 32.625 16.3555ZM31.4297 32.3867C29.7891 32.3867 28.5234 31.8359 27.6328 30.7344C26.7422 29.6328 26.2969 28.1914 26.2969 26.4102C26.2969 25.168 26.4727 24.0078 26.8242 22.9297C27.1992 21.8281 27.6914 20.8789 28.3008 20.082C28.9102 19.2852 29.6133 18.6641 30.4102 18.2188C31.2305 17.75 32.0859 17.5156 32.9766 17.5156C33.8438 17.5156 34.582 17.832 35.1914 18.4648C35.8008 19.0742 36.1055 19.9531 36.1055 21.1016C36.1055 21.8516 35.9414 22.6016 35.6133 23.3516C35.2852 24.0781 34.8516 24.7344 34.3125 25.3203C33.7969 25.8828 33.2227 26.3398 32.5898 26.6914C31.957 27.043 31.3477 27.2188 30.7617 27.2188C30.3867 27.2188 30.0703 27.1719 29.8125 27.0781C29.5547 26.9844 29.3203 26.8438 29.1094 26.6562C29.1797 27.9922 29.4727 28.9297 29.9883 29.4688C30.5039 29.9844 31.1719 30.2422 31.9922 30.2422C32.5547 30.2422 33.0469 30.125 33.4688 29.8906C33.9141 29.6562 34.2891 29.3867 34.5938 29.082C34.8984 28.7773 35.1445 28.4727 35.332 28.168C35.5195 27.8398 35.6484 27.5938 35.7188 27.4297C35.7891 27.2891 35.9062 27.2188 36.0703 27.2188C36.2578 27.2188 36.3516 27.3594 36.3516 27.6406C36.3516 27.8984 36.2578 28.2969 36.0703 28.8359C35.9062 29.3516 35.625 29.8789 35.2266 30.418C34.8281 30.9336 34.3125 31.3906 33.6797 31.7891C33.0703 32.1875 32.3203 32.3867 31.4297 32.3867ZM33.0469 19.0273C32.9062 19.0273 32.6367 19.1797 32.2383 19.4844C31.8633 19.7656 31.4531 20.1875 31.0078 20.75C30.5859 21.3125 30.1875 21.9922 29.8125 22.7891C29.4609 23.5625 29.2383 24.4414 29.1445 25.4258C30.5508 25.0977 31.6641 24.582 32.4844 23.8789C33.3047 23.1758 33.7148 22.1445 33.7148 20.7852C33.7148 20.1055 33.6328 19.6484 33.4688 19.4141C33.3047 19.1562 33.1641 19.0273 33.0469 19.0273ZM45.2461 18.0781C45.9023 18.0781 46.5117 18.2656 47.0742 18.6406C47.6367 19.0156 48.1172 19.5078 48.5156 20.1172C48.9141 20.7266 49.2305 21.4297 49.4648 22.2266C49.6992 23 49.8164 23.8086 49.8164 24.6523C49.8164 25.4961 49.7227 26.3867 49.5352 27.3242C49.3477 28.2617 49.0547 29.1289 48.6562 29.9258C48.2578 30.7227 47.7422 31.3906 47.1094 31.9297C46.4766 32.4453 45.7031 32.7031 44.7891 32.7031C44.0625 32.7031 43.3711 32.4453 42.7148 31.9297C42.082 31.3906 41.5898 30.7227 41.2383 29.9258C41.1914 30.7461 41.0859 31.5781 40.9219 32.4219C40.7578 33.2891 40.6758 34.3203 40.6758 35.5156C40.6758 35.8672 40.6875 36.2656 40.7109 36.7109C40.7344 37.1562 40.7695 37.6016 40.8164 38.0469C40.8633 38.4922 40.9336 38.9023 41.0273 39.2773C41.1211 39.6523 41.2266 39.9453 41.3438 40.1562C40.9453 40.3906 40.582 40.5664 40.2539 40.6836C39.9492 40.8008 39.6797 40.8828 39.4453 40.9297C39.1875 41 38.9414 41.0352 38.707 41.0352C38.4023 41.0352 38.2031 40.9062 38.1094 40.6484C38.0156 40.3906 37.9688 39.9336 37.9688 39.2773C37.9688 38.8555 37.9805 38.2461 38.0039 37.4492C38.0508 36.6758 38.0977 35.7852 38.1445 34.7773C38.2148 33.7695 38.2734 32.7148 38.3203 31.6133C38.3906 30.4883 38.4492 29.3867 38.4961 28.3086C38.5664 27.2305 38.6133 26.2344 38.6367 25.3203C38.6836 24.3828 38.707 23.5977 38.707 22.9648C38.707 22.1914 38.6953 21.5938 38.6719 21.1719C38.6484 20.7266 38.6133 20.3984 38.5664 20.1875C38.543 19.9531 38.5078 19.7891 38.4609 19.6953C38.4141 19.6016 38.3555 19.4961 38.2852 19.3789C38.4961 19.2148 38.7422 19.0742 39.0234 18.957C39.3281 18.8164 39.6211 18.7227 39.9023 18.6758C40.207 18.6055 40.4766 18.582 40.7109 18.6055C40.9688 18.6289 41.168 18.6875 41.3086 18.7812C41.4258 18.8984 41.5078 19.0742 41.5547 19.3086C41.625 19.543 41.6836 19.8945 41.7305 20.3633C42.1758 19.7539 42.6797 19.2266 43.2422 18.7812C43.8281 18.3125 44.4961 18.0781 45.2461 18.0781ZM43.875 30.6289C44.2969 30.6289 44.6953 30.4297 45.0703 30.0312C45.4688 29.6328 45.8086 29.1289 46.0898 28.5195C46.3945 27.8867 46.6289 27.1953 46.793 26.4453C46.9805 25.6719 47.0742 24.9102 47.0742 24.1602C47.0742 23.3398 46.9922 22.6719 46.8281 22.1562C46.6875 21.6172 46.5 21.1953 46.2656 20.8906C46.0547 20.5625 45.8203 20.3398 45.5625 20.2227C45.3281 20.082 45.1172 20.0117 44.9297 20.0117C44.4844 20.0117 44.0625 20.1992 43.6641 20.5742C43.2656 20.9258 42.9141 21.3945 42.6094 21.9805C42.3047 22.543 42.0586 23.1758 41.8711 23.8789C41.707 24.582 41.625 25.2852 41.625 25.9883C41.625 26.6445 41.6836 27.2539 41.8008 27.8164C41.9414 28.3789 42.1172 28.8711 42.3281 29.293C42.5391 29.7148 42.7734 30.043 43.0312 30.2773C43.3125 30.5117 43.5938 30.6289 43.875 30.6289Z" fill="black"/>
    <path d="M72.2109 15.9688C73.1172 15.9688 74.0078 16.2188 74.8828 16.7188C75.7578 17.1875 76.5391 17.8594 77.2266 18.7344C77.9141 19.5781 78.4453 20.5938 78.8203 21.7812C79.1953 22.9688 79.3359 24.2656 79.2422 25.6719C79.1172 27.4531 78.6641 29 77.8828 30.3125C77.1328 31.625 76.2266 32.7031 75.1641 33.5469C74.1016 34.4219 72.9766 35.0625 71.7891 35.4688C70.6016 35.875 69.5391 36.0781 68.6016 36.0781C67.9766 36.0781 67.1797 35.9688 66.2109 35.75C65.2734 35.5625 64.3203 35.1875 63.3516 34.625C62.4141 34.0938 61.5547 33.3594 60.7734 32.4219C60.0234 31.4844 59.5391 30.2812 59.3203 28.8125C59.2266 28.3438 59.2578 27.8438 59.4141 27.3125C59.5703 26.75 59.7891 26.2344 60.0703 25.7656C60.3828 25.2656 60.7578 24.8438 61.1953 24.5C61.6328 24.125 62.1016 23.9062 62.6016 23.8438C62.7578 25.7812 63.1641 27.2812 63.8203 28.3438C64.5078 29.4062 65.2266 30.1875 65.9766 30.6875C66.8516 31.25 67.8203 31.5938 68.8828 31.7188C70.8203 31.75 72.2891 31.1719 73.2891 29.9844C74.2891 28.7969 74.7891 27.2188 74.7891 25.25C74.7891 24.4375 74.6328 23.6719 74.3203 22.9531C74.0391 22.2344 73.6484 21.625 73.1484 21.125C72.6797 20.5938 72.1484 20.1719 71.5547 19.8594C70.9609 19.5469 70.3516 19.3906 69.7266 19.3906C69.1641 19.3906 68.6172 19.4375 68.0859 19.5312C67.6484 19.5938 67.1953 19.7031 66.7266 19.8594C66.2891 20.0156 65.9297 20.25 65.6484 20.5625L63.8203 16.25C64.4141 16 65.0391 15.5938 65.6953 15.0312C66.3828 14.4375 67.0078 13.8594 67.5703 13.2969C68.2266 12.6406 68.8672 11.9375 69.4922 11.1875C70.3984 10.0312 71.1641 8.98438 71.7891 8.04688C72.4141 7.07812 72.8984 6.3125 73.2422 5.75C72.7734 5.59375 72.1484 5.45312 71.3672 5.32812C70.6172 5.17188 69.7109 5.125 68.6484 5.1875C67.7734 5.25 66.8516 5.34375 65.8828 5.46875C65.0703 5.59375 64.1641 5.76562 63.1641 5.98438C62.1641 6.20312 61.1953 6.5 60.2578 6.875C60.0703 6.1875 59.8984 5.51562 59.7422 4.85938C59.5859 4.17188 59.5078 3.5625 59.5078 3.03125C59.5391 2.5 59.6953 2.04688 59.9766 1.67188C60.2891 1.26563 60.8203 0.984375 61.5703 0.828125C62.2891 0.703125 63.1484 0.609375 64.1484 0.546875C65.1484 0.453125 66.1953 0.40625 67.2891 0.40625C68.3828 0.40625 69.4609 0.4375 70.5234 0.5C71.6172 0.53125 72.6016 0.59375 73.4766 0.6875C74.5703 0.8125 75.5391 0.875 76.3828 0.875C77.2266 0.84375 77.7266 0.796875 77.8828 0.734375C78.1641 1.60937 78.3359 2.39063 78.3984 3.07812C78.4609 3.76562 78.4766 4.34375 78.4453 4.8125C78.3828 5.375 78.2891 5.875 78.1641 6.3125C77.9766 6.75 77.5391 7.42188 76.8516 8.32812C76.1641 9.23438 75.3984 10.1875 74.5547 11.1875C73.7109 12.1562 72.8828 13.0938 72.0703 14C71.2891 14.9062 70.6953 15.5938 70.2891 16.0625C70.8828 15.9688 71.5234 15.9375 72.2109 15.9688Z" fill="#DD417C"/>
</svg>
