<svg width="182" height="48" viewBox="0 0 182 48" fill="none" xmlns="http://www.w3.org/2000/svg">
    <path d="M4.9375 10C4.51562 8.45312 4.21094 7.17969 4.02344 6.17969C3.83594 5.17969 3.70312 4.39062 3.625 3.8125C3.5625 3.21875 3.53906 2.79688 3.55469 2.54688C3.57031 2.28125 3.57812 2.11719 3.57812 2.05469C3.5625 1.80469 3.59375 1.53906 3.67188 1.25781C3.76562 0.976562 3.98438 0.742188 4.32812 0.554688C4.73438 0.289062 5.10938 0.140625 5.45312 0.109375C5.8125 0.0625 6.00781 0.0546875 6.03906 0.0859375C5.96094 0.257813 5.91406 0.453125 5.89844 0.671875C5.88281 0.890625 5.89844 1.21094 5.94531 1.63281C5.99219 2.03906 6.0625 2.59375 6.15625 3.29688C6.26562 3.98438 6.40625 4.89844 6.57812 6.03906C6.70312 6.88281 6.83594 7.70312 6.97656 8.5C7.13281 9.29688 7.28125 10.0547 7.42188 10.7734C7.57812 11.4766 7.72656 12.1328 7.86719 12.7422C8.00781 13.3516 8.14062 13.8906 8.26562 14.3594C8.35938 13.9531 8.45312 13.4844 8.54688 12.9531C8.65625 12.4062 8.76562 11.8281 8.875 11.2188C9 10.6094 9.13281 9.98438 9.27344 9.34375C9.42969 8.70312 9.59375 8.07031 9.76562 7.44531C9.9375 6.67969 10.125 5.90625 10.3281 5.125C10.5 4.45312 10.6953 3.73438 10.9141 2.96875C11.1484 2.1875 11.3984 1.46875 11.6641 0.8125C12.0391 0.59375 12.3906 0.453125 12.7188 0.390625C13.0625 0.328125 13.3594 0.3125 13.6094 0.34375C13.8906 0.375 14.1562 0.4375 14.4062 0.53125C14.25 0.859375 14.0859 1.24219 13.9141 1.67969C13.7422 2.10156 13.5703 2.54688 13.3984 3.01562C13.2422 3.46875 13.0859 3.9375 12.9297 4.42188C12.7734 4.90625 12.625 5.375 12.4844 5.82812C12.1562 6.90625 11.8281 8.00781 11.5 9.13281C11.2344 10.0703 10.9766 11.0234 10.7266 11.9922C10.5078 12.8203 10.2812 13.7109 10.0469 14.6641C9.82812 15.6172 9.63281 16.5156 9.46094 17.3594C9.46094 17.4375 9.36719 17.5234 9.17969 17.6172C9.00781 17.7109 8.79688 17.7891 8.54688 17.8516C8.3125 17.9297 8.05469 17.9766 7.77344 17.9922C7.50781 18.0234 7.27344 18 7.07031 17.9219C6.78906 17.2031 6.52344 16.3906 6.27344 15.4844C6.02344 14.5625 5.79688 13.6953 5.59375 12.8828C5.35938 11.9297 5.14062 10.9688 4.9375 10ZM13.9844 7.70312C13.9844 7.60938 14.1094 7.50781 14.3594 7.39844C14.6094 7.28906 14.8828 7.20312 15.1797 7.14062C15.4922 7.0625 15.7734 7.02344 16.0234 7.02344C16.2891 7.00781 16.4219 7.0625 16.4219 7.1875C16.4219 7.42188 16.4062 7.75781 16.375 8.19531C16.3438 8.61719 16.3047 9.07031 16.2578 9.55469C16.2109 10.0234 16.1641 10.5 16.1172 10.9844C16.0703 11.4531 16.0391 11.8516 16.0234 12.1797C15.9922 12.5234 15.9609 12.8984 15.9297 13.3047C15.8984 13.6484 15.875 14.0312 15.8594 14.4531C15.8438 14.875 15.8438 15.3047 15.8594 15.7422C15.8594 15.8203 15.7812 15.8984 15.625 15.9766C15.4688 16.0547 15.2969 16.1094 15.1094 16.1406C14.9219 16.1875 14.7422 16.2109 14.5703 16.2109C14.3984 16.2109 14.3047 16.1797 14.2891 16.1172C14.2578 16.0547 14.2266 15.9453 14.1953 15.7891C14.1641 15.6328 14.1328 15.4141 14.1016 15.1328C14.0703 14.8359 14.0469 14.4609 14.0312 14.0078C14.0156 13.5391 14.0234 12.9766 14.0547 12.3203C14.1172 11.0234 14.125 10.0234 14.0781 9.32031C14.0312 8.60156 14 8.0625 13.9844 7.70312ZM15.625 3.03906C15.9375 3.03906 16.2344 3.13281 16.5156 3.32031C16.7969 3.50781 16.9375 3.75781 16.9375 4.07031C16.9375 4.30469 16.875 4.53125 16.75 4.75C16.6406 4.96875 16.5 5.16406 16.3281 5.33594C16.1562 5.50781 15.9609 5.64844 15.7422 5.75781C15.5234 5.85156 15.3203 5.89844 15.1328 5.89844C14.8828 5.89844 14.6797 5.85938 14.5234 5.78125C14.3672 5.6875 14.2422 5.58594 14.1484 5.47656C14.0703 5.35156 14.0156 5.21875 13.9844 5.07812C13.9531 4.9375 13.9375 4.80469 13.9375 4.67969C13.9375 4.52344 13.9609 4.35156 14.0078 4.16406C14.0547 3.96094 14.1406 3.78125 14.2656 3.625C14.3906 3.45312 14.5625 3.3125 14.7812 3.20312C15 3.09375 15.2812 3.03906 15.625 3.03906ZM15.0391 5.21875C15.1328 5.21875 15.2344 5.1875 15.3438 5.125C15.4688 5.04688 15.5781 4.96094 15.6719 4.86719C15.7812 4.77344 15.8672 4.67188 15.9297 4.5625C16.0078 4.45312 16.0469 4.35938 16.0469 4.28125C16.0469 4.15625 15.9844 4.09375 15.8594 4.09375C15.7812 4.09375 15.6797 4.125 15.5547 4.1875C15.4453 4.25 15.3359 4.32812 15.2266 4.42188C15.1172 4.5 15.0234 4.59375 14.9453 4.70312C14.8828 4.79688 14.8516 4.89062 14.8516 4.98438C14.8516 5.14062 14.9141 5.21875 15.0391 5.21875ZM21.7422 11.5469C22.0859 11.6719 22.4141 11.7891 22.7266 11.8984C23.0391 12.0078 23.3125 12.1406 23.5469 12.2969C23.7812 12.4531 23.9688 12.6406 24.1094 12.8594C24.25 13.0625 24.3203 13.3203 24.3203 13.6328C24.3203 14.0078 24.2344 14.3594 24.0625 14.6875C23.9062 15.0156 23.6719 15.3047 23.3594 15.5547C23.0469 15.8047 22.6641 16 22.2109 16.1406C21.7734 16.2969 21.2812 16.375 20.7344 16.375C20.125 16.375 19.6328 16.3125 19.2578 16.1875C18.8828 16.0781 18.5938 15.9453 18.3906 15.7891C18.1875 15.6328 18.0547 15.4766 17.9922 15.3203C17.9297 15.1641 17.8984 15.0391 17.8984 14.9453C17.8984 14.7578 17.9375 14.5547 18.0156 14.3359C18.0938 14.1016 18.2422 13.8516 18.4609 13.5859C18.5547 13.4766 18.6562 13.375 18.7656 13.2812C18.9844 13.0938 19.2031 12.9766 19.4219 12.9297C19.3906 13.2891 19.4297 13.5859 19.5391 13.8203C19.6641 14.0391 19.8203 14.2109 20.0078 14.3359C20.2109 14.4609 20.4297 14.5469 20.6641 14.5938C20.9141 14.6406 21.1484 14.6641 21.3672 14.6641C21.5859 14.6641 21.8047 14.6328 22.0234 14.5703C22.2578 14.5078 22.4688 14.4297 22.6562 14.3359C22.8438 14.2266 22.9922 14.1094 23.1016 13.9844C23.2266 13.8438 23.2891 13.6953 23.2891 13.5391C23.2891 13.3672 23.2188 13.2266 23.0781 13.1172C22.9375 13.0078 22.7578 12.9219 22.5391 12.8594C22.3359 12.7812 22.1094 12.7266 21.8594 12.6953C21.625 12.6484 21.3984 12.6016 21.1797 12.5547C20.9609 12.5078 20.6641 12.4453 20.2891 12.3672C19.9297 12.2734 19.5703 12.1328 19.2109 11.9453C18.8672 11.7578 18.5625 11.5078 18.2969 11.1953C18.0469 10.8828 17.9219 10.4688 17.9219 9.95312C17.9219 9.35938 18.0703 8.84375 18.3672 8.40625C18.6797 7.95312 19.0547 7.57812 19.4922 7.28125C19.9453 6.96875 20.4219 6.73438 20.9219 6.57812C21.4219 6.42188 21.8672 6.34375 22.2578 6.34375C22.4609 6.34375 22.6797 6.375 22.9141 6.4375C23.1484 6.48438 23.3672 6.57812 23.5703 6.71875C23.7734 6.84375 23.9375 7.01562 24.0625 7.23438C24.2031 7.45312 24.2734 7.73438 24.2734 8.07812C24.2734 8.42188 24.2422 8.70312 24.1797 8.92188C24.1328 9.125 24.0547 9.28906 23.9453 9.41406C23.8516 9.52344 23.7344 9.59375 23.5938 9.625C23.4531 9.65625 23.2891 9.67188 23.1016 9.67188C22.9766 9.67188 22.8594 9.65625 22.75 9.625C22.6562 9.59375 22.5547 9.5625 22.4453 9.53125C22.3359 9.5 22.2344 9.44531 22.1406 9.36719C22.2969 9.17969 22.4141 9 22.4922 8.82812C22.5859 8.65625 22.6328 8.44531 22.6328 8.19531C22.6328 7.97656 22.5703 7.78125 22.4453 7.60938C22.3359 7.4375 22.1484 7.35156 21.8828 7.35156C21.6016 7.35156 21.3281 7.40625 21.0625 7.51562C20.8125 7.625 20.5859 7.77344 20.3828 7.96094C20.1953 8.14844 20.0391 8.36719 19.9141 8.61719C19.8047 8.85156 19.75 9.10938 19.75 9.39062C19.75 9.8125 19.9062 10.2109 20.2188 10.5859C20.5469 10.9609 21.0547 11.2812 21.7422 11.5469ZM31 7.28125C31 7.10938 31.1016 6.98438 31.3047 6.90625C31.5234 6.8125 31.75 6.76562 31.9844 6.76562C32.2344 6.76562 32.4609 6.8125 32.6641 6.90625C32.8672 6.98438 32.9609 7.09375 32.9453 7.23438C32.9297 7.34375 32.9141 7.5625 32.8984 7.89062C32.8828 8.20312 32.8594 8.57812 32.8281 9.01562C32.8125 9.45312 32.7891 9.92188 32.7578 10.4219C32.7266 10.9219 32.6953 11.4141 32.6641 11.8984C32.6484 12.3672 32.6328 12.8047 32.6172 13.2109C32.6172 13.6172 32.6172 13.9297 32.6172 14.1484C32.6172 14.4297 32.6328 14.6875 32.6641 14.9219C32.6953 15.125 32.7344 15.3281 32.7812 15.5312C32.8281 15.7188 32.8984 15.8516 32.9922 15.9297C32.8672 15.9766 32.7344 16.0078 32.5938 16.0234C32.4688 16.0391 32.3516 16.0547 32.2422 16.0703C32.1172 16.0859 31.9922 16.0938 31.8672 16.0938C31.6016 16.0938 31.375 16.0391 31.1875 15.9297C31.0156 15.8203 30.9297 15.5938 30.9297 15.25C30.9297 15.0781 30.9375 14.8281 30.9531 14.5C30.9844 14.1719 31.0156 13.8203 31.0469 13.4453C30.9375 13.7734 30.8047 14.1094 30.6484 14.4531C30.4922 14.7969 30.2969 15.1016 30.0625 15.3672C29.8438 15.6328 29.5938 15.8516 29.3125 16.0234C29.0312 16.1953 28.7109 16.2812 28.3516 16.2812C27.9453 16.2812 27.5703 16.1953 27.2266 16.0234C26.8984 15.8516 26.6094 15.6094 26.3594 15.2969C26.1094 14.9688 25.9219 14.5703 25.7969 14.1016C25.6719 13.6328 25.625 13.0938 25.6562 12.4844C25.6562 12.0156 25.6641 11.5156 25.6797 10.9844C25.6953 10.5312 25.7188 10.0078 25.75 9.41406C25.7812 8.82031 25.8359 8.20312 25.9141 7.5625C25.9297 7.5 26.0391 7.42188 26.2422 7.32812C26.4453 7.23438 26.6719 7.15625 26.9219 7.09375C27.1719 7.03125 27.4141 7.00781 27.6484 7.02344C27.8828 7.03906 28.0547 7.13281 28.1641 7.30469C28.0859 7.58594 28.0078 7.92188 27.9297 8.3125C27.8516 8.6875 27.7812 9.07812 27.7188 9.48438C27.6562 9.89062 27.6094 10.2891 27.5781 10.6797C27.5469 11.0703 27.5312 11.4297 27.5312 11.7578C27.5312 12.0547 27.5469 12.3828 27.5781 12.7422C27.6094 13.0859 27.6641 13.4141 27.7422 13.7266C27.8359 14.0234 27.9609 14.2734 28.1172 14.4766C28.2891 14.6797 28.5078 14.7812 28.7734 14.7812C29.0703 14.7812 29.3281 14.6562 29.5469 14.4062C29.7812 14.1406 29.9766 13.8047 30.1328 13.3984C30.2891 12.9922 30.4219 12.5312 30.5312 12.0156C30.6406 11.4844 30.7266 10.9609 30.7891 10.4453C30.8672 9.92969 30.9141 9.4375 30.9297 8.96875C30.9609 8.48438 30.9844 8.07812 31 7.75V7.28125ZM41.3594 14.8047C41.3906 14.9141 41.4375 15.0156 41.5 15.1094C41.5469 15.1875 41.6094 15.2656 41.6875 15.3438C41.7812 15.4062 41.8906 15.4453 42.0156 15.4609C41.9062 15.6797 41.7969 15.8281 41.6875 15.9062C41.625 15.9531 41.5703 15.9844 41.5234 16C41.3828 16.0469 41.1719 16.0703 40.8906 16.0703C40.6094 16.0703 40.3359 15.9844 40.0703 15.8125C39.9766 15.7344 39.8906 15.6172 39.8125 15.4609C39.7344 15.3359 39.6641 15.1641 39.6016 14.9453C39.5547 14.7109 39.5156 14.4141 39.4844 14.0547C39.2656 14.5234 39.0156 14.8984 38.7344 15.1797C38.4688 15.4453 38.2031 15.6406 37.9375 15.7656C37.6406 15.9375 37.3359 16.0391 37.0234 16.0703C36.6328 16.1016 36.2578 16.0391 35.8984 15.8828C35.5547 15.7109 35.2578 15.4609 35.0078 15.1328C34.7734 14.7891 34.5938 14.375 34.4688 13.8906C34.3438 13.4062 34.3047 12.8594 34.3516 12.25C34.3984 11.6094 34.5234 11.0391 34.7266 10.5391C34.9297 10.0391 35.1719 9.59375 35.4531 9.20312C35.7344 8.8125 36.0312 8.48438 36.3438 8.21875C36.6562 7.9375 36.9531 7.71094 37.2344 7.53906C37.5312 7.35156 37.7812 7.21875 37.9844 7.14062C38.2031 7.04688 38.3438 6.99219 38.4062 6.97656C38.5781 6.92969 38.7266 6.91406 38.8516 6.92969C38.9766 6.94531 39.0859 7.01562 39.1797 7.14062C39.2109 7.1875 39.25 7.24219 39.2969 7.30469C39.3281 7.36719 39.3672 7.45312 39.4141 7.5625C39.4609 7.65625 39.5 7.76562 39.5312 7.89062C39.1562 8.0625 38.8047 8.25781 38.4766 8.47656C38.1484 8.67969 37.8438 8.92969 37.5625 9.22656C37.2969 9.52344 37.0625 9.88281 36.8594 10.3047C36.6562 10.7266 36.5 11.2422 36.3906 11.8516C36.2344 12.6172 36.2734 13.2344 36.5078 13.7031C36.7578 14.1719 37.0938 14.3672 37.5156 14.2891C37.7656 14.2109 38.0078 14.0625 38.2422 13.8438C38.4453 13.6562 38.6562 13.375 38.875 13C39.1094 12.625 39.3281 12.1094 39.5312 11.4531C39.6094 10.5156 39.6719 9.78125 39.7188 9.25C39.7812 8.70312 39.8359 8.28906 39.8828 8.00781C39.9453 7.67969 39.9922 7.46094 40.0234 7.35156C40.0703 7.27344 40.1641 7.20312 40.3047 7.14062C40.4453 7.0625 40.6016 7 40.7734 6.95312C40.9453 6.90625 41.1016 6.88281 41.2422 6.88281C41.3828 6.86719 41.4766 6.86719 41.5234 6.88281C41.5547 6.89844 41.5703 7.09375 41.5703 7.46875C41.5703 7.82812 41.5547 8.28906 41.5234 8.85156C41.5078 9.39844 41.4844 10 41.4531 10.6562C41.4219 11.2969 41.3906 11.9062 41.3594 12.4844C41.3438 13.0625 41.3281 13.5703 41.3125 14.0078C41.3125 14.4297 41.3281 14.6953 41.3594 14.8047ZM46.4219 0.8125C46.3906 1.375 46.3359 2.02344 46.2578 2.75781C46.1797 3.49219 46.0938 4.28125 46 5.125C45.9219 5.96875 45.8359 6.85156 45.7422 7.77344C45.6641 8.69531 45.5938 9.625 45.5312 10.5625C45.4688 11.5 45.4375 12.2656 45.4375 12.8594C45.4531 13.4375 45.4922 13.9141 45.5547 14.2891C45.6172 14.6641 45.7031 14.9609 45.8125 15.1797C45.9219 15.3984 46.0625 15.6094 46.2344 15.8125C46.0312 15.9375 45.8438 16.0312 45.6719 16.0938C45.5 16.1562 45.3516 16.2031 45.2266 16.2344C45.0703 16.2812 44.9297 16.3047 44.8047 16.3047C44.5703 16.3047 44.3672 16.1953 44.1953 15.9766C44.0234 15.7422 43.8828 15.4453 43.7734 15.0859C43.6797 14.7266 43.6016 14.3281 43.5391 13.8906C43.4922 13.4375 43.4688 12.9922 43.4688 12.5547C43.4688 12.0859 43.4844 11.5469 43.5156 10.9375C43.5469 10.3125 43.5781 9.65625 43.6094 8.96875C43.6562 8.26562 43.7031 7.53906 43.75 6.78906C43.7969 6.02344 43.8359 5.26562 43.8672 4.51562C43.8984 3.9375 43.9297 3.41406 43.9609 2.94531C43.9922 2.53906 44.0156 2.17188 44.0312 1.84375C44.0469 1.5 44.0391 1.29687 44.0078 1.23438C44.1016 1.10937 44.2188 1.01562 44.3594 0.953125C44.5 0.890625 44.6328 0.835938 44.7578 0.789062C44.9141 0.742188 45.0703 0.703125 45.2266 0.671875H45.6719C45.7969 0.671875 45.9297 0.6875 46.0703 0.71875C46.2109 0.734375 46.3281 0.765625 46.4219 0.8125ZM47.6641 7.70312C47.6641 7.60938 47.7891 7.50781 48.0391 7.39844C48.2891 7.28906 48.5625 7.20312 48.8594 7.14062C49.1719 7.0625 49.4531 7.02344 49.7031 7.02344C49.9688 7.00781 50.1016 7.0625 50.1016 7.1875C50.1016 7.42188 50.0859 7.75781 50.0547 8.19531C50.0234 8.61719 49.9844 9.07031 49.9375 9.55469C49.8906 10.0234 49.8438 10.5 49.7969 10.9844C49.75 11.4531 49.7188 11.8516 49.7031 12.1797C49.6719 12.5234 49.6406 12.8984 49.6094 13.3047C49.5781 13.6484 49.5547 14.0312 49.5391 14.4531C49.5234 14.875 49.5234 15.3047 49.5391 15.7422C49.5391 15.8203 49.4609 15.8984 49.3047 15.9766C49.1484 16.0547 48.9766 16.1094 48.7891 16.1406C48.6016 16.1875 48.4219 16.2109 48.25 16.2109C48.0781 16.2109 47.9844 16.1797 47.9688 16.1172C47.9375 16.0547 47.9062 15.9453 47.875 15.7891C47.8438 15.6328 47.8125 15.4141 47.7812 15.1328C47.75 14.8359 47.7266 14.4609 47.7109 14.0078C47.6953 13.5391 47.7031 12.9766 47.7344 12.3203C47.7969 11.0234 47.8047 10.0234 47.7578 9.32031C47.7109 8.60156 47.6797 8.0625 47.6641 7.70312ZM49.3047 3.03906C49.6172 3.03906 49.9141 3.13281 50.1953 3.32031C50.4766 3.50781 50.6172 3.75781 50.6172 4.07031C50.6172 4.30469 50.5547 4.53125 50.4297 4.75C50.3203 4.96875 50.1797 5.16406 50.0078 5.33594C49.8359 5.50781 49.6406 5.64844 49.4219 5.75781C49.2031 5.85156 49 5.89844 48.8125 5.89844C48.5625 5.89844 48.3594 5.85938 48.2031 5.78125C48.0469 5.6875 47.9219 5.58594 47.8281 5.47656C47.75 5.35156 47.6953 5.21875 47.6641 5.07812C47.6328 4.9375 47.6172 4.80469 47.6172 4.67969C47.6172 4.52344 47.6406 4.35156 47.6875 4.16406C47.7344 3.96094 47.8203 3.78125 47.9453 3.625C48.0703 3.45312 48.2422 3.3125 48.4609 3.20312C48.6797 3.09375 48.9609 3.03906 49.3047 3.03906ZM48.7188 5.21875C48.8125 5.21875 48.9141 5.1875 49.0234 5.125C49.1484 5.04688 49.2578 4.96094 49.3516 4.86719C49.4609 4.77344 49.5469 4.67188 49.6094 4.5625C49.6875 4.45312 49.7266 4.35938 49.7266 4.28125C49.7266 4.15625 49.6641 4.09375 49.5391 4.09375C49.4609 4.09375 49.3594 4.125 49.2344 4.1875C49.125 4.25 49.0156 4.32812 48.9062 4.42188C48.7969 4.5 48.7031 4.59375 48.625 4.70312C48.5625 4.79688 48.5312 4.89062 48.5312 4.98438C48.5312 5.14062 48.5938 5.21875 48.7188 5.21875ZM58.3984 7.21094C58.3984 7.39844 58.3984 7.57812 58.3984 7.75C58.3984 7.90625 58.375 8.0625 58.3281 8.21875C58.2812 8.375 58.2109 8.54688 58.1172 8.73438C58.0234 8.92188 57.8828 9.13281 57.6953 9.36719C57.4766 9.64844 57.1719 10.0234 56.7812 10.4922C56.4062 10.9609 56.0078 11.4609 55.5859 11.9922C55.1797 12.5234 54.7969 13.0469 54.4375 13.5625C54.0781 14.0625 53.8047 14.4922 53.6172 14.8516C53.8047 14.7109 54.0625 14.5703 54.3906 14.4297C54.7344 14.2734 55.1562 14.1797 55.6562 14.1484C55.9375 14.1328 56.2188 14.1406 56.5 14.1719C56.75 14.2031 57.0078 14.25 57.2734 14.3125C57.5547 14.3594 57.8125 14.4453 58.0469 14.5703C58.125 14.7422 58.1641 14.9297 58.1641 15.1328C58.1797 15.3359 58.1797 15.5312 58.1641 15.7188C58.1484 15.9375 58.1172 16.1562 58.0703 16.375C57.8203 16.2969 57.5547 16.2344 57.2734 16.1875C57.0078 16.1406 56.75 16.1016 56.5 16.0703C56.2188 16.0391 55.9375 16.0234 55.6562 16.0234C55.3594 16.0234 55.0625 16.0469 54.7656 16.0938C54.5 16.125 54.2109 16.1875 53.8984 16.2812C53.6016 16.375 53.3047 16.5 53.0078 16.6562C52.9141 16.6562 52.8125 16.625 52.7031 16.5625C52.6094 16.5156 52.5234 16.4531 52.4453 16.375C52.3516 16.2969 52.25 16.2109 52.1406 16.1172C52.0781 16.0391 52.0156 15.9609 51.9531 15.8828C51.8438 15.7266 51.7891 15.5547 51.7891 15.3672C52.0391 14.8672 52.2734 14.4375 52.4922 14.0781C52.7266 13.7031 52.9297 13.3828 53.1016 13.1172C53.3047 12.8203 53.4922 12.5547 53.6641 12.3203C54.1484 11.6953 54.6406 11.0391 55.1406 10.3516C55.6562 9.64844 56.0469 9.03906 56.3125 8.52344C56.1719 8.46094 55.9766 8.40625 55.7266 8.35938C55.4922 8.3125 55.1953 8.29688 54.8359 8.3125C54.2422 8.32812 53.6484 8.42188 53.0547 8.59375C52.4766 8.75 52.0781 9.01562 51.8594 9.39062C51.7031 9.23438 51.5781 8.96094 51.4844 8.57031C51.4062 8.16406 51.4297 7.75781 51.5547 7.35156C51.8203 7.22656 52.1172 7.125 52.4453 7.04688C52.7891 6.95312 53.1016 6.89062 53.3828 6.85938C53.7109 6.8125 54.0469 6.78906 54.3906 6.78906C54.7656 6.78906 55.1719 6.80469 55.6094 6.83594C55.9688 6.86719 56.3906 6.91406 56.875 6.97656C57.3594 7.02344 57.8672 7.10156 58.3984 7.21094ZM62.6641 16.2578C61.5703 16.2578 60.7266 15.8906 60.1328 15.1562C59.5391 14.4219 59.2422 13.4609 59.2422 12.2734C59.2422 11.4453 59.3594 10.6719 59.5938 9.95312C59.8438 9.21875 60.1719 8.58594 60.5781 8.05469C60.9844 7.52344 61.4531 7.10938 61.9844 6.8125C62.5312 6.5 63.1016 6.34375 63.6953 6.34375C64.2734 6.34375 64.7656 6.55469 65.1719 6.97656C65.5781 7.38281 65.7812 7.96875 65.7812 8.73438C65.7812 9.23438 65.6719 9.73438 65.4531 10.2344C65.2344 10.7188 64.9453 11.1562 64.5859 11.5469C64.2422 11.9219 63.8594 12.2266 63.4375 12.4609C63.0156 12.6953 62.6094 12.8125 62.2188 12.8125C61.9688 12.8125 61.7578 12.7812 61.5859 12.7188C61.4141 12.6562 61.2578 12.5625 61.1172 12.4375C61.1641 13.3281 61.3594 13.9531 61.7031 14.3125C62.0469 14.6562 62.4922 14.8281 63.0391 14.8281C63.4141 14.8281 63.7422 14.75 64.0234 14.5938C64.3203 14.4375 64.5703 14.2578 64.7734 14.0547C64.9766 13.8516 65.1406 13.6484 65.2656 13.4453C65.3906 13.2266 65.4766 13.0625 65.5234 12.9531C65.5703 12.8594 65.6484 12.8125 65.7578 12.8125C65.8828 12.8125 65.9453 12.9062 65.9453 13.0938C65.9453 13.2656 65.8828 13.5312 65.7578 13.8906C65.6484 14.2344 65.4609 14.5859 65.1953 14.9453C64.9297 15.2891 64.5859 15.5938 64.1641 15.8594C63.7578 16.125 63.2578 16.2578 62.6641 16.2578ZM63.7422 7.35156C63.6484 7.35156 63.4688 7.45312 63.2031 7.65625C62.9531 7.84375 62.6797 8.125 62.3828 8.5C62.1016 8.875 61.8359 9.32812 61.5859 9.85938C61.3516 10.375 61.2031 10.9609 61.1406 11.6172C62.0781 11.3984 62.8203 11.0547 63.3672 10.5859C63.9141 10.1172 64.1875 9.42969 64.1875 8.52344C64.1875 8.07031 64.1328 7.76562 64.0234 7.60938C63.9141 7.4375 63.8203 7.35156 63.7422 7.35156ZM79.2812 7C79.3125 8.375 79.3359 9.57812 79.3516 10.6094C79.3672 11.6406 79.3828 12.5078 79.3984 13.2109C79.4141 14.0391 79.4219 14.75 79.4219 15.3438C79.4375 16.0781 79.375 16.8359 79.2344 17.6172C79.1094 18.4141 78.8984 19.1406 78.6016 19.7969C78.3047 20.4531 77.9141 20.9922 77.4297 21.4141C76.9453 21.8359 76.3594 22.0469 75.6719 22.0469C74.8438 22.0469 74.2109 21.875 73.7734 21.5312C73.3359 21.2031 73.0156 20.8281 72.8125 20.4062C72.6094 19.9844 72.4922 19.5859 72.4609 19.2109C72.4297 18.8516 72.4141 18.6406 72.4141 18.5781C72.4141 18.4531 72.4922 18.3125 72.6484 18.1562C72.8047 18 73.0391 17.8594 73.3516 17.7344C73.4766 17.6875 73.6016 17.6484 73.7266 17.6172C73.8359 17.5859 73.9453 17.5625 74.0547 17.5469C74.1641 17.5312 74.2656 17.5391 74.3594 17.5703C74.2031 17.8516 74.1094 18.1719 74.0781 18.5312C74.0625 18.8906 74.1094 19.2266 74.2188 19.5391C74.3438 19.8672 74.5234 20.1406 74.7578 20.3594C74.9922 20.5781 75.2891 20.6875 75.6484 20.6875C76.1484 20.6875 76.5391 20.5391 76.8203 20.2422C77.1172 19.9609 77.3359 19.6094 77.4766 19.1875C77.6328 18.7656 77.7266 18.3203 77.7578 17.8516C77.8047 17.3828 77.8281 16.9688 77.8281 16.6094C77.8281 16.3281 77.8203 15.9688 77.8047 15.5312C77.8047 15.0781 77.7812 14.5781 77.7344 14.0312C77.5469 14.3438 77.3281 14.6484 77.0781 14.9453C76.8281 15.2266 76.5625 15.4766 76.2812 15.6953C76 15.9141 75.7109 16.0859 75.4141 16.2109C75.1328 16.3516 74.8516 16.4219 74.5703 16.4219C74.0859 16.4219 73.6953 16.2734 73.3984 15.9766C73.1016 15.6641 72.875 15.2812 72.7188 14.8281C72.5625 14.3594 72.4531 13.8594 72.3906 13.3281C72.3438 12.7812 72.3203 12.2812 72.3203 11.8281C72.3203 11.4844 72.3359 11.0703 72.3672 10.5859C72.3984 10.0859 72.4375 9.60938 72.4844 9.15625C72.5312 8.70312 72.5859 8.3125 72.6484 7.98438C72.7266 7.64062 72.8047 7.44531 72.8828 7.39844C73.3359 7.13281 73.7812 6.98438 74.2188 6.95312C74.6562 6.92188 74.9844 6.97656 75.2031 7.11719C75.0156 7.25781 74.8594 7.49219 74.7344 7.82031C74.6094 8.14844 74.5078 8.51562 74.4297 8.92188C74.3516 9.3125 74.2969 9.72656 74.2656 10.1641C74.2344 10.5859 74.2188 10.9688 74.2188 11.3125C74.2188 11.5938 74.2266 11.9297 74.2422 12.3203C74.2578 12.7109 74.2891 13.0859 74.3359 13.4453C74.3984 13.8047 74.4844 14.1094 74.5938 14.3594C74.7031 14.6094 74.8438 14.7344 75.0156 14.7344C75.3594 14.7344 75.6797 14.6094 75.9766 14.3594C76.2734 14.1094 76.5312 13.7969 76.75 13.4219C76.9844 13.0469 77.1641 12.6484 77.2891 12.2266C77.4141 11.7891 77.4766 11.3828 77.4766 11.0078V10.8203C77.4453 10.4141 77.4141 10.0312 77.3828 9.67188C77.3516 9.29688 77.3203 8.96094 77.2891 8.66406C77.2734 8.36719 77.2578 8.125 77.2422 7.9375C77.2422 7.73438 77.2422 7.60156 77.2422 7.53906C77.2422 7.38281 77.3438 7.24219 77.5469 7.11719C77.7656 6.99219 78 6.90625 78.25 6.85938C78.5156 6.79688 78.75 6.77344 78.9531 6.78906C79.1719 6.80469 79.2812 6.875 79.2812 7ZM87.6016 11.9688C87.5703 12.5781 87.4609 13.1406 87.2734 13.6562C87.1016 14.1719 86.8594 14.625 86.5469 15.0156C86.2344 15.3906 85.8594 15.6875 85.4219 15.9062C85 16.125 84.5312 16.2422 84.0156 16.2578C83.5625 16.2734 83.1328 16.1641 82.7266 15.9297C82.3359 15.6953 81.9922 15.3672 81.6953 14.9453C81.3984 14.5234 81.1719 14.0234 81.0156 13.4453C80.875 12.8516 80.8359 12.2109 80.8984 11.5234C80.9453 10.7266 81.0938 10.0469 81.3438 9.48438C81.5938 8.90625 81.8594 8.42969 82.1406 8.05469C82.4219 7.67969 82.6797 7.40625 82.9141 7.23438C83.1641 7.04688 83.3203 6.9375 83.3828 6.90625C83.4922 6.85938 83.5938 6.85156 83.6875 6.88281C83.7812 6.89844 83.8828 6.92188 83.9922 6.95312C84.0234 6.96875 84.0547 7.00781 84.0859 7.07031C84.1484 7.17969 84.1875 7.38281 84.2031 7.67969C84.2812 7.50781 84.3828 7.36719 84.5078 7.25781C84.6328 7.14844 84.7578 7.07031 84.8828 7.02344C85.0391 6.96094 85.1953 6.92188 85.3516 6.90625C85.4609 6.89062 85.6484 6.97656 85.9141 7.16406C86.1953 7.35156 86.4609 7.64844 86.7109 8.05469C86.9766 8.46094 87.2031 8.99219 87.3906 9.64844C87.5781 10.2891 87.6484 11.0625 87.6016 11.9688ZM86.0078 11.6875C86.0234 11.3125 86.0078 10.9375 85.9609 10.5625C85.9297 10.1719 85.8672 9.82031 85.7734 9.50781C85.6953 9.17969 85.5938 8.92188 85.4688 8.73438C85.3438 8.53125 85.2188 8.42969 85.0938 8.42969C84.9531 8.46094 84.7969 8.53125 84.625 8.64062C84.4844 8.73438 84.3281 8.88281 84.1562 9.08594C83.9844 9.28906 83.8203 9.57812 83.6641 9.95312C83.6484 9.90625 83.6328 9.82031 83.6172 9.69531C83.6016 9.58594 83.5859 9.44531 83.5703 9.27344C83.5703 9.08594 83.5859 8.83594 83.6172 8.52344C83.3984 8.78906 83.2266 9.10156 83.1016 9.46094C82.9922 9.82031 82.9062 10.1641 82.8438 10.4922C82.7812 10.8828 82.7344 11.2734 82.7031 11.6641C82.6875 12.0859 82.7031 12.5 82.75 12.9062C82.8125 13.3125 82.9062 13.6719 83.0312 13.9844C83.1719 14.2969 83.3359 14.5469 83.5234 14.7344C83.7109 14.9219 83.9375 15.0078 84.2031 14.9922C84.4688 14.9766 84.7031 14.8672 84.9062 14.6641C85.1094 14.4609 85.2891 14.2031 85.4453 13.8906C85.6016 13.5781 85.7266 13.2266 85.8203 12.8359C85.9141 12.4453 85.9766 12.0625 86.0078 11.6875ZM94.1875 7.28125C94.1875 7.10938 94.2891 6.98438 94.4922 6.90625C94.7109 6.8125 94.9375 6.76562 95.1719 6.76562C95.4219 6.76562 95.6484 6.8125 95.8516 6.90625C96.0547 6.98438 96.1484 7.09375 96.1328 7.23438C96.1172 7.34375 96.1016 7.5625 96.0859 7.89062C96.0703 8.20312 96.0469 8.57812 96.0156 9.01562C96 9.45312 95.9766 9.92188 95.9453 10.4219C95.9141 10.9219 95.8828 11.4141 95.8516 11.8984C95.8359 12.3672 95.8203 12.8047 95.8047 13.2109C95.8047 13.6172 95.8047 13.9297 95.8047 14.1484C95.8047 14.4297 95.8203 14.6875 95.8516 14.9219C95.8828 15.125 95.9219 15.3281 95.9688 15.5312C96.0156 15.7188 96.0859 15.8516 96.1797 15.9297C96.0547 15.9766 95.9219 16.0078 95.7812 16.0234C95.6562 16.0391 95.5391 16.0547 95.4297 16.0703C95.3047 16.0859 95.1797 16.0938 95.0547 16.0938C94.7891 16.0938 94.5625 16.0391 94.375 15.9297C94.2031 15.8203 94.1172 15.5938 94.1172 15.25C94.1172 15.0781 94.125 14.8281 94.1406 14.5C94.1719 14.1719 94.2031 13.8203 94.2344 13.4453C94.125 13.7734 93.9922 14.1094 93.8359 14.4531C93.6797 14.7969 93.4844 15.1016 93.25 15.3672C93.0312 15.6328 92.7812 15.8516 92.5 16.0234C92.2188 16.1953 91.8984 16.2812 91.5391 16.2812C91.1328 16.2812 90.7578 16.1953 90.4141 16.0234C90.0859 15.8516 89.7969 15.6094 89.5469 15.2969C89.2969 14.9688 89.1094 14.5703 88.9844 14.1016C88.8594 13.6328 88.8125 13.0938 88.8438 12.4844C88.8438 12.0156 88.8516 11.5156 88.8672 10.9844C88.8828 10.5312 88.9062 10.0078 88.9375 9.41406C88.9688 8.82031 89.0234 8.20312 89.1016 7.5625C89.1172 7.5 89.2266 7.42188 89.4297 7.32812C89.6328 7.23438 89.8594 7.15625 90.1094 7.09375C90.3594 7.03125 90.6016 7.00781 90.8359 7.02344C91.0703 7.03906 91.2422 7.13281 91.3516 7.30469C91.2734 7.58594 91.1953 7.92188 91.1172 8.3125C91.0391 8.6875 90.9688 9.07812 90.9062 9.48438C90.8438 9.89062 90.7969 10.2891 90.7656 10.6797C90.7344 11.0703 90.7188 11.4297 90.7188 11.7578C90.7188 12.0547 90.7344 12.3828 90.7656 12.7422C90.7969 13.0859 90.8516 13.4141 90.9297 13.7266C91.0234 14.0234 91.1484 14.2734 91.3047 14.4766C91.4766 14.6797 91.6953 14.7812 91.9609 14.7812C92.2578 14.7812 92.5156 14.6562 92.7344 14.4062C92.9688 14.1406 93.1641 13.8047 93.3203 13.3984C93.4766 12.9922 93.6094 12.5312 93.7188 12.0156C93.8281 11.4844 93.9141 10.9609 93.9766 10.4453C94.0547 9.92969 94.1016 9.4375 94.1172 8.96875C94.1484 8.48438 94.1719 8.07812 94.1875 7.75V7.28125ZM104.125 8.80469C104.125 9.02344 104.062 9.25 103.938 9.48438C103.828 9.70312 103.688 9.91406 103.516 10.1172C103.344 10.3203 103.148 10.5 102.93 10.6562C102.727 10.7969 102.531 10.8828 102.344 10.9141C102.469 10.4297 102.508 10.0547 102.461 9.78906C102.414 9.52344 102.336 9.32812 102.227 9.20312C102.102 9.0625 101.945 8.98438 101.758 8.96875C101.477 8.96875 101.203 9.13281 100.938 9.46094C100.688 9.77344 100.469 10.1641 100.281 10.6328C100.094 11.0859 99.9453 11.5781 99.8359 12.1094C99.7266 12.625 99.6719 13.0938 99.6719 13.5156C99.6562 13.8125 99.6641 14.1016 99.6953 14.3828C99.7109 14.6172 99.7344 14.8594 99.7656 15.1094C99.8125 15.3594 99.875 15.5547 99.9531 15.6953C99.8594 15.7734 99.7031 15.8672 99.4844 15.9766C99.2812 16.0859 99.0625 16.1562 98.8281 16.1875C98.6094 16.2188 98.4062 16.1797 98.2188 16.0703C98.0469 15.9609 97.9531 15.7266 97.9375 15.3672C97.9062 15.0234 97.8828 14.6406 97.8672 14.2188C97.8672 13.7812 97.8672 13.3516 97.8672 12.9297C97.8828 12.4922 97.8984 12.0625 97.9141 11.6406C97.9297 11.2188 97.9531 10.8281 97.9844 10.4688C98.0156 9.78125 98.0312 9.25 98.0312 8.875C98.0312 8.5 98.0234 8.14062 98.0078 7.79688C98.0078 7.73438 98.1094 7.64844 98.3125 7.53906C98.5312 7.41406 98.7656 7.30469 99.0156 7.21094C99.2812 7.11719 99.5234 7.0625 99.7422 7.04688C99.9609 7.03125 100.07 7.07812 100.07 7.1875C100.07 7.35938 100.047 7.70312 100 8.21875C99.9688 8.71875 99.9219 9.24219 99.8594 9.78906C99.9688 9.49219 100.109 9.17188 100.281 8.82812C100.469 8.48438 100.68 8.16406 100.914 7.86719C101.148 7.57031 101.414 7.32812 101.711 7.14062C102.008 6.9375 102.336 6.83594 102.695 6.83594C102.977 6.83594 103.203 6.92188 103.375 7.09375C103.562 7.26562 103.711 7.46094 103.82 7.67969C103.93 7.89844 104.008 8.11719 104.055 8.33594C104.102 8.55469 104.125 8.71094 104.125 8.80469ZM116.266 8.80469C116.266 9.02344 116.203 9.25 116.078 9.48438C115.969 9.70312 115.828 9.91406 115.656 10.1172C115.484 10.3203 115.289 10.5 115.07 10.6562C114.867 10.7969 114.672 10.8828 114.484 10.9141C114.609 10.4297 114.648 10.0547 114.602 9.78906C114.555 9.52344 114.477 9.32812 114.367 9.20312C114.242 9.0625 114.086 8.98438 113.898 8.96875C113.617 8.96875 113.344 9.13281 113.078 9.46094C112.828 9.77344 112.609 10.1641 112.422 10.6328C112.234 11.0859 112.086 11.5781 111.977 12.1094C111.867 12.625 111.812 13.0938 111.812 13.5156C111.797 13.8125 111.805 14.1016 111.836 14.3828C111.852 14.6172 111.875 14.8594 111.906 15.1094C111.953 15.3594 112.016 15.5547 112.094 15.6953C112 15.7734 111.844 15.8672 111.625 15.9766C111.422 16.0859 111.203 16.1562 110.969 16.1875C110.75 16.2188 110.547 16.1797 110.359 16.0703C110.188 15.9609 110.094 15.7266 110.078 15.3672C110.047 15.0234 110.023 14.6406 110.008 14.2188C110.008 13.7812 110.008 13.3516 110.008 12.9297C110.023 12.4922 110.039 12.0625 110.055 11.6406C110.07 11.2188 110.094 10.8281 110.125 10.4688C110.156 9.78125 110.172 9.25 110.172 8.875C110.172 8.5 110.164 8.14062 110.148 7.79688C110.148 7.73438 110.25 7.64844 110.453 7.53906C110.672 7.41406 110.906 7.30469 111.156 7.21094C111.422 7.11719 111.664 7.0625 111.883 7.04688C112.102 7.03125 112.211 7.07812 112.211 7.1875C112.211 7.35938 112.188 7.70312 112.141 8.21875C112.109 8.71875 112.062 9.24219 112 9.78906C112.109 9.49219 112.25 9.17188 112.422 8.82812C112.609 8.48438 112.82 8.16406 113.055 7.86719C113.289 7.57031 113.555 7.32812 113.852 7.14062C114.148 6.9375 114.477 6.83594 114.836 6.83594C115.117 6.83594 115.344 6.92188 115.516 7.09375C115.703 7.26562 115.852 7.46094 115.961 7.67969C116.07 7.89844 116.148 8.11719 116.195 8.33594C116.242 8.55469 116.266 8.71094 116.266 8.80469ZM120.156 16.2578C119.062 16.2578 118.219 15.8906 117.625 15.1562C117.031 14.4219 116.734 13.4609 116.734 12.2734C116.734 11.4453 116.852 10.6719 117.086 9.95312C117.336 9.21875 117.664 8.58594 118.07 8.05469C118.477 7.52344 118.945 7.10938 119.477 6.8125C120.023 6.5 120.594 6.34375 121.188 6.34375C121.766 6.34375 122.258 6.55469 122.664 6.97656C123.07 7.38281 123.273 7.96875 123.273 8.73438C123.273 9.23438 123.164 9.73438 122.945 10.2344C122.727 10.7188 122.438 11.1562 122.078 11.5469C121.734 11.9219 121.352 12.2266 120.93 12.4609C120.508 12.6953 120.102 12.8125 119.711 12.8125C119.461 12.8125 119.25 12.7812 119.078 12.7188C118.906 12.6562 118.75 12.5625 118.609 12.4375C118.656 13.3281 118.852 13.9531 119.195 14.3125C119.539 14.6562 119.984 14.8281 120.531 14.8281C120.906 14.8281 121.234 14.75 121.516 14.5938C121.812 14.4375 122.062 14.2578 122.266 14.0547C122.469 13.8516 122.633 13.6484 122.758 13.4453C122.883 13.2266 122.969 13.0625 123.016 12.9531C123.062 12.8594 123.141 12.8125 123.25 12.8125C123.375 12.8125 123.438 12.9062 123.438 13.0938C123.438 13.2656 123.375 13.5312 123.25 13.8906C123.141 14.2344 122.953 14.5859 122.688 14.9453C122.422 15.2891 122.078 15.5938 121.656 15.8594C121.25 16.125 120.75 16.2578 120.156 16.2578ZM121.234 7.35156C121.141 7.35156 120.961 7.45312 120.695 7.65625C120.445 7.84375 120.172 8.125 119.875 8.5C119.594 8.875 119.328 9.32812 119.078 9.85938C118.844 10.375 118.695 10.9609 118.633 11.6172C119.57 11.3984 120.312 11.0547 120.859 10.5859C121.406 10.1172 121.68 9.42969 121.68 8.52344C121.68 8.07031 121.625 7.76562 121.516 7.60938C121.406 7.4375 121.312 7.35156 121.234 7.35156ZM128.5 11.5469C128.844 11.6719 129.172 11.7891 129.484 11.8984C129.797 12.0078 130.07 12.1406 130.305 12.2969C130.539 12.4531 130.727 12.6406 130.867 12.8594C131.008 13.0625 131.078 13.3203 131.078 13.6328C131.078 14.0078 130.992 14.3594 130.82 14.6875C130.664 15.0156 130.43 15.3047 130.117 15.5547C129.805 15.8047 129.422 16 128.969 16.1406C128.531 16.2969 128.039 16.375 127.492 16.375C126.883 16.375 126.391 16.3125 126.016 16.1875C125.641 16.0781 125.352 15.9453 125.148 15.7891C124.945 15.6328 124.812 15.4766 124.75 15.3203C124.688 15.1641 124.656 15.0391 124.656 14.9453C124.656 14.7578 124.695 14.5547 124.773 14.3359C124.852 14.1016 125 13.8516 125.219 13.5859C125.312 13.4766 125.414 13.375 125.523 13.2812C125.742 13.0938 125.961 12.9766 126.18 12.9297C126.148 13.2891 126.188 13.5859 126.297 13.8203C126.422 14.0391 126.578 14.2109 126.766 14.3359C126.969 14.4609 127.188 14.5469 127.422 14.5938C127.672 14.6406 127.906 14.6641 128.125 14.6641C128.344 14.6641 128.562 14.6328 128.781 14.5703C129.016 14.5078 129.227 14.4297 129.414 14.3359C129.602 14.2266 129.75 14.1094 129.859 13.9844C129.984 13.8438 130.047 13.6953 130.047 13.5391C130.047 13.3672 129.977 13.2266 129.836 13.1172C129.695 13.0078 129.516 12.9219 129.297 12.8594C129.094 12.7812 128.867 12.7266 128.617 12.6953C128.383 12.6484 128.156 12.6016 127.938 12.5547C127.719 12.5078 127.422 12.4453 127.047 12.3672C126.688 12.2734 126.328 12.1328 125.969 11.9453C125.625 11.7578 125.32 11.5078 125.055 11.1953C124.805 10.8828 124.68 10.4688 124.68 9.95312C124.68 9.35938 124.828 8.84375 125.125 8.40625C125.438 7.95312 125.812 7.57812 126.25 7.28125C126.703 6.96875 127.18 6.73438 127.68 6.57812C128.18 6.42188 128.625 6.34375 129.016 6.34375C129.219 6.34375 129.438 6.375 129.672 6.4375C129.906 6.48438 130.125 6.57812 130.328 6.71875C130.531 6.84375 130.695 7.01562 130.82 7.23438C130.961 7.45312 131.031 7.73438 131.031 8.07812C131.031 8.42188 131 8.70312 130.938 8.92188C130.891 9.125 130.812 9.28906 130.703 9.41406C130.609 9.52344 130.492 9.59375 130.352 9.625C130.211 9.65625 130.047 9.67188 129.859 9.67188C129.734 9.67188 129.617 9.65625 129.508 9.625C129.414 9.59375 129.312 9.5625 129.203 9.53125C129.094 9.5 128.992 9.44531 128.898 9.36719C129.055 9.17969 129.172 9 129.25 8.82812C129.344 8.65625 129.391 8.44531 129.391 8.19531C129.391 7.97656 129.328 7.78125 129.203 7.60938C129.094 7.4375 128.906 7.35156 128.641 7.35156C128.359 7.35156 128.086 7.40625 127.82 7.51562C127.57 7.625 127.344 7.77344 127.141 7.96094C126.953 8.14844 126.797 8.36719 126.672 8.61719C126.562 8.85156 126.508 9.10938 126.508 9.39062C126.508 9.8125 126.664 10.2109 126.977 10.5859C127.305 10.9609 127.812 11.2812 128.5 11.5469ZM137.758 7.28125C137.758 7.10938 137.859 6.98438 138.062 6.90625C138.281 6.8125 138.508 6.76562 138.742 6.76562C138.992 6.76562 139.219 6.8125 139.422 6.90625C139.625 6.98438 139.719 7.09375 139.703 7.23438C139.688 7.34375 139.672 7.5625 139.656 7.89062C139.641 8.20312 139.617 8.57812 139.586 9.01562C139.57 9.45312 139.547 9.92188 139.516 10.4219C139.484 10.9219 139.453 11.4141 139.422 11.8984C139.406 12.3672 139.391 12.8047 139.375 13.2109C139.375 13.6172 139.375 13.9297 139.375 14.1484C139.375 14.4297 139.391 14.6875 139.422 14.9219C139.453 15.125 139.492 15.3281 139.539 15.5312C139.586 15.7188 139.656 15.8516 139.75 15.9297C139.625 15.9766 139.492 16.0078 139.352 16.0234C139.227 16.0391 139.109 16.0547 139 16.0703C138.875 16.0859 138.75 16.0938 138.625 16.0938C138.359 16.0938 138.133 16.0391 137.945 15.9297C137.773 15.8203 137.688 15.5938 137.688 15.25C137.688 15.0781 137.695 14.8281 137.711 14.5C137.742 14.1719 137.773 13.8203 137.805 13.4453C137.695 13.7734 137.562 14.1094 137.406 14.4531C137.25 14.7969 137.055 15.1016 136.82 15.3672C136.602 15.6328 136.352 15.8516 136.07 16.0234C135.789 16.1953 135.469 16.2812 135.109 16.2812C134.703 16.2812 134.328 16.1953 133.984 16.0234C133.656 15.8516 133.367 15.6094 133.117 15.2969C132.867 14.9688 132.68 14.5703 132.555 14.1016C132.43 13.6328 132.383 13.0938 132.414 12.4844C132.414 12.0156 132.422 11.5156 132.438 10.9844C132.453 10.5312 132.477 10.0078 132.508 9.41406C132.539 8.82031 132.594 8.20312 132.672 7.5625C132.688 7.5 132.797 7.42188 133 7.32812C133.203 7.23438 133.43 7.15625 133.68 7.09375C133.93 7.03125 134.172 7.00781 134.406 7.02344C134.641 7.03906 134.812 7.13281 134.922 7.30469C134.844 7.58594 134.766 7.92188 134.688 8.3125C134.609 8.6875 134.539 9.07812 134.477 9.48438C134.414 9.89062 134.367 10.2891 134.336 10.6797C134.305 11.0703 134.289 11.4297 134.289 11.7578C134.289 12.0547 134.305 12.3828 134.336 12.7422C134.367 13.0859 134.422 13.4141 134.5 13.7266C134.594 14.0234 134.719 14.2734 134.875 14.4766C135.047 14.6797 135.266 14.7812 135.531 14.7812C135.828 14.7812 136.086 14.6562 136.305 14.4062C136.539 14.1406 136.734 13.8047 136.891 13.3984C137.047 12.9922 137.18 12.5312 137.289 12.0156C137.398 11.4844 137.484 10.9609 137.547 10.4453C137.625 9.92969 137.672 9.4375 137.688 8.96875C137.719 8.48438 137.742 8.07812 137.758 7.75V7.28125ZM144.391 0.8125C144.359 1.375 144.305 2.02344 144.227 2.75781C144.148 3.49219 144.062 4.28125 143.969 5.125C143.891 5.96875 143.805 6.85156 143.711 7.77344C143.633 8.69531 143.562 9.625 143.5 10.5625C143.438 11.5 143.406 12.2656 143.406 12.8594C143.422 13.4375 143.461 13.9141 143.523 14.2891C143.586 14.6641 143.672 14.9609 143.781 15.1797C143.891 15.3984 144.031 15.6094 144.203 15.8125C144 15.9375 143.812 16.0312 143.641 16.0938C143.469 16.1562 143.32 16.2031 143.195 16.2344C143.039 16.2812 142.898 16.3047 142.773 16.3047C142.539 16.3047 142.336 16.1953 142.164 15.9766C141.992 15.7422 141.852 15.4453 141.742 15.0859C141.648 14.7266 141.57 14.3281 141.508 13.8906C141.461 13.4375 141.438 12.9922 141.438 12.5547C141.438 12.0859 141.453 11.5469 141.484 10.9375C141.516 10.3125 141.547 9.65625 141.578 8.96875C141.625 8.26562 141.672 7.53906 141.719 6.78906C141.766 6.02344 141.805 5.26562 141.836 4.51562C141.867 3.9375 141.898 3.41406 141.93 2.94531C141.961 2.53906 141.984 2.17188 142 1.84375C142.016 1.5 142.008 1.29687 141.977 1.23438C142.07 1.10937 142.188 1.01562 142.328 0.953125C142.469 0.890625 142.602 0.835938 142.727 0.789062C142.883 0.742188 143.039 0.703125 143.195 0.671875H143.641C143.766 0.671875 143.898 0.6875 144.039 0.71875C144.18 0.734375 144.297 0.765625 144.391 0.8125ZM154.305 5.57031C154.133 5.53906 153.898 5.50781 153.602 5.47656C153.32 5.44531 153.031 5.42188 152.734 5.40625C152.391 5.39062 152.023 5.38281 151.633 5.38281C151.242 5.35156 150.75 5.35156 150.156 5.38281C149.578 5.39844 148.969 5.40625 148.328 5.40625C148.312 5.8125 148.281 6.22656 148.234 6.64844C148.203 7.07031 148.172 7.48438 148.141 7.89062C148.062 8.64062 147.992 9.40625 147.93 10.1875C147.883 10.9688 147.859 11.7109 147.859 12.4141C147.859 13.1172 147.898 13.7578 147.977 14.3359C148.07 14.8984 148.234 15.3438 148.469 15.6719C148.281 15.8125 148.078 15.9219 147.859 16C147.641 16.0625 147.445 16.1094 147.273 16.1406C147.07 16.1875 146.867 16.2109 146.664 16.2109C146.477 16.2109 146.32 16.1484 146.195 16.0234C146.07 15.8984 146 15.6797 145.984 15.3672C145.953 14.8359 145.945 14.3047 145.961 13.7734C145.992 13.2266 146.023 12.6562 146.055 12.0625C146.102 11.4688 146.148 10.8359 146.195 10.1641C146.242 9.47656 146.289 8.72656 146.336 7.91406C146.383 7.07031 146.406 6.25 146.406 5.45312C145.812 5.46875 145.312 5.47656 144.906 5.47656C144.5 5.47656 144.273 5.46875 144.227 5.45312C144.18 5.42188 144.125 5.35156 144.062 5.24219C144 5.14844 143.922 5.00781 143.828 4.82031C143.719 4.63281 143.586 4.36719 143.43 4.02344C143.727 4.02344 144.055 4.02344 144.414 4.02344C144.758 4.02344 145.078 4.01562 145.375 4C145.719 3.98438 146.062 3.96875 146.406 3.95312C146.391 3.70312 146.383 3.4375 146.383 3.15625C146.367 2.9375 146.359 2.69531 146.359 2.42969C146.359 2.14844 146.352 1.89062 146.336 1.65625C146.336 1.5625 146.445 1.45313 146.664 1.32812C146.898 1.1875 147.148 1.0625 147.414 0.953125C147.68 0.84375 147.922 0.773438 148.141 0.742188C148.375 0.710937 148.492 0.765625 148.492 0.90625C148.492 1.04688 148.484 1.39062 148.469 1.9375C148.469 2.46875 148.453 3.11719 148.422 3.88281C148.578 3.88281 148.695 3.875 148.773 3.85938C149.602 3.82812 150.266 3.79688 150.766 3.76562C151.281 3.71875 151.703 3.71094 152.031 3.74219C152.359 3.77344 152.648 3.85156 152.898 3.97656C153.148 4.10156 153.43 4.30469 153.742 4.58594C153.852 4.67969 153.945 4.78125 154.023 4.89062C154.102 4.98438 154.164 5.09375 154.211 5.21875C154.273 5.32812 154.305 5.44531 154.305 5.57031ZM154.07 11.5469C154.414 11.6719 154.742 11.7891 155.055 11.8984C155.367 12.0078 155.641 12.1406 155.875 12.2969C156.109 12.4531 156.297 12.6406 156.438 12.8594C156.578 13.0625 156.648 13.3203 156.648 13.6328C156.648 14.0078 156.562 14.3594 156.391 14.6875C156.234 15.0156 156 15.3047 155.688 15.5547C155.375 15.8047 154.992 16 154.539 16.1406C154.102 16.2969 153.609 16.375 153.062 16.375C152.453 16.375 151.961 16.3125 151.586 16.1875C151.211 16.0781 150.922 15.9453 150.719 15.7891C150.516 15.6328 150.383 15.4766 150.32 15.3203C150.258 15.1641 150.227 15.0391 150.227 14.9453C150.227 14.7578 150.266 14.5547 150.344 14.3359C150.422 14.1016 150.57 13.8516 150.789 13.5859C150.883 13.4766 150.984 13.375 151.094 13.2812C151.312 13.0938 151.531 12.9766 151.75 12.9297C151.719 13.2891 151.758 13.5859 151.867 13.8203C151.992 14.0391 152.148 14.2109 152.336 14.3359C152.539 14.4609 152.758 14.5469 152.992 14.5938C153.242 14.6406 153.477 14.6641 153.695 14.6641C153.914 14.6641 154.133 14.6328 154.352 14.5703C154.586 14.5078 154.797 14.4297 154.984 14.3359C155.172 14.2266 155.32 14.1094 155.43 13.9844C155.555 13.8438 155.617 13.6953 155.617 13.5391C155.617 13.3672 155.547 13.2266 155.406 13.1172C155.266 13.0078 155.086 12.9219 154.867 12.8594C154.664 12.7812 154.438 12.7266 154.188 12.6953C153.953 12.6484 153.727 12.6016 153.508 12.5547C153.289 12.5078 152.992 12.4453 152.617 12.3672C152.258 12.2734 151.898 12.1328 151.539 11.9453C151.195 11.7578 150.891 11.5078 150.625 11.1953C150.375 10.8828 150.25 10.4688 150.25 9.95312C150.25 9.35938 150.398 8.84375 150.695 8.40625C151.008 7.95312 151.383 7.57812 151.82 7.28125C152.273 6.96875 152.75 6.73438 153.25 6.57812C153.75 6.42188 154.195 6.34375 154.586 6.34375C154.789 6.34375 155.008 6.375 155.242 6.4375C155.477 6.48438 155.695 6.57812 155.898 6.71875C156.102 6.84375 156.266 7.01562 156.391 7.23438C156.531 7.45312 156.602 7.73438 156.602 8.07812C156.602 8.42188 156.57 8.70312 156.508 8.92188C156.461 9.125 156.383 9.28906 156.273 9.41406C156.18 9.52344 156.062 9.59375 155.922 9.625C155.781 9.65625 155.617 9.67188 155.43 9.67188C155.305 9.67188 155.188 9.65625 155.078 9.625C154.984 9.59375 154.883 9.5625 154.773 9.53125C154.664 9.5 154.562 9.44531 154.469 9.36719C154.625 9.17969 154.742 9 154.82 8.82812C154.914 8.65625 154.961 8.44531 154.961 8.19531C154.961 7.97656 154.898 7.78125 154.773 7.60938C154.664 7.4375 154.477 7.35156 154.211 7.35156C153.93 7.35156 153.656 7.40625 153.391 7.51562C153.141 7.625 152.914 7.77344 152.711 7.96094C152.523 8.14844 152.367 8.36719 152.242 8.61719C152.133 8.85156 152.078 9.10938 152.078 9.39062C152.078 9.8125 152.234 10.2109 152.547 10.5859C152.875 10.9609 153.383 11.2812 154.07 11.5469ZM169.516 11.9688C169.484 12.5781 169.375 13.1406 169.188 13.6562C169.016 14.1719 168.773 14.625 168.461 15.0156C168.148 15.3906 167.773 15.6875 167.336 15.9062C166.914 16.125 166.445 16.2422 165.93 16.2578C165.477 16.2734 165.047 16.1641 164.641 15.9297C164.25 15.6953 163.906 15.3672 163.609 14.9453C163.312 14.5234 163.086 14.0234 162.93 13.4453C162.789 12.8516 162.75 12.2109 162.812 11.5234C162.859 10.7266 163.008 10.0469 163.258 9.48438C163.508 8.90625 163.773 8.42969 164.055 8.05469C164.336 7.67969 164.594 7.40625 164.828 7.23438C165.078 7.04688 165.234 6.9375 165.297 6.90625C165.406 6.85938 165.508 6.85156 165.602 6.88281C165.695 6.89844 165.797 6.92188 165.906 6.95312C165.938 6.96875 165.969 7.00781 166 7.07031C166.062 7.17969 166.102 7.38281 166.117 7.67969C166.195 7.50781 166.297 7.36719 166.422 7.25781C166.547 7.14844 166.672 7.07031 166.797 7.02344C166.953 6.96094 167.109 6.92188 167.266 6.90625C167.375 6.89062 167.562 6.97656 167.828 7.16406C168.109 7.35156 168.375 7.64844 168.625 8.05469C168.891 8.46094 169.117 8.99219 169.305 9.64844C169.492 10.2891 169.562 11.0625 169.516 11.9688ZM167.922 11.6875C167.938 11.3125 167.922 10.9375 167.875 10.5625C167.844 10.1719 167.781 9.82031 167.688 9.50781C167.609 9.17969 167.508 8.92188 167.383 8.73438C167.258 8.53125 167.133 8.42969 167.008 8.42969C166.867 8.46094 166.711 8.53125 166.539 8.64062C166.398 8.73438 166.242 8.88281 166.07 9.08594C165.898 9.28906 165.734 9.57812 165.578 9.95312C165.562 9.90625 165.547 9.82031 165.531 9.69531C165.516 9.58594 165.5 9.44531 165.484 9.27344C165.484 9.08594 165.5 8.83594 165.531 8.52344C165.312 8.78906 165.141 9.10156 165.016 9.46094C164.906 9.82031 164.82 10.1641 164.758 10.4922C164.695 10.8828 164.648 11.2734 164.617 11.6641C164.602 12.0859 164.617 12.5 164.664 12.9062C164.727 13.3125 164.82 13.6719 164.945 13.9844C165.086 14.2969 165.25 14.5469 165.438 14.7344C165.625 14.9219 165.852 15.0078 166.117 14.9922C166.383 14.9766 166.617 14.8672 166.82 14.6641C167.023 14.4609 167.203 14.2031 167.359 13.8906C167.516 13.5781 167.641 13.2266 167.734 12.8359C167.828 12.4453 167.891 12.0625 167.922 11.6875ZM173.219 15.3672C173.203 15.4609 173.117 15.5625 172.961 15.6719C172.82 15.7656 172.648 15.8516 172.445 15.9297C172.258 16.0078 172.078 16.0547 171.906 16.0703C171.734 16.1016 171.617 16.0859 171.555 16.0234C171.492 15.9609 171.391 15.8438 171.25 15.6719C171.109 15.5 171.023 15.2188 170.992 14.8281C170.961 14.4219 170.945 13.9141 170.945 13.3047C170.945 12.6797 170.938 11.9922 170.922 11.2422V10.3047C170.922 10.0234 170.914 9.69531 170.898 9.32031C170.898 8.94531 170.891 8.55469 170.875 8.14844C171.016 8.07031 171.156 8 171.297 7.9375C171.453 7.85938 171.594 7.79688 171.719 7.75C171.859 7.6875 171.992 7.64062 172.117 7.60938C172.445 7.51562 172.695 7.46094 172.867 7.44531C173.039 7.42969 173.141 7.48438 173.172 7.60938C173.188 7.70312 173.18 7.92969 173.148 8.28906C173.117 8.60156 173.078 9.07812 173.031 9.71875C172.984 10.3438 172.906 11.2188 172.797 12.3438C173 11.8438 173.164 11.4141 173.289 11.0547C173.43 10.6953 173.547 10.4062 173.641 10.1875C173.734 9.92188 173.82 9.71094 173.898 9.55469C173.977 9.35156 174.078 9.125 174.203 8.875C174.328 8.625 174.453 8.39062 174.578 8.17188C174.719 7.95312 174.844 7.75781 174.953 7.58594C175.078 7.41406 175.172 7.3125 175.234 7.28125C175.281 7.25 175.422 7.25 175.656 7.28125C175.891 7.3125 176.141 7.39062 176.406 7.51562C176.672 7.625 176.93 7.78906 177.18 8.00781C177.43 8.21094 177.594 8.46094 177.672 8.75781C177.766 9.10156 177.797 9.55469 177.766 10.1172C177.75 10.6797 177.711 11.2578 177.648 11.8516C177.602 12.4453 177.562 13.0078 177.531 13.5391C177.5 14.0703 177.531 14.4766 177.625 14.7578C177.656 14.9141 177.703 15.0547 177.766 15.1797C177.797 15.3047 177.836 15.4219 177.883 15.5312C177.945 15.625 178.008 15.6953 178.07 15.7422C177.695 15.9141 177.391 16.0391 177.156 16.1172C176.922 16.1953 176.742 16.25 176.617 16.2812C176.461 16.3281 176.352 16.3438 176.289 16.3281C176.148 16.2812 176.023 16.1641 175.914 15.9766C175.82 15.7891 175.734 15.4922 175.656 15.0859C175.625 14.9609 175.609 14.7578 175.609 14.4766C175.625 14.1797 175.648 13.8516 175.68 13.4922C175.711 13.1172 175.742 12.7344 175.773 12.3438C175.82 11.9375 175.852 11.5625 175.867 11.2188C175.898 10.8594 175.922 10.5547 175.938 10.3047C175.953 10.0391 175.953 9.85938 175.938 9.76562C175.859 9.48438 175.75 9.28906 175.609 9.17969C175.469 9.05469 175.359 9.03906 175.281 9.13281C175.078 9.36719 174.859 9.75 174.625 10.2812C174.406 10.7969 174.195 11.3672 173.992 11.9922C173.789 12.6016 173.617 13.2109 173.477 13.8203C173.336 14.4297 173.25 14.9453 173.219 15.3672ZM7.48047 43.8047C7.51172 43.9141 7.55859 44.0156 7.62109 44.1094C7.66797 44.1875 7.73047 44.2656 7.80859 44.3438C7.90234 44.4062 8.01172 44.4453 8.13672 44.4609C8.02734 44.6797 7.91797 44.8281 7.80859 44.9062C7.74609 44.9531 7.69141 44.9844 7.64453 45C7.50391 45.0469 7.29297 45.0703 7.01172 45.0703C6.73047 45.0703 6.45703 44.9844 6.19141 44.8125C6.09766 44.7344 6.01172 44.6172 5.93359 44.4609C5.85547 44.3359 5.78516 44.1641 5.72266 43.9453C5.67578 43.7109 5.63672 43.4141 5.60547 43.0547C5.38672 43.5234 5.13672 43.8984 4.85547 44.1797C4.58984 44.4453 4.32422 44.6406 4.05859 44.7656C3.76172 44.9375 3.45703 45.0391 3.14453 45.0703C2.75391 45.1016 2.37891 45.0391 2.01953 44.8828C1.67578 44.7109 1.37891 44.4609 1.12891 44.1328C0.894531 43.7891 0.714844 43.375 0.589844 42.8906C0.464844 42.4062 0.425781 41.8594 0.472656 41.25C0.519531 40.6094 0.644531 40.0391 0.847656 39.5391C1.05078 39.0391 1.29297 38.5938 1.57422 38.2031C1.85547 37.8125 2.15234 37.4844 2.46484 37.2188C2.77734 36.9375 3.07422 36.7109 3.35547 36.5391C3.65234 36.3516 3.90234 36.2188 4.10547 36.1406C4.32422 36.0469 4.46484 35.9922 4.52734 35.9766C4.69922 35.9297 4.84766 35.9141 4.97266 35.9297C5.09766 35.9453 5.20703 36.0156 5.30078 36.1406C5.33203 36.1875 5.37109 36.2422 5.41797 36.3047C5.44922 36.3672 5.48828 36.4531 5.53516 36.5625C5.58203 36.6562 5.62109 36.7656 5.65234 36.8906C5.27734 37.0625 4.92578 37.2578 4.59766 37.4766C4.26953 37.6797 3.96484 37.9297 3.68359 38.2266C3.41797 38.5234 3.18359 38.8828 2.98047 39.3047C2.77734 39.7266 2.62109 40.2422 2.51172 40.8516C2.35547 41.6172 2.39453 42.2344 2.62891 42.7031C2.87891 43.1719 3.21484 43.3672 3.63672 43.2891C3.88672 43.2109 4.12891 43.0625 4.36328 42.8438C4.56641 42.6562 4.77734 42.375 4.99609 42C5.23047 41.625 5.44922 41.1094 5.65234 40.4531C5.73047 39.5156 5.79297 38.7812 5.83984 38.25C5.90234 37.7031 5.95703 37.2891 6.00391 37.0078C6.06641 36.6797 6.11328 36.4609 6.14453 36.3516C6.19141 36.2734 6.28516 36.2031 6.42578 36.1406C6.56641 36.0625 6.72266 36 6.89453 35.9531C7.06641 35.9062 7.22266 35.8828 7.36328 35.8828C7.50391 35.8672 7.59766 35.8672 7.64453 35.8828C7.67578 35.8984 7.69141 36.0938 7.69141 36.4688C7.69141 36.8281 7.67578 37.2891 7.64453 37.8516C7.62891 38.3984 7.60547 39 7.57422 39.6562C7.54297 40.2969 7.51172 40.9062 7.48047 41.4844C7.46484 42.0625 7.44922 42.5703 7.43359 43.0078C7.43359 43.4297 7.44922 43.6953 7.48047 43.8047ZM11.9336 44.3672C11.918 44.4609 11.832 44.5625 11.6758 44.6719C11.5352 44.7656 11.3633 44.8516 11.1602 44.9297C10.9727 45.0078 10.793 45.0547 10.6211 45.0703C10.4492 45.1016 10.332 45.0859 10.2695 45.0234C10.207 44.9609 10.1055 44.8438 9.96484 44.6719C9.82422 44.5 9.73828 44.2188 9.70703 43.8281C9.67578 43.4219 9.66016 42.9141 9.66016 42.3047C9.66016 41.6797 9.65234 40.9922 9.63672 40.2422V39.3047C9.63672 39.0234 9.62891 38.6953 9.61328 38.3203C9.61328 37.9453 9.60547 37.5547 9.58984 37.1484C9.73047 37.0703 9.87109 37 10.0117 36.9375C10.168 36.8594 10.3086 36.7969 10.4336 36.75C10.5742 36.6875 10.707 36.6406 10.832 36.6094C11.1602 36.5156 11.4102 36.4609 11.582 36.4453C11.7539 36.4297 11.8555 36.4844 11.8867 36.6094C11.9023 36.7031 11.8945 36.9297 11.8633 37.2891C11.832 37.6016 11.793 38.0781 11.7461 38.7188C11.6992 39.3438 11.6211 40.2188 11.5117 41.3438C11.7148 40.8438 11.8789 40.4141 12.0039 40.0547C12.1445 39.6953 12.2617 39.4062 12.3555 39.1875C12.4492 38.9219 12.5352 38.7109 12.6133 38.5547C12.6914 38.3516 12.793 38.125 12.918 37.875C13.043 37.625 13.168 37.3906 13.293 37.1719C13.4336 36.9531 13.5586 36.7578 13.668 36.5859C13.793 36.4141 13.8867 36.3125 13.9492 36.2812C13.9961 36.25 14.1367 36.25 14.3711 36.2812C14.6055 36.3125 14.8555 36.3906 15.1211 36.5156C15.3867 36.625 15.6445 36.7891 15.8945 37.0078C16.1445 37.2109 16.3086 37.4609 16.3867 37.7578C16.4805 38.1016 16.5117 38.5547 16.4805 39.1172C16.4648 39.6797 16.4258 40.2578 16.3633 40.8516C16.3164 41.4453 16.2773 42.0078 16.2461 42.5391C16.2148 43.0703 16.2461 43.4766 16.3398 43.7578C16.3711 43.9141 16.418 44.0547 16.4805 44.1797C16.5117 44.3047 16.5508 44.4219 16.5977 44.5312C16.6602 44.625 16.7227 44.6953 16.7852 44.7422C16.4102 44.9141 16.1055 45.0391 15.8711 45.1172C15.6367 45.1953 15.457 45.25 15.332 45.2812C15.1758 45.3281 15.0664 45.3438 15.0039 45.3281C14.8633 45.2812 14.7383 45.1641 14.6289 44.9766C14.5352 44.7891 14.4492 44.4922 14.3711 44.0859C14.3398 43.9609 14.3242 43.7578 14.3242 43.4766C14.3398 43.1797 14.3633 42.8516 14.3945 42.4922C14.4258 42.1172 14.457 41.7344 14.4883 41.3438C14.5352 40.9375 14.5664 40.5625 14.582 40.2188C14.6133 39.8594 14.6367 39.5547 14.6523 39.3047C14.668 39.0391 14.668 38.8594 14.6523 38.7656C14.5742 38.4844 14.4648 38.2891 14.3242 38.1797C14.1836 38.0547 14.0742 38.0391 13.9961 38.1328C13.793 38.3672 13.5742 38.75 13.3398 39.2812C13.1211 39.7969 12.9102 40.3672 12.707 40.9922C12.5039 41.6016 12.332 42.2109 12.1914 42.8203C12.0508 43.4297 11.9648 43.9453 11.9336 44.3672ZM23.3242 36.7031C23.3242 36.6094 23.4492 36.5078 23.6992 36.3984C23.9492 36.2891 24.2227 36.2031 24.5195 36.1406C24.832 36.0625 25.1133 36.0234 25.3633 36.0234C25.6289 36.0078 25.7617 36.0625 25.7617 36.1875C25.7617 36.4219 25.7461 36.7578 25.7148 37.1953C25.6836 37.6172 25.6445 38.0703 25.5977 38.5547C25.5508 39.0234 25.5039 39.5 25.457 39.9844C25.4102 40.4531 25.3789 40.8516 25.3633 41.1797C25.332 41.5234 25.3008 41.8984 25.2695 42.3047C25.2383 42.6484 25.2148 43.0312 25.1992 43.4531C25.1836 43.875 25.1836 44.3047 25.1992 44.7422C25.1992 44.8203 25.1211 44.8984 24.9648 44.9766C24.8086 45.0547 24.6367 45.1094 24.4492 45.1406C24.2617 45.1875 24.082 45.2109 23.9102 45.2109C23.7383 45.2109 23.6445 45.1797 23.6289 45.1172C23.5977 45.0547 23.5664 44.9453 23.5352 44.7891C23.5039 44.6328 23.4727 44.4141 23.4414 44.1328C23.4102 43.8359 23.3867 43.4609 23.3711 43.0078C23.3555 42.5391 23.3633 41.9766 23.3945 41.3203C23.457 40.0234 23.4648 39.0234 23.418 38.3203C23.3711 37.6016 23.3398 37.0625 23.3242 36.7031ZM24.9648 32.0391C25.2773 32.0391 25.5742 32.1328 25.8555 32.3203C26.1367 32.5078 26.2773 32.7578 26.2773 33.0703C26.2773 33.3047 26.2148 33.5312 26.0898 33.75C25.9805 33.9688 25.8398 34.1641 25.668 34.3359C25.4961 34.5078 25.3008 34.6484 25.082 34.7578C24.8633 34.8516 24.6602 34.8984 24.4727 34.8984C24.2227 34.8984 24.0195 34.8594 23.8633 34.7812C23.707 34.6875 23.582 34.5859 23.4883 34.4766C23.4102 34.3516 23.3555 34.2188 23.3242 34.0781C23.293 33.9375 23.2773 33.8047 23.2773 33.6797C23.2773 33.5234 23.3008 33.3516 23.3477 33.1641C23.3945 32.9609 23.4805 32.7812 23.6055 32.625C23.7305 32.4531 23.9023 32.3125 24.1211 32.2031C24.3398 32.0938 24.6211 32.0391 24.9648 32.0391ZM24.3789 34.2188C24.4727 34.2188 24.5742 34.1875 24.6836 34.125C24.8086 34.0469 24.918 33.9609 25.0117 33.8672C25.1211 33.7734 25.207 33.6719 25.2695 33.5625C25.3477 33.4531 25.3867 33.3594 25.3867 33.2812C25.3867 33.1562 25.3242 33.0938 25.1992 33.0938C25.1211 33.0938 25.0195 33.125 24.8945 33.1875C24.7852 33.25 24.6758 33.3281 24.5664 33.4219C24.457 33.5 24.3633 33.5938 24.2852 33.7031C24.2227 33.7969 24.1914 33.8906 24.1914 33.9844C24.1914 34.1406 24.2539 34.2188 24.3789 34.2188ZM29.8164 44.3672C29.8008 44.4609 29.7148 44.5625 29.5586 44.6719C29.418 44.7656 29.2461 44.8516 29.043 44.9297C28.8555 45.0078 28.6758 45.0547 28.5039 45.0703C28.332 45.1016 28.2148 45.0859 28.1523 45.0234C28.0898 44.9609 27.9883 44.8438 27.8477 44.6719C27.707 44.5 27.6211 44.2188 27.5898 43.8281C27.5586 43.4219 27.543 42.9141 27.543 42.3047C27.543 41.6797 27.5352 40.9922 27.5195 40.2422V39.3047C27.5195 39.0234 27.5117 38.6953 27.4961 38.3203C27.4961 37.9453 27.4883 37.5547 27.4727 37.1484C27.6133 37.0703 27.7539 37 27.8945 36.9375C28.0508 36.8594 28.1914 36.7969 28.3164 36.75C28.457 36.6875 28.5898 36.6406 28.7148 36.6094C29.043 36.5156 29.293 36.4609 29.4648 36.4453C29.6367 36.4297 29.7383 36.4844 29.7695 36.6094C29.7852 36.7031 29.7773 36.9297 29.7461 37.2891C29.7148 37.6016 29.6758 38.0781 29.6289 38.7188C29.582 39.3438 29.5039 40.2188 29.3945 41.3438C29.5977 40.8438 29.7617 40.4141 29.8867 40.0547C30.0273 39.6953 30.1445 39.4062 30.2383 39.1875C30.332 38.9219 30.418 38.7109 30.4961 38.5547C30.5742 38.3516 30.6758 38.125 30.8008 37.875C30.9258 37.625 31.0508 37.3906 31.1758 37.1719C31.3164 36.9531 31.4414 36.7578 31.5508 36.5859C31.6758 36.4141 31.7695 36.3125 31.832 36.2812C31.8789 36.25 32.0195 36.25 32.2539 36.2812C32.4883 36.3125 32.7383 36.3906 33.0039 36.5156C33.2695 36.625 33.5273 36.7891 33.7773 37.0078C34.0273 37.2109 34.1914 37.4609 34.2695 37.7578C34.3633 38.1016 34.3945 38.5547 34.3633 39.1172C34.3477 39.6797 34.3086 40.2578 34.2461 40.8516C34.1992 41.4453 34.1602 42.0078 34.1289 42.5391C34.0977 43.0703 34.1289 43.4766 34.2227 43.7578C34.2539 43.9141 34.3008 44.0547 34.3633 44.1797C34.3945 44.3047 34.4336 44.4219 34.4805 44.5312C34.543 44.625 34.6055 44.6953 34.668 44.7422C34.293 44.9141 33.9883 45.0391 33.7539 45.1172C33.5195 45.1953 33.3398 45.25 33.2148 45.2812C33.0586 45.3281 32.9492 45.3438 32.8867 45.3281C32.7461 45.2812 32.6211 45.1641 32.5117 44.9766C32.418 44.7891 32.332 44.4922 32.2539 44.0859C32.2227 43.9609 32.207 43.7578 32.207 43.4766C32.2227 43.1797 32.2461 42.8516 32.2773 42.4922C32.3086 42.1172 32.3398 41.7344 32.3711 41.3438C32.418 40.9375 32.4492 40.5625 32.4648 40.2188C32.4961 39.8594 32.5195 39.5547 32.5352 39.3047C32.5508 39.0391 32.5508 38.8594 32.5352 38.7656C32.457 38.4844 32.3477 38.2891 32.207 38.1797C32.0664 38.0547 31.957 38.0391 31.8789 38.1328C31.6758 38.3672 31.457 38.75 31.2227 39.2812C31.0039 39.7969 30.793 40.3672 30.5898 40.9922C30.3867 41.6016 30.2148 42.2109 30.0742 42.8203C29.9336 43.4297 29.8477 43.9453 29.8164 44.3672ZM44.8398 34.5703C44.668 34.5391 44.4336 34.5078 44.1367 34.4766C43.8555 34.4453 43.5664 34.4219 43.2695 34.4062C42.9258 34.3906 42.5586 34.3828 42.168 34.3828C41.7773 34.3516 41.2852 34.3516 40.6914 34.3828C40.1133 34.3984 39.5039 34.4062 38.8633 34.4062C38.8477 34.8125 38.8164 35.2266 38.7695 35.6484C38.7383 36.0703 38.707 36.4844 38.6758 36.8906C38.5977 37.6406 38.5273 38.4062 38.4648 39.1875C38.418 39.9688 38.3945 40.7109 38.3945 41.4141C38.3945 42.1172 38.4336 42.7578 38.5117 43.3359C38.6055 43.8984 38.7695 44.3438 39.0039 44.6719C38.8164 44.8125 38.6133 44.9219 38.3945 45C38.1758 45.0625 37.9805 45.1094 37.8086 45.1406C37.6055 45.1875 37.4023 45.2109 37.1992 45.2109C37.0117 45.2109 36.8555 45.1484 36.7305 45.0234C36.6055 44.8984 36.5352 44.6797 36.5195 44.3672C36.4883 43.8359 36.4805 43.3047 36.4961 42.7734C36.5273 42.2266 36.5586 41.6562 36.5898 41.0625C36.6367 40.4688 36.6836 39.8359 36.7305 39.1641C36.7773 38.4766 36.8242 37.7266 36.8711 36.9141C36.918 36.0703 36.9414 35.25 36.9414 34.4531C36.3477 34.4688 35.8477 34.4766 35.4414 34.4766C35.0352 34.4766 34.8086 34.4688 34.7617 34.4531C34.7148 34.4219 34.6602 34.3516 34.5977 34.2422C34.5352 34.1484 34.457 34.0078 34.3633 33.8203C34.2539 33.6328 34.1211 33.3672 33.9648 33.0234C34.2617 33.0234 34.5898 33.0234 34.9492 33.0234C35.293 33.0234 35.6133 33.0156 35.9102 33C36.2539 32.9844 36.5977 32.9688 36.9414 32.9531C36.9258 32.7031 36.918 32.4375 36.918 32.1562C36.9023 31.9375 36.8945 31.6953 36.8945 31.4297C36.8945 31.1484 36.8867 30.8906 36.8711 30.6562C36.8711 30.5625 36.9805 30.4531 37.1992 30.3281C37.4336 30.1875 37.6836 30.0625 37.9492 29.9531C38.2148 29.8438 38.457 29.7734 38.6758 29.7422C38.9102 29.7109 39.0273 29.7656 39.0273 29.9062C39.0273 30.0469 39.0195 30.3906 39.0039 30.9375C39.0039 31.4688 38.9883 32.1172 38.957 32.8828C39.1133 32.8828 39.2305 32.875 39.3086 32.8594C40.1367 32.8281 40.8008 32.7969 41.3008 32.7656C41.8164 32.7188 42.2383 32.7109 42.5664 32.7422C42.8945 32.7734 43.1836 32.8516 43.4336 32.9766C43.6836 33.1016 43.9648 33.3047 44.2773 33.5859C44.3867 33.6797 44.4805 33.7812 44.5586 33.8906C44.6367 33.9844 44.6992 34.0938 44.7461 34.2188C44.8086 34.3281 44.8398 34.4453 44.8398 34.5703ZM44.043 45.2578C42.9492 45.2578 42.1055 44.8906 41.5117 44.1562C40.918 43.4219 40.6211 42.4609 40.6211 41.2734C40.6211 40.4453 40.7383 39.6719 40.9727 38.9531C41.2227 38.2188 41.5508 37.5859 41.957 37.0547C42.3633 36.5234 42.832 36.1094 43.3633 35.8125C43.9102 35.5 44.4805 35.3438 45.0742 35.3438C45.6523 35.3438 46.1445 35.5547 46.5508 35.9766C46.957 36.3828 47.1602 36.9688 47.1602 37.7344C47.1602 38.2344 47.0508 38.7344 46.832 39.2344C46.6133 39.7188 46.3242 40.1562 45.9648 40.5469C45.6211 40.9219 45.2383 41.2266 44.8164 41.4609C44.3945 41.6953 43.9883 41.8125 43.5977 41.8125C43.3477 41.8125 43.1367 41.7812 42.9648 41.7188C42.793 41.6562 42.6367 41.5625 42.4961 41.4375C42.543 42.3281 42.7383 42.9531 43.082 43.3125C43.4258 43.6562 43.8711 43.8281 44.418 43.8281C44.793 43.8281 45.1211 43.75 45.4023 43.5938C45.6992 43.4375 45.9492 43.2578 46.1523 43.0547C46.3555 42.8516 46.5195 42.6484 46.6445 42.4453C46.7695 42.2266 46.8555 42.0625 46.9023 41.9531C46.9492 41.8594 47.0273 41.8125 47.1367 41.8125C47.2617 41.8125 47.3242 41.9062 47.3242 42.0938C47.3242 42.2656 47.2617 42.5312 47.1367 42.8906C47.0273 43.2344 46.8398 43.5859 46.5742 43.9453C46.3086 44.2891 45.9648 44.5938 45.543 44.8594C45.1367 45.125 44.6367 45.2578 44.043 45.2578ZM45.1211 36.3516C45.0273 36.3516 44.8477 36.4531 44.582 36.6562C44.332 36.8438 44.0586 37.125 43.7617 37.5C43.4805 37.875 43.2148 38.3281 42.9648 38.8594C42.7305 39.375 42.582 39.9609 42.5195 40.6172C43.457 40.3984 44.1992 40.0547 44.7461 39.5859C45.293 39.1172 45.5664 38.4297 45.5664 37.5234C45.5664 37.0703 45.5117 36.7656 45.4023 36.6094C45.293 36.4375 45.1992 36.3516 45.1211 36.3516ZM55.0352 37.8047C55.0352 38.0234 54.9727 38.25 54.8477 38.4844C54.7383 38.7031 54.5977 38.9141 54.4258 39.1172C54.2539 39.3203 54.0586 39.5 53.8398 39.6562C53.6367 39.7969 53.4414 39.8828 53.2539 39.9141C53.3789 39.4297 53.418 39.0547 53.3711 38.7891C53.3242 38.5234 53.2461 38.3281 53.1367 38.2031C53.0117 38.0625 52.8555 37.9844 52.668 37.9688C52.3867 37.9688 52.1133 38.1328 51.8477 38.4609C51.5977 38.7734 51.3789 39.1641 51.1914 39.6328C51.0039 40.0859 50.8555 40.5781 50.7461 41.1094C50.6367 41.625 50.582 42.0938 50.582 42.5156C50.5664 42.8125 50.5742 43.1016 50.6055 43.3828C50.6211 43.6172 50.6445 43.8594 50.6758 44.1094C50.7227 44.3594 50.7852 44.5547 50.8633 44.6953C50.7695 44.7734 50.6133 44.8672 50.3945 44.9766C50.1914 45.0859 49.9727 45.1562 49.7383 45.1875C49.5195 45.2188 49.3164 45.1797 49.1289 45.0703C48.957 44.9609 48.8633 44.7266 48.8477 44.3672C48.8164 44.0234 48.793 43.6406 48.7773 43.2188C48.7773 42.7812 48.7773 42.3516 48.7773 41.9297C48.793 41.4922 48.8086 41.0625 48.8242 40.6406C48.8398 40.2188 48.8633 39.8281 48.8945 39.4688C48.9258 38.7812 48.9414 38.25 48.9414 37.875C48.9414 37.5 48.9336 37.1406 48.918 36.7969C48.918 36.7344 49.0195 36.6484 49.2227 36.5391C49.4414 36.4141 49.6758 36.3047 49.9258 36.2109C50.1914 36.1172 50.4336 36.0625 50.6523 36.0469C50.8711 36.0312 50.9805 36.0781 50.9805 36.1875C50.9805 36.3594 50.957 36.7031 50.9102 37.2188C50.8789 37.7188 50.832 38.2422 50.7695 38.7891C50.8789 38.4922 51.0195 38.1719 51.1914 37.8281C51.3789 37.4844 51.5898 37.1641 51.8242 36.8672C52.0586 36.5703 52.3242 36.3281 52.6211 36.1406C52.918 35.9375 53.2461 35.8359 53.6055 35.8359C53.8867 35.8359 54.1133 35.9219 54.2852 36.0938C54.4727 36.2656 54.6211 36.4609 54.7305 36.6797C54.8398 36.8984 54.918 37.1172 54.9648 37.3359C55.0117 37.5547 55.0352 37.7109 55.0352 37.8047ZM62.5586 43.8047C62.5898 43.9141 62.6367 44.0156 62.6992 44.1094C62.7461 44.1875 62.8086 44.2656 62.8867 44.3438C62.9805 44.4062 63.0898 44.4453 63.2148 44.4609C63.1055 44.6797 62.9961 44.8281 62.8867 44.9062C62.8242 44.9531 62.7695 44.9844 62.7227 45C62.582 45.0469 62.3711 45.0703 62.0898 45.0703C61.8086 45.0703 61.5352 44.9844 61.2695 44.8125C61.1758 44.7344 61.0898 44.6172 61.0117 44.4609C60.9336 44.3359 60.8633 44.1641 60.8008 43.9453C60.7539 43.7109 60.7148 43.4141 60.6836 43.0547C60.4648 43.5234 60.2148 43.8984 59.9336 44.1797C59.668 44.4453 59.4023 44.6406 59.1367 44.7656C58.8398 44.9375 58.5352 45.0391 58.2227 45.0703C57.832 45.1016 57.457 45.0391 57.0977 44.8828C56.7539 44.7109 56.457 44.4609 56.207 44.1328C55.9727 43.7891 55.793 43.375 55.668 42.8906C55.543 42.4062 55.5039 41.8594 55.5508 41.25C55.5977 40.6094 55.7227 40.0391 55.9258 39.5391C56.1289 39.0391 56.3711 38.5938 56.6523 38.2031C56.9336 37.8125 57.2305 37.4844 57.543 37.2188C57.8555 36.9375 58.1523 36.7109 58.4336 36.5391C58.7305 36.3516 58.9805 36.2188 59.1836 36.1406C59.4023 36.0469 59.543 35.9922 59.6055 35.9766C59.7773 35.9297 59.9258 35.9141 60.0508 35.9297C60.1758 35.9453 60.2852 36.0156 60.3789 36.1406C60.4102 36.1875 60.4492 36.2422 60.4961 36.3047C60.5273 36.3672 60.5664 36.4531 60.6133 36.5625C60.6602 36.6562 60.6992 36.7656 60.7305 36.8906C60.3555 37.0625 60.0039 37.2578 59.6758 37.4766C59.3477 37.6797 59.043 37.9297 58.7617 38.2266C58.4961 38.5234 58.2617 38.8828 58.0586 39.3047C57.8555 39.7266 57.6992 40.2422 57.5898 40.8516C57.4336 41.6172 57.4727 42.2344 57.707 42.7031C57.957 43.1719 58.293 43.3672 58.7148 43.2891C58.9648 43.2109 59.207 43.0625 59.4414 42.8438C59.6445 42.6562 59.8555 42.375 60.0742 42C60.3086 41.625 60.5273 41.1094 60.7305 40.4531C60.8086 39.5156 60.8711 38.7812 60.918 38.25C60.9805 37.7031 61.0352 37.2891 61.082 37.0078C61.1445 36.6797 61.1914 36.4609 61.2227 36.3516C61.2695 36.2734 61.3633 36.2031 61.5039 36.1406C61.6445 36.0625 61.8008 36 61.9727 35.9531C62.1445 35.9062 62.3008 35.8828 62.4414 35.8828C62.582 35.8672 62.6758 35.8672 62.7227 35.8828C62.7539 35.8984 62.7695 36.0938 62.7695 36.4688C62.7695 36.8281 62.7539 37.2891 62.7227 37.8516C62.707 38.3984 62.6836 39 62.6523 39.6562C62.6211 40.2969 62.5898 40.9062 62.5586 41.4844C62.543 42.0625 62.5273 42.5703 62.5117 43.0078C62.5117 43.4297 62.5273 43.6953 62.5586 43.8047ZM70.9961 42.0469C70.9961 42.2188 70.9336 42.4844 70.8086 42.8438C70.6992 43.1875 70.5117 43.5391 70.2461 43.8984C69.9805 44.2422 69.6367 44.5469 69.2148 44.8125C68.8086 45.0781 68.3086 45.2109 67.7148 45.2109C66.8711 45.2109 66.1602 44.9844 65.582 44.5312C65.0195 44.0625 64.6211 43.3984 64.3867 42.5391C64.1992 41.8203 64.1445 41.0547 64.2227 40.2422C64.3164 39.4141 64.543 38.6484 64.9023 37.9453C65.2617 37.2422 65.7617 36.6484 66.4023 36.1641C67.043 35.6641 67.8242 35.3906 68.7461 35.3438C69.2148 35.3281 69.6055 35.4141 69.918 35.6016C70.2305 35.7891 70.4727 36.0312 70.6445 36.3281C70.8164 36.625 70.918 36.9531 70.9492 37.3125C70.9805 37.6562 70.9414 37.9844 70.832 38.2969C70.7383 38.6094 70.582 38.875 70.3633 39.0938C70.1602 39.2969 69.8945 39.4062 69.5664 39.4219C69.2383 39.4531 68.9648 39.4141 68.7461 39.3047C68.543 39.1797 68.3789 39.0312 68.2539 38.8594C68.1445 38.6875 68.0664 38.5078 68.0195 38.3203C67.9883 38.1328 67.9883 37.9688 68.0195 37.8281C68.0664 37.625 68.1445 37.4375 68.2539 37.2656C68.3477 37.1094 68.4805 36.9531 68.6523 36.7969C68.8398 36.6406 69.082 36.5156 69.3789 36.4219C69.332 36.3906 69.2852 36.375 69.2383 36.375C69.1914 36.375 69.1445 36.3672 69.0977 36.3516C69.0352 36.3516 68.9883 36.3438 68.957 36.3281C68.707 36.3281 68.418 36.4141 68.0898 36.5859C67.7773 36.7578 67.4727 37.0312 67.1758 37.4062C66.8945 37.7812 66.6523 38.2656 66.4492 38.8594C66.2617 39.4375 66.168 40.1406 66.168 40.9688C66.168 41.3281 66.207 41.6875 66.2852 42.0469C66.3633 42.3906 66.4805 42.7031 66.6367 42.9844C66.8086 43.25 67.0117 43.4688 67.2461 43.6406C67.4961 43.7969 67.7852 43.875 68.1133 43.875C68.4883 43.875 68.8164 43.7969 69.0977 43.6406C69.3945 43.4688 69.6445 43.2734 69.8477 43.0547C70.0508 42.8359 70.207 42.6172 70.3164 42.3984C70.4414 42.1797 70.5273 42.0156 70.5742 41.9062C70.6211 41.8125 70.6992 41.7656 70.8086 41.7656C70.9336 41.7656 70.9961 41.8594 70.9961 42.0469ZM81.168 34.5703C80.9961 34.5391 80.7617 34.5078 80.4648 34.4766C80.1836 34.4453 79.8945 34.4219 79.5977 34.4062C79.2539 34.3906 78.8867 34.3828 78.4961 34.3828C78.1055 34.3516 77.6133 34.3516 77.0195 34.3828C76.4414 34.3984 75.832 34.4062 75.1914 34.4062C75.1758 34.8125 75.1445 35.2266 75.0977 35.6484C75.0664 36.0703 75.0352 36.4844 75.0039 36.8906C74.9258 37.6406 74.8555 38.4062 74.793 39.1875C74.7461 39.9688 74.7227 40.7109 74.7227 41.4141C74.7227 42.1172 74.7617 42.7578 74.8398 43.3359C74.9336 43.8984 75.0977 44.3438 75.332 44.6719C75.1445 44.8125 74.9414 44.9219 74.7227 45C74.5039 45.0625 74.3086 45.1094 74.1367 45.1406C73.9336 45.1875 73.7305 45.2109 73.5273 45.2109C73.3398 45.2109 73.1836 45.1484 73.0586 45.0234C72.9336 44.8984 72.8633 44.6797 72.8477 44.3672C72.8164 43.8359 72.8086 43.3047 72.8242 42.7734C72.8555 42.2266 72.8867 41.6562 72.918 41.0625C72.9648 40.4688 73.0117 39.8359 73.0586 39.1641C73.1055 38.4766 73.1523 37.7266 73.1992 36.9141C73.2461 36.0703 73.2695 35.25 73.2695 34.4531C72.6758 34.4688 72.1758 34.4766 71.7695 34.4766C71.3633 34.4766 71.1367 34.4688 71.0898 34.4531C71.043 34.4219 70.9883 34.3516 70.9258 34.2422C70.8633 34.1484 70.7852 34.0078 70.6914 33.8203C70.582 33.6328 70.4492 33.3672 70.293 33.0234C70.5898 33.0234 70.918 33.0234 71.2773 33.0234C71.6211 33.0234 71.9414 33.0156 72.2383 33C72.582 32.9844 72.9258 32.9688 73.2695 32.9531C73.2539 32.7031 73.2461 32.4375 73.2461 32.1562C73.2305 31.9375 73.2227 31.6953 73.2227 31.4297C73.2227 31.1484 73.2148 30.8906 73.1992 30.6562C73.1992 30.5625 73.3086 30.4531 73.5273 30.3281C73.7617 30.1875 74.0117 30.0625 74.2773 29.9531C74.543 29.8438 74.7852 29.7734 75.0039 29.7422C75.2383 29.7109 75.3555 29.7656 75.3555 29.9062C75.3555 30.0469 75.3477 30.3906 75.332 30.9375C75.332 31.4688 75.3164 32.1172 75.2852 32.8828C75.4414 32.8828 75.5586 32.875 75.6367 32.8594C76.4648 32.8281 77.1289 32.7969 77.6289 32.7656C78.1445 32.7188 78.5664 32.7109 78.8945 32.7422C79.2227 32.7734 79.5117 32.8516 79.7617 32.9766C80.0117 33.1016 80.293 33.3047 80.6055 33.5859C80.7148 33.6797 80.8086 33.7812 80.8867 33.8906C80.9648 33.9844 81.0273 34.0938 81.0742 34.2188C81.1367 34.3281 81.168 34.4453 81.168 34.5703ZM77.3711 36.7031C77.3711 36.6094 77.4961 36.5078 77.7461 36.3984C77.9961 36.2891 78.2695 36.2031 78.5664 36.1406C78.8789 36.0625 79.1602 36.0234 79.4102 36.0234C79.6758 36.0078 79.8086 36.0625 79.8086 36.1875C79.8086 36.4219 79.793 36.7578 79.7617 37.1953C79.7305 37.6172 79.6914 38.0703 79.6445 38.5547C79.5977 39.0234 79.5508 39.5 79.5039 39.9844C79.457 40.4531 79.4258 40.8516 79.4102 41.1797C79.3789 41.5234 79.3477 41.8984 79.3164 42.3047C79.2852 42.6484 79.2617 43.0312 79.2461 43.4531C79.2305 43.875 79.2305 44.3047 79.2461 44.7422C79.2461 44.8203 79.168 44.8984 79.0117 44.9766C78.8555 45.0547 78.6836 45.1094 78.4961 45.1406C78.3086 45.1875 78.1289 45.2109 77.957 45.2109C77.7852 45.2109 77.6914 45.1797 77.6758 45.1172C77.6445 45.0547 77.6133 44.9453 77.582 44.7891C77.5508 44.6328 77.5195 44.4141 77.4883 44.1328C77.457 43.8359 77.4336 43.4609 77.418 43.0078C77.4023 42.5391 77.4102 41.9766 77.4414 41.3203C77.5039 40.0234 77.5117 39.0234 77.4648 38.3203C77.418 37.6016 77.3867 37.0625 77.3711 36.7031ZM79.0117 32.0391C79.3242 32.0391 79.6211 32.1328 79.9023 32.3203C80.1836 32.5078 80.3242 32.7578 80.3242 33.0703C80.3242 33.3047 80.2617 33.5312 80.1367 33.75C80.0273 33.9688 79.8867 34.1641 79.7148 34.3359C79.543 34.5078 79.3477 34.6484 79.1289 34.7578C78.9102 34.8516 78.707 34.8984 78.5195 34.8984C78.2695 34.8984 78.0664 34.8594 77.9102 34.7812C77.7539 34.6875 77.6289 34.5859 77.5352 34.4766C77.457 34.3516 77.4023 34.2188 77.3711 34.0781C77.3398 33.9375 77.3242 33.8047 77.3242 33.6797C77.3242 33.5234 77.3477 33.3516 77.3945 33.1641C77.4414 32.9609 77.5273 32.7812 77.6523 32.625C77.7773 32.4531 77.9492 32.3125 78.168 32.2031C78.3867 32.0938 78.668 32.0391 79.0117 32.0391ZM78.4258 34.2188C78.5195 34.2188 78.6211 34.1875 78.7305 34.125C78.8555 34.0469 78.9648 33.9609 79.0586 33.8672C79.168 33.7734 79.2539 33.6719 79.3164 33.5625C79.3945 33.4531 79.4336 33.3594 79.4336 33.2812C79.4336 33.1562 79.3711 33.0938 79.2461 33.0938C79.168 33.0938 79.0664 33.125 78.9414 33.1875C78.832 33.25 78.7227 33.3281 78.6133 33.4219C78.5039 33.5 78.4102 33.5938 78.332 33.7031C78.2695 33.7969 78.2383 33.8906 78.2383 33.9844C78.2383 34.1406 78.3008 34.2188 78.4258 34.2188ZM84.4492 43.7812C84.5898 43.7812 84.7773 43.5312 85.0117 43.0312C85.2461 42.5312 85.4648 41.9297 85.668 41.2266C85.8867 40.5234 86.0586 39.7969 86.1836 39.0469C86.3242 38.2969 86.3633 37.6641 86.3008 37.1484C86.2695 36.9766 86.2227 36.8359 86.1602 36.7266C86.1133 36.6172 86.0508 36.5 85.9727 36.375C86.0664 36.25 86.1836 36.1562 86.3242 36.0938C86.4648 36.0156 86.5977 35.9609 86.7227 35.9297C86.8789 35.8828 87.0352 35.8516 87.1914 35.8359C87.5664 35.8203 87.8398 35.8828 88.0117 36.0234C88.1055 36.1172 88.1523 36.3359 88.1523 36.6797C88.1523 37.0234 88.1133 37.4297 88.0352 37.8984C87.9727 38.3516 87.8789 38.8359 87.7539 39.3516C87.6445 39.8516 87.5195 40.3125 87.3789 40.7344C87.2383 41.1406 87.0664 41.5859 86.8633 42.0703C86.6602 42.5391 86.4492 42.9922 86.2305 43.4297C86.0117 43.8516 85.793 44.2188 85.5742 44.5312C85.3555 44.8281 85.168 45.0078 85.0117 45.0703C84.6836 45.1953 84.3555 45.2578 84.0273 45.2578C83.7148 45.2578 83.5195 45.2188 83.4414 45.1406C83.4102 45.1094 83.3398 45 83.2305 44.8125C83.1211 44.625 82.9961 44.3828 82.8555 44.0859C82.7305 43.7891 82.5898 43.4453 82.4336 43.0547C82.293 42.6484 82.168 42.2188 82.0586 41.7656C81.9492 41.3125 81.8711 40.8203 81.8242 40.2891C81.7773 39.7578 81.7227 39.2422 81.6602 38.7422C81.6133 38.2266 81.543 37.75 81.4492 37.3125C81.3555 36.875 81.2148 36.5156 81.0273 36.2344L82.1289 35.7891C82.2227 35.7422 82.332 35.7031 82.457 35.6719C82.582 35.625 82.707 35.6094 82.832 35.625C82.957 35.6406 83.0664 35.7031 83.1602 35.8125C83.2695 35.9062 83.3398 36.0781 83.3711 36.3281C83.4023 36.6094 83.4258 36.9453 83.4414 37.3359C83.4727 37.7266 83.4961 38.1328 83.5117 38.5547C83.543 38.9766 83.5742 39.3984 83.6055 39.8203C83.6367 40.2266 83.668 40.5938 83.6992 40.9219C83.7305 41.2656 83.7695 41.6094 83.8164 41.9531C83.8789 42.2969 83.9414 42.6016 84.0039 42.8672C84.082 43.1328 84.1523 43.3516 84.2148 43.5234C84.293 43.6953 84.3711 43.7812 84.4492 43.7812ZM92.5352 45.2578C91.4414 45.2578 90.5977 44.8906 90.0039 44.1562C89.4102 43.4219 89.1133 42.4609 89.1133 41.2734C89.1133 40.4453 89.2305 39.6719 89.4648 38.9531C89.7148 38.2188 90.043 37.5859 90.4492 37.0547C90.8555 36.5234 91.3242 36.1094 91.8555 35.8125C92.4023 35.5 92.9727 35.3438 93.5664 35.3438C94.1445 35.3438 94.6367 35.5547 95.043 35.9766C95.4492 36.3828 95.6523 36.9688 95.6523 37.7344C95.6523 38.2344 95.543 38.7344 95.3242 39.2344C95.1055 39.7188 94.8164 40.1562 94.457 40.5469C94.1133 40.9219 93.7305 41.2266 93.3086 41.4609C92.8867 41.6953 92.4805 41.8125 92.0898 41.8125C91.8398 41.8125 91.6289 41.7812 91.457 41.7188C91.2852 41.6562 91.1289 41.5625 90.9883 41.4375C91.0352 42.3281 91.2305 42.9531 91.5742 43.3125C91.918 43.6562 92.3633 43.8281 92.9102 43.8281C93.2852 43.8281 93.6133 43.75 93.8945 43.5938C94.1914 43.4375 94.4414 43.2578 94.6445 43.0547C94.8477 42.8516 95.0117 42.6484 95.1367 42.4453C95.2617 42.2266 95.3477 42.0625 95.3945 41.9531C95.4414 41.8594 95.5195 41.8125 95.6289 41.8125C95.7539 41.8125 95.8164 41.9062 95.8164 42.0938C95.8164 42.2656 95.7539 42.5312 95.6289 42.8906C95.5195 43.2344 95.332 43.5859 95.0664 43.9453C94.8008 44.2891 94.457 44.5938 94.0352 44.8594C93.6289 45.125 93.1289 45.2578 92.5352 45.2578ZM93.6133 36.3516C93.5195 36.3516 93.3398 36.4531 93.0742 36.6562C92.8242 36.8438 92.5508 37.125 92.2539 37.5C91.9727 37.875 91.707 38.3281 91.457 38.8594C91.2227 39.375 91.0742 39.9609 91.0117 40.6172C91.9492 40.3984 92.6914 40.0547 93.2383 39.5859C93.7852 39.1172 94.0586 38.4297 94.0586 37.5234C94.0586 37.0703 94.0039 36.7656 93.8945 36.6094C93.7852 36.4375 93.6914 36.3516 93.6133 36.3516ZM102.895 34.5938C102.77 34.5781 102.645 34.5 102.52 34.3594C102.41 34.2188 102.309 34.0625 102.215 33.8906C102.105 33.7031 102.004 33.4844 101.91 33.2344C101.801 32.9219 101.73 32.6562 101.699 32.4375C101.684 32.2031 101.699 32 101.746 31.8281C101.793 31.6562 101.871 31.5 101.98 31.3594C102.09 31.2188 102.223 31.0781 102.379 30.9375C102.566 30.7656 102.91 30.5469 103.41 30.2812C103.91 30.0156 104.488 29.7891 105.145 29.6016V29.3672C105.145 29.2891 105.145 29.2188 105.145 29.1562C105.16 29.0938 105.168 29.0312 105.168 28.9688L107.02 28.3594C107.145 28.3125 107.277 28.3125 107.418 28.3594C107.559 28.3906 107.613 28.5312 107.582 28.7812C107.582 28.8594 107.574 28.9375 107.559 29.0156C107.559 29.0938 107.551 29.1797 107.535 29.2734C108.535 29.3047 109.441 29.5078 110.254 29.8828C111.082 30.2578 111.785 30.7734 112.363 31.4297C112.957 32.0703 113.418 32.8359 113.746 33.7266C114.074 34.6172 114.238 35.5859 114.238 36.6328C114.238 38.1797 114.02 39.5234 113.582 40.6641C113.145 41.8047 112.574 42.7734 111.871 43.5703C111.168 44.3672 110.371 45.0078 109.48 45.4922C108.59 45.9766 107.699 46.3281 106.809 46.5469C106.699 46.6562 106.551 46.7656 106.363 46.875C106.176 46.9844 105.973 47.0781 105.754 47.1562C105.535 47.2344 105.309 47.2891 105.074 47.3203C104.855 47.3672 104.66 47.375 104.488 47.3438C104.488 47.3125 104.488 47.2656 104.488 47.2031C104.504 47.1406 104.512 47.0859 104.512 47.0391C104.512 46.9766 104.52 46.9141 104.535 46.8516C103.926 46.8828 103.395 46.8516 102.941 46.7578C102.832 46.6953 102.73 46.5781 102.637 46.4062C102.59 46.3438 102.551 46.2656 102.52 46.1719C102.473 46.0938 102.441 46.0156 102.426 45.9375C102.379 45.7969 102.379 45.625 102.426 45.4219C103.191 45.5156 103.926 45.5156 104.629 45.4219C104.676 44.75 104.723 43.9375 104.77 42.9844C104.816 42.0156 104.863 40.9688 104.91 39.8438C104.941 39.1875 104.965 38.4922 104.98 37.7578C105.012 37.0078 105.035 36.2656 105.051 35.5312C105.066 34.7812 105.082 34.0547 105.098 33.3516C105.113 32.6484 105.121 32 105.121 31.4062C104.371 31.7031 103.785 32.1328 103.363 32.6953C102.957 33.2422 102.801 33.875 102.895 34.5938ZM107.09 34.7344C107.027 35.7812 106.98 36.8047 106.949 37.8047C106.918 38.8047 106.895 39.75 106.879 40.6406C106.879 41.5312 106.887 42.3438 106.902 43.0781C106.918 43.7969 106.934 44.4062 106.949 44.9062C108.449 44.3438 109.645 43.3984 110.535 42.0703C111.441 40.7422 111.895 39.0781 111.895 37.0781C111.895 36.2031 111.785 35.4062 111.566 34.6875C111.363 33.9531 111.066 33.3281 110.676 32.8125C110.285 32.2812 109.816 31.8672 109.27 31.5703C108.723 31.2734 108.121 31.1094 107.465 31.0781H107.371C107.324 31.5469 107.277 32.0859 107.23 32.6953C107.184 33.2891 107.137 33.9688 107.09 34.7344ZM122.348 43.8047C122.379 43.9141 122.426 44.0156 122.488 44.1094C122.535 44.1875 122.598 44.2656 122.676 44.3438C122.77 44.4062 122.879 44.4453 123.004 44.4609C122.895 44.6797 122.785 44.8281 122.676 44.9062C122.613 44.9531 122.559 44.9844 122.512 45C122.371 45.0469 122.16 45.0703 121.879 45.0703C121.598 45.0703 121.324 44.9844 121.059 44.8125C120.965 44.7344 120.879 44.6172 120.801 44.4609C120.723 44.3359 120.652 44.1641 120.59 43.9453C120.543 43.7109 120.504 43.4141 120.473 43.0547C120.254 43.5234 120.004 43.8984 119.723 44.1797C119.457 44.4453 119.191 44.6406 118.926 44.7656C118.629 44.9375 118.324 45.0391 118.012 45.0703C117.621 45.1016 117.246 45.0391 116.887 44.8828C116.543 44.7109 116.246 44.4609 115.996 44.1328C115.762 43.7891 115.582 43.375 115.457 42.8906C115.332 42.4062 115.293 41.8594 115.34 41.25C115.387 40.6094 115.512 40.0391 115.715 39.5391C115.918 39.0391 116.16 38.5938 116.441 38.2031C116.723 37.8125 117.02 37.4844 117.332 37.2188C117.645 36.9375 117.941 36.7109 118.223 36.5391C118.52 36.3516 118.77 36.2188 118.973 36.1406C119.191 36.0469 119.332 35.9922 119.395 35.9766C119.566 35.9297 119.715 35.9141 119.84 35.9297C119.965 35.9453 120.074 36.0156 120.168 36.1406C120.199 36.1875 120.238 36.2422 120.285 36.3047C120.316 36.3672 120.355 36.4531 120.402 36.5625C120.449 36.6562 120.488 36.7656 120.52 36.8906C120.145 37.0625 119.793 37.2578 119.465 37.4766C119.137 37.6797 118.832 37.9297 118.551 38.2266C118.285 38.5234 118.051 38.8828 117.848 39.3047C117.645 39.7266 117.488 40.2422 117.379 40.8516C117.223 41.6172 117.262 42.2344 117.496 42.7031C117.746 43.1719 118.082 43.3672 118.504 43.2891C118.754 43.2109 118.996 43.0625 119.23 42.8438C119.434 42.6562 119.645 42.375 119.863 42C120.098 41.625 120.316 41.1094 120.52 40.4531C120.598 39.5156 120.66 38.7812 120.707 38.25C120.77 37.7031 120.824 37.2891 120.871 37.0078C120.934 36.6797 120.98 36.4609 121.012 36.3516C121.059 36.2734 121.152 36.2031 121.293 36.1406C121.434 36.0625 121.59 36 121.762 35.9531C121.934 35.9062 122.09 35.8828 122.23 35.8828C122.371 35.8672 122.465 35.8672 122.512 35.8828C122.543 35.8984 122.559 36.0938 122.559 36.4688C122.559 36.8281 122.543 37.2891 122.512 37.8516C122.496 38.3984 122.473 39 122.441 39.6562C122.41 40.2969 122.379 40.9062 122.348 41.4844C122.332 42.0625 122.316 42.5703 122.301 43.0078C122.301 43.4297 122.316 43.6953 122.348 43.8047ZM128.066 40.5469C128.41 40.6719 128.738 40.7891 129.051 40.8984C129.363 41.0078 129.637 41.1406 129.871 41.2969C130.105 41.4531 130.293 41.6406 130.434 41.8594C130.574 42.0625 130.645 42.3203 130.645 42.6328C130.645 43.0078 130.559 43.3594 130.387 43.6875C130.23 44.0156 129.996 44.3047 129.684 44.5547C129.371 44.8047 128.988 45 128.535 45.1406C128.098 45.2969 127.605 45.375 127.059 45.375C126.449 45.375 125.957 45.3125 125.582 45.1875C125.207 45.0781 124.918 44.9453 124.715 44.7891C124.512 44.6328 124.379 44.4766 124.316 44.3203C124.254 44.1641 124.223 44.0391 124.223 43.9453C124.223 43.7578 124.262 43.5547 124.34 43.3359C124.418 43.1016 124.566 42.8516 124.785 42.5859C124.879 42.4766 124.98 42.375 125.09 42.2812C125.309 42.0938 125.527 41.9766 125.746 41.9297C125.715 42.2891 125.754 42.5859 125.863 42.8203C125.988 43.0391 126.145 43.2109 126.332 43.3359C126.535 43.4609 126.754 43.5469 126.988 43.5938C127.238 43.6406 127.473 43.6641 127.691 43.6641C127.91 43.6641 128.129 43.6328 128.348 43.5703C128.582 43.5078 128.793 43.4297 128.98 43.3359C129.168 43.2266 129.316 43.1094 129.426 42.9844C129.551 42.8438 129.613 42.6953 129.613 42.5391C129.613 42.3672 129.543 42.2266 129.402 42.1172C129.262 42.0078 129.082 41.9219 128.863 41.8594C128.66 41.7812 128.434 41.7266 128.184 41.6953C127.949 41.6484 127.723 41.6016 127.504 41.5547C127.285 41.5078 126.988 41.4453 126.613 41.3672C126.254 41.2734 125.895 41.1328 125.535 40.9453C125.191 40.7578 124.887 40.5078 124.621 40.1953C124.371 39.8828 124.246 39.4688 124.246 38.9531C124.246 38.3594 124.395 37.8438 124.691 37.4062C125.004 36.9531 125.379 36.5781 125.816 36.2812C126.27 35.9688 126.746 35.7344 127.246 35.5781C127.746 35.4219 128.191 35.3438 128.582 35.3438C128.785 35.3438 129.004 35.375 129.238 35.4375C129.473 35.4844 129.691 35.5781 129.895 35.7188C130.098 35.8438 130.262 36.0156 130.387 36.2344C130.527 36.4531 130.598 36.7344 130.598 37.0781C130.598 37.4219 130.566 37.7031 130.504 37.9219C130.457 38.125 130.379 38.2891 130.27 38.4141C130.176 38.5234 130.059 38.5938 129.918 38.625C129.777 38.6562 129.613 38.6719 129.426 38.6719C129.301 38.6719 129.184 38.6562 129.074 38.625C128.98 38.5938 128.879 38.5625 128.77 38.5312C128.66 38.5 128.559 38.4453 128.465 38.3672C128.621 38.1797 128.738 38 128.816 37.8281C128.91 37.6562 128.957 37.4453 128.957 37.1953C128.957 36.9766 128.895 36.7812 128.77 36.6094C128.66 36.4375 128.473 36.3516 128.207 36.3516C127.926 36.3516 127.652 36.4062 127.387 36.5156C127.137 36.625 126.91 36.7734 126.707 36.9609C126.52 37.1484 126.363 37.3672 126.238 37.6172C126.129 37.8516 126.074 38.1094 126.074 38.3906C126.074 38.8125 126.23 39.2109 126.543 39.5859C126.871 39.9609 127.379 40.2812 128.066 40.5469ZM133.973 41.3203C134.16 40.7578 134.316 40.2812 134.441 39.8906C134.582 39.5 134.699 39.1875 134.793 38.9531C134.902 38.6719 134.996 38.4453 135.074 38.2734C135.168 38.0234 135.27 37.7734 135.379 37.5234C135.504 37.2734 135.629 37.0469 135.754 36.8438C135.879 36.625 135.996 36.4453 136.105 36.3047C136.215 36.1641 136.309 36.0703 136.387 36.0234C136.449 35.9922 136.59 35.9922 136.809 36.0234C137.043 36.0547 137.293 36.1328 137.559 36.2578C137.84 36.3672 138.098 36.5234 138.332 36.7266C138.582 36.9297 138.754 37.1797 138.848 37.4766C138.941 37.8359 138.973 38.3047 138.941 38.8828C138.91 39.4609 138.863 40.0547 138.801 40.6641C138.754 41.2734 138.715 41.8516 138.684 42.3984C138.668 42.9453 138.707 43.3594 138.801 43.6406C138.863 43.7969 138.926 43.9531 138.988 44.1094C139.051 44.2344 139.121 44.3672 139.199 44.5078C139.293 44.6328 139.395 44.7422 139.504 44.8359C139.051 45.0078 138.684 45.1328 138.402 45.2109C138.137 45.3047 137.934 45.3672 137.793 45.3984C137.621 45.4453 137.504 45.4531 137.441 45.4219C137.316 45.375 137.199 45.2578 137.09 45.0703C136.98 44.8828 136.887 44.5859 136.809 44.1797C136.777 44.0547 136.77 43.8359 136.785 43.5234C136.801 43.2109 136.824 42.8594 136.855 42.4688C136.887 42.0781 136.918 41.6719 136.949 41.25C136.98 40.8125 137.012 40.4062 137.043 40.0312C137.074 39.6562 137.09 39.3281 137.09 39.0469C137.105 38.7656 137.105 38.5781 137.09 38.4844C137.012 38.2188 136.902 38.0312 136.762 37.9219C136.621 37.7969 136.512 37.7812 136.434 37.875C136.246 38.1094 136.035 38.5156 135.801 39.0938C135.582 39.6562 135.371 40.2734 135.168 40.9453C134.965 41.6016 134.785 42.2578 134.629 42.9141C134.488 43.5703 134.402 44.1094 134.371 44.5312C134.371 44.625 134.293 44.7266 134.137 44.8359C133.996 44.9297 133.832 45.0156 133.645 45.0938C133.473 45.1719 133.301 45.2188 133.129 45.2344C132.957 45.2656 132.84 45.2422 132.777 45.1641C132.73 45.1172 132.629 45.0078 132.473 44.8359C132.332 44.6641 132.254 44.375 132.238 43.9688C132.207 43.5781 132.207 43.0469 132.238 42.375C132.27 41.6875 132.277 40.9688 132.262 40.2188V38.4844C132.262 37.7812 132.254 36.8125 132.238 35.5781C132.238 34.3281 132.23 32.6797 132.215 30.6328C132.387 30.5391 132.543 30.4609 132.684 30.3984C132.824 30.3203 132.957 30.2578 133.082 30.2109C133.223 30.1484 133.355 30.1016 133.48 30.0703C134.152 29.8984 134.504 29.8984 134.535 30.0703C134.551 30.2266 134.535 30.7266 134.488 31.5703C134.473 31.9297 134.449 32.3828 134.418 32.9297C134.387 33.4766 134.348 34.1406 134.301 34.9219C134.27 35.7031 134.223 36.625 134.16 37.6875C134.113 38.7344 134.051 39.9453 133.973 41.3203ZM140.934 30.3984C141.059 30.2266 141.191 30.0781 141.332 29.9531C141.488 29.8281 141.645 29.7266 141.801 29.6484C141.973 29.5703 142.152 29.5078 142.34 29.4609C142.48 29.4297 142.613 29.4141 142.738 29.4141C142.848 29.4141 142.949 29.4219 143.043 29.4375C143.152 29.4531 143.238 29.4922 143.301 29.5547C143.27 30.3047 143.238 30.9453 143.207 31.4766C143.191 31.9922 143.168 32.4453 143.137 32.8359C143.121 33.2266 143.105 33.5781 143.09 33.8906C143.074 34.1875 143.051 34.4922 143.02 34.8047C143.004 35.1172 142.98 35.4609 142.949 35.8359C142.918 36.1953 142.887 36.6328 142.855 37.1484C142.824 37.4766 142.801 37.8125 142.785 38.1562C142.77 38.4844 142.754 38.8203 142.738 39.1641C142.879 38.7734 143.051 38.3672 143.254 37.9453C143.473 37.5234 143.723 37.1406 144.004 36.7969C144.285 36.4531 144.605 36.1719 144.965 35.9531C145.324 35.7188 145.715 35.6016 146.137 35.6016C146.73 35.6016 147.207 35.7734 147.566 36.1172C147.926 36.4609 148.199 36.8828 148.387 37.3828C148.574 37.8672 148.691 38.3828 148.738 38.9297C148.801 39.4766 148.832 39.9609 148.832 40.3828C148.832 40.7891 148.777 41.2734 148.668 41.8359C148.574 42.3828 148.395 42.9141 148.129 43.4297C147.879 43.9297 147.543 44.3594 147.121 44.7188C146.699 45.0781 146.168 45.2578 145.527 45.2578C145.074 45.2578 144.691 45.1641 144.379 44.9766C144.066 44.7891 143.809 44.5703 143.605 44.3203C143.402 44.0703 143.254 43.8203 143.16 43.5703C143.082 43.3203 143.043 43.1406 143.043 43.0312C143.043 42.9219 143.082 42.7969 143.16 42.6562C143.238 42.5 143.332 42.3594 143.441 42.2344C143.551 42.0938 143.668 41.9844 143.793 41.9062C143.918 41.8125 144.02 41.7734 144.098 41.7891C144.066 42.3047 144.098 42.7031 144.191 42.9844C144.301 43.25 144.426 43.4453 144.566 43.5703C144.738 43.7266 144.926 43.8125 145.129 43.8281C145.426 43.8281 145.684 43.6875 145.902 43.4062C146.137 43.125 146.332 42.7812 146.488 42.375C146.645 41.9688 146.762 41.5312 146.84 41.0625C146.934 40.5781 146.98 40.1484 146.98 39.7734C146.98 39.4922 146.957 39.1953 146.91 38.8828C146.879 38.5547 146.824 38.2578 146.746 37.9922C146.668 37.7109 146.559 37.4844 146.418 37.3125C146.277 37.1406 146.105 37.0547 145.902 37.0547C145.559 37.0547 145.199 37.25 144.824 37.6406C144.449 38.0312 144.105 38.5469 143.793 39.1875C143.48 39.8125 143.223 40.5234 143.02 41.3203C142.816 42.1172 142.723 42.9297 142.738 43.7578C142.738 43.9766 142.746 44.1719 142.762 44.3438C142.793 44.5 142.824 44.6406 142.855 44.7656C142.48 44.9219 142.184 45.0156 141.965 45.0469C141.84 45.0781 141.738 45.0859 141.66 45.0703C141.441 45.0703 141.262 45.0078 141.121 44.8828C140.98 44.7578 140.895 44.4922 140.863 44.0859C140.848 43.9453 140.84 43.5625 140.84 42.9375C140.84 42.2969 140.84 41.5312 140.84 40.6406C140.84 39.7344 140.84 38.7578 140.84 37.7109C140.855 36.6641 140.863 35.6562 140.863 34.6875C140.879 33.7188 140.887 32.8516 140.887 32.0859C140.902 31.3047 140.918 30.7422 140.934 30.3984ZM156.66 40.9688C156.629 41.5781 156.52 42.1406 156.332 42.6562C156.16 43.1719 155.918 43.625 155.605 44.0156C155.293 44.3906 154.918 44.6875 154.48 44.9062C154.059 45.125 153.59 45.2422 153.074 45.2578C152.621 45.2734 152.191 45.1641 151.785 44.9297C151.395 44.6953 151.051 44.3672 150.754 43.9453C150.457 43.5234 150.23 43.0234 150.074 42.4453C149.934 41.8516 149.895 41.2109 149.957 40.5234C150.004 39.7266 150.152 39.0469 150.402 38.4844C150.652 37.9062 150.918 37.4297 151.199 37.0547C151.48 36.6797 151.738 36.4062 151.973 36.2344C152.223 36.0469 152.379 35.9375 152.441 35.9062C152.551 35.8594 152.652 35.8516 152.746 35.8828C152.84 35.8984 152.941 35.9219 153.051 35.9531C153.082 35.9688 153.113 36.0078 153.145 36.0703C153.207 36.1797 153.246 36.3828 153.262 36.6797C153.34 36.5078 153.441 36.3672 153.566 36.2578C153.691 36.1484 153.816 36.0703 153.941 36.0234C154.098 35.9609 154.254 35.9219 154.41 35.9062C154.52 35.8906 154.707 35.9766 154.973 36.1641C155.254 36.3516 155.52 36.6484 155.77 37.0547C156.035 37.4609 156.262 37.9922 156.449 38.6484C156.637 39.2891 156.707 40.0625 156.66 40.9688ZM155.066 40.6875C155.082 40.3125 155.066 39.9375 155.02 39.5625C154.988 39.1719 154.926 38.8203 154.832 38.5078C154.754 38.1797 154.652 37.9219 154.527 37.7344C154.402 37.5312 154.277 37.4297 154.152 37.4297C154.012 37.4609 153.855 37.5312 153.684 37.6406C153.543 37.7344 153.387 37.8828 153.215 38.0859C153.043 38.2891 152.879 38.5781 152.723 38.9531C152.707 38.9062 152.691 38.8203 152.676 38.6953C152.66 38.5859 152.645 38.4453 152.629 38.2734C152.629 38.0859 152.645 37.8359 152.676 37.5234C152.457 37.7891 152.285 38.1016 152.16 38.4609C152.051 38.8203 151.965 39.1641 151.902 39.4922C151.84 39.8828 151.793 40.2734 151.762 40.6641C151.746 41.0859 151.762 41.5 151.809 41.9062C151.871 42.3125 151.965 42.6719 152.09 42.9844C152.23 43.2969 152.395 43.5469 152.582 43.7344C152.77 43.9219 152.996 44.0078 153.262 43.9922C153.527 43.9766 153.762 43.8672 153.965 43.6641C154.168 43.4609 154.348 43.2031 154.504 42.8906C154.66 42.5781 154.785 42.2266 154.879 41.8359C154.973 41.4453 155.035 41.0625 155.066 40.6875ZM164.699 43.8047C164.73 43.9141 164.777 44.0156 164.84 44.1094C164.887 44.1875 164.949 44.2656 165.027 44.3438C165.121 44.4062 165.23 44.4453 165.355 44.4609C165.246 44.6797 165.137 44.8281 165.027 44.9062C164.965 44.9531 164.91 44.9844 164.863 45C164.723 45.0469 164.512 45.0703 164.23 45.0703C163.949 45.0703 163.676 44.9844 163.41 44.8125C163.316 44.7344 163.23 44.6172 163.152 44.4609C163.074 44.3359 163.004 44.1641 162.941 43.9453C162.895 43.7109 162.855 43.4141 162.824 43.0547C162.605 43.5234 162.355 43.8984 162.074 44.1797C161.809 44.4453 161.543 44.6406 161.277 44.7656C160.98 44.9375 160.676 45.0391 160.363 45.0703C159.973 45.1016 159.598 45.0391 159.238 44.8828C158.895 44.7109 158.598 44.4609 158.348 44.1328C158.113 43.7891 157.934 43.375 157.809 42.8906C157.684 42.4062 157.645 41.8594 157.691 41.25C157.738 40.6094 157.863 40.0391 158.066 39.5391C158.27 39.0391 158.512 38.5938 158.793 38.2031C159.074 37.8125 159.371 37.4844 159.684 37.2188C159.996 36.9375 160.293 36.7109 160.574 36.5391C160.871 36.3516 161.121 36.2188 161.324 36.1406C161.543 36.0469 161.684 35.9922 161.746 35.9766C161.918 35.9297 162.066 35.9141 162.191 35.9297C162.316 35.9453 162.426 36.0156 162.52 36.1406C162.551 36.1875 162.59 36.2422 162.637 36.3047C162.668 36.3672 162.707 36.4531 162.754 36.5625C162.801 36.6562 162.84 36.7656 162.871 36.8906C162.496 37.0625 162.145 37.2578 161.816 37.4766C161.488 37.6797 161.184 37.9297 160.902 38.2266C160.637 38.5234 160.402 38.8828 160.199 39.3047C159.996 39.7266 159.84 40.2422 159.73 40.8516C159.574 41.6172 159.613 42.2344 159.848 42.7031C160.098 43.1719 160.434 43.3672 160.855 43.2891C161.105 43.2109 161.348 43.0625 161.582 42.8438C161.785 42.6562 161.996 42.375 162.215 42C162.449 41.625 162.668 41.1094 162.871 40.4531C162.949 39.5156 163.012 38.7812 163.059 38.25C163.121 37.7031 163.176 37.2891 163.223 37.0078C163.285 36.6797 163.332 36.4609 163.363 36.3516C163.41 36.2734 163.504 36.2031 163.645 36.1406C163.785 36.0625 163.941 36 164.113 35.9531C164.285 35.9062 164.441 35.8828 164.582 35.8828C164.723 35.8672 164.816 35.8672 164.863 35.8828C164.895 35.8984 164.91 36.0938 164.91 36.4688C164.91 36.8281 164.895 37.2891 164.863 37.8516C164.848 38.3984 164.824 39 164.793 39.6562C164.762 40.2969 164.73 40.9062 164.699 41.4844C164.684 42.0625 164.668 42.5703 164.652 43.0078C164.652 43.4297 164.668 43.6953 164.699 43.8047ZM173.066 37.8047C173.066 38.0234 173.004 38.25 172.879 38.4844C172.77 38.7031 172.629 38.9141 172.457 39.1172C172.285 39.3203 172.09 39.5 171.871 39.6562C171.668 39.7969 171.473 39.8828 171.285 39.9141C171.41 39.4297 171.449 39.0547 171.402 38.7891C171.355 38.5234 171.277 38.3281 171.168 38.2031C171.043 38.0625 170.887 37.9844 170.699 37.9688C170.418 37.9688 170.145 38.1328 169.879 38.4609C169.629 38.7734 169.41 39.1641 169.223 39.6328C169.035 40.0859 168.887 40.5781 168.777 41.1094C168.668 41.625 168.613 42.0938 168.613 42.5156C168.598 42.8125 168.605 43.1016 168.637 43.3828C168.652 43.6172 168.676 43.8594 168.707 44.1094C168.754 44.3594 168.816 44.5547 168.895 44.6953C168.801 44.7734 168.645 44.8672 168.426 44.9766C168.223 45.0859 168.004 45.1562 167.77 45.1875C167.551 45.2188 167.348 45.1797 167.16 45.0703C166.988 44.9609 166.895 44.7266 166.879 44.3672C166.848 44.0234 166.824 43.6406 166.809 43.2188C166.809 42.7812 166.809 42.3516 166.809 41.9297C166.824 41.4922 166.84 41.0625 166.855 40.6406C166.871 40.2188 166.895 39.8281 166.926 39.4688C166.957 38.7812 166.973 38.25 166.973 37.875C166.973 37.5 166.965 37.1406 166.949 36.7969C166.949 36.7344 167.051 36.6484 167.254 36.5391C167.473 36.4141 167.707 36.3047 167.957 36.2109C168.223 36.1172 168.465 36.0625 168.684 36.0469C168.902 36.0312 169.012 36.0781 169.012 36.1875C169.012 36.3594 168.988 36.7031 168.941 37.2188C168.91 37.7188 168.863 38.2422 168.801 38.7891C168.91 38.4922 169.051 38.1719 169.223 37.8281C169.41 37.4844 169.621 37.1641 169.855 36.8672C170.09 36.5703 170.355 36.3281 170.652 36.1406C170.949 35.9375 171.277 35.8359 171.637 35.8359C171.918 35.8359 172.145 35.9219 172.316 36.0938C172.504 36.2656 172.652 36.4609 172.762 36.6797C172.871 36.8984 172.949 37.1172 172.996 37.3359C173.043 37.5547 173.066 37.7109 173.066 37.8047ZM181.434 30.1172C181.434 30.2891 181.418 30.625 181.387 31.125C181.355 31.625 181.316 32.2266 181.27 32.9297C181.223 33.6328 181.176 34.4062 181.129 35.25C181.082 36.0938 181.043 36.9531 181.012 37.8281C180.98 38.7031 180.949 39.5234 180.918 40.2891C180.902 41.0391 180.895 41.7109 180.895 42.3047C180.91 42.8984 180.941 43.3984 180.988 43.8047C181.035 44.1953 181.105 44.4609 181.199 44.6016L180.145 45C180.066 45.0312 179.973 45.0469 179.863 45.0469C179.754 45.0469 179.637 45.0156 179.512 44.9531C179.402 44.8906 179.309 44.7812 179.23 44.625C179.152 44.4688 179.113 44.25 179.113 43.9688C179.113 43.8594 179.113 43.7266 179.113 43.5703C179.129 43.3984 179.137 43.2031 179.137 42.9844C178.949 43.2969 178.746 43.6016 178.527 43.8984C178.309 44.1953 178.066 44.4531 177.801 44.6719C177.551 44.8906 177.277 45.0625 176.98 45.1875C176.684 45.3281 176.371 45.3984 176.043 45.3984C175.73 45.3984 175.426 45.3281 175.129 45.1875C174.832 45.0625 174.566 44.8672 174.332 44.6016C174.098 44.3359 173.902 43.9922 173.746 43.5703C173.605 43.1484 173.535 42.6406 173.535 42.0469C173.535 40.9688 173.66 40.0312 173.91 39.2344C174.16 38.4219 174.473 37.75 174.848 37.2188C175.238 36.6719 175.652 36.2656 176.09 36C176.543 35.7188 176.957 35.5781 177.332 35.5781C177.91 35.5781 178.355 35.7344 178.668 36.0469C178.98 36.3438 179.207 36.6562 179.348 36.9844C179.363 36.5312 179.371 36.1094 179.371 35.7188C179.387 35.3125 179.395 34.9688 179.395 34.6875C179.395 33.5312 179.371 32.5 179.324 31.5938C179.277 30.6875 179.16 30 178.973 29.5312C179.191 29.4062 179.387 29.3125 179.559 29.25C179.746 29.1875 179.91 29.1406 180.051 29.1094C180.223 29.0625 180.371 29.0391 180.496 29.0391C180.84 29.0391 181.082 29.1406 181.223 29.3438C181.363 29.5312 181.434 29.7891 181.434 30.1172ZM179.207 40.9922C179.238 40.5859 179.254 40.1641 179.254 39.7266C179.27 39.2734 179.285 38.8203 179.301 38.3672C179.191 38.5391 179.059 38.6875 178.902 38.8125C178.762 38.9375 178.605 38.9688 178.434 38.9062C178.496 38.4375 178.488 38.0781 178.41 37.8281C178.348 37.5781 178.254 37.3906 178.129 37.2656C177.988 37.125 177.824 37.0469 177.637 37.0312C177.355 37.0312 177.074 37.1875 176.793 37.5C176.527 37.8125 176.285 38.2031 176.066 38.6719C175.863 39.125 175.699 39.6172 175.574 40.1484C175.449 40.6641 175.387 41.1406 175.387 41.5781C175.387 42.4531 175.504 43.0625 175.738 43.4062C175.988 43.75 176.254 43.9219 176.535 43.9219C176.77 43.9219 177.012 43.8281 177.262 43.6406C177.527 43.4531 177.777 43.2109 178.012 42.9141C178.262 42.6172 178.488 42.3047 178.691 41.9766C178.91 41.6328 179.082 41.3047 179.207 40.9922Z" fill="black"/>
</svg>
